M48
; DRILL file {KiCad 8.0.1-8.0.1-1~ubuntu22.04.1} date 2024-03-26T23:20:52-0400
; FORMAT={-:-/ absolute / inch / decimal}
; #@! TF.CreationDate,2024-03-26T23:20:52-04:00
; #@! TF.GenerationSoftware,Kicad,Pcbnew,8.0.1-8.0.1-1~ubuntu22.04.1
; #@! TF.FileFunction,NonPlated,1,2,NPTH
FMAT,2
INCH
; #@! TA.AperFunction,NonPlated,NPTH,ComponentDrill
T1C0.0591
; #@! TA.AperFunction,NonPlated,NPTH,ComponentDrill
T2C0.0670
; #@! TA.AperFunction,NonPlated,NPTH,ComponentDrill
T3C0.1181
; #@! TA.AperFunction,NonPlated,NPTH,ComponentDrill
T4C0.1200
; #@! TA.AperFunction,NonPlated,NPTH,ComponentDrill
T5C0.1570
%
G90
G05
T1
X6.2016Y-5.8373
T2
X1.2167Y-5.6136
X1.2232Y-6.3636
X1.2297Y-7.1136
X1.4107Y-4.1119
X1.4173Y-4.8618
X1.4435Y-7.8617
X1.6166Y-5.6101
X1.6232Y-6.3601
X1.6297Y-7.1101
X1.8107Y-4.1084
X1.8173Y-4.8583
X1.8434Y-7.8582
X2.1673Y-4.8553
X2.1738Y-5.6053
X2.1803Y-6.3552
X2.1869Y-7.1052
X2.1934Y-7.8552
X2.5672Y-4.8518
X2.5738Y-5.6018
X2.5803Y-6.3517
X2.5869Y-7.1017
X2.5934Y-7.8517
X2.9427Y-7.7664
X2.9493Y-7.0164
X2.9558Y-6.2665
X2.9624Y-5.5165
X2.9689Y-4.7665
X2.9754Y-4.0165
X3.3427Y-7.7699
X3.3492Y-7.0199
X3.3558Y-6.2699
X3.3623Y-5.52
X3.3689Y-4.77
X3.3754Y-4.02
X3.6931Y-7.7301
X3.7127Y-6.9803
X3.7324Y-6.2306
X3.752Y-5.4809
X3.7716Y-4.7311
X3.7913Y-3.9814
X4.093Y-7.7406
X4.1126Y-6.9908
X4.1322Y-6.2411
X4.1519Y-5.4913
X4.1715Y-4.7416
X4.1911Y-3.9918
X4.4746Y-7.0363
X4.5074Y-6.287
X4.5401Y-5.5377
X4.5728Y-4.7884
X4.6055Y-4.0392
X4.8743Y-7.0537
X4.907Y-6.3045
X4.9397Y-5.5552
X4.9724Y-4.8059
X5.0051Y-4.0566
X5.1318Y-7.8244
X5.2268Y-7.0781
X5.2628Y-6.329
X5.2988Y-5.5799
X5.3348Y-4.8307
X5.3707Y-4.0816
X5.5314Y-7.8436
X5.6263Y-7.0973
X5.6623Y-6.3482
X5.6983Y-5.599
X5.7343Y-4.8499
X5.7703Y-4.1008
X7.0758Y-4.1004
X7.1118Y-4.8496
X7.1478Y-5.5987
X7.1838Y-6.3478
X7.2197Y-7.097
X7.3147Y-7.8433
X7.4753Y-4.0812
X7.5113Y-4.8304
X7.5473Y-5.5795
X7.5833Y-6.3287
X7.6193Y-7.0778
X7.7142Y-7.8241
X7.8245Y-4.0546
X7.8605Y-4.8038
X7.8964Y-5.5529
X7.9324Y-6.302
X7.9684Y-7.0512
X8.224Y-4.0354
X8.26Y-4.7846
X8.296Y-5.5337
X8.332Y-6.2828
X8.3679Y-7.032
X8.637Y-3.9733
X8.6599Y-4.7229
X8.6828Y-5.4726
X8.7057Y-6.2222
X8.7286Y-6.9719
X8.7515Y-7.7215
X9.0368Y-3.961
X9.0597Y-4.7107
X9.0826Y-5.4603
X9.1055Y-6.21
X9.1284Y-6.9596
X9.1513Y-7.7093
X9.4532Y-3.9848
X9.463Y-4.7347
X9.4728Y-5.4847
X9.4826Y-6.2346
X9.4925Y-6.9845
X9.5023Y-7.7345
X9.8532Y-3.9795
X9.863Y-4.7295
X9.8728Y-5.4794
X9.8826Y-6.2294
X9.8924Y-6.9793
X9.9022Y-7.7292
X10.2532Y-7.7999
X10.2565Y-7.0499
X10.2598Y-6.2999
X10.263Y-5.5499
X10.2663Y-4.7999
X10.6532Y-7.8016
X10.6565Y-7.0516
X10.6598Y-6.3016
X10.663Y-5.5517
X10.6663Y-4.8017
X11.0032Y-7.8032
X11.0098Y-6.3032
X11.013Y-5.5532
X11.0163Y-4.8032
X11.0196Y-4.0532
X11.2176Y-7.0541
X11.4032Y-7.8049
X11.4098Y-6.3049
X11.413Y-5.5549
X11.4163Y-4.8049
X11.4196Y-4.0549
X11.6176Y-7.0558
X11.763Y-5.5565
X11.7663Y-4.8065
X11.7696Y-4.0565
X11.9709Y-6.3074
X12.163Y-5.5582
X12.1663Y-4.8082
X12.1696Y-4.0582
X12.3709Y-6.3091
X12.513Y-5.5597
X12.5196Y-4.0597
X12.5828Y-7.8429
X12.7274Y-4.8107
X12.8517Y-7.5468
X12.913Y-5.5615
X12.9196Y-4.0615
X13.087Y-7.2877
X13.1274Y-4.8124
X13.1379Y-8.3471
X13.2696Y-4.063
X13.356Y-6.9916
X13.4069Y-8.051
X13.6422Y-7.792
X13.6696Y-4.0648
X13.7174Y-6.5937
X13.9111Y-7.4959
X13.9863Y-6.2977
X14.2217Y-6.0386
X14.2725Y-7.098
X14.3913Y-4.8179
X14.3945Y-4.0679
X14.4906Y-5.7425
X14.5415Y-6.8019
X14.7768Y-6.5429
X14.7913Y-4.8197
X14.7945Y-4.0697
X15.0458Y-6.2468
X15.1413Y-4.8212
X15.1445Y-4.0712
X15.5413Y-4.8229
X15.5445Y-4.0729
T3
X1.2658Y-5.5132
X1.2723Y-6.2632
X1.2789Y-7.0131
X1.4599Y-4.0114
X1.4664Y-4.7614
X1.4926Y-7.7613
X1.5149Y-5.411
X1.5214Y-6.161
X1.528Y-6.9109
X1.709Y-3.9093
X1.7155Y-4.6592
X1.7417Y-7.6591
X2.2164Y-4.7549
X2.2229Y-5.5048
X2.2295Y-6.2548
X2.236Y-7.0048
X2.2426Y-7.7547
X2.4655Y-4.6527
X2.472Y-5.4026
X2.4786Y-6.1526
X2.4851Y-6.9026
X2.4917Y-7.6526
X2.9936Y-7.6668
X3.0001Y-6.9169
X3.0067Y-6.1669
X3.0132Y-5.4169
X3.0198Y-4.667
X3.0263Y-3.917
X3.2445Y-7.569
X3.251Y-6.8191
X3.2575Y-6.0691
X3.2641Y-5.3191
X3.2706Y-4.5691
X3.2772Y-3.8192
X3.7457Y-7.6314
X3.7653Y-6.8817
X3.785Y-6.1319
X3.8046Y-5.3822
X3.8242Y-4.6325
X3.8439Y-3.8827
X3.9982Y-7.538
X4.0179Y-6.7883
X4.0375Y-6.0385
X4.0571Y-5.2888
X4.0768Y-4.539
X4.0964Y-3.7893
X4.529Y-6.9386
X4.5617Y-6.1893
X4.5944Y-5.44
X4.6271Y-4.6907
X4.6598Y-3.9414
X4.7831Y-6.8496
X4.8158Y-6.1003
X4.8485Y-5.351
X4.8812Y-4.6017
X4.9139Y-3.8524
X5.1866Y-7.7269
X5.2816Y-6.9806
X5.3175Y-6.2315
X5.3535Y-5.4824
X5.3895Y-4.7332
X5.4255Y-3.9841
X5.4411Y-7.6391
X5.5361Y-6.8928
X5.572Y-6.1436
X5.608Y-5.3945
X5.644Y-4.6453
X5.68Y-3.8962
X7.1209Y-3.9982
X7.1569Y-4.7473
X7.1929Y-5.4964
X7.2289Y-6.2456
X7.2649Y-6.9947
X7.3599Y-7.741
X7.3659Y-3.8863
X7.4018Y-4.6354
X7.4378Y-5.3845
X7.4738Y-6.1337
X7.5098Y-6.8828
X7.6048Y-7.6291
X7.8696Y-3.9523
X7.9056Y-4.7015
X7.9416Y-5.4506
X7.9776Y-6.1997
X8.0135Y-6.9489
X8.1145Y-3.8405
X8.1505Y-4.5896
X8.1865Y-5.3387
X8.2225Y-6.0879
X8.2585Y-6.837
X8.6839Y-3.8718
X8.7068Y-4.6214
X8.7297Y-5.3711
X8.7526Y-6.1207
X8.7755Y-6.8704
X8.7984Y-7.62
X8.9307Y-3.7642
X8.9536Y-4.5138
X8.9765Y-5.2635
X8.9994Y-6.0131
X9.0223Y-6.7628
X9.0452Y-7.5124
X9.5019Y-3.8841
X9.5117Y-4.6341
X9.5215Y-5.384
X9.5313Y-6.1339
X9.5411Y-6.8839
X9.551Y-7.6338
X9.7505Y-3.7809
X9.7604Y-4.5308
X9.7702Y-5.2807
X9.78Y-6.0307
X9.7898Y-6.7806
X9.7996Y-7.5306
X10.3037Y-7.7001
X10.3069Y-6.9501
X10.3102Y-6.2001
X10.3135Y-5.4501
X10.3167Y-4.7001
X10.5541Y-7.6012
X10.5574Y-6.8512
X10.5606Y-6.1012
X10.5639Y-5.3512
X10.5672Y-4.6012
X11.0537Y-7.7034
X11.0602Y-6.2034
X11.0635Y-5.4534
X11.0667Y-4.7034
X11.07Y-3.9534
X11.268Y-6.9543
X11.3041Y-7.6045
X11.3106Y-6.1045
X11.3139Y-5.3545
X11.3172Y-4.6045
X11.3204Y-3.8545
X11.5185Y-6.8554
X11.8135Y-5.4567
X11.8167Y-4.7067
X11.82Y-3.9567
X12.0213Y-6.2076
X12.0639Y-5.3578
X12.0672Y-4.6078
X12.0704Y-3.8578
X12.2717Y-6.1087
X12.5424Y-7.7386
X12.5635Y-5.4599
X12.57Y-3.96
X12.6364Y-7.4863
X12.7778Y-4.7109
X12.8139Y-5.361
X12.8204Y-3.8611
X13.0283Y-4.612
X13.0466Y-7.1835
X13.0975Y-8.2429
X13.1407Y-6.9312
X13.1916Y-7.9906
X13.32Y-3.9632
X13.5704Y-3.8643
X13.6018Y-7.6877
X13.677Y-6.4895
X13.6959Y-7.4354
X13.771Y-6.2372
X14.1813Y-5.9343
X14.2321Y-6.9938
X14.2753Y-5.682
X14.3262Y-6.7415
X14.4417Y-4.7181
X14.445Y-3.9681
X14.6921Y-4.6192
X14.6954Y-3.8692
X14.7364Y-6.4386
X14.8305Y-6.1863
X15.1917Y-4.7214
X15.195Y-3.9714
X15.4421Y-4.6225
X15.4454Y-3.8725
T4
X4.8478Y-8.1105
X5.7867Y-8.1556
X7.0594Y-8.1553
X7.9983Y-8.1102
T5
X1.4166Y-5.6119
X1.4232Y-6.3618
X1.4297Y-7.1118
X1.6107Y-4.1101
X1.6173Y-4.8601
X1.6435Y-7.86
X2.3672Y-4.8535
X2.3738Y-5.6035
X2.3803Y-6.3535
X2.3869Y-7.1035
X2.3934Y-7.8534
X3.1427Y-7.7681
X3.1493Y-7.0182
X3.1558Y-6.2682
X3.1623Y-5.5182
X3.1689Y-4.7683
X3.1754Y-4.0183
X3.893Y-7.7353
X3.9127Y-6.9856
X3.9323Y-6.2358
X3.9519Y-5.4861
X3.9716Y-4.7364
X3.9912Y-3.9866
X4.6745Y-7.045
X4.7072Y-6.2957
X4.7399Y-5.5465
X4.7726Y-4.7972
X4.8053Y-4.0479
X4.8765Y-7.5124
X5.3316Y-7.834
X5.4266Y-7.0877
X5.4626Y-6.3386
X5.4985Y-5.5895
X5.5345Y-4.8403
X5.5705Y-4.0912
X5.8154Y-7.5575
X7.0307Y-7.5572
X7.2756Y-4.0908
X7.3116Y-4.84
X7.3475Y-5.5891
X7.3835Y-6.3382
X7.4195Y-7.0874
X7.5145Y-7.8337
X7.9696Y-7.5121
X8.0242Y-4.045
X8.0602Y-4.7942
X8.0962Y-5.5433
X8.1322Y-6.2924
X8.1682Y-7.0416
X8.8369Y-3.9671
X8.8598Y-4.7168
X8.8827Y-5.4664
X8.9056Y-6.2161
X8.9285Y-6.9657
X8.9514Y-7.7154
X9.6532Y-3.9822
X9.663Y-4.7321
X9.6728Y-5.482
X9.6826Y-6.232
X9.6924Y-6.9819
X9.7023Y-7.7318
X10.4532Y-7.8008
X10.4565Y-7.0508
X10.4598Y-6.3008
X10.463Y-5.5508
X10.4663Y-4.8008
X11.2032Y-7.804
X11.2098Y-6.304
X11.213Y-5.5541
X11.2163Y-4.8041
X11.2196Y-4.0541
X11.4176Y-7.055
X11.963Y-5.5573
X11.9663Y-4.8073
X11.9696Y-4.0573
X12.1709Y-6.3082
X12.713Y-5.5606
X12.7172Y-7.6948
X12.7196Y-4.0606
X12.9274Y-4.8115
X13.2215Y-7.1397
X13.2724Y-8.1991
X13.4696Y-4.0639
X13.7767Y-7.6439
X13.8519Y-6.4457
X14.3561Y-5.8905
X14.407Y-6.95
X14.5913Y-4.8188
X14.5945Y-4.0688
X14.9113Y-6.3948
X15.3413Y-4.8221
X15.3445Y-4.0721
M30
