M48
; DRILL file {KiCad 8.0.1-8.0.1-1~ubuntu22.04.1} date 2024-03-26T23:20:52-0400
; FORMAT={-:-/ absolute / inch / decimal}
; #@! TF.CreationDate,2024-03-26T23:20:52-04:00
; #@! TF.GenerationSoftware,Kicad,Pcbnew,8.0.1-8.0.1-1~ubuntu22.04.1
; #@! TF.FileFunction,Plated,1,2,PTH
FMAT,2
INCH
; #@! TA.AperFunction,Plated,PTH,ViaDrill
T1C0.0157
; #@! TA.AperFunction,Plated,PTH,ComponentDrill
T2C0.0157
; #@! TA.AperFunction,Plated,PTH,ComponentDrill
T3C0.0315
; #@! TA.AperFunction,Plated,PTH,ComponentDrill
T4C0.0354
; #@! TA.AperFunction,Plated,PTH,ComponentDrill
T5C0.0394
; #@! TA.AperFunction,Plated,PTH,ComponentDrill
T6C0.0430
; #@! TA.AperFunction,Plated,PTH,ComponentDrill
T7C0.0433
; #@! TA.AperFunction,Plated,PTH,ComponentDrill
T8C0.0591
; #@! TA.AperFunction,Plated,PTH,ComponentDrill
T9C0.0866
%
G90
G05
T1
X1.2501Y-5.7813
X1.2567Y-6.5313
X1.2632Y-7.2813
X1.4442Y-4.2796
X1.4507Y-5.0295
X1.4769Y-8.0294
X1.708Y-5.774
X1.726Y-7.276
X2.036Y-5.082
X2.038Y-6.58
X2.058Y-4.212
X2.142Y-5.08
X2.144Y-5.782
X2.154Y-6.584
X2.16Y-7.278
X2.2007Y-5.023
X2.2073Y-5.773
X2.2138Y-6.5229
X2.2204Y-7.2729
X2.2269Y-8.0229
X2.62Y-3.992
X2.672Y-5.77
X2.774Y-7.274
X2.776Y-6.49
X2.82Y-4.99
X2.906Y-7.268
X2.912Y-6.49
X2.934Y-4.988
X2.938Y-5.77
X2.9733Y-7.9347
X2.9798Y-7.1847
X2.9863Y-6.4347
X2.9929Y-5.6848
X2.9994Y-4.9348
X3.006Y-4.1848
X3.446Y-4.188
X3.45Y-5.688
X3.53Y-7.188
X3.58Y-6.44
X3.608Y-4.956
X3.668Y-7.19
X3.7Y-6.458
X3.714Y-5.692
X3.7207Y-7.8989
X3.7403Y-7.1491
X3.742Y-4.204
X3.744Y-4.956
X3.76Y-6.3994
X3.7796Y-5.6496
X3.7992Y-4.8999
X3.8189Y-4.1502
X4.238Y-5.654
X4.274Y-4.162
X4.336Y-6.508
X4.42Y-5.012
X4.458Y-6.506
X4.476Y-5.656
X4.4993Y-7.2055
X4.532Y-6.4563
X4.546Y-5.012
X4.5647Y-5.707
X4.58Y-4.264
X4.5974Y-4.9577
X4.6301Y-4.2084
X4.946Y-4.974
X4.954Y-7.22
X5.008Y-7.47
X5.016Y-5.724
X5.07Y-4.224
X5.092Y-6.556
X5.124Y-7.224
X5.1557Y-7.9938
X5.174Y-7.612
X5.216Y-6.558
X5.234Y-5.72
X5.2507Y-7.2475
X5.282Y-3.832
X5.2867Y-6.4983
X5.296Y-5.062
X5.3227Y-5.7492
X5.334Y-4.306
X5.3587Y-5.0001
X5.3946Y-4.2509
X5.416Y-3.624
X5.484Y-5.394
X5.638Y-6.512
X5.682Y-6.748
X6.352Y-4.024
X6.36Y-4.268
X6.5528Y-3.8428
X6.62Y-3.712
X7.1158Y-4.2667
X7.1518Y-5.0158
X7.1878Y-5.765
X7.2238Y-6.5141
X7.226Y-5.65
X7.2598Y-7.2633
X7.3547Y-8.0096
X7.568Y-6.504
X7.652Y-4.254
X7.652Y-5.748
X7.714Y-5.022
X7.786Y-4.254
X7.834Y-5.02
X7.8645Y-4.2209
X7.866Y-5.752
X7.9Y-6.522
X7.9005Y-4.97
X7.9365Y-5.7192
X7.9724Y-6.4683
X8.0084Y-7.2174
X8.398Y-5.704
X8.44Y-4.21
X8.476Y-7.202
X8.494Y-4.946
X8.536Y-6.448
X8.604Y-4.21
X8.64Y-4.944
X8.666Y-5.706
X8.6741Y-4.1402
X8.692Y-6.456
X8.697Y-4.8898
X8.7199Y-5.6395
X8.72Y-7.196
X8.7428Y-6.3891
X8.7657Y-7.1388
X8.7886Y-7.8884
X9.184Y-5.634
X9.224Y-7.134
X9.252Y-4.132
X9.292Y-4.958
X9.308Y-6.456
X9.418Y-4.134
X9.428Y-5.634
X9.444Y-4.96
X9.452Y-7.136
X9.468Y-6.456
X9.4874Y-4.1524
X9.4972Y-4.9023
X9.507Y-5.6522
X9.5168Y-6.4022
X9.5266Y-7.1521
X9.5365Y-7.902
X9.902Y-4.25
X9.97Y-5.65
X10.078Y-7.15
X10.098Y-6.526
X10.104Y-5.024
X10.216Y-5.65
X10.228Y-6.532
X10.228Y-7.27
X10.244Y-5.026
X10.2845Y-7.968
X10.2878Y-7.218
X10.291Y-6.468
X10.2943Y-5.718
X10.2976Y-4.9681
X10.754Y-7.226
X10.756Y-5.716
X10.856Y-6.528
X10.882Y-5.02
X10.98Y-4.252
X10.98Y-5.718
X10.988Y-5.022
X10.994Y-6.53
X11.0345Y-7.9713
X11.041Y-6.4713
X11.044Y-7.232
X11.0443Y-5.7213
X11.0476Y-4.9713
X11.0508Y-4.2213
X11.2489Y-7.2222
X11.502Y-5.722
X11.514Y-4.224
X11.616Y-5.028
X11.706Y-7.23
X11.72Y-5.722
X11.734Y-4.226
X11.744Y-5.028
X11.7943Y-5.7246
X11.7976Y-4.9746
X11.8008Y-4.2246
X12.0021Y-6.4755
X12.26Y-4.226
X12.352Y-4.978
X12.486Y-4.226
X12.5443Y-5.7279
X12.548Y-5.032
X12.5508Y-4.2279
X12.7286Y-7.9321
X12.7587Y-4.9788
X13.114Y-4.984
X13.164Y-7.402
X13.2329Y-7.377
X13.2838Y-8.4364
X13.3008Y-4.2311
X13.606Y-7.488
X13.758Y-4.232
X13.758Y-5.73
X13.7881Y-7.8812
X13.816Y-7.52
X13.8633Y-6.683
X14.068Y-6.864
X14.154Y-5.728
X14.342Y-5.086
X14.356Y-4.236
X14.3675Y-6.1279
X14.4184Y-7.1873
X14.422Y-7.262
X14.4225Y-4.9861
X14.4258Y-4.2361
X14.674Y-5.89
X14.81Y-6.01
X14.9227Y-6.6321
X14.964Y-4.238
X14.968Y-5.05
X15.106Y-4.24
X15.118Y-5.056
X15.1725Y-4.9893
X15.1758Y-4.2393
T2
X1.0854Y-7.8648
X1.104Y-7.8187
X1.1048Y-7.9106
X1.1498Y-7.7993
X1.1509Y-7.9292
X1.1959Y-7.8179
X1.1967Y-7.9098
X1.2153Y-7.8637
X1.2449Y-3.5808
X1.2635Y-3.5347
X1.2643Y-3.6266
X1.3093Y-3.5153
X1.3104Y-3.6452
X1.3554Y-3.5339
X1.3562Y-3.6258
X1.3748Y-3.5797
X5.8611Y-7.1086
X5.8779Y-7.1554
X5.8823Y-7.0636
X5.9229Y-7.1766
X5.9291Y-7.0468
X5.9691Y-4.8612
X5.9697Y-7.1598
X5.9741Y-7.068
X5.9859Y-4.908
X5.9903Y-4.8162
X5.9909Y-7.1148
X6.0308Y-4.9292
X6.0371Y-4.7994
X6.0776Y-4.9124
X6.082Y-4.8206
X6.0988Y-4.8674
X6.7472Y-4.8671
X6.764Y-4.8203
X6.7685Y-4.912
X6.809Y-4.7991
X6.8152Y-4.9288
X6.8552Y-7.1145
X6.8558Y-4.8159
X6.8602Y-4.9076
X6.872Y-7.0677
X6.8764Y-7.1595
X6.877Y-4.8608
X6.917Y-7.0465
X6.9232Y-7.1763
X6.9638Y-7.0633
X6.9682Y-7.155
X6.985Y-7.1083
X12.3283Y-8.3213
X12.3294Y-8.371
X12.3627Y-8.2853
X12.3653Y-8.4053
X12.4124Y-8.2843
X12.415Y-8.4043
X12.4483Y-8.3186
X12.4494Y-8.3683
X15.3623Y-5.7002
X15.3634Y-5.7499
X15.3967Y-5.6643
X15.3993Y-5.7843
X15.4464Y-5.6632
X15.449Y-5.7832
X15.4823Y-5.6976
X15.4834Y-5.7473
X15.5782Y-3.5406
X15.597Y-3.5866
X15.5974Y-3.4948
X15.6428Y-3.6058
X15.6434Y-3.4759
X15.6889Y-3.587
X15.6893Y-3.4952
X15.7081Y-3.5412
T3
X1.3211Y-5.9395
X1.3276Y-6.6895
X1.3342Y-7.4394
X1.5152Y-4.4377
X1.5179Y-5.9378
X1.5217Y-5.1877
X1.5245Y-6.6877
X1.531Y-7.4377
X1.5479Y-8.1876
X1.712Y-4.436
X1.7186Y-5.186
X1.7447Y-8.1859
X1.7495Y-5.293
X1.7521Y-5.593
X1.756Y-6.043
X1.7587Y-6.343
X1.7626Y-6.7929
X1.7652Y-7.0929
X1.9436Y-3.7913
X1.9462Y-4.0912
X1.9501Y-4.5412
X1.9528Y-4.8412
X1.9763Y-7.5411
X1.9789Y-7.8411
X2.2431Y-3.6441
X2.2431Y-3.7441
X2.2431Y-3.8441
X2.2431Y-3.9441
X2.2431Y-4.0441
X2.2431Y-4.1441
X2.2431Y-4.2441
X2.2431Y-4.3441
X2.2717Y-5.1812
X2.2782Y-5.9311
X2.2848Y-6.6811
X2.2913Y-7.4311
X2.2979Y-8.181
X2.3439Y-3.5162
X2.4423Y-3.5162
X2.4685Y-5.1794
X2.4751Y-5.9294
X2.4816Y-6.6794
X2.4882Y-7.4294
X2.4947Y-8.1793
X2.5431Y-3.6441
X2.5431Y-3.7441
X2.5431Y-3.8441
X2.5431Y-3.9441
X2.5431Y-4.0441
X2.5431Y-4.1441
X2.5431Y-4.2441
X2.5431Y-4.3441
X2.7001Y-4.5347
X2.7027Y-4.8347
X2.7067Y-5.2847
X2.7093Y-5.5846
X2.7132Y-6.0346
X2.7158Y-6.3346
X2.7197Y-6.7846
X2.7224Y-7.0846
X2.7263Y-7.5346
X2.7289Y-7.8346
X3.0414Y-8.094
X3.048Y-7.3441
X3.0545Y-6.5941
X3.0611Y-5.8441
X3.0676Y-5.0942
X3.0742Y-4.3442
X3.2383Y-8.0958
X3.2448Y-7.3458
X3.2514Y-6.5958
X3.2579Y-5.8459
X3.2645Y-5.0959
X3.271Y-4.3459
X3.4785Y-7.7551
X3.4811Y-7.4551
X3.485Y-7.0052
X3.4876Y-6.7052
X3.4916Y-6.2552
X3.4942Y-5.9552
X3.4981Y-5.5052
X3.5007Y-5.2052
X3.5046Y-4.7552
X3.5073Y-4.4553
X3.5112Y-4.0053
X3.5138Y-3.7053
X3.7861Y-8.0594
X3.8057Y-7.3097
X3.8253Y-6.5599
X3.845Y-5.8102
X3.8646Y-5.0604
X3.8842Y-4.3107
X3.9829Y-8.0646
X4.0025Y-7.3148
X4.0221Y-6.5651
X4.0418Y-5.8153
X4.0614Y-5.0656
X4.081Y-4.3158
X4.229Y-7.7282
X4.2368Y-7.4283
X4.2486Y-6.9784
X4.2564Y-6.6785
X4.2682Y-6.2287
X4.2761Y-5.9288
X4.2879Y-5.4789
X4.2957Y-5.179
X4.3075Y-4.7292
X4.3153Y-4.4293
X4.3271Y-3.9795
X4.335Y-3.6796
X4.5619Y-7.3672
X4.5946Y-6.6179
X4.6273Y-5.8686
X4.66Y-5.1193
X4.6927Y-4.37
X4.7585Y-7.3758
X4.7912Y-6.6265
X4.824Y-5.8772
X4.8567Y-5.1279
X4.8894Y-4.3786
X5.0105Y-7.0437
X5.0235Y-6.744
X5.0432Y-6.2945
X5.0563Y-5.9947
X5.0759Y-5.5452
X5.089Y-5.2454
X5.1086Y-4.7959
X5.1217Y-4.4962
X5.1413Y-4.0466
X5.1544Y-3.7469
X5.2176Y-8.1557
X5.3126Y-7.4094
X5.3486Y-6.6603
X5.3846Y-5.9111
X5.4142Y-8.1651
X5.4205Y-5.162
X5.4565Y-4.4129
X5.5092Y-7.4188
X5.5452Y-6.6697
X5.5812Y-5.9206
X5.6172Y-5.1714
X5.6531Y-4.4223
X5.6676Y-7.8342
X5.682Y-7.5345
X5.7626Y-7.0879
X5.777Y-6.7882
X5.7986Y-6.3388
X5.813Y-6.0391
X5.8346Y-5.5896
X5.8489Y-5.29
X5.8705Y-4.8405
X5.8849Y-4.5408
X5.9108Y-4.0838
X5.9252Y-3.7842
X5.99Y-5.0381
X5.9973Y-4.6635
X6.0165Y-4.264
X6.049Y-7.2839
X6.2021Y-5.2502
X6.2612Y-7.0717
X6.3738Y-3.776
X6.4723Y-3.776
X7.1929Y-4.422
X7.2289Y-5.1711
X7.2649Y-5.9202
X7.3009Y-6.6694
X7.3369Y-7.4185
X7.3896Y-4.4125
X7.4255Y-5.1616
X7.4318Y-8.1648
X7.4615Y-5.9108
X7.4975Y-6.6599
X7.5335Y-7.4091
X7.5957Y-3.7592
X7.6101Y-4.0588
X7.6285Y-8.1554
X7.6316Y-4.5083
X7.646Y-4.8079
X7.6676Y-5.2574
X7.682Y-5.5571
X7.7036Y-6.0066
X7.718Y-6.3062
X7.7396Y-6.7557
X7.754Y-7.0554
X7.8346Y-7.502
X7.849Y-7.8017
X7.9416Y-4.3761
X7.9776Y-5.1253
X8.0136Y-5.8744
X8.0496Y-6.6236
X8.0855Y-7.3727
X8.1382Y-4.3667
X8.1742Y-5.1158
X8.2102Y-5.865
X8.2462Y-6.6141
X8.2822Y-7.3632
X8.3443Y-3.7133
X8.3587Y-4.013
X8.3803Y-4.4625
X8.3947Y-4.7621
X8.4163Y-5.2116
X8.4307Y-5.5113
X8.4523Y-5.9607
X8.4667Y-6.2604
X8.4883Y-6.7099
X8.5026Y-7.0095
X8.7485Y-4.2968
X8.7714Y-5.0464
X8.7943Y-5.7961
X8.8172Y-6.5457
X8.8401Y-7.2954
X8.863Y-8.045
X8.9452Y-4.2908
X8.9681Y-5.0404
X8.991Y-5.7901
X9.014Y-6.5397
X9.0369Y-7.2894
X9.0598Y-8.039
X9.1627Y-3.6411
X9.1719Y-3.941
X9.1856Y-4.3907
X9.1948Y-4.6906
X9.2085Y-5.1404
X9.2177Y-5.4403
X9.2314Y-5.89
X9.2406Y-6.1899
X9.2543Y-6.6397
X9.2635Y-6.9396
X9.2772Y-7.3894
X9.2864Y-7.6892
X9.559Y-4.3102
X9.5688Y-5.0601
X9.5787Y-5.8101
X9.5885Y-6.56
X9.5983Y-7.3099
X9.6081Y-8.0599
X9.7559Y-4.3076
X9.7657Y-5.0576
X9.7755Y-5.8075
X9.7853Y-6.5574
X9.7951Y-7.3074
X9.8049Y-8.0573
X9.9846Y-3.6619
X9.9886Y-3.9618
X9.9945Y-4.4118
X9.9984Y-4.7118
X10.0043Y-5.1617
X10.0082Y-5.4617
X10.0141Y-5.9117
X10.018Y-6.2116
X10.0239Y-6.6616
X10.0278Y-6.9616
X10.0337Y-7.4115
X10.0376Y-7.7115
X10.2845Y-3.5987
X10.285Y-3.6987
X10.2854Y-3.7987
X10.2858Y-3.8987
X10.2863Y-3.9987
X10.2867Y-4.0987
X10.2872Y-4.1987
X10.2876Y-4.2987
X10.3534Y-8.1271
X10.3566Y-7.3771
X10.3599Y-6.6271
X10.3632Y-5.8771
X10.3665Y-5.1271
X10.3848Y-3.4703
X10.4832Y-3.4699
X10.5502Y-8.128
X10.5535Y-7.378
X10.5568Y-6.628
X10.56Y-5.878
X10.5633Y-5.128
X10.5845Y-3.5974
X10.585Y-3.6974
X10.5854Y-3.7974
X10.5858Y-3.8974
X10.5863Y-3.9974
X10.5867Y-4.0974
X10.5872Y-4.1974
X10.5876Y-4.2974
X10.7889Y-7.7863
X10.7902Y-7.4863
X10.7922Y-7.0363
X10.7935Y-6.7363
X10.7955Y-6.2863
X10.7968Y-5.9863
X10.7987Y-5.5363
X10.8Y-5.2363
X10.802Y-4.7863
X10.8033Y-4.4863
X11.1034Y-8.1304
X11.1099Y-6.6304
X11.1132Y-5.8804
X11.1165Y-5.1304
X11.1197Y-4.3804
X11.3002Y-8.1312
X11.3068Y-6.6312
X11.31Y-5.8813
X11.3133Y-5.1313
X11.3166Y-4.3813
X11.3178Y-7.3813
X11.5146Y-7.3822
X11.5389Y-7.7896
X11.5402Y-7.4896
X11.5455Y-6.2896
X11.5468Y-5.9896
X11.5487Y-5.5396
X11.55Y-5.2396
X11.552Y-4.7896
X11.5533Y-4.4896
X11.5553Y-4.0396
X11.5566Y-3.7396
X11.7533Y-7.0405
X11.7546Y-6.7405
X11.8632Y-5.8837
X11.8664Y-5.1337
X11.8697Y-4.3837
X12.06Y-5.8845
X12.0633Y-5.1345
X12.0666Y-4.3845
X12.071Y-6.6346
X12.2679Y-6.6354
X12.2987Y-5.5428
X12.3Y-5.2429
X12.302Y-4.7929
X12.3033Y-4.4929
X12.3053Y-4.0429
X12.3066Y-3.7429
X12.5066Y-6.2938
X12.5079Y-5.9938
X12.6132Y-5.8869
X12.6197Y-4.387
X12.709Y-7.2339
X12.81Y-5.8878
X12.8166Y-4.3878
X12.8276Y-5.1379
X12.8929Y-7.9874
X12.9311Y-7.4357
X13.0244Y-5.1387
X13.0253Y-7.8417
X13.0487Y-5.5461
X13.05Y-5.2461
X13.0553Y-4.0461
X13.0566Y-3.7461
X13.2133Y-6.6788
X13.2631Y-4.797
X13.2642Y-7.7382
X13.2644Y-4.4971
X13.3697Y-4.3902
X13.3972Y-7.4322
X13.4354Y-6.8805
X13.4481Y-8.4917
X13.4863Y-7.9399
X13.5296Y-7.2865
X13.5666Y-4.3911
X13.5805Y-8.3459
X13.7685Y-7.1831
X13.8053Y-4.0494
X13.8066Y-3.7494
X13.8437Y-5.9848
X13.9524Y-7.9365
X13.9905Y-7.3848
X14.0276Y-6.7383
X14.0657Y-6.1865
X14.0847Y-7.7908
X14.1599Y-6.5926
X14.3479Y-5.4297
X14.3988Y-6.4891
X14.4914Y-5.1451
X14.4947Y-4.3951
X14.5318Y-6.1831
X14.57Y-5.6314
X14.5827Y-7.2425
X14.6209Y-6.6908
X14.6642Y-6.0374
X14.6883Y-5.146
X14.6915Y-4.396
X14.7151Y-7.0968
X14.9031Y-5.9339
X14.927Y-4.8043
X14.9283Y-4.5043
X14.9302Y-4.0543
X14.9315Y-3.7543
X15.087Y-6.6874
X15.1252Y-6.1357
X15.2194Y-6.5417
X15.2414Y-5.1484
X15.2447Y-4.3984
X15.4383Y-5.1493
X15.4415Y-4.3993
X15.677Y-4.8076
X15.6783Y-4.5076
X15.6802Y-4.0576
X15.6815Y-3.7576
T4
X6.1534Y-5.3452
X6.2016Y-5.4393
X6.2016Y-5.5393
X6.2016Y-5.6393
X6.2016Y-5.7393
X6.2262Y-5.3452
T5
X6.3262Y-6.413
X6.3262Y-6.9839
X6.4246Y-6.413
X6.523Y-6.413
X6.523Y-6.9839
T6
X6.123Y-3.6493
X6.123Y-3.7493
X6.123Y-3.8493
X6.123Y-3.9493
X6.123Y-4.0493
X6.123Y-4.1493
X6.123Y-4.2493
X6.123Y-4.3493
X6.123Y-4.4493
X6.123Y-4.5493
X6.123Y-4.6493
X6.123Y-4.7493
X6.723Y-3.6493
X6.723Y-3.7493
X6.723Y-3.8493
X6.723Y-3.9493
X6.723Y-4.0493
X6.723Y-4.1493
X6.723Y-4.2493
X6.723Y-4.3493
X6.723Y-4.4493
X6.723Y-4.5493
X6.723Y-4.6493
X6.723Y-4.7493
T7
X7.117Y-3.4565
X7.1255Y-3.6334
X7.3726Y-3.4442
X7.3811Y-3.6212
T9
X1.1504Y-7.8643
X1.3098Y-3.5802
X5.926Y-7.1117
X6.034Y-4.8643
X6.8121Y-4.864
X6.9201Y-7.1114
X12.3888Y-8.3448
X15.4228Y-5.7238
X15.6431Y-3.5409
T8
G00X6.2041Y-6.6827
M15
G01X6.2041Y-6.7339
M16
G05
G00X6.6451Y-6.6827
M15
G01X6.6451Y-6.7339
M16
G05
M30
