%TF.GenerationSoftware,KiCad,Pcbnew,8.0.1-8.0.1-1~ubuntu22.04.1*%
%TF.CreationDate,2024-03-26T23:20:42-04:00*%
%TF.ProjectId,travis_erg2024-new4,74726176-6973-45f6-9572-67323032342d,2024.03.25*%
%TF.SameCoordinates,Original*%
%TF.FileFunction,Paste,Bot*%
%TF.FilePolarity,Positive*%
%FSLAX46Y46*%
G04 Gerber Fmt 4.6, Leading zero omitted, Abs format (unit mm)*
G04 Created by KiCad (PCBNEW 8.0.1-8.0.1-1~ubuntu22.04.1) date 2024-03-26 23:20:42*
%MOMM*%
%LPD*%
G01*
G04 APERTURE LIST*
G04 Aperture macros list*
%AMRotRect*
0 Rectangle, with rotation*
0 The origin of the aperture is its center*
0 $1 length*
0 $2 width*
0 $3 Rotation angle, in degrees counterclockwise*
0 Add horizontal line*
21,1,$1,$2,0,0,$3*%
G04 Aperture macros list end*
%ADD10RotRect,2.550000X2.500000X0.500000*%
%ADD11RotRect,1.400000X1.000000X0.500000*%
%ADD12RotRect,2.550000X2.500000X359.500000*%
%ADD13RotRect,1.400000X1.000000X359.500000*%
%ADD14RotRect,2.550000X2.500000X358.500000*%
%ADD15RotRect,1.400000X1.000000X358.500000*%
%ADD16RotRect,2.550000X2.500000X357.500000*%
%ADD17RotRect,1.400000X1.000000X357.500000*%
%ADD18RotRect,2.550000X2.500000X357.250000*%
%ADD19RotRect,1.400000X1.000000X357.250000*%
%ADD20RotRect,2.550000X2.500000X2.750000*%
%ADD21RotRect,1.400000X1.000000X2.750000*%
%ADD22RotRect,2.550000X2.500000X1.750000*%
%ADD23RotRect,1.400000X1.000000X1.750000*%
%ADD24RotRect,2.550000X2.500000X0.750000*%
%ADD25RotRect,1.400000X1.000000X0.750000*%
%ADD26RotRect,2.550000X2.500000X359.750000*%
%ADD27RotRect,1.400000X1.000000X359.750000*%
%ADD28RotRect,2.550000X2.500000X47.750000*%
%ADD29RotRect,1.400000X1.000000X47.750000*%
%ADD30RotRect,1.400000X1.000000X180.500000*%
%ADD31RotRect,1.400000X1.000000X179.500000*%
%ADD32RotRect,1.400000X1.000000X178.500000*%
%ADD33RotRect,1.400000X1.000000X177.500000*%
%ADD34RotRect,1.400000X1.000000X177.250000*%
%ADD35RotRect,1.400000X1.000000X182.750000*%
%ADD36RotRect,1.400000X1.000000X181.750000*%
%ADD37RotRect,1.400000X1.000000X180.750000*%
%ADD38RotRect,1.400000X1.000000X179.750000*%
%ADD39RotRect,1.400000X1.000000X227.750000*%
G04 APERTURE END LIST*
D10*
%TO.C,KSW1*%
X34636888Y-197165247D03*
X47541231Y-194512536D03*
%TD*%
D11*
%TO.C,KLED1*%
X44480889Y-203879565D03*
X44493106Y-205279512D03*
X39081094Y-203926688D03*
X39093311Y-205326635D03*
%TD*%
D10*
%TO.C,KSW2*%
X29042107Y-159112621D03*
X41946450Y-156459910D03*
%TD*%
D11*
%TO.C,KLED2*%
X38886089Y-165826965D03*
X38898306Y-167226912D03*
X33486294Y-165874088D03*
X33498511Y-167274035D03*
%TD*%
D10*
%TO.C,KSW3*%
X33971926Y-120968149D03*
X46876269Y-118315438D03*
%TD*%
D11*
%TO.C,KLED3*%
X43815889Y-127682465D03*
X43828106Y-129082412D03*
X38416094Y-127729588D03*
X38428311Y-129129535D03*
%TD*%
D10*
%TO.C,KSW4*%
X53686163Y-196999007D03*
X66590506Y-194346296D03*
%TD*%
D11*
%TO.C,KLED4*%
X63530089Y-203713365D03*
X63542306Y-205113312D03*
X58130294Y-203760488D03*
X58142511Y-205160435D03*
%TD*%
D10*
%TO.C,KSW5*%
X53353682Y-158900457D03*
X66258025Y-156247746D03*
%TD*%
D11*
%TO.C,KLED5*%
X63197689Y-165614765D03*
X63209906Y-167014712D03*
X57797894Y-165661888D03*
X57810111Y-167061835D03*
%TD*%
D10*
%TO.C,KSW6*%
X53021201Y-120801908D03*
X65925544Y-118149197D03*
%TD*%
D11*
%TO.C,KLED6*%
X62865189Y-127516265D03*
X62877406Y-128916212D03*
X57465394Y-127563388D03*
X57477611Y-128963335D03*
%TD*%
D12*
%TO.C,KSW7*%
X72762315Y-194709187D03*
X85710988Y-192282092D03*
%TD*%
D13*
%TO.C,KLED7*%
X82487606Y-201594288D03*
X82475389Y-202994235D03*
X77087811Y-201547165D03*
X77075594Y-202947112D03*
%TD*%
D12*
%TO.C,KSW8*%
X73094796Y-156610638D03*
X86043469Y-154183543D03*
%TD*%
D13*
%TO.C,KLED8*%
X82820106Y-163495788D03*
X82807889Y-164895735D03*
X77420311Y-163448665D03*
X77408094Y-164848612D03*
%TD*%
D12*
%TO.C,KSW9*%
X73427277Y-118512089D03*
X86375950Y-116084994D03*
%TD*%
D13*
%TO.C,KLED9*%
X83152606Y-125397188D03*
X83140389Y-126797135D03*
X77752811Y-125350065D03*
X77740594Y-126750012D03*
%TD*%
D14*
%TO.C,KSW10*%
X91866798Y-193752604D03*
X104855858Y-191551864D03*
%TD*%
D15*
%TO.C,KLED10*%
X101470399Y-200806418D03*
X101433751Y-202205938D03*
X96072249Y-200665062D03*
X96035601Y-202064582D03*
%TD*%
D14*
%TO.C,KSW11*%
X92864140Y-155665660D03*
X105853200Y-153464920D03*
%TD*%
D15*
%TO.C,KLED11*%
X102467799Y-162719518D03*
X102431151Y-164119038D03*
X97069649Y-162578162D03*
X97033001Y-163977682D03*
%TD*%
D14*
%TO.C,KSW12*%
X93861482Y-117578716D03*
X106850542Y-115377976D03*
%TD*%
D15*
%TO.C,KLED12*%
X103465099Y-124632518D03*
X103428451Y-126032038D03*
X98066949Y-124491162D03*
X98030301Y-125890682D03*
%TD*%
D16*
%TO.C,KSW13*%
X112594612Y-157065162D03*
X125620101Y-155091447D03*
%TD*%
D17*
%TO.C,KLED13*%
X122073664Y-164285539D03*
X122012597Y-165684206D03*
X116678803Y-164049994D03*
X116617736Y-165448661D03*
%TD*%
D16*
%TO.C,KSW14*%
X114256511Y-119001425D03*
X127282000Y-117027710D03*
%TD*%
D17*
%TO.C,KLED14*%
X123735564Y-126221739D03*
X123674497Y-127620406D03*
X118340703Y-125986194D03*
X118279636Y-127384861D03*
%TD*%
D18*
%TO.C,KSW15*%
X128467892Y-196107269D03*
X141501869Y-194190407D03*
%TD*%
D19*
%TO.C,KLED15*%
X137915375Y-203368947D03*
X137848206Y-204767335D03*
X132521594Y-203109865D03*
X132454425Y-204508253D03*
%TD*%
D18*
%TO.C,KSW16*%
X131794131Y-158123113D03*
X144828108Y-156206251D03*
%TD*%
D19*
%TO.C,KLED16*%
X141241575Y-165384747D03*
X141174406Y-166783135D03*
X135847794Y-165125665D03*
X135780625Y-166524053D03*
%TD*%
D18*
%TO.C,KSW17*%
X133622098Y-120066990D03*
X146656075Y-118150128D03*
%TD*%
D19*
%TO.C,KLED17*%
X143069575Y-127328647D03*
X143002406Y-128727035D03*
X137675794Y-127069565D03*
X137608625Y-128467953D03*
%TD*%
D20*
%TO.C,KSW18*%
X183669023Y-196778482D03*
X196459271Y-193621194D03*
%TD*%
D21*
%TO.C,KLED18*%
X193769006Y-203101165D03*
X193836175Y-204499553D03*
X188375225Y-203360247D03*
X188442394Y-204758635D03*
%TD*%
D20*
%TO.C,KSW19*%
X180342783Y-158794325D03*
X193133031Y-155637037D03*
%TD*%
D21*
%TO.C,KLED19*%
X190442806Y-165117065D03*
X190509975Y-166515453D03*
X185049025Y-165376147D03*
X185116194Y-166774535D03*
%TD*%
D20*
%TO.C,KSW20*%
X178514817Y-120738202D03*
X191305065Y-117580914D03*
%TD*%
D21*
%TO.C,KLED20*%
X188614806Y-127060865D03*
X188681975Y-128459253D03*
X183221025Y-127319947D03*
X183288194Y-128718335D03*
%TD*%
D20*
%TO.C,KSW21*%
X199358851Y-157630630D03*
X212149099Y-154473342D03*
%TD*%
D21*
%TO.C,KLED21*%
X209458806Y-163953365D03*
X209525975Y-165351753D03*
X204065025Y-164212447D03*
X204132194Y-165610835D03*
%TD*%
D20*
%TO.C,KSW22*%
X197530884Y-119574507D03*
X210321132Y-116417219D03*
%TD*%
D21*
%TO.C,KLED22*%
X207630906Y-125897165D03*
X207698075Y-127295553D03*
X202237125Y-126156247D03*
X202304294Y-127554635D03*
%TD*%
D22*
%TO.C,KSW23*%
X220206343Y-193648622D03*
X233049746Y-190715035D03*
%TD*%
D23*
%TO.C,KLED23*%
X230194464Y-200146673D03*
X230237218Y-201546020D03*
X224796982Y-200311580D03*
X224839736Y-201710927D03*
%TD*%
D22*
%TO.C,KSW24*%
X219042825Y-155566392D03*
X231886228Y-152632805D03*
%TD*%
D23*
%TO.C,KLED24*%
X229030964Y-162064373D03*
X229073718Y-163463720D03*
X223633482Y-162229280D03*
X223676236Y-163628627D03*
%TD*%
D22*
%TO.C,KSW25*%
X217879308Y-117484162D03*
X230722711Y-114550575D03*
%TD*%
D23*
%TO.C,KLED25*%
X227867364Y-123982173D03*
X227910118Y-125381520D03*
X222469882Y-124147080D03*
X222512636Y-125546427D03*
%TD*%
D24*
%TO.C,KSW26*%
X239319618Y-193941804D03*
X252212263Y-191232813D03*
%TD*%
D25*
%TO.C,KLED26*%
X249192806Y-200613118D03*
X249211131Y-202012998D03*
X243793269Y-200683802D03*
X243811594Y-202083682D03*
%TD*%
D24*
%TO.C,KSW27*%
X238820905Y-155845068D03*
X251713550Y-153136077D03*
%TD*%
D25*
%TO.C,KLED27*%
X248694106Y-162516418D03*
X248712431Y-163916298D03*
X243294569Y-162587102D03*
X243312894Y-163986982D03*
%TD*%
D24*
%TO.C,KSW28*%
X238322191Y-117748332D03*
X251214836Y-115039341D03*
%TD*%
D25*
%TO.C,KLED28*%
X248195406Y-124419618D03*
X248213731Y-125819498D03*
X242795869Y-124490302D03*
X242814194Y-125890182D03*
%TD*%
D26*
%TO.C,KSW29*%
X258437956Y-195568428D03*
X271375916Y-193084857D03*
%TD*%
D27*
%TO.C,KLED29*%
X268193229Y-202411088D03*
X268187120Y-203811074D03*
X262793280Y-202387526D03*
X262787171Y-203787512D03*
%TD*%
D26*
%TO.C,KSW30*%
X258604199Y-157468791D03*
X271542159Y-154985220D03*
%TD*%
D27*
%TO.C,KLED30*%
X268359429Y-164311388D03*
X268353320Y-165711374D03*
X262959480Y-164287826D03*
X262953371Y-165687812D03*
%TD*%
D26*
%TO.C,KSW31*%
X258770441Y-119369154D03*
X271708401Y-116885583D03*
%TD*%
D27*
%TO.C,KLED31*%
X268525629Y-126211788D03*
X268519520Y-127611774D03*
X263125680Y-126188226D03*
X263119571Y-127588212D03*
%TD*%
D26*
%TO.C,KSW32*%
X277487775Y-195651549D03*
X290425735Y-193167978D03*
%TD*%
D27*
%TO.C,KLED32*%
X287243029Y-202494188D03*
X287236920Y-203894174D03*
X281843080Y-202470626D03*
X281836971Y-203870612D03*
%TD*%
D26*
%TO.C,KSW33*%
X277654017Y-157551912D03*
X290591977Y-155068341D03*
%TD*%
D27*
%TO.C,KLED33*%
X287409229Y-164394588D03*
X287403120Y-165794574D03*
X282009280Y-164371026D03*
X282003171Y-165771012D03*
%TD*%
D26*
%TO.C,KSW34*%
X277820259Y-119452275D03*
X290758219Y-116968704D03*
%TD*%
D27*
%TO.C,KLED34*%
X287575529Y-126294888D03*
X287569420Y-127694874D03*
X282175580Y-126271326D03*
X282169471Y-127671312D03*
%TD*%
D26*
%TO.C,KSW35*%
X302066285Y-157658432D03*
X315004245Y-155174861D03*
%TD*%
D27*
%TO.C,KLED35*%
X311821529Y-164501088D03*
X311815420Y-165901074D03*
X306421580Y-164477526D03*
X306415471Y-165877512D03*
%TD*%
D26*
%TO.C,KSW36*%
X296870078Y-119535396D03*
X309808038Y-117051825D03*
%TD*%
D27*
%TO.C,KLED36*%
X306625329Y-126377988D03*
X306619220Y-127777974D03*
X301225380Y-126354426D03*
X301219271Y-127754412D03*
%TD*%
D26*
%TO.C,KSW37*%
X321282346Y-119641915D03*
X334220306Y-117158344D03*
%TD*%
D27*
%TO.C,KLED37*%
X331037629Y-126484588D03*
X331031520Y-127884574D03*
X325637680Y-126461026D03*
X325631571Y-127861012D03*
%TD*%
D28*
%TO.C,KSW38*%
X330475080Y-211793594D03*
X337286612Y-200516982D03*
%TD*%
D29*
%TO.C,KLED38*%
X342087638Y-209122654D03*
X343123943Y-210063968D03*
X338456857Y-213119832D03*
X339493162Y-214061146D03*
%TD*%
D28*
%TO.C,KSW39*%
X343283668Y-197692439D03*
X350095200Y-186415827D03*
%TD*%
D29*
%TO.C,KLED39*%
X354896238Y-195021454D03*
X355932543Y-195962768D03*
X351265457Y-199018632D03*
X352301762Y-199959946D03*
%TD*%
D28*
%TO.C,KSW40*%
X359294403Y-180065994D03*
X366105935Y-168789382D03*
%TD*%
D29*
%TO.C,KLED40*%
X370907038Y-177395054D03*
X371943343Y-178336368D03*
X367276257Y-181392232D03*
X368312562Y-182333546D03*
%TD*%
D28*
%TO.C,KSW41*%
X372102990Y-165964839D03*
X378914522Y-154688227D03*
%TD*%
D29*
%TO.C,KLED41*%
X383715538Y-163293854D03*
X384751843Y-164235168D03*
X380084757Y-167291032D03*
X381121062Y-168232346D03*
%TD*%
D26*
%TO.C,KSW42*%
X363544443Y-119826320D03*
X376482403Y-117342749D03*
%TD*%
D27*
%TO.C,KLED42*%
X373299729Y-126668988D03*
X373293620Y-128068974D03*
X367899780Y-126645426D03*
X367893671Y-128045412D03*
%TD*%
D26*
%TO.C,KSW43*%
X382594262Y-119909441D03*
X395532222Y-117425870D03*
%TD*%
D27*
%TO.C,KLED43*%
X392349529Y-126752088D03*
X392343420Y-128152074D03*
X386949580Y-126728526D03*
X386943471Y-128128512D03*
%TD*%
D10*
%TO.C,KSW44*%
X29208348Y-178161896D03*
X42112691Y-175509185D03*
%TD*%
D30*
%TO.C,KLED44*%
X33664711Y-186323335D03*
X33652494Y-184923388D03*
X39064506Y-186276212D03*
X39052289Y-184876265D03*
%TD*%
D10*
%TO.C,KSW45*%
X28875867Y-140063347D03*
X41780210Y-137410636D03*
%TD*%
D30*
%TO.C,KLED45*%
X33332211Y-148224735D03*
X33319994Y-146824788D03*
X38732006Y-148177612D03*
X38719789Y-146777665D03*
%TD*%
D10*
%TO.C,KSW46*%
X33805686Y-101918874D03*
X46710029Y-99266163D03*
%TD*%
D30*
%TO.C,KLED46*%
X38262111Y-110080335D03*
X38249894Y-108680388D03*
X43661906Y-110033212D03*
X43649689Y-108633265D03*
%TD*%
D10*
%TO.C,KSW47*%
X53519922Y-177949732D03*
X66424265Y-175297021D03*
%TD*%
D30*
%TO.C,KLED47*%
X57976311Y-186111135D03*
X57964094Y-184711188D03*
X63376106Y-186064012D03*
X63363889Y-184664065D03*
%TD*%
D10*
%TO.C,KSW48*%
X53187441Y-139851183D03*
X66091784Y-137198472D03*
%TD*%
D30*
%TO.C,KLED48*%
X57643811Y-148012635D03*
X57631594Y-146612688D03*
X63043606Y-147965512D03*
X63031389Y-146565565D03*
%TD*%
D12*
%TO.C,KSW49*%
X72928556Y-175659913D03*
X85877229Y-173232818D03*
%TD*%
D31*
%TO.C,KLED49*%
X77241794Y-183897912D03*
X77254011Y-182497965D03*
X82641589Y-183945035D03*
X82653806Y-182545088D03*
%TD*%
D12*
%TO.C,KSW50*%
X73261037Y-137561363D03*
X86209710Y-135134268D03*
%TD*%
D31*
%TO.C,KLED50*%
X77574294Y-145799312D03*
X77586511Y-144399365D03*
X82974089Y-145846435D03*
X82986306Y-144446488D03*
%TD*%
D12*
%TO.C,KSW51*%
X73593518Y-99462814D03*
X86542191Y-97035719D03*
%TD*%
D31*
%TO.C,KLED51*%
X77906794Y-107700812D03*
X77919011Y-106300865D03*
X83306589Y-107747935D03*
X83318806Y-106347988D03*
%TD*%
D14*
%TO.C,KSW52*%
X92365469Y-174709132D03*
X105354529Y-172508392D03*
%TD*%
D32*
%TO.C,KLED52*%
X96534301Y-183021082D03*
X96570949Y-181621562D03*
X101932451Y-183162438D03*
X101969099Y-181762918D03*
%TD*%
D14*
%TO.C,KSW53*%
X93362811Y-136622188D03*
X106351871Y-134421448D03*
%TD*%
D32*
%TO.C,KLED53*%
X97531701Y-144934182D03*
X97568349Y-143534662D03*
X102929851Y-145075538D03*
X102966499Y-143676018D03*
%TD*%
D14*
%TO.C,KSW54*%
X94360153Y-98535243D03*
X107349213Y-96334503D03*
%TD*%
D32*
%TO.C,KLED54*%
X98529001Y-106847182D03*
X98565649Y-105447662D03*
X103927151Y-106988538D03*
X103963799Y-105589018D03*
%TD*%
D16*
%TO.C,KSW55*%
X111763663Y-176097031D03*
X124789152Y-174123316D03*
%TD*%
D33*
%TO.C,KLED55*%
X115786836Y-184480461D03*
X115847903Y-183081794D03*
X121181697Y-184716006D03*
X121242764Y-183317339D03*
%TD*%
D16*
%TO.C,KSW56*%
X113425562Y-138033293D03*
X126451051Y-136059578D03*
%TD*%
D33*
%TO.C,KLED56*%
X117448736Y-146416761D03*
X117509803Y-145018094D03*
X122843597Y-146652306D03*
X122904664Y-145253639D03*
%TD*%
D16*
%TO.C,KSW57*%
X115087460Y-99969556D03*
X128112949Y-97995841D03*
%TD*%
D33*
%TO.C,KLED57*%
X119110636Y-108353061D03*
X119171703Y-106954394D03*
X124505497Y-108588606D03*
X124566564Y-107189939D03*
%TD*%
D18*
%TO.C,KSW58*%
X130880148Y-177151175D03*
X143914125Y-175234313D03*
%TD*%
D34*
%TO.C,KLED58*%
X134866725Y-185552153D03*
X134933894Y-184153765D03*
X140260506Y-185811235D03*
X140327675Y-184412847D03*
%TD*%
D18*
%TO.C,KSW59*%
X132708114Y-139095051D03*
X145742091Y-137178189D03*
%TD*%
D34*
%TO.C,KLED59*%
X136694625Y-147495953D03*
X136761794Y-146097565D03*
X142088406Y-147755035D03*
X142155575Y-146356647D03*
%TD*%
D18*
%TO.C,KSW60*%
X134536081Y-101038928D03*
X147570058Y-99122066D03*
%TD*%
D34*
%TO.C,KLED60*%
X138522625Y-109439853D03*
X138589794Y-108041465D03*
X143916406Y-109698935D03*
X143983575Y-108300547D03*
%TD*%
D20*
%TO.C,KSW61*%
X181256767Y-177822387D03*
X194047015Y-174665099D03*
%TD*%
D35*
%TO.C,KLED61*%
X186030094Y-185802535D03*
X185962925Y-184404147D03*
X191423875Y-185543453D03*
X191356706Y-184145065D03*
%TD*%
D20*
%TO.C,KSW62*%
X179428800Y-139766264D03*
X192219048Y-136608976D03*
%TD*%
D35*
%TO.C,KLED62*%
X184202194Y-147746435D03*
X184135025Y-146348047D03*
X189595975Y-147487353D03*
X189528806Y-146088965D03*
%TD*%
D20*
%TO.C,KSW63*%
X177600833Y-101710140D03*
X190391081Y-98552852D03*
%TD*%
D35*
%TO.C,KLED63*%
X182374194Y-109690335D03*
X182307025Y-108291947D03*
X187767975Y-109431253D03*
X187700806Y-108032865D03*
%TD*%
D20*
%TO.C,KSW64*%
X200272834Y-176658692D03*
X213063082Y-173501404D03*
%TD*%
D35*
%TO.C,KLED64*%
X205046194Y-184638835D03*
X204979025Y-183240447D03*
X210439975Y-184379753D03*
X210372806Y-182981365D03*
%TD*%
D20*
%TO.C,KSW65*%
X198444867Y-138602568D03*
X211235115Y-135445280D03*
%TD*%
D35*
%TO.C,KLED65*%
X203218194Y-146582735D03*
X203151025Y-145184347D03*
X208611975Y-146323653D03*
X208544806Y-144925265D03*
%TD*%
D20*
%TO.C,KSW66*%
X196616900Y-100546445D03*
X209407148Y-97389157D03*
%TD*%
D35*
%TO.C,KLED66*%
X201390294Y-108526635D03*
X201323125Y-107128247D03*
X206784075Y-108267553D03*
X206716906Y-106869165D03*
%TD*%
D22*
%TO.C,KSW67*%
X219624584Y-174607507D03*
X232467987Y-171673920D03*
%TD*%
D36*
%TO.C,KLED67*%
X224257936Y-182669727D03*
X224215182Y-181270380D03*
X229655418Y-182504820D03*
X229612664Y-181105473D03*
%TD*%
D22*
%TO.C,KSW68*%
X218461067Y-136525277D03*
X231304470Y-133591690D03*
%TD*%
D36*
%TO.C,KLED68*%
X223094436Y-144587527D03*
X223051682Y-143188180D03*
X228491918Y-144422620D03*
X228449164Y-143023273D03*
%TD*%
D22*
%TO.C,KSW69*%
X217297549Y-98443047D03*
X230140952Y-95509460D03*
%TD*%
D36*
%TO.C,KLED69*%
X221930936Y-106505327D03*
X221888182Y-105105980D03*
X227328418Y-106340420D03*
X227285664Y-104941073D03*
%TD*%
D24*
%TO.C,KSW70*%
X239070262Y-174893436D03*
X251962907Y-172184445D03*
%TD*%
D37*
%TO.C,KLED70*%
X243562194Y-183035382D03*
X243543869Y-181635502D03*
X248961731Y-182964698D03*
X248943406Y-181564818D03*
%TD*%
D24*
%TO.C,KSW71*%
X238571548Y-136796700D03*
X251464193Y-134087709D03*
%TD*%
D37*
%TO.C,KLED71*%
X243063494Y-144938582D03*
X243045169Y-143538702D03*
X248463031Y-144867898D03*
X248444706Y-143468018D03*
%TD*%
D24*
%TO.C,KSW72*%
X238072834Y-98699964D03*
X250965479Y-95990973D03*
%TD*%
D37*
%TO.C,KLED72*%
X242564794Y-106841882D03*
X242546469Y-105442002D03*
X247964331Y-106771198D03*
X247946006Y-105371318D03*
%TD*%
D26*
%TO.C,KSW73*%
X258521077Y-176518610D03*
X271459037Y-174035039D03*
%TD*%
D38*
%TO.C,KLED73*%
X262870271Y-184737712D03*
X262876380Y-183337726D03*
X268270220Y-184761274D03*
X268276329Y-183361288D03*
%TD*%
D26*
%TO.C,KSW74*%
X258687320Y-138418973D03*
X271625280Y-135935402D03*
%TD*%
D38*
%TO.C,KLED74*%
X263036471Y-146638012D03*
X263042580Y-145238026D03*
X268436420Y-146661574D03*
X268442529Y-145261588D03*
%TD*%
D26*
%TO.C,KSW75*%
X282933345Y-176625129D03*
X295871305Y-174141558D03*
%TD*%
D38*
%TO.C,KLED75*%
X287282571Y-184844212D03*
X287288680Y-183444226D03*
X292682520Y-184867774D03*
X292688629Y-183467788D03*
%TD*%
D26*
%TO.C,KSW76*%
X277737138Y-138502094D03*
X290675098Y-136018523D03*
%TD*%
D38*
%TO.C,KLED76*%
X282086271Y-146721112D03*
X282092380Y-145321126D03*
X287486220Y-146744674D03*
X287492329Y-145344688D03*
%TD*%
D26*
%TO.C,KSW77*%
X277903380Y-100402456D03*
X290841340Y-97918885D03*
%TD*%
D38*
%TO.C,KLED77*%
X282252571Y-108621512D03*
X282258680Y-107221526D03*
X287652520Y-108645074D03*
X287658629Y-107245088D03*
%TD*%
D26*
%TO.C,KSW78*%
X296786957Y-138585215D03*
X309724917Y-136101644D03*
%TD*%
D38*
%TO.C,KLED78*%
X301136171Y-146804312D03*
X301142280Y-145404326D03*
X306536120Y-146827874D03*
X306542229Y-145427888D03*
%TD*%
D26*
%TO.C,KSW79*%
X296953199Y-100485577D03*
X309891159Y-98002006D03*
%TD*%
D38*
%TO.C,KLED79*%
X301302371Y-108704612D03*
X301308480Y-107304626D03*
X306702320Y-108728174D03*
X306708429Y-107328188D03*
%TD*%
D26*
%TO.C,KSW80*%
X315836776Y-138668336D03*
X328774736Y-136184765D03*
%TD*%
D38*
%TO.C,KLED80*%
X320185971Y-146887412D03*
X320192080Y-145487426D03*
X325585920Y-146910974D03*
X325592029Y-145510988D03*
%TD*%
D26*
%TO.C,KSW81*%
X316003018Y-100568698D03*
X328940978Y-98085127D03*
%TD*%
D38*
%TO.C,KLED81*%
X320352171Y-108787712D03*
X320358280Y-107387726D03*
X325752120Y-108811274D03*
X325758229Y-107411288D03*
%TD*%
D26*
%TO.C,KSW82*%
X335052836Y-100651820D03*
X347990796Y-98168249D03*
%TD*%
D38*
%TO.C,KLED82*%
X339401971Y-108870912D03*
X339408080Y-107470926D03*
X344801920Y-108894474D03*
X344808029Y-107494488D03*
%TD*%
D28*
%TO.C,KSW83*%
X316373925Y-198985006D03*
X323185457Y-187708394D03*
%TD*%
D39*
%TO.C,KLED83*%
X325392062Y-201252546D03*
X324355757Y-200311232D03*
X329022843Y-197255368D03*
X327986538Y-196314054D03*
%TD*%
D28*
%TO.C,KSW84*%
X329182513Y-184883851D03*
X335994045Y-173607239D03*
%TD*%
D39*
%TO.C,KLED84*%
X338200662Y-187151446D03*
X337164357Y-186210132D03*
X341831443Y-183154268D03*
X340795138Y-182212954D03*
%TD*%
D28*
%TO.C,KSW85*%
X345193247Y-167257407D03*
X352004779Y-155980795D03*
%TD*%
D39*
%TO.C,KLED85*%
X354211362Y-169524946D03*
X353175057Y-168583632D03*
X357842143Y-165527768D03*
X356805838Y-164586454D03*
%TD*%
D28*
%TO.C,KSW86*%
X358001835Y-153156251D03*
X364813367Y-141879639D03*
%TD*%
D39*
%TO.C,KLED86*%
X367019962Y-155423846D03*
X365983657Y-154482532D03*
X370650743Y-151426668D03*
X369614438Y-150485354D03*
%TD*%
D26*
%TO.C,KSW87*%
X363627564Y-100776501D03*
X376565524Y-98292930D03*
%TD*%
D38*
%TO.C,KLED87*%
X367976771Y-108995512D03*
X367982880Y-107595526D03*
X373376720Y-109019074D03*
X373382829Y-107619088D03*
%TD*%
D26*
%TO.C,KSW88*%
X382677383Y-100859622D03*
X395615343Y-98376051D03*
%TD*%
D38*
%TO.C,KLED88*%
X387026571Y-109078712D03*
X387032680Y-107678726D03*
X392426520Y-109102274D03*
X392432629Y-107702288D03*
%TD*%
M02*
