%TF.GenerationSoftware,KiCad,Pcbnew,8.0.1-8.0.1-1~ubuntu22.04.1*%
%TF.CreationDate,2024-03-26T23:20:42-04:00*%
%TF.ProjectId,travis_erg2024-new4,74726176-6973-45f6-9572-67323032342d,2024.03.25*%
%TF.SameCoordinates,Original*%
%TF.FileFunction,Soldermask,Top*%
%TF.FilePolarity,Negative*%
%FSLAX46Y46*%
G04 Gerber Fmt 4.6, Leading zero omitted, Abs format (unit mm)*
G04 Created by KiCad (PCBNEW 8.0.1-8.0.1-1~ubuntu22.04.1) date 2024-03-26 23:20:42*
%MOMM*%
%LPD*%
G01*
G04 APERTURE LIST*
G04 Aperture macros list*
%AMRoundRect*
0 Rectangle with rounded corners*
0 $1 Rounding radius*
0 $2 $3 $4 $5 $6 $7 $8 $9 X,Y pos of 4 corners*
0 Add a 4 corners polygon primitive as box body*
4,1,4,$2,$3,$4,$5,$6,$7,$8,$9,$2,$3,0*
0 Add four circle primitives for the rounded corners*
1,1,$1+$1,$2,$3*
1,1,$1+$1,$4,$5*
1,1,$1+$1,$6,$7*
1,1,$1+$1,$8,$9*
0 Add four rect primitives between the rounded corners*
20,1,$1+$1,$2,$3,$4,$5,0*
20,1,$1+$1,$4,$5,$6,$7,0*
20,1,$1+$1,$6,$7,$8,$9,0*
20,1,$1+$1,$8,$9,$2,$3,0*%
%AMHorizOval*
0 Thick line with rounded ends*
0 $1 width*
0 $2 $3 position (X,Y) of the first rounded end (center of the circle)*
0 $4 $5 position (X,Y) of the second rounded end (center of the circle)*
0 Add line between two ends*
20,1,$1,$2,$3,$4,$5,0*
0 Add two circle primitives to create the rounded ends*
1,1,$1,$2,$3*
1,1,$1,$4,$5*%
G04 Aperture macros list end*
%ADD10C,0.000000*%
%ADD11C,4.087800*%
%ADD12C,1.801800*%
%ADD13C,3.100000*%
%ADD14RoundRect,0.050000X-0.806951X0.792988X-0.792988X-0.806951X0.806951X-0.792988X0.792988X0.806951X0*%
%ADD15HorizOval,1.700000X0.000000X0.000000X0.000000X0.000000X0*%
%ADD16C,1.700000*%
%ADD17RoundRect,0.050000X-0.792988X0.806951X-0.806951X-0.792988X0.792988X-0.806951X0.806951X0.792988X0*%
%ADD18HorizOval,1.700000X0.000000X0.000000X0.000000X0.000000X0*%
%ADD19RoundRect,0.050000X-0.778784X0.820667X-0.820667X-0.778784X0.778784X-0.820667X0.820667X0.778784X0*%
%ADD20HorizOval,1.700000X0.000000X0.000000X0.000000X0.000000X0*%
%ADD21RoundRect,0.050000X-0.764343X0.834134X-0.834134X-0.764343X0.764343X-0.834134X0.834134X0.764343X0*%
%ADD22HorizOval,1.700000X0.000000X0.000000X0.000000X0.000000X0*%
%ADD23RoundRect,0.050000X-0.760696X0.837461X-0.837461X-0.760696X0.760696X-0.837461X0.837461X0.760696X0*%
%ADD24HorizOval,1.700000X0.000000X0.000000X0.000000X0.000000X0*%
%ADD25RoundRect,0.050000X-0.837461X0.760696X-0.760696X-0.837461X0.837461X-0.760696X0.760696X0.837461X0*%
%ADD26HorizOval,1.700000X0.000000X0.000000X0.000000X0.000000X0*%
%ADD27RoundRect,0.050000X-0.824058X0.775196X-0.775196X-0.824058X0.824058X-0.775196X0.775196X0.824058X0*%
%ADD28HorizOval,1.700000X0.000000X0.000000X0.000000X0.000000X0*%
%ADD29RoundRect,0.050000X-0.810403X0.789460X-0.789460X-0.810403X0.810403X-0.789460X0.789460X0.810403X0*%
%ADD30HorizOval,1.700000X0.000000X0.000000X0.000000X0.000000X0*%
%ADD31RoundRect,0.050000X-0.796502X0.803483X-0.803483X-0.796502X0.796502X-0.803483X0.803483X0.796502X0*%
%ADD32HorizOval,1.700000X0.000000X0.000000X0.000000X0.000000X0*%
%ADD33RoundRect,0.050000X-1.130068X-0.054281X0.054281X-1.130068X1.130068X0.054281X-0.054281X1.130068X0*%
%ADD34HorizOval,1.700000X0.000000X0.000000X0.000000X0.000000X0*%
%ADD35HorizOval,1.700000X0.000000X0.000000X0.000000X0.000000X0*%
%ADD36RoundRect,0.050000X-0.876300X0.876300X-0.876300X-0.876300X0.876300X-0.876300X0.876300X0.876300X0*%
%ADD37C,1.852600*%
%ADD38RoundRect,0.050000X-0.800000X-0.800000X0.800000X-0.800000X0.800000X0.800000X-0.800000X0.800000X0*%
%ADD39O,1.700000X1.700000*%
%ADD40RoundRect,0.050000X-0.796502X-0.803483X0.803483X-0.796502X0.796502X0.803483X-0.803483X0.796502X0*%
%ADD41HorizOval,1.700000X0.000000X0.000000X0.000000X0.000000X0*%
%ADD42C,2.100000*%
%ADD43C,1.600000*%
%ADD44RoundRect,0.050000X-1.131371X0.000000X0.000000X-1.131371X1.131371X0.000000X0.000000X1.131371X0*%
%ADD45HorizOval,1.700000X0.000000X0.000000X0.000000X0.000000X0*%
%ADD46RoundRect,0.050000X-1.000000X1.000000X-1.000000X-1.000000X1.000000X-1.000000X1.000000X1.000000X0*%
%ADD47RoundRect,0.050000X-1.000000X1.600000X-1.000000X-1.600000X1.000000X-1.600000X1.000000X1.600000X0*%
%ADD48RoundRect,0.050000X0.000000X-1.131371X1.131371X0.000000X0.000000X1.131371X-1.131371X0.000000X0*%
%ADD49HorizOval,1.700000X0.000000X0.000000X0.000000X0.000000X0*%
%ADD50C,3.148000*%
%ADD51C,0.800000*%
%ADD52C,4.500000*%
G04 APERTURE END LIST*
D10*
%TO.C,LOGO2*%
G36*
X163145298Y-195624323D02*
G01*
X163145298Y-195699360D01*
X163070261Y-195699360D01*
X162995225Y-195699360D01*
X162995225Y-195624323D01*
X162995225Y-195549286D01*
X163070261Y-195549286D01*
X163145298Y-195549286D01*
X163145298Y-195624323D01*
G37*
G36*
X163445446Y-195624323D02*
G01*
X163445446Y-195699360D01*
X163370409Y-195699360D01*
X163295372Y-195699360D01*
X163295372Y-195624323D01*
X163295372Y-195549286D01*
X163370409Y-195549286D01*
X163445446Y-195549286D01*
X163445446Y-195624323D01*
G37*
%TD*%
D11*
%TO.C,KSW1*%
X41743784Y-199643323D03*
D12*
X46823591Y-199598992D03*
X36663977Y-199687654D03*
D13*
X44239356Y-194541351D03*
X37911764Y-197136668D03*
%TD*%
D14*
%TO.C,KD1*%
X50198400Y-191544200D03*
D15*
X50264896Y-199163910D03*
%TD*%
D16*
%TO.C,KC1*%
X44316100Y-207921200D03*
X39316290Y-207964833D03*
%TD*%
D11*
%TO.C,KSW2*%
X36149003Y-161590697D03*
D12*
X41228810Y-161546366D03*
X31069196Y-161635028D03*
D13*
X38644575Y-156488725D03*
X32316983Y-159084042D03*
%TD*%
D14*
%TO.C,KD2*%
X44603600Y-153491600D03*
D15*
X44670096Y-161111310D03*
%TD*%
D16*
%TO.C,KC2*%
X38721300Y-169868600D03*
X33721490Y-169912233D03*
%TD*%
D11*
%TO.C,KSW3*%
X41078822Y-123446225D03*
D12*
X46158629Y-123401894D03*
X35999015Y-123490556D03*
D13*
X43574394Y-118344253D03*
X37246802Y-120939570D03*
%TD*%
D14*
%TO.C,KD3*%
X49533500Y-115347100D03*
D15*
X49599996Y-122966810D03*
%TD*%
D16*
%TO.C,KC3*%
X43651200Y-131724100D03*
X38651390Y-131767733D03*
%TD*%
D11*
%TO.C,KSW4*%
X60793059Y-199477083D03*
D12*
X65872866Y-199432752D03*
X55713252Y-199521414D03*
D13*
X63288631Y-194375111D03*
X56961039Y-196970428D03*
%TD*%
D14*
%TO.C,KD4*%
X69247700Y-191378000D03*
D15*
X69314196Y-198997710D03*
%TD*%
D16*
%TO.C,KC4*%
X63365400Y-207755000D03*
X58365590Y-207798633D03*
%TD*%
D11*
%TO.C,KSW5*%
X60460578Y-161378533D03*
D12*
X65540385Y-161334202D03*
X55380771Y-161422864D03*
D13*
X62956150Y-156276561D03*
X56628558Y-158871878D03*
%TD*%
D14*
%TO.C,KD5*%
X68915200Y-153279400D03*
D15*
X68981696Y-160899110D03*
%TD*%
D16*
%TO.C,KC5*%
X63032900Y-169656400D03*
X58033090Y-169700033D03*
%TD*%
D11*
%TO.C,KSW6*%
X60128097Y-123279984D03*
D12*
X65207904Y-123235653D03*
X55048290Y-123324315D03*
D13*
X62623669Y-118178012D03*
X56296077Y-120773329D03*
%TD*%
D14*
%TO.C,KD6*%
X68582700Y-115180900D03*
D15*
X68649196Y-122800610D03*
%TD*%
D16*
%TO.C,KC6*%
X62700400Y-131557900D03*
X57700590Y-131601533D03*
%TD*%
D11*
%TO.C,KSW7*%
X79824880Y-197310918D03*
D12*
X84904687Y-197355249D03*
X74745073Y-197266587D03*
D13*
X82409114Y-192253277D03*
X76037190Y-194737767D03*
%TD*%
D17*
%TO.C,KD7*%
X88419600Y-189360600D03*
D18*
X88353104Y-196980310D03*
%TD*%
D16*
%TO.C,KC7*%
X82252400Y-205632400D03*
X77252590Y-205588767D03*
%TD*%
D11*
%TO.C,KSW8*%
X80157361Y-159212369D03*
D12*
X85237168Y-159256700D03*
X75077554Y-159168038D03*
D13*
X82741595Y-154154728D03*
X76369671Y-156639218D03*
%TD*%
D17*
%TO.C,KD8*%
X88752100Y-151262100D03*
D18*
X88685604Y-158881810D03*
%TD*%
D16*
%TO.C,KC8*%
X82584800Y-167533900D03*
X77584990Y-167490267D03*
%TD*%
D11*
%TO.C,KSW9*%
X80489842Y-121113820D03*
D12*
X85569649Y-121158151D03*
X75410035Y-121069489D03*
D13*
X83074076Y-116056179D03*
X76702152Y-118540669D03*
%TD*%
D17*
%TO.C,KD9*%
X89084500Y-113163500D03*
D18*
X89018004Y-120783210D03*
%TD*%
D16*
%TO.C,KC9*%
X82917300Y-129435300D03*
X77917490Y-129391667D03*
%TD*%
D11*
%TO.C,KSW10*%
X98882881Y-196477197D03*
D12*
X103961140Y-196610176D03*
X93804622Y-196344218D03*
D13*
X101554990Y-191465427D03*
X95140676Y-193838333D03*
%TD*%
D19*
%TO.C,KD10*%
X107615000Y-188678100D03*
D20*
X107415532Y-196295489D03*
%TD*%
D16*
%TO.C,KC10*%
X101164800Y-204839800D03*
X96166513Y-204708915D03*
%TD*%
D11*
%TO.C,KSW11*%
X99880223Y-158390253D03*
D12*
X104958482Y-158523232D03*
X94801964Y-158257274D03*
D13*
X102552332Y-153378483D03*
X96138018Y-155751389D03*
%TD*%
D19*
%TO.C,KD11*%
X108612400Y-150591200D03*
D20*
X108412932Y-158208589D03*
%TD*%
D16*
%TO.C,KC11*%
X102162100Y-166752900D03*
X97163813Y-166622015D03*
%TD*%
D11*
%TO.C,KSW12*%
X100877565Y-120303309D03*
D12*
X105955824Y-120436288D03*
X95799306Y-120170330D03*
D13*
X103549674Y-115291539D03*
X97135360Y-117664445D03*
%TD*%
D19*
%TO.C,KD12*%
X109609700Y-112504200D03*
D20*
X109410232Y-120121589D03*
%TD*%
D16*
%TO.C,KC12*%
X103159400Y-128665900D03*
X98161113Y-128535015D03*
%TD*%
D11*
%TO.C,KSW13*%
X119562075Y-159911788D03*
D12*
X124637240Y-160133374D03*
X114486910Y-159690202D03*
D13*
X122321244Y-154947416D03*
X115866495Y-157208016D03*
%TD*%
D21*
%TO.C,KD13*%
X128429000Y-152266300D03*
D22*
X128096620Y-159879047D03*
%TD*%
D16*
%TO.C,KC13*%
X121697700Y-168312900D03*
X116702459Y-168094803D03*
%TD*%
D11*
%TO.C,KSW14*%
X121223974Y-121848051D03*
D12*
X126299139Y-122069637D03*
X116148809Y-121626465D03*
D13*
X123983143Y-116883679D03*
X117528394Y-119144279D03*
%TD*%
D21*
%TO.C,KD14*%
X130090900Y-114202500D03*
D22*
X129758520Y-121815247D03*
%TD*%
D16*
%TO.C,KC14*%
X123359600Y-130249200D03*
X118364359Y-130031103D03*
%TD*%
D11*
%TO.C,KSW15*%
X135422868Y-198984269D03*
D12*
X140497018Y-199227998D03*
X130348718Y-198740540D03*
D13*
X138203672Y-194031984D03*
X131739120Y-196264397D03*
%TD*%
D23*
%TO.C,KD15*%
X144323100Y-191377500D03*
D24*
X143957507Y-198988725D03*
%TD*%
D16*
%TO.C,KC15*%
X137521800Y-207394700D03*
X132527558Y-207154809D03*
%TD*%
D11*
%TO.C,KSW16*%
X138749107Y-161000113D03*
D12*
X143823257Y-161243842D03*
X133674957Y-160756384D03*
D13*
X141529911Y-156047828D03*
X135065359Y-158280241D03*
%TD*%
D23*
%TO.C,KD16*%
X147649300Y-153393400D03*
D24*
X147283707Y-161004625D03*
%TD*%
D16*
%TO.C,KC16*%
X140848000Y-169410500D03*
X135853758Y-169170609D03*
%TD*%
D11*
%TO.C,KSW17*%
X140577074Y-122943990D03*
D12*
X145651224Y-123187719D03*
X135502924Y-122700261D03*
D13*
X143357878Y-117991705D03*
X136893326Y-120224118D03*
%TD*%
D23*
%TO.C,KD17*%
X149477300Y-115337200D03*
D24*
X149111707Y-122948425D03*
%TD*%
D16*
%TO.C,KC17*%
X142676000Y-131354400D03*
X137681758Y-131114509D03*
%TD*%
D11*
%TO.C,KSW18*%
X190867728Y-198975632D03*
D12*
X195941878Y-198731903D03*
X185793578Y-199219361D03*
D13*
X193161074Y-193779618D03*
X186940251Y-196621354D03*
%TD*%
D25*
%TO.C,KD18*%
X198997900Y-190550900D03*
D26*
X199363493Y-198162125D03*
%TD*%
D16*
%TO.C,KC18*%
X193763100Y-207146100D03*
X188768858Y-207385991D03*
%TD*%
D11*
%TO.C,KSW19*%
X187541488Y-160991475D03*
D12*
X192615638Y-160747746D03*
X182467338Y-161235204D03*
D13*
X189834834Y-155795461D03*
X183614011Y-158637197D03*
%TD*%
D25*
%TO.C,KD19*%
X195671600Y-152566700D03*
D26*
X196037193Y-160177925D03*
%TD*%
D16*
%TO.C,KC19*%
X190436800Y-169162000D03*
X185442558Y-169401891D03*
%TD*%
D11*
%TO.C,KSW20*%
X185713522Y-122935352D03*
D12*
X190787672Y-122691623D03*
X180639372Y-123179081D03*
D13*
X188006868Y-117739338D03*
X181786045Y-120581074D03*
%TD*%
D25*
%TO.C,KD20*%
X193843700Y-114510600D03*
D26*
X194209293Y-122121825D03*
%TD*%
D16*
%TO.C,KC20*%
X188608900Y-131105800D03*
X183614658Y-131345691D03*
%TD*%
D11*
%TO.C,KSW21*%
X206557556Y-159827780D03*
D12*
X211631706Y-159584051D03*
X201483406Y-160071509D03*
D13*
X208850902Y-154631766D03*
X202630079Y-157473502D03*
%TD*%
D25*
%TO.C,KD21*%
X214687700Y-151403000D03*
D26*
X215053293Y-159014225D03*
%TD*%
D16*
%TO.C,KC21*%
X209452900Y-167998300D03*
X204458658Y-168238191D03*
%TD*%
D11*
%TO.C,KSW22*%
X204729589Y-121771657D03*
D12*
X209803739Y-121527928D03*
X199655439Y-122015386D03*
D13*
X207022935Y-116575643D03*
X200802112Y-119417379D03*
%TD*%
D25*
%TO.C,KD22*%
X212859700Y-113346900D03*
D26*
X213225293Y-120958125D03*
%TD*%
D16*
%TO.C,KC22*%
X207624900Y-129942200D03*
X202630658Y-130182091D03*
%TD*%
D11*
%TO.C,KSW23*%
X227365606Y-195971072D03*
D12*
X232443237Y-195815936D03*
X222287975Y-196126208D03*
D13*
X229749286Y-190815874D03*
X223479815Y-193548608D03*
%TD*%
D27*
%TO.C,KD23*%
X235641600Y-187689500D03*
D28*
X235874303Y-195305946D03*
%TD*%
D16*
%TO.C,KC23*%
X230117900Y-204190900D03*
X225120232Y-204343593D03*
%TD*%
D11*
%TO.C,KSW24*%
X226202088Y-157888842D03*
D12*
X231279719Y-157733706D03*
X221124457Y-158043978D03*
D13*
X228585768Y-152733644D03*
X222316297Y-155466378D03*
%TD*%
D27*
%TO.C,KD24*%
X234478000Y-149607200D03*
D28*
X234710703Y-157223646D03*
%TD*%
D16*
%TO.C,KC24*%
X228954400Y-166108600D03*
X223956732Y-166261293D03*
%TD*%
D11*
%TO.C,KSW25*%
X225038571Y-119806612D03*
D12*
X230116202Y-119651476D03*
X219960940Y-119961748D03*
D13*
X227422251Y-114651414D03*
X221152780Y-117384148D03*
%TD*%
D27*
%TO.C,KD25*%
X233314500Y-111525000D03*
D28*
X233547203Y-119141446D03*
%TD*%
D16*
%TO.C,KC25*%
X227790900Y-128026400D03*
X222793232Y-128179093D03*
%TD*%
D11*
%TO.C,KSW26*%
X246437259Y-196388847D03*
D12*
X251516824Y-196322352D03*
X241357694Y-196455342D03*
D13*
X248910546Y-191276035D03*
X242594338Y-193898936D03*
%TD*%
D29*
%TO.C,KD26*%
X254856500Y-188252900D03*
D30*
X254956243Y-195872247D03*
%TD*%
D16*
%TO.C,KC26*%
X249045700Y-204655400D03*
X244046128Y-204720848D03*
%TD*%
D11*
%TO.C,KSW27*%
X245938546Y-158292111D03*
D12*
X251018111Y-158225616D03*
X240858981Y-158358606D03*
D13*
X248411833Y-153179299D03*
X242095625Y-155802200D03*
%TD*%
D29*
%TO.C,KD27*%
X254357800Y-150156200D03*
D30*
X254457543Y-157775547D03*
%TD*%
D16*
%TO.C,KC27*%
X248547000Y-166558700D03*
X243547428Y-166624148D03*
%TD*%
D11*
%TO.C,KSW28*%
X245439832Y-120195375D03*
D12*
X250519397Y-120128880D03*
X240360267Y-120261870D03*
D13*
X247913119Y-115082563D03*
X241596911Y-117705464D03*
%TD*%
D29*
%TO.C,KD28*%
X253859100Y-112059500D03*
D30*
X253958843Y-119678847D03*
%TD*%
D16*
%TO.C,KC28*%
X248048300Y-128461900D03*
X243048728Y-128527348D03*
%TD*%
D11*
%TO.C,KSW29*%
X265511806Y-198139318D03*
D12*
X270591758Y-198161484D03*
X260431854Y-198117152D03*
D13*
X268073947Y-193070449D03*
X261712925Y-195582718D03*
%TD*%
D31*
%TO.C,KD29*%
X274071700Y-190151600D03*
D32*
X274038452Y-197771527D03*
%TD*%
D16*
%TO.C,KC29*%
X267975600Y-206450100D03*
X262975648Y-206428283D03*
%TD*%
D11*
%TO.C,KSW30*%
X265678049Y-160039681D03*
D12*
X270758001Y-160061847D03*
X260598097Y-160017515D03*
D13*
X268240190Y-154970812D03*
X261879168Y-157483081D03*
%TD*%
D31*
%TO.C,KD30*%
X274238000Y-152052000D03*
D32*
X274204752Y-159671927D03*
%TD*%
D16*
%TO.C,KC30*%
X268141800Y-168350500D03*
X263141848Y-168328683D03*
%TD*%
D11*
%TO.C,KSW31*%
X265844291Y-121940044D03*
D12*
X270924243Y-121962210D03*
X260764339Y-121917878D03*
D13*
X268406432Y-116871175D03*
X262045410Y-119383444D03*
%TD*%
D31*
%TO.C,KD31*%
X274404200Y-113952300D03*
D32*
X274370952Y-121572227D03*
%TD*%
D16*
%TO.C,KC31*%
X268308100Y-130250900D03*
X263308148Y-130229083D03*
%TD*%
D11*
%TO.C,KSW32*%
X284561625Y-198222439D03*
D12*
X289641577Y-198244605D03*
X279481673Y-198200273D03*
D13*
X287123766Y-193153570D03*
X280762744Y-195665839D03*
%TD*%
D31*
%TO.C,KD32*%
X293121600Y-190234700D03*
D32*
X293088352Y-197854627D03*
%TD*%
D16*
%TO.C,KC32*%
X287025400Y-206533300D03*
X282025448Y-206511483D03*
%TD*%
D11*
%TO.C,KSW33*%
X284727867Y-160122802D03*
D12*
X289807819Y-160144968D03*
X279647915Y-160100636D03*
D13*
X287290008Y-155053933D03*
X280928986Y-157566202D03*
%TD*%
D31*
%TO.C,KD33*%
X293287800Y-152135100D03*
D32*
X293254552Y-159755027D03*
%TD*%
D16*
%TO.C,KC33*%
X287191600Y-168433600D03*
X282191648Y-168411783D03*
%TD*%
D11*
%TO.C,KSW34*%
X284894109Y-122023165D03*
D12*
X289974061Y-122045331D03*
X279814157Y-122000999D03*
D13*
X287456250Y-116954296D03*
X281095228Y-119466565D03*
%TD*%
D31*
%TO.C,KD34*%
X293454000Y-114035400D03*
D32*
X293420752Y-121655327D03*
%TD*%
D16*
%TO.C,KC34*%
X287357900Y-130334000D03*
X282357948Y-130312183D03*
%TD*%
D11*
%TO.C,KSW35*%
X309140135Y-160229322D03*
D12*
X314220087Y-160251488D03*
X304060183Y-160207156D03*
D13*
X311702276Y-155160453D03*
X305341254Y-157672722D03*
%TD*%
D31*
%TO.C,KD35*%
X317700100Y-152241600D03*
D32*
X317666852Y-159861527D03*
%TD*%
D16*
%TO.C,KC35*%
X311603900Y-168540200D03*
X306603948Y-168518383D03*
%TD*%
D11*
%TO.C,KSW36*%
X303943928Y-122106286D03*
D12*
X309023880Y-122128452D03*
X298863976Y-122084120D03*
D13*
X306506069Y-117037417D03*
X300145047Y-119549686D03*
%TD*%
D31*
%TO.C,KD36*%
X312503900Y-114118600D03*
D32*
X312470652Y-121738527D03*
%TD*%
D16*
%TO.C,KC36*%
X306407700Y-130417100D03*
X301407748Y-130395283D03*
%TD*%
D11*
%TO.C,KSW37*%
X328356196Y-122212805D03*
D12*
X333436148Y-122234971D03*
X323276244Y-122190639D03*
D13*
X330918337Y-117143936D03*
X324557315Y-119656205D03*
%TD*%
D31*
%TO.C,KD37*%
X336916100Y-114225100D03*
D32*
X336882852Y-121845027D03*
%TD*%
D16*
%TO.C,KC37*%
X330820000Y-130523600D03*
X325820048Y-130501783D03*
%TD*%
D11*
%TO.C,KSW38*%
X337118953Y-208256960D03*
D12*
X340534576Y-204496652D03*
X333703330Y-212017268D03*
D13*
X335066457Y-202961183D03*
X332677081Y-209369379D03*
%TD*%
D33*
%TO.C,KD38*%
X336910600Y-196550900D03*
D34*
X342551062Y-201674335D03*
%TD*%
D16*
%TO.C,KC38*%
X344943700Y-211987100D03*
X341581866Y-215688191D03*
%TD*%
D11*
%TO.C,KSW39*%
X349927541Y-194155805D03*
D12*
X353343164Y-190395497D03*
X346511918Y-197916113D03*
D13*
X347875045Y-188860028D03*
X345485669Y-195268224D03*
%TD*%
D33*
%TO.C,KD39*%
X349719200Y-182449700D03*
D34*
X355359662Y-187573135D03*
%TD*%
D16*
%TO.C,KC39*%
X357752300Y-197885900D03*
X354390466Y-201586991D03*
%TD*%
D11*
%TO.C,KSW40*%
X365938276Y-176529360D03*
D12*
X369353899Y-172769052D03*
X362522653Y-180289668D03*
D13*
X363885780Y-171233583D03*
X361496404Y-177641779D03*
%TD*%
D33*
%TO.C,KD40*%
X365730000Y-164823300D03*
D34*
X371370462Y-169946735D03*
%TD*%
D16*
%TO.C,KC40*%
X373763000Y-180259500D03*
X370401166Y-183960591D03*
%TD*%
D11*
%TO.C,KSW41*%
X378746863Y-162428205D03*
D12*
X382162486Y-158667897D03*
X375331240Y-166188513D03*
D13*
X376694367Y-157132428D03*
X374304991Y-163540624D03*
%TD*%
D33*
%TO.C,KD41*%
X378538500Y-150722100D03*
D34*
X384178962Y-155845535D03*
%TD*%
D16*
%TO.C,KC41*%
X386571600Y-166158300D03*
X383209766Y-169859391D03*
%TD*%
D11*
%TO.C,KSW42*%
X370618293Y-122397210D03*
D12*
X375698245Y-122419376D03*
X365538341Y-122375044D03*
D13*
X373180434Y-117328341D03*
X366819412Y-119840610D03*
%TD*%
D31*
%TO.C,KD42*%
X379178200Y-114409500D03*
D32*
X379144952Y-122029427D03*
%TD*%
D16*
%TO.C,KC42*%
X373082100Y-130708000D03*
X368082148Y-130686183D03*
%TD*%
D11*
%TO.C,KSW43*%
X389668112Y-122480331D03*
D12*
X394748064Y-122502497D03*
X384588160Y-122458165D03*
D13*
X392230253Y-117411462D03*
X385869231Y-119923731D03*
%TD*%
D31*
%TO.C,KD43*%
X398228000Y-114492600D03*
D32*
X398194752Y-122112527D03*
%TD*%
D16*
%TO.C,KC43*%
X392131900Y-130791200D03*
X387131948Y-130769383D03*
%TD*%
D11*
%TO.C,KSW44*%
X36315244Y-180639972D03*
D12*
X41395051Y-180595641D03*
X31235437Y-180684303D03*
D13*
X38810816Y-175538000D03*
X32483224Y-178133317D03*
%TD*%
D14*
%TO.C,KD44*%
X44769900Y-172540900D03*
D15*
X44836396Y-180160610D03*
%TD*%
D16*
%TO.C,KC44*%
X33887800Y-188961500D03*
X38887610Y-188917867D03*
%TD*%
D11*
%TO.C,KSW45*%
X35982763Y-142541423D03*
D12*
X41062570Y-142497092D03*
X30902956Y-142585754D03*
D13*
X38478335Y-137439451D03*
X32150743Y-140034768D03*
%TD*%
D14*
%TO.C,KD45*%
X44437400Y-134442300D03*
D15*
X44503896Y-142062010D03*
%TD*%
D16*
%TO.C,KC45*%
X33555300Y-150862900D03*
X38555110Y-150819267D03*
%TD*%
D11*
%TO.C,KSW46*%
X40912582Y-104396950D03*
D12*
X45992389Y-104352619D03*
X35832775Y-104441281D03*
D13*
X43408154Y-99294978D03*
X37080562Y-101890295D03*
%TD*%
D14*
%TO.C,KD46*%
X49367200Y-96297900D03*
D15*
X49433696Y-103917610D03*
%TD*%
D16*
%TO.C,KC46*%
X38485100Y-112718500D03*
X43484910Y-112674867D03*
%TD*%
D11*
%TO.C,KSW47*%
X60626818Y-180427808D03*
D12*
X65706625Y-180383477D03*
X55547011Y-180472139D03*
D13*
X63122390Y-175325836D03*
X56794798Y-177921153D03*
%TD*%
D14*
%TO.C,KD47*%
X69081500Y-172328700D03*
D15*
X69147996Y-179948410D03*
%TD*%
D16*
%TO.C,KC47*%
X58199300Y-188749300D03*
X63199110Y-188705667D03*
%TD*%
D11*
%TO.C,KSW48*%
X60294337Y-142329259D03*
D12*
X65374144Y-142284928D03*
X55214530Y-142373590D03*
D13*
X62789909Y-137227287D03*
X56462317Y-139822604D03*
%TD*%
D14*
%TO.C,KD48*%
X68749000Y-134230200D03*
D15*
X68815496Y-141849910D03*
%TD*%
D16*
%TO.C,KC48*%
X57866900Y-150650800D03*
X62866710Y-150607167D03*
%TD*%
D11*
%TO.C,KSW49*%
X79991121Y-178261644D03*
D12*
X85070928Y-178305975D03*
X74911314Y-178217313D03*
D13*
X82575355Y-173204003D03*
X76203431Y-175688493D03*
%TD*%
D17*
%TO.C,KD49*%
X88585800Y-170311300D03*
D18*
X88519304Y-177931010D03*
%TD*%
D16*
%TO.C,KC49*%
X77418800Y-186539500D03*
X82418610Y-186583133D03*
%TD*%
D11*
%TO.C,KSW50*%
X80323602Y-140163094D03*
D12*
X85403409Y-140207425D03*
X75243795Y-140118763D03*
D13*
X82907836Y-135105453D03*
X76535912Y-137589943D03*
%TD*%
D17*
%TO.C,KD50*%
X88918300Y-132212800D03*
D18*
X88851804Y-139832510D03*
%TD*%
D16*
%TO.C,KC50*%
X77751300Y-148441000D03*
X82751110Y-148484633D03*
%TD*%
D11*
%TO.C,KSW51*%
X80656083Y-102064545D03*
D12*
X85735890Y-102108876D03*
X75576276Y-102020214D03*
D13*
X83240317Y-97006904D03*
X76868393Y-99491394D03*
%TD*%
D17*
%TO.C,KD51*%
X89250800Y-94114200D03*
D18*
X89184304Y-101733910D03*
%TD*%
D16*
%TO.C,KC51*%
X78083700Y-110342400D03*
X83083510Y-110386033D03*
%TD*%
D11*
%TO.C,KSW52*%
X99381552Y-177433725D03*
D12*
X104459811Y-177566704D03*
X94303293Y-177300746D03*
D13*
X102053661Y-172421955D03*
X95639347Y-174794861D03*
%TD*%
D19*
%TO.C,KD52*%
X108113700Y-169634600D03*
D20*
X107914232Y-177251989D03*
%TD*%
D16*
%TO.C,KC52*%
X96665100Y-185665400D03*
X101663387Y-185796285D03*
%TD*%
D11*
%TO.C,KSW53*%
X100378894Y-139346781D03*
D12*
X105457153Y-139479760D03*
X95300635Y-139213802D03*
D13*
X103051003Y-134335011D03*
X96636689Y-136707917D03*
%TD*%
D19*
%TO.C,KD53*%
X109111000Y-131547700D03*
D20*
X108911532Y-139165089D03*
%TD*%
D16*
%TO.C,KC53*%
X97662500Y-147578500D03*
X102660787Y-147709385D03*
%TD*%
D11*
%TO.C,KSW54*%
X101376236Y-101259836D03*
D12*
X106454495Y-101392815D03*
X96297977Y-101126857D03*
D13*
X104048345Y-96248066D03*
X97634031Y-98620972D03*
%TD*%
D19*
%TO.C,KD54*%
X110108400Y-93460700D03*
D20*
X109908932Y-101078089D03*
%TD*%
D16*
%TO.C,KC54*%
X98659800Y-109491500D03*
X103658087Y-109622385D03*
%TD*%
D11*
%TO.C,KSW55*%
X118731126Y-178943657D03*
D12*
X123806291Y-179165243D03*
X113655961Y-178722071D03*
D13*
X121490295Y-173979285D03*
X115035546Y-176239885D03*
%TD*%
D21*
%TO.C,KD55*%
X127598100Y-171298100D03*
D22*
X127265720Y-178910847D03*
%TD*%
D16*
%TO.C,KC55*%
X115871500Y-187126700D03*
X120866741Y-187344797D03*
%TD*%
D11*
%TO.C,KSW56*%
X120393025Y-140879919D03*
D12*
X125468190Y-141101505D03*
X115317860Y-140658333D03*
D13*
X123152194Y-135915547D03*
X116697445Y-138176147D03*
%TD*%
D21*
%TO.C,KD56*%
X129260000Y-133234400D03*
D22*
X128927620Y-140847147D03*
%TD*%
D16*
%TO.C,KC56*%
X117533400Y-149063000D03*
X122528641Y-149281097D03*
%TD*%
D11*
%TO.C,KSW57*%
X122054923Y-102816182D03*
D12*
X127130088Y-103037768D03*
X116979758Y-102594596D03*
D13*
X124814092Y-97851810D03*
X118359343Y-100112410D03*
%TD*%
D21*
%TO.C,KD57*%
X130921900Y-95170700D03*
D22*
X130589520Y-102783447D03*
%TD*%
D16*
%TO.C,KC57*%
X119195300Y-110999200D03*
X124190541Y-111217297D03*
%TD*%
D11*
%TO.C,KSW58*%
X137835124Y-180028175D03*
D12*
X142909274Y-180271904D03*
X132760974Y-179784446D03*
D13*
X140615928Y-175075890D03*
X134151376Y-177308303D03*
%TD*%
D23*
%TO.C,KD58*%
X146735300Y-172421400D03*
D24*
X146369707Y-180032625D03*
%TD*%
D16*
%TO.C,KC58*%
X134939800Y-188198700D03*
X139934042Y-188438591D03*
%TD*%
D11*
%TO.C,KSW59*%
X139663090Y-141972051D03*
D12*
X144737240Y-142215780D03*
X134588940Y-141728322D03*
D13*
X142443894Y-137019766D03*
X135979342Y-139252179D03*
%TD*%
D23*
%TO.C,KD59*%
X148563300Y-134365300D03*
D24*
X148197707Y-141976525D03*
%TD*%
D16*
%TO.C,KC59*%
X136767800Y-150142500D03*
X141762042Y-150382391D03*
%TD*%
D11*
%TO.C,KSW60*%
X141491057Y-103915928D03*
D12*
X146565207Y-104159657D03*
X136416907Y-103672199D03*
D13*
X144271861Y-98963643D03*
X137807309Y-101196056D03*
%TD*%
D23*
%TO.C,KD60*%
X150499997Y-96117988D03*
D24*
X150134404Y-103729213D03*
%TD*%
D16*
%TO.C,KC60*%
X138595700Y-112086400D03*
X143589942Y-112326291D03*
%TD*%
D11*
%TO.C,KSW61*%
X188455472Y-180019537D03*
D12*
X193529622Y-179775808D03*
X183381322Y-180263266D03*
D13*
X190748818Y-174823523D03*
X184527995Y-177665259D03*
%TD*%
D25*
%TO.C,KD61*%
X196585600Y-171594800D03*
D26*
X196951193Y-179206025D03*
%TD*%
D16*
%TO.C,KC61*%
X186356600Y-188429900D03*
X191350842Y-188190009D03*
%TD*%
D11*
%TO.C,KSW62*%
X186627505Y-141963414D03*
D12*
X191701655Y-141719685D03*
X181553355Y-142207143D03*
D13*
X188920851Y-136767400D03*
X182700028Y-139609136D03*
%TD*%
D25*
%TO.C,KD62*%
X194757700Y-133538600D03*
D26*
X195123293Y-141149825D03*
%TD*%
D16*
%TO.C,KC62*%
X184528600Y-150373800D03*
X189522842Y-150133909D03*
%TD*%
D11*
%TO.C,KSW63*%
X184799538Y-103907290D03*
D12*
X189873688Y-103663561D03*
X179725388Y-104151019D03*
D13*
X187092884Y-98711276D03*
X180872061Y-101553012D03*
%TD*%
D25*
%TO.C,KD63*%
X192929700Y-95482500D03*
D26*
X193295293Y-103093725D03*
%TD*%
D16*
%TO.C,KC63*%
X182700600Y-112317700D03*
X187694842Y-112077809D03*
%TD*%
D11*
%TO.C,KSW64*%
X207471539Y-178855842D03*
D12*
X212545689Y-178612113D03*
X202397389Y-179099571D03*
D13*
X209764885Y-173659828D03*
X203544062Y-176501564D03*
%TD*%
D25*
%TO.C,KD64*%
X215601700Y-170431100D03*
D26*
X215967293Y-178042325D03*
%TD*%
D16*
%TO.C,KC64*%
X205372600Y-187266200D03*
X210366842Y-187026309D03*
%TD*%
D11*
%TO.C,KSW65*%
X205643572Y-140799718D03*
D12*
X210717722Y-140555989D03*
X200569422Y-141043447D03*
D13*
X207936918Y-135603704D03*
X201716095Y-138445440D03*
%TD*%
D25*
%TO.C,KD65*%
X213773700Y-132374900D03*
D26*
X214139293Y-139986125D03*
%TD*%
D16*
%TO.C,KC65*%
X203544700Y-149210100D03*
X208538942Y-148970209D03*
%TD*%
D11*
%TO.C,KSW66*%
X203815605Y-102743595D03*
D12*
X208889755Y-102499866D03*
X198741455Y-102987324D03*
D13*
X206108951Y-97547581D03*
X199888128Y-100389317D03*
%TD*%
D25*
%TO.C,KD66*%
X211945800Y-94318800D03*
D26*
X212311393Y-101930025D03*
%TD*%
D16*
%TO.C,KC66*%
X201716700Y-111154000D03*
X206710942Y-110914109D03*
%TD*%
D11*
%TO.C,KSW67*%
X226783847Y-176929957D03*
D12*
X231861478Y-176774821D03*
X221706216Y-177085093D03*
D13*
X229167527Y-171774759D03*
X222898056Y-174507493D03*
%TD*%
D27*
%TO.C,KD67*%
X235059800Y-168648400D03*
D28*
X235292503Y-176264846D03*
%TD*%
D16*
%TO.C,KC67*%
X224538500Y-185302400D03*
X229536168Y-185149707D03*
%TD*%
D11*
%TO.C,KSW68*%
X225620330Y-138847727D03*
D12*
X230697961Y-138692591D03*
X220542699Y-139002863D03*
D13*
X228004010Y-133692529D03*
X221734539Y-136425263D03*
%TD*%
D27*
%TO.C,KD68*%
X233896300Y-130566100D03*
D28*
X234129003Y-138182546D03*
%TD*%
D16*
%TO.C,KC68*%
X223375000Y-147220200D03*
X228372668Y-147067507D03*
%TD*%
D11*
%TO.C,KSW69*%
X224456812Y-100765497D03*
D12*
X229534443Y-100610361D03*
X219379181Y-100920633D03*
D13*
X226840492Y-95610299D03*
X220571021Y-98343033D03*
%TD*%
D27*
%TO.C,KD69*%
X232732800Y-92483900D03*
D28*
X232965503Y-100100346D03*
%TD*%
D16*
%TO.C,KC69*%
X222211400Y-109138000D03*
X227209068Y-108985307D03*
%TD*%
D11*
%TO.C,KSW70*%
X246187903Y-177340479D03*
D12*
X251267468Y-177273984D03*
X241108338Y-177406974D03*
D13*
X248661190Y-172227667D03*
X242344982Y-174850568D03*
%TD*%
D29*
%TO.C,KD70*%
X254607100Y-169204600D03*
D30*
X254706843Y-176823947D03*
%TD*%
D16*
%TO.C,KC70*%
X243796800Y-185672500D03*
X248796372Y-185607052D03*
%TD*%
D11*
%TO.C,KSW71*%
X245689189Y-139243743D03*
D12*
X250768754Y-139177248D03*
X240609624Y-139310238D03*
D13*
X248162476Y-134130931D03*
X241846268Y-136753832D03*
%TD*%
D29*
%TO.C,KD71*%
X254108400Y-131107800D03*
D30*
X254208143Y-138727147D03*
%TD*%
D16*
%TO.C,KC71*%
X243298000Y-147575800D03*
X248297572Y-147510352D03*
%TD*%
D11*
%TO.C,KSW72*%
X245190475Y-101147007D03*
D12*
X250270040Y-101080512D03*
X240110910Y-101213502D03*
D13*
X247663762Y-96034195D03*
X241347554Y-98657096D03*
%TD*%
D29*
%TO.C,KD72*%
X253609700Y-93011100D03*
D30*
X253709443Y-100630447D03*
%TD*%
D16*
%TO.C,KC72*%
X242799300Y-109479000D03*
X247798872Y-109413552D03*
%TD*%
D11*
%TO.C,KSW73*%
X265594927Y-179089500D03*
D12*
X270674879Y-179111666D03*
X260514975Y-179067334D03*
D13*
X268157068Y-174020631D03*
X261796046Y-176532900D03*
%TD*%
D31*
%TO.C,KD73*%
X274154900Y-171101800D03*
D32*
X274121652Y-178721727D03*
%TD*%
D16*
%TO.C,KC73*%
X263058700Y-187378500D03*
X268058652Y-187400317D03*
%TD*%
D11*
%TO.C,KSW74*%
X265761170Y-140989863D03*
D12*
X270841122Y-141012029D03*
X260681218Y-140967697D03*
D13*
X268323311Y-135920994D03*
X261962289Y-138433263D03*
%TD*%
D31*
%TO.C,KD74*%
X274321100Y-133002100D03*
D32*
X274287852Y-140622027D03*
%TD*%
D16*
%TO.C,KC74*%
X263225000Y-149278900D03*
X268224952Y-149300717D03*
%TD*%
D11*
%TO.C,KSW75*%
X290007195Y-179196019D03*
D12*
X295087147Y-179218185D03*
X284927243Y-179173853D03*
D13*
X292569336Y-174127150D03*
X286208314Y-176639419D03*
%TD*%
D31*
%TO.C,KD75*%
X298567100Y-171208300D03*
D32*
X298533852Y-178828227D03*
%TD*%
D16*
%TO.C,KC75*%
X287471000Y-187485000D03*
X292470952Y-187506817D03*
%TD*%
D11*
%TO.C,KSW76*%
X284810988Y-141072984D03*
D12*
X289890940Y-141095150D03*
X279731036Y-141050818D03*
D13*
X287373129Y-136004115D03*
X281012107Y-138516384D03*
%TD*%
D31*
%TO.C,KD76*%
X293370900Y-133085300D03*
D32*
X293337652Y-140705227D03*
%TD*%
D16*
%TO.C,KC76*%
X282274800Y-149362000D03*
X287274752Y-149383817D03*
%TD*%
D11*
%TO.C,KSW77*%
X284977230Y-102973346D03*
D12*
X290057182Y-102995512D03*
X279897278Y-102951180D03*
D13*
X287539371Y-97904477D03*
X281178349Y-100416746D03*
%TD*%
D31*
%TO.C,KD77*%
X293537200Y-94985600D03*
D32*
X293503952Y-102605527D03*
%TD*%
D16*
%TO.C,KC77*%
X282441000Y-111262400D03*
X287440952Y-111284217D03*
%TD*%
D11*
%TO.C,KSW78*%
X303860807Y-141156105D03*
D12*
X308940759Y-141178271D03*
X298780855Y-141133939D03*
D13*
X306422948Y-136087236D03*
X300061926Y-138599505D03*
%TD*%
D31*
%TO.C,KD78*%
X312420700Y-133168400D03*
D32*
X312387452Y-140788327D03*
%TD*%
D16*
%TO.C,KC78*%
X301324600Y-149445100D03*
X306324552Y-149466917D03*
%TD*%
D11*
%TO.C,KSW79*%
X304027049Y-103056467D03*
D12*
X309107001Y-103078633D03*
X298947097Y-103034301D03*
D13*
X306589190Y-97987598D03*
X300228168Y-100499867D03*
%TD*%
D31*
%TO.C,KD79*%
X312587000Y-95068700D03*
D32*
X312553752Y-102688627D03*
%TD*%
D16*
%TO.C,KC79*%
X301490900Y-111345500D03*
X306490852Y-111367317D03*
%TD*%
D11*
%TO.C,KSW80*%
X322910626Y-141239226D03*
D12*
X327990578Y-141261392D03*
X317830674Y-141217060D03*
D13*
X325472767Y-136170357D03*
X319111745Y-138682626D03*
%TD*%
D31*
%TO.C,KD80*%
X331470600Y-133251500D03*
D32*
X331437352Y-140871427D03*
%TD*%
D16*
%TO.C,KC80*%
X320374400Y-149528200D03*
X325374352Y-149550017D03*
%TD*%
D11*
%TO.C,KSW81*%
X323076868Y-103139588D03*
D12*
X328156820Y-103161754D03*
X317996916Y-103117422D03*
D13*
X325639009Y-98070719D03*
X319277987Y-100582988D03*
%TD*%
D31*
%TO.C,KD81*%
X331636800Y-95151900D03*
D32*
X331603552Y-102771827D03*
%TD*%
D16*
%TO.C,KC81*%
X320540700Y-111428600D03*
X325540652Y-111450417D03*
%TD*%
D11*
%TO.C,KSW82*%
X342126686Y-103222710D03*
D12*
X347206638Y-103244876D03*
X337046734Y-103200544D03*
D13*
X344688827Y-98153841D03*
X338327805Y-100666110D03*
%TD*%
D31*
%TO.C,KD82*%
X350686600Y-95235000D03*
D32*
X350653352Y-102854927D03*
%TD*%
D16*
%TO.C,KC82*%
X339590500Y-111511700D03*
X344590452Y-111533517D03*
%TD*%
D11*
%TO.C,KSW83*%
X323017798Y-195448372D03*
D12*
X326433421Y-191688064D03*
X319602175Y-199208680D03*
D13*
X320965302Y-190152595D03*
X318575926Y-196560791D03*
%TD*%
D33*
%TO.C,KD83*%
X322809500Y-183742300D03*
D34*
X328449962Y-188865735D03*
%TD*%
D16*
%TO.C,KC83*%
X327480700Y-202879600D03*
X330842534Y-199178509D03*
%TD*%
D11*
%TO.C,KSW84*%
X335826386Y-181347217D03*
D12*
X339242009Y-177586909D03*
X332410763Y-185107525D03*
D13*
X333773890Y-176051440D03*
X331384514Y-182459636D03*
%TD*%
D33*
%TO.C,KD84*%
X335618100Y-169641100D03*
D34*
X341258562Y-174764535D03*
%TD*%
D16*
%TO.C,KC84*%
X340289300Y-188778400D03*
X343651134Y-185077309D03*
%TD*%
D11*
%TO.C,KSW85*%
X351837120Y-163720773D03*
D12*
X355252743Y-159960465D03*
X348421497Y-167481081D03*
D13*
X349784624Y-158424996D03*
X347395248Y-164833192D03*
%TD*%
D33*
%TO.C,KD85*%
X351628800Y-152014700D03*
D34*
X357269262Y-157138135D03*
%TD*%
D16*
%TO.C,KC85*%
X356300000Y-171152000D03*
X359661834Y-167450909D03*
%TD*%
D11*
%TO.C,KSW86*%
X364645708Y-149619617D03*
D12*
X368061331Y-145859309D03*
X361230085Y-153379925D03*
D13*
X362593212Y-144323840D03*
X360203836Y-150732036D03*
%TD*%
D33*
%TO.C,KD86*%
X364437400Y-137913500D03*
D34*
X370077862Y-143036935D03*
%TD*%
D16*
%TO.C,KC86*%
X369108600Y-157050800D03*
X372470434Y-153349709D03*
%TD*%
D11*
%TO.C,KSW87*%
X370701414Y-103347391D03*
D12*
X375781366Y-103369557D03*
X365621462Y-103325225D03*
D13*
X373263555Y-98278522D03*
X366902533Y-100790791D03*
%TD*%
D31*
%TO.C,KD87*%
X379261300Y-95359700D03*
D32*
X379228052Y-102979627D03*
%TD*%
D16*
%TO.C,KC87*%
X368165200Y-111636400D03*
X373165152Y-111658217D03*
%TD*%
D11*
%TO.C,KSW88*%
X389751233Y-103430512D03*
D12*
X394831185Y-103452678D03*
X384671281Y-103408346D03*
D13*
X392313374Y-98361643D03*
X385952352Y-100873912D03*
%TD*%
D31*
%TO.C,KD88*%
X398311200Y-95442800D03*
D32*
X398277952Y-103062727D03*
%TD*%
D16*
%TO.C,KC88*%
X387215000Y-111719500D03*
X392214952Y-111741317D03*
%TD*%
%TO.C,R1*%
X152331091Y-118452753D03*
D35*
X152818549Y-108304453D03*
%TD*%
D16*
%TO.C,C1*%
X164395298Y-95911609D03*
X161895298Y-95911609D03*
%TD*%
D36*
%TO.C,MCU1*%
X170765298Y-92691609D03*
D37*
X170765298Y-95231609D03*
X170765298Y-97771609D03*
X170765298Y-100311609D03*
X170765298Y-102851609D03*
X170765298Y-105391609D03*
X170765298Y-107931609D03*
X170765298Y-110471609D03*
X170765298Y-113011609D03*
X170765298Y-115551609D03*
X170765298Y-118091609D03*
X170765298Y-120631609D03*
X155525298Y-92691609D03*
X155525298Y-95231609D03*
X155525298Y-97771609D03*
X155525298Y-100311609D03*
X155525298Y-102851609D03*
X155525298Y-105391609D03*
X155525298Y-107931609D03*
X155525298Y-110471609D03*
X155525298Y-113011609D03*
X155525298Y-115551609D03*
X155525298Y-118091609D03*
X155525298Y-120631609D03*
%TD*%
D16*
%TO.C,C2*%
X62034332Y-89310748D03*
X59534332Y-89310748D03*
%TD*%
D38*
%TO.C,DIP1*%
X56974332Y-92560748D03*
D39*
X64594332Y-110340748D03*
X56974332Y-95100748D03*
X64594332Y-107800748D03*
X56974332Y-97640748D03*
X64594332Y-105260748D03*
X56974332Y-100180748D03*
X64594332Y-102720748D03*
X56974332Y-102720748D03*
X64594332Y-100180748D03*
X56974332Y-105260748D03*
X64594332Y-97640748D03*
X56974332Y-107800748D03*
X64594332Y-95100748D03*
X56974332Y-110340748D03*
X64594332Y-92560748D03*
%TD*%
D16*
%TO.C,C3*%
X266273104Y-88134855D03*
X263773128Y-88145763D03*
%TD*%
D40*
%TO.C,DIP2*%
X261227333Y-91406902D03*
D41*
X268924840Y-109153484D03*
X261238416Y-93946878D03*
X268913757Y-106613509D03*
X261249499Y-96486854D03*
X268902674Y-104073533D03*
X261260581Y-99026829D03*
X268891592Y-101533557D03*
X261271664Y-101566805D03*
X268880509Y-98993581D03*
X261282747Y-104106781D03*
X268869426Y-96453605D03*
X261293830Y-106646757D03*
X268858343Y-93913629D03*
X261304913Y-109186733D03*
X268847260Y-91373654D03*
%TD*%
D42*
%TO.C,SW1*%
X180987739Y-92289294D03*
X180771837Y-87794476D03*
X187480253Y-91977436D03*
X187264352Y-87482618D03*
%TD*%
D16*
%TO.C,REF\u002A\u002A*%
X156295298Y-135767732D03*
X158145298Y-135767732D03*
X157520298Y-138157732D03*
X157520298Y-140697732D03*
X157520298Y-143237732D03*
X157520298Y-145777732D03*
D43*
X157520298Y-148267732D03*
%TD*%
D44*
%TO.C,D1*%
X152145298Y-127967732D03*
D45*
X157533452Y-133355886D03*
%TD*%
D46*
%TO.C,ROT1*%
X165685298Y-162889825D03*
D42*
X163185298Y-162889825D03*
X160685298Y-162889825D03*
D43*
X165685298Y-177389825D03*
X160685298Y-177389825D03*
D47*
X168785298Y-170389825D03*
X157585298Y-170389825D03*
%TD*%
D48*
%TO.C,D2*%
X153645298Y-185009825D03*
D49*
X159033452Y-179621671D03*
%TD*%
D50*
%TO.C,STAB2u1*%
X146982246Y-207153274D03*
X123133742Y-206007748D03*
D11*
X147711993Y-191960790D03*
X123863489Y-190815264D03*
%TD*%
D50*
%TO.C,STAB2u2*%
X203156853Y-205999111D03*
X179308349Y-207144637D03*
D11*
X202427106Y-190806627D03*
X178578602Y-191952153D03*
%TD*%
D51*
%TO.C,HOLE1*%
X34446705Y-92094632D03*
D52*
X33269842Y-90938132D03*
D51*
X33284241Y-92588069D03*
X34426342Y-89761269D03*
X31619905Y-90952531D03*
X32092979Y-89781632D03*
X32113342Y-92114995D03*
X34919779Y-90923733D03*
X33255443Y-89288195D03*
%TD*%
%TO.C,HOLE2*%
X154371853Y-124774672D03*
D52*
X153262448Y-123553312D03*
D51*
X153183284Y-125201412D03*
X154483808Y-122443907D03*
X151614348Y-123474148D03*
X152153043Y-122331952D03*
X152041088Y-124662717D03*
X154910548Y-123632476D03*
X153341612Y-121905212D03*
%TD*%
%TO.C,HOLE3*%
X174249507Y-124654079D03*
D52*
X173028147Y-123544674D03*
D51*
X173107311Y-125192774D03*
X174137552Y-122323314D03*
X171380047Y-123623838D03*
X171806787Y-122435269D03*
X171918742Y-124766034D03*
X174676247Y-123465510D03*
X172948983Y-121896574D03*
%TD*%
%TO.C,HOLE4*%
X151629903Y-181858857D03*
D52*
X150520498Y-180637497D03*
D51*
X150441334Y-182285597D03*
X151741858Y-179528092D03*
X148872398Y-180558333D03*
X149411093Y-179416137D03*
X149299138Y-181746902D03*
X152168598Y-180716661D03*
X150599662Y-178989397D03*
%TD*%
%TO.C,HOLE5*%
X176991457Y-181738264D03*
D52*
X175770097Y-180628859D03*
D51*
X175849261Y-182276959D03*
X176879502Y-179407499D03*
X174121997Y-180708023D03*
X174548737Y-179519454D03*
X174660692Y-181850219D03*
X177418197Y-180549695D03*
X175690933Y-178980759D03*
%TD*%
%TO.C,HOLE6*%
X398496799Y-91110281D03*
D52*
X397335175Y-89938475D03*
D51*
X397327976Y-91588459D03*
X398506981Y-88776851D03*
X395685191Y-89931276D03*
X396173551Y-88766669D03*
X396163369Y-91100099D03*
X398985159Y-89945674D03*
X397342374Y-88288491D03*
%TD*%
%TO.C,HOLE7*%
X393278003Y-145981599D03*
D52*
X391740190Y-145383576D03*
D51*
X392404722Y-146893840D03*
X392338213Y-143845763D03*
X390229926Y-146048108D03*
X390202377Y-144785553D03*
X391142167Y-146921389D03*
X393250454Y-144719044D03*
X391075658Y-143873312D03*
%TD*%
%TO.C,HOLE8*%
X316214264Y-212556065D03*
D52*
X314676451Y-211958042D03*
D51*
X315340983Y-213468306D03*
X315274474Y-210420229D03*
X313166187Y-212622574D03*
X313138638Y-211360019D03*
X314078428Y-213495855D03*
X316186715Y-211293510D03*
X314011919Y-210447778D03*
%TD*%
%TO.C,HOLE9*%
X30396124Y-200909123D03*
D52*
X29219261Y-199752623D03*
D51*
X29233660Y-201402560D03*
X30375761Y-198575760D03*
X27569324Y-199767022D03*
X28042398Y-198596123D03*
X28062761Y-200929486D03*
X30869198Y-199738224D03*
X29204862Y-198102686D03*
%TD*%
M02*
