%TF.GenerationSoftware,KiCad,Pcbnew,8.0.1-8.0.1-1~ubuntu22.04.1*%
%TF.CreationDate,2024-03-26T23:20:42-04:00*%
%TF.ProjectId,travis_erg2024-new4,74726176-6973-45f6-9572-67323032342d,2024.03.25*%
%TF.SameCoordinates,Original*%
%TF.FileFunction,Profile,NP*%
%FSLAX46Y46*%
G04 Gerber Fmt 4.6, Leading zero omitted, Abs format (unit mm)*
G04 Created by KiCad (PCBNEW 8.0.1-8.0.1-1~ubuntu22.04.1) date 2024-03-26 23:20:42*
%MOMM*%
%LPD*%
G01*
G04 APERTURE LIST*
%TA.AperFunction,Profile*%
%ADD10C,0.150000*%
%TD*%
%TA.AperFunction,Profile*%
%ADD11C,0.120000*%
%TD*%
G04 APERTURE END LIST*
D10*
X17145606Y-129938963D02*
X27844950Y-86019960D01*
X29770666Y-84493422D02*
X40688658Y-84398143D01*
X40787359Y-84394843D02*
X80810424Y-82066481D01*
X80850824Y-82064541D02*
X101787395Y-81270950D01*
X102011924Y-81275056D02*
X122907326Y-82833727D01*
X122947318Y-82836308D02*
X148013667Y-84201716D01*
X149226303Y-84697471D02*
X154154266Y-89035025D01*
X155476710Y-89533741D02*
X170815057Y-89525877D01*
X172135450Y-89027161D02*
X177067195Y-84686278D01*
X178272933Y-84190910D02*
X202819364Y-82768752D01*
X202892620Y-82763156D02*
X223734084Y-80785449D01*
X223958484Y-80776819D02*
X244900987Y-81148229D01*
X244956362Y-81149978D02*
X285023460Y-82971671D01*
X285105571Y-82973716D02*
X400363399Y-83476626D01*
X402354653Y-85485334D02*
X402139250Y-134851800D01*
X402094627Y-135263282D02*
X396552562Y-161052207D01*
X338884657Y-224941297D02*
X396077640Y-161976732D01*
X336695127Y-225466640D02*
X298370275Y-210934659D01*
X265545468Y-210664584D02*
X297669908Y-210804755D01*
X265369221Y-210656031D02*
X246692221Y-208921227D01*
X246509801Y-208912657D02*
X215407718Y-208872953D01*
X215052960Y-208904208D02*
X204080140Y-210867229D01*
X203877004Y-210892922D02*
X166568622Y-213681441D01*
X166422131Y-213687003D02*
X159871046Y-213695448D01*
X159719399Y-213689887D02*
X122375278Y-210898696D01*
X122247889Y-210885060D02*
X111229467Y-209347229D01*
X110920509Y-209328294D02*
X79814032Y-209833841D01*
X79617762Y-209846704D02*
X61007671Y-211989480D01*
X30456072Y-212267306D02*
X60796354Y-212002531D01*
X28736509Y-211317535D02*
X17930704Y-193803256D01*
X17632890Y-192770557D02*
X17088851Y-130429801D01*
X27844950Y-86019960D02*
G75*
G02*
X29770666Y-84493422I1943169J-473386D01*
G01*
X40787360Y-84394842D02*
G75*
G02*
X40688658Y-84398142I-116155J1996623D01*
G01*
X80810424Y-82066483D02*
G75*
G02*
X80850824Y-82064542I116154J-1996622D01*
G01*
X101787395Y-81270949D02*
G75*
G02*
X102011924Y-81275055I75755J-1998565D01*
G01*
X122947318Y-82836307D02*
G75*
G02*
X122907326Y-82833727I108783J1997039D01*
G01*
X148013667Y-84201717D02*
G75*
G02*
X149226302Y-84697472I-108782J-1997038D01*
G01*
X155476710Y-89533741D02*
G75*
G02*
X154154266Y-89035025I-1025J2000000D01*
G01*
X172135450Y-89027161D02*
G75*
G02*
X170815057Y-89525877I-1321419J1501284D01*
G01*
X177067197Y-84686279D02*
G75*
G02*
X178272933Y-84190911I1321417J-1501283D01*
G01*
X202892620Y-82763156D02*
G75*
G02*
X202819364Y-82768752I-188937J1991056D01*
G01*
X223734083Y-80785449D02*
G75*
G02*
X223958484Y-80776819I188938J-1991056D01*
G01*
X244900988Y-81148228D02*
G75*
G02*
X244956362Y-81149978I-35465J-1999686D01*
G01*
X285105572Y-82973716D02*
G75*
G02*
X285023460Y-82971671I8726J1999981D01*
G01*
X400363399Y-83476626D02*
G75*
G02*
X402354653Y-85485334I-8727J-1999981D01*
G01*
X402139250Y-134851800D02*
G75*
G02*
X402094627Y-135263282I-1999981J8726D01*
G01*
X396552560Y-161052207D02*
G75*
G02*
X396077639Y-161976731I-1955356J420208D01*
G01*
X338884657Y-224941296D02*
G75*
G02*
X336695127Y-225466639I-1480436J1344733D01*
G01*
X297669908Y-210804754D02*
G75*
G02*
X298370275Y-210934659I-8727J-1999982D01*
G01*
X265545467Y-210664584D02*
G75*
G02*
X265369221Y-210656031I8727J1999981D01*
G01*
X246509801Y-208912658D02*
G75*
G02*
X246692221Y-208921228I-2553J-1999997D01*
G01*
X215052959Y-208904209D02*
G75*
G02*
X215407718Y-208872954I352206J-1968742D01*
G01*
X204080140Y-210867229D02*
G75*
G02*
X203877004Y-210892922I-352205J1968744D01*
G01*
X166568622Y-213681442D02*
G75*
G02*
X166422131Y-213687003I-149069J1994438D01*
G01*
X159871046Y-213695447D02*
G75*
G02*
X159719399Y-213689886I-2578J1999997D01*
G01*
X122375278Y-210898696D02*
G75*
G02*
X122247889Y-210885060I149069J1994437D01*
G01*
X110920509Y-209328294D02*
G75*
G02*
X111229467Y-209347229I32500J-1999736D01*
G01*
X79617762Y-209846704D02*
G75*
G02*
X79814032Y-209833841I228770J-1986873D01*
G01*
X61007671Y-211989480D02*
G75*
G02*
X60796354Y-212002531I-228770J1986873D01*
G01*
X30456071Y-212267306D02*
G75*
G02*
X28736509Y-211317535I-17452J1999923D01*
G01*
X17930705Y-193803257D02*
G75*
G02*
X17632891Y-192770557I1702109J1050153D01*
G01*
X17088851Y-130429802D02*
G75*
G02*
X17145606Y-129938963I1999924J17454D01*
G01*
D11*
%TO.C,KLED1*%
X39973642Y-203068867D02*
X40000695Y-206168749D01*
X40000695Y-206168749D02*
X43600558Y-206137333D01*
X43600558Y-206137333D02*
X43573505Y-203037451D01*
X43573505Y-203037451D02*
X39973642Y-203068867D01*
%TO.C,KLED2*%
X34378842Y-165016267D02*
X34405895Y-168116149D01*
X34405895Y-168116149D02*
X38005758Y-168084733D01*
X38005758Y-168084733D02*
X37978705Y-164984851D01*
X37978705Y-164984851D02*
X34378842Y-165016267D01*
%TO.C,KLED3*%
X39308642Y-126871767D02*
X39335695Y-129971649D01*
X39335695Y-129971649D02*
X42935558Y-129940233D01*
X42935558Y-129940233D02*
X42908505Y-126840351D01*
X42908505Y-126840351D02*
X39308642Y-126871767D01*
%TO.C,KLED4*%
X59022842Y-202902667D02*
X59049895Y-206002549D01*
X59049895Y-206002549D02*
X62649758Y-205971133D01*
X62649758Y-205971133D02*
X62622705Y-202871251D01*
X62622705Y-202871251D02*
X59022842Y-202902667D01*
%TO.C,KLED5*%
X58690442Y-164804067D02*
X58717495Y-167903949D01*
X58717495Y-167903949D02*
X62317358Y-167872533D01*
X62317358Y-167872533D02*
X62290305Y-164772651D01*
X62290305Y-164772651D02*
X58690442Y-164804067D01*
%TO.C,KLED6*%
X58357942Y-126705567D02*
X58384995Y-129805449D01*
X58384995Y-129805449D02*
X61984858Y-129774033D01*
X61984858Y-129774033D02*
X61957805Y-126674151D01*
X61957805Y-126674151D02*
X58357942Y-126705567D01*
%TO.C,KLED7*%
X77995195Y-200705051D02*
X77968142Y-203804933D01*
X77968142Y-203804933D02*
X81568005Y-203836349D01*
X81568005Y-203836349D02*
X81595058Y-200736467D01*
X81595058Y-200736467D02*
X77995195Y-200705051D01*
%TO.C,KLED8*%
X78327695Y-162606551D02*
X78300642Y-165706433D01*
X78300642Y-165706433D02*
X81900505Y-165737849D01*
X81900505Y-165737849D02*
X81927558Y-162637967D01*
X81927558Y-162637967D02*
X78327695Y-162606551D01*
%TO.C,KLED9*%
X78660195Y-124507951D02*
X78633142Y-127607833D01*
X78633142Y-127607833D02*
X82233005Y-127639249D01*
X82233005Y-127639249D02*
X82260058Y-124539367D01*
X82260058Y-124539367D02*
X78660195Y-124507951D01*
%TO.C,KLED10*%
X96994191Y-199838913D02*
X96913043Y-202937850D01*
X96913043Y-202937850D02*
X100511809Y-203032087D01*
X100511809Y-203032087D02*
X100592957Y-199933150D01*
X100592957Y-199933150D02*
X96994191Y-199838913D01*
%TO.C,KLED11*%
X97991591Y-161752013D02*
X97910443Y-164850950D01*
X97910443Y-164850950D02*
X101509209Y-164945187D01*
X101509209Y-164945187D02*
X101590357Y-161846250D01*
X101590357Y-161846250D02*
X97991591Y-161752013D01*
%TO.C,KLED12*%
X98988891Y-123665013D02*
X98907743Y-126763950D01*
X98907743Y-126763950D02*
X102506509Y-126858187D01*
X102506509Y-126858187D02*
X102587657Y-123759250D01*
X102587657Y-123759250D02*
X98988891Y-123665013D01*
%TO.C,KLED13*%
X117615023Y-163240060D02*
X117479803Y-166337110D01*
X117479803Y-166337110D02*
X121076377Y-166494140D01*
X121076377Y-166494140D02*
X121211597Y-163397090D01*
X121211597Y-163397090D02*
X117615023Y-163240060D01*
%TO.C,KLED14*%
X119276923Y-125176260D02*
X119141703Y-128273310D01*
X119141703Y-128273310D02*
X122738277Y-128430340D01*
X122738277Y-128430340D02*
X122873497Y-125333290D01*
X122873497Y-125333290D02*
X119276923Y-125176260D01*
%TO.C,KLED15*%
X133461339Y-202304024D02*
X133312607Y-205400454D01*
X133312607Y-205400454D02*
X136908461Y-205573176D01*
X136908461Y-205573176D02*
X137057193Y-202476746D01*
X137057193Y-202476746D02*
X133461339Y-202304024D01*
%TO.C,KLED16*%
X136787539Y-164319824D02*
X136638807Y-167416254D01*
X136638807Y-167416254D02*
X140234661Y-167588976D01*
X140234661Y-167588976D02*
X140383393Y-164492546D01*
X140383393Y-164492546D02*
X136787539Y-164319824D01*
%TO.C,KLED17*%
X138615539Y-126263724D02*
X138466807Y-129360154D01*
X138466807Y-129360154D02*
X142062661Y-129532876D01*
X142062661Y-129532876D02*
X142211393Y-126436446D01*
X142211393Y-126436446D02*
X138615539Y-126263724D01*
%TO.C,KLED18*%
X189233407Y-202468046D02*
X189382139Y-205564476D01*
X189382139Y-205564476D02*
X192977993Y-205391754D01*
X192977993Y-205391754D02*
X192829261Y-202295324D01*
X192829261Y-202295324D02*
X189233407Y-202468046D01*
%TO.C,KLED19*%
X185907207Y-164483946D02*
X186055939Y-167580376D01*
X186055939Y-167580376D02*
X189651793Y-167407654D01*
X189651793Y-167407654D02*
X189503061Y-164311224D01*
X189503061Y-164311224D02*
X185907207Y-164483946D01*
%TO.C,KLED20*%
X184079207Y-126427746D02*
X184227939Y-129524176D01*
X184227939Y-129524176D02*
X187823793Y-129351454D01*
X187823793Y-129351454D02*
X187675061Y-126255024D01*
X187675061Y-126255024D02*
X184079207Y-126427746D01*
%TO.C,KLED21*%
X204923207Y-163320246D02*
X205071939Y-166416676D01*
X205071939Y-166416676D02*
X208667793Y-166243954D01*
X208667793Y-166243954D02*
X208519061Y-163147524D01*
X208519061Y-163147524D02*
X204923207Y-163320246D01*
%TO.C,KLED22*%
X203095307Y-125264046D02*
X203244039Y-128360476D01*
X203244039Y-128360476D02*
X206839893Y-128187754D01*
X206839893Y-128187754D02*
X206691161Y-125091324D01*
X206691161Y-125091324D02*
X203095307Y-125264046D01*
%TO.C,KLED23*%
X225670605Y-199434492D02*
X225765274Y-202533046D01*
X225765274Y-202533046D02*
X229363595Y-202423108D01*
X229363595Y-202423108D02*
X229268926Y-199324554D01*
X229268926Y-199324554D02*
X225670605Y-199434492D01*
%TO.C,KLED24*%
X224507105Y-161352192D02*
X224601774Y-164450746D01*
X224601774Y-164450746D02*
X228200095Y-164340808D01*
X228200095Y-164340808D02*
X228105426Y-161242254D01*
X228105426Y-161242254D02*
X224507105Y-161352192D01*
%TO.C,KLED25*%
X223343505Y-123269992D02*
X223438174Y-126368546D01*
X223438174Y-126368546D02*
X227036495Y-126258608D01*
X227036495Y-126258608D02*
X226941826Y-123160054D01*
X226941826Y-123160054D02*
X223343505Y-123269992D01*
%TO.C,KLED26*%
X244682065Y-199822094D02*
X244722643Y-202921828D01*
X244722643Y-202921828D02*
X248322335Y-202874706D01*
X248322335Y-202874706D02*
X248281757Y-199774972D01*
X248281757Y-199774972D02*
X244682065Y-199822094D01*
%TO.C,KLED27*%
X244183365Y-161725394D02*
X244223943Y-164825128D01*
X244223943Y-164825128D02*
X247823635Y-164778006D01*
X247823635Y-164778006D02*
X247783057Y-161678272D01*
X247783057Y-161678272D02*
X244183365Y-161725394D01*
%TO.C,KLED28*%
X243684665Y-123628594D02*
X243725243Y-126728328D01*
X243725243Y-126728328D02*
X247324935Y-126681206D01*
X247324935Y-126681206D02*
X247284357Y-123581472D01*
X247284357Y-123581472D02*
X243684665Y-123628594D01*
%TO.C,KLED29*%
X263696980Y-201541461D02*
X263683454Y-204641431D01*
X263683454Y-204641431D02*
X267283420Y-204657139D01*
X267283420Y-204657139D02*
X267296946Y-201557169D01*
X267296946Y-201557169D02*
X263696980Y-201541461D01*
%TO.C,KLED30*%
X263863180Y-163441761D02*
X263849654Y-166541731D01*
X263849654Y-166541731D02*
X267449620Y-166557439D01*
X267449620Y-166557439D02*
X267463146Y-163457469D01*
X267463146Y-163457469D02*
X263863180Y-163441761D01*
%TO.C,KLED31*%
X264029380Y-125342161D02*
X264015854Y-128442131D01*
X264015854Y-128442131D02*
X267615820Y-128457839D01*
X267615820Y-128457839D02*
X267629346Y-125357869D01*
X267629346Y-125357869D02*
X264029380Y-125342161D01*
%TO.C,KLED32*%
X282746780Y-201624561D02*
X282733254Y-204724531D01*
X282733254Y-204724531D02*
X286333220Y-204740239D01*
X286333220Y-204740239D02*
X286346746Y-201640269D01*
X286346746Y-201640269D02*
X282746780Y-201624561D01*
%TO.C,KLED33*%
X282912980Y-163524961D02*
X282899454Y-166624931D01*
X282899454Y-166624931D02*
X286499420Y-166640639D01*
X286499420Y-166640639D02*
X286512946Y-163540669D01*
X286512946Y-163540669D02*
X282912980Y-163524961D01*
%TO.C,KLED34*%
X283079280Y-125425261D02*
X283065754Y-128525231D01*
X283065754Y-128525231D02*
X286665720Y-128540939D01*
X286665720Y-128540939D02*
X286679246Y-125440969D01*
X286679246Y-125440969D02*
X283079280Y-125425261D01*
%TO.C,KLED35*%
X307325280Y-163631461D02*
X307311754Y-166731431D01*
X307311754Y-166731431D02*
X310911720Y-166747139D01*
X310911720Y-166747139D02*
X310925246Y-163647169D01*
X310925246Y-163647169D02*
X307325280Y-163631461D01*
%TO.C,KLED36*%
X302129080Y-125508361D02*
X302115554Y-128608331D01*
X302115554Y-128608331D02*
X305715520Y-128624039D01*
X305715520Y-128624039D02*
X305729046Y-125524069D01*
X305729046Y-125524069D02*
X302129080Y-125508361D01*
%TO.C,KLED37*%
X326541380Y-125614961D02*
X326527854Y-128714931D01*
X326527854Y-128714931D02*
X330127820Y-128730639D01*
X330127820Y-128730639D02*
X330141346Y-125630669D01*
X330141346Y-125630669D02*
X326541380Y-125614961D01*
%TO.C,KLED38*%
X338432802Y-211882124D02*
X340727478Y-213966461D01*
X340727478Y-213966461D02*
X343147998Y-211301676D01*
X343147998Y-211301676D02*
X340853322Y-209217339D01*
X340853322Y-209217339D02*
X338432802Y-211882124D01*
%TO.C,KLED39*%
X351241402Y-197780924D02*
X353536078Y-199865261D01*
X353536078Y-199865261D02*
X355956598Y-197200476D01*
X355956598Y-197200476D02*
X353661922Y-195116139D01*
X353661922Y-195116139D02*
X351241402Y-197780924D01*
%TO.C,KLED40*%
X367252202Y-180154524D02*
X369546878Y-182238861D01*
X369546878Y-182238861D02*
X371967398Y-179574076D01*
X371967398Y-179574076D02*
X369672722Y-177489739D01*
X369672722Y-177489739D02*
X367252202Y-180154524D01*
%TO.C,KLED41*%
X380060702Y-166053324D02*
X382355378Y-168137661D01*
X382355378Y-168137661D02*
X384775898Y-165472876D01*
X384775898Y-165472876D02*
X382481222Y-163388539D01*
X382481222Y-163388539D02*
X380060702Y-166053324D01*
%TO.C,KLED42*%
X368803480Y-125799361D02*
X368789954Y-128899331D01*
X368789954Y-128899331D02*
X372389920Y-128915039D01*
X372389920Y-128915039D02*
X372403446Y-125815069D01*
X372403446Y-125815069D02*
X368803480Y-125799361D01*
%TO.C,KLED43*%
X387853280Y-125882461D02*
X387839754Y-128982431D01*
X387839754Y-128982431D02*
X391439720Y-128998139D01*
X391439720Y-128998139D02*
X391453246Y-125898169D01*
X391453246Y-125898169D02*
X387853280Y-125882461D01*
%TO.C,KLED44*%
X38171958Y-187134033D02*
X38144905Y-184034151D01*
X38144905Y-184034151D02*
X34545042Y-184065567D01*
X34545042Y-184065567D02*
X34572095Y-187165449D01*
X34572095Y-187165449D02*
X38171958Y-187134033D01*
%TO.C,KLED45*%
X37839458Y-149035433D02*
X37812405Y-145935551D01*
X37812405Y-145935551D02*
X34212542Y-145966967D01*
X34212542Y-145966967D02*
X34239595Y-149066849D01*
X34239595Y-149066849D02*
X37839458Y-149035433D01*
%TO.C,KLED46*%
X42769358Y-110891033D02*
X42742305Y-107791151D01*
X42742305Y-107791151D02*
X39142442Y-107822567D01*
X39142442Y-107822567D02*
X39169495Y-110922449D01*
X39169495Y-110922449D02*
X42769358Y-110891033D01*
%TO.C,KLED47*%
X62483558Y-186921833D02*
X62456505Y-183821951D01*
X62456505Y-183821951D02*
X58856642Y-183853367D01*
X58856642Y-183853367D02*
X58883695Y-186953249D01*
X58883695Y-186953249D02*
X62483558Y-186921833D01*
%TO.C,KLED48*%
X62151058Y-148823333D02*
X62124005Y-145723451D01*
X62124005Y-145723451D02*
X58524142Y-145754867D01*
X58524142Y-145754867D02*
X58551195Y-148854749D01*
X58551195Y-148854749D02*
X62151058Y-148823333D01*
%TO.C,KLED49*%
X81734205Y-184787149D02*
X81761258Y-181687267D01*
X81761258Y-181687267D02*
X78161395Y-181655851D01*
X78161395Y-181655851D02*
X78134342Y-184755733D01*
X78134342Y-184755733D02*
X81734205Y-184787149D01*
%TO.C,KLED50*%
X82066705Y-146688549D02*
X82093758Y-143588667D01*
X82093758Y-143588667D02*
X78493895Y-143557251D01*
X78493895Y-143557251D02*
X78466842Y-146657133D01*
X78466842Y-146657133D02*
X82066705Y-146688549D01*
%TO.C,KLED51*%
X82399205Y-108590049D02*
X82426258Y-105490167D01*
X82426258Y-105490167D02*
X78826395Y-105458751D01*
X78826395Y-105458751D02*
X78799342Y-108558633D01*
X78799342Y-108558633D02*
X82399205Y-108590049D01*
%TO.C,KLED52*%
X101010509Y-183988587D02*
X101091657Y-180889650D01*
X101091657Y-180889650D02*
X97492891Y-180795413D01*
X97492891Y-180795413D02*
X97411743Y-183894350D01*
X97411743Y-183894350D02*
X101010509Y-183988587D01*
%TO.C,KLED53*%
X102007909Y-145901687D02*
X102089057Y-142802750D01*
X102089057Y-142802750D02*
X98490291Y-142708513D01*
X98490291Y-142708513D02*
X98409143Y-145807450D01*
X98409143Y-145807450D02*
X102007909Y-145901687D01*
%TO.C,KLED54*%
X103005209Y-107814687D02*
X103086357Y-104715750D01*
X103086357Y-104715750D02*
X99487591Y-104621513D01*
X99487591Y-104621513D02*
X99406443Y-107720450D01*
X99406443Y-107720450D02*
X103005209Y-107814687D01*
%TO.C,KLED55*%
X120245477Y-185525940D02*
X120380697Y-182428890D01*
X120380697Y-182428890D02*
X116784123Y-182271860D01*
X116784123Y-182271860D02*
X116648903Y-185368910D01*
X116648903Y-185368910D02*
X120245477Y-185525940D01*
%TO.C,KLED56*%
X121907377Y-147462240D02*
X122042597Y-144365190D01*
X122042597Y-144365190D02*
X118446023Y-144208160D01*
X118446023Y-144208160D02*
X118310803Y-147305210D01*
X118310803Y-147305210D02*
X121907377Y-147462240D01*
%TO.C,KLED57*%
X123569277Y-109398540D02*
X123704497Y-106301490D01*
X123704497Y-106301490D02*
X120107923Y-106144460D01*
X120107923Y-106144460D02*
X119972703Y-109241510D01*
X119972703Y-109241510D02*
X123569277Y-109398540D01*
%TO.C,KLED58*%
X139320761Y-186617076D02*
X139469493Y-183520646D01*
X139469493Y-183520646D02*
X135873639Y-183347924D01*
X135873639Y-183347924D02*
X135724907Y-186444354D01*
X135724907Y-186444354D02*
X139320761Y-186617076D01*
%TO.C,KLED59*%
X141148661Y-148560876D02*
X141297393Y-145464446D01*
X141297393Y-145464446D02*
X137701539Y-145291724D01*
X137701539Y-145291724D02*
X137552807Y-148388154D01*
X137552807Y-148388154D02*
X141148661Y-148560876D01*
%TO.C,KLED60*%
X142976661Y-110504776D02*
X143125393Y-107408346D01*
X143125393Y-107408346D02*
X139529539Y-107235624D01*
X139529539Y-107235624D02*
X139380807Y-110332054D01*
X139380807Y-110332054D02*
X142976661Y-110504776D01*
%TO.C,KLED61*%
X190565693Y-186435654D02*
X190416961Y-183339224D01*
X190416961Y-183339224D02*
X186821107Y-183511946D01*
X186821107Y-183511946D02*
X186969839Y-186608376D01*
X186969839Y-186608376D02*
X190565693Y-186435654D01*
%TO.C,KLED62*%
X188737793Y-148379554D02*
X188589061Y-145283124D01*
X188589061Y-145283124D02*
X184993207Y-145455846D01*
X184993207Y-145455846D02*
X185141939Y-148552276D01*
X185141939Y-148552276D02*
X188737793Y-148379554D01*
%TO.C,KLED63*%
X186909793Y-110323454D02*
X186761061Y-107227024D01*
X186761061Y-107227024D02*
X183165207Y-107399746D01*
X183165207Y-107399746D02*
X183313939Y-110496176D01*
X183313939Y-110496176D02*
X186909793Y-110323454D01*
%TO.C,KLED64*%
X209581793Y-185271954D02*
X209433061Y-182175524D01*
X209433061Y-182175524D02*
X205837207Y-182348246D01*
X205837207Y-182348246D02*
X205985939Y-185444676D01*
X205985939Y-185444676D02*
X209581793Y-185271954D01*
%TO.C,KLED65*%
X207753793Y-147215854D02*
X207605061Y-144119424D01*
X207605061Y-144119424D02*
X204009207Y-144292146D01*
X204009207Y-144292146D02*
X204157939Y-147388576D01*
X204157939Y-147388576D02*
X207753793Y-147215854D01*
%TO.C,KLED66*%
X205925893Y-109159754D02*
X205777161Y-106063324D01*
X205777161Y-106063324D02*
X202181307Y-106236046D01*
X202181307Y-106236046D02*
X202330039Y-109332476D01*
X202330039Y-109332476D02*
X205925893Y-109159754D01*
%TO.C,KLED67*%
X228781795Y-183381908D02*
X228687126Y-180283354D01*
X228687126Y-180283354D02*
X225088805Y-180393292D01*
X225088805Y-180393292D02*
X225183474Y-183491846D01*
X225183474Y-183491846D02*
X228781795Y-183381908D01*
%TO.C,KLED68*%
X227618295Y-145299708D02*
X227523626Y-142201154D01*
X227523626Y-142201154D02*
X223925305Y-142311092D01*
X223925305Y-142311092D02*
X224019974Y-145409646D01*
X224019974Y-145409646D02*
X227618295Y-145299708D01*
%TO.C,KLED69*%
X226454795Y-107217508D02*
X226360126Y-104118954D01*
X226360126Y-104118954D02*
X222761805Y-104228892D01*
X222761805Y-104228892D02*
X222856474Y-107327446D01*
X222856474Y-107327446D02*
X226454795Y-107217508D01*
%TO.C,KLED70*%
X248072935Y-183826406D02*
X248032357Y-180726672D01*
X248032357Y-180726672D02*
X244432665Y-180773794D01*
X244432665Y-180773794D02*
X244473243Y-183873528D01*
X244473243Y-183873528D02*
X248072935Y-183826406D01*
%TO.C,KLED71*%
X247574235Y-145729606D02*
X247533657Y-142629872D01*
X247533657Y-142629872D02*
X243933965Y-142676994D01*
X243933965Y-142676994D02*
X243974543Y-145776728D01*
X243974543Y-145776728D02*
X247574235Y-145729606D01*
%TO.C,KLED72*%
X247075535Y-107632906D02*
X247034957Y-104533172D01*
X247034957Y-104533172D02*
X243435265Y-104580294D01*
X243435265Y-104580294D02*
X243475843Y-107680028D01*
X243475843Y-107680028D02*
X247075535Y-107632906D01*
%TO.C,KLED73*%
X267366520Y-185607339D02*
X267380046Y-182507369D01*
X267380046Y-182507369D02*
X263780080Y-182491661D01*
X263780080Y-182491661D02*
X263766554Y-185591631D01*
X263766554Y-185591631D02*
X267366520Y-185607339D01*
%TO.C,KLED74*%
X267532720Y-147507639D02*
X267546246Y-144407669D01*
X267546246Y-144407669D02*
X263946280Y-144391961D01*
X263946280Y-144391961D02*
X263932754Y-147491931D01*
X263932754Y-147491931D02*
X267532720Y-147507639D01*
%TO.C,KLED75*%
X291778820Y-185713839D02*
X291792346Y-182613869D01*
X291792346Y-182613869D02*
X288192380Y-182598161D01*
X288192380Y-182598161D02*
X288178854Y-185698131D01*
X288178854Y-185698131D02*
X291778820Y-185713839D01*
%TO.C,KLED76*%
X286582520Y-147590739D02*
X286596046Y-144490769D01*
X286596046Y-144490769D02*
X282996080Y-144475061D01*
X282996080Y-144475061D02*
X282982554Y-147575031D01*
X282982554Y-147575031D02*
X286582520Y-147590739D01*
%TO.C,KLED77*%
X286748820Y-109491139D02*
X286762346Y-106391169D01*
X286762346Y-106391169D02*
X283162380Y-106375461D01*
X283162380Y-106375461D02*
X283148854Y-109475431D01*
X283148854Y-109475431D02*
X286748820Y-109491139D01*
%TO.C,KLED78*%
X305632420Y-147673939D02*
X305645946Y-144573969D01*
X305645946Y-144573969D02*
X302045980Y-144558261D01*
X302045980Y-144558261D02*
X302032454Y-147658231D01*
X302032454Y-147658231D02*
X305632420Y-147673939D01*
%TO.C,KLED79*%
X305798620Y-109574239D02*
X305812146Y-106474269D01*
X305812146Y-106474269D02*
X302212180Y-106458561D01*
X302212180Y-106458561D02*
X302198654Y-109558531D01*
X302198654Y-109558531D02*
X305798620Y-109574239D01*
%TO.C,KLED80*%
X324682220Y-147757039D02*
X324695746Y-144657069D01*
X324695746Y-144657069D02*
X321095780Y-144641361D01*
X321095780Y-144641361D02*
X321082254Y-147741331D01*
X321082254Y-147741331D02*
X324682220Y-147757039D01*
%TO.C,KLED81*%
X324848420Y-109657339D02*
X324861946Y-106557369D01*
X324861946Y-106557369D02*
X321261980Y-106541661D01*
X321261980Y-106541661D02*
X321248454Y-109641631D01*
X321248454Y-109641631D02*
X324848420Y-109657339D01*
%TO.C,KLED82*%
X343898220Y-109740539D02*
X343911746Y-106640569D01*
X343911746Y-106640569D02*
X340311780Y-106624861D01*
X340311780Y-106624861D02*
X340298254Y-109724831D01*
X340298254Y-109724831D02*
X343898220Y-109740539D01*
%TO.C,KLED83*%
X329046898Y-198493076D02*
X326752222Y-196408739D01*
X326752222Y-196408739D02*
X324331702Y-199073524D01*
X324331702Y-199073524D02*
X326626378Y-201157861D01*
X326626378Y-201157861D02*
X329046898Y-198493076D01*
%TO.C,KLED84*%
X341855498Y-184391976D02*
X339560822Y-182307639D01*
X339560822Y-182307639D02*
X337140302Y-184972424D01*
X337140302Y-184972424D02*
X339434978Y-187056761D01*
X339434978Y-187056761D02*
X341855498Y-184391976D01*
%TO.C,KLED85*%
X357866198Y-166765476D02*
X355571522Y-164681139D01*
X355571522Y-164681139D02*
X353151002Y-167345924D01*
X353151002Y-167345924D02*
X355445678Y-169430261D01*
X355445678Y-169430261D02*
X357866198Y-166765476D01*
%TO.C,KLED86*%
X370674798Y-152664376D02*
X368380122Y-150580039D01*
X368380122Y-150580039D02*
X365959602Y-153244824D01*
X365959602Y-153244824D02*
X368254278Y-155329161D01*
X368254278Y-155329161D02*
X370674798Y-152664376D01*
%TO.C,KLED87*%
X372473020Y-109865139D02*
X372486546Y-106765169D01*
X372486546Y-106765169D02*
X368886580Y-106749461D01*
X368886580Y-106749461D02*
X368873054Y-109849431D01*
X368873054Y-109849431D02*
X372473020Y-109865139D01*
%TO.C,KLED88*%
X391522820Y-109948339D02*
X391536346Y-106848369D01*
X391536346Y-106848369D02*
X387936380Y-106832661D01*
X387936380Y-106832661D02*
X387922854Y-109932631D01*
X387922854Y-109932631D02*
X391522820Y-109948339D01*
D10*
%TO.C,REF\u002A\u002A*%
X172945298Y-149267732D02*
X172945298Y-135667732D01*
X170545298Y-135667732D02*
X170545298Y-149267732D01*
X172645298Y-135367732D02*
X170845298Y-135367732D01*
X170845298Y-149567732D02*
X172645298Y-149567732D01*
X170845298Y-149567732D02*
G75*
G02*
X170545298Y-149267732I0J300000D01*
G01*
X172945298Y-149267732D02*
G75*
G02*
X172645298Y-149567732I-300000J0D01*
G01*
X170545298Y-135667732D02*
G75*
G02*
X170845298Y-135367732I300000J0D01*
G01*
X172645298Y-135367732D02*
G75*
G02*
X172945298Y-135667732I0J-300000D01*
G01*
%TD*%
M02*
