<?xml version="1.0"?>
<svg
  xmlns="http://www.w3.org/2000/svg"
  xmlns:xlink="http://www.w3.org/1999/xlink" version="1.1"
  preserveAspectRatio="xMinYMin meet"
  viewBox="119.6268121 190.244542 87.03697120000001 17.470816900000017"
  width="100%" height="100%"
>
  <g stroke="#000000" stroke-width="0.1%" fill="none" transform="matrix(1,0,0,-1,0,0)">
    <g stroke="rgb(0, 0, 0)"><path d="M143.4593347,-207.379512L150.4512734,-207.7153589" /></g>
<g stroke="rgb(0, 0, 0)"><path d="M150.4512734,-207.7153589L151.2189235,-191.7337848" /></g>
<g stroke="rgb(0, 0, 0)"><path d="M151.2189235,-191.7337848L144.2269848,-191.3979379" /></g>
<g stroke="rgb(0, 0, 0)"><path d="M144.2269848,-191.3979379L143.4593347,-207.379512" /></g>
<g stroke="rgb(0, 0, 0)"><path d="M199.6718446,-206.561963L206.6637833,-206.2261161" /></g>
<g stroke="rgb(0, 0, 0)"><path d="M206.6637833,-206.2261161L205.8961332,-190.244542" /></g>
<g stroke="rgb(0, 0, 0)"><path d="M205.8961332,-190.244542L198.9041945,-190.5803889" /></g>
<g stroke="rgb(0, 0, 0)"><path d="M198.9041945,-190.5803889L199.6718446,-206.561963" /></g>
<g stroke="rgb(0, 0, 0)"><path d="M119.6268121,-206.2347538L126.6187508,-206.5706007" /></g>
<g stroke="rgb(0, 0, 0)"><path d="M126.6187508,-206.5706007L127.3864009,-190.5890266" /></g>
<g stroke="rgb(0, 0, 0)"><path d="M127.3864009,-190.5890266L120.3944622,-190.2531797" /></g>
<g stroke="rgb(0, 0, 0)"><path d="M120.3944622,-190.2531797L119.6268121,-206.2347538" /></g>
<g stroke="rgb(0, 0, 0)"><path d="M175.839322,-207.7067212L182.8312607,-207.3708743" /></g>
<g stroke="rgb(0, 0, 0)"><path d="M182.8312607,-207.3708743L182.0636106,-191.3893002" /></g>
<g stroke="rgb(0, 0, 0)"><path d="M182.0636106,-191.3893002L175.0716719,-191.7251471" /></g>
<g stroke="rgb(0, 0, 0)"><path d="M175.0716719,-191.7251471L175.839322,-207.7067212" /></g>
  </g>
</svg>