0
SECTION
2
HEADER
9
$INSUNITS
70
4
0
ENDSEC
0
SECTION
2
TABLES
0
TABLE
2
LTYPE
0
LTYPE
72
65
70
64
2
CONTINUOUS
3
______
73
0
40
0
0
ENDTAB
0
TABLE
2
LAYER
0
ENDTAB
0
ENDSEC
0
SECTION
2
ENTITIES
0
LINE
8
0
10
4.261399
20
-104.9205101
11
14.6222449
21
-61.8487273
0
LINE
8
0
10
17.5041727
20
-59.550561
11
27.6186023
21
-59.4329866
0
LINE
8
0
10
27.7666397
20
-59.4276082
11
67.7480436
21
-56.9854221
0
LINE
8
0
10
67.8086349
20
-56.9823356
11
88.6765328
21
-56.1307945
0
LINE
8
0
10
89.013343
20
-56.1359776
11
109.8425834
21
-57.6290435
0
LINE
8
0
10
109.9116164
20
-57.6331927
11
140.9787881
21
-59.1413149
0
LINE
8
0
10
142.7990528
20
-59.8715285
11
147.2173492
21
-63.703906
0
LINE
8
0
10
149.1961078
20
-64.4376199
11
158.996312
21
-64.3950427
0
LINE
8
0
10
160.9621022
20
-63.6499007
11
165.3620267
21
-59.7885556
0
LINE
8
0
10
167.1775871
20
-59.0478311
11
197.6129694
21
-57.3890467
0
LINE
8
0
10
197.7287328
20
-57.3804883
11
218.4958703
21
-55.4405511
0
LINE
8
0
10
218.8324904
20
-55.4280998
11
239.7043514
21
-55.8288669
0
LINE
8
0
10
239.7874088
20
-55.8316129
11
279.8174484
21
-57.7104324
0
LINE
8
0
10
279.940611
20
-57.7136803
11
394.1770532
21
-58.3796176
0
LINE
8
0
10
397.159514
20
-61.3970548
11
396.878822
21
-109.5476218
0
LINE
8
0
10
396.7566875
20
-110.377591
11
389.2359706
21
-135.9166084
0
LINE
8
0
10
331.8692512
20
-199.3350003
11
388.575851
21
-137.0895049
0
LINE
8
0
10
328.5511261
20
-200.1055339
11
292.1808581
21
-185.7649541
0
LINE
8
0
10
260.2169392
20
-185.375873
11
291.0979159
21
-185.5558926
0
LINE
8
0
10
259.9525891
20
-185.3626559
11
241.3676117
21
-183.6089136
0
LINE
8
0
10
241.0940012
20
-183.5956568
11
210.0968931
21
-183.5106425
0
LINE
8
0
10
209.6238567
20
-183.5468578
11
196.6307745
21
-185.5845634
0
LINE
8
0
10
196.3851834
20
-185.6127699
11
159.1272091
21
-188.3425993
0
LINE
8
0
10
158.9139922
20
-188.3506134
11
149.3895426
21
-188.3696641
0
LINE
8
0
10
149.1816651
20
-188.36287
11
111.8689205
21
-185.846307
0
LINE
8
0
10
111.6963299
20
-185.8296444
11
98.6071372
21
-184.1829395
0
LINE
8
0
10
98.1752293
20
-184.1600269
11
67.1811471
21
-184.7535736
0
LINE
8
0
10
66.8867997
20
-184.7737208
11
48.384526
21
-186.9584171
0
LINE
8
0
10
18.3449603
20
-187.3244199
11
48.067609
21
-186.9789116
0
LINE
8
0
10
15.7614988
20
-185.9072424
11
5.3495712
21
-169.14027
0
LINE
8
0
10
4.8983646
20
-167.592521
11
4.1784004
21
-105.657012
0
ARC
8
0
10
17.5390435
20
-62.5503583
40
3
50
90.6659982
51
166.4745651
0
ARC
8
0
10
27.5837315
20
-56.4331893
40
3
50
270.6659982
51
273.4954573
0
ARC
8
0
10
67.9309518
20
-59.979841
40
3
50
92.3367284
51
93.4954573
0
ARC
8
0
10
88.7988497
20
-59.1282999
40
3
50
85.8999797
51
92.3367284
0
ARC
8
0
10
110.0570768
20
-54.6367212
40
3
50
265.8999797
51
267.2208212
0
ARC
8
0
10
140.8333277
20
-62.1377864
40
3
50
49.0620206
51
87.2208212
0
ARC
8
0
10
149.1830743
20
-61.4376482
40
3
50
229.0620206
51
270.2489223
0
ARC
8
0
10
158.9832785
20
-61.395071
40
3
50
270.2489223
51
311.2699753
0
ARC
8
0
10
167.3408504
20
-62.0433853
40
3
50
93.1196404
51
131.2699753
0
ARC
8
0
10
197.4497061
20
-54.3934926
40
3
50
273.1196404
51
275.3367306
0
ARC
8
0
10
218.774897
20
-58.4275469
40
3
50
88.8999795
51
95.3367306
0
ARC
8
0
10
239.646758
20
-58.828314
40
3
50
87.3127826
51
88.8999795
0
ARC
8
0
10
279.9580992
20
-54.7137313
40
3
50
267.3127826
51
269.6659981
0
ARC
8
0
10
394.159565
20
-61.3795666
40
3
50
359.6659981
51
89.6659981
0
ARC
8
0
10
393.878873
20
-109.5301336
40
3
50
343.5913791
51
359.6659981
0
ARC
8
0
10
386.3581562
20
-135.069151
40
3
50
317.6660004
51
343.5913791
0
ARC
8
0
10
329.6515564
20
-197.3146464
40
3
50
248.4809773
51
317.6660004
0
ARC
8
0
10
291.0804277
20
-188.5558416
40
3
50
68.4809773
51
89.6659981
0
ARC
8
0
10
260.2344274
20
-182.375924
40
3
50
264.6093356
51
269.6659981
0
ARC
8
0
10
241.0857734
20
-186.5956455
40
3
50
84.6093356
51
89.8428604
0
ARC
8
0
10
210.0886653
20
-186.5106312
40
3
50
89.8428604
51
98.9130959
0
ARC
8
0
10
196.1659659
20
-182.62079
40
3
50
274.1904809
51
278.9130959
0
ARC
8
0
10
158.9079916
20
-185.3506194
40
3
50
270.1146031
51
274.1904809
0
ARC
8
0
10
149.383542
20
-185.3696701
40
3
50
266.1415194
51
270.1146031
0
ARC
8
0
10
112.0707974
20
-182.8531071
40
3
50
262.8294946
51
266.1415194
0
ARC
8
0
10
98.2326697
20
-187.1594769
40
3
50
82.8294946
51
91.0970979
0
ARC
8
0
10
67.2385875
20
-187.7530236
40
3
50
91.0970979
51
96.7341459
0
ARC
8
0
10
48.0327382
20
-183.9791143
40
3
50
270.6659982
51
276.7341459
0
ARC
8
0
10
18.3100895
20
-184.3246226
40
3
50
211.8393876
51
270.6659982
0
ARC
8
0
10
7.8981619
20
-167.5576502
40
3
50
180.6659982
51
211.8393876
0
ARC
8
0
10
7.1781977
20
-105.6221412
40
3
50
166.4745651
51
180.6659982
0
ENDSEC
0
EOF