0
SECTION
2
HEADER
9
$INSUNITS
70
4
0
ENDSEC
0
SECTION
2
TABLES
0
TABLE
2
LTYPE
0
LTYPE
72
65
70
64
2
CONTINUOUS
3
______
73
0
40
0
0
ENDTAB
0
TABLE
2
LAYER
0
ENDTAB
0
ENDSEC
0
SECTION
2
ENTITIES
0
LINE
8
0
10
11.756821
20
-103.819115
11
22.5927728
21
-60.7261328
0
LINE
8
0
10
25.4673306
20
-58.4579263
11
36.6064086
21
-58.3284411
0
LINE
8
0
10
36.7543704
20
-58.3230673
11
76.7532333
21
-55.8808276
0
LINE
8
0
10
76.8138861
20
-55.8777401
11
97.6993232
21
-55.0264404
0
LINE
8
0
10
98.0358986
20
-55.0316221
11
118.8823972
21
-56.5252398
0
LINE
8
0
10
118.9520341
20
-56.529416
11
151.0795246
21
-58.0814683
0
LINE
8
0
10
152.8150738
20
-58.7403591
11
157.7779057
21
-62.7323139
0
LINE
8
0
10
159.6727408
20
-63.394664
11
166.5146676
21
-63.3615325
0
LINE
8
0
10
168.3939618
20
-62.6882478
11
173.3388503
21
-58.6633127
0
LINE
8
0
10
175.0701365
20
-57.9943989
11
206.5655504
21
-56.2855185
0
LINE
8
0
10
206.6819051
20
-56.2769333
11
227.4663064
21
-54.3363424
0
LINE
8
0
10
227.8026916
20
-54.323902
11
248.6921052
21
-54.724323
0
LINE
8
0
10
248.7751959
20
-54.7270679
11
288.8227011
21
-56.6058395
0
LINE
8
0
10
288.9457989
20
-56.6090844
11
404.1822576
21
-57.2808513
0
LINE
8
0
10
407.1647184
20
-60.2982885
11
406.8723345
21
-110.4545027
0
LINE
8
0
10
406.753328
20
-111.2737763
11
399.6472208
21
-135.7398587
0
LINE
8
0
10
340.947172
20
-200.6290769
11
398.9839731
21
-136.9234508
0
LINE
8
0
10
337.605289
20
-201.3901256
11
301.1849301
21
-186.669732
0
LINE
8
0
10
269.2106359
20
-186.2712441
11
300.0782301
21
-186.4511856
0
LINE
8
0
10
268.9460191
20
-186.2580018
11
250.380213
21
-184.5043953
0
LINE
8
0
10
250.1034234
20
-184.4911067
11
218.1554179
21
-184.4345016
0
LINE
8
0
10
217.6243755
20
-184.4809209
11
206.7085602
21
-186.4239008
0
LINE
8
0
10
206.3961666
20
-186.46273
11
166.1732505
21
-189.3302868
0
LINE
8
0
10
165.9641121
20
-189.3378787
11
160.3426935
21
-189.3457394
0
LINE
8
0
10
160.142508
20
-189.3393334
11
119.8558477
21
-186.7017651
0
LINE
8
0
10
119.6288101
20
-186.6781988
11
108.6049695
21
-185.1080455
0
LINE
8
0
10
108.1283799
20
-185.0785485
11
76.1768162
21
-185.6490973
0
LINE
8
0
10
75.8782757
20
-185.6693534
11
57.3956966
21
-187.8537016
0
LINE
8
0
10
26.3187039
20
-188.2317974
11
57.0784655
21
-187.8742331
0
LINE
8
0
10
23.7657558
20
-186.8627321
11
12.8908436
21
-170.0703536
0
LINE
8
0
10
12.4091237
20
-168.4744924
11
11.6664523
21
-104.5855767
0
ARC
8
0
10
25.5022014
20
-61.4577236
40
3
50
90.6659982
51
165.8853135
0
ARC
8
0
10
36.5715378
20
-55.3286438
40
3
50
270.6659982
51
273.4940105
0
ARC
8
0
10
76.9360659
20
-58.8752511
40
3
50
92.3341079
51
93.4940105
0
ARC
8
0
10
97.821503
20
-58.0239514
40
3
50
85.9018522
51
92.3341079
0
ARC
8
0
10
119.0967928
20
-53.5329105
40
3
50
265.9018522
51
267.2342386
0
ARC
8
0
10
150.9347659
20
-61.0779738
40
3
50
51.1878332
51
87.2342386
0
ARC
8
0
10
159.6582136
20
-60.3946992
40
3
50
231.1878332
51
270.2774502
0
ARC
8
0
10
166.5001404
20
-60.3615677
40
3
50
270.2774502
51
309.1441656
0
ARC
8
0
10
175.2326717
20
-60.9899927
40
3
50
93.1057142
51
129.1441656
0
ARC
8
0
10
206.4030152
20
-53.2899247
40
3
50
273.1057142
51
275.3341069
0
ARC
8
0
10
227.7451963
20
-57.323351
40
3
50
88.9018534
51
95.3341069
0
ARC
8
0
10
248.6346099
20
-57.723772
40
3
50
87.3140216
51
88.9018534
0
ARC
8
0
10
288.9632871
20
-53.6091354
40
3
50
267.3140216
51
269.6659981
0
ARC
8
0
10
404.1647694
20
-60.2808003
40
3
50
359.6659981
51
89.6659981
0
ARC
8
0
10
403.8723855
20
-110.4370145
40
3
50
343.8042072
51
359.6659981
0
ARC
8
0
10
396.7662783
20
-134.9030969
40
3
50
317.6660004
51
343.8042072
0
ARC
8
0
10
338.7294772
20
-198.608723
40
3
50
247.9924103
51
317.6660004
0
ARC
8
0
10
300.0607419
20
-189.4511346
40
3
50
67.9924103
51
89.6659981
0
ARC
8
0
10
269.2281241
20
-183.2712951
40
3
50
264.6042193
51
269.6659981
0
ARC
8
0
10
250.098108
20
-187.491102
40
3
50
84.6042193
51
89.8984833
0
ARC
8
0
10
218.1501025
20
-187.4344969
40
3
50
89.8984833
51
100.0927591
0
ARC
8
0
10
206.1828333
20
-183.4703247
40
3
50
274.0778076
51
280.0927591
0
ARC
8
0
10
165.9599172
20
-186.3378816
40
3
50
270.0801167
51
274.0778076
0
ARC
8
0
10
160.3384986
20
-186.3457423
40
3
50
266.2541875
51
270.0801167
0
ARC
8
0
10
120.0518383
20
-183.708174
40
3
50
261.8937403
51
266.2541875
0
ARC
8
0
10
108.1819413
20
-188.0780703
40
3
50
81.8937403
51
91.0230017
0
ARC
8
0
10
76.2303776
20
-188.6486191
40
3
50
91.0230017
51
96.740186
0
ARC
8
0
10
57.0435947
20
-184.8744358
40
3
50
270.6659982
51
276.740186
0
ARC
8
0
10
26.2838331
20
-185.2320001
40
3
50
212.9274952
51
270.6659982
0
ARC
8
0
10
15.408921
20
-168.4396216
40
3
50
180.6659982
51
212.9274952
0
ARC
8
0
10
14.6662496
20
-104.5507059
40
3
50
165.8853135
51
180.6659982
0
ENDSEC
0
EOF