0
SECTION
2
HEADER
9
$INSUNITS
70
4
0
ENDSEC
0
SECTION
2
TABLES
0
TABLE
2
LTYPE
0
LTYPE
72
65
70
64
2
CONTINUOUS
3
______
73
0
40
0
0
ENDTAB
0
TABLE
2
LAYER
0
ENDTAB
0
ENDSEC
0
SECTION
2
ENTITIES
0
LINE
8
0
10
11.4559825
20
-103.8527415
11
22.4167395
21
-60.7913349
0
LINE
8
0
10
25.2978568
20
-58.5314661
11
36.4372635
21
-58.4342539
0
LINE
8
0
10
36.5852403
20
-58.4293088
11
76.591014
21
-56.1029656
0
LINE
8
0
10
76.6516755
20
-56.1000539
11
97.539488
21
-55.3092681
0
LINE
8
0
10
97.8760469
20
-55.3154249
11
118.7208859
21
-56.8696391
0
LINE
8
0
10
118.7850028
20
-56.8737298
11
150.8110953
21
-58.5729357
0
LINE
8
0
10
152.5493787
20
-59.2448209
11
158.3048327
21
-63.943568
0
LINE
8
0
10
158.3048327
20
-63.943568
11
159.5497404
21
-63.9349303
0
LINE
8
0
10
159.5497404
20
-63.9349303
11
165.3086186
21
-59.2333878
0
LINE
8
0
10
167.0389226
20
-58.5619366
11
198.5317972
21
-56.8068832
0
LINE
8
0
10
198.6481396
20
-56.7981274
11
219.4296719
21
-54.827067
0
LINE
8
0
10
219.7660385
20
-54.8141334
11
240.6560183
21
-55.1839279
0
LINE
8
0
10
240.7391133
20
-55.186551
11
280.7893298
21
-57.0066086
0
LINE
8
0
10
280.9124324
20
-57.009673
11
396.1497511
21
-57.512494
0
LINE
8
0
10
399.1366326
20
-60.5255553
11
398.9172736
21
-110.798617
0
LINE
8
0
10
398.8546902
20
-111.3952414
11
393.8004256
21
-135.7448996
0
LINE
8
0
10
335.1927572
20
-200.8852344
11
393.0836919
21
-137.1522858
0
LINE
8
0
10
331.9078403
20
-201.6730128
11
293.317403
21
-187.0305413
0
LINE
8
0
10
261.3673836
20
-186.7006263
11
292.2662303
21
-186.8354487
0
LINE
8
0
10
261.1027476
20
-186.6877719
11
242.5343924
21
-184.9613864
0
LINE
8
0
10
242.2575836
20
-184.9485035
11
210.353095
21
-184.9387499
0
LINE
8
0
10
209.7373813
20
-185.0024213
11
201.0047157
21
-186.8308317
0
LINE
8
0
10
200.6076393
20
-186.8865924
11
160.32775
21
-189.8175708
0
LINE
8
0
10
160.32775
20
-189.8175708
11
157.5268232
21
-189.8262086
0
LINE
8
0
10
157.5268232
20
-189.8262086
11
117.1782644
21
-186.8902334
0
LINE
8
0
10
116.9161451
20
-186.8595213
11
108.0918623
21
-185.4297004
0
LINE
8
0
10
107.5671518
20
-185.3914131
11
75.6386256
21
-185.8690208
0
LINE
8
0
10
75.3400278
20
-185.8884119
11
56.8511988
21
-188.0192023
0
LINE
8
0
10
25.7732402
20
-188.3072591
11
56.5339095
21
-188.0388148
0
LINE
8
0
10
23.2242693
20
-186.930803
11
12.3980546
21
-170.1069879
0
LINE
8
0
10
11.9209601
20
-168.5097377
11
11.3633935
21
-104.618938
0
ARC
8
0
10
25.3240363
20
-61.5313519
40
3
50
90.499998
51
165.7193163
0
ARC
8
0
10
36.411084
20
-55.4343681
40
3
50
270.499998
51
273.3280112
0
ARC
8
0
10
76.7651703
20
-59.0979063
40
3
50
92.1681085
51
93.3280112
0
ARC
8
0
10
97.6529828
20
-58.3071205
40
3
50
85.7358544
51
92.1681085
0
ARC
8
0
10
118.94395
20
-53.8779435
40
3
50
265.7358544
51
266.9629099
0
ARC
8
0
10
150.6521481
20
-61.568722
40
3
50
50.7718333
51
86.9629099
0
ARC
8
0
10
167.2058492
20
-61.5572889
40
3
50
93.1897105
51
129.2281667
0
ARC
8
0
10
198.3648706
20
-53.8115309
40
3
50
273.1897105
51
275.4181107
0
ARC
8
0
10
219.7129409
20
-57.8136635
40
3
50
88.9858576
51
95.4181107
0
ARC
8
0
10
240.6029208
20
-58.183458
40
3
50
87.3980206
51
88.9858576
0
ARC
8
0
10
280.9255223
20
-54.0097016
40
3
50
267.3980206
51
269.7500005
0
ARC
8
0
10
396.1366612
20
-60.5124654
40
3
50
359.7500005
51
89.7500005
0
ARC
8
0
10
395.9173022
20
-110.7855271
40
3
50
348.273621
51
359.7500005
0
ARC
8
0
10
390.8630375
20
-135.1351853
40
3
50
317.7499993
51
348.273621
0
ARC
8
0
10
332.9721029
20
-198.868134
40
3
50
249.2216193
51
317.7499993
0
ARC
8
0
10
292.2531404
20
-189.8354201
40
3
50
69.2216193
51
89.7500005
0
ARC
8
0
10
261.3804735
20
-183.7006549
40
3
50
264.6882204
51
269.7500005
0
ARC
8
0
10
242.2566665
20
-187.9485034
40
3
50
84.6882204
51
89.9824847
0
ARC
8
0
10
210.3521779
20
-187.9387498
40
3
50
89.9824847
51
101.8255298
0
ARC
8
0
10
200.3899191
20
-183.8945032
40
3
50
274.1618082
51
281.8255298
0
ARC
8
0
10
117.3959846
20
-183.8981442
40
3
50
260.7962092
51
265.8381918
0
ARC
8
0
10
107.6120228
20
-188.3910775
40
3
50
80.7962092
51
90.857005
0
ARC
8
0
10
75.6834966
20
-188.8686852
40
3
50
90.857005
51
96.5741872
0
ARC
8
0
10
56.50773
20
-185.038929
40
3
50
270.499998
51
276.5741872
0
ARC
8
0
10
25.7470607
20
-185.3073733
40
3
50
212.7614972
51
270.499998
0
ARC
8
0
10
14.9208459
20
-168.4835582
40
3
50
180.499998
51
212.7614972
0
ARC
8
0
10
14.3632793
20
-104.5927585
40
3
50
165.7193163
51
180.499998
0
ENDSEC
0
EOF