0
SECTION
2
HEADER
9
$INSUNITS
70
4
0
ENDSEC
0
SECTION
2
TABLES
0
TABLE
2
LTYPE
0
LTYPE
72
65
70
64
2
CONTINUOUS
3
______
73
0
40
0
0
ENDTAB
0
TABLE
2
LAYER
0
ENDTAB
0
ENDSEC
0
SECTION
2
ENTITIES
0
LINE
8
0
10
8.027179
20
-102.1534911
11
17.8307833
21
-60.6377249
0
LINE
8
0
10
20.6065478
20
-58.3306424
11
32.801519
21
-57.7448759
0
LINE
8
0
10
32.9148593
20
-57.7372786
11
74.8481627
21
-54.1278572
0
LINE
8
0
10
74.9264345
20
-54.1221502
11
95.7655968
21
-52.8765089
0
LINE
8
0
10
96.1024452
20
-52.8753192
11
116.9665699
21
-53.9746114
0
LINE
8
0
10
117.0149251
20
-53.9767681
11
152.2178413
21
-55.2624185
0
LINE
8
0
10
153.9052612
20
-55.8581056
11
159.4162061
21
-59.9802451
0
LINE
8
0
10
161.2130239
20
-60.5779309
11
167.175366
21
-60.5781143
0
LINE
8
0
10
168.9513366
20
-59.9960176
11
174.5219799
21
-55.904546
0
LINE
8
0
10
176.1866583
20
-55.3245109
11
210.7939504
21
-54.0408552
0
LINE
8
0
10
210.8617534
20
-54.0375717
11
231.7062041
21
-52.7916144
0
LINE
8
0
10
232.0430525
20
-52.7904247
11
252.8921573
21
-53.8889253
0
LINE
8
0
10
252.9704654
20
-53.8940791
11
294.9564078
21
-57.2094122
0
LINE
8
0
10
295.0199868
20
-57.2137536
11
315.9885571
21
-58.4219686
0
LINE
8
0
10
316.0408012
20
-58.4254366
11
336.9907576
21
-59.9998448
0
LINE
8
0
10
337.0429333
20
-60.004224
11
357.9634772
21
-61.9441363
0
LINE
8
0
10
358.0130834
20
-61.9491524
11
416.7867303
21
-68.3859136
0
LINE
8
0
10
419.4422986
20
-71.6946833
11
414.0184751
21
-121.2192626
0
LINE
8
0
10
414.2186443
20
-122.6685731
11
421.4333962
21
-140.5462476
0
LINE
8
0
10
420.8365094
20
-143.7245064
11
389.6306891
21
-176.8972705
0
LINE
8
0
10
388.60752
20
-177.6075643
11
346.7707078
21
-195.183411
0
LINE
8
0
10
345.0747487
20
-195.3696569
11
302.3131556
21
-187.6343409
0
LINE
8
0
10
301.9492187
20
-187.5912546
11
287.6571845
21
-186.7796941
0
LINE
8
0
10
287.6045327
20
-186.7771681
11
268.9815796
21
-186.0476657
0
LINE
8
0
10
268.7169343
20
-186.0255354
11
250.2049628
21
-183.6485437
0
LINE
8
0
10
249.994988
20
-183.6290547
11
231.4765126
21
-182.5649766
0
LINE
8
0
10
231.1401562
20
-182.5645365
11
193.1620539
21
-184.6470783
0
LINE
8
0
10
193.131591
20
-184.6489042
11
164.1409046
21
-186.5345912
0
LINE
8
0
10
164.1409046
20
-186.5345912
11
162.5342171
21
-186.5410566
0
LINE
8
0
10
162.5342171
20
-186.5410566
11
119.1227197
21
-183.836728
0
LINE
8
0
10
118.9419316
20
-183.8199609
11
110.1287618
21
-182.7327195
0
LINE
8
0
10
109.6548008
20
-182.7120445
11
76.7376581
21
-183.8829774
0
LINE
8
0
10
76.4355914
20
-183.9090529
11
57.9910435
21
-186.4455616
0
LINE
8
0
10
57.7266152
20
-186.4700615
11
39.0846208
21
-187.3676999
0
LINE
8
0
10
39.0846208
20
-187.3676999
11
26.1923812
21
-187.9869586
0
LINE
8
0
10
23.6236795
20
-186.7569079
11
11.6804879
21
-170.3631622
0
LINE
8
0
10
11.1087101
20
-168.740602
11
7.9503326
21
-102.9868882
0
ARC
8
0
10
20.7504821
20
-61.3271876
40
3
50
92.7499983
51
166.7134719
0
ARC
8
0
10
32.6575847
20
-54.7483307
40
3
50
272.7499983
51
274.9196256
0
ARC
8
0
10
75.1054373
20
-57.1168051
40
3
50
93.4207335
51
94.9196256
0
ARC
8
0
10
95.9445996
20
-55.8711638
40
3
50
86.9839786
51
93.4207335
0
ARC
8
0
10
117.1244155
20
-50.9787668
40
3
50
266.9839786
51
267.9084229
0
ARC
8
0
10
152.1083509
20
-58.2604198
40
3
50
53.2038283
51
87.9084229
0
ARC
8
0
10
161.2131163
20
-57.5779309
40
3
50
233.2038283
51
269.9982353
0
ARC
8
0
10
167.1754584
20
-57.5781143
40
3
50
269.9982353
51
306.2961763
0
ARC
8
0
10
176.2978581
20
-58.3224493
40
3
50
92.1242464
51
126.2961763
0
ARC
8
0
10
210.6827506
20
-51.0429168
40
3
50
272.1242464
51
273.4207335
0
ARC
8
0
10
231.8852069
20
-55.7862693
40
3
50
86.9839786
51
93.4207335
0
ARC
8
0
10
252.7343117
20
-56.8847699
40
3
50
85.4851255
51
86.9839786
0
ARC
8
0
10
295.1925615
20
-54.2187214
40
3
50
265.4851255
51
266.7022456
0
ARC
8
0
10
315.8159824
20
-61.4170008
40
3
50
85.7022482
51
86.7022456
0
ARC
8
0
10
336.7659388
20
-62.991409
40
3
50
84.702249
51
85.7022482
0
ARC
8
0
10
357.6864827
20
-64.9313214
40
3
50
83.7499983
51
84.702249
0
ARC
8
0
10
416.4601296
20
-71.3680826
40
3
50
353.7499983
51
83.7499983
0
ARC
8
0
10
417.0006441
20
-121.5458633
40
3
50
173.7499983
51
201.977137
0
ARC
8
0
10
418.6513964
20
-141.6689574
40
3
50
316.7500008
51
21.977137
0
ARC
8
0
10
387.4455762
20
-174.8417215
40
3
50
292.7875091
51
316.7500008
0
ARC
8
0
10
345.608764
20
-192.4175682
40
3
50
259.7464163
51
292.7875091
0
ARC
8
0
10
301.7791403
20
-190.5864296
40
3
50
79.7464163
51
86.7499994
0
ARC
8
0
10
287.4871061
20
-189.7748691
40
3
50
86.7499994
51
87.7567442
0
ARC
8
0
10
269.0990062
20
-183.0499647
40
3
50
262.6830926
51
267.7567442
0
ARC
8
0
10
249.8228909
20
-186.6241144
40
3
50
82.6830926
51
86.711382
0
ARC
8
0
10
231.3044155
20
-185.5600363
40
3
50
86.711382
51
93.1386912
0
ARC
8
0
10
193.3263132
20
-187.6425781
40
3
50
93.1386912
51
93.7215363
0
ARC
8
0
10
119.3092438
20
-180.8425322
40
3
50
262.9672069
51
266.435353
0
ARC
8
0
10
109.7614496
20
-185.7101482
40
3
50
82.9672069
51
92.0372713
0
ARC
8
0
10
76.8443069
20
-186.8810811
40
3
50
92.0372713
51
97.8302422
0
ARC
8
0
10
57.582328
20
-183.4735333
40
3
50
272.7567442
51
277.8302422
0
ARC
8
0
10
26.0484469
20
-184.9904134
40
3
50
216.0741322
51
272.7499983
0
ARC
8
0
10
14.1052553
20
-168.5966677
40
3
50
182.7499983
51
216.0741322
0
ARC
8
0
10
10.9468778
20
-102.8429539
40
3
50
166.7134719
51
182.7499983
0
ENDSEC
0
EOF