<?xml version="1.0"?>
<svg
  xmlns="http://www.w3.org/2000/svg"
  xmlns:xlink="http://www.w3.org/1999/xlink" version="1.1"
  preserveAspectRatio="xMinYMin meet"
  viewBox="13.1762103 55.322039 392.98855910000003 145.0615722"
  width="100%" height="100%"
>
  <g stroke="#000000" stroke-width="0.1%" fill="none" transform="matrix(1,0,0,-1,0,0)">
    <g stroke="rgb(0, 0, 0)"><path d="M13.2316779,-104.9369255L23.8037333,-60.9871093" /></g>
<g stroke="rgb(0, 0, 0)"><path d="M25.7250185,-59.4549984L36.6426895,-59.3280868" /></g>
<g stroke="rgb(0, 0, 0)"><path d="M36.7413811,-59.3245012L76.7575324,-56.8801927" /></g>
<g stroke="rgb(0, 0, 0)"><path d="M76.7979267,-56.8781351L97.7321084,-56.0238893" /></g>
<g stroke="rgb(0, 0, 0)"><path d="M97.9566486,-56.0273447L118.8534746,-57.5252551" /></g>
<g stroke="rgb(0, 0, 0)"><path d="M118.8994966,-57.5280212L150.3236516,-59.0534727" /></g>
<g stroke="rgb(0, 0, 0)"><path d="M151.5371614,-59.5402817L156.5005862,-63.8454971" /></g>
<g stroke="rgb(0, 0, 0)"><path d="M157.8197586,-64.3346396L168.3697945,-64.2888048" /></g>
<g stroke="rgb(0, 0, 0)"><path d="M169.6803213,-63.7920435L174.621322,-59.4558534" /></g>
<g stroke="rgb(0, 0, 0)"><path d="M175.8316956,-58.962037L206.6316826,-57.283381" /></g>
<g stroke="rgb(0, 0, 0)"><path d="M206.7088582,-57.2776754L227.5512497,-55.3307084" /></g>
<g stroke="rgb(0, 0, 0)"><path d="M227.7756631,-55.3224076L248.7175943,-55.7245203" /></g>
<g stroke="rgb(0, 0, 0)"><path d="M248.7729659,-55.726351L288.8373551,-57.6067826" /></g>
<g stroke="rgb(0, 0, 0)"><path d="M288.9194635,-57.6089479L404.1764282,-58.2808343" /></g>
<g stroke="rgb(0, 0, 0)"><path d="M406.1647354,-60.2924591L405.8773909,-109.5842116" /></g>
<g stroke="rgb(0, 0, 0)"><path d="M405.7959679,-110.1375244L398.1703394,-136.0328031" /></g>
<g stroke="rgb(0, 0, 0)"><path d="M340.4130207,-199.7305138L397.7302596,-136.8147341" /></g>
<g stroke="rgb(0, 0, 0)"><path d="M338.1844838,-200.2376311L302.013536,-185.604092" /></g>
<g stroke="rgb(0, 0, 0)"><path d="M269.1721753,-185.2710029L301.2751212,-185.4581459" /></g>
<g stroke="rgb(0, 0, 0)"><path d="M268.9959419,-185.2621915L250.3215035,-183.5000073" /></g>
<g stroke="rgb(0, 0, 0)"><path d="M250.1390965,-183.4911694L219.0169665,-183.4058123" /></g>
<g stroke="rgb(0, 0, 0)"><path d="M218.7016089,-183.4299559L205.5894291,-185.4863397" /></g>
<g stroke="rgb(0, 0, 0)"><path d="M205.4257017,-185.5051441L168.091112,-188.2405869" /></g>
<g stroke="rgb(0, 0, 0)"><path d="M167.9489674,-188.2459296L158.3542492,-188.2651208" /></g>
<g stroke="rgb(0, 0, 0)"><path d="M158.2156642,-188.2605914L120.8394668,-185.7397489" /></g>
<g stroke="rgb(0, 0, 0)"><path d="M120.7244064,-185.7286405L107.5348212,-184.0693055" /></g>
<g stroke="rgb(0, 0, 0)"><path d="M107.2468826,-184.0540303L76.1313155,-184.6499035" /></g>
<g stroke="rgb(0, 0, 0)"><path d="M75.9350839,-184.663335L57.3312794,-186.8600198" /></g>
<g stroke="rgb(0, 0, 0)"><path d="M26.7806134,-187.2263604L57.1200014,-186.8736828" /></g>
<g stroke="rgb(0, 0, 0)"><path d="M25.0583057,-186.2815754L14.2018033,-168.7986769" /></g>
<g stroke="rgb(0, 0, 0)"><path d="M13.900999,-167.7668442L13.1763454,-105.4279267" /></g>
<g stroke="rgb(0, 0, 0)"><path d="M 25.72501850070782 -59.45499841263259 A 2 2 0 0 1 23.803733314236013 -60.98710930406302" /></g>
<g stroke="rgb(0, 0, 0)"><path d="M 36.64268949929218 -59.32808678736741 A 2 2 0 0 1 36.74138110430754 -59.32450117104503" /></g>
<g stroke="rgb(0, 0, 0)"><path d="M 76.79792670133189 -56.87813507184497 A 2 2 0 0 1 76.75753249569246 -56.880192728954974" /></g>
<g stroke="rgb(0, 0, 0)"><path d="M 97.95664859545558 -56.02734468480159 A 2 2 0 0 1 97.73210840133189 -56.02388927184497" /></g>
<g stroke="rgb(0, 0, 0)"><path d="M 118.85347460454443 -57.525255115198405 A 2 2 0 0 1 118.89949659613647 -57.52802124664685" /></g>
<g stroke="rgb(0, 0, 0)"><path d="M 151.53716139816757 -59.540281704011946 A 2 2 0 0 1 150.3236516038635 -59.05347265335315" /></g>
<g stroke="rgb(0, 0, 0)"><path d="M 156.50058620183242 -63.84549709598806 A 2 2 0 0 1 157.81975860009936 -64.33463962523025" /></g>
<g stroke="rgb(0, 0, 0)"><path d="M 168.36979450009937 -64.28880482523026 A 2 2 0 0 1 169.6803212850213 -63.79204348185181" /></g>
<g stroke="rgb(0, 0, 0)"><path d="M 175.83169560433407 -58.962036951994 A 2 2 0 0 1 174.6213220149787 -59.455853318148186" /></g>
<g stroke="rgb(0, 0, 0)"><path d="M 206.63168259566592 -57.283380948006 A 2 2 0 0 1 206.70885819512188 -57.27767535515603" /></g>
<g stroke="rgb(0, 0, 0)"><path d="M 227.7756631002525 -55.32240758949424 A 2 2 0 0 1 227.55124970487813 -55.33070844484397" /></g>
<g stroke="rgb(0, 0, 0)"><path d="M 248.7729658974988 -55.726350981040966 A 2 2 0 0 1 248.7175943002525 -55.724520289494244" /></g>
<g stroke="rgb(0, 0, 0)"><path d="M 288.83735510250125 -57.60678261895904 A 2 2 0 0 1 288.91946350030656 -57.608947917808734" /></g>
<g stroke="rgb(0, 0, 0)"><path d="M 406.16473541780874 -60.29245909969346 A 2 2 0 0 1 404.1764281996935 -58.28083428219127" /></g>
<g stroke="rgb(0, 0, 0)"><path d="M 405.7959678634266 -110.13752438998148 A 2 2 0 0 1 405.8773909178087 -109.58421159969346" /></g>
<g stroke="rgb(0, 0, 0)"><path d="M 397.730259591625 -136.8147340915076 A 2 2 0 0 1 398.1703393634266 -136.03280308998148" /></g>
<g stroke="rgb(0, 0, 0)"><path d="M 338.1844838844497 -200.23763104111694 A 2 2 0 0 1 340.413020691625 -199.7305137915076" /></g>
<g stroke="rgb(0, 0, 0)"><path d="M 302.01353601555024 -185.60409205888305 A 2 2 0 0 1 301.27512119969344 -185.45814588219127" /></g>
<g stroke="rgb(0, 0, 0)"><path d="M 268.9959419035353 -185.26219147021993 A 2 2 0 0 1 269.17217530030655 -185.27100291780874" /></g>
<g stroke="rgb(0, 0, 0)"><path d="M 250.32150349646471 -183.5000073297801 A 2 2 0 0 1 250.13909649993406 -183.49116942186873" /></g>
<g stroke="rgb(0, 0, 0)"><path d="M 219.01696649993406 -183.40581232186872 A 2 2 0 0 1 218.70160890628492 -183.42995584332004" /></g>
<g stroke="rgb(0, 0, 0)"><path d="M 205.42570170530513 -185.5051440624555 A 2 2 0 0 1 205.5894290937151 -185.48633975667997" /></g>
<g stroke="rgb(0, 0, 0)"><path d="M 167.9489674001885 -188.2459295991956 A 2 2 0 0 1 168.09111200530512 -188.2405868624555" /></g>
<g stroke="rgb(0, 0, 0)"><path d="M 158.21566419855014 -188.26059140835318 A 2 2 0 0 1 158.35424920018852 -188.26512079919559" /></g>
<g stroke="rgb(0, 0, 0)"><path d="M 120.72440640344752 -185.7286404772695 A 2 2 0 0 1 120.83946679855013 -185.7397489083532" /></g>
<g stroke="rgb(0, 0, 0)"><path d="M 107.53482119655247 -184.0693055227305 A 2 2 0 0 1 107.24688259898146 -184.0540303335748" /></g>
<g stroke="rgb(0, 0, 0)"><path d="M 76.13131549898146 -184.6499035335748 A 2 2 0 0 1 75.93508389056412 -184.6633350154628" /></g>
<g stroke="rgb(0, 0, 0)"><path d="M 57.12000139929218 -186.87368278736741 A 2 2 0 0 1 57.33127940943589 -186.8600197845372" /></g>
<g stroke="rgb(0, 0, 0)"><path d="M 25.058305720076753 -186.28157534795605 A 2 2 0 0 1 26.78061339929218 -187.2263603873674" /></g>
<g stroke="rgb(0, 0, 0)"><path d="M 13.900999012632587 -167.76684419929217 A 2 2 0 0 1 14.201803420076752 -168.79867684795605" /></g>
<g stroke="rgb(0, 0, 0)"><path d="M 13.23167791423601 -104.93692550406303 A 2 2 0 0 1 13.176345412632587 -105.42792669929219" /></g>
  </g>
</svg>