0
SECTION
2
HEADER
9
$INSUNITS
70
4
0
ENDSEC
0
SECTION
2
TABLES
0
TABLE
2
LTYPE
0
LTYPE
72
65
70
64
2
CONTINUOUS
3
______
73
0
40
0
0
ENDTAB
0
TABLE
2
LAYER
0
ENDTAB
0
ENDSEC
0
SECTION
2
ENTITIES
0
LINE
8
0
10
12.4694341
20
-105.0302281
11
23.3603086
21
-61.158329
0
LINE
8
0
10
25.292667
20
-59.640208
11
36.2122791
21
-59.5925619
0
LINE
8
0
10
36.3083889
20
-59.5898313
11
77.1407823
21
-57.4465255
0
LINE
8
0
10
77.1845375
20
-57.4447088
11
98.922729
21
-56.7805022
0
LINE
8
0
10
99.1458004
20
-56.7861403
11
119.4295206
21
-58.4344379
0
LINE
8
0
10
119.4795381
20
-58.437872
11
149.8912196
21
-60.1431855
0
LINE
8
0
10
151.1006652
20
-60.6387645
11
156.0329106
21
-64.9800877
0
LINE
8
0
10
157.3484967
20
-65.4787952
11
167.8985873
21
-65.5095601
0
LINE
8
0
10
169.2126865
20
-65.0223268
11
174.1850396
21
-60.7221255
0
LINE
8
0
10
175.3989668
20
-60.2371099
11
206.2137768
21
-58.781959
0
LINE
8
0
10
206.2841202
20
-58.7773935
11
228.3456591
21
-56.9546202
0
LINE
8
0
10
228.5652393
20
-56.9485821
11
249.5069839
21
-57.5236185
0
LINE
8
0
10
249.5612501
20
-57.5258463
11
289.932435
21
-59.7326612
0
LINE
8
0
10
289.9892442
20
-59.7349572
11
405.2213121
21
-62.752415
0
LINE
8
0
10
407.1682727
20
-64.8040836
11
405.8788225
21
-114.0461958
0
LINE
8
0
10
405.7652861
20
-114.6600555
11
397.176243
21
-138.9721126
0
LINE
8
0
10
338.9483792
20
-202.2027963
11
396.75911
21
-139.6635003
0
LINE
8
0
10
336.7263828
20
-202.6978853
11
300.4735848
21
-187.9565674
0
LINE
8
0
10
299.7725872
20
-187.8099432
11
274.1352115
21
-187.1386049
0
LINE
8
0
10
274.0554917
20
-187.1381067
11
268.046925
21
-187.2203295
0
LINE
8
0
10
267.81685
20
-187.2102174
11
249.1826715
21
-185.3117828
0
LINE
8
0
10
249.0001911
20
-185.3015858
11
217.8777881
21
-184.9867891
0
LINE
8
0
10
217.5656808
20
-185.0080997
11
204.235484
21
-186.9745531
0
LINE
8
0
10
204.0752642
20
-186.9916279
11
166.7199592
21
-189.4560518
0
LINE
8
0
10
166.5777796
20
-189.4603623
11
156.9831763
21
-189.4098905
0
LINE
8
0
10
156.8446281
20
-189.4043551
11
119.4908161
21
-186.6124405
0
LINE
8
0
10
119.3696839
20
-186.5996674
11
106.5980195
21
-184.8582417
0
LINE
8
0
10
106.3048025
20
-184.8400379
11
74.9877311
21
-185.2004543
0
LINE
8
0
10
74.7932055
20
-185.2121882
11
55.9718034
21
-187.2716244
0
LINE
8
0
10
25.4205494
20
-187.4158663
11
55.7629886
21
-187.2834717
0
LINE
8
0
10
23.7051467
20
-186.4586013
11
12.9758653
21
-168.8973399
0
LINE
8
0
10
12.6825605
20
-167.8633506
11
12.4105381
21
-105.5208147
0
ARC
8
0
10
25.3013936
20
-61.640189
40
2
50
90.2499995
51
166.0585639
0
ARC
8
0
10
36.2035525
20
-57.5925809
40
2
50
270.2499995
51
273.0047188
0
ARC
8
0
10
77.2456187
20
-59.4437759
40
2
50
91.7501197
51
93.0047188
0
ARC
8
0
10
98.9838102
20
-58.7795693
40
2
50
85.3542336
51
91.7501197
0
ARC
8
0
10
119.5915108
20
-56.4410089
40
2
50
265.3542336
51
266.790543
0
ARC
8
0
10
149.779247
20
-62.1400486
40
2
50
48.6460229
51
86.790543
0
ARC
8
0
10
157.3543289
20
-63.4788037
40
2
50
228.6460229
51
269.8329195
0
ARC
8
0
10
167.9044195
20
-63.5095686
40
2
50
269.8329195
51
310.8539805
0
ARC
8
0
10
175.4933066
20
-62.2348837
40
2
50
92.7036394
51
130.8539805
0
ARC
8
0
10
206.119437
20
-56.7841852
40
2
50
272.7036394
51
274.7231736
0
ARC
8
0
10
228.5103423
20
-58.9478285
40
2
50
88.4271192
51
94.7231736
0
ARC
8
0
10
249.4520869
20
-59.5228649
40
2
50
86.8711498
51
88.4271192
0
ARC
8
0
10
290.0415982
20
-57.7356426
40
2
50
266.8711498
51
268.499997
0
ARC
8
0
10
405.1689581
20
-64.7517296
40
2
50
358.499997
51
88.499997
0
ARC
8
0
10
403.8795079
20
-113.9938418
40
2
50
340.5425401
51
358.499997
0
ARC
8
0
10
395.2904649
20
-138.3058988
40
2
50
317.2500015
51
340.5425401
0
ARC
8
0
10
337.4797342
20
-200.8451949
40
2
50
247.8720809
51
317.2500015
0
ARC
8
0
10
299.7202334
20
-189.8092578
40
2
50
67.8720809
51
88.5000027
0
ARC
8
0
10
274.0828577
20
-189.1379195
40
2
50
88.5000027
51
90.7840026
0
ARC
8
0
10
268.019559
20
-185.2205167
40
2
50
264.1828262
51
270.7840026
0
ARC
8
0
10
248.9799625
20
-187.3014835
40
2
50
84.1828262
51
89.4204834
0
ARC
8
0
10
217.8575595
20
-186.9866868
40
2
50
89.4204834
51
98.3916761
0
ARC
8
0
10
203.9436054
20
-184.995966
40
2
50
273.7744762
51
278.3916761
0
ARC
8
0
10
166.5883004
20
-187.46039
40
2
50
269.6985999
51
273.7744762
0
ARC
8
0
10
156.9936971
20
-187.4099182
40
2
50
265.7255236
51
269.6985999
0
ARC
8
0
10
119.6398851
20
-184.6180036
40
2
50
262.235563
51
265.7255236
0
ARC
8
0
10
106.3278183
20
-186.8399055
40
2
50
82.235563
51
90.6593686
0
ARC
8
0
10
75.0107469
20
-187.2003219
40
2
50
90.6593686
51
96.2444565
0
ARC
8
0
10
55.754262
20
-185.2834907
40
2
50
270.2499995
51
276.2444565
0
ARC
8
0
10
25.4118228
20
-185.4158853
40
2
50
211.4233863
51
270.2499995
0
ARC
8
0
10
14.6825415
20
-167.854624
40
2
50
180.2499995
51
211.4233863
0
ARC
8
0
10
14.4105191
20
-105.5120881
40
2
50
166.0585639
51
180.2499995
0
ENDSEC
0
EOF