0
SECTION
2
HEADER
9
$INSUNITS
70
4
0
ENDSEC
0
SECTION
2
TABLES
0
TABLE
2
LTYPE
0
LTYPE
72
65
70
64
2
CONTINUOUS
3
______
73
0
40
0
0
ENDTAB
0
TABLE
2
LAYER
0
ENDTAB
0
ENDSEC
0
SECTION
2
ENTITIES
0
LINE
8
0
10
12.2608586
20
-104.8275211
11
22.6217045
21
-61.7557383
0
LINE
8
0
10
25.5036323
20
-59.457572
11
35.6180619
21
-59.3399976
0
LINE
8
0
10
35.7660993
20
-59.3346192
11
75.7475031
21
-56.8924331
0
LINE
8
0
10
75.8080944
20
-56.8893465
11
96.6759924
21
-56.0378055
0
LINE
8
0
10
97.0128026
20
-56.0429886
11
117.842043
21
-57.5360544
0
LINE
8
0
10
117.911076
20
-57.5402036
11
148.9782477
21
-59.0483259
0
LINE
8
0
10
150.7985124
20
-59.7785395
11
155.2168088
21
-63.610917
0
LINE
8
0
10
157.1955674
20
-64.3446309
11
166.9957715
21
-64.3020536
0
LINE
8
0
10
168.9615617
20
-63.5569116
11
173.3614862
21
-59.6955665
0
LINE
8
0
10
175.1770466
20
-58.954842
11
205.612429
21
-57.2960577
0
LINE
8
0
10
205.7281924
20
-57.2874993
11
226.4953298
21
-55.347562
0
LINE
8
0
10
226.8319499
20
-55.3351107
11
247.7038109
21
-55.7358779
0
LINE
8
0
10
247.7868683
20
-55.7386239
11
287.816908
21
-57.6174434
0
LINE
8
0
10
287.9400706
20
-57.6206913
11
402.1765127
21
-58.2866286
0
LINE
8
0
10
405.1589735
20
-61.3040658
11
404.8782815
21
-109.4546327
0
LINE
8
0
10
404.756147
20
-110.2846019
11
397.2354302
21
-135.8236194
0
LINE
8
0
10
339.8687108
20
-199.2420113
11
396.5753106
21
-136.9965159
0
LINE
8
0
10
336.5505857
20
-200.0125449
11
300.1803176
21
-185.671965
0
LINE
8
0
10
268.2163988
20
-185.2828839
11
299.0973754
21
-185.4629035
0
LINE
8
0
10
267.9520487
20
-185.2696668
11
249.3670713
21
-183.5159245
0
LINE
8
0
10
249.0934608
20
-183.5026677
11
218.0963527
21
-183.4176534
0
LINE
8
0
10
217.6233163
20
-183.4538687
11
204.630234
21
-185.4915744
0
LINE
8
0
10
204.3846429
20
-185.5197809
11
167.1266686
21
-188.2496103
0
LINE
8
0
10
166.9134517
20
-188.2576244
11
157.3890021
21
-188.2766751
0
LINE
8
0
10
157.1811246
20
-188.269881
11
119.86838
21
-185.753318
0
LINE
8
0
10
119.6957894
20
-185.7366554
11
106.6065968
21
-184.0899504
0
LINE
8
0
10
106.1746889
20
-184.0670378
11
75.1806067
21
-184.6605846
0
LINE
8
0
10
74.8862593
20
-184.6807318
11
56.3839855
21
-186.865428
0
LINE
8
0
10
26.3444199
20
-187.2314309
11
56.0670685
21
-186.8859225
0
LINE
8
0
10
23.7609584
20
-185.8142534
11
13.3490307
21
-169.0472809
0
LINE
8
0
10
12.8978241
20
-167.4995319
11
12.17786
21
-105.5640229
0
ARC
8
0
10
25.5385031
20
-62.4573693
40
3
50
90.6659982
51
166.4745651
0
ARC
8
0
10
35.5831911
20
-56.3402003
40
3
50
270.6659982
51
273.4954573
0
ARC
8
0
10
75.9304113
20
-59.8868519
40
3
50
92.3367284
51
93.4954573
0
ARC
8
0
10
96.7983093
20
-59.0353109
40
3
50
85.8999797
51
92.3367284
0
ARC
8
0
10
118.0565364
20
-54.5437321
40
3
50
265.8999797
51
267.2208212
0
ARC
8
0
10
148.8327873
20
-62.0447974
40
3
50
49.0620206
51
87.2208212
0
ARC
8
0
10
157.1825339
20
-61.3446592
40
3
50
229.0620206
51
270.2489223
0
ARC
8
0
10
166.982738
20
-61.3020819
40
3
50
270.2489223
51
311.2699753
0
ARC
8
0
10
175.3403099
20
-61.9503962
40
3
50
93.1196404
51
131.2699753
0
ARC
8
0
10
205.4491657
20
-54.3005036
40
3
50
273.1196404
51
275.3367306
0
ARC
8
0
10
226.7743565
20
-58.3345578
40
3
50
88.8999795
51
95.3367306
0
ARC
8
0
10
247.6462175
20
-58.735325
40
3
50
87.3127826
51
88.8999795
0
ARC
8
0
10
287.9575588
20
-54.6207423
40
3
50
267.3127826
51
269.6659981
0
ARC
8
0
10
402.1590245
20
-61.2865776
40
3
50
359.6659981
51
89.6659981
0
ARC
8
0
10
401.8783325
20
-109.4371445
40
3
50
343.5913791
51
359.6659981
0
ARC
8
0
10
394.3576158
20
-134.976162
40
3
50
317.6660004
51
343.5913791
0
ARC
8
0
10
337.651016
20
-197.2216574
40
3
50
248.4809773
51
317.6660004
0
ARC
8
0
10
299.0798872
20
-188.4628525
40
3
50
68.4809773
51
89.6659981
0
ARC
8
0
10
268.233887
20
-182.2829349
40
3
50
264.6093356
51
269.6659981
0
ARC
8
0
10
249.085233
20
-186.5026564
40
3
50
84.6093356
51
89.8428604
0
ARC
8
0
10
218.0881249
20
-186.4176421
40
3
50
89.8428604
51
98.9130959
0
ARC
8
0
10
204.1654254
20
-182.527801
40
3
50
274.1904809
51
278.9130959
0
ARC
8
0
10
166.9074511
20
-185.2576304
40
3
50
270.1146031
51
274.1904809
0
ARC
8
0
10
157.3830015
20
-185.2766811
40
3
50
266.1415194
51
270.1146031
0
ARC
8
0
10
120.0702569
20
-182.7601181
40
3
50
262.8294946
51
266.1415194
0
ARC
8
0
10
106.2321293
20
-187.0664878
40
3
50
82.8294946
51
91.0970979
0
ARC
8
0
10
75.2380471
20
-187.6600346
40
3
50
91.0970979
51
96.7341459
0
ARC
8
0
10
56.0321977
20
-183.8861252
40
3
50
270.6659982
51
276.7341459
0
ARC
8
0
10
26.3095491
20
-184.2316336
40
3
50
211.8393876
51
270.6659982
0
ARC
8
0
10
15.8976214
20
-167.4646611
40
3
50
180.6659982
51
211.8393876
0
ARC
8
0
10
15.1776573
20
-105.5291521
40
3
50
166.4745651
51
180.6659982
0
ENDSEC
0
EOF