0
SECTION
2
HEADER
9
$INSUNITS
70
4
0
ENDSEC
0
SECTION
2
TABLES
0
TABLE
2
LTYPE
0
LTYPE
72
65
70
64
2
CONTINUOUS
3
______
73
0
40
0
0
ENDTAB
0
TABLE
2
LAYER
0
ENDTAB
0
ENDSEC
0
SECTION
2
ENTITIES
0
LINE
8
0
10
11.0966369
20
-104.0525185
11
19.8843399
21
-60.632456
0
LINE
8
0
10
22.6807895
20
-58.2310094
11
32.801519
21
-57.7448759
0
LINE
8
0
10
32.9148593
20
-57.7372786
11
74.8481627
21
-54.1278572
0
LINE
8
0
10
74.9264345
20
-54.1221502
11
95.7655968
21
-52.8765089
0
LINE
8
0
10
96.1024452
20
-52.8753192
11
116.9663257
21
-53.9745985
0
LINE
8
0
10
117.0151657
20
-53.9767729
11
150.1012236
21
-55.1797544
0
LINE
8
0
10
151.9546185
20
-55.9086361
11
156.3748773
21
-59.7313739
0
LINE
8
0
10
158.3315946
20
-60.4622312
11
170.0517149
21
-60.4844344
0
LINE
8
0
10
171.999922
20
-59.7706159
11
176.4724175
21
-55.9704142
0
LINE
8
0
10
178.3025758
20
-55.2586953
11
210.7945327
21
-54.0408466
0
LINE
8
0
10
210.8611699
20
-54.0376066
11
231.7062041
21
-52.7916144
0
LINE
8
0
10
232.0430525
20
-52.7904247
11
252.8921573
21
-53.8889253
0
LINE
8
0
10
252.9704654
20
-53.8940791
11
294.9564078
21
-57.2094122
0
LINE
8
0
10
295.0199868
20
-57.2137536
11
315.9885571
21
-58.4219686
0
LINE
8
0
10
316.0408012
20
-58.4254366
11
336.9907576
21
-59.9998448
0
LINE
8
0
10
337.0429333
20
-60.004224
11
357.9634772
21
-61.9441363
0
LINE
8
0
10
358.0130834
20
-61.9491524
11
414.7986176
21
-68.1681798
0
LINE
8
0
10
417.4541859
20
-71.4769495
11
412.2347729
21
-119.1350695
0
LINE
8
0
10
412.3564196
20
-120.3657787
11
418.7943358
21
-140.7347964
0
LINE
8
0
10
418.1189265
20
-143.6944539
11
389.5443131
21
-174.0701626
0
LINE
8
0
10
388.521144
20
-174.7804564
11
346.6510308
21
-192.370293
0
LINE
8
0
10
345.0207492
20
-192.567668
11
300.3974375
21
-185.514937
0
LINE
8
0
10
300.0991781
20
-185.4829798
11
287.7705417
21
-184.7829091
0
LINE
8
0
10
287.7179391
20
-184.7803851
11
269.0598072
21
-184.0491983
0
LINE
8
0
10
268.795743
20
-184.0271383
11
250.2484504
21
-181.6489824
0
LINE
8
0
10
250.0387621
20
-181.6295476
11
231.4850023
21
-180.5649682
0
LINE
8
0
10
231.149119
20
-180.5645298
11
193.109314
21
-182.6475557
0
LINE
8
0
10
193.0621936
20
-182.650508
11
168.1878099
21
-184.4056192
0
LINE
8
0
10
167.9678406
20
-184.4130463
11
158.7102594
21
-184.3858369
0
LINE
8
0
10
158.5215885
20
-184.3793426
11
121.1478949
21
-181.9137054
0
LINE
8
0
10
121.0702843
20
-181.9075729
11
108.095643
21
-180.7127701
0
LINE
8
0
10
107.7063696
20
-180.7023037
11
76.7073741
21
-181.8829239
0
LINE
8
0
10
76.4134608
20
-181.9086361
11
57.9296814
21
-184.4465618
0
LINE
8
0
10
57.6658314
20
-184.470978
11
38.9888798
21
-185.3699927
0
LINE
8
0
10
38.9885762
20
-185.3700073
11
28.1674717
21
-185.8897823
0
LINE
8
0
10
25.5341839
20
-184.5674888
11
14.519418
21
-168.1902324
0
LINE
8
0
10
14.0122263
20
-166.659915
11
11.0404756
21
-104.7915513
0
ARC
8
0
10
22.8247238
20
-61.2275546
40
3
50
92.7499983
51
168.5585652
0
ARC
8
0
10
32.6575847
20
-54.7483307
40
3
50
272.7499983
51
274.9196256
0
ARC
8
0
10
75.1054373
20
-57.1168051
40
3
50
93.4207335
51
94.9196256
0
ARC
8
0
10
95.9445996
20
-55.8711638
40
3
50
86.9839786
51
93.4207335
0
ARC
8
0
10
117.1241713
20
-50.9787539
40
3
50
266.9839786
51
267.9176881
0
ARC
8
0
10
149.992218
20
-58.1777734
40
3
50
49.1460195
51
87.9176881
0
ARC
8
0
10
158.3372778
20
-57.4622366
40
3
50
229.1460195
51
269.8914588
0
ARC
8
0
10
170.0573981
20
-57.4844398
40
3
50
269.8914588
51
310.3539764
0
ARC
8
0
10
178.4149414
20
-58.2565902
40
3
50
92.146527
51
130.3539764
0
ARC
8
0
10
210.6821671
20
-51.0429517
40
3
50
272.146527
51
273.4207335
0
ARC
8
0
10
231.8852069
20
-55.7862693
40
3
50
86.9839786
51
93.4207335
0
ARC
8
0
10
252.7343117
20
-56.8847699
40
3
50
85.4851255
51
86.9839786
0
ARC
8
0
10
295.1925615
20
-54.2187214
40
3
50
265.4851255
51
266.7022456
0
ARC
8
0
10
315.8159824
20
-61.4170008
40
3
50
85.7022482
51
86.7022456
0
ARC
8
0
10
336.7659388
20
-62.991409
40
3
50
84.702249
51
85.7022482
0
ARC
8
0
10
357.6864827
20
-64.9313214
40
3
50
83.7499983
51
84.702249
0
ARC
8
0
10
414.4720169
20
-71.1503488
40
3
50
353.7499983
51
83.7499983
0
ARC
8
0
10
415.2169419
20
-119.4616702
40
3
50
173.7499983
51
197.5398776
0
ARC
8
0
10
415.9338135
20
-141.6389049
40
3
50
316.7500008
51
17.5398776
0
ARC
8
0
10
387.3592002
20
-172.0146136
40
3
50
292.7875091
51
316.7500008
0
ARC
8
0
10
345.489087
20
-189.6044502
40
3
50
261.0186712
51
292.7875091
0
ARC
8
0
10
299.9290997
20
-188.4781548
40
3
50
81.0186712
51
86.7499994
0
ARC
8
0
10
287.6004633
20
-187.7780841
40
3
50
86.7499994
51
87.7558037
0
ARC
8
0
10
269.177283
20
-181.0514993
40
3
50
262.6933348
51
267.7558037
0
ARC
8
0
10
249.8669104
20
-184.6246214
40
3
50
82.6933348
51
86.7160765
0
ARC
8
0
10
231.3131506
20
-183.560042
40
3
50
86.7160765
51
93.1343358
0
ARC
8
0
10
193.2733456
20
-185.6430679
40
3
50
93.1343358
51
94.0360431
0
ARC
8
0
10
167.9766579
20
-181.4130593
40
3
50
269.8316017
51
274.0360431
0
ARC
8
0
10
158.7190767
20
-181.3858499
40
3
50
266.2255238
51
269.8316017
0
ARC
8
0
10
121.3453831
20
-178.9202127
40
3
50
264.7386085
51
266.2255238
0
ARC
8
0
10
107.8205442
20
-183.7001303
40
3
50
84.7386085
51
92.181101
0
ARC
8
0
10
76.8215487
20
-184.8807505
40
3
50
92.181101
51
97.8181436
0
ARC
8
0
10
57.5215935
20
-181.4744474
40
3
50
272.7558035
51
277.8181436
0
ARC
8
0
10
38.8446419
20
-182.3734621
40
3
50
272.7499983
51
272.7558035
0
ARC
8
0
10
28.0235374
20
-182.8932371
40
3
50
213.9233908
51
272.7499983
0
ARC
8
0
10
17.0087715
20
-166.5159807
40
3
50
182.7499983
51
213.9233908
0
ARC
8
0
10
14.0370208
20
-104.647617
40
3
50
168.5585652
51
182.7499983
0
ENDSEC
0
EOF