<?xml version="1.0"?>
<svg
  xmlns="http://www.w3.org/2000/svg"
  xmlns:xlink="http://www.w3.org/1999/xlink" version="1.1"
  preserveAspectRatio="xMinYMin meet"
  viewBox="15.5812904 79.7778054 387.7733819 147.0544706"
  width="100%" height="100%"
>
  <g stroke="#000000" stroke-width="0.1%" fill="none" transform="matrix(1,0,0,-1,0,0)">
    <g stroke="rgb(0, 0, 0)"><path d="M15.6739936,-128.8168835L26.6347506,-85.7554768" /></g>
<g stroke="rgb(0, 0, 0)"><path d="M29.5158679,-83.495608L40.6552746,-83.3983958" /></g>
<g stroke="rgb(0, 0, 0)"><path d="M40.8032514,-83.3934507L80.8090251,-81.0671075" /></g>
<g stroke="rgb(0, 0, 0)"><path d="M80.8696866,-81.0641958L101.7574991,-80.27341" /></g>
<g stroke="rgb(0, 0, 0)"><path d="M102.094058,-80.2795668L122.9408228,-81.8339246" /></g>
<g stroke="rgb(0, 0, 0)"><path d="M123.0010832,-81.8378082L148.2765955,-83.2114814" /></g>
<g stroke="rgb(0, 0, 0)"><path d="M150.0110224,-83.8831595L154.9392173,-87.906533" /></g>
<g stroke="rgb(0, 0, 0)"><path d="M156.8382041,-88.5826314L169.4543704,-88.5752454" /></g>
<g stroke="rgb(0, 0, 0)"><path d="M171.3498448,-87.899147L176.2839242,-83.8709693" /></g>
<g stroke="rgb(0, 0, 0)"><path d="M178.0082063,-83.1998597L202.7528285,-81.7709682" /></g>
<g stroke="rgb(0, 0, 0)"><path d="M202.863149,-81.762554L223.647683,-79.7912089" /></g>
<g stroke="rgb(0, 0, 0)"><path d="M223.9840496,-79.7782753L244.8740293,-80.1480699" /></g>
<g stroke="rgb(0, 0, 0)"><path d="M244.9571242,-80.150693L285.0073409,-81.9707505" /></g>
<g stroke="rgb(0, 0, 0)"><path d="M285.1304435,-81.9738149L400.3677622,-82.4766359" /></g>
<g stroke="rgb(0, 0, 0)"><path d="M403.3546437,-85.4896972L403.1352847,-135.762759" /></g>
<g stroke="rgb(0, 0, 0)"><path d="M403.0727013,-136.3593834L398.0184367,-160.7090415" /></g>
<g stroke="rgb(0, 0, 0)"><path d="M339.4107683,-225.8493764L397.301703,-162.1164277" /></g>
<g stroke="rgb(0, 0, 0)"><path d="M336.1258514,-226.6371548L297.5354141,-211.9946833" /></g>
<g stroke="rgb(0, 0, 0)"><path d="M265.5853947,-211.6647682L296.4842414,-211.7995907" /></g>
<g stroke="rgb(0, 0, 0)"><path d="M265.3207587,-211.6519138L246.7524035,-209.9255283" /></g>
<g stroke="rgb(0, 0, 0)"><path d="M246.4755947,-209.9126454L214.5711061,-209.9028918" /></g>
<g stroke="rgb(0, 0, 0)"><path d="M213.9553924,-209.9665632L205.2227268,-211.7949737" /></g>
<g stroke="rgb(0, 0, 0)"><path d="M204.8256504,-211.8507344L164.5457611,-214.7817128" /></g>
<g stroke="rgb(0, 0, 0)"><path d="M164.5457611,-214.7817128L161.7448343,-214.7903505" /></g>
<g stroke="rgb(0, 0, 0)"><path d="M161.7448343,-214.7903505L121.3962755,-211.8543753" /></g>
<g stroke="rgb(0, 0, 0)"><path d="M121.1341561,-211.8236632L112.3098734,-210.3938424" /></g>
<g stroke="rgb(0, 0, 0)"><path d="M111.7851629,-210.3555551L79.8566367,-210.8331627" /></g>
<g stroke="rgb(0, 0, 0)"><path d="M79.5580389,-210.8525538L61.0692099,-212.9833442" /></g>
<g stroke="rgb(0, 0, 0)"><path d="M29.9912513,-213.271401L60.7519206,-213.0029567" /></g>
<g stroke="rgb(0, 0, 0)"><path d="M27.4422804,-211.8949449L16.6160657,-195.0711299" /></g>
<g stroke="rgb(0, 0, 0)"><path d="M16.1389712,-193.4738797L15.5814046,-129.58308" /></g>
<g stroke="rgb(0, 0, 0)"><path d="M 29.515867898220648 -83.49560802989365 A 3 3 0 0 1 26.634750556409813 -85.75547686556503" /></g>
<g stroke="rgb(0, 0, 0)"><path d="M 40.655274601779354 -83.39839577010636 A 3 3 0 0 1 40.80325139118879 -83.39345066489462" /></g>
<g stroke="rgb(0, 0, 0)"><path d="M 80.86968659471825 -81.0641958138452 A 3 3 0 0 1 80.80902510881121 -81.0671075351054" /></g>
<g stroke="rgb(0, 0, 0)"><path d="M 102.09405798900389 -80.27956682521354 A 3 3 0 0 1 101.75749909471824 -80.2734100138452" /></g>
<g stroke="rgb(0, 0, 0)"><path d="M 122.94082281099611 -81.83392457478647 A 3 3 0 0 1 123.00108319583916 -81.83780823512491" /></g>
<g stroke="rgb(0, 0, 0)"><path d="M 150.01102237081088 -83.8831595347262 A 3 3 0 0 1 148.27659550416084 -83.2114813648751" /></g>
<g stroke="rgb(0, 0, 0)"><path d="M 154.93921732918912 -87.9065329652738 A 3 3 0 0 1 156.83820410255294 -88.58263138595872" /></g>
<g stroke="rgb(0, 0, 0)"><path d="M 169.45437040255294 -88.57524538595872 A 3 3 0 0 1 171.34984477081085 -87.8991469652738" /></g>
<g stroke="rgb(0, 0, 0)"><path d="M 178.00820630473643 -83.19985974593112 A 3 3 0 0 1 176.28392422918913 -83.8709693347262" /></g>
<g stroke="rgb(0, 0, 0)"><path d="M 202.75282849526357 -81.77096815406888 A 3 3 0 0 1 202.86314899139654 -81.7625540041353" /></g>
<g stroke="rgb(0, 0, 0)"><path d="M 223.9840495992609 -79.77827532931347 A 3 3 0 0 1 223.64768300860345 -79.79120889586471" /></g>
<g stroke="rgb(0, 0, 0)"><path d="M 244.95712419875684 -80.15069299388813 A 3 3 0 0 1 244.8740292992609 -80.14806992931346" /></g>
<g stroke="rgb(0, 0, 0)"><path d="M 285.0073409012432 -81.97075050611187 A 3 3 0 0 1 285.13044349832546 -81.97381494227643" /></g>
<g stroke="rgb(0, 0, 0)"><path d="M 403.35464374227644 -85.48969720167455 A 3 3 0 0 1 400.36776220167457 -82.47663585772356" /></g>
<g stroke="rgb(0, 0, 0)"><path d="M 403.0727013304708 -136.359383425276 A 3 3 0 0 1 403.13528474227644 -135.76275900167457" /></g>
<g stroke="rgb(0, 0, 0)"><path d="M 397.30170295781693 -162.11642764943443 A 3 3 0 0 1 398.0184366304708 -160.709041525276" /></g>
<g stroke="rgb(0, 0, 0)"><path d="M 336.1258513962046 -226.6371548048974 A 3 3 0 0 1 339.41076835781695 -225.84937644943443" /></g>
<g stroke="rgb(0, 0, 0)"><path d="M 297.5354141037954 -211.99468329510262 A 3 3 0 0 1 296.4842414016746 -211.79959065772357" /></g>
<g stroke="rgb(0, 0, 0)"><path d="M 265.32075870202135 -211.65191385923822 A 3 3 0 0 1 265.58539469832544 -211.66476824227644" /></g>
<g stroke="rgb(0, 0, 0)"><path d="M 246.75240349797866 -209.9255282407618 A 3 3 0 0 1 246.47559469894915 -209.91264544017844" /></g>
<g stroke="rgb(0, 0, 0)"><path d="M 214.57110609894914 -209.90289184017843 A 3 3 0 0 1 213.9553924169646 -209.96656318270362" /></g>
<g stroke="rgb(0, 0, 0)"><path d="M 204.82565039503527 -211.85073442271278 A 3 3 0 0 1 205.2227267830354 -211.7949737172964" /></g>
<g stroke="rgb(0, 0, 0)"><path d="M 121.1341561054196 -211.8236631545881 A 3 3 0 0 1 121.39627540496474 -211.85437532271277" /></g>
<g stroke="rgb(0, 0, 0)"><path d="M 112.30987339458039 -210.3938424454119 A 3 3 0 0 1 111.78516289632977 -210.35555508659812" /></g>
<g stroke="rgb(0, 0, 0)"><path d="M 79.85663669632976 -210.83316268659811 A 3 3 0 0 1 79.55803888144399 -210.8525537617507" /></g>
<g stroke="rgb(0, 0, 0)"><path d="M 60.751920601779354 -213.00295667010636 A 3 3 0 0 1 61.069209918556005 -212.98334423824934" /></g>
<g stroke="rgb(0, 0, 0)"><path d="M 27.442280474198064 -211.89494488017053 A 3 3 0 0 1 29.991251301779354 -213.27140097010636" /></g>
<g stroke="rgb(0, 0, 0)"><path d="M 16.13897122989365 -193.47387970177937 A 3 3 0 0 1 16.61606567419807 -195.07112988017053" /></g>
<g stroke="rgb(0, 0, 0)"><path d="M 15.673993556409812 -128.81688356556504 A 3 3 0 0 1 15.581404629893647 -129.58308000177936" /></g>
  </g>
</svg>