0
SECTION
2
HEADER
9
$INSUNITS
70
4
0
ENDSEC
0
SECTION
2
TABLES
0
TABLE
2
LTYPE
0
LTYPE
72
65
70
64
2
CONTINUOUS
3
______
73
0
40
0
0
ENDTAB
0
TABLE
2
LAYER
0
ENDTAB
0
ENDSEC
0
SECTION
2
ENTITIES
0
LINE
8
0
10
15.6739936
20
-128.8168835
11
26.6347506
21
-85.7554768
0
LINE
8
0
10
29.5158679
20
-83.495608
11
40.6552746
21
-83.3983958
0
LINE
8
0
10
40.8032514
20
-83.3934507
11
80.8090251
21
-81.0671075
0
LINE
8
0
10
80.8696866
20
-81.0641958
11
101.7574991
21
-80.27341
0
LINE
8
0
10
102.094058
20
-80.2795668
11
122.9408228
21
-81.8339246
0
LINE
8
0
10
123.0010832
20
-81.8378082
11
148.2765955
21
-83.2114814
0
LINE
8
0
10
150.0110224
20
-83.8831595
11
154.9392173
21
-87.906533
0
LINE
8
0
10
156.8382041
20
-88.5826314
11
169.4543704
21
-88.5752454
0
LINE
8
0
10
171.3498448
20
-87.899147
11
176.2839242
21
-83.8709693
0
LINE
8
0
10
178.0082063
20
-83.1998597
11
202.7528285
21
-81.7709682
0
LINE
8
0
10
202.863149
20
-81.762554
11
223.647683
21
-79.7912089
0
LINE
8
0
10
223.9840496
20
-79.7782753
11
244.8740293
21
-80.1480699
0
LINE
8
0
10
244.9571242
20
-80.150693
11
285.0073409
21
-81.9707505
0
LINE
8
0
10
285.1304435
20
-81.9738149
11
400.3677622
21
-82.4766359
0
LINE
8
0
10
403.3546437
20
-85.4896972
11
403.1352847
21
-135.762759
0
LINE
8
0
10
403.0727013
20
-136.3593834
11
398.0184367
21
-160.7090415
0
LINE
8
0
10
339.4107683
20
-225.8493764
11
397.301703
21
-162.1164277
0
LINE
8
0
10
336.1258514
20
-226.6371548
11
297.5354141
21
-211.9946833
0
LINE
8
0
10
265.5853947
20
-211.6647682
11
296.4842414
21
-211.7995907
0
LINE
8
0
10
265.3207587
20
-211.6519138
11
246.7524035
21
-209.9255283
0
LINE
8
0
10
246.4755947
20
-209.9126454
11
214.5711061
21
-209.9028918
0
LINE
8
0
10
213.9553924
20
-209.9665632
11
205.2227268
21
-211.7949737
0
LINE
8
0
10
204.8256504
20
-211.8507344
11
164.5457611
21
-214.7817128
0
LINE
8
0
10
164.5457611
20
-214.7817128
11
161.7448343
21
-214.7903505
0
LINE
8
0
10
161.7448343
20
-214.7903505
11
121.3962755
21
-211.8543753
0
LINE
8
0
10
121.1341561
20
-211.8236632
11
112.3098734
21
-210.3938424
0
LINE
8
0
10
111.7851629
20
-210.3555551
11
79.8566367
21
-210.8331627
0
LINE
8
0
10
79.5580389
20
-210.8525538
11
61.0692099
21
-212.9833442
0
LINE
8
0
10
29.9912513
20
-213.271401
11
60.7519206
21
-213.0029567
0
LINE
8
0
10
27.4422804
20
-211.8949449
11
16.6160657
21
-195.0711299
0
LINE
8
0
10
16.1389712
20
-193.4738797
11
15.5814046
21
-129.58308
0
ARC
8
0
10
29.5420474
20
-86.4954938
40
3
50
90.499998
51
165.7193163
0
ARC
8
0
10
40.6290951
20
-80.39851
40
3
50
270.499998
51
273.3280112
0
ARC
8
0
10
80.9831814
20
-84.0620482
40
3
50
92.1681085
51
93.3280112
0
ARC
8
0
10
101.8709939
20
-83.2712624
40
3
50
85.7358544
51
92.1681085
0
ARC
8
0
10
123.1638869
20
-78.842229
40
3
50
265.7358544
51
266.8891501
0
ARC
8
0
10
148.1137918
20
-86.2070606
40
3
50
50.7718333
51
86.8891501
0
ARC
8
0
10
156.8364479
20
-85.5826319
40
3
50
230.7718333
51
270.033541
0
ARC
8
0
10
169.4526142
20
-85.5752459
40
3
50
270.033541
51
309.2281667
0
ARC
8
0
10
178.1811548
20
-86.1948704
40
3
50
93.3049053
51
129.2281667
0
ARC
8
0
10
202.57988
20
-78.7759575
40
3
50
273.3049053
51
275.4181107
0
ARC
8
0
10
223.930952
20
-82.7778054
40
3
50
88.9858576
51
95.4181107
0
ARC
8
0
10
244.8209317
20
-83.1476
40
3
50
87.3980206
51
88.9858576
0
ARC
8
0
10
285.1435334
20
-78.9738435
40
3
50
267.3980206
51
269.7500005
0
ARC
8
0
10
400.3546723
20
-85.4766073
40
3
50
359.7500005
51
89.7500005
0
ARC
8
0
10
400.1353133
20
-135.7496691
40
3
50
348.273621
51
359.7500005
0
ARC
8
0
10
395.0810486
20
-160.0993272
40
3
50
317.7499993
51
348.273621
0
ARC
8
0
10
337.190114
20
-223.832276
40
3
50
249.2216193
51
317.7499993
0
ARC
8
0
10
296.4711515
20
-214.7995621
40
3
50
69.2216193
51
89.7500005
0
ARC
8
0
10
265.5984846
20
-208.6647968
40
3
50
264.6882204
51
269.7500005
0
ARC
8
0
10
246.4746776
20
-212.9126453
40
3
50
84.6882204
51
89.9824847
0
ARC
8
0
10
214.570189
20
-212.9028917
40
3
50
89.9824847
51
101.8255298
0
ARC
8
0
10
204.6079302
20
-208.8586452
40
3
50
274.1618082
51
281.8255298
0
ARC
8
0
10
121.6139956
20
-208.8622861
40
3
50
260.7962092
51
265.8381918
0
ARC
8
0
10
111.8300339
20
-213.3552195
40
3
50
80.7962092
51
90.857005
0
ARC
8
0
10
79.9015077
20
-213.8328271
40
3
50
90.857005
51
96.5741872
0
ARC
8
0
10
60.7257411
20
-210.0030709
40
3
50
270.499998
51
276.5741872
0
ARC
8
0
10
29.9650718
20
-210.2715152
40
3
50
212.7614972
51
270.499998
0
ARC
8
0
10
19.138857
20
-193.4477002
40
3
50
180.499998
51
212.7614972
0
ARC
8
0
10
18.5812904
20
-129.5569005
40
3
50
165.7193163
51
180.499998
0
ENDSEC
0
EOF