<?xml version="1.0"?>
<svg
  xmlns="http://www.w3.org/2000/svg"
  xmlns:xlink="http://www.w3.org/1999/xlink" version="1.1"
  preserveAspectRatio="xMinYMin meet"
  viewBox="10.906772 55.7812688 395.80967530000004 148.2815665"
  width="100%" height="100%"
>
  <g stroke="#000000" stroke-width="0.1%" fill="none" transform="matrix(1,0,0,-1,0,0)">
    <g stroke="rgb(0, 0, 0)"><path d="M11.0027319,-103.901739L22.1512749,-60.8885672" /></g>
<g stroke="rgb(0, 0, 0)"><path d="M25.0422252,-58.6412913L36.1839049,-58.5926762" /></g>
<g stroke="rgb(0, 0, 0)"><path d="M36.327997,-58.5885843L77.1429176,-56.4471854" /></g>
<g stroke="rgb(0, 0, 0)"><path d="M77.2086029,-56.4444605L98.8975369,-55.7826644" /></g>
<g stroke="rgb(0, 0, 0)"><path d="M99.2319124,-55.7911167L119.464684,-57.4345495" /></g>
<g stroke="rgb(0, 0, 0)"><path d="M119.5403503,-57.4397338L150.6542422,-59.1766447" /></g>
<g stroke="rgb(0, 0, 0)"><path d="M152.3842603,-59.84808L157.3182787,-63.8762079" /></g>
<g stroke="rgb(0, 0, 0)"><path d="M159.2082547,-64.5522979L166.0502417,-64.5688431" /></g>
<g stroke="rgb(0, 0, 0)"><path d="M167.934375,-63.9092207L172.9083562,-59.9202941" /></g>
<g stroke="rgb(0, 0, 0)"><path d="M174.6444535,-59.263968L206.156604,-57.7835629" /></g>
<g stroke="rgb(0, 0, 0)"><path d="M206.2627263,-57.7766905L228.2691426,-55.9593709" /></g>
<g stroke="rgb(0, 0, 0)"><path d="M228.5982912,-55.950321L249.4870001,-56.5232005" /></g>
<g stroke="rgb(0, 0, 0)"><path d="M249.5724845,-56.5267654L288.4014117,-58.7010849" /></g>
<g stroke="rgb(0, 0, 0)"><path d="M288.5298723,-58.7055203L403.7557161,-60.2139092" /></g>
<g stroke="rgb(0, 0, 0)"><path d="M406.7161903,-63.252921L406.0596546,-113.4056905" /></g>
<g stroke="rgb(0, 0, 0)"><path d="M405.9347027,-114.2240788L398.6511469,-138.6379222" /></g>
<g stroke="rgb(0, 0, 0)"><path d="M339.481517,-203.0992375L397.9793232,-139.8166672" /></g>
<g stroke="rgb(0, 0, 0)"><path d="M336.1341965,-203.8360026L299.8216747,-188.8515667" /></g>
<g stroke="rgb(0, 0, 0)"><path d="M268.0513748,-188.2235613L298.7165905,-188.6249909" /></g>
<g stroke="rgb(0, 0, 0)"><path d="M267.7863128,-188.2083422L249.2341277,-186.3165835" /></g>
<g stroke="rgb(0, 0, 0)"><path d="M248.9572172,-186.3012327L217.0069115,-186.0091918" /></g>
<g stroke="rgb(0, 0, 0)"><path d="M216.4826258,-186.0504985L205.3459333,-187.9208082" /></g>
<g stroke="rgb(0, 0, 0)"><path d="M205.0406692,-187.9561154L164.7942377,-190.5317983" /></g>
<g stroke="rgb(0, 0, 0)"><path d="M164.5850498,-190.5378716L158.963721,-190.5049177" /></g>
<g stroke="rgb(0, 0, 0)"><path d="M158.7635875,-190.4970584L118.5035109,-187.5675217" /></g>
<g stroke="rgb(0, 0, 0)"><path d="M118.2640371,-187.54039L107.6635982,-185.9058116" /></g>
<g stroke="rgb(0, 0, 0)"><path d="M107.1757019,-185.8709263L75.0254894,-186.1999724" /></g>
<g stroke="rgb(0, 0, 0)"><path d="M74.7295715,-186.2176484L56.028367,-188.2658868" /></g>
<g stroke="rgb(0, 0, 0)"><path d="M24.9513521,-188.4179231L55.7148366,-188.2836914" /></g>
<g stroke="rgb(0, 0, 0)"><path d="M22.4084114,-187.0303582L11.6557071,-170.159465" /></g>
<g stroke="rgb(0, 0, 0)"><path d="M11.1855866,-168.5601484L10.9068006,-104.6675244" /></g>
<g stroke="rgb(0, 0, 0)"><path d="M 25.04222519832545 -58.641291257723566 A 3 3 0 0 1 22.15127489920711 -60.88856720235252" /></g>
<g stroke="rgb(0, 0, 0)"><path d="M 36.183904901674545 -58.59267624227643 A 3 3 0 0 1 36.32799699836131 -58.588584273442" /></g>
<g stroke="rgb(0, 0, 0)"><path d="M 77.20860289856337 -56.44446049901173 A 3 3 0 0 1 77.14291760163869 -56.447185426558" /></g>
<g stroke="rgb(0, 0, 0)"><path d="M 99.23191239511304 -55.79111664820497 A 3 3 0 0 1 98.89753689856337 -55.78266439901173" /></g>
<g stroke="rgb(0, 0, 0)"><path d="M 119.46468400488696 -57.43454955179503 A 3 3 0 0 1 119.54035030853389 -57.43973377221226" /></g>
<g stroke="rgb(0, 0, 0)"><path d="M 152.38426027081087 -59.84808003472621 A 3 3 0 0 1 150.65424219146612 -59.176644727787746" /></g>
<g stroke="rgb(0, 0, 0)"><path d="M 157.31827872918913 -63.87620786527379 A 3 3 0 0 1 159.2082546994269 -64.55229802844893" /></g>
<g stroke="rgb(0, 0, 0)"><path d="M 166.0502416994269 -64.56884312844893 A 3 3 0 0 1 167.9343750126892 -63.909220737994154" /></g>
<g stroke="rgb(0, 0, 0)"><path d="M 174.644453499185 -59.263967949668746 A 3 3 0 0 1 172.9083560873108 -59.920294062005844" /></g>
<g stroke="rgb(0, 0, 0)"><path d="M 206.156604000815 -57.78356295033125 A 3 3 0 0 1 206.26272629946135 -57.77669050519542" /></g>
<g stroke="rgb(0, 0, 0)"><path d="M 228.59829120410248 -55.95032098535809 A 3 3 0 0 1 228.26914260053866 -55.95937089480458" /></g>
<g stroke="rgb(0, 0, 0)"><path d="M 249.5724845029191 -56.52676542873826 A 3 3 0 0 1 249.48700010410246 -56.52320048535809" /></g>
<g stroke="rgb(0, 0, 0)"><path d="M 288.4014116970809 -58.70108477126174 A 3 3 0 0 1 288.52987229757935 -58.70552028251641" /></g>
<g stroke="rgb(0, 0, 0)"><path d="M 406.71619028251644 -63.25292100242065 A 3 3 0 0 1 403.7557161024207 -60.21390921748359" /></g>
<g stroke="rgb(0, 0, 0)"><path d="M 405.934702768815 -114.22407882012648 A 3 3 0 0 1 406.05965458251643 -113.40569050242065" /></g>
<g stroke="rgb(0, 0, 0)"><path d="M 397.97932328161994 -139.81666727892528 A 3 3 0 0 1 398.651146868815 -138.63792222012648" /></g>
<g stroke="rgb(0, 0, 0)"><path d="M 336.1341965403657 -203.83600249722704 A 3 3 0 0 1 339.4815170816199 -203.09923747892526" /></g>
<g stroke="rgb(0, 0, 0)"><path d="M 299.8216746596343 -188.85156670277294 A 3 3 0 0 1 298.7165905024207 -188.6249909174836" /></g>
<g stroke="rgb(0, 0, 0)"><path d="M 267.7863128023024 -188.20834217585906 A 3 3 0 0 1 268.05137479757934 -188.2235612825164" /></g>
<g stroke="rgb(0, 0, 0)"><path d="M 249.23412769769763 -186.31658352414095 A 3 3 0 0 1 248.95721720281554 -186.30123271478504" /></g>
<g stroke="rgb(0, 0, 0)"><path d="M 217.00691150281554 -186.00919181478503 A 3 3 0 0 1 216.48262577883654 -186.05049847589575" /></g>
<g stroke="rgb(0, 0, 0)"><path d="M 205.04066920074925 -187.95611543814056 A 3 3 0 0 1 205.34593332116347 -187.92080822410423" /></g>
<g stroke="rgb(0, 0, 0)"><path d="M 164.58504980222327 -190.5378715514869 A 3 3 0 0 1 164.79423770074925 -190.53179833814056" /></g>
<g stroke="rgb(0, 0, 0)"><path d="M 158.76358740496474 -190.49705842271277 A 3 3 0 0 1 158.96372100222328 -190.5049176514869" /></g>
<g stroke="rgb(0, 0, 0)"><path d="M 118.26403709646877 -187.54039011236736 A 3 3 0 0 1 118.50351090496474 -187.56752172271277" /></g>
<g stroke="rgb(0, 0, 0)"><path d="M 107.66359820353122 -185.90581158763266 A 3 3 0 0 1 107.17570189860537 -185.8709263093324" /></g>
<g stroke="rgb(0, 0, 0)"><path d="M 75.02548939860537 -186.1999724093324 A 3 3 0 0 1 74.72957149474219 -186.21764842983373" /></g>
<g stroke="rgb(0, 0, 0)"><path d="M 55.71483660167455 -188.28369144227642 A 3 3 0 0 1 56.02836690525782 -188.26588687016627" /></g>
<g stroke="rgb(0, 0, 0)"><path d="M 22.40841132415808 -187.03035814565874 A 3 3 0 0 1 24.95135210167455 -188.41792314227644" /></g>
<g stroke="rgb(0, 0, 0)"><path d="M 11.185586557723566 -168.56014840167455 A 3 3 0 0 1 11.65570712415808 -170.15946494565873" /></g>
<g stroke="rgb(0, 0, 0)"><path d="M 11.002731799207108 -103.90173900235251 A 3 3 0 0 1 10.906800557723566 -104.66752440167454" /></g>
  </g>
</svg>