0
SECTION
2
HEADER
9
$INSUNITS
70
4
0
ENDSEC
0
SECTION
2
TABLES
0
TABLE
2
LTYPE
0
LTYPE
72
65
70
64
2
CONTINUOUS
3
______
73
0
40
0
0
ENDTAB
0
TABLE
2
LAYER
0
ENDTAB
0
ENDSEC
0
SECTION
2
ENTITIES
0
LINE
8
0
10
1.2537237
20
-102.9271202
11
12.5651084
21
-59.8129985
0
LINE
8
0
10
15.4320308
20
-57.5745133
11
27.595431
21
-57.4331208
0
LINE
8
0
10
27.7433175
20
-57.4277516
11
67.7596383
21
-54.9854585
0
LINE
8
0
10
67.8203526
20
-54.98237
11
88.7233293
21
-54.1313116
0
LINE
8
0
10
89.0596701
20
-54.1364919
11
109.9234508
21
-55.6306633
0
LINE
8
0
10
109.9936505
20
-55.6348643
11
143.175226
21
-57.2305052
0
LINE
8
0
10
144.8315583
20
-57.8273654
11
150.3398894
21
-61.9601575
0
LINE
8
0
10
152.1579073
20
-62.5604288
11
156.0286351
21
-62.5377364
0
LINE
8
0
10
157.8253526
20
-61.9269923
11
163.3176947
21
-57.7562381
0
LINE
8
0
10
164.9701491
20
-57.1498116
11
197.5193717
21
-55.3912148
0
LINE
8
0
10
197.6362748
20
-55.3826052
11
218.4379573
21
-53.4413594
0
LINE
8
0
10
218.7741082
20
-53.4289297
11
239.6810749
21
-53.8290042
0
LINE
8
0
10
239.7641992
20
-53.831748
11
279.8291698
21
-55.710472
0
LINE
8
0
10
279.9522031
20
-55.7137139
11
396.188678
21
-56.3913104
0
LINE
8
0
10
399.1711388
20
-59.4087476
11
398.8670601
21
-111.5711174
0
LINE
8
0
10
398.751418
20
-112.3787195
11
392.0595634
21
-135.7717535
0
LINE
8
0
10
332.0546552
20
-202.1012635
11
391.3929513
21
-136.9670171
0
LINE
8
0
10
328.637693
20
-202.8307746
11
294.2124317
21
-187.8172773
0
LINE
8
0
10
260.2055486
20
-187.3758406
11
293.0306525
21
-187.5671934
0
LINE
8
0
10
259.9406645
20
-187.362573
11
241.3939451
21
-185.6090948
0
LINE
8
0
10
241.1141471
20
-185.5957773
11
208.228395
21
-185.567557
0
LINE
8
0
10
207.6139905
20
-185.6306078
11
198.7993094
21
-187.4668976
0
LINE
8
0
10
198.3957377
20
-187.5227122
11
155.1180999
21
-190.5342899
0
LINE
8
0
10
155.1180999
20
-190.5342899
11
153.2007186
21
-190.5311119
0
LINE
8
0
10
153.2007186
20
-190.5311119
11
109.8539695
21
-187.7670147
0
LINE
8
0
10
109.5529621
20
-187.7324897
11
100.6139973
21
-186.2466234
0
LINE
8
0
10
100.0721652
20
-186.2064328
11
67.1735868
21
-186.7538422
0
LINE
8
0
10
66.8710809
20
-186.7741985
11
48.4080839
21
-188.9582113
0
LINE
8
0
10
16.294913
20
-189.3483857
11
48.0905378
21
-188.9787801
0
LINE
8
0
10
13.7726406
20
-188.0257386
11
2.433501
21
-171.2085259
0
LINE
8
0
10
1.9211053
20
-169.5662465
11
1.1557195
21
-103.7233031
0
ARC
8
0
10
15.4669016
20
-60.5743106
40
3
50
90.6659982
51
165.2992443
0
ARC
8
0
10
27.5605602
20
-54.4333235
40
3
50
270.6659982
51
273.4925699
0
ARC
8
0
10
67.9423956
20
-57.9798866
40
3
50
92.331493
51
93.4925699
0
ARC
8
0
10
88.8453723
20
-57.1288282
40
3
50
85.9037247
51
92.331493
0
ARC
8
0
10
110.1377486
20
-52.638327
40
3
50
265.9037247
51
267.2468698
0
ARC
8
0
10
143.0311279
20
-60.2270425
40
3
50
53.1198258
51
87.2468698
0
ARC
8
0
10
152.1403198
20
-59.5604804
40
3
50
233.1198258
51
270.3358984
0
ARC
8
0
10
156.0110476
20
-59.537788
40
3
50
270.3358984
51
307.2121732
0
ARC
8
0
10
165.1319997
20
-60.1454425
40
3
50
93.0926203
51
127.2121732
0
ARC
8
0
10
197.3575211
20
-52.395584
40
3
50
273.0926203
51
275.331494
0
ARC
8
0
10
218.716711
20
-56.4283806
40
3
50
88.9037274
51
95.331494
0
ARC
8
0
10
239.6236777
20
-56.8284551
40
3
50
87.3152547
51
88.9037274
0
ARC
8
0
10
279.9696913
20
-52.7137649
40
3
50
267.3152547
51
269.6659981
0
ARC
8
0
10
396.1711898
20
-59.3912594
40
3
50
359.6659981
51
89.6659981
0
ARC
8
0
10
395.8671111
20
-111.5536292
40
3
50
344.0361918
51
359.6659981
0
ARC
8
0
10
389.1752565
20
-134.9466632
40
3
50
317.6660004
51
344.0361918
0
ARC
8
0
10
329.8369604
20
-200.0809096
40
3
50
246.4370873
51
317.6660004
0
ARC
8
0
10
293.0131643
20
-190.5671424
40
3
50
66.4370873
51
89.6659981
0
ARC
8
0
10
260.2230368
20
-184.3758916
40
3
50
264.5990916
51
269.6659981
0
ARC
8
0
10
241.1115728
20
-188.5957762
40
3
50
84.5990916
51
89.9508345
0
ARC
8
0
10
208.2258207
20
-188.5675559
40
3
50
89.9508345
51
101.7676535
0
ARC
8
0
10
198.1874792
20
-184.5299495
40
3
50
273.9806457
51
281.7676535
0
ARC
8
0
10
110.0448832
20
-184.7730956
40
3
50
260.5623801
51
266.3513515
0
ARC
8
0
10
100.1220762
20
-189.2060176
40
3
50
80.5623801
51
90.9532739
0
ARC
8
0
10
67.2234978
20
-189.753427
40
3
50
90.9532739
51
96.7462439
0
ARC
8
0
10
48.055667
20
-185.9789828
40
3
50
270.6659982
51
276.7462439
0
ARC
8
0
10
16.2600422
20
-186.3485884
40
3
50
213.9901305
51
270.6659982
0
ARC
8
0
10
4.9209026
20
-169.5313757
40
3
50
180.6659982
51
213.9901305
0
ARC
8
0
10
4.1555168
20
-103.6884323
40
3
50
165.2992443
51
180.6659982
0
ENDSEC
0
EOF