<?xml version="1.0"?>
<svg
  xmlns="http://www.w3.org/2000/svg"
  xmlns:xlink="http://www.w3.org/1999/xlink" version="1.1"
  preserveAspectRatio="xMinYMin meet"
  viewBox="11.3632793 54.8136635 387.7733819 147.0544705"
  width="100%" height="100%"
>
  <g stroke="#000000" stroke-width="0.1%" fill="none" transform="matrix(1,0,0,-1,0,0)">
    <g stroke="rgb(0, 0, 0)"><path d="M11.4559825,-103.8527415L22.4167395,-60.7913349" /></g>
<g stroke="rgb(0, 0, 0)"><path d="M25.2978568,-58.5314661L36.4372635,-58.4342539" /></g>
<g stroke="rgb(0, 0, 0)"><path d="M36.5852403,-58.4293088L76.591014,-56.1029656" /></g>
<g stroke="rgb(0, 0, 0)"><path d="M76.6516755,-56.1000539L97.539488,-55.3092681" /></g>
<g stroke="rgb(0, 0, 0)"><path d="M97.8760469,-55.3154249L118.7208859,-56.8696391" /></g>
<g stroke="rgb(0, 0, 0)"><path d="M118.7850028,-56.8737298L150.8110953,-58.5729357" /></g>
<g stroke="rgb(0, 0, 0)"><path d="M152.5493787,-59.2448209L158.3048327,-63.943568" /></g>
<g stroke="rgb(0, 0, 0)"><path d="M158.3048327,-63.943568L159.5497404,-63.9349303" /></g>
<g stroke="rgb(0, 0, 0)"><path d="M159.5497404,-63.9349303L165.3086186,-59.2333878" /></g>
<g stroke="rgb(0, 0, 0)"><path d="M167.0389226,-58.5619366L198.5317972,-56.8068832" /></g>
<g stroke="rgb(0, 0, 0)"><path d="M198.6481396,-56.7981274L219.4296719,-54.827067" /></g>
<g stroke="rgb(0, 0, 0)"><path d="M219.7660385,-54.8141334L240.6560183,-55.1839279" /></g>
<g stroke="rgb(0, 0, 0)"><path d="M240.7391133,-55.186551L280.7893298,-57.0066086" /></g>
<g stroke="rgb(0, 0, 0)"><path d="M280.9124324,-57.009673L396.1497511,-57.512494" /></g>
<g stroke="rgb(0, 0, 0)"><path d="M399.1366326,-60.5255553L398.9172736,-110.798617" /></g>
<g stroke="rgb(0, 0, 0)"><path d="M398.8546902,-111.3952414L393.8004256,-135.7448996" /></g>
<g stroke="rgb(0, 0, 0)"><path d="M335.1927572,-200.8852344L393.0836919,-137.1522858" /></g>
<g stroke="rgb(0, 0, 0)"><path d="M331.9078403,-201.6730128L293.317403,-187.0305413" /></g>
<g stroke="rgb(0, 0, 0)"><path d="M261.3673836,-186.7006263L292.2662303,-186.8354487" /></g>
<g stroke="rgb(0, 0, 0)"><path d="M261.1027476,-186.6877719L242.5343924,-184.9613864" /></g>
<g stroke="rgb(0, 0, 0)"><path d="M242.2575836,-184.9485035L210.353095,-184.9387499" /></g>
<g stroke="rgb(0, 0, 0)"><path d="M209.7373813,-185.0024213L201.0047157,-186.8308317" /></g>
<g stroke="rgb(0, 0, 0)"><path d="M200.6076393,-186.8865924L160.32775,-189.8175708" /></g>
<g stroke="rgb(0, 0, 0)"><path d="M160.32775,-189.8175708L157.5268232,-189.8262086" /></g>
<g stroke="rgb(0, 0, 0)"><path d="M157.5268232,-189.8262086L117.1782644,-186.8902334" /></g>
<g stroke="rgb(0, 0, 0)"><path d="M116.9161451,-186.8595213L108.0918623,-185.4297004" /></g>
<g stroke="rgb(0, 0, 0)"><path d="M107.5671518,-185.3914131L75.6386256,-185.8690208" /></g>
<g stroke="rgb(0, 0, 0)"><path d="M75.3400278,-185.8884119L56.8511988,-188.0192023" /></g>
<g stroke="rgb(0, 0, 0)"><path d="M25.7732402,-188.3072591L56.5339095,-188.0388148" /></g>
<g stroke="rgb(0, 0, 0)"><path d="M23.2242693,-186.930803L12.3980546,-170.1069879" /></g>
<g stroke="rgb(0, 0, 0)"><path d="M11.9209601,-168.5097377L11.3633935,-104.618938" /></g>
<g stroke="rgb(0, 0, 0)"><path d="M 25.297856798220646 -58.531466129893644 A 3 3 0 0 1 22.41673945640981 -60.79133496556503" /></g>
<g stroke="rgb(0, 0, 0)"><path d="M 36.437263501779356 -58.43425387010635 A 3 3 0 0 1 36.58524029118879 -58.42930876489461" /></g>
<g stroke="rgb(0, 0, 0)"><path d="M 76.65167549471823 -56.100053913845194 A 3 3 0 0 1 76.5910140088112 -56.10296563510539" /></g>
<g stroke="rgb(0, 0, 0)"><path d="M 97.87604688900389 -55.31542492521355 A 3 3 0 0 1 97.53948799471824 -55.3092681138452" /></g>
<g stroke="rgb(0, 0, 0)"><path d="M 118.72088591099612 -56.869639074786456 A 3 3 0 0 1 118.78500279269824 -56.873729838391135" /></g>
<g stroke="rgb(0, 0, 0)"><path d="M 152.54937867081088 -59.24482093472621 A 3 3 0 0 1 150.81109530730177 -58.57293566160887" /></g>
<g stroke="rgb(0, 0, 0)"><path d="M 167.03892260462905 -58.56193658153096 A 3 3 0 0 1 165.3086186291891 -59.23338783472621" /></g>
<g stroke="rgb(0, 0, 0)"><path d="M 198.53179719537093 -56.806883218469046 A 3 3 0 0 1 198.64813959139653 -56.7981274041353" /></g>
<g stroke="rgb(0, 0, 0)"><path d="M 219.76603849926093 -54.81413342931347 A 3 3 0 0 1 219.42967190860347 -54.8270669958647" /></g>
<g stroke="rgb(0, 0, 0)"><path d="M 240.73911329875685 -55.18655099388814 A 3 3 0 0 1 240.65601839926092 -55.18392792931348" /></g>
<g stroke="rgb(0, 0, 0)"><path d="M 280.7893298012432 -57.00660860611186 A 3 3 0 0 1 280.91243239832545 -57.00967304227643" /></g>
<g stroke="rgb(0, 0, 0)"><path d="M 399.1366326422764 -60.52555530167455 A 3 3 0 0 1 396.14975110167455 -57.51249395772357" /></g>
<g stroke="rgb(0, 0, 0)"><path d="M 398.8546902304708 -111.39524142527601 A 3 3 0 0 1 398.9172736422764 -110.79861700167454" /></g>
<g stroke="rgb(0, 0, 0)"><path d="M 393.083691857817 -137.1522857494344 A 3 3 0 0 1 393.8004255304708 -135.744899625276" /></g>
<g stroke="rgb(0, 0, 0)"><path d="M 331.9078402962046 -201.67301280489738 A 3 3 0 0 1 335.19275725781694 -200.88523444943442" /></g>
<g stroke="rgb(0, 0, 0)"><path d="M 293.3174030037954 -187.0305412951026 A 3 3 0 0 1 292.26623030167457 -186.83544865772356" /></g>
<g stroke="rgb(0, 0, 0)"><path d="M 261.10274760202134 -186.6877719592382 A 3 3 0 0 1 261.36738359832543 -186.70062634227642" /></g>
<g stroke="rgb(0, 0, 0)"><path d="M 242.53439239797865 -184.96138634076178 A 3 3 0 0 1 242.25758359894914 -184.94850354017842" /></g>
<g stroke="rgb(0, 0, 0)"><path d="M 210.35309499894913 -184.93874994017844 A 3 3 0 0 1 209.7373813169646 -185.00242128270364" /></g>
<g stroke="rgb(0, 0, 0)"><path d="M 200.60763929503526 -186.88659242271277 A 3 3 0 0 1 201.00471568303539 -186.83083171729638" /></g>
<g stroke="rgb(0, 0, 0)"><path d="M 116.91614510541962 -186.8595212545881 A 3 3 0 0 1 117.17826440496475 -186.89023342271275" /></g>
<g stroke="rgb(0, 0, 0)"><path d="M 108.0918622945804 -185.4297004454119 A 3 3 0 0 1 107.56715179632977 -185.3914130865981" /></g>
<g stroke="rgb(0, 0, 0)"><path d="M 75.63862559632976 -185.8690207865981 A 3 3 0 0 1 75.340027781444 -185.88841186175068" /></g>
<g stroke="rgb(0, 0, 0)"><path d="M 56.533909501779355 -188.03881477010634 A 3 3 0 0 1 56.85119881855601 -188.01920233824933" /></g>
<g stroke="rgb(0, 0, 0)"><path d="M 23.224269374198066 -186.9308029801705 A 3 3 0 0 1 25.773240201779352 -188.30725907010634" /></g>
<g stroke="rgb(0, 0, 0)"><path d="M 11.920960129893647 -168.50973770177936 A 3 3 0 0 1 12.398054574198065 -170.10698788017052" /></g>
<g stroke="rgb(0, 0, 0)"><path d="M 11.455982456409814 -103.85274156556503 A 3 3 0 0 1 11.363393529893647 -104.61893800177936" /></g>
  </g>
</svg>