0
SECTION
2
HEADER
9
$INSUNITS
70
4
0
ENDSEC
0
SECTION
2
TABLES
0
TABLE
2
LTYPE
0
LTYPE
72
65
70
64
2
CONTINUOUS
3
______
73
0
40
0
0
ENDTAB
0
TABLE
2
LAYER
0
ENDTAB
0
ENDSEC
0
SECTION
2
ENTITIES
0
LINE
8
0
10
12.9275946
20
-104.9748206
11
23.6269389
21
-61.0558185
0
LINE
8
0
10
25.552655
20
-59.5292806
11
36.4706467
21
-59.4340006
0
LINE
8
0
10
36.5693483
20
-59.430701
11
76.5924126
21
-57.1023392
0
LINE
8
0
10
76.6328126
20
-57.1003986
11
97.5693841
21
-56.3068077
0
LINE
8
0
10
97.7939133
20
-56.3109137
11
118.6880646
21
-57.8694919
0
LINE
8
0
10
118.7305606
20
-57.8722073
11
150.0494945
21
-59.5388298
0
LINE
8
0
10
151.2646342
20
-60.03472
11
156.1902746
21
-64.3702295
0
LINE
8
0
10
157.5156756
20
-64.8689415
11
160.3434475
21
-64.8633101
0
LINE
8
0
10
161.6608829
20
-64.3645982
11
166.5922509
21
-60.0240473
0
LINE
8
0
10
167.8018993
20
-59.528457
11
198.5993909
21
-57.8046479
0
LINE
8
0
10
198.6765581
20
-57.7988292
11
219.5160726
21
-55.8213074
0
LINE
8
0
10
219.7404734
20
-55.8126775
11
240.682976
21
-56.1840868
0
LINE
8
0
10
240.7383504
20
-56.1858364
11
280.8054487
21
-58.007529
0
LINE
8
0
10
280.8875603
20
-58.009574
11
396.1453878
21
-58.5124844
0
LINE
8
0
10
398.1366422
20
-60.521192
11
397.9212388
21
-109.8876583
0
LINE
8
0
10
397.8766158
20
-110.2991401
11
392.3345507
21
-136.0880653
0
LINE
8
0
10
334.6666457
20
-199.9771547
11
391.859629
21
-137.0125905
0
LINE
8
0
10
332.4771156
20
-200.5024975
11
294.1522639
21
-185.9705171
0
LINE
8
0
10
261.3274564
20
-185.7004425
11
293.4518966
21
-185.8406126
0
LINE
8
0
10
261.1512102
20
-185.6918894
11
242.4742096
21
-183.9570854
0
LINE
8
0
10
242.29179
20
-183.9485149
11
211.1897073
21
-183.9088109
0
LINE
8
0
10
210.8349487
20
-183.9400657
11
199.8621289
21
-185.9030869
0
LINE
8
0
10
199.6589925
20
-185.9287802
11
162.3506109
21
-188.7172993
0
LINE
8
0
10
162.2041203
20
-188.7228607
11
155.6530349
21
-188.731306
0
LINE
8
0
10
155.5013875
20
-188.7257446
11
118.157267
21
-185.9345544
0
LINE
8
0
10
118.0298776
20
-185.920918
11
107.0114563
21
-184.3830871
0
LINE
8
0
10
106.7024979
20
-184.3641518
11
75.5960205
21
-184.8696995
0
LINE
8
0
10
75.3997509
20
-184.8825624
11
56.7896598
21
-187.0253382
0
LINE
8
0
10
26.2380608
20
-187.3031646
11
56.5783432
21
-187.038389
0
LINE
8
0
10
24.5184976
20
-186.3533936
11
13.712693
21
-168.8391144
0
LINE
8
0
10
13.4148794
20
-167.8064146
11
12.8708399
21
-105.4656594
0
ARC
8
0
10
25.570108
20
-61.5292044
40
2
50
90.499998
51
166.3085653
0
ARC
8
0
10
36.4531937
20
-57.4340768
40
2
50
270.499998
51
273.3294576
0
ARC
8
0
10
76.7085672
20
-59.0989634
40
2
50
92.1707287
51
93.3294576
0
ARC
8
0
10
97.6451387
20
-58.3053725
40
2
50
85.733981
51
92.1707287
0
ARC
8
0
10
118.8368392
20
-55.8750331
40
2
50
265.733981
51
266.9539076
0
ARC
8
0
10
149.9432159
20
-61.536004
40
2
50
48.6460229
51
86.9539076
0
ARC
8
0
10
157.5116928
20
-62.8689455
40
2
50
228.6460229
51
270.1140989
0
ARC
8
0
10
160.3394647
20
-62.8633141
40
2
50
270.1140989
51
311.3539771
0
ARC
8
0
10
167.9136691
20
-61.5253314
40
2
50
93.203638
51
131.3539771
0
ARC
8
0
10
198.4876211
20
-55.8077735
40
2
50
273.203638
51
275.4207298
0
ARC
8
0
10
219.7050096
20
-57.8123631
40
2
50
88.9839837
51
95.4207298
0
ARC
8
0
10
240.6475122
20
-58.1837724
40
2
50
87.3967817
51
88.9839837
0
ARC
8
0
10
280.8962869
20
-56.009593
40
2
50
267.3967817
51
269.7500005
0
ARC
8
0
10
396.1366612
20
-60.5124654
40
2
50
359.7500005
51
89.7500005
0
ARC
8
0
10
395.9212578
20
-109.8789317
40
2
50
347.8715413
51
359.7500005
0
ARC
8
0
10
390.3791927
20
-135.6678569
40
2
50
317.7499993
51
347.8715413
0
ARC
8
0
10
333.1862095
20
-198.632421
40
2
50
249.2343219
51
317.7499993
0
ARC
8
0
10
293.44317
20
-187.8405936
40
2
50
69.2343219
51
89.7500005
0
ARC
8
0
10
261.336183
20
-183.7004615
40
2
50
264.6933356
51
269.7500005
0
ARC
8
0
10
242.2892368
20
-185.9485133
40
2
50
84.6933356
51
89.9268562
0
ARC
8
0
10
211.1871541
20
-185.9088093
40
2
50
89.9268562
51
100.1428348
0
ARC
8
0
10
199.5099235
20
-183.9343433
40
2
50
274.2744764
51
280.1428348
0
ARC
8
0
10
162.2015419
20
-186.7228624
40
2
50
270.0738657
51
274.2744764
0
ARC
8
0
10
155.6504565
20
-186.7313077
40
2
50
265.7255236
51
270.0738657
0
ARC
8
0
10
118.306336
20
-183.9401175
40
2
50
262.0546096
51
265.7255236
0
ARC
8
0
10
106.7349979
20
-186.3638877
40
2
50
82.0546096
51
90.9310974
0
ARC
8
0
10
75.6285205
20
-186.8694354
40
2
50
90.9310974
51
96.5681427
0
ARC
8
0
10
56.5608902
20
-185.0384652
40
2
50
270.499998
51
276.5681427
0
ARC
8
0
10
26.2206078
20
-185.3032408
40
2
50
211.6733864
51
270.499998
0
ARC
8
0
10
15.4148032
20
-167.7889616
40
2
50
180.499998
51
211.6733864
0
ARC
8
0
10
14.8707637
20
-105.4482064
40
2
50
166.3085653
51
180.499998
0
ENDSEC
0
EOF