<?xml version="1.0"?>
<svg
  xmlns="http://www.w3.org/2000/svg"
  xmlns:xlink="http://www.w3.org/1999/xlink" version="1.1"
  preserveAspectRatio="xMinYMin meet"
  viewBox="11.6662496 54.323351 395.4985198 147.285372"
  width="100%" height="100%"
>
  <g stroke="#000000" stroke-width="0.1%" fill="none" transform="matrix(1,0,0,-1,0,0)">
    <g stroke="rgb(0, 0, 0)"><path d="M11.756821,-103.819115L22.5927728,-60.7261328" /></g>
<g stroke="rgb(0, 0, 0)"><path d="M25.4673306,-58.4579263L36.6064086,-58.3284411" /></g>
<g stroke="rgb(0, 0, 0)"><path d="M36.7543704,-58.3230673L76.7532333,-55.8808276" /></g>
<g stroke="rgb(0, 0, 0)"><path d="M76.8138861,-55.8777401L97.6993232,-55.0264404" /></g>
<g stroke="rgb(0, 0, 0)"><path d="M98.0358986,-55.0316221L118.8823972,-56.5252398" /></g>
<g stroke="rgb(0, 0, 0)"><path d="M118.9520341,-56.529416L151.0795246,-58.0814683" /></g>
<g stroke="rgb(0, 0, 0)"><path d="M152.8150738,-58.7403591L157.7779057,-62.7323139" /></g>
<g stroke="rgb(0, 0, 0)"><path d="M159.6727408,-63.394664L166.5146676,-63.3615325" /></g>
<g stroke="rgb(0, 0, 0)"><path d="M168.3939618,-62.6882478L173.3388503,-58.6633127" /></g>
<g stroke="rgb(0, 0, 0)"><path d="M175.0701365,-57.9943989L206.5655504,-56.2855185" /></g>
<g stroke="rgb(0, 0, 0)"><path d="M206.6819051,-56.2769333L227.4663064,-54.3363424" /></g>
<g stroke="rgb(0, 0, 0)"><path d="M227.8026916,-54.323902L248.6921052,-54.724323" /></g>
<g stroke="rgb(0, 0, 0)"><path d="M248.7751959,-54.7270679L288.8227011,-56.6058395" /></g>
<g stroke="rgb(0, 0, 0)"><path d="M288.9457989,-56.6090844L404.1822576,-57.2808513" /></g>
<g stroke="rgb(0, 0, 0)"><path d="M407.1647184,-60.2982885L406.8723345,-110.4545027" /></g>
<g stroke="rgb(0, 0, 0)"><path d="M406.753328,-111.2737763L399.6472208,-135.7398587" /></g>
<g stroke="rgb(0, 0, 0)"><path d="M340.947172,-200.6290769L398.9839731,-136.9234508" /></g>
<g stroke="rgb(0, 0, 0)"><path d="M337.605289,-201.3901256L301.1849301,-186.669732" /></g>
<g stroke="rgb(0, 0, 0)"><path d="M269.2106359,-186.2712441L300.0782301,-186.4511856" /></g>
<g stroke="rgb(0, 0, 0)"><path d="M268.9460191,-186.2580018L250.380213,-184.5043953" /></g>
<g stroke="rgb(0, 0, 0)"><path d="M250.1034234,-184.4911067L218.1554179,-184.4345016" /></g>
<g stroke="rgb(0, 0, 0)"><path d="M217.6243755,-184.4809209L206.7085602,-186.4239008" /></g>
<g stroke="rgb(0, 0, 0)"><path d="M206.3961666,-186.46273L166.1732505,-189.3302868" /></g>
<g stroke="rgb(0, 0, 0)"><path d="M165.9641121,-189.3378787L160.3426935,-189.3457394" /></g>
<g stroke="rgb(0, 0, 0)"><path d="M160.142508,-189.3393334L119.8558477,-186.7017651" /></g>
<g stroke="rgb(0, 0, 0)"><path d="M119.6288101,-186.6781988L108.6049695,-185.1080455" /></g>
<g stroke="rgb(0, 0, 0)"><path d="M108.1283799,-185.0785485L76.1768162,-185.6490973" /></g>
<g stroke="rgb(0, 0, 0)"><path d="M75.8782757,-185.6693534L57.3956966,-187.8537016" /></g>
<g stroke="rgb(0, 0, 0)"><path d="M26.3187039,-188.2317974L57.0784655,-187.8742331" /></g>
<g stroke="rgb(0, 0, 0)"><path d="M23.7657558,-186.8627321L12.8908436,-170.0703536" /></g>
<g stroke="rgb(0, 0, 0)"><path d="M12.4091237,-168.4744924L11.6664523,-104.5855767" /></g>
<g stroke="rgb(0, 0, 0)"><path d="M 25.46733060106173 -58.45792626894888 A 3 3 0 0 1 22.592772785616187 -60.72613277323638" /></g>
<g stroke="rgb(0, 0, 0)"><path d="M 36.60640859893827 -58.32844113105112 A 3 3 0 0 1 36.75437039306271 -58.32306732430547" /></g>
<g stroke="rgb(0, 0, 0)"><path d="M 76.81388609709059 -55.87774011657375 A 3 3 0 0 1 76.75323330693729 -55.88082757569453" /></g>
<g stroke="rgb(0, 0, 0)"><path d="M 98.03589860011613 -55.03162211887955 A 3 3 0 0 1 97.69932319709059 -55.02644041657375" /></g>
<g stroke="rgb(0, 0, 0)"><path d="M 118.88239719988388 -56.525239781120455 A 3 3 0 0 1 118.9520341053045 -56.5294159514067" /></g>
<g stroke="rgb(0, 0, 0)"><path d="M 152.81507377063926 -58.74035913722683 A 3 3 0 0 1 151.0795245946955 -58.081468348593305" /></g>
<g stroke="rgb(0, 0, 0)"><path d="M 157.77790572936075 -62.73231386277317 A 3 3 0 0 1 159.672740801726 -63.3946640265288" /></g>
<g stroke="rgb(0, 0, 0)"><path d="M 166.514667601726 -63.361532526528805 A 3 3 0 0 1 168.39396187152076 -62.688247788453694" /></g>
<g stroke="rgb(0, 0, 0)"><path d="M 175.0701365048613 -57.994398884019404 A 3 3 0 0 1 173.33885022847923 -58.66331261154631" /></g>
<g stroke="rgb(0, 0, 0)"><path d="M 206.5655503951387 -56.2855185159806 A 3 3 0 0 1 206.68190511126903 -56.27693330684939" /></g>
<g stroke="rgb(0, 0, 0)"><path d="M 227.80269160125587 -54.32390200221166 A 3 3 0 0 1 227.46630638873097 -54.33634239315061" /></g>
<g stroke="rgb(0, 0, 0)"><path d="M 248.77519589366494 -54.72706788074077 A 3 3 0 0 1 248.69210520125586 -54.724323002211655" /></g>
<g stroke="rgb(0, 0, 0)"><path d="M 288.82270110633505 -56.60583951925923 A 3 3 0 0 1 288.9457989004598 -56.609084426713096" /></g>
<g stroke="rgb(0, 0, 0)"><path d="M 407.1647184267131 -60.29828849954019 A 3 3 0 0 1 404.1822575995402 -57.280851273286906" /></g>
<g stroke="rgb(0, 0, 0)"><path d="M 406.7533280077899 -111.27377627422808 A 3 3 0 0 1 406.8723345267131 -110.45450269954019" /></g>
<g stroke="rgb(0, 0, 0)"><path d="M 398.98397308743756 -136.92345078726143 A 3 3 0 0 1 399.6472208077899 -135.7398586742281" /></g>
<g stroke="rgb(0, 0, 0)"><path d="M 337.60528897067815 -201.3901256722239 A 3 3 0 0 1 340.94717198743757 -200.62907688726142" /></g>
<g stroke="rgb(0, 0, 0)"><path d="M 301.18493012932186 -186.6697319277761 A 3 3 0 0 1 300.0782300995402 -186.4511855732869" /></g>
<g stroke="rgb(0, 0, 0)"><path d="M 268.9460191023814 -186.25800177631066 A 3 3 0 0 1 269.2106359004598 -186.2712441267131" /></g>
<g stroke="rgb(0, 0, 0)"><path d="M 250.38021299761863 -184.50439532368935 A 3 3 0 0 1 250.10342339920118 -184.49110670891514" /></g>
<g stroke="rgb(0, 0, 0)"><path d="M 218.15541789920118 -184.43450160891513 A 3 3 0 0 1 217.62437558321147 -184.48092089641315" /></g>
<g stroke="rgb(0, 0, 0)"><path d="M 206.39616659937877 -186.46272990374098 A 3 3 0 0 1 206.70856021678853 -186.42390070358684" /></g>
<g stroke="rgb(0, 0, 0)"><path d="M 165.9641120992355 -189.3378786671353 A 3 3 0 0 1 166.17325049937878 -189.330286803741" /></g>
<g stroke="rgb(0, 0, 0)"><path d="M 160.14250800037465 -189.33933340181378 A 3 3 0 0 1 160.3426934992355 -189.3457393671353" /></g>
<g stroke="rgb(0, 0, 0)"><path d="M 119.62881011940232 -186.6781987740415 A 3 3 0 0 1 119.85584770037464 -186.70176510181378" /></g>
<g stroke="rgb(0, 0, 0)"><path d="M 108.60496948059769 -185.10804552595852 A 3 3 0 0 1 108.12837990217476 -185.07854847533144" /></g>
<g stroke="rgb(0, 0, 0)"><path d="M 76.17681620217475 -185.64909727533143 A 3 3 0 0 1 75.87827571079343 -185.66935337509105" /></g>
<g stroke="rgb(0, 0, 0)"><path d="M 57.07846549893827 -187.8742331310511 A 3 3 0 0 1 57.395696589206565 -187.85370152490893" /></g>
<g stroke="rgb(0, 0, 0)"><path d="M 23.765755774943365 -186.86273201697335 A 3 3 0 0 1 26.31870389893827 -188.23179743105112" /></g>
<g stroke="rgb(0, 0, 0)"><path d="M 12.409123668948883 -168.47449239893828 A 3 3 0 0 1 12.890843674943365 -170.07035351697337" /></g>
<g stroke="rgb(0, 0, 0)"><path d="M 11.756820985616187 -103.81911507323638 A 3 3 0 0 1 11.666452268948884 -104.58557669893827" /></g>
  </g>
</svg>