0
SECTION
2
HEADER
9
$INSUNITS
70
4
0
ENDSEC
0
SECTION
2
TABLES
0
TABLE
2
LTYPE
0
LTYPE
72
65
70
64
2
CONTINUOUS
3
______
73
0
40
0
0
ENDTAB
0
TABLE
2
LAYER
0
ENDTAB
0
ENDSEC
0
SECTION
2
ENTITIES
0
LINE
8
0
10
9.2531833
20
-102.8341311
11
20.564568
21
-59.7200095
0
LINE
8
0
10
23.4314904
20
-57.4815243
11
35.5948906
21
-57.3401318
0
LINE
8
0
10
35.7427771
20
-57.3347626
11
75.7590978
21
-54.8924694
0
LINE
8
0
10
75.8198121
20
-54.8893809
11
96.7227889
21
-54.0383226
0
LINE
8
0
10
97.0591297
20
-54.0435029
11
117.9229104
21
-55.5376742
0
LINE
8
0
10
117.9931101
20
-55.5418752
11
151.1746856
21
-57.1375162
0
LINE
8
0
10
152.8310179
20
-57.7343764
11
158.3393489
21
-61.8671685
0
LINE
8
0
10
160.1573668
20
-62.4674398
11
164.0280946
21
-62.4447473
0
LINE
8
0
10
165.8248121
20
-61.8340032
11
171.3171542
21
-57.663249
0
LINE
8
0
10
172.9696089
20
-57.0568224
11
205.5188308
21
-55.2982259
0
LINE
8
0
10
205.6357342
20
-55.2896163
11
226.4374168
21
-53.3483703
0
LINE
8
0
10
226.7735677
20
-53.3359406
11
247.6805344
21
-53.7360152
0
LINE
8
0
10
247.7636587
20
-53.738759
11
287.8286294
21
-55.617483
0
LINE
8
0
10
287.9516627
20
-55.6207249
11
404.1881375
21
-56.2983214
0
LINE
8
0
10
407.1705983
20
-59.3157586
11
406.8665196
21
-111.4781284
0
LINE
8
0
10
406.7508775
20
-112.2857302
11
400.0590231
21
-135.6787642
0
LINE
8
0
10
340.0541148
20
-202.0082745
11
399.392411
21
-136.874028
0
LINE
8
0
10
336.6371526
20
-202.7377856
11
302.2118912
21
-187.7242882
0
LINE
8
0
10
268.2050082
20
-187.2828515
11
301.030112
21
-187.4742043
0
LINE
8
0
10
267.9401241
20
-187.2695839
11
249.3934047
21
-185.5161057
0
LINE
8
0
10
249.1136067
20
-185.5027882
11
216.2278543
21
-185.4745679
0
LINE
8
0
10
215.6134498
20
-185.5376188
11
206.7987694
21
-187.3739085
0
LINE
8
0
10
206.3951977
20
-187.4297232
11
163.1175594
21
-190.4413009
0
LINE
8
0
10
163.1175594
20
-190.4413009
11
161.2001781
21
-190.4381229
0
LINE
8
0
10
161.2001781
20
-190.4381229
11
117.853428
21
-187.6740257
0
LINE
8
0
10
117.5524206
20
-187.6395006
11
108.6134574
21
-186.1536344
0
LINE
8
0
10
108.0716253
20
-186.1134437
11
75.1730462
21
-186.6608532
0
LINE
8
0
10
74.8705403
20
-186.6812095
11
56.4075435
21
-188.8652222
0
LINE
8
0
10
24.2943727
20
-189.2553967
11
56.0899974
21
-188.885791
0
LINE
8
0
10
21.7721002
20
-187.9327496
11
10.4329604
21
-171.1155368
0
LINE
8
0
10
9.9205648
20
-169.4732573
11
9.1551791
21
-103.630314
0
ARC
8
0
10
23.4663612
20
-60.4813216
40
3
50
90.6659982
51
165.2992443
0
ARC
8
0
10
35.5600198
20
-54.3403345
40
3
50
270.6659982
51
273.4925699
0
ARC
8
0
10
75.9418551
20
-57.8868975
40
3
50
92.331493
51
93.4925699
0
ARC
8
0
10
96.8448319
20
-57.0358392
40
3
50
85.9037247
51
92.331493
0
ARC
8
0
10
118.1372082
20
-52.5453379
40
3
50
265.9037247
51
267.2468698
0
ARC
8
0
10
151.0305875
20
-60.1340535
40
3
50
53.1198258
51
87.2468698
0
ARC
8
0
10
160.1397793
20
-59.4674914
40
3
50
233.1198258
51
270.3358984
0
ARC
8
0
10
164.0105071
20
-59.4447989
40
3
50
270.3358984
51
307.2121732
0
ARC
8
0
10
173.1314592
20
-60.0524533
40
3
50
93.0926146
51
127.2121732
0
ARC
8
0
10
205.3569805
20
-52.302595
40
3
50
273.0926146
51
275.331494
0
ARC
8
0
10
226.7161705
20
-56.3353915
40
3
50
88.9037274
51
95.331494
0
ARC
8
0
10
247.6231372
20
-56.7354661
40
3
50
87.3152547
51
88.9037274
0
ARC
8
0
10
287.9691509
20
-52.6207759
40
3
50
267.3152547
51
269.6659981
0
ARC
8
0
10
404.1706493
20
-59.2982704
40
3
50
359.6659981
51
89.6659981
0
ARC
8
0
10
403.8665706
20
-111.4606402
40
3
50
344.0361973
51
359.6659981
0
ARC
8
0
10
397.1747162
20
-134.8536741
40
3
50
317.6660004
51
344.0361973
0
ARC
8
0
10
337.83642
20
-199.9879206
40
3
50
246.4370873
51
317.6660004
0
ARC
8
0
10
301.0126238
20
-190.4741533
40
3
50
66.4370873
51
89.6659981
0
ARC
8
0
10
268.2224964
20
-184.2829025
40
3
50
264.5990916
51
269.6659981
0
ARC
8
0
10
249.1110324
20
-188.5027871
40
3
50
84.5990916
51
89.9508345
0
ARC
8
0
10
216.22528
20
-188.4745668
40
3
50
89.9508345
51
101.7676535
0
ARC
8
0
10
206.1869392
20
-184.4369605
40
3
50
273.9806457
51
281.7676535
0
ARC
8
0
10
118.0443417
20
-184.6801065
40
3
50
260.5623801
51
266.3513515
0
ARC
8
0
10
108.1215363
20
-189.1130285
40
3
50
80.5623801
51
90.9532739
0
ARC
8
0
10
75.2229572
20
-189.660438
40
3
50
90.9532739
51
96.7462439
0
ARC
8
0
10
56.0551266
20
-185.8859937
40
3
50
270.6659982
51
276.7462439
0
ARC
8
0
10
24.2595019
20
-186.2555994
40
3
50
213.9901305
51
270.6659982
0
ARC
8
0
10
12.9203621
20
-169.4383865
40
3
50
180.6659982
51
213.9901305
0
ARC
8
0
10
12.1549764
20
-103.5954432
40
3
50
165.2992443
51
180.6659982
0
ENDSEC
0
EOF