<?xml version="1.0"?>
<svg
  xmlns="http://www.w3.org/2000/svg"
  xmlns:xlink="http://www.w3.org/1999/xlink" version="1.1"
  preserveAspectRatio="xMinYMin meet"
  viewBox="17.0887748 80.776505 385.2658975 144.82005800000002"
  width="100%" height="100%"
>
  <g stroke="#000000" stroke-width="0.1%" fill="none" transform="matrix(1,0,0,-1,0,0)">
    <g stroke="rgb(0, 0, 0)"><path d="M17.1456057,-129.9389626L27.84495,-86.0199604" /></g>
<g stroke="rgb(0, 0, 0)"><path d="M29.7706661,-84.4934225L40.6886578,-84.3981425" /></g>
<g stroke="rgb(0, 0, 0)"><path d="M40.7873594,-84.3948429L80.8104237,-82.0664811" /></g>
<g stroke="rgb(0, 0, 0)"><path d="M80.8508237,-82.0645405L101.7873952,-81.2709496" /></g>
<g stroke="rgb(0, 0, 0)"><path d="M102.0119244,-81.2750556L122.907326,-82.833727" /></g>
<g stroke="rgb(0, 0, 0)"><path d="M122.9473184,-82.8363076L148.0136669,-84.2017156" /></g>
<g stroke="rgb(0, 0, 0)"><path d="M149.226303,-84.697471L154.1542664,-89.0350253" /></g>
<g stroke="rgb(0, 0, 0)"><path d="M155.4767101,-89.5337409L170.8150567,-89.5258771" /></g>
<g stroke="rgb(0, 0, 0)"><path d="M172.1354496,-89.0271614L177.0671955,-84.6862779" /></g>
<g stroke="rgb(0, 0, 0)"><path d="M178.2729327,-84.1909102L202.819364,-82.7687521" /></g>
<g stroke="rgb(0, 0, 0)"><path d="M202.89262,-82.7631561L223.7340837,-80.7854493" /></g>
<g stroke="rgb(0, 0, 0)"><path d="M223.9584845,-80.7768194L244.9009871,-81.1482288" /></g>
<g stroke="rgb(0, 0, 0)"><path d="M244.9563615,-81.1499784L285.0234598,-82.9716709" /></g>
<g stroke="rgb(0, 0, 0)"><path d="M285.1055714,-82.9737159L400.3633989,-83.4766263" /></g>
<g stroke="rgb(0, 0, 0)"><path d="M402.3546533,-85.4853339L402.1392499,-134.8518003" /></g>
<g stroke="rgb(0, 0, 0)"><path d="M402.0946269,-135.2632821L396.5525618,-161.0522072" /></g>
<g stroke="rgb(0, 0, 0)"><path d="M338.8846568,-224.9412967L396.0776401,-161.9767324" /></g>
<g stroke="rgb(0, 0, 0)"><path d="M336.6951267,-225.4666395L298.370275,-210.9346591" /></g>
<g stroke="rgb(0, 0, 0)"><path d="M265.5454676,-210.6645844L297.6699077,-210.8047546" /></g>
<g stroke="rgb(0, 0, 0)"><path d="M265.3692214,-210.6560313L246.6922207,-208.9212273" /></g>
<g stroke="rgb(0, 0, 0)"><path d="M246.5098011,-208.9126568L215.4077184,-208.8729528" /></g>
<g stroke="rgb(0, 0, 0)"><path d="M215.0529598,-208.9042076L204.0801399,-210.8672289" /></g>
<g stroke="rgb(0, 0, 0)"><path d="M203.8770036,-210.8929222L166.5686221,-213.6814413" /></g>
<g stroke="rgb(0, 0, 0)"><path d="M166.4221312,-213.6870027L159.8710458,-213.6954479" /></g>
<g stroke="rgb(0, 0, 0)"><path d="M159.7193986,-213.6898865L122.3752781,-210.8986963" /></g>
<g stroke="rgb(0, 0, 0)"><path d="M122.2478887,-210.8850599L111.2294674,-209.3472291" /></g>
<g stroke="rgb(0, 0, 0)"><path d="M110.920509,-209.3282938L79.8140316,-209.8338414" /></g>
<g stroke="rgb(0, 0, 0)"><path d="M79.617762,-209.8467043L61.0076709,-211.9894801" /></g>
<g stroke="rgb(0, 0, 0)"><path d="M30.4560719,-212.2673065L60.7963543,-212.0025309" /></g>
<g stroke="rgb(0, 0, 0)"><path d="M28.7365087,-211.3175355L17.9307041,-193.8032564" /></g>
<g stroke="rgb(0, 0, 0)"><path d="M17.6328905,-192.7705566L17.088851,-130.4298014" /></g>
<g stroke="rgb(0, 0, 0)"><path d="M 29.770666098813763 -84.49342245326243 A 2 2 0 0 1 27.844950070575806 -86.01996049213643" /></g>
<g stroke="rgb(0, 0, 0)"><path d="M 40.68865780118623 -84.39814254673757 A 2 2 0 0 1 40.78735939782673 -84.3948428783079" /></g>
<g stroke="rgb(0, 0, 0)"><path d="M 80.85082369979905 -82.06454050481612 A 2 2 0 0 1 80.81042370217327 -82.0664811216921" /></g>
<g stroke="rgb(0, 0, 0)"><path d="M 102.01192440556632 -81.27505554689257 A 2 2 0 0 1 101.78739519979905 -81.27094960481612" /></g>
<g stroke="rgb(0, 0, 0)"><path d="M 122.90732599443368 -82.83372705310744 A 2 2 0 0 1 122.94731840004692 -82.83630761698039" /></g>
<g stroke="rgb(0, 0, 0)"><path d="M 149.22630294895222 -84.6974709458197 A 2 2 0 0 1 148.01366689995308 -84.20171558301962" /></g>
<g stroke="rgb(0, 0, 0)"><path d="M 154.15426645104776 -89.0350252541803 A 2 2 0 0 1 155.47671009834391 -89.53374093713954" /></g>
<g stroke="rgb(0, 0, 0)"><path d="M 170.81505669834394 -89.52587713713955 A 2 2 0 0 1 172.13544954895224 -89.0271614541803" /></g>
<g stroke="rgb(0, 0, 0)"><path d="M 178.27293269566937 -84.19091022651335 A 2 2 0 0 1 177.06719545104778 -84.6862778458197" /></g>
<g stroke="rgb(0, 0, 0)"><path d="M 202.81936400433065 -82.76875207348665 A 2 2 0 0 1 202.89262000943756 -82.76315610149727" /></g>
<g stroke="rgb(0, 0, 0)"><path d="M 223.95848450069178 -80.7768194450088 A 2 2 0 0 1 223.73408369056244 -80.78544929850273" /></g>
<g stroke="rgb(0, 0, 0)"><path d="M 244.95636150033192 -81.14997835964225 A 2 2 0 0 1 244.9009871006918 -81.1482288450088" /></g>
<g stroke="rgb(0, 0, 0)"><path d="M 285.0234597996681 -82.97167094035775 A 2 2 0 0 1 285.1055713988836 -82.97371586151762" /></g>
<g stroke="rgb(0, 0, 0)"><path d="M 402.3546532615176 -85.48533390111636 A 2 2 0 0 1 400.3633989011164 -83.47662633848238" /></g>
<g stroke="rgb(0, 0, 0)"><path d="M 402.0946268980494 -135.26328210004016 A 2 2 0 0 1 402.1392498615176 -134.85180030111636" /></g>
<g stroke="rgb(0, 0, 0)"><path d="M 396.07764003854464 -161.97673243295628 A 2 2 0 0 1 396.5525617980494 -161.05220720004016" /></g>
<g stroke="rgb(0, 0, 0)"><path d="M 336.69512678009227 -225.46663945687783 A 2 2 0 0 1 338.88465683854463 -224.94129663295627" /></g>
<g stroke="rgb(0, 0, 0)"><path d="M 298.3702749199077 -210.93465914312216 A 2 2 0 0 1 297.6699077011164 -210.80475463848236" /></g>
<g stroke="rgb(0, 0, 0)"><path d="M 265.3692213894814 -210.65603129459444 A 2 2 0 0 1 265.5454675988836 -210.66458436151763" /></g>
<g stroke="rgb(0, 0, 0)"><path d="M 246.6922207105186 -208.92122730540555 A 2 2 0 0 1 246.50980109958135 -208.9126568297077" /></g>
<g stroke="rgb(0, 0, 0)"><path d="M 215.40771839958134 -208.87295282970769 A 2 2 0 0 1 215.0529598004823 -208.90420760152136" /></g>
<g stroke="rgb(0, 0, 0)"><path d="M 203.87700360497098 -210.89292217083772 A 2 2 0 0 1 204.08013999951768 -210.86722889847863" /></g>
<g stroke="rgb(0, 0, 0)"><path d="M 166.42213119965697 -213.68700273822094 A 2 2 0 0 1 166.568622004971 -213.68144127083772" /></g>
<g stroke="rgb(0, 0, 0)"><path d="M 159.71939859502902 -213.6898864708377 A 2 2 0 0 1 159.87104579965697 -213.69544793822092" /></g>
<g stroke="rgb(0, 0, 0)"><path d="M 122.24788870752529 -210.88505993443812 A 2 2 0 0 1 122.37527809502902 -210.89869627083772" /></g>
<g stroke="rgb(0, 0, 0)"><path d="M 111.2294673924747 -209.34722916556188 A 2 2 0 0 1 110.92050899993502 -209.32829377993562" /></g>
<g stroke="rgb(0, 0, 0)"><path d="M 79.81403159993503 -209.83384137993562 A 2 2 0 0 1 79.61776199436154 -209.84670426240146" /></g>
<g stroke="rgb(0, 0, 0)"><path d="M 60.796354301186234 -212.00253094673758 A 2 2 0 0 1 61.00767090563846 -211.98948013759855" /></g>
<g stroke="rgb(0, 0, 0)"><path d="M 28.736508706884493 -211.3175354938792 A 2 2 0 0 1 30.456071901186238 -212.2673065467376" /></g>
<g stroke="rgb(0, 0, 0)"><path d="M 17.63289045326243 -192.77055660118623 A 2 2 0 0 1 17.93070410688449 -193.8032563938792" /></g>
<g stroke="rgb(0, 0, 0)"><path d="M 17.145605770575806 -129.93896259213645 A 2 2 0 0 1 17.08885095326243 -130.42980140118624" /></g>
  </g>
</svg>