0
SECTION
2
HEADER
9
$INSUNITS
70
4
0
ENDSEC
0
SECTION
2
TABLES
0
TABLE
2
LTYPE
0
LTYPE
72
65
70
64
2
CONTINUOUS
3
______
73
0
40
0
0
ENDTAB
0
TABLE
2
LAYER
0
ENDTAB
0
ENDSEC
0
SECTION
2
ENTITIES
0
LINE
8
0
10
13.2316779
20
-104.9369255
11
23.8037333
21
-60.9871093
0
LINE
8
0
10
25.7250185
20
-59.4549984
11
36.6426895
21
-59.3280868
0
LINE
8
0
10
36.7413811
20
-59.3245012
11
76.7575324
21
-56.8801927
0
LINE
8
0
10
76.7979267
20
-56.8781351
11
97.7321084
21
-56.0238893
0
LINE
8
0
10
97.9566486
20
-56.0273447
11
118.8534746
21
-57.5252551
0
LINE
8
0
10
118.8994966
20
-57.5280212
11
150.3236516
21
-59.0534727
0
LINE
8
0
10
151.5371614
20
-59.5402817
11
156.5005862
21
-63.8454971
0
LINE
8
0
10
157.8197586
20
-64.3346396
11
168.3697945
21
-64.2888048
0
LINE
8
0
10
169.6803213
20
-63.7920435
11
174.621322
21
-59.4558534
0
LINE
8
0
10
175.8316956
20
-58.962037
11
206.6316826
21
-57.283381
0
LINE
8
0
10
206.7088582
20
-57.2776754
11
227.5512497
21
-55.3307084
0
LINE
8
0
10
227.7756631
20
-55.3224076
11
248.7175943
21
-55.7245203
0
LINE
8
0
10
248.7729659
20
-55.726351
11
288.8373551
21
-57.6067826
0
LINE
8
0
10
288.9194635
20
-57.6089479
11
404.1764282
21
-58.2808343
0
LINE
8
0
10
406.1647354
20
-60.2924591
11
405.8773909
21
-109.5842116
0
LINE
8
0
10
405.7959679
20
-110.1375244
11
398.1703394
21
-136.0328031
0
LINE
8
0
10
340.4130207
20
-199.7305138
11
397.7302596
21
-136.8147341
0
LINE
8
0
10
338.1844838
20
-200.2376311
11
302.013536
21
-185.604092
0
LINE
8
0
10
269.1721753
20
-185.2710029
11
301.2751212
21
-185.4581459
0
LINE
8
0
10
268.9959419
20
-185.2621915
11
250.3215035
21
-183.5000073
0
LINE
8
0
10
250.1390965
20
-183.4911694
11
219.0169665
21
-183.4058123
0
LINE
8
0
10
218.7016089
20
-183.4299559
11
205.5894291
21
-185.4863397
0
LINE
8
0
10
205.4257017
20
-185.5051441
11
168.091112
21
-188.2405869
0
LINE
8
0
10
167.9489674
20
-188.2459296
11
158.3542492
21
-188.2651208
0
LINE
8
0
10
158.2156642
20
-188.2605914
11
120.8394668
21
-185.7397489
0
LINE
8
0
10
120.7244064
20
-185.7286405
11
107.5348212
21
-184.0693055
0
LINE
8
0
10
107.2468826
20
-184.0540303
11
76.1313155
21
-184.6499035
0
LINE
8
0
10
75.9350839
20
-184.663335
11
57.3312794
21
-186.8600198
0
LINE
8
0
10
26.7806134
20
-187.2263604
11
57.1200014
21
-186.8736828
0
LINE
8
0
10
25.0583057
20
-186.2815754
11
14.2018033
21
-168.7986769
0
LINE
8
0
10
13.900999
20
-167.7668442
11
13.1763454
21
-105.4279267
0
ARC
8
0
10
25.7482657
20
-61.4548633
40
2
50
90.6659982
51
166.4745651
0
ARC
8
0
10
36.6194423
20
-57.3282219
40
2
50
270.6659982
51
273.4954573
0
ARC
8
0
10
76.8794713
20
-58.876472
40
2
50
92.3367284
51
93.4954573
0
ARC
8
0
10
97.813653
20
-58.0222262
40
2
50
85.8999797
51
92.3367284
0
ARC
8
0
10
118.9964702
20
-55.5303736
40
2
50
265.8999797
51
267.2208212
0
ARC
8
0
10
150.226678
20
-61.0511203
40
2
50
49.0620206
51
87.2208212
0
ARC
8
0
10
157.8110696
20
-62.3346585
40
2
50
229.0620206
51
270.2489223
0
ARC
8
0
10
168.3611055
20
-62.2888237
40
2
50
270.2489223
51
311.2699753
0
ARC
8
0
10
175.9405378
20
-60.9590731
40
2
50
93.1196404
51
131.2699753
0
ARC
8
0
10
206.5228404
20
-55.2863448
40
2
50
273.1196404
51
275.3367306
0
ARC
8
0
10
227.7372675
20
-57.322039
40
2
50
88.8999795
51
95.3367306
0
ARC
8
0
10
248.6791987
20
-57.7241517
40
2
50
87.3127826
51
88.8999795
0
ARC
8
0
10
288.9311223
20
-55.6089819
40
2
50
267.3127826
51
269.6659981
0
ARC
8
0
10
404.1647694
20
-60.2808003
40
2
50
359.6659981
51
89.6659981
0
ARC
8
0
10
403.8774249
20
-109.5725528
40
2
50
343.5913791
51
359.6659981
0
ARC
8
0
10
396.2517964
20
-135.4678315
40
2
50
317.6660004
51
343.5913791
0
ARC
8
0
10
338.9345575
20
-198.3836112
40
2
50
247.9734122
51
317.6660004
0
ARC
8
0
10
301.2634624
20
-187.4581119
40
2
50
67.9734122
51
89.6659981
0
ARC
8
0
10
269.1838341
20
-183.2710369
40
2
50
264.6093356
51
269.6659981
0
ARC
8
0
10
250.1336113
20
-185.4911619
40
2
50
84.6093356
51
89.8428604
0
ARC
8
0
10
219.0114813
20
-185.4058048
40
2
50
89.8428604
51
98.9130959
0
ARC
8
0
10
205.2795567
20
-183.5104908
40
2
50
274.1904809
51
278.9130959
0
ARC
8
0
10
167.944967
20
-186.2459336
40
2
50
270.1146031
51
274.1904809
0
ARC
8
0
10
158.3502488
20
-186.2651248
40
2
50
266.1415194
51
270.1146031
0
ARC
8
0
10
120.9740514
20
-183.7442823
40
2
50
262.8294946
51
266.1415194
0
ARC
8
0
10
107.2851762
20
-186.0536637
40
2
50
82.8294946
51
91.0970979
0
ARC
8
0
10
76.1696091
20
-186.6495369
40
2
50
91.0970979
51
96.7341459
0
ARC
8
0
10
57.0967542
20
-184.8738179
40
2
50
270.6659982
51
276.7341459
0
ARC
8
0
10
26.7573662
20
-185.2264955
40
2
50
211.8393876
51
270.6659982
0
ARC
8
0
10
15.9008639
20
-167.743597
40
2
50
180.6659982
51
211.8393876
0
ARC
8
0
10
15.1762103
20
-105.4046795
40
2
50
166.4745651
51
180.6659982
0
ENDSEC
0
EOF