0
SECTION
2
HEADER
9
$INSUNITS
70
4
0
ENDSEC
0
SECTION
2
TABLES
0
TABLE
2
LTYPE
0
LTYPE
72
65
70
64
2
CONTINUOUS
3
______
73
0
40
0
0
ENDTAB
0
TABLE
2
LAYER
0
ENDTAB
0
ENDSEC
0
SECTION
2
ENTITIES
0
LINE
8
0
10
8.0184618
20
-102.1698206
11
17.7545355
21
-58.6728808
0
LINE
8
0
10
20.53816
20
-56.3316214
11
32.7056996
21
-55.7471725
0
LINE
8
0
10
32.8187669
20
-55.7395987
11
74.8219815
21
-52.1280252
0
LINE
8
0
10
74.9002542
20
-52.1223253
11
95.7745586
21
-50.8764984
0
LINE
8
0
10
96.1109372
20
-50.8753148
11
117.0102901
21
-51.9750936
0
LINE
8
0
10
117.0584665
20
-51.9772406
11
152.2963514
21
-53.2639654
0
LINE
8
0
10
153.9837883
20
-53.8596531
11
159.4946223
21
-57.9817096
0
LINE
8
0
10
161.2916727
20
-58.5793955
11
167.1144177
21
-58.5791233
0
LINE
8
0
10
168.8901558
20
-57.9970266
11
174.4608831
21
-53.9054933
0
LINE
8
0
10
176.1256065
20
-53.3254566
11
210.7678853
21
-52.0410219
0
LINE
8
0
10
210.8354594
20
-52.0377531
11
231.7151659
21
-50.7916039
0
LINE
8
0
10
232.0515445
20
-50.7904203
11
252.9357867
21
-51.8894037
0
LINE
8
0
10
253.0140954
20
-51.8945524
11
295.0699075
21
-55.2126399
0
LINE
8
0
10
295.1332522
20
-55.2169637
11
316.1367753
21
-56.4274679
0
LINE
8
0
10
316.1890194
20
-56.4309366
11
337.1737673
21
-58.0082351
0
LINE
8
0
10
337.225943
20
-58.0126151
11
358.1812255
21
-59.9560248
0
LINE
8
0
10
358.2307927
20
-59.9610371
11
417.0044641
21
-66.3978009
0
LINE
8
0
10
419.6600324
20
-69.7065706
11
414.0371677
21
-121.0485823
0
LINE
8
0
10
413.3342577
20
-122.672617
11
401.7693178
21
-136.1859028
0
LINE
8
0
10
340.7979644
20
-201.0051939
11
401.6751718
21
-136.2908164
0
LINE
8
0
10
337.4995662
20
-201.7354295
11
302.587027
21
-187.7833032
0
LINE
8
0
10
301.6438201
20
-187.5739128
11
287.6571845
21
-186.7796941
0
LINE
8
0
10
287.6045327
20
-186.7771681
11
268.9815796
21
-186.0476657
0
LINE
8
0
10
268.7169343
20
-186.0255354
11
250.2393867
21
-183.6529638
0
LINE
8
0
10
249.9601905
20
-183.6302989
11
217.1145249
21
-182.5032954
0
LINE
8
0
10
216.457941
20
-182.5530725
11
207.8601386
21
-184.1677036
0
LINE
8
0
10
207.4668185
20
-184.2149547
11
164.1409046
21
-186.5345912
0
LINE
8
0
10
164.1409046
20
-186.5345912
11
162.5342171
21
-186.5410566
0
LINE
8
0
10
162.5342171
20
-186.5410566
11
119.1227197
21
-183.836728
0
LINE
8
0
10
118.9419316
20
-183.8199609
11
110.1287618
21
-182.7327195
0
LINE
8
0
10
109.6548008
20
-182.7120445
11
76.7376581
21
-183.8829774
0
LINE
8
0
10
76.4355914
20
-183.9090529
11
57.9910435
21
-186.4455616
0
LINE
8
0
10
57.7266152
20
-186.4700615
11
39.0846208
21
-187.3676999
0
LINE
8
0
10
39.0846208
20
-187.3676999
11
26.1923812
21
-187.9869586
0
LINE
8
0
10
23.6236795
20
-186.7569079
11
11.6804879
21
-170.3631622
0
LINE
8
0
10
11.1087101
20
-168.740602
11
7.9494754
21
-102.9690407
0
ARC
8
0
10
20.6820943
20
-59.3281666
40
3
50
92.7499983
51
167.3832457
0
ARC
8
0
10
32.5617653
20
-52.7506273
40
3
50
272.7499983
51
274.9143926
0
ARC
8
0
10
75.0789831
20
-55.1169966
40
3
50
93.4154929
51
94.9143926
0
ARC
8
0
10
95.9532875
20
-53.8711697
40
3
50
86.987725
51
93.4154929
0
ARC
8
0
10
117.1679398
20
-48.9792387
40
3
50
266.987725
51
267.9087497
0
ARC
8
0
10
152.1868781
20
-56.2619673
40
3
50
53.2038283
51
87.9087497
0
ARC
8
0
10
161.2915326
20
-55.5793955
40
3
50
233.2038283
51
270.0026757
0
ARC
8
0
10
167.1142776
20
-55.5791233
40
3
50
270.0026757
51
306.2961763
0
ARC
8
0
10
176.2367613
20
-56.3233967
40
3
50
92.1233862
51
126.2961763
0
ARC
8
0
10
210.6567305
20
-49.0430818
40
3
50
272.1233862
51
273.4154929
0
ARC
8
0
10
231.8938948
20
-53.7862752
40
3
50
86.987725
51
93.4154929
0
ARC
8
0
10
252.778137
20
-54.8852586
40
3
50
85.4888673
51
86.987725
0
ARC
8
0
10
295.3058659
20
-52.2219337
40
3
50
265.4888673
51
266.7014994
0
ARC
8
0
10
315.9641616
20
-59.4224979
40
3
50
85.7015012
51
86.7014994
0
ARC
8
0
10
336.9489095
20
-60.9997964
40
3
50
84.701501
51
85.7015012
0
ARC
8
0
10
357.904192
20
-62.9432061
40
3
50
83.7499983
51
84.701501
0
ARC
8
0
10
416.6778634
20
-69.3799699
40
3
50
353.7499983
51
83.7499983
0
ARC
8
0
10
411.0549987
20
-120.7219816
40
3
50
319.4424276
51
353.7499983
0
ARC
8
0
10
399.4900588
20
-134.2352674
40
3
50
316.7500008
51
319.4424276
0
ARC
8
0
10
338.6128514
20
-198.9496449
40
3
50
248.2168299
51
316.7500008
0
ARC
8
0
10
301.4737417
20
-190.5690878
40
3
50
68.2168299
51
86.7499994
0
ARC
8
0
10
287.4871061
20
-189.7748691
40
3
50
86.7499994
51
87.7567442
0
ARC
8
0
10
269.0990062
20
-183.0499647
40
3
50
262.6830926
51
267.7567442
0
ARC
8
0
10
249.8573148
20
-186.6285345
40
3
50
82.6830926
51
88.0348337
0
ARC
8
0
10
217.0116492
20
-185.501531
40
3
50
88.0348337
51
100.6360283
0
ARC
8
0
10
207.3064304
20
-181.2192452
40
3
50
273.0646483
51
280.6360283
0
ARC
8
0
10
119.3092438
20
-180.8425322
40
3
50
262.9672069
51
266.435353
0
ARC
8
0
10
109.7614496
20
-185.7101482
40
3
50
82.9672069
51
92.0372713
0
ARC
8
0
10
76.8443069
20
-186.8810811
40
3
50
92.0372713
51
97.8302422
0
ARC
8
0
10
57.582328
20
-183.4735333
40
3
50
272.7567442
51
277.8302422
0
ARC
8
0
10
26.0484469
20
-184.9904134
40
3
50
216.0741322
51
272.7499983
0
ARC
8
0
10
14.1052553
20
-168.5966677
40
3
50
182.7499983
51
216.0741322
0
ARC
8
0
10
10.9460206
20
-102.8251064
40
3
50
167.3832457
51
182.7499983
0
ENDSEC
0
EOF