0
SECTION
2
HEADER
9
$INSUNITS
70
4
0
ENDSEC
0
SECTION
2
TABLES
0
TABLE
2
LTYPE
0
LTYPE
72
65
70
64
2
CONTINUOUS
3
______
73
0
40
0
0
ENDTAB
0
TABLE
2
LAYER
0
ENDTAB
0
ENDSEC
0
SECTION
2
ENTITIES
0
LINE
8
0
10
17.1456057
20
-129.9389626
11
27.84495
21
-86.0199604
0
LINE
8
0
10
29.7706661
20
-84.4934225
11
40.6886578
21
-84.3981425
0
LINE
8
0
10
40.7873594
20
-84.3948429
11
80.8104237
21
-82.0664811
0
LINE
8
0
10
80.8508237
20
-82.0645405
11
101.7873952
21
-81.2709496
0
LINE
8
0
10
102.0119244
20
-81.2750556
11
122.907326
21
-82.833727
0
LINE
8
0
10
122.9473184
20
-82.8363076
11
148.0136669
21
-84.2017156
0
LINE
8
0
10
149.226303
20
-84.697471
11
154.1542664
21
-89.0350253
0
LINE
8
0
10
155.4767101
20
-89.5337409
11
170.8150567
21
-89.5258771
0
LINE
8
0
10
172.1354496
20
-89.0271614
11
177.0671955
21
-84.6862779
0
LINE
8
0
10
178.2729327
20
-84.1909102
11
202.819364
21
-82.7687521
0
LINE
8
0
10
202.89262
20
-82.7631561
11
223.7340837
21
-80.7854493
0
LINE
8
0
10
223.9584845
20
-80.7768194
11
244.9009871
21
-81.1482288
0
LINE
8
0
10
244.9563615
20
-81.1499784
11
285.0234598
21
-82.9716709
0
LINE
8
0
10
285.1055714
20
-82.9737159
11
400.3633989
21
-83.4766263
0
LINE
8
0
10
402.3546533
20
-85.4853339
11
402.1392499
21
-134.8518003
0
LINE
8
0
10
402.0946269
20
-135.2632821
11
396.5525618
21
-161.0522072
0
LINE
8
0
10
338.8846568
20
-224.9412967
11
396.0776401
21
-161.9767324
0
LINE
8
0
10
336.6951267
20
-225.4666395
11
298.370275
21
-210.9346591
0
LINE
8
0
10
265.5454676
20
-210.6645844
11
297.6699077
21
-210.8047546
0
LINE
8
0
10
265.3692214
20
-210.6560313
11
246.6922207
21
-208.9212273
0
LINE
8
0
10
246.5098011
20
-208.9126568
11
215.4077184
21
-208.8729528
0
LINE
8
0
10
215.0529598
20
-208.9042076
11
204.0801399
21
-210.8672289
0
LINE
8
0
10
203.8770036
20
-210.8929222
11
166.5686221
21
-213.6814413
0
LINE
8
0
10
166.4221312
20
-213.6870027
11
159.8710458
21
-213.6954479
0
LINE
8
0
10
159.7193986
20
-213.6898865
11
122.3752781
21
-210.8986963
0
LINE
8
0
10
122.2478887
20
-210.8850599
11
111.2294674
21
-209.3472291
0
LINE
8
0
10
110.920509
20
-209.3282938
11
79.8140316
21
-209.8338414
0
LINE
8
0
10
79.617762
20
-209.8467043
11
61.0076709
21
-211.9894801
0
LINE
8
0
10
30.4560719
20
-212.2673065
11
60.7963543
21
-212.0025309
0
LINE
8
0
10
28.7365087
20
-211.3175355
11
17.9307041
21
-193.8032564
0
LINE
8
0
10
17.6328905
20
-192.7705566
11
17.088851
21
-130.4298014
0
ARC
8
0
10
29.7881191
20
-86.4933463
40
2
50
90.499998
51
166.3085653
0
ARC
8
0
10
40.6712048
20
-82.3982187
40
2
50
270.499998
51
273.3294576
0
ARC
8
0
10
80.9265783
20
-84.0631053
40
2
50
92.1707287
51
93.3294576
0
ARC
8
0
10
101.8631498
20
-83.2695144
40
2
50
85.733981
51
92.1707287
0
ARC
8
0
10
123.0561006
20
-80.8392682
40
2
50
265.733981
51
266.8820809
0
ARC
8
0
10
147.9048847
20
-86.198755
40
2
50
48.6460229
51
86.8820809
0
ARC
8
0
10
155.4756847
20
-87.5337412
40
2
50
228.6460229
51
270.0293755
0
ARC
8
0
10
170.8140313
20
-87.5258774
40
2
50
270.0293755
51
311.3539771
0
ARC
8
0
10
178.3886137
20
-86.1875619
40
2
50
93.3158673
51
131.3539771
0
ARC
8
0
10
202.703683
20
-80.7721004
40
2
50
273.3158673
51
275.4207298
0
ARC
8
0
10
223.9230207
20
-82.776505
40
2
50
88.9839837
51
95.4207298
0
ARC
8
0
10
244.8655233
20
-83.1479144
40
2
50
87.3967817
51
88.9839837
0
ARC
8
0
10
285.114298
20
-80.9737349
40
2
50
267.3967817
51
269.7500005
0
ARC
8
0
10
400.3546723
20
-85.4766073
40
2
50
359.7500005
51
89.7500005
0
ARC
8
0
10
400.1392689
20
-134.8430737
40
2
50
347.8715413
51
359.7500005
0
ARC
8
0
10
394.5972038
20
-160.6319988
40
2
50
317.7499993
51
347.8715413
0
ARC
8
0
10
337.4042206
20
-223.596563
40
2
50
249.2343219
51
317.7499993
0
ARC
8
0
10
297.6611811
20
-212.8047356
40
2
50
69.2343219
51
89.7500005
0
ARC
8
0
10
265.5541942
20
-208.6646034
40
2
50
264.6933356
51
269.7500005
0
ARC
8
0
10
246.5072479
20
-210.9126552
40
2
50
84.6933356
51
89.9268562
0
ARC
8
0
10
215.4051652
20
-210.8729512
40
2
50
89.9268562
51
100.1428348
0
ARC
8
0
10
203.7279346
20
-208.8984853
40
2
50
274.2744764
51
280.1428348
0
ARC
8
0
10
166.419553
20
-211.6870044
40
2
50
270.07386
51
274.2744764
0
ARC
8
0
10
159.8684676
20
-211.6954496
40
2
50
265.7255236
51
270.07386
0
ARC
8
0
10
122.5243471
20
-208.9042594
40
2
50
262.0546096
51
265.7255236
0
ARC
8
0
10
110.953009
20
-211.3280297
40
2
50
82.0546096
51
90.9310974
0
ARC
8
0
10
79.8465316
20
-211.8335773
40
2
50
90.9310974
51
96.5681427
0
ARC
8
0
10
60.7789013
20
-210.0026071
40
2
50
270.499998
51
276.5681427
0
ARC
8
0
10
30.4386189
20
-210.2673827
40
2
50
211.6733864
51
270.499998
0
ARC
8
0
10
19.6328143
20
-192.7531036
40
2
50
180.499998
51
211.6733864
0
ARC
8
0
10
19.0887748
20
-130.4123484
40
2
50
166.3085653
51
180.499998
0
ENDSEC
0
EOF