<?xml version="1.0"?>
<svg
  xmlns="http://www.w3.org/2000/svg"
  xmlns:xlink="http://www.w3.org/1999/xlink" version="1.1"
  preserveAspectRatio="xMinYMin meet"
  viewBox="12.4105191 56.7795693 393.30592820000004 146.05964930000002"
  width="100%" height="100%"
>
  <g stroke="#000000" stroke-width="0.1%" fill="none" transform="matrix(1,0,0,-1,0,0)">
    <g stroke="rgb(0, 0, 0)"><path d="M12.4694341,-105.0302281L23.3603086,-61.158329" /></g>
<g stroke="rgb(0, 0, 0)"><path d="M25.292667,-59.640208L36.2122791,-59.5925619" /></g>
<g stroke="rgb(0, 0, 0)"><path d="M36.3083889,-59.5898313L77.1407823,-57.4465255" /></g>
<g stroke="rgb(0, 0, 0)"><path d="M77.1845375,-57.4447088L98.922729,-56.7805022" /></g>
<g stroke="rgb(0, 0, 0)"><path d="M99.1458004,-56.7861403L119.4295206,-58.4344379" /></g>
<g stroke="rgb(0, 0, 0)"><path d="M119.4795381,-58.437872L149.8912196,-60.1431855" /></g>
<g stroke="rgb(0, 0, 0)"><path d="M151.1006652,-60.6387645L156.0329106,-64.9800877" /></g>
<g stroke="rgb(0, 0, 0)"><path d="M157.3484967,-65.4787952L167.8985873,-65.5095601" /></g>
<g stroke="rgb(0, 0, 0)"><path d="M169.2126865,-65.0223268L174.1850396,-60.7221255" /></g>
<g stroke="rgb(0, 0, 0)"><path d="M175.3989668,-60.2371099L206.2137768,-58.781959" /></g>
<g stroke="rgb(0, 0, 0)"><path d="M206.2841202,-58.7773935L228.3456591,-56.9546202" /></g>
<g stroke="rgb(0, 0, 0)"><path d="M228.5652393,-56.9485821L249.5056289,-57.5235813" /></g>
<g stroke="rgb(0, 0, 0)"><path d="M249.5625977,-57.5259586L288.4096926,-59.7021949" /></g>
<g stroke="rgb(0, 0, 0)"><path d="M288.4953792,-59.7051545L403.7426265,-61.2138235" /></g>
<g stroke="rgb(0, 0, 0)"><path d="M405.716276,-63.2398314L405.0710559,-112.5281987" /></g>
<g stroke="rgb(0, 0, 0)"><path d="M404.9856176,-113.0809057L397.1721777,-138.9201355" /></g>
<g stroke="rgb(0, 0, 0)"><path d="M338.9539036,-202.1968201L396.7264323,-139.6988507" /></g>
<g stroke="rgb(0, 0, 0)"><path d="M336.7217436,-202.6877437L300.6579962,-187.791971" /></g>
<g stroke="rgb(0, 0, 0)"><path d="M268.0200846,-187.2230661L299.9206604,-187.6406673" /></g>
<g stroke="rgb(0, 0, 0)"><path d="M267.8435548,-187.2129381L249.1826715,-185.3117828" /></g>
<g stroke="rgb(0, 0, 0)"><path d="M249.0001911,-185.3015858L217.8777881,-184.9867891" /></g>
<g stroke="rgb(0, 0, 0)"><path d="M217.5656808,-185.0080997L204.235484,-186.9745531" /></g>
<g stroke="rgb(0, 0, 0)"><path d="M204.0752642,-186.9916279L166.7199592,-189.4560518" /></g>
<g stroke="rgb(0, 0, 0)"><path d="M166.5777796,-189.4603623L156.9831763,-189.4098905" /></g>
<g stroke="rgb(0, 0, 0)"><path d="M156.8446281,-189.4043551L119.4908161,-186.6124405" /></g>
<g stroke="rgb(0, 0, 0)"><path d="M119.3696839,-186.5996674L106.5980195,-184.8582417" /></g>
<g stroke="rgb(0, 0, 0)"><path d="M106.3048025,-184.8400379L74.9877311,-185.2004543" /></g>
<g stroke="rgb(0, 0, 0)"><path d="M74.7932055,-185.2121882L55.9718034,-187.2716244" /></g>
<g stroke="rgb(0, 0, 0)"><path d="M25.4205494,-187.4158663L55.7629886,-187.2834717" /></g>
<g stroke="rgb(0, 0, 0)"><path d="M23.7051467,-186.4586013L12.9758653,-168.8973399" /></g>
<g stroke="rgb(0, 0, 0)"><path d="M12.6825605,-167.8633506L12.4105381,-105.5208147" /></g>
<g stroke="rgb(0, 0, 0)"><path d="M 25.292666998883636 -59.64020803848238 A 2 2 0 0 1 23.360308608609238 -61.15832900353056" /></g>
<g stroke="rgb(0, 0, 0)"><path d="M 36.212279101116366 -59.59256186151762 A 2 2 0 0 1 36.308388903585005 -59.589831342103686" /></g>
<g stroke="rgb(0, 0, 0)"><path d="M 77.18453749721105 -57.44470884593056 A 2 2 0 0 1 77.14078229641498 -57.446525457896314" /></g>
<g stroke="rgb(0, 0, 0)"><path d="M 99.14580040015315 -56.786140300749125 A 2 2 0 0 1 98.92272899721105 -56.78050224593056" /></g>
<g stroke="rgb(0, 0, 0)"><path d="M 119.42952059984684 -58.434437899250874 A 2 2 0 0 1 119.479538194683 -58.43787197383819" /></g>
<g stroke="rgb(0, 0, 0)"><path d="M 151.10066524895223 -60.6387645458197 A 2 2 0 0 1 149.891219605317 -60.14318552616181" /></g>
<g stroke="rgb(0, 0, 0)"><path d="M 156.03291065104779 -64.9800877541803 A 2 2 0 0 1 157.3484966985841 -65.47879519633858" /></g>
<g stroke="rgb(0, 0, 0)"><path d="M 167.8985872985841 -65.50956009633859 A 2 2 0 0 1 169.21268651457126 -65.02232681550727" /></g>
<g stroke="rgb(0, 0, 0)"><path d="M 175.39896680077447 -60.2371099384639 A 2 2 0 0 1 174.18503958542874 -60.72212548449273" /></g>
<g stroke="rgb(0, 0, 0)"><path d="M 206.21377679922554 -58.7819589615361 A 2 2 0 0 1 206.28412019501772 -58.77739352962306" /></g>
<g stroke="rgb(0, 0, 0)"><path d="M 228.5652393016463 -56.94858206216142 A 2 2 0 0 1 228.34565910498227 -56.95462017037694" /></g>
<g stroke="rgb(0, 0, 0)"><path d="M 249.56259770170746 -57.52595864009438 A 2 2 0 0 1 249.5056289016463 -57.52358126216142" /></g>
<g stroke="rgb(0, 0, 0)"><path d="M 288.40969259829257 -59.70219485990562 A 2 2 0 0 1 288.4953791983862 -59.705154455010934" /></g>
<g stroke="rgb(0, 0, 0)"><path d="M 405.716275955011 -63.23983140161376 A 2 2 0 0 1 403.7426265016138 -61.21382354498906" /></g>
<g stroke="rgb(0, 0, 0)"><path d="M 404.98561763950346 -113.08090571087213 A 2 2 0 0 1 405.07105585501097 -112.52819870161377" /></g>
<g stroke="rgb(0, 0, 0)"><path d="M 396.7264323544133 -139.69885075261683 A 2 2 0 0 1 397.17217773950347 -138.92013551087211" /></g>
<g stroke="rgb(0, 0, 0)"><path d="M 336.721743584371 -202.68774363929728 A 2 2 0 0 1 338.9539036544133 -202.19682005261686" /></g>
<g stroke="rgb(0, 0, 0)"><path d="M 300.657996215629 -187.79197096070274 A 2 2 0 0 1 299.92066040161376 -187.64066734498908" /></g>
<g stroke="rgb(0, 0, 0)"><path d="M 267.84355480491826 -187.21293814717603 A 2 2 0 0 1 268.02008459838623 -187.22306605501092" /></g>
<g stroke="rgb(0, 0, 0)"><path d="M 249.1826714950818 -185.31178275282394 A 2 2 0 0 1 249.00019110056954 -185.30158580168666" /></g>
<g stroke="rgb(0, 0, 0)"><path d="M 217.87778810056955 -184.98678910168667 A 2 2 0 0 1 217.56568088786125 -185.0080997092264" /></g>
<g stroke="rgb(0, 0, 0)"><path d="M 204.07526419776124 -186.99162778521614 A 2 2 0 0 1 204.23548401213876 -186.9745530907736" /></g>
<g stroke="rgb(0, 0, 0)"><path d="M 166.57777960030052 -189.46036232800196 A 2 2 0 0 1 166.71995919776126 -189.45605178521612" /></g>
<g stroke="rgb(0, 0, 0)"><path d="M 156.844628095029 -189.4043550708377 A 2 2 0 0 1 156.9831763003005 -189.40989052800197" /></g>
<g stroke="rgb(0, 0, 0)"><path d="M 119.36968390474921 -186.59966737422738 A 2 2 0 0 1 119.49081609502902 -186.61244047083773" /></g>
<g stroke="rgb(0, 0, 0)"><path d="M 106.5980194952508 -184.85824172577261 A 2 2 0 0 1 106.30480250192545 -184.84003793612507" /></g>
<g stroke="rgb(0, 0, 0)"><path d="M 74.98773110192545 -185.2004543361251 A 2 2 0 0 1 74.79320550584283 -185.2121881666138" /></g>
<g stroke="rgb(0, 0, 0)"><path d="M 55.76298860111636 -187.2834716615176 A 2 2 0 0 1 55.97180339415717 -187.2716244333862" /></g>
<g stroke="rgb(0, 0, 0)"><path d="M 23.705146666490943 -186.4586012609935 A 2 2 0 0 1 25.420549401116364 -187.41586626151764" /></g>
<g stroke="rgb(0, 0, 0)"><path d="M 12.682560538482376 -167.86335060111637 A 2 2 0 0 1 12.975865366490943 -168.8973399609935" /></g>
<g stroke="rgb(0, 0, 0)"><path d="M 12.469434108609239 -105.03022810353056 A 2 2 0 0 1 12.410538138482377 -105.52081470111636" /></g>
  </g>
</svg>