<?xml version="1.0"?>
<svg
  xmlns="http://www.w3.org/2000/svg"
  xmlns:xlink="http://www.w3.org/1999/xlink" version="1.1"
  preserveAspectRatio="xMinYMin meet"
  viewBox="12.4105191 56.7795693 394.758439 146.0656256"
  width="100%" height="100%"
>
  <g stroke="#000000" stroke-width="0.1%" fill="none" transform="matrix(1,0,0,-1,0,0)">
    <g stroke="rgb(0, 0, 0)"><path d="M12.4694341,-105.0302281L23.3603086,-61.158329" /></g>
<g stroke="rgb(0, 0, 0)"><path d="M25.292667,-59.640208L36.2122791,-59.5925619" /></g>
<g stroke="rgb(0, 0, 0)"><path d="M36.3083889,-59.5898313L77.1407823,-57.4465255" /></g>
<g stroke="rgb(0, 0, 0)"><path d="M77.1845375,-57.4447088L98.922729,-56.7805022" /></g>
<g stroke="rgb(0, 0, 0)"><path d="M99.1458004,-56.7861403L119.4295206,-58.4344379" /></g>
<g stroke="rgb(0, 0, 0)"><path d="M119.4795381,-58.437872L149.8912196,-60.1431855" /></g>
<g stroke="rgb(0, 0, 0)"><path d="M151.1006652,-60.6387645L156.0329106,-64.9800877" /></g>
<g stroke="rgb(0, 0, 0)"><path d="M157.3484967,-65.4787952L167.8985873,-65.5095601" /></g>
<g stroke="rgb(0, 0, 0)"><path d="M169.2126865,-65.0223268L174.1850396,-60.7221255" /></g>
<g stroke="rgb(0, 0, 0)"><path d="M175.3989668,-60.2371099L206.2137768,-58.781959" /></g>
<g stroke="rgb(0, 0, 0)"><path d="M206.2841202,-58.7773935L228.3456591,-56.9546202" /></g>
<g stroke="rgb(0, 0, 0)"><path d="M228.5652393,-56.9485821L249.5069839,-57.5236185" /></g>
<g stroke="rgb(0, 0, 0)"><path d="M249.5612501,-57.5258463L289.932435,-59.7326612" /></g>
<g stroke="rgb(0, 0, 0)"><path d="M289.9892442,-59.7349572L405.2213121,-62.752415" /></g>
<g stroke="rgb(0, 0, 0)"><path d="M407.1682727,-64.8040836L405.8788225,-114.0461958" /></g>
<g stroke="rgb(0, 0, 0)"><path d="M405.7652861,-114.6600555L397.176243,-138.9721126" /></g>
<g stroke="rgb(0, 0, 0)"><path d="M338.9483792,-202.2027963L396.75911,-139.6635003" /></g>
<g stroke="rgb(0, 0, 0)"><path d="M336.7263828,-202.6978853L300.4735848,-187.9565674" /></g>
<g stroke="rgb(0, 0, 0)"><path d="M299.7725872,-187.8099432L274.1352115,-187.1386049" /></g>
<g stroke="rgb(0, 0, 0)"><path d="M274.0554917,-187.1381067L268.046925,-187.2203295" /></g>
<g stroke="rgb(0, 0, 0)"><path d="M267.81685,-187.2102174L249.1826715,-185.3117828" /></g>
<g stroke="rgb(0, 0, 0)"><path d="M249.0001911,-185.3015858L217.8777881,-184.9867891" /></g>
<g stroke="rgb(0, 0, 0)"><path d="M217.5656808,-185.0080997L204.235484,-186.9745531" /></g>
<g stroke="rgb(0, 0, 0)"><path d="M204.0752642,-186.9916279L166.7199592,-189.4560518" /></g>
<g stroke="rgb(0, 0, 0)"><path d="M166.5777796,-189.4603623L156.9831763,-189.4098905" /></g>
<g stroke="rgb(0, 0, 0)"><path d="M156.8446281,-189.4043551L119.4908161,-186.6124405" /></g>
<g stroke="rgb(0, 0, 0)"><path d="M119.3696839,-186.5996674L106.5980195,-184.8582417" /></g>
<g stroke="rgb(0, 0, 0)"><path d="M106.3048025,-184.8400379L74.9877311,-185.2004543" /></g>
<g stroke="rgb(0, 0, 0)"><path d="M74.7932055,-185.2121882L55.9718034,-187.2716244" /></g>
<g stroke="rgb(0, 0, 0)"><path d="M25.4205494,-187.4158663L55.7629886,-187.2834717" /></g>
<g stroke="rgb(0, 0, 0)"><path d="M23.7051467,-186.4586013L12.9758653,-168.8973399" /></g>
<g stroke="rgb(0, 0, 0)"><path d="M12.6825605,-167.8633506L12.4105381,-105.5208147" /></g>
<g stroke="rgb(0, 0, 0)"><path d="M 25.292666998883636 -59.64020803848238 A 2 2 0 0 1 23.360308608609238 -61.15832900353056" /></g>
<g stroke="rgb(0, 0, 0)"><path d="M 36.212279101116366 -59.59256186151762 A 2 2 0 0 1 36.308388903585005 -59.589831342103686" /></g>
<g stroke="rgb(0, 0, 0)"><path d="M 77.18453749721105 -57.44470884593056 A 2 2 0 0 1 77.14078229641498 -57.446525457896314" /></g>
<g stroke="rgb(0, 0, 0)"><path d="M 99.14580040015315 -56.786140300749125 A 2 2 0 0 1 98.92272899721105 -56.78050224593056" /></g>
<g stroke="rgb(0, 0, 0)"><path d="M 119.42952059984684 -58.434437899250874 A 2 2 0 0 1 119.479538194683 -58.43787197383819" /></g>
<g stroke="rgb(0, 0, 0)"><path d="M 151.10066524895223 -60.6387645458197 A 2 2 0 0 1 149.891219605317 -60.14318552616181" /></g>
<g stroke="rgb(0, 0, 0)"><path d="M 156.03291065104779 -64.9800877541803 A 2 2 0 0 1 157.3484966985841 -65.47879519633858" /></g>
<g stroke="rgb(0, 0, 0)"><path d="M 167.8985872985841 -65.50956009633859 A 2 2 0 0 1 169.21268651457126 -65.02232681550727" /></g>
<g stroke="rgb(0, 0, 0)"><path d="M 175.39896680077447 -60.2371099384639 A 2 2 0 0 1 174.18503958542874 -60.72212548449273" /></g>
<g stroke="rgb(0, 0, 0)"><path d="M 206.21377679922554 -58.7819589615361 A 2 2 0 0 1 206.28412019501772 -58.77739352962306" /></g>
<g stroke="rgb(0, 0, 0)"><path d="M 228.5652393016463 -56.94858206216142 A 2 2 0 0 1 228.34565910498227 -56.95462017037694" /></g>
<g stroke="rgb(0, 0, 0)"><path d="M 249.5612501005118 -57.525846273233086 A 2 2 0 0 1 249.50698390164632 -57.52361846216142" /></g>
<g stroke="rgb(0, 0, 0)"><path d="M 289.93243499948824 -59.732661226766915 A 2 2 0 0 1 289.9892441987004 -59.73495724720987" /></g>
<g stroke="rgb(0, 0, 0)"><path d="M 407.16827274720987 -64.80408360129962 A 2 2 0 0 1 405.2213121012996 -62.75241495279013" /></g>
<g stroke="rgb(0, 0, 0)"><path d="M 405.765286042196 -114.66005557831427 A 2 2 0 0 1 405.8788225472099 -114.04619580129962" /></g>
<g stroke="rgb(0, 0, 0)"><path d="M 396.7591099544133 -139.66350025261684 A 2 2 0 0 1 397.176243042196 -138.97211257831427" /></g>
<g stroke="rgb(0, 0, 0)"><path d="M 336.72638280493976 -202.69788528847855 A 2 2 0 0 1 338.9483792544133 -202.20279635261684" /></g>
<g stroke="rgb(0, 0, 0)"><path d="M 300.4735847950602 -187.95656741152146 A 2 2 0 0 1 299.77258720240025 -187.80994314758178" /></g>
<g stroke="rgb(0, 0, 0)"><path d="M 274.13521150240024 -187.13860484758177 A 2 2 0 0 1 274.05549170057435 -187.13810673324522" /></g>
<g stroke="rgb(0, 0, 0)"><path d="M 267.81685000491825 -187.21021744717603 A 2 2 0 0 1 268.04692499942564 -187.22032946675478" /></g>
<g stroke="rgb(0, 0, 0)"><path d="M 249.1826714950818 -185.31178275282394 A 2 2 0 0 1 249.00019110056954 -185.30158580168666" /></g>
<g stroke="rgb(0, 0, 0)"><path d="M 217.87778810056955 -184.98678910168667 A 2 2 0 0 1 217.56568088786125 -185.0080997092264" /></g>
<g stroke="rgb(0, 0, 0)"><path d="M 204.07526419776124 -186.99162778521614 A 2 2 0 0 1 204.23548401213876 -186.9745530907736" /></g>
<g stroke="rgb(0, 0, 0)"><path d="M 166.57777960030052 -189.46036232800196 A 2 2 0 0 1 166.71995919776126 -189.45605178521612" /></g>
<g stroke="rgb(0, 0, 0)"><path d="M 156.844628095029 -189.4043550708377 A 2 2 0 0 1 156.9831763003005 -189.40989052800197" /></g>
<g stroke="rgb(0, 0, 0)"><path d="M 119.36968390474921 -186.59966737422738 A 2 2 0 0 1 119.49081609502902 -186.61244047083773" /></g>
<g stroke="rgb(0, 0, 0)"><path d="M 106.5980194952508 -184.85824172577261 A 2 2 0 0 1 106.30480250192545 -184.84003793612507" /></g>
<g stroke="rgb(0, 0, 0)"><path d="M 74.98773110192545 -185.2004543361251 A 2 2 0 0 1 74.79320550584283 -185.2121881666138" /></g>
<g stroke="rgb(0, 0, 0)"><path d="M 55.76298860111636 -187.2834716615176 A 2 2 0 0 1 55.97180339415717 -187.2716244333862" /></g>
<g stroke="rgb(0, 0, 0)"><path d="M 23.705146666490943 -186.4586012609935 A 2 2 0 0 1 25.420549401116364 -187.41586626151764" /></g>
<g stroke="rgb(0, 0, 0)"><path d="M 12.682560538482376 -167.86335060111637 A 2 2 0 0 1 12.975865366490943 -168.8973399609935" /></g>
<g stroke="rgb(0, 0, 0)"><path d="M 12.469434108609239 -105.03022810353056 A 2 2 0 0 1 12.410538138482377 -105.52081470111636" /></g>
  </g>
</svg>