0
SECTION
2
HEADER
9
$INSUNITS
70
4
0
ENDSEC
0
SECTION
2
TABLES
0
TABLE
2
LTYPE
0
LTYPE
72
65
70
64
2
CONTINUOUS
3
______
73
0
40
0
0
ENDTAB
0
TABLE
2
LAYER
0
ENDTAB
0
ENDSEC
0
SECTION
2
ENTITIES
0
LINE
8
0
10
11.0027319
20
-103.901739
11
22.1512749
21
-60.8885672
0
LINE
8
0
10
25.0422252
20
-58.6412913
11
36.1839049
21
-58.5926762
0
LINE
8
0
10
36.327997
20
-58.5885843
11
77.1429176
21
-56.4471854
0
LINE
8
0
10
77.2086029
20
-56.4444605
11
98.8975369
21
-55.7826644
0
LINE
8
0
10
99.2319124
20
-55.7911167
11
119.464684
21
-57.4345495
0
LINE
8
0
10
119.5403503
20
-57.4397338
11
150.6542422
21
-59.1766447
0
LINE
8
0
10
152.3842603
20
-59.84808
11
157.3182787
21
-63.8762079
0
LINE
8
0
10
159.2082547
20
-64.5522979
11
166.0502417
21
-64.5688431
0
LINE
8
0
10
167.934375
20
-63.9092207
11
172.9083562
21
-59.9202941
0
LINE
8
0
10
174.6444535
20
-59.263968
11
206.156604
21
-57.7835629
0
LINE
8
0
10
206.2627263
20
-57.7766905
11
228.2691426
21
-55.9593709
0
LINE
8
0
10
228.5982912
20
-55.950321
11
249.4870001
21
-56.5232005
0
LINE
8
0
10
249.5724845
20
-56.5267654
11
288.4014117
21
-58.7010849
0
LINE
8
0
10
288.5298723
20
-58.7055203
11
403.7557161
21
-60.2139092
0
LINE
8
0
10
406.7161903
20
-63.252921
11
406.0596546
21
-113.4056905
0
LINE
8
0
10
405.9347027
20
-114.2240788
11
398.6511469
21
-138.6379222
0
LINE
8
0
10
339.481517
20
-203.0992375
11
397.9793232
21
-139.8166672
0
LINE
8
0
10
336.1341965
20
-203.8360026
11
299.8216747
21
-188.8515667
0
LINE
8
0
10
268.0513748
20
-188.2235613
11
298.7165905
21
-188.6249909
0
LINE
8
0
10
267.7863128
20
-188.2083422
11
249.2341277
21
-186.3165835
0
LINE
8
0
10
248.9572172
20
-186.3012327
11
217.0069115
21
-186.0091918
0
LINE
8
0
10
216.4826258
20
-186.0504985
11
205.3459333
21
-187.9208082
0
LINE
8
0
10
205.0406692
20
-187.9561154
11
164.7942377
21
-190.5317983
0
LINE
8
0
10
164.5850498
20
-190.5378716
11
158.963721
21
-190.5049177
0
LINE
8
0
10
158.7635875
20
-190.4970584
11
118.5035109
21
-187.5675217
0
LINE
8
0
10
118.2640371
20
-187.54039
11
107.6635982
21
-185.9058116
0
LINE
8
0
10
107.1757019
20
-185.8709263
11
75.0254894
21
-186.1999724
0
LINE
8
0
10
74.7295715
20
-186.2176484
11
56.028367
21
-188.2658868
0
LINE
8
0
10
24.9513521
20
-188.4179231
11
55.7148366
21
-188.2836914
0
LINE
8
0
10
22.4084114
20
-187.0303582
11
11.6557071
21
-170.159465
0
LINE
8
0
10
11.1855866
20
-168.5601484
11
10.9068006
21
-104.6675244
0
ARC
8
0
10
25.0553151
20
-61.6412627
40
3
50
90.2499995
51
165.4693129
0
ARC
8
0
10
36.170815
20
-55.5927048
40
3
50
270.2499995
51
273.0033302
0
ARC
8
0
10
77.3000996
20
-59.4430649
40
3
50
91.7477293
51
93.0033302
0
ARC
8
0
10
98.9890336
20
-58.7812688
40
3
50
85.3562744
51
91.7477293
0
ARC
8
0
10
119.7075628
20
-54.4443974
40
3
50
265.3562744
51
266.8048208
0
ARC
8
0
10
150.4870297
20
-62.1719811
40
3
50
50.7718333
51
86.8048208
0
ARC
8
0
10
159.2155093
20
-61.5523068
40
3
50
230.7718333
51
269.8614472
0
ARC
8
0
10
166.0574963
20
-61.5688519
40
3
50
269.8614472
51
308.7281664
0
ARC
8
0
10
174.7852348
20
-62.2606629
40
3
50
92.6897126
51
128.7281664
0
ARC
8
0
10
206.0158227
20
-54.786868
40
3
50
272.6897126
51
274.7208511
0
ARC
8
0
10
228.5160462
20
-58.9491934
40
3
50
88.4290393
51
94.7208511
0
ARC
8
0
10
249.4047551
20
-59.5220729
40
3
50
86.7949331
51
88.4290393
0
ARC
8
0
10
288.5691411
20
-55.7057773
40
3
50
266.7949331
51
269.2499997
0
ARC
8
0
10
403.7164473
20
-63.2136522
40
3
50
359.2499997
51
89.2499997
0
ARC
8
0
10
403.0599116
20
-113.3664217
40
3
50
343.3882012
51
359.2499997
0
ARC
8
0
10
395.7763557
20
-137.7802651
40
3
50
317.2500015
51
343.3882012
0
ARC
8
0
10
337.2785495
20
-201.0628353
40
3
50
247.5764109
51
317.2500015
0
ARC
8
0
10
298.6773217
20
-191.6247339
40
3
50
67.5764109
51
89.2499997
0
ARC
8
0
10
268.0906436
20
-185.2238183
40
3
50
264.1776946
51
269.2499997
0
ARC
8
0
10
248.9297969
20
-189.3011074
40
3
50
84.1776946
51
89.4763035
0
ARC
8
0
10
216.9794912
20
-189.0090665
40
3
50
89.4763035
51
99.5333584
0
ARC
8
0
10
204.8490679
20
-184.9622402
40
3
50
273.6618076
51
279.5333584
0
ARC
8
0
10
164.6026364
20
-187.5379231
40
3
50
269.6641188
51
273.6618076
0
ARC
8
0
10
158.9813076
20
-187.5049692
40
3
50
265.8381918
51
269.6641188
0
ARC
8
0
10
118.7212311
20
-184.5754325
40
3
50
261.2340801
51
265.8381918
0
ARC
8
0
10
107.2064042
20
-188.8707692
40
3
50
81.2340801
51
90.586381
0
ARC
8
0
10
75.0561917
20
-189.1998153
40
3
50
90.586381
51
96.2503762
0
ARC
8
0
10
55.7017467
20
-185.28372
40
3
50
270.2499995
51
276.2503762
0
ARC
8
0
10
24.9382622
20
-185.4179517
40
3
50
212.5114958
51
270.2499995
0
ARC
8
0
10
14.185558
20
-168.5470585
40
3
50
180.2499995
51
212.5114958
0
ARC
8
0
10
13.906772
20
-104.6544345
40
3
50
165.4693129
51
180.2499995
0
ENDSEC
0
EOF