<?xml version="1.0"?>
<svg
  xmlns="http://www.w3.org/2000/svg"
  xmlns:xlink="http://www.w3.org/1999/xlink" version="1.1"
  preserveAspectRatio="xMinYMin meet"
  viewBox="12.8707637 55.8123631 385.2658975 144.8200579"
  width="100%" height="100%"
>
  <g stroke="#000000" stroke-width="0.1%" fill="none" transform="matrix(1,0,0,-1,0,0)">
    <g stroke="rgb(0, 0, 0)"><path d="M12.9275946,-104.9748206L23.6269389,-61.0558185" /></g>
<g stroke="rgb(0, 0, 0)"><path d="M25.552655,-59.5292806L36.4706467,-59.4340006" /></g>
<g stroke="rgb(0, 0, 0)"><path d="M36.5693483,-59.430701L76.5924126,-57.1023392" /></g>
<g stroke="rgb(0, 0, 0)"><path d="M76.6328126,-57.1003986L97.5693841,-56.3068077" /></g>
<g stroke="rgb(0, 0, 0)"><path d="M97.7939133,-56.3109137L118.6880646,-57.8694919" /></g>
<g stroke="rgb(0, 0, 0)"><path d="M118.7305606,-57.8722073L150.0494945,-59.5388298" /></g>
<g stroke="rgb(0, 0, 0)"><path d="M151.2646342,-60.03472L156.1902746,-64.3702295" /></g>
<g stroke="rgb(0, 0, 0)"><path d="M157.5156756,-64.8689415L160.3434475,-64.8633101" /></g>
<g stroke="rgb(0, 0, 0)"><path d="M161.6608829,-64.3645982L166.5922509,-60.0240473" /></g>
<g stroke="rgb(0, 0, 0)"><path d="M167.8018993,-59.528457L198.5993909,-57.8046479" /></g>
<g stroke="rgb(0, 0, 0)"><path d="M198.6765581,-57.7988292L219.5160726,-55.8213074" /></g>
<g stroke="rgb(0, 0, 0)"><path d="M219.7404734,-55.8126775L240.682976,-56.1840868" /></g>
<g stroke="rgb(0, 0, 0)"><path d="M240.7383504,-56.1858364L280.8054487,-58.007529" /></g>
<g stroke="rgb(0, 0, 0)"><path d="M280.8875603,-58.009574L396.1453878,-58.5124844" /></g>
<g stroke="rgb(0, 0, 0)"><path d="M398.1366422,-60.521192L397.9212388,-109.8876583" /></g>
<g stroke="rgb(0, 0, 0)"><path d="M397.8766158,-110.2991401L392.3345507,-136.0880653" /></g>
<g stroke="rgb(0, 0, 0)"><path d="M334.6666457,-199.9771547L391.859629,-137.0125905" /></g>
<g stroke="rgb(0, 0, 0)"><path d="M332.4771156,-200.5024975L294.1522639,-185.9705171" /></g>
<g stroke="rgb(0, 0, 0)"><path d="M261.3274564,-185.7004425L293.4518966,-185.8406126" /></g>
<g stroke="rgb(0, 0, 0)"><path d="M261.1512102,-185.6918894L242.4742096,-183.9570854" /></g>
<g stroke="rgb(0, 0, 0)"><path d="M242.29179,-183.9485149L211.1897073,-183.9088109" /></g>
<g stroke="rgb(0, 0, 0)"><path d="M210.8349487,-183.9400657L199.8621289,-185.9030869" /></g>
<g stroke="rgb(0, 0, 0)"><path d="M199.6589925,-185.9287802L162.3506109,-188.7172993" /></g>
<g stroke="rgb(0, 0, 0)"><path d="M162.2041203,-188.7228607L155.6530349,-188.731306" /></g>
<g stroke="rgb(0, 0, 0)"><path d="M155.5013875,-188.7257446L118.157267,-185.9345544" /></g>
<g stroke="rgb(0, 0, 0)"><path d="M118.0298776,-185.920918L107.0114563,-184.3830871" /></g>
<g stroke="rgb(0, 0, 0)"><path d="M106.7024979,-184.3641518L75.5960205,-184.8696995" /></g>
<g stroke="rgb(0, 0, 0)"><path d="M75.3997509,-184.8825624L56.7896598,-187.0253382" /></g>
<g stroke="rgb(0, 0, 0)"><path d="M26.2380608,-187.3031646L56.5783432,-187.038389" /></g>
<g stroke="rgb(0, 0, 0)"><path d="M24.5184976,-186.3533936L13.712693,-168.8391144" /></g>
<g stroke="rgb(0, 0, 0)"><path d="M13.4148794,-167.8064146L12.8708399,-105.4656594" /></g>
<g stroke="rgb(0, 0, 0)"><path d="M 25.552654998813765 -59.52928055326243 A 2 2 0 0 1 23.626938970575807 -61.055818592136426" /></g>
<g stroke="rgb(0, 0, 0)"><path d="M 36.47064670118623 -59.434000646737566 A 2 2 0 0 1 36.56934829782673 -59.430700978307904" /></g>
<g stroke="rgb(0, 0, 0)"><path d="M 76.63281259979905 -57.10039860481612 A 2 2 0 0 1 76.59241260217327 -57.1023392216921" /></g>
<g stroke="rgb(0, 0, 0)"><path d="M 97.79391330556632 -56.31091364689257 A 2 2 0 0 1 97.56938409979905 -56.306807704816116" /></g>
<g stroke="rgb(0, 0, 0)"><path d="M 118.68806459443368 -57.86949195310743 A 2 2 0 0 1 118.73056059825728 -57.872207318442555" /></g>
<g stroke="rgb(0, 0, 0)"><path d="M 151.26463414895224 -60.034719945819695 A 2 2 0 0 1 150.04949450174274 -59.538829781557446" /></g>
<g stroke="rgb(0, 0, 0)"><path d="M 156.19027455104776 -64.37022955418031 A 2 2 0 0 1 157.5156756003234 -64.86894153432146" /></g>
<g stroke="rgb(0, 0, 0)"><path d="M 160.3434475003234 -64.86331013432147 A 2 2 0 0 1 161.66088294895223 -64.3645981541803" /></g>
<g stroke="rgb(0, 0, 0)"><path d="M 167.80189929809004 -59.528456964443016 A 2 2 0 0 1 166.59225085104777 -60.024047345819696" /></g>
<g stroke="rgb(0, 0, 0)"><path d="M 198.59939090190997 -57.804647935556986 A 2 2 0 0 1 198.67655810943756 -57.79882920149728" /></g>
<g stroke="rgb(0, 0, 0)"><path d="M 219.7404734006918 -55.81267754500879 A 2 2 0 0 1 219.51607259056246 -55.821307398502725" /></g>
<g stroke="rgb(0, 0, 0)"><path d="M 240.7383504003319 -56.18583635964224 A 2 2 0 0 1 240.68297600069178 -56.18408684500879" /></g>
<g stroke="rgb(0, 0, 0)"><path d="M 280.8054486996681 -58.00752904035777 A 2 2 0 0 1 280.8875602988836 -58.009573961517624" /></g>
<g stroke="rgb(0, 0, 0)"><path d="M 398.1366421615176 -60.52119200111637 A 2 2 0 0 1 396.1453878011164 -58.51248443848238" /></g>
<g stroke="rgb(0, 0, 0)"><path d="M 397.8766157980494 -110.29914010004016 A 2 2 0 0 1 397.9212387615176 -109.88765830111636" /></g>
<g stroke="rgb(0, 0, 0)"><path d="M 391.85962893854463 -137.01259053295627 A 2 2 0 0 1 392.3345506980494 -136.08806530004017" /></g>
<g stroke="rgb(0, 0, 0)"><path d="M 332.4771156800923 -200.50249745687782 A 2 2 0 0 1 334.6666457385447 -199.97715463295629" /></g>
<g stroke="rgb(0, 0, 0)"><path d="M 294.15226381990766 -185.97051714312218 A 2 2 0 0 1 293.4518966011164 -185.84061263848238" /></g>
<g stroke="rgb(0, 0, 0)"><path d="M 261.15121018948145 -185.69188939459443 A 2 2 0 0 1 261.3274563988836 -185.7004424615176" /></g>
<g stroke="rgb(0, 0, 0)"><path d="M 242.47420961051859 -183.95708540540556 A 2 2 0 0 1 242.29178999958134 -183.9485149297077" /></g>
<g stroke="rgb(0, 0, 0)"><path d="M 211.18970729958133 -183.9088109297077 A 2 2 0 0 1 210.8349487004823 -183.94006570152138" /></g>
<g stroke="rgb(0, 0, 0)"><path d="M 199.658992504971 -185.9287801708377 A 2 2 0 0 1 199.8621288995177 -185.90308689847862" /></g>
<g stroke="rgb(0, 0, 0)"><path d="M 162.20412029862433 -188.72286073796445 A 2 2 0 0 1 162.35061090497098 -188.7172992708377" /></g>
<g stroke="rgb(0, 0, 0)"><path d="M 155.501387495029 -188.72574457083772 A 2 2 0 0 1 155.65303489862433 -188.73130603796446" /></g>
<g stroke="rgb(0, 0, 0)"><path d="M 118.0298776075253 -185.92091803443813 A 2 2 0 0 1 118.15726699502902 -185.93455437083773" /></g>
<g stroke="rgb(0, 0, 0)"><path d="M 107.0114562924747 -184.38308716556188 A 2 2 0 0 1 106.70249789993503 -184.3641517799356" /></g>
<g stroke="rgb(0, 0, 0)"><path d="M 75.59602049993502 -184.8696994799356 A 2 2 0 0 1 75.39975089436153 -184.88256236240144" /></g>
<g stroke="rgb(0, 0, 0)"><path d="M 56.578343201186236 -187.03838904673756 A 2 2 0 0 1 56.789659805638465 -187.02533823759853" /></g>
<g stroke="rgb(0, 0, 0)"><path d="M 24.51849760688449 -186.3533935938792 A 2 2 0 0 1 26.238060801186236 -187.30316464673757" /></g>
<g stroke="rgb(0, 0, 0)"><path d="M 13.414879353262432 -167.80641460118622 A 2 2 0 0 1 13.712693006884493 -168.83911439387919" /></g>
<g stroke="rgb(0, 0, 0)"><path d="M 12.927594670575807 -104.97482059213644 A 2 2 0 0 1 12.870839853262432 -105.46565940118624" /></g>
  </g>
</svg>