0
SECTION
2
HEADER
9
$INSUNITS
70
4
0
ENDSEC
0
SECTION
2
TABLES
0
TABLE
2
LTYPE
0
LTYPE
72
65
70
64
2
CONTINUOUS
3
______
73
0
40
0
0
ENDTAB
0
TABLE
2
LAYER
0
ENDTAB
0
ENDSEC
0
SECTION
2
ENTITIES
0
LINE
8
0
10
-11.5
20
-9.5
11
-11.5
21
104.5
0
LINE
8
0
10
-9.5
20
106.5
11
380.37144
21
106.5
0
LINE
8
0
10
382.365672
20
104.6517858
11
387.4471405
21
37.8890892
0
LINE
8
0
10
386.8671221
20
36.3230898
11
358.0261646
21
7.4821323
0
LINE
8
0
10
357.5596412
20
7.1351294
11
314.6168658
21
-15.9718843
0
LINE
8
0
10
313.4629485
20
-16.200007
11
268.2278379
21
-11.5106608
0
LINE
8
0
10
268.0216109
20
-11.5
11
-9.5
21
-11.5
0
ARC
8
0
10
-9.5
20
104.5
40
2
50
90
51
180
0
ARC
8
0
10
380.37144
20
104.5
40
2
50
4.3525278
51
90
0
ARC
8
0
10
385.4529085
20
37.7373034
40
2
50
315
51
4.3525278
0
ARC
8
0
10
356.611951
20
8.8963459
40
2
50
298.2841815
51
315
0
ARC
8
0
10
313.6691755
20
-14.2106678
40
2
50
264.0815119
51
298.2841815
0
ARC
8
0
10
268.0216109
20
-13.5
40
2
50
84.0815119
51
90
0
ARC
8
0
10
-9.5
20
-9.5
40
2
50
180
51
270
0
LINE
8
0
10
-9.25
20
-9.25
11
9.25
21
-9.25
0
LINE
8
0
10
9.25
20
-9.25
11
9.25
21
9.25
0
LINE
8
0
10
9.25
20
9.25
11
-9.25
21
9.25
0
LINE
8
0
10
-9.25
20
9.25
11
-9.25
21
-9.25
0
LINE
8
0
10
-9.25
20
9.75
11
9.25
21
9.75
0
LINE
8
0
10
9.25
20
9.75
11
9.25
21
28.25
0
LINE
8
0
10
9.25
20
28.25
11
-9.25
21
28.25
0
LINE
8
0
10
-9.25
20
28.25
11
-9.25
21
9.75
0
LINE
8
0
10
-9.25
20
28.75
11
9.25
21
28.75
0
LINE
8
0
10
9.25
20
28.75
11
9.25
21
47.25
0
LINE
8
0
10
9.25
20
47.25
11
-9.25
21
47.25
0
LINE
8
0
10
-9.25
20
47.25
11
-9.25
21
28.75
0
LINE
8
0
10
-9.25
20
47.75
11
9.25
21
47.75
0
LINE
8
0
10
9.25
20
47.75
11
9.25
21
66.25
0
LINE
8
0
10
9.25
20
66.25
11
-9.25
21
66.25
0
LINE
8
0
10
-9.25
20
66.25
11
-9.25
21
47.75
0
LINE
8
0
10
-9.25
20
66.75
11
9.25
21
66.75
0
LINE
8
0
10
9.25
20
66.75
11
9.25
21
85.25
0
LINE
8
0
10
9.25
20
85.25
11
-9.25
21
85.25
0
LINE
8
0
10
-9.25
20
85.25
11
-9.25
21
66.75
0
LINE
8
0
10
-9.25
20
85.75
11
9.25
21
85.75
0
LINE
8
0
10
9.25
20
85.75
11
9.25
21
104.25
0
LINE
8
0
10
9.25
20
104.25
11
-9.25
21
104.25
0
LINE
8
0
10
-9.25
20
104.25
11
-9.25
21
85.75
0
LINE
8
0
10
9.75
20
-9.25
11
28.25
21
-9.25
0
LINE
8
0
10
28.25
20
-9.25
11
28.25
21
9.25
0
LINE
8
0
10
28.25
20
9.25
11
9.75
21
9.25
0
LINE
8
0
10
9.75
20
9.25
11
9.75
21
-9.25
0
LINE
8
0
10
19.275
20
9.75
11
37.775
21
9.75
0
LINE
8
0
10
37.775
20
9.75
11
37.775
21
28.25
0
LINE
8
0
10
37.775
20
28.25
11
19.275
21
28.25
0
LINE
8
0
10
19.275
20
28.25
11
19.275
21
9.75
0
LINE
8
0
10
19.275
20
28.75
11
37.775
21
28.75
0
LINE
8
0
10
37.775
20
28.75
11
37.775
21
47.25
0
LINE
8
0
10
37.775
20
47.25
11
19.275
21
47.25
0
LINE
8
0
10
19.275
20
47.25
11
19.275
21
28.75
0
LINE
8
0
10
19.275
20
47.75
11
37.775
21
47.75
0
LINE
8
0
10
37.775
20
47.75
11
37.775
21
66.25
0
LINE
8
0
10
37.775
20
66.25
11
19.275
21
66.25
0
LINE
8
0
10
19.275
20
66.25
11
19.275
21
47.75
0
LINE
8
0
10
9.75
20
66.75
11
28.25
21
66.75
0
LINE
8
0
10
28.25
20
66.75
11
28.25
21
85.25
0
LINE
8
0
10
28.25
20
85.25
11
9.75
21
85.25
0
LINE
8
0
10
9.75
20
85.25
11
9.75
21
66.75
0
LINE
8
0
10
28.75
20
-9.25
11
47.25
21
-9.25
0
LINE
8
0
10
47.25
20
-9.25
11
47.25
21
9.25
0
LINE
8
0
10
47.25
20
9.25
11
28.75
21
9.25
0
LINE
8
0
10
28.75
20
9.25
11
28.75
21
-9.25
0
LINE
8
0
10
38.275
20
9.75
11
56.775
21
9.75
0
LINE
8
0
10
56.775
20
9.75
11
56.775
21
28.25
0
LINE
8
0
10
56.775
20
28.25
11
38.275
21
28.25
0
LINE
8
0
10
38.275
20
28.25
11
38.275
21
9.75
0
LINE
8
0
10
38.275
20
28.75
11
56.775
21
28.75
0
LINE
8
0
10
56.775
20
28.75
11
56.775
21
47.25
0
LINE
8
0
10
56.775
20
47.25
11
38.275
21
47.25
0
LINE
8
0
10
38.275
20
47.25
11
38.275
21
28.75
0
LINE
8
0
10
38.275
20
47.75
11
56.775
21
47.75
0
LINE
8
0
10
56.775
20
47.75
11
56.775
21
66.25
0
LINE
8
0
10
56.775
20
66.25
11
38.275
21
66.25
0
LINE
8
0
10
38.275
20
66.25
11
38.275
21
47.75
0
LINE
8
0
10
28.75
20
66.75
11
47.25
21
66.75
0
LINE
8
0
10
47.25
20
66.75
11
47.25
21
85.25
0
LINE
8
0
10
47.25
20
85.25
11
28.75
21
85.25
0
LINE
8
0
10
28.75
20
85.25
11
28.75
21
66.75
0
LINE
8
0
10
28.75
20
85.75
11
47.25
21
85.75
0
LINE
8
0
10
47.25
20
85.75
11
47.25
21
104.25
0
LINE
8
0
10
47.25
20
104.25
11
28.75
21
104.25
0
LINE
8
0
10
28.75
20
104.25
11
28.75
21
85.75
0
LINE
8
0
10
47.75
20
-9.25
11
66.25
21
-9.25
0
LINE
8
0
10
66.25
20
-9.25
11
66.25
21
9.25
0
LINE
8
0
10
66.25
20
9.25
11
47.75
21
9.25
0
LINE
8
0
10
47.75
20
9.25
11
47.75
21
-9.25
0
LINE
8
0
10
57.275
20
9.75
11
75.775
21
9.75
0
LINE
8
0
10
75.775
20
9.75
11
75.775
21
28.25
0
LINE
8
0
10
75.775
20
28.25
11
57.275
21
28.25
0
LINE
8
0
10
57.275
20
28.25
11
57.275
21
9.75
0
LINE
8
0
10
57.275
20
28.75
11
75.775
21
28.75
0
LINE
8
0
10
75.775
20
28.75
11
75.775
21
47.25
0
LINE
8
0
10
75.775
20
47.25
11
57.275
21
47.25
0
LINE
8
0
10
57.275
20
47.25
11
57.275
21
28.75
0
LINE
8
0
10
57.275
20
47.75
11
75.775
21
47.75
0
LINE
8
0
10
75.775
20
47.75
11
75.775
21
66.25
0
LINE
8
0
10
75.775
20
66.25
11
57.275
21
66.25
0
LINE
8
0
10
57.275
20
66.25
11
57.275
21
47.75
0
LINE
8
0
10
47.75
20
66.75
11
66.25
21
66.75
0
LINE
8
0
10
66.25
20
66.75
11
66.25
21
85.25
0
LINE
8
0
10
66.25
20
85.25
11
47.75
21
85.25
0
LINE
8
0
10
47.75
20
85.25
11
47.75
21
66.75
0
LINE
8
0
10
47.75
20
85.75
11
66.25
21
85.75
0
LINE
8
0
10
66.25
20
85.75
11
66.25
21
104.25
0
LINE
8
0
10
66.25
20
104.25
11
47.75
21
104.25
0
LINE
8
0
10
47.75
20
104.25
11
47.75
21
85.75
0
LINE
8
0
10
85.8
20
-9.25
11
104.3
21
-9.25
0
LINE
8
0
10
104.3
20
-9.25
11
104.3
21
9.25
0
LINE
8
0
10
104.3
20
9.25
11
85.8
21
9.25
0
LINE
8
0
10
85.8
20
9.25
11
85.8
21
-9.25
0
LINE
8
0
10
76.275
20
9.75
11
94.775
21
9.75
0
LINE
8
0
10
94.775
20
9.75
11
94.775
21
28.25
0
LINE
8
0
10
94.775
20
28.25
11
76.275
21
28.25
0
LINE
8
0
10
76.275
20
28.25
11
76.275
21
9.75
0
LINE
8
0
10
76.275
20
28.75
11
94.775
21
28.75
0
LINE
8
0
10
94.775
20
28.75
11
94.775
21
47.25
0
LINE
8
0
10
94.775
20
47.25
11
76.275
21
47.25
0
LINE
8
0
10
76.275
20
47.25
11
76.275
21
28.75
0
LINE
8
0
10
76.275
20
47.75
11
94.775
21
47.75
0
LINE
8
0
10
94.775
20
47.75
11
94.775
21
66.25
0
LINE
8
0
10
94.775
20
66.25
11
76.275
21
66.25
0
LINE
8
0
10
76.275
20
66.25
11
76.275
21
47.75
0
LINE
8
0
10
66.75
20
66.75
11
85.25
21
66.75
0
LINE
8
0
10
85.25
20
66.75
11
85.25
21
85.25
0
LINE
8
0
10
85.25
20
85.25
11
66.75
21
85.25
0
LINE
8
0
10
66.75
20
85.25
11
66.75
21
66.75
0
LINE
8
0
10
66.75
20
85.75
11
85.25
21
85.75
0
LINE
8
0
10
85.25
20
85.75
11
85.25
21
104.25
0
LINE
8
0
10
85.25
20
104.25
11
66.75
21
104.25
0
LINE
8
0
10
66.75
20
104.25
11
66.75
21
85.75
0
LINE
8
0
10
95.275
20
9.75
11
113.775
21
9.75
0
LINE
8
0
10
113.775
20
9.75
11
113.775
21
28.25
0
LINE
8
0
10
113.775
20
28.25
11
95.275
21
28.25
0
LINE
8
0
10
95.275
20
28.25
11
95.275
21
9.75
0
LINE
8
0
10
95.275
20
28.75
11
113.775
21
28.75
0
LINE
8
0
10
113.775
20
28.75
11
113.775
21
47.25
0
LINE
8
0
10
113.775
20
47.25
11
95.275
21
47.25
0
LINE
8
0
10
95.275
20
47.25
11
95.275
21
28.75
0
LINE
8
0
10
95.275
20
47.75
11
113.775
21
47.75
0
LINE
8
0
10
113.775
20
47.75
11
113.775
21
66.25
0
LINE
8
0
10
113.775
20
66.25
11
95.275
21
66.25
0
LINE
8
0
10
95.275
20
66.25
11
95.275
21
47.75
0
LINE
8
0
10
85.75
20
66.75
11
104.25
21
66.75
0
LINE
8
0
10
104.25
20
66.75
11
104.25
21
85.25
0
LINE
8
0
10
104.25
20
85.25
11
85.75
21
85.25
0
LINE
8
0
10
85.75
20
85.25
11
85.75
21
66.75
0
LINE
8
0
10
85.75
20
85.75
11
104.25
21
85.75
0
LINE
8
0
10
104.25
20
85.75
11
104.25
21
104.25
0
LINE
8
0
10
104.25
20
104.25
11
85.75
21
104.25
0
LINE
8
0
10
85.75
20
104.25
11
85.75
21
85.75
0
LINE
8
0
10
152.425
20
-9.25
11
170.925
21
-9.25
0
LINE
8
0
10
170.925
20
-9.25
11
170.925
21
9.25
0
LINE
8
0
10
170.925
20
9.25
11
152.425
21
9.25
0
LINE
8
0
10
152.425
20
9.25
11
152.425
21
-9.25
0
LINE
8
0
10
142.9
20
9.75
11
161.4
21
9.75
0
LINE
8
0
10
161.4
20
9.75
11
161.4
21
28.25
0
LINE
8
0
10
161.4
20
28.25
11
142.9
21
28.25
0
LINE
8
0
10
142.9
20
28.25
11
142.9
21
9.75
0
LINE
8
0
10
142.9
20
28.75
11
161.4
21
28.75
0
LINE
8
0
10
161.4
20
28.75
11
161.4
21
47.25
0
LINE
8
0
10
161.4
20
47.25
11
142.9
21
47.25
0
LINE
8
0
10
142.9
20
47.25
11
142.9
21
28.75
0
LINE
8
0
10
142.9
20
47.75
11
161.4
21
47.75
0
LINE
8
0
10
161.4
20
47.75
11
161.4
21
66.25
0
LINE
8
0
10
161.4
20
66.25
11
142.9
21
66.25
0
LINE
8
0
10
142.9
20
66.25
11
142.9
21
47.75
0
LINE
8
0
10
142.9
20
66.75
11
161.4
21
66.75
0
LINE
8
0
10
161.4
20
66.75
11
161.4
21
85.25
0
LINE
8
0
10
161.4
20
85.25
11
142.9
21
85.25
0
LINE
8
0
10
142.9
20
85.25
11
142.9
21
66.75
0
LINE
8
0
10
133.375
20
85.75
11
151.875
21
85.75
0
LINE
8
0
10
151.875
20
85.75
11
151.875
21
104.25
0
LINE
8
0
10
151.875
20
104.25
11
133.375
21
104.25
0
LINE
8
0
10
133.375
20
104.25
11
133.375
21
85.75
0
LINE
8
0
10
161.9
20
9.75
11
180.4
21
9.75
0
LINE
8
0
10
180.4
20
9.75
11
180.4
21
28.25
0
LINE
8
0
10
180.4
20
28.25
11
161.9
21
28.25
0
LINE
8
0
10
161.9
20
28.25
11
161.9
21
9.75
0
LINE
8
0
10
161.9
20
28.75
11
180.4
21
28.75
0
LINE
8
0
10
180.4
20
28.75
11
180.4
21
47.25
0
LINE
8
0
10
180.4
20
47.25
11
161.9
21
47.25
0
LINE
8
0
10
161.9
20
47.25
11
161.9
21
28.75
0
LINE
8
0
10
161.9
20
47.75
11
180.4
21
47.75
0
LINE
8
0
10
180.4
20
47.75
11
180.4
21
66.25
0
LINE
8
0
10
180.4
20
66.25
11
161.9
21
66.25
0
LINE
8
0
10
161.9
20
66.25
11
161.9
21
47.75
0
LINE
8
0
10
161.9
20
66.75
11
180.4
21
66.75
0
LINE
8
0
10
180.4
20
66.75
11
180.4
21
85.25
0
LINE
8
0
10
180.4
20
85.25
11
161.9
21
85.25
0
LINE
8
0
10
161.9
20
85.25
11
161.9
21
66.75
0
LINE
8
0
10
152.375
20
85.75
11
170.875
21
85.75
0
LINE
8
0
10
170.875
20
85.75
11
170.875
21
104.25
0
LINE
8
0
10
170.875
20
104.25
11
152.375
21
104.25
0
LINE
8
0
10
152.375
20
104.25
11
152.375
21
85.75
0
LINE
8
0
10
180.9
20
9.75
11
199.4
21
9.75
0
LINE
8
0
10
199.4
20
9.75
11
199.4
21
28.25
0
LINE
8
0
10
199.4
20
28.25
11
180.9
21
28.25
0
LINE
8
0
10
180.9
20
28.25
11
180.9
21
9.75
0
LINE
8
0
10
180.9
20
28.75
11
199.4
21
28.75
0
LINE
8
0
10
199.4
20
28.75
11
199.4
21
47.25
0
LINE
8
0
10
199.4
20
47.25
11
180.9
21
47.25
0
LINE
8
0
10
180.9
20
47.25
11
180.9
21
28.75
0
LINE
8
0
10
180.9
20
47.75
11
199.4
21
47.75
0
LINE
8
0
10
199.4
20
47.75
11
199.4
21
66.25
0
LINE
8
0
10
199.4
20
66.25
11
180.9
21
66.25
0
LINE
8
0
10
180.9
20
66.25
11
180.9
21
47.75
0
LINE
8
0
10
180.9
20
66.75
11
199.4
21
66.75
0
LINE
8
0
10
199.4
20
66.75
11
199.4
21
85.25
0
LINE
8
0
10
199.4
20
85.25
11
180.9
21
85.25
0
LINE
8
0
10
180.9
20
85.25
11
180.9
21
66.75
0
LINE
8
0
10
171.375
20
85.75
11
189.875
21
85.75
0
LINE
8
0
10
189.875
20
85.75
11
189.875
21
104.25
0
LINE
8
0
10
189.875
20
104.25
11
171.375
21
104.25
0
LINE
8
0
10
171.375
20
104.25
11
171.375
21
85.75
0
LINE
8
0
10
190.375
20
-9.25
11
208.875
21
-9.25
0
LINE
8
0
10
208.875
20
-9.25
11
208.875
21
9.25
0
LINE
8
0
10
208.875
20
9.25
11
190.375
21
9.25
0
LINE
8
0
10
190.375
20
9.25
11
190.375
21
-9.25
0
LINE
8
0
10
199.9
20
9.75
11
218.4
21
9.75
0
LINE
8
0
10
218.4
20
9.75
11
218.4
21
28.25
0
LINE
8
0
10
218.4
20
28.25
11
199.9
21
28.25
0
LINE
8
0
10
199.9
20
28.25
11
199.9
21
9.75
0
LINE
8
0
10
199.9
20
28.75
11
218.4
21
28.75
0
LINE
8
0
10
218.4
20
28.75
11
218.4
21
47.25
0
LINE
8
0
10
218.4
20
47.25
11
199.9
21
47.25
0
LINE
8
0
10
199.9
20
47.25
11
199.9
21
28.75
0
LINE
8
0
10
199.9
20
47.75
11
218.4
21
47.75
0
LINE
8
0
10
218.4
20
47.75
11
218.4
21
66.25
0
LINE
8
0
10
218.4
20
66.25
11
199.9
21
66.25
0
LINE
8
0
10
199.9
20
66.25
11
199.9
21
47.75
0
LINE
8
0
10
199.9
20
66.75
11
218.4
21
66.75
0
LINE
8
0
10
218.4
20
66.75
11
218.4
21
85.25
0
LINE
8
0
10
218.4
20
85.25
11
199.9
21
85.25
0
LINE
8
0
10
199.9
20
85.25
11
199.9
21
66.75
0
LINE
8
0
10
190.375
20
85.75
11
208.875
21
85.75
0
LINE
8
0
10
208.875
20
85.75
11
208.875
21
104.25
0
LINE
8
0
10
208.875
20
104.25
11
190.375
21
104.25
0
LINE
8
0
10
190.375
20
104.25
11
190.375
21
85.75
0
LINE
8
0
10
209.375
20
-9.25
11
227.875
21
-9.25
0
LINE
8
0
10
227.875
20
-9.25
11
227.875
21
9.25
0
LINE
8
0
10
227.875
20
9.25
11
209.375
21
9.25
0
LINE
8
0
10
209.375
20
9.25
11
209.375
21
-9.25
0
LINE
8
0
10
218.9
20
9.75
11
237.4
21
9.75
0
LINE
8
0
10
237.4
20
9.75
11
237.4
21
28.25
0
LINE
8
0
10
237.4
20
28.25
11
218.9
21
28.25
0
LINE
8
0
10
218.9
20
28.25
11
218.9
21
9.75
0
LINE
8
0
10
218.9
20
28.75
11
237.4
21
28.75
0
LINE
8
0
10
237.4
20
28.75
11
237.4
21
47.25
0
LINE
8
0
10
237.4
20
47.25
11
218.9
21
47.25
0
LINE
8
0
10
218.9
20
47.25
11
218.9
21
28.75
0
LINE
8
0
10
218.9
20
47.75
11
237.4
21
47.75
0
LINE
8
0
10
237.4
20
47.75
11
237.4
21
66.25
0
LINE
8
0
10
237.4
20
66.25
11
218.9
21
66.25
0
LINE
8
0
10
218.9
20
66.25
11
218.9
21
47.75
0
LINE
8
0
10
218.9
20
66.75
11
237.4
21
66.75
0
LINE
8
0
10
237.4
20
66.75
11
237.4
21
85.25
0
LINE
8
0
10
237.4
20
85.25
11
218.9
21
85.25
0
LINE
8
0
10
218.9
20
85.25
11
218.9
21
66.75
0
LINE
8
0
10
228.375
20
-9.25
11
246.875
21
-9.25
0
LINE
8
0
10
246.875
20
-9.25
11
246.875
21
9.25
0
LINE
8
0
10
246.875
20
9.25
11
228.375
21
9.25
0
LINE
8
0
10
228.375
20
9.25
11
228.375
21
-9.25
0
LINE
8
0
10
247.425
20
9.75
11
265.925
21
9.75
0
LINE
8
0
10
265.925
20
9.75
11
265.925
21
28.25
0
LINE
8
0
10
265.925
20
28.25
11
247.425
21
28.25
0
LINE
8
0
10
247.425
20
28.25
11
247.425
21
9.75
0
LINE
8
0
10
237.9
20
28.75
11
256.4
21
28.75
0
LINE
8
0
10
256.4
20
28.75
11
256.4
21
47.25
0
LINE
8
0
10
256.4
20
47.25
11
237.9
21
47.25
0
LINE
8
0
10
237.9
20
47.25
11
237.9
21
28.75
0
LINE
8
0
10
237.9
20
47.75
11
256.4
21
47.75
0
LINE
8
0
10
256.4
20
47.75
11
256.4
21
66.25
0
LINE
8
0
10
256.4
20
66.25
11
237.9
21
66.25
0
LINE
8
0
10
237.9
20
66.25
11
237.9
21
47.75
0
LINE
8
0
10
237.9
20
66.75
11
256.4
21
66.75
0
LINE
8
0
10
256.4
20
66.75
11
256.4
21
85.25
0
LINE
8
0
10
256.4
20
85.25
11
237.9
21
85.25
0
LINE
8
0
10
237.9
20
85.25
11
237.9
21
66.75
0
LINE
8
0
10
228.375
20
85.75
11
246.875
21
85.75
0
LINE
8
0
10
246.875
20
85.75
11
246.875
21
104.25
0
LINE
8
0
10
246.875
20
104.25
11
228.375
21
104.25
0
LINE
8
0
10
228.375
20
104.25
11
228.375
21
85.75
0
LINE
8
0
10
247.375
20
-9.25
11
265.875
21
-9.25
0
LINE
8
0
10
265.875
20
-9.25
11
265.875
21
9.25
0
LINE
8
0
10
265.875
20
9.25
11
247.375
21
9.25
0
LINE
8
0
10
247.375
20
9.25
11
247.375
21
-9.25
0
LINE
8
0
10
266.425
20
28.75
11
284.925
21
28.75
0
LINE
8
0
10
284.925
20
28.75
11
284.925
21
47.25
0
LINE
8
0
10
284.925
20
47.25
11
266.425
21
47.25
0
LINE
8
0
10
266.425
20
47.25
11
266.425
21
28.75
0
LINE
8
0
10
256.9
20
47.75
11
275.4
21
47.75
0
LINE
8
0
10
275.4
20
47.75
11
275.4
21
66.25
0
LINE
8
0
10
275.4
20
66.25
11
256.9
21
66.25
0
LINE
8
0
10
256.9
20
66.25
11
256.9
21
47.75
0
LINE
8
0
10
256.9
20
66.75
11
275.4
21
66.75
0
LINE
8
0
10
275.4
20
66.75
11
275.4
21
85.25
0
LINE
8
0
10
275.4
20
85.25
11
256.9
21
85.25
0
LINE
8
0
10
256.9
20
85.25
11
256.9
21
66.75
0
LINE
8
0
10
247.375
20
85.75
11
265.875
21
85.75
0
LINE
8
0
10
265.875
20
85.75
11
265.875
21
104.25
0
LINE
8
0
10
265.875
20
104.25
11
247.375
21
104.25
0
LINE
8
0
10
247.375
20
104.25
11
247.375
21
85.75
0
LINE
8
0
10
275.9
20
47.75
11
294.4
21
47.75
0
LINE
8
0
10
294.4
20
47.75
11
294.4
21
66.25
0
LINE
8
0
10
294.4
20
66.25
11
275.9
21
66.25
0
LINE
8
0
10
275.9
20
66.25
11
275.9
21
47.75
0
LINE
8
0
10
285.425
20
66.75
11
303.925
21
66.75
0
LINE
8
0
10
303.925
20
66.75
11
303.925
21
85.25
0
LINE
8
0
10
303.925
20
85.25
11
285.425
21
85.25
0
LINE
8
0
10
285.425
20
85.25
11
285.425
21
66.75
0
LINE
8
0
10
266.375
20
85.75
11
284.875
21
85.75
0
LINE
8
0
10
284.875
20
85.75
11
284.875
21
104.25
0
LINE
8
0
10
284.875
20
104.25
11
266.375
21
104.25
0
LINE
8
0
10
266.375
20
104.25
11
266.375
21
85.75
0
LINE
8
0
10
285.375
20
85.75
11
303.875
21
85.75
0
LINE
8
0
10
303.875
20
85.75
11
303.875
21
104.25
0
LINE
8
0
10
303.875
20
104.25
11
285.375
21
104.25
0
LINE
8
0
10
285.375
20
104.25
11
285.375
21
85.75
0
LINE
8
0
10
314.075
20
-13.0814755
11
327.1564755
21
0
0
LINE
8
0
10
327.1564755
20
0
11
314.075
21
13.0814755
0
LINE
8
0
10
314.075
20
13.0814755
11
300.9935245
21
0
0
LINE
8
0
10
300.9935245
20
0
11
314.075
21
-13.0814755
0
LINE
8
0
10
300.6399712
20
0.3535533
11
313.7214467
21
13.4350288
0
LINE
8
0
10
313.7214467
20
13.4350288
11
300.6399712
21
26.5165043
0
LINE
8
0
10
300.6399712
20
26.5165043
11
287.5584957
21
13.4350288
0
LINE
8
0
10
287.5584957
20
13.4350288
11
300.6399712
21
0.3535533
0
LINE
8
0
10
327.5100288
20
0.3535533
11
340.5915043
21
13.4350288
0
LINE
8
0
10
340.5915043
20
13.4350288
11
327.5100288
21
26.5165043
0
LINE
8
0
10
327.5100288
20
26.5165043
11
314.4285533
21
13.4350288
0
LINE
8
0
10
314.4285533
20
13.4350288
11
327.5100288
21
0.3535533
0
LINE
8
0
10
314.075
20
13.7885821
11
327.1564755
21
26.8700576
0
LINE
8
0
10
327.1564755
20
26.8700576
11
314.075
21
39.9515331
0
LINE
8
0
10
314.075
20
39.9515331
11
300.9935245
21
26.8700576
0
LINE
8
0
10
300.9935245
20
26.8700576
11
314.075
21
13.7885821
0
LINE
8
0
10
357.8183932
20
10.4563414
11
370.8998687
21
23.5378169
0
LINE
8
0
10
370.8998687
20
23.5378169
11
357.8183932
21
36.6192924
0
LINE
8
0
10
357.8183932
20
36.6192924
11
344.7369177
21
23.5378169
0
LINE
8
0
10
344.7369177
20
23.5378169
11
357.8183932
21
10.4563414
0
LINE
8
0
10
344.3833644
20
23.8913702
11
357.4648399
21
36.9728457
0
LINE
8
0
10
357.4648399
20
36.9728457
11
344.3833644
21
50.0543212
0
LINE
8
0
10
344.3833644
20
50.0543212
11
331.3018889
21
36.9728457
0
LINE
8
0
10
331.3018889
20
36.9728457
11
344.3833644
21
23.8913702
0
LINE
8
0
10
371.253422
20
23.8913702
11
384.3348975
21
36.9728457
0
LINE
8
0
10
384.3348975
20
36.9728457
11
371.253422
21
50.0543212
0
LINE
8
0
10
371.253422
20
50.0543212
11
358.1719465
21
36.9728457
0
LINE
8
0
10
358.1719465
20
36.9728457
11
371.253422
21
23.8913702
0
LINE
8
0
10
357.8183932
20
37.326399
11
370.8998687
21
50.4078745
0
LINE
8
0
10
370.8998687
20
50.4078745
11
357.8183932
21
63.48935
0
LINE
8
0
10
357.8183932
20
63.48935
11
344.7369177
21
50.4078745
0
LINE
8
0
10
344.7369177
20
50.4078745
11
357.8183932
21
37.326399
0
LINE
8
0
10
323.475
20
66.75
11
341.975
21
66.75
0
LINE
8
0
10
341.975
20
66.75
11
341.975
21
85.25
0
LINE
8
0
10
341.975
20
85.25
11
323.475
21
85.25
0
LINE
8
0
10
323.475
20
85.25
11
323.475
21
66.75
0
LINE
8
0
10
323.475
20
85.75
11
341.975
21
85.75
0
LINE
8
0
10
341.975
20
85.75
11
341.975
21
104.25
0
LINE
8
0
10
341.975
20
104.25
11
323.475
21
104.25
0
LINE
8
0
10
323.475
20
104.25
11
323.475
21
85.75
0
LINE
8
0
10
342.475
20
66.75
11
360.975
21
66.75
0
LINE
8
0
10
360.975
20
66.75
11
360.975
21
85.25
0
LINE
8
0
10
360.975
20
85.25
11
342.475
21
85.25
0
LINE
8
0
10
342.475
20
85.25
11
342.475
21
66.75
0
LINE
8
0
10
342.475
20
85.75
11
360.975
21
85.75
0
LINE
8
0
10
360.975
20
85.75
11
360.975
21
104.25
0
LINE
8
0
10
360.975
20
104.25
11
342.475
21
104.25
0
LINE
8
0
10
342.475
20
104.25
11
342.475
21
85.75
0
LINE
8
0
10
361.475
20
66.75
11
379.975
21
66.75
0
LINE
8
0
10
379.975
20
66.75
11
379.975
21
85.25
0
LINE
8
0
10
379.975
20
85.25
11
361.475
21
85.25
0
LINE
8
0
10
361.475
20
85.25
11
361.475
21
66.75
0
LINE
8
0
10
361.475
20
85.75
11
379.975
21
85.75
0
LINE
8
0
10
379.975
20
85.75
11
379.975
21
104.25
0
LINE
8
0
10
379.975
20
104.25
11
361.475
21
104.25
0
LINE
8
0
10
361.475
20
104.25
11
361.475
21
85.75
0
ENDSEC
0
EOF