0
SECTION
2
HEADER
9
$INSUNITS
70
4
0
ENDSEC
0
SECTION
2
TABLES
0
TABLE
2
LTYPE
0
LTYPE
72
65
70
64
2
CONTINUOUS
3
______
73
0
40
0
0
ENDTAB
0
TABLE
2
LAYER
0
ENDTAB
0
ENDSEC
0
SECTION
2
ENTITIES
0
LINE
8
0
10
17.1456057
20
-129.9389626
11
27.84495
21
-86.0199604
0
LINE
8
0
10
29.7706661
20
-84.4934225
11
40.6886578
21
-84.3981425
0
LINE
8
0
10
40.7873594
20
-84.3948429
11
80.8104237
21
-82.0664811
0
LINE
8
0
10
80.8508237
20
-82.0645405
11
101.7873952
21
-81.2709496
0
LINE
8
0
10
102.0119244
20
-81.2750556
11
122.907326
21
-82.833727
0
LINE
8
0
10
122.9473184
20
-82.8363076
11
148.0136669
21
-84.2017156
0
LINE
8
0
10
149.226303
20
-84.697471
11
154.1542664
21
-89.0350253
0
LINE
8
0
10
155.4767101
20
-89.5337409
11
170.8150567
21
-89.5258771
0
LINE
8
0
10
172.1354496
20
-89.0271614
11
177.0671955
21
-84.6862779
0
LINE
8
0
10
178.2729327
20
-84.1909102
11
202.819364
21
-82.7687521
0
LINE
8
0
10
202.89262
20
-82.7631561
11
223.7340837
21
-80.7854493
0
LINE
8
0
10
223.9584845
20
-80.7768194
11
244.9009871
21
-81.1482288
0
LINE
8
0
10
244.9563615
20
-81.1499784
11
285.0234598
21
-82.9716709
0
LINE
8
0
10
285.1055714
20
-82.9737159
11
400.3633989
21
-83.4766263
0
LINE
8
0
10
402.3546533
20
-85.4853339
11
402.1392499
21
-134.8518003
0
LINE
8
0
10
402.0946269
20
-135.2632821
11
396.5525618
21
-161.0522072
0
LINE
8
0
10
338.8846568
20
-224.9412967
11
396.0776401
21
-161.9767324
0
LINE
8
0
10
336.6951267
20
-225.4666395
11
298.370275
21
-210.9346591
0
LINE
8
0
10
265.5454676
20
-210.6645844
11
297.6699077
21
-210.8047546
0
LINE
8
0
10
265.3692214
20
-210.6560313
11
246.6922207
21
-208.9212273
0
LINE
8
0
10
246.5098011
20
-208.9126568
11
215.4077184
21
-208.8729528
0
LINE
8
0
10
215.0529598
20
-208.9042076
11
204.0801399
21
-210.8672289
0
LINE
8
0
10
203.8770036
20
-210.8929222
11
166.5686221
21
-213.6814413
0
LINE
8
0
10
166.4221312
20
-213.6870027
11
159.8710458
21
-213.6954479
0
LINE
8
0
10
159.7193986
20
-213.6898865
11
122.3752781
21
-210.8986963
0
LINE
8
0
10
122.2478887
20
-210.8850599
11
111.2294674
21
-209.3472291
0
LINE
8
0
10
110.920509
20
-209.3282938
11
79.8140316
21
-209.8338414
0
LINE
8
0
10
79.617762
20
-209.8467043
11
61.0076709
21
-211.9894801
0
LINE
8
0
10
30.4560719
20
-212.2673065
11
60.7963543
21
-212.0025309
0
LINE
8
0
10
28.7365087
20
-211.3175355
11
17.9307041
21
-193.8032564
0
LINE
8
0
10
17.6328905
20
-192.7705566
11
17.088851
21
-130.4298014
0
ARC
8
0
10
29.7881191
20
-86.4933463
40
2
50
90.499998
51
166.3085653
0
ARC
8
0
10
40.6712048
20
-82.3982187
40
2
50
270.499998
51
273.3294576
0
ARC
8
0
10
80.9265783
20
-84.0631053
40
2
50
92.1707287
51
93.3294576
0
ARC
8
0
10
101.8631498
20
-83.2695144
40
2
50
85.733981
51
92.1707287
0
ARC
8
0
10
123.0561006
20
-80.8392682
40
2
50
265.733981
51
266.8820809
0
ARC
8
0
10
147.9048847
20
-86.198755
40
2
50
48.6460229
51
86.8820809
0
ARC
8
0
10
155.4756847
20
-87.5337412
40
2
50
228.6460229
51
270.0293755
0
ARC
8
0
10
170.8140313
20
-87.5258774
40
2
50
270.0293755
51
311.3539771
0
ARC
8
0
10
178.3886137
20
-86.1875619
40
2
50
93.3158673
51
131.3539771
0
ARC
8
0
10
202.703683
20
-80.7721004
40
2
50
273.3158673
51
275.4207298
0
ARC
8
0
10
223.9230207
20
-82.776505
40
2
50
88.9839837
51
95.4207298
0
ARC
8
0
10
244.8655233
20
-83.1479144
40
2
50
87.3967817
51
88.9839837
0
ARC
8
0
10
285.114298
20
-80.9737349
40
2
50
267.3967817
51
269.7500005
0
ARC
8
0
10
400.3546723
20
-85.4766073
40
2
50
359.7500005
51
89.7500005
0
ARC
8
0
10
400.1392689
20
-134.8430737
40
2
50
347.8715413
51
359.7500005
0
ARC
8
0
10
394.5972038
20
-160.6319988
40
2
50
317.7499993
51
347.8715413
0
ARC
8
0
10
337.4042206
20
-223.596563
40
2
50
249.2343219
51
317.7499993
0
ARC
8
0
10
297.6611811
20
-212.8047356
40
2
50
69.2343219
51
89.7500005
0
ARC
8
0
10
265.5541942
20
-208.6646034
40
2
50
264.6933356
51
269.7500005
0
ARC
8
0
10
246.5072479
20
-210.9126552
40
2
50
84.6933356
51
89.9268562
0
ARC
8
0
10
215.4051652
20
-210.8729512
40
2
50
89.9268562
51
100.1428348
0
ARC
8
0
10
203.7279346
20
-208.8984853
40
2
50
274.2744764
51
280.1428348
0
ARC
8
0
10
166.419553
20
-211.6870044
40
2
50
270.07386
51
274.2744764
0
ARC
8
0
10
159.8684676
20
-211.6954496
40
2
50
265.7255236
51
270.07386
0
ARC
8
0
10
122.5243471
20
-208.9042594
40
2
50
262.0546096
51
265.7255236
0
ARC
8
0
10
110.953009
20
-211.3280297
40
2
50
82.0546096
51
90.9310974
0
ARC
8
0
10
79.8465316
20
-211.8335773
40
2
50
90.9310974
51
96.5681427
0
ARC
8
0
10
60.7789013
20
-210.0026071
40
2
50
270.499998
51
276.5681427
0
ARC
8
0
10
30.4386189
20
-210.2673827
40
2
50
211.6733864
51
270.499998
0
ARC
8
0
10
19.6328143
20
-192.7531036
40
2
50
180.499998
51
211.6733864
0
ARC
8
0
10
19.0887748
20
-130.4123484
40
2
50
166.3085653
51
180.499998
0
LINE
8
0
10
32.5500758
20
-208.9989087
11
51.0993695
21
-208.8370314
0
LINE
8
0
10
51.0993695
20
-208.8370314
11
50.9374922
21
-190.2877377
0
LINE
8
0
10
50.9374922
20
-190.2877377
11
32.3881985
21
-190.449615
0
LINE
8
0
10
32.3881985
20
-190.449615
11
32.5500758
21
-208.9989087
0
LINE
8
0
10
27.1215357
20
-189.9955575
11
45.6708294
21
-189.8336802
0
LINE
8
0
10
45.6708294
20
-189.8336802
11
45.5089521
21
-171.2843865
0
LINE
8
0
10
45.5089521
20
-171.2843865
11
26.9596584
21
-171.4462638
0
LINE
8
0
10
26.9596584
20
-171.4462638
11
27.1215357
21
-189.9955575
0
LINE
8
0
10
26.9552952
20
-170.9462828
11
45.5045889
21
-170.7844055
0
LINE
8
0
10
45.5045889
20
-170.7844055
11
45.3427116
21
-152.2351118
0
LINE
8
0
10
45.3427116
20
-152.2351118
11
26.7934179
21
-152.3969891
0
LINE
8
0
10
26.7934179
20
-152.3969891
11
26.9552952
21
-170.9462828
0
LINE
8
0
10
26.7890547
20
-151.8970082
11
45.3383484
21
-151.7351309
0
LINE
8
0
10
45.3383484
20
-151.7351309
11
45.1764711
21
-133.1858372
0
LINE
8
0
10
45.1764711
20
-133.1858372
11
26.6271774
21
-133.3477145
0
LINE
8
0
10
26.6271774
20
-133.3477145
11
26.7890547
21
-151.8970082
0
LINE
8
0
10
31.8851138
20
-132.8018102
11
50.4344075
21
-132.6399329
0
LINE
8
0
10
50.4344075
20
-132.6399329
11
50.2725302
21
-114.0906392
0
LINE
8
0
10
50.2725302
20
-114.0906392
11
31.7232365
21
-114.2525165
0
LINE
8
0
10
31.7232365
20
-114.2525165
11
31.8851138
21
-132.8018102
0
LINE
8
0
10
31.7188733
20
-113.7525355
11
50.268167
21
-113.5906582
0
LINE
8
0
10
50.268167
20
-113.5906582
11
50.1062897
21
-95.0413645
0
LINE
8
0
10
50.1062897
20
-95.0413645
11
31.556996
21
-95.2032418
0
LINE
8
0
10
31.556996
20
-95.2032418
11
31.7188733
21
-113.7525355
0
LINE
8
0
10
51.5993505
20
-208.8326682
11
70.1486442
21
-208.6707909
0
LINE
8
0
10
70.1486442
20
-208.6707909
11
69.9867669
21
-190.1214972
0
LINE
8
0
10
69.9867669
20
-190.1214972
11
51.4374732
21
-190.2833745
0
LINE
8
0
10
51.4374732
20
-190.2833745
11
51.5993505
21
-208.8326682
0
LINE
8
0
10
51.43311
20
-189.7833936
11
69.9824037
21
-189.6215163
0
LINE
8
0
10
69.9824037
20
-189.6215163
11
69.8205264
21
-171.0722226
0
LINE
8
0
10
69.8205264
20
-171.0722226
11
51.2712327
21
-171.2340999
0
LINE
8
0
10
51.2712327
20
-171.2340999
11
51.43311
21
-189.7833936
0
LINE
8
0
10
51.2668695
20
-170.7341189
11
69.8161632
21
-170.5722416
0
LINE
8
0
10
69.8161632
20
-170.5722416
11
69.6542859
21
-152.0229479
0
LINE
8
0
10
69.6542859
20
-152.0229479
11
51.1049922
21
-152.1848252
0
LINE
8
0
10
51.1049922
20
-152.1848252
11
51.2668695
21
-170.7341189
0
LINE
8
0
10
51.100629
20
-151.6848443
11
69.6499227
21
-151.522967
0
LINE
8
0
10
69.6499227
20
-151.522967
11
69.4880454
21
-132.9736733
0
LINE
8
0
10
69.4880454
20
-132.9736733
11
50.9387517
21
-133.1355506
0
LINE
8
0
10
50.9387517
20
-133.1355506
11
51.100629
21
-151.6848443
0
LINE
8
0
10
50.9343885
20
-132.6355697
11
69.4836822
21
-132.4736924
0
LINE
8
0
10
69.4836822
20
-132.4736924
11
69.3218049
21
-113.9243987
0
LINE
8
0
10
69.3218049
20
-113.9243987
11
50.7725112
21
-114.086276
0
LINE
8
0
10
50.7725112
20
-114.086276
11
50.9343885
21
-132.6355697
0
LINE
8
0
10
70.4692947
20
-206.5046265
11
89.0185884
21
-206.6665038
0
LINE
8
0
10
89.0185884
20
-206.6665038
11
89.1804657
21
-188.1172101
0
LINE
8
0
10
89.1804657
20
-188.1172101
11
70.631172
21
-187.9553328
0
LINE
8
0
10
70.631172
20
-187.9553328
11
70.4692947
21
-206.5046265
0
LINE
8
0
10
70.6355352
20
-187.4553519
11
89.1848289
21
-187.6172292
0
LINE
8
0
10
89.1848289
20
-187.6172292
11
89.3467062
21
-169.0679355
0
LINE
8
0
10
89.3467062
20
-169.0679355
11
70.7974125
21
-168.9060582
0
LINE
8
0
10
70.7974125
20
-168.9060582
11
70.6355352
21
-187.4553519
0
LINE
8
0
10
70.8017756
20
-168.4060773
11
89.3510693
21
-168.5679546
0
LINE
8
0
10
89.3510693
20
-168.5679546
11
89.5129466
21
-150.0186609
0
LINE
8
0
10
89.5129466
20
-150.0186609
11
70.9636529
21
-149.8567836
0
LINE
8
0
10
70.9636529
20
-149.8567836
11
70.8017756
21
-168.4060773
0
LINE
8
0
10
70.9680161
20
-149.3568026
11
89.5173098
21
-149.5186799
0
LINE
8
0
10
89.5173098
20
-149.5186799
11
89.6791871
21
-130.9693862
0
LINE
8
0
10
89.6791871
20
-130.9693862
11
71.1298934
21
-130.8075089
0
LINE
8
0
10
71.1298934
20
-130.8075089
11
70.9680161
21
-149.3568026
0
LINE
8
0
10
71.1342566
20
-130.307528
11
89.6835503
21
-130.4694053
0
LINE
8
0
10
89.6835503
20
-130.4694053
11
89.8454276
21
-111.9201116
0
LINE
8
0
10
89.8454276
20
-111.9201116
11
71.2961339
21
-111.7582343
0
LINE
8
0
10
71.2961339
20
-111.7582343
11
71.1342566
21
-130.307528
0
LINE
8
0
10
71.300497
20
-111.2582533
11
89.8497907
21
-111.4201306
0
LINE
8
0
10
89.8497907
20
-111.4201306
11
90.011668
21
-92.8708369
0
LINE
8
0
10
90.011668
20
-92.8708369
11
71.4623743
21
-92.7089596
0
LINE
8
0
10
71.4623743
20
-92.7089596
11
71.300497
21
-111.2582533
0
LINE
8
0
10
89.3682685
20
-205.5062274
11
107.9119119
21
-205.9918098
0
LINE
8
0
10
107.9119119
20
-205.9918098
11
108.3974943
21
-187.4481664
0
LINE
8
0
10
108.3974943
20
-187.4481664
11
89.8538509
21
-186.962584
0
LINE
8
0
10
89.8538509
20
-186.962584
11
89.3682685
21
-205.5062274
0
LINE
8
0
10
89.8669393
20
-186.4627553
11
108.4105827
21
-186.9483377
0
LINE
8
0
10
108.4105827
20
-186.9483377
11
108.8961651
21
-168.4046943
0
LINE
8
0
10
108.8961651
20
-168.4046943
11
90.3525217
21
-167.9191119
0
LINE
8
0
10
90.3525217
20
-167.9191119
11
89.8669393
21
-186.4627553
0
LINE
8
0
10
90.3656102
20
-167.4192832
11
108.9092536
21
-167.9048656
0
LINE
8
0
10
108.9092536
20
-167.9048656
11
109.394836
21
-149.3612222
0
LINE
8
0
10
109.394836
20
-149.3612222
11
90.8511926
21
-148.8756398
0
LINE
8
0
10
90.8511926
20
-148.8756398
11
90.3656102
21
-167.4192832
0
LINE
8
0
10
90.864281
20
-148.3758111
11
109.4079244
21
-148.8613935
0
LINE
8
0
10
109.4079244
20
-148.8613935
11
109.8935068
21
-130.3177501
0
LINE
8
0
10
109.8935068
20
-130.3177501
11
91.3498634
21
-129.8321677
0
LINE
8
0
10
91.3498634
20
-129.8321677
11
90.864281
21
-148.3758111
0
LINE
8
0
10
91.3629519
20
-129.332339
11
109.9065953
21
-129.8179214
0
LINE
8
0
10
109.9065953
20
-129.8179214
11
110.3921777
21
-111.274278
0
LINE
8
0
10
110.3921777
20
-111.274278
11
91.8485343
21
-110.7886956
0
LINE
8
0
10
91.8485343
20
-110.7886956
11
91.3629519
21
-129.332339
0
LINE
8
0
10
91.8616228
20
-110.2888669
11
110.4052662
21
-110.7744493
0
LINE
8
0
10
110.4052662
20
-110.7744493
11
110.8908486
21
-92.2308059
0
LINE
8
0
10
110.8908486
20
-92.2308059
11
92.3472052
21
-91.7452235
0
LINE
8
0
10
92.3472052
20
-91.7452235
11
91.8616228
21
-110.2888669
0
LINE
8
0
10
109.0603838
20
-187.8052589
11
127.5927283
21
-188.6143986
0
LINE
8
0
10
127.5927283
20
-188.6143986
11
128.401868
21
-170.0820541
0
LINE
8
0
10
128.401868
20
-170.0820541
11
109.8695235
21
-169.2729144
0
LINE
8
0
10
109.8695235
20
-169.2729144
11
109.0603838
21
-187.8052589
0
LINE
8
0
10
109.8913332
20
-168.7733904
11
128.4236777
21
-169.5825301
0
LINE
8
0
10
128.4236777
20
-169.5825301
11
129.2328174
21
-151.0501856
0
LINE
8
0
10
129.2328174
20
-151.0501856
11
110.7004729
21
-150.2410459
0
LINE
8
0
10
110.7004729
20
-150.2410459
11
109.8913332
21
-168.7733904
0
LINE
8
0
10
110.7222825
20
-149.7415218
11
129.254627
21
-150.5506615
0
LINE
8
0
10
129.254627
20
-150.5506615
11
130.0637667
21
-132.018317
0
LINE
8
0
10
130.0637667
20
-132.018317
11
111.5314222
21
-131.2091773
0
LINE
8
0
10
111.5314222
20
-131.2091773
11
110.7222825
21
-149.7415218
0
LINE
8
0
10
111.5532319
20
-130.7096532
11
130.0855764
21
-131.5187929
0
LINE
8
0
10
130.0855764
20
-131.5187929
11
130.8947161
21
-112.9864484
0
LINE
8
0
10
130.8947161
20
-112.9864484
11
112.3623716
21
-112.1773087
0
LINE
8
0
10
112.3623716
20
-112.1773087
11
111.5532319
21
-130.7096532
0
LINE
8
0
10
112.3841812
20
-111.6777846
11
130.9165257
21
-112.4869243
0
LINE
8
0
10
130.9165257
20
-112.4869243
11
131.7256654
21
-93.9545798
0
LINE
8
0
10
131.7256654
20
-93.9545798
11
113.1933209
21
-93.1454401
0
LINE
8
0
10
113.1933209
20
-93.1454401
11
112.3841812
21
-111.6777846
0
LINE
8
0
10
125.7135519
20
-207.8035909
11
144.2421894
21
-208.6935852
0
LINE
8
0
10
144.2421894
20
-208.6935852
11
145.1321837
21
-190.1649477
0
LINE
8
0
10
145.1321837
20
-190.1649477
11
126.6035462
21
-189.2749534
0
LINE
8
0
10
126.6035462
20
-189.2749534
11
125.7135519
21
-207.8035909
0
LINE
8
0
10
128.1258078
20
-188.8474964
11
146.6544453
21
-189.7374907
0
LINE
8
0
10
146.6544453
20
-189.7374907
11
147.5444396
21
-171.2088532
0
LINE
8
0
10
147.5444396
20
-171.2088532
11
129.0158021
21
-170.3188589
0
LINE
8
0
10
129.0158021
20
-170.3188589
11
128.1258078
21
-188.8474964
0
LINE
8
0
10
129.0397911
20
-169.8194347
11
147.5684286
21
-170.709429
0
LINE
8
0
10
147.5684286
20
-170.709429
11
148.4584229
21
-152.1807915
0
LINE
8
0
10
148.4584229
20
-152.1807915
11
129.9297854
21
-151.2907972
0
LINE
8
0
10
129.9297854
20
-151.2907972
11
129.0397911
21
-169.8194347
0
LINE
8
0
10
129.9537745
20
-150.7913729
11
148.482412
21
-151.6813672
0
LINE
8
0
10
148.482412
20
-151.6813672
11
149.3724063
21
-133.1527297
0
LINE
8
0
10
149.3724063
20
-133.1527297
11
130.8437688
21
-132.2627354
0
LINE
8
0
10
130.8437688
20
-132.2627354
11
129.9537745
21
-150.7913729
0
LINE
8
0
10
130.8677578
20
-131.7633112
11
149.3963953
21
-132.6533055
0
LINE
8
0
10
149.3963953
20
-132.6533055
11
150.2863896
21
-114.124668
0
LINE
8
0
10
150.2863896
20
-114.124668
11
131.7577521
21
-113.2346737
0
LINE
8
0
10
131.7577521
20
-113.2346737
11
130.8677578
21
-131.7633112
0
LINE
8
0
10
131.7817412
20
-112.7352495
11
150.3103787
21
-113.6252438
0
LINE
8
0
10
150.3103787
20
-113.6252438
11
151.200373
21
-95.0966063
0
LINE
8
0
10
151.200373
20
-95.0966063
11
132.6717355
21
-94.206612
0
LINE
8
0
10
132.6717355
20
-94.206612
11
131.7817412
21
-112.7352495
0
LINE
8
0
10
182.048406
20
-208.6849475
11
200.5770435
21
-207.7949532
0
LINE
8
0
10
200.5770435
20
-207.7949532
11
199.6870492
21
-189.2663157
0
LINE
8
0
10
199.6870492
20
-189.2663157
11
181.1584117
21
-190.15631
0
LINE
8
0
10
181.1584117
20
-190.15631
11
182.048406
21
-208.6849475
0
LINE
8
0
10
179.63615
20
-189.7288529
11
198.1647875
21
-188.8388586
0
LINE
8
0
10
198.1647875
20
-188.8388586
11
197.2747932
21
-170.3102211
0
LINE
8
0
10
197.2747932
20
-170.3102211
11
178.7461557
21
-171.2002154
0
LINE
8
0
10
178.7461557
20
-171.2002154
11
179.63615
21
-189.7288529
0
LINE
8
0
10
178.7221666
20
-170.7007912
11
197.2508041
21
-169.8107969
0
LINE
8
0
10
197.2508041
20
-169.8107969
11
196.3608098
21
-151.2821594
0
LINE
8
0
10
196.3608098
20
-151.2821594
11
177.8321723
21
-152.1721537
0
LINE
8
0
10
177.8321723
20
-152.1721537
11
178.7221666
21
-170.7007912
0
LINE
8
0
10
177.8081833
20
-151.6727295
11
196.3368208
21
-150.7827352
0
LINE
8
0
10
196.3368208
20
-150.7827352
11
195.4468265
21
-132.2540977
0
LINE
8
0
10
195.4468265
20
-132.2540977
11
176.918189
21
-133.144092
0
LINE
8
0
10
176.918189
20
-133.144092
11
177.8081833
21
-151.6727295
0
LINE
8
0
10
176.8941999
20
-132.6446678
11
195.4228374
21
-131.7546735
0
LINE
8
0
10
195.4228374
20
-131.7546735
11
194.5328431
21
-113.226036
0
LINE
8
0
10
194.5328431
20
-113.226036
11
176.0042056
21
-114.1160303
0
LINE
8
0
10
176.0042056
20
-114.1160303
11
176.8941999
21
-132.6446678
0
LINE
8
0
10
175.9802166
20
-113.616606
11
194.5088541
21
-112.7266117
0
LINE
8
0
10
194.5088541
20
-112.7266117
11
193.6188598
21
-94.1979742
0
LINE
8
0
10
193.6188598
20
-94.1979742
11
175.0902223
21
-95.0879685
0
LINE
8
0
10
175.0902223
20
-95.0879685
11
175.9802166
21
-113.616606
0
LINE
8
0
10
198.6522172
20
-188.5651575
11
217.1808547
21
-187.6751632
0
LINE
8
0
10
217.1808547
20
-187.6751632
11
216.2908604
21
-169.1465257
0
LINE
8
0
10
216.2908604
20
-169.1465257
11
197.7622229
21
-170.03652
0
LINE
8
0
10
197.7622229
20
-170.03652
11
198.6522172
21
-188.5651575
0
LINE
8
0
10
197.7382339
20
-169.5370958
11
216.2668714
21
-168.6471015
0
LINE
8
0
10
216.2668714
20
-168.6471015
11
215.3768771
21
-150.118464
0
LINE
8
0
10
215.3768771
20
-150.118464
11
196.8482396
21
-151.0084583
0
LINE
8
0
10
196.8482396
20
-151.0084583
11
197.7382339
21
-169.5370958
0
LINE
8
0
10
196.8242505
20
-150.5090341
11
215.352888
21
-149.6190398
0
LINE
8
0
10
215.352888
20
-149.6190398
11
214.4628937
21
-131.0904023
0
LINE
8
0
10
214.4628937
20
-131.0904023
11
195.9342562
21
-131.9803966
0
LINE
8
0
10
195.9342562
20
-131.9803966
11
196.8242505
21
-150.5090341
0
LINE
8
0
10
195.9102672
20
-131.4809724
11
214.4389047
21
-130.5909781
0
LINE
8
0
10
214.4389047
20
-130.5909781
11
213.5489104
21
-112.0623406
0
LINE
8
0
10
213.5489104
20
-112.0623406
11
195.0202729
21
-112.9523349
0
LINE
8
0
10
195.0202729
20
-112.9523349
11
195.9102672
21
-131.4809724
0
LINE
8
0
10
194.9962838
20
-112.4529106
11
213.5249213
21
-111.5629163
0
LINE
8
0
10
213.5249213
20
-111.5629163
11
212.634927
21
-93.0342788
0
LINE
8
0
10
212.634927
20
-93.0342788
11
194.1062895
21
-93.9242731
0
LINE
8
0
10
194.1062895
20
-93.9242731
11
194.9962838
21
-112.4529106
0
LINE
8
0
10
218.3781765
20
-205.5249903
11
236.9195246
21
-204.9585008
0
LINE
8
0
10
236.9195246
20
-204.9585008
11
236.3530351
21
-186.4171527
0
LINE
8
0
10
236.3530351
20
-186.4171527
11
217.811687
21
-186.9836422
0
LINE
8
0
10
217.811687
20
-186.9836422
11
218.3781765
21
-205.5249903
0
LINE
8
0
10
217.7964178
20
-186.4838755
11
236.3377659
21
-185.917386
0
LINE
8
0
10
236.3377659
20
-185.917386
11
235.7712764
21
-167.3760379
0
LINE
8
0
10
235.7712764
20
-167.3760379
11
217.2299283
21
-167.9425274
0
LINE
8
0
10
217.2299283
20
-167.9425274
11
217.7964178
21
-186.4838755
0
LINE
8
0
10
217.2146591
20
-167.4427606
11
235.7560072
21
-166.8762711
0
LINE
8
0
10
235.7560072
20
-166.8762711
11
235.1895177
21
-148.334923
0
LINE
8
0
10
235.1895177
20
-148.334923
11
216.6481696
21
-148.9014125
0
LINE
8
0
10
216.6481696
20
-148.9014125
11
217.2146591
21
-167.4427606
0
LINE
8
0
10
216.6329003
20
-148.4016457
11
235.1742484
21
-147.8351562
0
LINE
8
0
10
235.1742484
20
-147.8351562
11
234.6077589
21
-129.2938081
0
LINE
8
0
10
234.6077589
20
-129.2938081
11
216.0664108
21
-129.8602976
0
LINE
8
0
10
216.0664108
20
-129.8602976
11
216.6329003
21
-148.4016457
0
LINE
8
0
10
216.0511416
20
-129.3605308
11
234.5924897
21
-128.7940413
0
LINE
8
0
10
234.5924897
20
-128.7940413
11
234.0260002
21
-110.2526932
0
LINE
8
0
10
234.0260002
20
-110.2526932
11
215.4846521
21
-110.8191827
0
LINE
8
0
10
215.4846521
20
-110.8191827
11
216.0511416
21
-129.3605308
0
LINE
8
0
10
215.4693829
20
-110.3194159
11
234.010731
21
-109.7529264
0
LINE
8
0
10
234.010731
20
-109.7529264
11
233.4442415
21
-91.2115783
0
LINE
8
0
10
233.4442415
20
-91.2115783
11
214.9028934
21
-91.7780678
0
LINE
8
0
10
214.9028934
20
-91.7780678
11
215.4693829
21
-110.3194159
0
LINE
8
0
10
237.2844598
20
-205.7844579
11
255.8328706
21
-205.5416459
0
LINE
8
0
10
255.8328706
20
-205.5416459
11
255.5900586
21
-186.9932351
0
LINE
8
0
10
255.5900586
20
-186.9932351
11
237.0416478
21
-187.2360471
0
LINE
8
0
10
237.0416478
20
-187.2360471
11
237.2844598
21
-205.7844579
0
LINE
8
0
10
237.0351031
20
-186.7360899
11
255.5835139
21
-186.4932779
0
LINE
8
0
10
255.5835139
20
-186.4932779
11
255.3407019
21
-167.9448671
0
LINE
8
0
10
255.3407019
20
-167.9448671
11
236.7922911
21
-168.1876791
0
LINE
8
0
10
236.7922911
20
-168.1876791
11
237.0351031
21
-186.7360899
0
LINE
8
0
10
236.7857463
20
-167.6877219
11
255.3341571
21
-167.4449099
0
LINE
8
0
10
255.3341571
20
-167.4449099
11
255.0913451
21
-148.8964991
0
LINE
8
0
10
255.0913451
20
-148.8964991
11
236.5429343
21
-149.1393111
0
LINE
8
0
10
236.5429343
20
-149.1393111
11
236.7857463
21
-167.6877219
0
LINE
8
0
10
236.5363896
20
-148.6393539
11
255.0848004
21
-148.3965419
0
LINE
8
0
10
255.0848004
20
-148.3965419
11
254.8419884
21
-129.8481311
0
LINE
8
0
10
254.8419884
20
-129.8481311
11
236.2935776
21
-130.0909431
0
LINE
8
0
10
236.2935776
20
-130.0909431
11
236.5363896
21
-148.6393539
0
LINE
8
0
10
236.2870328
20
-129.590986
11
254.8354436
21
-129.348174
0
LINE
8
0
10
254.8354436
20
-129.348174
11
254.5926316
21
-110.7997632
0
LINE
8
0
10
254.5926316
20
-110.7997632
11
236.0442208
21
-111.0425752
0
LINE
8
0
10
236.0442208
20
-111.0425752
11
236.2870328
21
-129.590986
0
LINE
8
0
10
236.037676
20
-110.542618
11
254.5860868
21
-110.299806
0
LINE
8
0
10
254.5860868
20
-110.299806
11
254.3432748
21
-91.7513952
0
LINE
8
0
10
254.3432748
20
-91.7513952
11
235.794864
21
-91.9942072
0
LINE
8
0
10
235.794864
20
-91.9942072
11
236.037676
21
-110.542618
0
LINE
8
0
10
256.196425
20
-207.3737603
11
274.7462484
21
-207.4546997
0
LINE
8
0
10
274.7462484
20
-207.4546997
11
274.8271878
21
-188.9048763
0
LINE
8
0
10
274.8271878
20
-188.9048763
11
256.2773644
21
-188.8239369
0
LINE
8
0
10
256.2773644
20
-188.8239369
11
256.196425
21
-207.3737603
0
LINE
8
0
10
256.279546
20
-188.3239417
11
274.8293694
21
-188.4048811
0
LINE
8
0
10
274.8293694
20
-188.4048811
11
274.9103088
21
-169.8550577
0
LINE
8
0
10
274.9103088
20
-169.8550577
11
256.3604854
21
-169.7741183
0
LINE
8
0
10
256.3604854
20
-169.7741183
11
256.279546
21
-188.3239417
0
LINE
8
0
10
256.3626671
20
-169.2741231
11
274.9124905
21
-169.3550625
0
LINE
8
0
10
274.9124905
20
-169.3550625
11
274.9934299
21
-150.8052391
0
LINE
8
0
10
274.9934299
20
-150.8052391
11
256.4436065
21
-150.7242997
0
LINE
8
0
10
256.4436065
20
-150.7242997
11
256.3626671
21
-169.2741231
0
LINE
8
0
10
256.4457881
20
-150.2243045
11
274.9956115
21
-150.3052439
0
LINE
8
0
10
274.9956115
20
-150.3052439
11
275.0765509
21
-131.7554205
0
LINE
8
0
10
275.0765509
20
-131.7554205
11
256.5267275
21
-131.6744811
0
LINE
8
0
10
256.5267275
20
-131.6744811
11
256.4457881
21
-150.2243045
0
LINE
8
0
10
256.5289092
20
-131.1744859
11
275.0787326
21
-131.2554253
0
LINE
8
0
10
275.0787326
20
-131.2554253
11
275.159672
21
-112.7056019
0
LINE
8
0
10
275.159672
20
-112.7056019
11
256.6098486
21
-112.6246625
0
LINE
8
0
10
256.6098486
20
-112.6246625
11
256.5289092
21
-131.1744859
0
LINE
8
0
10
275.2462436
20
-207.4568814
11
293.796067
21
-207.5378208
0
LINE
8
0
10
293.796067
20
-207.5378208
11
293.8770064
21
-188.9879974
0
LINE
8
0
10
293.8770064
20
-188.9879974
11
275.327183
21
-188.907058
0
LINE
8
0
10
275.327183
20
-188.907058
11
275.2462436
21
-207.4568814
0
LINE
8
0
10
280.6918136
20
-188.4304611
11
299.241637
21
-188.5114005
0
LINE
8
0
10
299.241637
20
-188.5114005
11
299.3225764
21
-169.9615771
0
LINE
8
0
10
299.3225764
20
-169.9615771
11
280.772753
21
-169.8806377
0
LINE
8
0
10
280.772753
20
-169.8806377
11
280.6918136
21
-188.4304611
0
LINE
8
0
10
275.4124857
20
-169.3572441
11
293.9623091
21
-169.4381835
0
LINE
8
0
10
293.9623091
20
-169.4381835
11
294.0432485
21
-150.8883601
0
LINE
8
0
10
294.0432485
20
-150.8883601
11
275.4934251
21
-150.8074207
0
LINE
8
0
10
275.4934251
20
-150.8074207
11
275.4124857
21
-169.3572441
0
LINE
8
0
10
275.4956067
20
-150.3074255
11
294.0454301
21
-150.3883649
0
LINE
8
0
10
294.0454301
20
-150.3883649
11
294.1263695
21
-131.8385415
0
LINE
8
0
10
294.1263695
20
-131.8385415
11
275.5765461
21
-131.7576021
0
LINE
8
0
10
275.5765461
20
-131.7576021
11
275.4956067
21
-150.3074255
0
LINE
8
0
10
275.5787278
20
-131.2576069
11
294.1285512
21
-131.3385463
0
LINE
8
0
10
294.1285512
20
-131.3385463
11
294.2094906
21
-112.7887229
0
LINE
8
0
10
294.2094906
20
-112.7887229
11
275.6596672
21
-112.7077835
0
LINE
8
0
10
275.6596672
20
-112.7077835
11
275.5787278
21
-131.2576069
0
LINE
8
0
10
275.6618488
20
-112.2077883
11
294.2116722
21
-112.2887277
0
LINE
8
0
10
294.2116722
20
-112.2887277
11
294.2926116
21
-93.7389043
0
LINE
8
0
10
294.2926116
20
-93.7389043
11
275.7427882
21
-93.6579649
0
LINE
8
0
10
275.7427882
20
-93.6579649
11
275.6618488
21
-112.2077883
0
LINE
8
0
10
299.8247534
20
-169.4637636
11
318.3745768
21
-169.544703
0
LINE
8
0
10
318.3745768
20
-169.544703
11
318.4555162
21
-150.9948796
0
LINE
8
0
10
318.4555162
20
-150.9948796
11
299.9056928
21
-150.9139402
0
LINE
8
0
10
299.9056928
20
-150.9139402
11
299.8247534
21
-169.4637636
0
LINE
8
0
10
294.5454254
20
-150.3905467
11
313.0952488
21
-150.4714861
0
LINE
8
0
10
313.0952488
20
-150.4714861
11
313.1761882
21
-131.9216627
0
LINE
8
0
10
313.1761882
20
-131.9216627
11
294.6263648
21
-131.8407233
0
LINE
8
0
10
294.6263648
20
-131.8407233
11
294.5454254
21
-150.3905467
0
LINE
8
0
10
294.6285465
20
-131.3407281
11
313.1783699
21
-131.4216675
0
LINE
8
0
10
313.1783699
20
-131.4216675
11
313.2593093
21
-112.8718441
0
LINE
8
0
10
313.2593093
20
-112.8718441
11
294.7094859
21
-112.7909047
0
LINE
8
0
10
294.7094859
20
-112.7909047
11
294.6285465
21
-131.3407281
0
LINE
8
0
10
294.7116675
20
-112.2909094
11
313.2614909
21
-112.3718488
0
LINE
8
0
10
313.2614909
20
-112.3718488
11
313.3424303
21
-93.8220254
0
LINE
8
0
10
313.3424303
20
-93.8220254
11
294.7926069
21
-93.741086
0
LINE
8
0
10
294.7926069
20
-93.741086
11
294.7116675
21
-112.2909094
0
LINE
8
0
10
313.5952441
20
-150.4736676
11
332.1450675
21
-150.554607
0
LINE
8
0
10
332.1450675
20
-150.554607
11
332.2260069
21
-132.0047836
0
LINE
8
0
10
332.2260069
20
-132.0047836
11
313.6761835
21
-131.9238442
0
LINE
8
0
10
313.6761835
20
-131.9238442
11
313.5952441
21
-150.4736676
0
LINE
8
0
10
319.0408141
20
-131.4472473
11
337.5906375
21
-131.5281867
0
LINE
8
0
10
337.5906375
20
-131.5281867
11
337.6715769
21
-112.9783633
0
LINE
8
0
10
337.6715769
20
-112.9783633
11
319.1217535
21
-112.8974239
0
LINE
8
0
10
319.1217535
20
-112.8974239
11
319.0408141
21
-131.4472473
0
LINE
8
0
10
313.7614862
20
-112.3740304
11
332.3113096
21
-112.4549698
0
LINE
8
0
10
332.3113096
20
-112.4549698
11
332.392249
21
-93.9051464
0
LINE
8
0
10
332.392249
20
-93.9051464
11
313.8424256
21
-93.824207
0
LINE
8
0
10
313.8424256
20
-93.824207
11
313.7614862
21
-112.3740304
0
LINE
8
0
10
332.8113049
20
-112.4571515
11
351.3611283
21
-112.5380909
0
LINE
8
0
10
351.3611283
20
-112.5380909
11
351.4420677
21
-93.9882675
0
LINE
8
0
10
351.4420677
20
-93.9882675
11
332.8922443
21
-93.9073281
0
LINE
8
0
10
332.8922443
20
-93.9073281
11
332.8113049
21
-112.4571515
0
LINE
8
0
10
337.7482742
20
-221.3586853
11
350.2206785
21
-207.627639
0
LINE
8
0
10
350.2206785
20
-207.627639
11
336.4896322
21
-195.1552347
0
LINE
8
0
10
336.4896322
20
-195.1552347
11
324.0172279
21
-208.886281
0
LINE
8
0
10
324.0172279
20
-208.886281
11
337.7482742
21
-221.3586853
0
LINE
8
0
10
323.6471189
20
-208.5500976
11
336.1195232
21
-194.8190513
0
LINE
8
0
10
336.1195232
20
-194.8190513
11
322.3884769
21
-182.346647
0
LINE
8
0
10
322.3884769
20
-182.346647
11
309.9160726
21
-196.0776933
0
LINE
8
0
10
309.9160726
20
-196.0776933
11
323.6471189
21
-208.5500976
0
LINE
8
0
10
350.5568619
20
-207.25753
11
363.0292662
21
-193.5264837
0
LINE
8
0
10
363.0292662
20
-193.5264837
11
349.2982199
21
-181.0540794
0
LINE
8
0
10
349.2982199
20
-181.0540794
11
336.8258156
21
-194.7851257
0
LINE
8
0
10
336.8258156
20
-194.7851257
11
350.5568619
21
-207.25753
0
LINE
8
0
10
336.4557066
20
-194.4489423
11
348.9281109
21
-180.717896
0
LINE
8
0
10
348.9281109
20
-180.717896
11
335.1970646
21
-168.2454917
0
LINE
8
0
10
335.1970646
20
-168.2454917
11
322.7246603
21
-181.976538
0
LINE
8
0
10
322.7246603
20
-181.976538
11
336.4557066
21
-194.4489423
0
LINE
8
0
10
366.5675965
20
-189.6310857
11
379.0400008
21
-175.9000394
0
LINE
8
0
10
379.0400008
20
-175.9000394
11
365.3089545
21
-163.4276351
0
LINE
8
0
10
365.3089545
20
-163.4276351
11
352.8365502
21
-177.1586814
0
LINE
8
0
10
352.8365502
20
-177.1586814
11
366.5675965
21
-189.6310857
0
LINE
8
0
10
352.4664412
20
-176.8224981
11
364.9388455
21
-163.0914518
0
LINE
8
0
10
364.9388455
20
-163.0914518
11
351.2077992
21
-150.6190475
0
LINE
8
0
10
351.2077992
20
-150.6190475
11
338.7353949
21
-164.3500938
0
LINE
8
0
10
338.7353949
20
-164.3500938
11
352.4664412
21
-176.8224981
0
LINE
8
0
10
379.3761842
20
-175.5299304
11
391.8485885
21
-161.7988841
0
LINE
8
0
10
391.8485885
20
-161.7988841
11
378.1175422
21
-149.3264798
0
LINE
8
0
10
378.1175422
20
-149.3264798
11
365.6451379
21
-163.0575261
0
LINE
8
0
10
365.6451379
20
-163.0575261
11
379.3761842
21
-175.5299304
0
LINE
8
0
10
365.2750289
20
-162.7213427
11
377.7474332
21
-148.9902964
0
LINE
8
0
10
377.7474332
20
-148.9902964
11
364.0163869
21
-136.5178921
0
LINE
8
0
10
364.0163869
20
-136.5178921
11
351.5439826
21
-150.2489384
0
LINE
8
0
10
351.5439826
20
-150.2489384
11
365.2750289
21
-162.7213427
0
LINE
8
0
10
361.3029118
20
-131.6316517
11
379.8527352
21
-131.7125911
0
LINE
8
0
10
379.8527352
20
-131.7125911
11
379.9336746
21
-113.1627677
0
LINE
8
0
10
379.9336746
20
-113.1627677
11
361.3838512
21
-113.0818283
0
LINE
8
0
10
361.3838512
20
-113.0818283
11
361.3029118
21
-131.6316517
0
LINE
8
0
10
361.3860329
20
-112.5818331
11
379.9358563
21
-112.6627725
0
LINE
8
0
10
379.9358563
20
-112.6627725
11
380.0167957
21
-94.1129491
0
LINE
8
0
10
380.0167957
20
-94.1129491
11
361.4669723
21
-94.0320097
0
LINE
8
0
10
361.4669723
20
-94.0320097
11
361.3860329
21
-112.5818331
0
LINE
8
0
10
380.3527304
20
-131.7147728
11
398.9025538
21
-131.7957122
0
LINE
8
0
10
398.9025538
20
-131.7957122
11
398.9834932
21
-113.2458888
0
LINE
8
0
10
398.9834932
20
-113.2458888
11
380.4336698
21
-113.1649494
0
LINE
8
0
10
380.4336698
20
-113.1649494
11
380.3527304
21
-131.7147728
0
LINE
8
0
10
380.4358515
20
-112.6649541
11
398.9856749
21
-112.7458935
0
LINE
8
0
10
398.9856749
20
-112.7458935
11
399.0666143
21
-94.1960701
0
LINE
8
0
10
399.0666143
20
-94.1960701
11
380.5167909
21
-94.1151307
0
LINE
8
0
10
380.5167909
20
-94.1151307
11
380.4358515
21
-112.6649541
0
ENDSEC
0
EOF