0
SECTION
2
HEADER
9
$INSUNITS
70
4
0
ENDSEC
0
SECTION
2
TABLES
0
TABLE
2
LTYPE
0
LTYPE
72
65
70
64
2
CONTINUOUS
3
______
73
0
40
0
0
ENDTAB
0
TABLE
2
LAYER
0
ENDTAB
0
ENDSEC
0
SECTION
2
ENTITIES
0
LINE
8
0
10
3.041554
20
-104.9629545
11
13.9023504
21
-62.0145125
0
LINE
8
0
10
16.8107964
20
-59.75
11
133.7242979
21
-59.75
0
LINE
8
0
10
135.5960996
20
-60.4055685
11
140.2164004
21
-64.0944315
0
LINE
8
0
10
142.0882021
20
-64.75
11
161.7617979
21
-64.75
0
LINE
8
0
10
163.6335996
20
-64.0944315
11
168.2539004
21
-60.4055685
0
LINE
8
0
10
170.1257021
20
-59.75
11
410.2
21
-59.75
0
LINE
8
0
10
413.2
20
-62.75
11
413.2
21
-110.900372
0
LINE
8
0
10
413.0821549
20
-111.7329482
11
405.8825273
21
-136.6561259
0
LINE
8
0
10
405.1216928
20
-137.94487
11
374.7938997
21
-168.2726631
0
LINE
8
0
10
374.1000353
20
-168.7899731
11
334.1735251
21
-190.3895605
0
LINE
8
0
10
332.5229734
20
-190.7426234
11
289.4863932
21
-187.5333068
0
LINE
8
0
10
289.2632973
20
-187.525
11
16.1663311
21
-187.525
0
LINE
8
0
10
13.5995169
20
-186.077889
11
3.3831857
21
-169.191025
0
LINE
8
0
10
2.95
20
-167.638136
11
2.95
21
-105.698442
0
ARC
8
0
10
16.8107964
20
-62.75
40
3
50
90
51
165.8085628
0
ARC
8
0
10
133.7242979
20
-62.75
40
3
50
51.3960216
51
90
0
ARC
8
0
10
142.0882021
20
-61.75
40
3
50
231.3960216
51
270
0
ARC
8
0
10
161.7617979
20
-61.75
40
3
50
270
51
308.6039784
0
ARC
8
0
10
170.1257021
20
-62.75
40
3
50
90
51
128.6039784
0
ARC
8
0
10
410.2
20
-62.75
40
3
50
0
51
90
0
ARC
8
0
10
410.2
20
-110.900372
40
3
50
343.8874318
51
0
0
ARC
8
0
10
403.0003725
20
-135.8235497
40
3
50
315
51
343.8874318
0
ARC
8
0
10
372.6725794
20
-166.1513428
40
3
50
298.4126634
51
315
0
ARC
8
0
10
332.7460693
20
-187.7509302
40
3
50
265.7352453
51
298.4126634
0
ARC
8
0
10
289.2632973
20
-190.525
40
3
50
85.7352453
51
90
0
ARC
8
0
10
16.1663311
20
-184.525
40
3
50
211.173389
51
270
0
ARC
8
0
10
5.95
20
-167.638136
40
3
50
180
51
211.173389
0
ARC
8
0
10
5.95
20
-105.698442
40
3
50
165.8085628
51
180
0
LINE
8
0
10
17.725
20
-184.275
11
36.275
21
-184.275
0
LINE
8
0
10
36.275
20
-184.275
11
36.275
21
-165.725
0
LINE
8
0
10
36.275
20
-165.725
11
17.725
21
-165.725
0
LINE
8
0
10
17.725
20
-165.725
11
17.725
21
-184.275
0
LINE
8
0
10
12.4625
20
-165.225
11
31.0125
21
-165.225
0
LINE
8
0
10
31.0125
20
-165.225
11
31.0125
21
-146.675
0
LINE
8
0
10
31.0125
20
-146.675
11
12.4625
21
-146.675
0
LINE
8
0
10
12.4625
20
-146.675
11
12.4625
21
-165.225
0
LINE
8
0
10
12.4625
20
-146.175
11
31.0125
21
-146.175
0
LINE
8
0
10
31.0125
20
-146.175
11
31.0125
21
-127.625
0
LINE
8
0
10
31.0125
20
-127.625
11
12.4625
21
-127.625
0
LINE
8
0
10
12.4625
20
-127.625
11
12.4625
21
-146.175
0
LINE
8
0
10
12.4625
20
-127.125
11
31.0125
21
-127.125
0
LINE
8
0
10
31.0125
20
-127.125
11
31.0125
21
-108.575
0
LINE
8
0
10
31.0125
20
-108.575
11
12.4625
21
-108.575
0
LINE
8
0
10
12.4625
20
-108.575
11
12.4625
21
-127.125
0
LINE
8
0
10
17.725
20
-108.075
11
36.275
21
-108.075
0
LINE
8
0
10
36.275
20
-108.075
11
36.275
21
-89.525
0
LINE
8
0
10
36.275
20
-89.525
11
17.725
21
-89.525
0
LINE
8
0
10
17.725
20
-89.525
11
17.725
21
-108.075
0
LINE
8
0
10
17.725
20
-89.025
11
36.275
21
-89.025
0
LINE
8
0
10
36.275
20
-89.025
11
36.275
21
-70.475
0
LINE
8
0
10
36.275
20
-70.475
11
17.725
21
-70.475
0
LINE
8
0
10
17.725
20
-70.475
11
17.725
21
-89.025
0
LINE
8
0
10
36.775
20
-184.275
11
55.325
21
-184.275
0
LINE
8
0
10
55.325
20
-184.275
11
55.325
21
-165.725
0
LINE
8
0
10
55.325
20
-165.725
11
36.775
21
-165.725
0
LINE
8
0
10
36.775
20
-165.725
11
36.775
21
-184.275
0
LINE
8
0
10
36.775
20
-165.225
11
55.325
21
-165.225
0
LINE
8
0
10
55.325
20
-165.225
11
55.325
21
-146.675
0
LINE
8
0
10
55.325
20
-146.675
11
36.775
21
-146.675
0
LINE
8
0
10
36.775
20
-146.675
11
36.775
21
-165.225
0
LINE
8
0
10
36.775
20
-146.175
11
55.325
21
-146.175
0
LINE
8
0
10
55.325
20
-146.175
11
55.325
21
-127.625
0
LINE
8
0
10
55.325
20
-127.625
11
36.775
21
-127.625
0
LINE
8
0
10
36.775
20
-127.625
11
36.775
21
-146.175
0
LINE
8
0
10
36.775
20
-127.125
11
55.325
21
-127.125
0
LINE
8
0
10
55.325
20
-127.125
11
55.325
21
-108.575
0
LINE
8
0
10
55.325
20
-108.575
11
36.775
21
-108.575
0
LINE
8
0
10
36.775
20
-108.575
11
36.775
21
-127.125
0
LINE
8
0
10
36.775
20
-108.075
11
55.325
21
-108.075
0
LINE
8
0
10
55.325
20
-108.075
11
55.325
21
-89.525
0
LINE
8
0
10
55.325
20
-89.525
11
36.775
21
-89.525
0
LINE
8
0
10
36.775
20
-89.525
11
36.775
21
-108.075
0
LINE
8
0
10
55.825
20
-184.275
11
74.375
21
-184.275
0
LINE
8
0
10
74.375
20
-184.275
11
74.375
21
-165.725
0
LINE
8
0
10
74.375
20
-165.725
11
55.825
21
-165.725
0
LINE
8
0
10
55.825
20
-165.725
11
55.825
21
-184.275
0
LINE
8
0
10
55.825
20
-165.225
11
74.375
21
-165.225
0
LINE
8
0
10
74.375
20
-165.225
11
74.375
21
-146.675
0
LINE
8
0
10
74.375
20
-146.675
11
55.825
21
-146.675
0
LINE
8
0
10
55.825
20
-146.675
11
55.825
21
-165.225
0
LINE
8
0
10
55.825
20
-146.175
11
74.375
21
-146.175
0
LINE
8
0
10
74.375
20
-146.175
11
74.375
21
-127.625
0
LINE
8
0
10
74.375
20
-127.625
11
55.825
21
-127.625
0
LINE
8
0
10
55.825
20
-127.625
11
55.825
21
-146.175
0
LINE
8
0
10
55.825
20
-127.125
11
74.375
21
-127.125
0
LINE
8
0
10
74.375
20
-127.125
11
74.375
21
-108.575
0
LINE
8
0
10
74.375
20
-108.575
11
55.825
21
-108.575
0
LINE
8
0
10
55.825
20
-108.575
11
55.825
21
-127.125
0
LINE
8
0
10
55.825
20
-108.075
11
74.375
21
-108.075
0
LINE
8
0
10
74.375
20
-108.075
11
74.375
21
-89.525
0
LINE
8
0
10
74.375
20
-89.525
11
55.825
21
-89.525
0
LINE
8
0
10
55.825
20
-89.525
11
55.825
21
-108.075
0
LINE
8
0
10
55.825
20
-89.025
11
74.375
21
-89.025
0
LINE
8
0
10
74.375
20
-89.025
11
74.375
21
-70.475
0
LINE
8
0
10
74.375
20
-70.475
11
55.825
21
-70.475
0
LINE
8
0
10
55.825
20
-70.475
11
55.825
21
-89.025
0
LINE
8
0
10
74.875
20
-184.275
11
93.425
21
-184.275
0
LINE
8
0
10
93.425
20
-184.275
11
93.425
21
-165.725
0
LINE
8
0
10
93.425
20
-165.725
11
74.875
21
-165.725
0
LINE
8
0
10
74.875
20
-165.725
11
74.875
21
-184.275
0
LINE
8
0
10
74.875
20
-165.225
11
93.425
21
-165.225
0
LINE
8
0
10
93.425
20
-165.225
11
93.425
21
-146.675
0
LINE
8
0
10
93.425
20
-146.675
11
74.875
21
-146.675
0
LINE
8
0
10
74.875
20
-146.675
11
74.875
21
-165.225
0
LINE
8
0
10
74.875
20
-146.175
11
93.425
21
-146.175
0
LINE
8
0
10
93.425
20
-146.175
11
93.425
21
-127.625
0
LINE
8
0
10
93.425
20
-127.625
11
74.875
21
-127.625
0
LINE
8
0
10
74.875
20
-127.625
11
74.875
21
-146.175
0
LINE
8
0
10
74.875
20
-127.125
11
93.425
21
-127.125
0
LINE
8
0
10
93.425
20
-127.125
11
93.425
21
-108.575
0
LINE
8
0
10
93.425
20
-108.575
11
74.875
21
-108.575
0
LINE
8
0
10
74.875
20
-108.575
11
74.875
21
-127.125
0
LINE
8
0
10
74.875
20
-108.075
11
93.425
21
-108.075
0
LINE
8
0
10
93.425
20
-108.075
11
93.425
21
-89.525
0
LINE
8
0
10
93.425
20
-89.525
11
74.875
21
-89.525
0
LINE
8
0
10
74.875
20
-89.525
11
74.875
21
-108.075
0
LINE
8
0
10
74.875
20
-89.025
11
93.425
21
-89.025
0
LINE
8
0
10
93.425
20
-89.025
11
93.425
21
-70.475
0
LINE
8
0
10
93.425
20
-70.475
11
74.875
21
-70.475
0
LINE
8
0
10
74.875
20
-70.475
11
74.875
21
-89.025
0
LINE
8
0
10
113.575
20
-184.275
11
132.125
21
-184.275
0
LINE
8
0
10
132.125
20
-184.275
11
132.125
21
-165.725
0
LINE
8
0
10
132.125
20
-165.725
11
113.575
21
-165.725
0
LINE
8
0
10
113.575
20
-165.725
11
113.575
21
-184.275
0
LINE
8
0
10
93.925
20
-165.225
11
112.475
21
-165.225
0
LINE
8
0
10
112.475
20
-165.225
11
112.475
21
-146.675
0
LINE
8
0
10
112.475
20
-146.675
11
93.925
21
-146.675
0
LINE
8
0
10
93.925
20
-146.675
11
93.925
21
-165.225
0
LINE
8
0
10
93.925
20
-146.175
11
112.475
21
-146.175
0
LINE
8
0
10
112.475
20
-146.175
11
112.475
21
-127.625
0
LINE
8
0
10
112.475
20
-127.625
11
93.925
21
-127.625
0
LINE
8
0
10
93.925
20
-127.625
11
93.925
21
-146.175
0
LINE
8
0
10
93.925
20
-127.125
11
112.475
21
-127.125
0
LINE
8
0
10
112.475
20
-127.125
11
112.475
21
-108.575
0
LINE
8
0
10
112.475
20
-108.575
11
93.925
21
-108.575
0
LINE
8
0
10
93.925
20
-108.575
11
93.925
21
-127.125
0
LINE
8
0
10
93.925
20
-108.075
11
112.475
21
-108.075
0
LINE
8
0
10
112.475
20
-108.075
11
112.475
21
-89.525
0
LINE
8
0
10
112.475
20
-89.525
11
93.925
21
-89.525
0
LINE
8
0
10
93.925
20
-89.525
11
93.925
21
-108.075
0
LINE
8
0
10
93.925
20
-89.025
11
112.475
21
-89.025
0
LINE
8
0
10
112.475
20
-89.025
11
112.475
21
-70.475
0
LINE
8
0
10
112.475
20
-70.475
11
93.925
21
-70.475
0
LINE
8
0
10
93.925
20
-70.475
11
93.925
21
-89.025
0
LINE
8
0
10
112.975
20
-165.225
11
131.525
21
-165.225
0
LINE
8
0
10
131.525
20
-165.225
11
131.525
21
-146.675
0
LINE
8
0
10
131.525
20
-146.675
11
112.975
21
-146.675
0
LINE
8
0
10
112.975
20
-146.675
11
112.975
21
-165.225
0
LINE
8
0
10
112.975
20
-146.175
11
131.525
21
-146.175
0
LINE
8
0
10
131.525
20
-146.175
11
131.525
21
-127.625
0
LINE
8
0
10
131.525
20
-127.625
11
112.975
21
-127.625
0
LINE
8
0
10
112.975
20
-127.625
11
112.975
21
-146.175
0
LINE
8
0
10
112.975
20
-127.125
11
131.525
21
-127.125
0
LINE
8
0
10
131.525
20
-127.125
11
131.525
21
-108.575
0
LINE
8
0
10
131.525
20
-108.575
11
112.975
21
-108.575
0
LINE
8
0
10
112.975
20
-108.575
11
112.975
21
-127.125
0
LINE
8
0
10
112.975
20
-108.075
11
131.525
21
-108.075
0
LINE
8
0
10
131.525
20
-108.075
11
131.525
21
-89.525
0
LINE
8
0
10
131.525
20
-89.525
11
112.975
21
-89.525
0
LINE
8
0
10
112.975
20
-89.525
11
112.975
21
-108.075
0
LINE
8
0
10
112.975
20
-89.025
11
131.525
21
-89.025
0
LINE
8
0
10
131.525
20
-89.025
11
131.525
21
-70.475
0
LINE
8
0
10
131.525
20
-70.475
11
112.975
21
-70.475
0
LINE
8
0
10
112.975
20
-70.475
11
112.975
21
-89.025
0
LINE
8
0
10
171.725
20
-184.275
11
190.275
21
-184.275
0
LINE
8
0
10
190.275
20
-184.275
11
190.275
21
-165.725
0
LINE
8
0
10
190.275
20
-165.725
11
171.725
21
-165.725
0
LINE
8
0
10
171.725
20
-165.725
11
171.725
21
-184.275
0
LINE
8
0
10
172.325
20
-165.225
11
190.875
21
-165.225
0
LINE
8
0
10
190.875
20
-165.225
11
190.875
21
-146.675
0
LINE
8
0
10
190.875
20
-146.675
11
172.325
21
-146.675
0
LINE
8
0
10
172.325
20
-146.675
11
172.325
21
-165.225
0
LINE
8
0
10
172.325
20
-146.175
11
190.875
21
-146.175
0
LINE
8
0
10
190.875
20
-146.175
11
190.875
21
-127.625
0
LINE
8
0
10
190.875
20
-127.625
11
172.325
21
-127.625
0
LINE
8
0
10
172.325
20
-127.625
11
172.325
21
-146.175
0
LINE
8
0
10
172.325
20
-127.125
11
190.875
21
-127.125
0
LINE
8
0
10
190.875
20
-127.125
11
190.875
21
-108.575
0
LINE
8
0
10
190.875
20
-108.575
11
172.325
21
-108.575
0
LINE
8
0
10
172.325
20
-108.575
11
172.325
21
-127.125
0
LINE
8
0
10
172.325
20
-108.075
11
190.875
21
-108.075
0
LINE
8
0
10
190.875
20
-108.075
11
190.875
21
-89.525
0
LINE
8
0
10
190.875
20
-89.525
11
172.325
21
-89.525
0
LINE
8
0
10
172.325
20
-89.525
11
172.325
21
-108.075
0
LINE
8
0
10
172.325
20
-89.025
11
190.875
21
-89.025
0
LINE
8
0
10
190.875
20
-89.025
11
190.875
21
-70.475
0
LINE
8
0
10
190.875
20
-70.475
11
172.325
21
-70.475
0
LINE
8
0
10
172.325
20
-70.475
11
172.325
21
-89.025
0
LINE
8
0
10
191.375
20
-165.225
11
209.925
21
-165.225
0
LINE
8
0
10
209.925
20
-165.225
11
209.925
21
-146.675
0
LINE
8
0
10
209.925
20
-146.675
11
191.375
21
-146.675
0
LINE
8
0
10
191.375
20
-146.675
11
191.375
21
-165.225
0
LINE
8
0
10
191.375
20
-146.175
11
209.925
21
-146.175
0
LINE
8
0
10
209.925
20
-146.175
11
209.925
21
-127.625
0
LINE
8
0
10
209.925
20
-127.625
11
191.375
21
-127.625
0
LINE
8
0
10
191.375
20
-127.625
11
191.375
21
-146.175
0
LINE
8
0
10
191.375
20
-127.125
11
209.925
21
-127.125
0
LINE
8
0
10
209.925
20
-127.125
11
209.925
21
-108.575
0
LINE
8
0
10
209.925
20
-108.575
11
191.375
21
-108.575
0
LINE
8
0
10
191.375
20
-108.575
11
191.375
21
-127.125
0
LINE
8
0
10
191.375
20
-108.075
11
209.925
21
-108.075
0
LINE
8
0
10
209.925
20
-108.075
11
209.925
21
-89.525
0
LINE
8
0
10
209.925
20
-89.525
11
191.375
21
-89.525
0
LINE
8
0
10
191.375
20
-89.525
11
191.375
21
-108.075
0
LINE
8
0
10
191.375
20
-89.025
11
209.925
21
-89.025
0
LINE
8
0
10
209.925
20
-89.025
11
209.925
21
-70.475
0
LINE
8
0
10
209.925
20
-70.475
11
191.375
21
-70.475
0
LINE
8
0
10
191.375
20
-70.475
11
191.375
21
-89.025
0
LINE
8
0
10
210.425
20
-184.275
11
228.975
21
-184.275
0
LINE
8
0
10
228.975
20
-184.275
11
228.975
21
-165.725
0
LINE
8
0
10
228.975
20
-165.725
11
210.425
21
-165.725
0
LINE
8
0
10
210.425
20
-165.725
11
210.425
21
-184.275
0
LINE
8
0
10
210.425
20
-165.225
11
228.975
21
-165.225
0
LINE
8
0
10
228.975
20
-165.225
11
228.975
21
-146.675
0
LINE
8
0
10
228.975
20
-146.675
11
210.425
21
-146.675
0
LINE
8
0
10
210.425
20
-146.675
11
210.425
21
-165.225
0
LINE
8
0
10
210.425
20
-146.175
11
228.975
21
-146.175
0
LINE
8
0
10
228.975
20
-146.175
11
228.975
21
-127.625
0
LINE
8
0
10
228.975
20
-127.625
11
210.425
21
-127.625
0
LINE
8
0
10
210.425
20
-127.625
11
210.425
21
-146.175
0
LINE
8
0
10
210.425
20
-127.125
11
228.975
21
-127.125
0
LINE
8
0
10
228.975
20
-127.125
11
228.975
21
-108.575
0
LINE
8
0
10
228.975
20
-108.575
11
210.425
21
-108.575
0
LINE
8
0
10
210.425
20
-108.575
11
210.425
21
-127.125
0
LINE
8
0
10
210.425
20
-108.075
11
228.975
21
-108.075
0
LINE
8
0
10
228.975
20
-108.075
11
228.975
21
-89.525
0
LINE
8
0
10
228.975
20
-89.525
11
210.425
21
-89.525
0
LINE
8
0
10
210.425
20
-89.525
11
210.425
21
-108.075
0
LINE
8
0
10
210.425
20
-89.025
11
228.975
21
-89.025
0
LINE
8
0
10
228.975
20
-89.025
11
228.975
21
-70.475
0
LINE
8
0
10
228.975
20
-70.475
11
210.425
21
-70.475
0
LINE
8
0
10
210.425
20
-70.475
11
210.425
21
-89.025
0
LINE
8
0
10
229.475
20
-184.275
11
248.025
21
-184.275
0
LINE
8
0
10
248.025
20
-184.275
11
248.025
21
-165.725
0
LINE
8
0
10
248.025
20
-165.725
11
229.475
21
-165.725
0
LINE
8
0
10
229.475
20
-165.725
11
229.475
21
-184.275
0
LINE
8
0
10
229.475
20
-165.225
11
248.025
21
-165.225
0
LINE
8
0
10
248.025
20
-165.225
11
248.025
21
-146.675
0
LINE
8
0
10
248.025
20
-146.675
11
229.475
21
-146.675
0
LINE
8
0
10
229.475
20
-146.675
11
229.475
21
-165.225
0
LINE
8
0
10
229.475
20
-146.175
11
248.025
21
-146.175
0
LINE
8
0
10
248.025
20
-146.175
11
248.025
21
-127.625
0
LINE
8
0
10
248.025
20
-127.625
11
229.475
21
-127.625
0
LINE
8
0
10
229.475
20
-127.625
11
229.475
21
-146.175
0
LINE
8
0
10
229.475
20
-127.125
11
248.025
21
-127.125
0
LINE
8
0
10
248.025
20
-127.125
11
248.025
21
-108.575
0
LINE
8
0
10
248.025
20
-108.575
11
229.475
21
-108.575
0
LINE
8
0
10
229.475
20
-108.575
11
229.475
21
-127.125
0
LINE
8
0
10
229.475
20
-108.075
11
248.025
21
-108.075
0
LINE
8
0
10
248.025
20
-108.075
11
248.025
21
-89.525
0
LINE
8
0
10
248.025
20
-89.525
11
229.475
21
-89.525
0
LINE
8
0
10
229.475
20
-89.525
11
229.475
21
-108.075
0
LINE
8
0
10
229.475
20
-89.025
11
248.025
21
-89.025
0
LINE
8
0
10
248.025
20
-89.025
11
248.025
21
-70.475
0
LINE
8
0
10
248.025
20
-70.475
11
229.475
21
-70.475
0
LINE
8
0
10
229.475
20
-70.475
11
229.475
21
-89.025
0
LINE
8
0
10
248.525
20
-184.275
11
267.075
21
-184.275
0
LINE
8
0
10
267.075
20
-184.275
11
267.075
21
-165.725
0
LINE
8
0
10
267.075
20
-165.725
11
248.525
21
-165.725
0
LINE
8
0
10
248.525
20
-165.725
11
248.525
21
-184.275
0
LINE
8
0
10
248.525
20
-165.225
11
267.075
21
-165.225
0
LINE
8
0
10
267.075
20
-165.225
11
267.075
21
-146.675
0
LINE
8
0
10
267.075
20
-146.675
11
248.525
21
-146.675
0
LINE
8
0
10
248.525
20
-146.675
11
248.525
21
-165.225
0
LINE
8
0
10
248.525
20
-146.175
11
267.075
21
-146.175
0
LINE
8
0
10
267.075
20
-146.175
11
267.075
21
-127.625
0
LINE
8
0
10
267.075
20
-127.625
11
248.525
21
-127.625
0
LINE
8
0
10
248.525
20
-127.625
11
248.525
21
-146.175
0
LINE
8
0
10
248.525
20
-127.125
11
267.075
21
-127.125
0
LINE
8
0
10
267.075
20
-127.125
11
267.075
21
-108.575
0
LINE
8
0
10
267.075
20
-108.575
11
248.525
21
-108.575
0
LINE
8
0
10
248.525
20
-108.575
11
248.525
21
-127.125
0
LINE
8
0
10
248.525
20
-108.075
11
267.075
21
-108.075
0
LINE
8
0
10
267.075
20
-108.075
11
267.075
21
-89.525
0
LINE
8
0
10
267.075
20
-89.525
11
248.525
21
-89.525
0
LINE
8
0
10
248.525
20
-89.525
11
248.525
21
-108.075
0
LINE
8
0
10
267.575
20
-184.275
11
286.125
21
-184.275
0
LINE
8
0
10
286.125
20
-184.275
11
286.125
21
-165.725
0
LINE
8
0
10
286.125
20
-165.725
11
267.575
21
-165.725
0
LINE
8
0
10
267.575
20
-165.725
11
267.575
21
-184.275
0
LINE
8
0
10
272.9375
20
-165.225
11
291.4875
21
-165.225
0
LINE
8
0
10
291.4875
20
-165.225
11
291.4875
21
-146.675
0
LINE
8
0
10
291.4875
20
-146.675
11
272.9375
21
-146.675
0
LINE
8
0
10
272.9375
20
-146.675
11
272.9375
21
-165.225
0
LINE
8
0
10
267.575
20
-146.175
11
286.125
21
-146.175
0
LINE
8
0
10
286.125
20
-146.175
11
286.125
21
-127.625
0
LINE
8
0
10
286.125
20
-127.625
11
267.575
21
-127.625
0
LINE
8
0
10
267.575
20
-127.625
11
267.575
21
-146.175
0
LINE
8
0
10
267.575
20
-127.125
11
286.125
21
-127.125
0
LINE
8
0
10
286.125
20
-127.125
11
286.125
21
-108.575
0
LINE
8
0
10
286.125
20
-108.575
11
267.575
21
-108.575
0
LINE
8
0
10
267.575
20
-108.575
11
267.575
21
-127.125
0
LINE
8
0
10
267.575
20
-108.075
11
286.125
21
-108.075
0
LINE
8
0
10
286.125
20
-108.075
11
286.125
21
-89.525
0
LINE
8
0
10
286.125
20
-89.525
11
267.575
21
-89.525
0
LINE
8
0
10
267.575
20
-89.525
11
267.575
21
-108.075
0
LINE
8
0
10
267.575
20
-89.025
11
286.125
21
-89.025
0
LINE
8
0
10
286.125
20
-89.025
11
286.125
21
-70.475
0
LINE
8
0
10
286.125
20
-70.475
11
267.575
21
-70.475
0
LINE
8
0
10
267.575
20
-70.475
11
267.575
21
-89.025
0
LINE
8
0
10
291.9875
20
-146.175
11
310.5375
21
-146.175
0
LINE
8
0
10
310.5375
20
-146.175
11
310.5375
21
-127.625
0
LINE
8
0
10
310.5375
20
-127.625
11
291.9875
21
-127.625
0
LINE
8
0
10
291.9875
20
-127.625
11
291.9875
21
-146.175
0
LINE
8
0
10
286.625
20
-127.125
11
305.175
21
-127.125
0
LINE
8
0
10
305.175
20
-127.125
11
305.175
21
-108.575
0
LINE
8
0
10
305.175
20
-108.575
11
286.625
21
-108.575
0
LINE
8
0
10
286.625
20
-108.575
11
286.625
21
-127.125
0
LINE
8
0
10
286.625
20
-108.075
11
305.175
21
-108.075
0
LINE
8
0
10
305.175
20
-108.075
11
305.175
21
-89.525
0
LINE
8
0
10
305.175
20
-89.525
11
286.625
21
-89.525
0
LINE
8
0
10
286.625
20
-89.525
11
286.625
21
-108.075
0
LINE
8
0
10
286.625
20
-89.025
11
305.175
21
-89.025
0
LINE
8
0
10
305.175
20
-89.025
11
305.175
21
-70.475
0
LINE
8
0
10
305.175
20
-70.475
11
286.625
21
-70.475
0
LINE
8
0
10
286.625
20
-70.475
11
286.625
21
-89.025
0
LINE
8
0
10
305.675
20
-127.125
11
324.225
21
-127.125
0
LINE
8
0
10
324.225
20
-127.125
11
324.225
21
-108.575
0
LINE
8
0
10
324.225
20
-108.575
11
305.675
21
-108.575
0
LINE
8
0
10
305.675
20
-108.575
11
305.675
21
-127.125
0
LINE
8
0
10
311.0375
20
-108.075
11
329.5875
21
-108.075
0
LINE
8
0
10
329.5875
20
-108.075
11
329.5875
21
-89.525
0
LINE
8
0
10
329.5875
20
-89.525
11
311.0375
21
-89.525
0
LINE
8
0
10
311.0375
20
-89.525
11
311.0375
21
-108.075
0
LINE
8
0
10
305.675
20
-89.025
11
324.225
21
-89.025
0
LINE
8
0
10
324.225
20
-89.025
11
324.225
21
-70.475
0
LINE
8
0
10
324.225
20
-70.475
11
305.675
21
-70.475
0
LINE
8
0
10
305.675
20
-70.475
11
305.675
21
-89.025
0
LINE
8
0
10
324.725
20
-89.025
11
343.275
21
-89.025
0
LINE
8
0
10
343.275
20
-89.025
11
343.275
21
-70.475
0
LINE
8
0
10
343.275
20
-70.475
11
324.725
21
-70.475
0
LINE
8
0
10
324.725
20
-70.475
11
324.725
21
-89.025
0
LINE
8
0
10
333.4
20
-186.2118308
11
346.5168308
21
-173.095
0
LINE
8
0
10
346.5168308
20
-173.095
11
333.4
21
-159.9781692
0
LINE
8
0
10
333.4
20
-159.9781692
11
320.2831692
21
-173.095
0
LINE
8
0
10
320.2831692
20
-173.095
11
333.4
21
-186.2118308
0
LINE
8
0
10
319.9296158
20
-172.7414466
11
333.0464466
21
-159.6246158
0
LINE
8
0
10
333.0464466
20
-159.6246158
11
319.9296158
21
-146.507785
0
LINE
8
0
10
319.9296158
20
-146.507785
11
306.812785
21
-159.6246158
0
LINE
8
0
10
306.812785
20
-159.6246158
11
319.9296158
21
-172.7414466
0
LINE
8
0
10
346.8703842
20
-172.7414466
11
359.987215
21
-159.6246158
0
LINE
8
0
10
359.987215
20
-159.6246158
11
346.8703842
21
-146.507785
0
LINE
8
0
10
346.8703842
20
-146.507785
11
333.7535534
21
-159.6246158
0
LINE
8
0
10
333.7535534
20
-159.6246158
11
346.8703842
21
-172.7414466
0
LINE
8
0
10
333.4
20
-159.2710624
11
346.5168308
21
-146.1542316
0
LINE
8
0
10
346.5168308
20
-146.1542316
11
333.4
21
-133.0374008
0
LINE
8
0
10
333.4
20
-133.0374008
11
320.2831692
21
-146.1542316
0
LINE
8
0
10
320.2831692
20
-146.1542316
11
333.4
21
-159.2710624
0
LINE
8
0
10
374.4846718
20
-163.9856969
11
387.6015026
21
-150.8688661
0
LINE
8
0
10
387.6015026
20
-150.8688661
11
374.4846718
21
-137.7520353
0
LINE
8
0
10
374.4846718
20
-137.7520353
11
361.367841
21
-150.8688661
0
LINE
8
0
10
361.367841
20
-150.8688661
11
374.4846718
21
-163.9856969
0
LINE
8
0
10
361.0142876
20
-150.5153127
11
374.1311184
21
-137.3984819
0
LINE
8
0
10
374.1311184
20
-137.3984819
11
361.0142876
21
-124.2816511
0
LINE
8
0
10
361.0142876
20
-124.2816511
11
347.8974568
21
-137.3984819
0
LINE
8
0
10
347.8974568
20
-137.3984819
11
361.0142876
21
-150.5153127
0
LINE
8
0
10
387.955056
20
-150.5153127
11
401.0718868
21
-137.3984819
0
LINE
8
0
10
401.0718868
20
-137.3984819
11
387.955056
21
-124.2816511
0
LINE
8
0
10
387.955056
20
-124.2816511
11
374.8382252
21
-137.3984819
0
LINE
8
0
10
374.8382252
20
-137.3984819
11
387.955056
21
-150.5153127
0
LINE
8
0
10
374.4846718
20
-137.0449285
11
387.6015026
21
-123.9280977
0
LINE
8
0
10
387.6015026
20
-123.9280977
11
374.4846718
21
-110.8112669
0
LINE
8
0
10
374.4846718
20
-110.8112669
11
361.367841
21
-123.9280977
0
LINE
8
0
10
361.367841
20
-123.9280977
11
374.4846718
21
-137.0449285
0
LINE
8
0
10
353.3
20
-108.075
11
371.85
21
-108.075
0
LINE
8
0
10
371.85
20
-108.075
11
371.85
21
-89.525
0
LINE
8
0
10
371.85
20
-89.525
11
353.3
21
-89.525
0
LINE
8
0
10
353.3
20
-89.525
11
353.3
21
-108.075
0
LINE
8
0
10
353.3
20
-89.025
11
371.85
21
-89.025
0
LINE
8
0
10
371.85
20
-89.025
11
371.85
21
-70.475
0
LINE
8
0
10
371.85
20
-70.475
11
353.3
21
-70.475
0
LINE
8
0
10
353.3
20
-70.475
11
353.3
21
-89.025
0
LINE
8
0
10
372.35
20
-108.075
11
390.9
21
-108.075
0
LINE
8
0
10
390.9
20
-108.075
11
390.9
21
-89.525
0
LINE
8
0
10
390.9
20
-89.525
11
372.35
21
-89.525
0
LINE
8
0
10
372.35
20
-89.525
11
372.35
21
-108.075
0
LINE
8
0
10
372.35
20
-89.025
11
390.9
21
-89.025
0
LINE
8
0
10
390.9
20
-89.025
11
390.9
21
-70.475
0
LINE
8
0
10
390.9
20
-70.475
11
372.35
21
-70.475
0
LINE
8
0
10
372.35
20
-70.475
11
372.35
21
-89.025
0
LINE
8
0
10
391.4
20
-108.075
11
409.95
21
-108.075
0
LINE
8
0
10
409.95
20
-108.075
11
409.95
21
-89.525
0
LINE
8
0
10
409.95
20
-89.525
11
391.4
21
-89.525
0
LINE
8
0
10
391.4
20
-89.525
11
391.4
21
-108.075
0
LINE
8
0
10
391.4
20
-89.025
11
409.95
21
-89.025
0
LINE
8
0
10
409.95
20
-89.025
11
409.95
21
-70.475
0
LINE
8
0
10
409.95
20
-70.475
11
391.4
21
-70.475
0
LINE
8
0
10
391.4
20
-70.475
11
391.4
21
-89.025
0
ENDSEC
0
EOF