0
SECTION
2
HEADER
9
$INSUNITS
70
4
0
ENDSEC
0
SECTION
2
TABLES
0
TABLE
2
LTYPE
0
LTYPE
72
65
70
64
2
CONTINUOUS
3
______
73
0
40
0
0
ENDTAB
0
TABLE
2
LAYER
0
ENDTAB
0
ENDSEC
0
SECTION
2
ENTITIES
0
LINE
8
0
10
4.261399
20
-104.9205101
11
14.6222449
21
-61.8487273
0
LINE
8
0
10
17.5041727
20
-59.550561
11
27.6186023
21
-59.4329866
0
LINE
8
0
10
27.7666397
20
-59.4276082
11
67.7480436
21
-56.9854221
0
LINE
8
0
10
67.8086349
20
-56.9823356
11
88.6765328
21
-56.1307945
0
LINE
8
0
10
89.013343
20
-56.1359776
11
109.8425834
21
-57.6290435
0
LINE
8
0
10
109.9116164
20
-57.6331927
11
140.9787881
21
-59.1413149
0
LINE
8
0
10
142.7990528
20
-59.8715285
11
147.2173492
21
-63.703906
0
LINE
8
0
10
149.1961078
20
-64.4376199
11
158.996312
21
-64.3950427
0
LINE
8
0
10
160.9621022
20
-63.6499007
11
165.3620267
21
-59.7885556
0
LINE
8
0
10
167.1775871
20
-59.0478311
11
197.6129694
21
-57.3890467
0
LINE
8
0
10
197.7287328
20
-57.3804883
11
218.4958703
21
-55.4405511
0
LINE
8
0
10
218.8324904
20
-55.4280998
11
239.7043514
21
-55.8288669
0
LINE
8
0
10
239.7874088
20
-55.8316129
11
279.8174484
21
-57.7104324
0
LINE
8
0
10
279.940611
20
-57.7136803
11
394.1770532
21
-58.3796176
0
LINE
8
0
10
397.159514
20
-61.3970548
11
396.878822
21
-109.5476218
0
LINE
8
0
10
396.7566875
20
-110.377591
11
389.2359706
21
-135.9166084
0
LINE
8
0
10
331.8692512
20
-199.3350003
11
388.575851
21
-137.0895049
0
LINE
8
0
10
328.5511261
20
-200.1055339
11
292.1808581
21
-185.7649541
0
LINE
8
0
10
260.2169392
20
-185.375873
11
291.0979159
21
-185.5558926
0
LINE
8
0
10
259.9525891
20
-185.3626559
11
241.3676117
21
-183.6089136
0
LINE
8
0
10
241.0940012
20
-183.5956568
11
210.0968931
21
-183.5106425
0
LINE
8
0
10
209.6238567
20
-183.5468578
11
196.6307745
21
-185.5845634
0
LINE
8
0
10
196.3851834
20
-185.6127699
11
159.1272091
21
-188.3425993
0
LINE
8
0
10
158.9139922
20
-188.3506134
11
149.3895426
21
-188.3696641
0
LINE
8
0
10
149.1816651
20
-188.36287
11
111.8689205
21
-185.846307
0
LINE
8
0
10
111.6963299
20
-185.8296444
11
98.6071372
21
-184.1829395
0
LINE
8
0
10
98.1752293
20
-184.1600269
11
67.1811471
21
-184.7535736
0
LINE
8
0
10
66.8867997
20
-184.7737208
11
48.384526
21
-186.9584171
0
LINE
8
0
10
18.3449603
20
-187.3244199
11
48.067609
21
-186.9789116
0
LINE
8
0
10
15.7614988
20
-185.9072424
11
5.3495712
21
-169.14027
0
LINE
8
0
10
4.8983646
20
-167.592521
11
4.1784004
21
-105.657012
0
ARC
8
0
10
17.5390435
20
-62.5503583
40
3
50
90.6659982
51
166.4745651
0
ARC
8
0
10
27.5837315
20
-56.4331893
40
3
50
270.6659982
51
273.4954573
0
ARC
8
0
10
67.9309518
20
-59.979841
40
3
50
92.3367284
51
93.4954573
0
ARC
8
0
10
88.7988497
20
-59.1282999
40
3
50
85.8999797
51
92.3367284
0
ARC
8
0
10
110.0570768
20
-54.6367212
40
3
50
265.8999797
51
267.2208212
0
ARC
8
0
10
140.8333277
20
-62.1377864
40
3
50
49.0620206
51
87.2208212
0
ARC
8
0
10
149.1830743
20
-61.4376482
40
3
50
229.0620206
51
270.2489223
0
ARC
8
0
10
158.9832785
20
-61.395071
40
3
50
270.2489223
51
311.2699753
0
ARC
8
0
10
167.3408504
20
-62.0433853
40
3
50
93.1196404
51
131.2699753
0
ARC
8
0
10
197.4497061
20
-54.3934926
40
3
50
273.1196404
51
275.3367306
0
ARC
8
0
10
218.774897
20
-58.4275469
40
3
50
88.8999795
51
95.3367306
0
ARC
8
0
10
239.646758
20
-58.828314
40
3
50
87.3127826
51
88.8999795
0
ARC
8
0
10
279.9580992
20
-54.7137313
40
3
50
267.3127826
51
269.6659981
0
ARC
8
0
10
394.159565
20
-61.3795666
40
3
50
359.6659981
51
89.6659981
0
ARC
8
0
10
393.878873
20
-109.5301336
40
3
50
343.5913791
51
359.6659981
0
ARC
8
0
10
386.3581562
20
-135.069151
40
3
50
317.6660004
51
343.5913791
0
ARC
8
0
10
329.6515564
20
-197.3146464
40
3
50
248.4809773
51
317.6660004
0
ARC
8
0
10
291.0804277
20
-188.5558416
40
3
50
68.4809773
51
89.6659981
0
ARC
8
0
10
260.2344274
20
-182.375924
40
3
50
264.6093356
51
269.6659981
0
ARC
8
0
10
241.0857734
20
-186.5956455
40
3
50
84.6093356
51
89.8428604
0
ARC
8
0
10
210.0886653
20
-186.5106312
40
3
50
89.8428604
51
98.9130959
0
ARC
8
0
10
196.1659659
20
-182.62079
40
3
50
274.1904809
51
278.9130959
0
ARC
8
0
10
158.9079916
20
-185.3506194
40
3
50
270.1146031
51
274.1904809
0
ARC
8
0
10
149.383542
20
-185.3696701
40
3
50
266.1415194
51
270.1146031
0
ARC
8
0
10
112.0707974
20
-182.8531071
40
3
50
262.8294946
51
266.1415194
0
ARC
8
0
10
98.2326697
20
-187.1594769
40
3
50
82.8294946
51
91.0970979
0
ARC
8
0
10
67.2385875
20
-187.7530236
40
3
50
91.0970979
51
96.7341459
0
ARC
8
0
10
48.0327382
20
-183.9791143
40
3
50
270.6659982
51
276.7341459
0
ARC
8
0
10
18.3100895
20
-184.3246226
40
3
50
211.8393876
51
270.6659982
0
ARC
8
0
10
7.8981619
20
-167.5576502
40
3
50
180.6659982
51
211.8393876
0
ARC
8
0
10
7.1781977
20
-105.6221412
40
3
50
166.4745651
51
180.6659982
0
LINE
8
0
10
19.8657472
20
-184.0565221
11
38.414494
21
-183.8409037
0
LINE
8
0
10
38.414494
20
-183.8409037
11
38.1988756
21
-165.2921569
0
LINE
8
0
10
38.1988756
20
-165.2921569
11
19.6501288
21
-165.5077753
0
LINE
8
0
10
19.6501288
20
-165.5077753
11
19.8657472
21
-184.0565221
0
LINE
8
0
10
14.3821726
20
-165.0689785
11
32.9309194
21
-164.8533601
0
LINE
8
0
10
32.9309194
20
-164.8533601
11
32.715301
21
-146.3046133
0
LINE
8
0
10
32.715301
20
-146.3046133
11
14.1665542
21
-146.5202317
0
LINE
8
0
10
14.1665542
20
-146.5202317
11
14.3821726
21
-165.0689785
0
LINE
8
0
10
14.1607424
20
-146.0202654
11
32.7094892
21
-145.804647
0
LINE
8
0
10
32.7094892
20
-145.804647
11
32.4938708
21
-127.2559002
0
LINE
8
0
10
32.4938708
20
-127.2559002
11
13.945124
21
-127.4715186
0
LINE
8
0
10
13.945124
20
-127.4715186
11
14.1607424
21
-146.0202654
0
LINE
8
0
10
13.9393122
20
-126.9715524
11
32.488059
21
-126.755934
0
LINE
8
0
10
32.488059
20
-126.755934
11
32.2724406
21
-108.2071872
0
LINE
8
0
10
32.2724406
20
-108.2071872
11
13.7236938
21
-108.4228056
0
LINE
8
0
10
13.7236938
20
-108.4228056
11
13.9393122
21
-126.9715524
0
LINE
8
0
10
18.9800265
20
-107.86167
11
37.5287733
21
-107.6460516
0
LINE
8
0
10
37.5287733
20
-107.6460516
11
37.3131549
21
-89.0973048
0
LINE
8
0
10
37.3131549
20
-89.0973048
11
18.7644081
21
-89.3129232
0
LINE
8
0
10
18.7644081
20
-89.3129232
11
18.9800265
21
-107.86167
0
LINE
8
0
10
18.7585963
20
-88.8129569
11
37.3073431
21
-88.5973385
0
LINE
8
0
10
37.3073431
20
-88.5973385
11
37.0917247
21
-70.0485917
0
LINE
8
0
10
37.0917247
20
-70.0485917
11
18.5429779
21
-70.2642101
0
LINE
8
0
10
18.5429779
20
-70.2642101
11
18.7585963
21
-88.8129569
0
LINE
8
0
10
38.9144603
20
-183.835092
11
57.4632071
21
-183.6194736
0
LINE
8
0
10
57.4632071
20
-183.6194736
11
57.2475887
21
-165.0707268
0
LINE
8
0
10
57.2475887
20
-165.0707268
11
38.6988419
21
-165.2863452
0
LINE
8
0
10
38.6988419
20
-165.2863452
11
38.9144603
21
-183.835092
0
LINE
8
0
10
38.6930301
20
-164.7863789
11
57.2417769
21
-164.5707605
0
LINE
8
0
10
57.2417769
20
-164.5707605
11
57.0261585
21
-146.0220137
0
LINE
8
0
10
57.0261585
20
-146.0220137
11
38.4774117
21
-146.2376321
0
LINE
8
0
10
38.4774117
20
-146.2376321
11
38.6930301
21
-164.7863789
0
LINE
8
0
10
38.4715999
20
-145.7376659
11
57.0203467
21
-145.5220475
0
LINE
8
0
10
57.0203467
20
-145.5220475
11
56.8047283
21
-126.9733007
0
LINE
8
0
10
56.8047283
20
-126.9733007
11
38.2559815
21
-127.1889191
0
LINE
8
0
10
38.2559815
20
-127.1889191
11
38.4715999
21
-145.7376659
0
LINE
8
0
10
38.2501697
20
-126.6889528
11
56.7989165
21
-126.4733344
0
LINE
8
0
10
56.7989165
20
-126.4733344
11
56.5832981
21
-107.9245876
0
LINE
8
0
10
56.5832981
20
-107.9245876
11
38.0345513
21
-108.140206
0
LINE
8
0
10
38.0345513
20
-108.140206
11
38.2501697
21
-126.6889528
0
LINE
8
0
10
38.0287396
20
-107.6402398
11
56.5774864
21
-107.4246214
0
LINE
8
0
10
56.5774864
20
-107.4246214
11
56.361868
21
-88.8758746
0
LINE
8
0
10
56.361868
20
-88.8758746
11
37.8131212
21
-89.091493
0
LINE
8
0
10
37.8131212
20
-89.091493
11
38.0287396
21
-107.6402398
0
LINE
8
0
10
57.7775804
20
-181.4523893
11
76.3272652
21
-181.5605241
0
LINE
8
0
10
76.3272652
20
-181.5605241
11
76.4354
21
-163.0108393
0
LINE
8
0
10
76.4354
20
-163.0108393
11
57.8857152
21
-162.9027045
0
LINE
8
0
10
57.8857152
20
-162.9027045
11
57.7775804
21
-181.4523893
0
LINE
8
0
10
57.8886298
20
-162.402713
11
76.4383146
21
-162.5108478
0
LINE
8
0
10
76.4383146
20
-162.5108478
11
76.5464494
21
-143.961163
0
LINE
8
0
10
76.5464494
20
-143.961163
11
57.9967646
21
-143.8530282
0
LINE
8
0
10
57.9967646
20
-143.8530282
11
57.8886298
21
-162.402713
0
LINE
8
0
10
57.9996792
20
-143.3530367
11
76.549364
21
-143.4611715
0
LINE
8
0
10
76.549364
20
-143.4611715
11
76.6574988
21
-124.9114867
0
LINE
8
0
10
76.6574988
20
-124.9114867
11
58.107814
21
-124.8033519
0
LINE
8
0
10
58.107814
20
-124.8033519
11
57.9996792
21
-143.3530367
0
LINE
8
0
10
58.1107286
20
-124.3033603
11
76.6604134
21
-124.4114951
0
LINE
8
0
10
76.6604134
20
-124.4114951
11
76.7685482
21
-105.8618103
0
LINE
8
0
10
76.7685482
20
-105.8618103
11
58.2188634
21
-105.7536755
0
LINE
8
0
10
58.2188634
20
-105.7536755
11
58.1107286
21
-124.3033603
0
LINE
8
0
10
58.221778
20
-105.253684
11
76.7714628
21
-105.3618188
0
LINE
8
0
10
76.7714628
20
-105.3618188
11
76.8795976
21
-86.812134
0
LINE
8
0
10
76.8795976
20
-86.812134
11
58.3299128
21
-86.7039992
0
LINE
8
0
10
58.3299128
20
-86.7039992
11
58.221778
21
-105.253684
0
LINE
8
0
10
58.3328274
20
-86.2040077
11
76.8825122
21
-86.3121425
0
LINE
8
0
10
76.8825122
20
-86.3121425
11
76.990647
21
-67.7624577
0
LINE
8
0
10
76.990647
20
-67.7624577
11
58.4409622
21
-67.6543229
0
LINE
8
0
10
58.4409622
20
-67.6543229
11
58.3328274
21
-86.2040077
0
LINE
8
0
10
76.6735822
20
-180.3992394
11
95.2185546
21
-180.8310944
0
LINE
8
0
10
95.2185546
20
-180.8310944
11
95.6504096
21
-162.286122
0
LINE
8
0
10
95.6504096
20
-162.286122
11
77.1054372
21
-161.854267
0
LINE
8
0
10
77.1054372
20
-161.854267
11
76.6735822
21
-180.3992394
0
LINE
8
0
10
77.1170774
20
-161.3544025
11
95.6620498
21
-161.7862575
0
LINE
8
0
10
95.6620498
20
-161.7862575
11
96.0939048
21
-143.2412851
0
LINE
8
0
10
96.0939048
20
-143.2412851
11
77.5489324
21
-142.8094301
0
LINE
8
0
10
77.5489324
20
-142.8094301
11
77.1170774
21
-161.3544025
0
LINE
8
0
10
77.5605726
20
-142.3095655
11
96.105545
21
-142.7414205
0
LINE
8
0
10
96.105545
20
-142.7414205
11
96.5374
21
-124.1964481
0
LINE
8
0
10
96.5374
20
-124.1964481
11
77.9924276
21
-123.7645931
0
LINE
8
0
10
77.9924276
20
-123.7645931
11
77.5605726
21
-142.3095655
0
LINE
8
0
10
78.0040678
20
-123.2647286
11
96.5490402
21
-123.6965836
0
LINE
8
0
10
96.5490402
20
-123.6965836
11
96.9808952
21
-105.1516112
0
LINE
8
0
10
96.9808952
20
-105.1516112
11
78.4359228
21
-104.7197562
0
LINE
8
0
10
78.4359228
20
-104.7197562
11
78.0040678
21
-123.2647286
0
LINE
8
0
10
78.447563
20
-104.2198917
11
96.9925354
21
-104.6517467
0
LINE
8
0
10
96.9925354
20
-104.6517467
11
97.4243904
21
-86.1067743
0
LINE
8
0
10
97.4243904
20
-86.1067743
11
78.879418
21
-85.6749193
0
LINE
8
0
10
78.879418
20
-85.6749193
11
78.447563
21
-104.2198917
0
LINE
8
0
10
78.8910582
20
-85.1750547
11
97.4360306
21
-85.6069097
0
LINE
8
0
10
97.4360306
20
-85.6069097
11
97.8678856
21
-67.0619373
0
LINE
8
0
10
97.8678856
20
-67.0619373
11
79.3229132
21
-66.6300823
0
LINE
8
0
10
79.3229132
20
-66.6300823
11
78.8910582
21
-85.1750547
0
LINE
8
0
10
96.3143309
20
-162.6412925
11
114.8489419
21
-163.3967361
0
LINE
8
0
10
114.8489419
20
-163.3967361
11
115.6043855
21
-144.8621251
0
LINE
8
0
10
115.6043855
20
-144.8621251
11
97.0697745
21
-144.1066815
0
LINE
8
0
10
97.0697745
20
-144.1066815
11
96.3143309
21
-162.6412925
0
LINE
8
0
10
97.0901368
20
-143.6070963
11
115.6247478
21
-144.3625399
0
LINE
8
0
10
115.6247478
20
-144.3625399
11
116.3801914
21
-125.8279289
0
LINE
8
0
10
116.3801914
20
-125.8279289
11
97.8455804
21
-125.0724853
0
LINE
8
0
10
97.8455804
20
-125.0724853
11
97.0901368
21
-143.6070963
0
LINE
8
0
10
97.8659428
20
-124.5729001
11
116.4005538
21
-125.3283437
0
LINE
8
0
10
116.4005538
20
-125.3283437
11
117.1559974
21
-106.7937327
0
LINE
8
0
10
117.1559974
20
-106.7937327
11
98.6213864
21
-106.0382891
0
LINE
8
0
10
98.6213864
20
-106.0382891
11
97.8659428
21
-124.5729001
0
LINE
8
0
10
98.6417487
20
-105.538704
11
117.1763597
21
-106.2941476
0
LINE
8
0
10
117.1763597
20
-106.2941476
11
117.9318033
21
-87.7595366
0
LINE
8
0
10
117.9318033
20
-87.7595366
11
99.3971923
21
-87.004093
0
LINE
8
0
10
99.3971923
20
-87.004093
11
98.6417487
21
-105.538704
0
LINE
8
0
10
99.4175546
20
-86.5045078
11
117.9521656
21
-87.2599514
0
LINE
8
0
10
117.9521656
20
-87.2599514
11
118.7076092
21
-68.7253404
0
LINE
8
0
10
118.7076092
20
-68.7253404
11
100.1729982
21
-67.9698968
0
LINE
8
0
10
100.1729982
20
-67.9698968
11
99.4175546
21
-86.5045078
0
LINE
8
0
10
115.1620423
20
-182.725522
11
133.6966533
21
-183.4809656
0
LINE
8
0
10
133.6966533
20
-183.4809656
11
134.4520969
21
-164.9463546
0
LINE
8
0
10
134.4520969
20
-164.9463546
11
115.9174859
21
-164.190911
0
LINE
8
0
10
115.9174859
20
-164.190911
11
115.1620423
21
-182.725522
0
LINE
8
0
10
115.9378482
20
-163.6913259
11
134.4724592
21
-164.4467695
0
LINE
8
0
10
134.4724592
20
-164.4467695
11
135.2279028
21
-145.9121585
0
LINE
8
0
10
135.2279028
20
-145.9121585
11
116.6932918
21
-145.1567149
0
LINE
8
0
10
116.6932918
20
-145.1567149
11
115.9378482
21
-163.6913259
0
LINE
8
0
10
116.7136541
20
-144.6571297
11
135.2482651
21
-145.4125733
0
LINE
8
0
10
135.2482651
20
-145.4125733
11
136.0037087
21
-126.8779623
0
LINE
8
0
10
136.0037087
20
-126.8779623
11
117.4690977
21
-126.1225187
0
LINE
8
0
10
117.4690977
20
-126.1225187
11
116.7136541
21
-144.6571297
0
LINE
8
0
10
117.4894601
20
-125.6229335
11
136.0240711
21
-126.3783771
0
LINE
8
0
10
136.0240711
20
-126.3783771
11
136.7795147
21
-107.8437661
0
LINE
8
0
10
136.7795147
20
-107.8437661
11
118.2449037
21
-107.0883225
0
LINE
8
0
10
118.2449037
20
-107.0883225
11
117.4894601
21
-125.6229335
0
LINE
8
0
10
118.265266
20
-106.5887374
11
136.799877
21
-107.344181
0
LINE
8
0
10
136.799877
20
-107.344181
11
137.5553206
21
-88.80957
0
LINE
8
0
10
137.5553206
20
-88.80957
11
119.0207096
21
-88.0541264
0
LINE
8
0
10
119.0207096
20
-88.0541264
11
118.265266
21
-106.5887374
0
LINE
8
0
10
119.0410719
20
-87.5545412
11
137.5756829
21
-88.3099848
0
LINE
8
0
10
137.5756829
20
-88.3099848
11
138.3311265
21
-69.7753738
0
LINE
8
0
10
138.3311265
20
-69.7753738
11
119.7965155
21
-69.0199302
0
LINE
8
0
10
119.7965155
20
-69.0199302
11
119.0410719
21
-87.5545412
0
LINE
8
0
10
174.5809859
20
-183.3712464
11
193.1109084
21
-182.5084175
0
LINE
8
0
10
193.1109084
20
-182.5084175
11
192.2480795
21
-163.978495
0
LINE
8
0
10
192.2480795
20
-163.978495
11
173.718157
21
-164.8413239
0
LINE
8
0
10
173.718157
20
-164.8413239
11
174.5809859
21
-183.3712464
0
LINE
8
0
10
174.2942507
20
-164.3139569
11
192.8241732
21
-163.451128
0
LINE
8
0
10
192.8241732
20
-163.451128
11
191.9613443
21
-144.9212055
0
LINE
8
0
10
191.9613443
20
-144.9212055
11
173.4314218
21
-145.7840344
0
LINE
8
0
10
173.4314218
20
-145.7840344
11
174.2942507
21
-164.3139569
0
LINE
8
0
10
173.408165
20
-145.2845756
11
191.9380875
21
-144.4217467
0
LINE
8
0
10
191.9380875
20
-144.4217467
11
191.0752586
21
-125.8918242
0
LINE
8
0
10
191.0752586
20
-125.8918242
11
172.5453361
21
-126.7546531
0
LINE
8
0
10
172.5453361
20
-126.7546531
11
173.408165
21
-145.2845756
0
LINE
8
0
10
172.5220792
20
-126.2551942
11
191.0520017
21
-125.3923653
0
LINE
8
0
10
191.0520017
20
-125.3923653
11
190.1891728
21
-106.8624428
0
LINE
8
0
10
190.1891728
20
-106.8624428
11
171.6592503
21
-107.7252717
0
LINE
8
0
10
171.6592503
20
-107.7252717
11
172.5220792
21
-126.2551942
0
LINE
8
0
10
171.6359934
20
-107.2258129
11
190.1659159
21
-106.362984
0
LINE
8
0
10
190.1659159
20
-106.362984
11
189.303087
21
-87.8330615
0
LINE
8
0
10
189.303087
20
-87.8330615
11
170.7731645
21
-88.6958904
0
LINE
8
0
10
170.7731645
20
-88.6958904
11
171.6359934
21
-107.2258129
0
LINE
8
0
10
170.7499077
20
-88.1964316
11
189.2798302
21
-87.3336027
0
LINE
8
0
10
189.2798302
20
-87.3336027
11
188.4170013
21
-68.8036802
0
LINE
8
0
10
188.4170013
20
-68.8036802
11
169.8870788
21
-69.6665091
0
LINE
8
0
10
169.8870788
20
-69.6665091
11
170.7499077
21
-88.1964316
0
LINE
8
0
10
193.3120036
20
-163.1781417
11
211.8419261
21
-162.3153128
0
LINE
8
0
10
211.8419261
20
-162.3153128
11
210.9790972
21
-143.7853903
0
LINE
8
0
10
210.9790972
20
-143.7853903
11
192.4491747
21
-144.6482192
0
LINE
8
0
10
192.4491747
20
-144.6482192
11
193.3120036
21
-163.1781417
0
LINE
8
0
10
192.4259178
20
-144.1487604
11
210.9558403
21
-143.2859315
0
LINE
8
0
10
210.9558403
20
-143.2859315
11
210.0930114
21
-124.756009
0
LINE
8
0
10
210.0930114
20
-124.756009
11
191.5630889
21
-125.6188379
0
LINE
8
0
10
191.5630889
20
-125.6188379
11
192.4259178
21
-144.1487604
0
LINE
8
0
10
191.5398321
20
-125.1193791
11
210.0697546
21
-124.2565502
0
LINE
8
0
10
210.0697546
20
-124.2565502
11
209.2069257
21
-105.7266277
0
LINE
8
0
10
209.2069257
20
-105.7266277
11
190.6770032
21
-106.5894566
0
LINE
8
0
10
190.6770032
20
-106.5894566
11
191.5398321
21
-125.1193791
0
LINE
8
0
10
190.6537463
20
-106.0899977
11
209.1836688
21
-105.2271688
0
LINE
8
0
10
209.1836688
20
-105.2271688
11
208.3208399
21
-86.6972463
0
LINE
8
0
10
208.3208399
20
-86.6972463
11
189.7909174
21
-87.5600752
0
LINE
8
0
10
189.7909174
20
-87.5600752
11
190.6537463
21
-106.0899977
0
LINE
8
0
10
189.7676605
20
-87.0606164
11
208.297583
21
-86.1977875
0
LINE
8
0
10
208.297583
20
-86.1977875
11
207.4347541
21
-67.667865
0
LINE
8
0
10
207.4347541
20
-67.667865
11
188.9048316
21
-68.5306939
0
LINE
8
0
10
188.9048316
20
-68.5306939
11
189.7676605
21
-87.0606164
0
LINE
8
0
10
213.0130772
20
-180.1668761
11
231.5552359
21
-179.6275704
0
LINE
8
0
10
231.5552359
20
-179.6275704
11
231.0159302
21
-161.0854117
0
LINE
8
0
10
231.0159302
20
-161.0854117
11
212.4737715
21
-161.6247174
0
LINE
8
0
10
212.4737715
20
-161.6247174
11
213.0130772
21
-180.1668761
0
LINE
8
0
10
212.4592349
20
-161.1249287
11
231.0013936
21
-160.585623
0
LINE
8
0
10
231.0013936
20
-160.585623
11
230.4620879
21
-142.0434643
0
LINE
8
0
10
230.4620879
20
-142.0434643
11
211.9199292
21
-142.58277
0
LINE
8
0
10
211.9199292
20
-142.58277
11
212.4592349
21
-161.1249287
0
LINE
8
0
10
211.9053926
20
-142.0829814
11
230.4475513
21
-141.5436757
0
LINE
8
0
10
230.4475513
20
-141.5436757
11
229.9082456
21
-123.001517
0
LINE
8
0
10
229.9082456
20
-123.001517
11
211.3660869
21
-123.5408227
0
LINE
8
0
10
211.3660869
20
-123.5408227
11
211.9053926
21
-142.0829814
0
LINE
8
0
10
211.3515503
20
-123.041034
11
229.893709
21
-122.5017283
0
LINE
8
0
10
229.893709
20
-122.5017283
11
229.3544033
21
-103.9595696
0
LINE
8
0
10
229.3544033
20
-103.9595696
11
210.8122446
21
-104.4988753
0
LINE
8
0
10
210.8122446
20
-104.4988753
11
211.3515503
21
-123.041034
0
LINE
8
0
10
210.7977081
20
-103.9990866
11
229.3398668
21
-103.4597809
0
LINE
8
0
10
229.3398668
20
-103.4597809
11
228.8005611
21
-84.9176222
0
LINE
8
0
10
228.8005611
20
-84.9176222
11
210.2584024
21
-85.4569279
0
LINE
8
0
10
210.2584024
20
-85.4569279
11
210.7977081
21
-103.9990866
0
LINE
8
0
10
210.2438658
20
-84.9571393
11
228.7860245
21
-84.4178336
0
LINE
8
0
10
228.7860245
20
-84.4178336
11
228.2467188
21
-65.8756749
0
LINE
8
0
10
228.2467188
20
-65.8756749
11
209.7045601
21
-66.4149806
0
LINE
8
0
10
209.7045601
20
-66.4149806
11
210.2438658
21
-84.9571393
0
LINE
8
0
10
231.9189599
20
-180.4540615
11
250.4677067
21
-180.2384431
0
LINE
8
0
10
250.4677067
20
-180.2384431
11
250.2520883
21
-161.6896963
0
LINE
8
0
10
250.2520883
20
-161.6896963
11
231.7033415
21
-161.9053147
0
LINE
8
0
10
231.7033415
20
-161.9053147
11
231.9189599
21
-180.4540615
0
LINE
8
0
10
231.6975298
20
-161.4053484
11
250.2462766
21
-161.18973
0
LINE
8
0
10
250.2462766
20
-161.18973
11
250.0306582
21
-142.6409832
0
LINE
8
0
10
250.0306582
20
-142.6409832
11
231.4819114
21
-142.8566016
0
LINE
8
0
10
231.4819114
20
-142.8566016
11
231.6975298
21
-161.4053484
0
LINE
8
0
10
231.4760996
20
-142.3566354
11
250.0248464
21
-142.141017
0
LINE
8
0
10
250.0248464
20
-142.141017
11
249.809228
21
-123.5922702
0
LINE
8
0
10
249.809228
20
-123.5922702
11
231.2604812
21
-123.8078886
0
LINE
8
0
10
231.2604812
20
-123.8078886
11
231.4760996
21
-142.3566354
0
LINE
8
0
10
231.2546694
20
-123.3079223
11
249.8034162
21
-123.0923039
0
LINE
8
0
10
249.8034162
20
-123.0923039
11
249.5877978
21
-104.5435571
0
LINE
8
0
10
249.5877978
20
-104.5435571
11
231.039051
21
-104.7591755
0
LINE
8
0
10
231.039051
20
-104.7591755
11
231.2546694
21
-123.3079223
0
LINE
8
0
10
231.0332393
20
-104.2592093
11
249.5819861
21
-104.0435909
0
LINE
8
0
10
249.5819861
20
-104.0435909
11
249.3663677
21
-85.4948441
0
LINE
8
0
10
249.3663677
20
-85.4948441
11
230.8176209
21
-85.7104625
0
LINE
8
0
10
230.8176209
20
-85.7104625
11
231.0332393
21
-104.2592093
0
LINE
8
0
10
230.8118091
20
-85.2104962
11
249.3605559
21
-84.9948778
0
LINE
8
0
10
249.3605559
20
-84.9948778
11
249.1449375
21
-66.446131
0
LINE
8
0
10
249.1449375
20
-66.446131
11
230.5961907
21
-66.6617494
0
LINE
8
0
10
230.5961907
20
-66.6617494
11
230.8118091
21
-85.2104962
0
LINE
8
0
10
250.8285746
20
-182.0710886
11
269.3782594
21
-182.1792234
0
LINE
8
0
10
269.3782594
20
-182.1792234
11
269.4863942
21
-163.6295386
0
LINE
8
0
10
269.4863942
20
-163.6295386
11
250.9367094
21
-163.5214038
0
LINE
8
0
10
250.9367094
20
-163.5214038
11
250.8285746
21
-182.0710886
0
LINE
8
0
10
250.939624
20
-163.0214122
11
269.4893088
21
-163.129547
0
LINE
8
0
10
269.4893088
20
-163.129547
11
269.5974436
21
-144.5798622
0
LINE
8
0
10
269.5974436
20
-144.5798622
11
251.0477588
21
-144.4717274
0
LINE
8
0
10
251.0477588
20
-144.4717274
11
250.939624
21
-163.0214122
0
LINE
8
0
10
251.0506734
20
-143.9717359
11
269.6003582
21
-144.0798707
0
LINE
8
0
10
269.6003582
20
-144.0798707
11
269.708493
21
-125.5301859
0
LINE
8
0
10
269.708493
20
-125.5301859
11
251.1588082
21
-125.4220511
0
LINE
8
0
10
251.1588082
20
-125.4220511
11
251.0506734
21
-143.9717359
0
LINE
8
0
10
251.1617228
20
-124.9220596
11
269.7114076
21
-125.0301944
0
LINE
8
0
10
269.7114076
20
-125.0301944
11
269.8195424
21
-106.4805096
0
LINE
8
0
10
269.8195424
20
-106.4805096
11
251.2698576
21
-106.3723748
0
LINE
8
0
10
251.2698576
20
-106.3723748
11
251.1617228
21
-124.9220596
0
LINE
8
0
10
251.2727722
20
-105.8723833
11
269.822457
21
-105.9805181
0
LINE
8
0
10
269.822457
20
-105.9805181
11
269.9305918
21
-87.4308333
0
LINE
8
0
10
269.9305918
20
-87.4308333
11
251.380907
21
-87.3226985
0
LINE
8
0
10
251.380907
20
-87.3226985
11
251.2727722
21
-105.8723833
0
LINE
8
0
10
269.878251
20
-182.182138
11
288.4279358
21
-182.2902728
0
LINE
8
0
10
288.4279358
20
-182.2902728
11
288.5360706
21
-163.740588
0
LINE
8
0
10
288.5360706
20
-163.740588
11
269.9863858
21
-163.6324532
0
LINE
8
0
10
269.9863858
20
-163.6324532
11
269.878251
21
-182.182138
0
LINE
8
0
10
275.3517093
20
-163.1637216
11
293.9013941
21
-163.2718564
0
LINE
8
0
10
293.9013941
20
-163.2718564
11
294.0095289
21
-144.7221716
0
LINE
8
0
10
294.0095289
20
-144.7221716
11
275.4598441
21
-144.6140368
0
LINE
8
0
10
275.4598441
20
-144.6140368
11
275.3517093
21
-163.1637216
0
LINE
8
0
10
270.1003498
20
-144.0827853
11
288.6500346
21
-144.1909201
0
LINE
8
0
10
288.6500346
20
-144.1909201
11
288.7581694
21
-125.6412353
0
LINE
8
0
10
288.7581694
20
-125.6412353
11
270.2084846
21
-125.5331005
0
LINE
8
0
10
270.2084846
20
-125.5331005
11
270.1003498
21
-144.0827853
0
LINE
8
0
10
270.2113992
20
-125.033109
11
288.761084
21
-125.1412438
0
LINE
8
0
10
288.761084
20
-125.1412438
11
288.8692188
21
-106.591559
0
LINE
8
0
10
288.8692188
20
-106.591559
11
270.319534
21
-106.4834242
0
LINE
8
0
10
270.319534
20
-106.4834242
11
270.2113992
21
-125.033109
0
LINE
8
0
10
270.3224486
20
-105.9834326
11
288.8721334
21
-106.0915674
0
LINE
8
0
10
288.8721334
20
-106.0915674
11
288.9802682
21
-87.5418826
0
LINE
8
0
10
288.9802682
20
-87.5418826
11
270.4305834
21
-87.4337478
0
LINE
8
0
10
270.4305834
20
-87.4337478
11
270.3224486
21
-105.9834326
0
LINE
8
0
10
270.4334979
20
-86.9337563
11
288.9831827
21
-87.0418911
0
LINE
8
0
10
288.9831827
20
-87.0418911
11
289.0913175
21
-68.4922063
0
LINE
8
0
10
289.0913175
20
-68.4922063
11
270.5416327
21
-68.3840715
0
LINE
8
0
10
270.5416327
20
-68.3840715
11
270.4334979
21
-86.9337563
0
LINE
8
0
10
294.512435
20
-144.2250948
11
313.0621198
21
-144.3332296
0
LINE
8
0
10
313.0621198
20
-144.3332296
11
313.1702546
21
-125.7835448
0
LINE
8
0
10
313.1702546
20
-125.7835448
11
294.6205698
21
-125.67541
0
LINE
8
0
10
294.6205698
20
-125.67541
11
294.512435
21
-144.2250948
0
LINE
8
0
10
289.2610755
20
-125.1441585
11
307.8107603
21
-125.2522933
0
LINE
8
0
10
307.8107603
20
-125.2522933
11
307.9188951
21
-106.7026085
0
LINE
8
0
10
307.9188951
20
-106.7026085
11
289.3692103
21
-106.5944737
0
LINE
8
0
10
289.3692103
20
-106.5944737
11
289.2610755
21
-125.1441585
0
LINE
8
0
10
289.3721249
20
-106.0944821
11
307.9218097
21
-106.2026169
0
LINE
8
0
10
307.9218097
20
-106.2026169
11
308.0299445
21
-87.6529321
0
LINE
8
0
10
308.0299445
20
-87.6529321
11
289.4802597
21
-87.5447973
0
LINE
8
0
10
289.4802597
20
-87.5447973
11
289.3721249
21
-106.0944821
0
LINE
8
0
10
289.4831743
20
-87.0448058
11
308.0328591
21
-87.1529406
0
LINE
8
0
10
308.0328591
20
-87.1529406
11
308.1409939
21
-68.6032558
0
LINE
8
0
10
308.1409939
20
-68.6032558
11
289.5913091
21
-68.495121
0
LINE
8
0
10
289.5913091
20
-68.495121
11
289.4831743
21
-87.0448058
0
LINE
8
0
10
308.3107518
20
-125.255208
11
326.8604366
21
-125.3633428
0
LINE
8
0
10
326.8604366
20
-125.3633428
11
326.9685714
21
-106.813658
0
LINE
8
0
10
326.9685714
20
-106.813658
11
308.4188866
21
-106.7055232
0
LINE
8
0
10
308.4188866
20
-106.7055232
11
308.3107518
21
-125.255208
0
LINE
8
0
10
313.7842101
20
-106.2367916
11
332.3338949
21
-106.3449264
0
LINE
8
0
10
332.3338949
20
-106.3449264
11
332.4420297
21
-87.7952416
0
LINE
8
0
10
332.4420297
20
-87.7952416
11
313.8923449
21
-87.6871068
0
LINE
8
0
10
313.8923449
20
-87.6871068
11
313.7842101
21
-106.2367916
0
LINE
8
0
10
308.5328506
20
-87.1558553
11
327.0825354
21
-87.2639901
0
LINE
8
0
10
327.0825354
20
-87.2639901
11
327.1906702
21
-68.7143053
0
LINE
8
0
10
327.1906702
20
-68.7143053
11
308.6409854
21
-68.6061705
0
LINE
8
0
10
308.6409854
20
-68.6061705
11
308.5328506
21
-87.1558553
0
LINE
8
0
10
327.582527
20
-87.2669046
11
346.1322118
21
-87.3750394
0
LINE
8
0
10
346.1322118
20
-87.3750394
11
346.2403466
21
-68.8253546
0
LINE
8
0
10
346.2403466
20
-68.8253546
11
327.6906618
21
-68.7172198
0
LINE
8
0
10
327.6906618
20
-68.7172198
11
327.582527
21
-87.2669046
0
LINE
8
0
10
330.2621062
20
-196.2732383
11
342.7546278
21
-182.5604923
0
LINE
8
0
10
342.7546278
20
-182.5604923
11
329.0418818
21
-170.0679707
0
LINE
8
0
10
329.0418818
20
-170.0679707
11
316.5493602
21
-183.7807167
0
LINE
8
0
10
316.5493602
20
-183.7807167
11
330.2621062
21
-196.2732383
0
LINE
8
0
10
316.1797444
20
-183.443991
11
328.672266
21
-169.731245
0
LINE
8
0
10
328.672266
20
-169.731245
11
314.95952
21
-157.2387234
0
LINE
8
0
10
314.95952
20
-157.2387234
11
302.4669984
21
-170.9514694
0
LINE
8
0
10
302.4669984
20
-170.9514694
11
316.1797444
21
-183.443991
0
LINE
8
0
10
343.0913535
20
-182.1908765
11
355.5838751
21
-168.4781305
0
LINE
8
0
10
355.5838751
20
-168.4781305
11
341.8711291
21
-155.9856089
0
LINE
8
0
10
341.8711291
20
-155.9856089
11
329.3786075
21
-169.6983549
0
LINE
8
0
10
329.3786075
20
-169.6983549
11
343.0913535
21
-182.1908765
0
LINE
8
0
10
329.0089918
20
-169.3616292
11
341.5015134
21
-155.6488832
0
LINE
8
0
10
341.5015134
20
-155.6488832
11
327.7887674
21
-143.1563616
0
LINE
8
0
10
327.7887674
20
-143.1563616
11
315.2962458
21
-156.8691076
0
LINE
8
0
10
315.2962458
20
-156.8691076
11
329.0089918
21
-169.3616292
0
LINE
8
0
10
359.1279126
20
-164.5879243
11
371.6204342
21
-150.8751783
0
LINE
8
0
10
371.6204342
20
-150.8751783
11
357.9076882
21
-138.3826567
0
LINE
8
0
10
357.9076882
20
-138.3826567
11
345.4151666
21
-152.0954027
0
LINE
8
0
10
345.4151666
20
-152.0954027
11
359.1279126
21
-164.5879243
0
LINE
8
0
10
345.0455508
20
-151.758677
11
357.5380724
21
-138.045931
0
LINE
8
0
10
357.5380724
20
-138.045931
11
343.8253264
21
-125.5534094
0
LINE
8
0
10
343.8253264
20
-125.5534094
11
331.3328048
21
-139.2661554
0
LINE
8
0
10
331.3328048
20
-139.2661554
11
345.0455508
21
-151.758677
0
LINE
8
0
10
371.9571599
20
-150.5055625
11
384.4496815
21
-136.7928165
0
LINE
8
0
10
384.4496815
20
-136.7928165
11
370.7369355
21
-124.3002949
0
LINE
8
0
10
370.7369355
20
-124.3002949
11
358.2444139
21
-138.0130409
0
LINE
8
0
10
358.2444139
20
-138.0130409
11
371.9571599
21
-150.5055625
0
LINE
8
0
10
357.8747981
20
-137.6763152
11
370.3673197
21
-123.9635692
0
LINE
8
0
10
370.3673197
20
-123.9635692
11
356.6545737
21
-111.4710476
0
LINE
8
0
10
356.6545737
20
-111.4710476
11
344.1620521
21
-125.1837936
0
LINE
8
0
10
344.1620521
20
-125.1837936
11
357.8747981
21
-137.6763152
0
LINE
8
0
10
356.045992
20
-106.4831551
11
374.5956768
21
-106.5912899
0
LINE
8
0
10
374.5956768
20
-106.5912899
11
374.7038116
21
-88.0416051
0
LINE
8
0
10
374.7038116
20
-88.0416051
11
356.1541268
21
-87.9334703
0
LINE
8
0
10
356.1541268
20
-87.9334703
11
356.045992
21
-106.4831551
0
LINE
8
0
10
356.1570414
20
-87.4334787
11
374.7067262
21
-87.5416135
0
LINE
8
0
10
374.7067262
20
-87.5416135
11
374.814861
21
-68.9919287
0
LINE
8
0
10
374.814861
20
-68.9919287
11
356.2651762
21
-68.8837939
0
LINE
8
0
10
356.2651762
20
-68.8837939
11
356.1570414
21
-87.4334787
0
LINE
8
0
10
375.0956684
20
-106.5942045
11
393.6453532
21
-106.7023393
0
LINE
8
0
10
393.6453532
20
-106.7023393
11
393.753488
21
-88.1526545
0
LINE
8
0
10
393.753488
20
-88.1526545
11
375.2038032
21
-88.0445197
0
LINE
8
0
10
375.2038032
20
-88.0445197
11
375.0956684
21
-106.5942045
0
LINE
8
0
10
375.2067178
20
-87.5445281
11
393.7564026
21
-87.6526629
0
LINE
8
0
10
393.7564026
20
-87.6526629
11
393.8645374
21
-69.1029781
0
LINE
8
0
10
393.8645374
20
-69.1029781
11
375.3148526
21
-68.9948433
0
LINE
8
0
10
375.3148526
20
-68.9948433
11
375.2067178
21
-87.5445281
0
ENDSEC
0
EOF