0
SECTION
2
HEADER
9
$INSUNITS
70
4
0
ENDSEC
0
SECTION
2
TABLES
0
TABLE
2
LTYPE
0
LTYPE
72
65
70
64
2
CONTINUOUS
3
______
73
0
40
0
0
ENDTAB
0
TABLE
2
LAYER
0
ENDTAB
0
ENDSEC
0
SECTION
2
ENTITIES
0
LINE
8
0
10
12.2608586
20
-104.8275211
11
22.6217045
21
-61.7557383
0
LINE
8
0
10
25.5036323
20
-59.457572
11
35.6180619
21
-59.3399976
0
LINE
8
0
10
35.7660993
20
-59.3346192
11
75.7475031
21
-56.8924331
0
LINE
8
0
10
75.8080944
20
-56.8893465
11
96.6759924
21
-56.0378055
0
LINE
8
0
10
97.0128026
20
-56.0429886
11
117.842043
21
-57.5360544
0
LINE
8
0
10
117.911076
20
-57.5402036
11
148.9782477
21
-59.0483259
0
LINE
8
0
10
150.7985124
20
-59.7785395
11
155.2168088
21
-63.610917
0
LINE
8
0
10
157.1955674
20
-64.3446309
11
166.9957715
21
-64.3020536
0
LINE
8
0
10
168.9615617
20
-63.5569116
11
173.3614862
21
-59.6955665
0
LINE
8
0
10
175.1770466
20
-58.954842
11
205.612429
21
-57.2960577
0
LINE
8
0
10
205.7281924
20
-57.2874993
11
226.4953298
21
-55.347562
0
LINE
8
0
10
226.8319499
20
-55.3351107
11
247.7038109
21
-55.7358779
0
LINE
8
0
10
247.7868683
20
-55.7386239
11
287.816908
21
-57.6174434
0
LINE
8
0
10
287.9400706
20
-57.6206913
11
402.1765127
21
-58.2866286
0
LINE
8
0
10
405.1589735
20
-61.3040658
11
404.8782815
21
-109.4546327
0
LINE
8
0
10
404.756147
20
-110.2846019
11
397.2354302
21
-135.8236194
0
LINE
8
0
10
339.8687108
20
-199.2420113
11
396.5753106
21
-136.9965159
0
LINE
8
0
10
336.5505857
20
-200.0125449
11
300.1803176
21
-185.671965
0
LINE
8
0
10
268.2163988
20
-185.2828839
11
299.0973754
21
-185.4629035
0
LINE
8
0
10
267.9520487
20
-185.2696668
11
249.3670713
21
-183.5159245
0
LINE
8
0
10
249.0934608
20
-183.5026677
11
218.0963527
21
-183.4176534
0
LINE
8
0
10
217.6233163
20
-183.4538687
11
204.630234
21
-185.4915744
0
LINE
8
0
10
204.3846429
20
-185.5197809
11
167.1266686
21
-188.2496103
0
LINE
8
0
10
166.9134517
20
-188.2576244
11
157.3890021
21
-188.2766751
0
LINE
8
0
10
157.1811246
20
-188.269881
11
119.86838
21
-185.753318
0
LINE
8
0
10
119.6957894
20
-185.7366554
11
106.6065968
21
-184.0899504
0
LINE
8
0
10
106.1746889
20
-184.0670378
11
75.1806067
21
-184.6605846
0
LINE
8
0
10
74.8862593
20
-184.6807318
11
56.3839855
21
-186.865428
0
LINE
8
0
10
26.3444199
20
-187.2314309
11
56.0670685
21
-186.8859225
0
LINE
8
0
10
23.7609584
20
-185.8142534
11
13.3490307
21
-169.0472809
0
LINE
8
0
10
12.8978241
20
-167.4995319
11
12.17786
21
-105.5640229
0
ARC
8
0
10
25.5385031
20
-62.4573693
40
3
50
90.6659982
51
166.4745651
0
ARC
8
0
10
35.5831911
20
-56.3402003
40
3
50
270.6659982
51
273.4954573
0
ARC
8
0
10
75.9304113
20
-59.8868519
40
3
50
92.3367284
51
93.4954573
0
ARC
8
0
10
96.7983093
20
-59.0353109
40
3
50
85.8999797
51
92.3367284
0
ARC
8
0
10
118.0565364
20
-54.5437321
40
3
50
265.8999797
51
267.2208212
0
ARC
8
0
10
148.8327873
20
-62.0447974
40
3
50
49.0620206
51
87.2208212
0
ARC
8
0
10
157.1825339
20
-61.3446592
40
3
50
229.0620206
51
270.2489223
0
ARC
8
0
10
166.982738
20
-61.3020819
40
3
50
270.2489223
51
311.2699753
0
ARC
8
0
10
175.3403099
20
-61.9503962
40
3
50
93.1196404
51
131.2699753
0
ARC
8
0
10
205.4491657
20
-54.3005036
40
3
50
273.1196404
51
275.3367306
0
ARC
8
0
10
226.7743565
20
-58.3345578
40
3
50
88.8999795
51
95.3367306
0
ARC
8
0
10
247.6462175
20
-58.735325
40
3
50
87.3127826
51
88.8999795
0
ARC
8
0
10
287.9575588
20
-54.6207423
40
3
50
267.3127826
51
269.6659981
0
ARC
8
0
10
402.1590245
20
-61.2865776
40
3
50
359.6659981
51
89.6659981
0
ARC
8
0
10
401.8783325
20
-109.4371445
40
3
50
343.5913791
51
359.6659981
0
ARC
8
0
10
394.3576158
20
-134.976162
40
3
50
317.6660004
51
343.5913791
0
ARC
8
0
10
337.651016
20
-197.2216574
40
3
50
248.4809773
51
317.6660004
0
ARC
8
0
10
299.0798872
20
-188.4628525
40
3
50
68.4809773
51
89.6659981
0
ARC
8
0
10
268.233887
20
-182.2829349
40
3
50
264.6093356
51
269.6659981
0
ARC
8
0
10
249.085233
20
-186.5026564
40
3
50
84.6093356
51
89.8428604
0
ARC
8
0
10
218.0881249
20
-186.4176421
40
3
50
89.8428604
51
98.9130959
0
ARC
8
0
10
204.1654254
20
-182.527801
40
3
50
274.1904809
51
278.9130959
0
ARC
8
0
10
166.9074511
20
-185.2576304
40
3
50
270.1146031
51
274.1904809
0
ARC
8
0
10
157.3830015
20
-185.2766811
40
3
50
266.1415194
51
270.1146031
0
ARC
8
0
10
120.0702569
20
-182.7601181
40
3
50
262.8294946
51
266.1415194
0
ARC
8
0
10
106.2321293
20
-187.0664878
40
3
50
82.8294946
51
91.0970979
0
ARC
8
0
10
75.2380471
20
-187.6600346
40
3
50
91.0970979
51
96.7341459
0
ARC
8
0
10
56.0321977
20
-183.8861252
40
3
50
270.6659982
51
276.7341459
0
ARC
8
0
10
26.3095491
20
-184.2316336
40
3
50
211.8393876
51
270.6659982
0
ARC
8
0
10
15.8976214
20
-167.4646611
40
3
50
180.6659982
51
211.8393876
0
ARC
8
0
10
15.1776573
20
-105.5291521
40
3
50
166.4745651
51
180.6659982
0
LINE
8
0
10
27.8652068
20
-183.9635331
11
46.4139536
21
-183.7479147
0
LINE
8
0
10
46.4139536
20
-183.7479147
11
46.1983352
21
-165.1991679
0
LINE
8
0
10
46.1983352
20
-165.1991679
11
27.6495884
21
-165.4147863
0
LINE
8
0
10
27.6495884
20
-165.4147863
11
27.8652068
21
-183.9635331
0
LINE
8
0
10
22.3816321
20
-164.9759894
11
40.9303789
21
-164.760371
0
LINE
8
0
10
40.9303789
20
-164.760371
11
40.7147605
21
-146.2116242
0
LINE
8
0
10
40.7147605
20
-146.2116242
11
22.1660137
21
-146.4272426
0
LINE
8
0
10
22.1660137
20
-146.4272426
11
22.3816321
21
-164.9759894
0
LINE
8
0
10
22.1602019
20
-145.9272764
11
40.7089487
21
-145.711658
0
LINE
8
0
10
40.7089487
20
-145.711658
11
40.4933303
21
-127.1629112
0
LINE
8
0
10
40.4933303
20
-127.1629112
11
21.9445835
21
-127.3785296
0
LINE
8
0
10
21.9445835
20
-127.3785296
11
22.1602019
21
-145.9272764
0
LINE
8
0
10
21.9387718
20
-126.8785633
11
40.4875186
21
-126.6629449
0
LINE
8
0
10
40.4875186
20
-126.6629449
11
40.2719002
21
-108.1141981
0
LINE
8
0
10
40.2719002
20
-108.1141981
11
21.7231534
21
-108.3298165
0
LINE
8
0
10
21.7231534
20
-108.3298165
11
21.9387718
21
-126.8785633
0
LINE
8
0
10
26.9794861
20
-107.7686809
11
45.5282329
21
-107.5530625
0
LINE
8
0
10
45.5282329
20
-107.5530625
11
45.3126145
21
-89.0043157
0
LINE
8
0
10
45.3126145
20
-89.0043157
11
26.7638677
21
-89.2199341
0
LINE
8
0
10
26.7638677
20
-89.2199341
11
26.9794861
21
-107.7686809
0
LINE
8
0
10
26.7580559
20
-88.7199679
11
45.3068027
21
-88.5043495
0
LINE
8
0
10
45.3068027
20
-88.5043495
11
45.0911843
21
-69.9556027
0
LINE
8
0
10
45.0911843
20
-69.9556027
11
26.5424375
21
-70.1712211
0
LINE
8
0
10
26.5424375
20
-70.1712211
11
26.7580559
21
-88.7199679
0
LINE
8
0
10
46.9139198
20
-183.7421029
11
65.4626666
21
-183.5264845
0
LINE
8
0
10
65.4626666
20
-183.5264845
11
65.2470482
21
-164.9777377
0
LINE
8
0
10
65.2470482
20
-164.9777377
11
46.6983014
21
-165.1933561
0
LINE
8
0
10
46.6983014
20
-165.1933561
11
46.9139198
21
-183.7421029
0
LINE
8
0
10
46.6924896
20
-164.6933899
11
65.2412364
21
-164.4777715
0
LINE
8
0
10
65.2412364
20
-164.4777715
11
65.025618
21
-145.9290247
0
LINE
8
0
10
65.025618
20
-145.9290247
11
46.4768712
21
-146.1446431
0
LINE
8
0
10
46.4768712
20
-146.1446431
11
46.6924896
21
-164.6933899
0
LINE
8
0
10
46.4710595
20
-145.6446768
11
65.0198063
21
-145.4290584
0
LINE
8
0
10
65.0198063
20
-145.4290584
11
64.8041879
21
-126.8803116
0
LINE
8
0
10
64.8041879
20
-126.8803116
11
46.2554411
21
-127.09593
0
LINE
8
0
10
46.2554411
20
-127.09593
11
46.4710595
21
-145.6446768
0
LINE
8
0
10
46.2496293
20
-126.5959638
11
64.7983761
21
-126.3803454
0
LINE
8
0
10
64.7983761
20
-126.3803454
11
64.5827577
21
-107.8315986
0
LINE
8
0
10
64.5827577
20
-107.8315986
11
46.0340109
21
-108.047217
0
LINE
8
0
10
46.0340109
20
-108.047217
11
46.2496293
21
-126.5959638
0
LINE
8
0
10
46.0281991
20
-107.5472507
11
64.5769459
21
-107.3316323
0
LINE
8
0
10
64.5769459
20
-107.3316323
11
64.3613275
21
-88.7828855
0
LINE
8
0
10
64.3613275
20
-88.7828855
11
45.8125807
21
-88.9985039
0
LINE
8
0
10
45.8125807
20
-88.9985039
11
46.0281991
21
-107.5472507
0
LINE
8
0
10
65.77704
20
-181.3594003
11
84.3267248
21
-181.4675351
0
LINE
8
0
10
84.3267248
20
-181.4675351
11
84.4348596
21
-162.9178503
0
LINE
8
0
10
84.4348596
20
-162.9178503
11
65.8851748
21
-162.8097155
0
LINE
8
0
10
65.8851748
20
-162.8097155
11
65.77704
21
-181.3594003
0
LINE
8
0
10
65.8880894
20
-162.3097239
11
84.4377742
21
-162.4178587
0
LINE
8
0
10
84.4377742
20
-162.4178587
11
84.545909
21
-143.8681739
0
LINE
8
0
10
84.545909
20
-143.8681739
11
65.9962242
21
-143.7600391
0
LINE
8
0
10
65.9962242
20
-143.7600391
11
65.8880894
21
-162.3097239
0
LINE
8
0
10
65.9991388
20
-143.2600476
11
84.5488236
21
-143.3681824
0
LINE
8
0
10
84.5488236
20
-143.3681824
11
84.6569584
21
-124.8184976
0
LINE
8
0
10
84.6569584
20
-124.8184976
11
66.1072736
21
-124.7103628
0
LINE
8
0
10
66.1072736
20
-124.7103628
11
65.9991388
21
-143.2600476
0
LINE
8
0
10
66.1101882
20
-124.2103713
11
84.659873
21
-124.3185061
0
LINE
8
0
10
84.659873
20
-124.3185061
11
84.7680078
21
-105.7688213
0
LINE
8
0
10
84.7680078
20
-105.7688213
11
66.218323
21
-105.6606865
0
LINE
8
0
10
66.218323
20
-105.6606865
11
66.1101882
21
-124.2103713
0
LINE
8
0
10
66.2212376
20
-105.1606949
11
84.7709224
21
-105.2688297
0
LINE
8
0
10
84.7709224
20
-105.2688297
11
84.8790572
21
-86.7191449
0
LINE
8
0
10
84.8790572
20
-86.7191449
11
66.3293724
21
-86.6110101
0
LINE
8
0
10
66.3293724
20
-86.6110101
11
66.2212376
21
-105.1606949
0
LINE
8
0
10
66.3322869
20
-86.1110186
11
84.8819717
21
-86.2191534
0
LINE
8
0
10
84.8819717
20
-86.2191534
11
84.9901065
21
-67.6694686
0
LINE
8
0
10
84.9901065
20
-67.6694686
11
66.4404217
21
-67.5613338
0
LINE
8
0
10
66.4404217
20
-67.5613338
11
66.3322869
21
-86.1110186
0
LINE
8
0
10
84.6730418
20
-180.3062503
11
103.2180142
21
-180.7381053
0
LINE
8
0
10
103.2180142
20
-180.7381053
11
103.6498692
21
-162.1931329
0
LINE
8
0
10
103.6498692
20
-162.1931329
11
85.1048968
21
-161.7612779
0
LINE
8
0
10
85.1048968
20
-161.7612779
11
84.6730418
21
-180.3062503
0
LINE
8
0
10
85.116537
20
-161.2614134
11
103.6615094
21
-161.6932684
0
LINE
8
0
10
103.6615094
20
-161.6932684
11
104.0933644
21
-143.148296
0
LINE
8
0
10
104.0933644
20
-143.148296
11
85.548392
21
-142.716441
0
LINE
8
0
10
85.548392
20
-142.716441
11
85.116537
21
-161.2614134
0
LINE
8
0
10
85.5600322
20
-142.2165765
11
104.1050046
21
-142.6484315
0
LINE
8
0
10
104.1050046
20
-142.6484315
11
104.5368596
21
-124.1034591
0
LINE
8
0
10
104.5368596
20
-124.1034591
11
85.9918872
21
-123.6716041
0
LINE
8
0
10
85.9918872
20
-123.6716041
11
85.5600322
21
-142.2165765
0
LINE
8
0
10
86.0035274
20
-123.1717396
11
104.5484998
21
-123.6035946
0
LINE
8
0
10
104.5484998
20
-123.6035946
11
104.9803548
21
-105.0586222
0
LINE
8
0
10
104.9803548
20
-105.0586222
11
86.4353824
21
-104.6267672
0
LINE
8
0
10
86.4353824
20
-104.6267672
11
86.0035274
21
-123.1717396
0
LINE
8
0
10
86.4470226
20
-104.1269026
11
104.991995
21
-104.5587576
0
LINE
8
0
10
104.991995
20
-104.5587576
11
105.42385
21
-86.0137852
0
LINE
8
0
10
105.42385
20
-86.0137852
11
86.8788776
21
-85.5819302
0
LINE
8
0
10
86.8788776
20
-85.5819302
11
86.4470226
21
-104.1269026
0
LINE
8
0
10
86.8905178
20
-85.0820657
11
105.4354902
21
-85.5139207
0
LINE
8
0
10
105.4354902
20
-85.5139207
11
105.8673452
21
-66.9689483
0
LINE
8
0
10
105.8673452
20
-66.9689483
11
87.3223728
21
-66.5370933
0
LINE
8
0
10
87.3223728
20
-66.5370933
11
86.8905178
21
-85.0820657
0
LINE
8
0
10
104.3137904
20
-162.5483034
11
122.8484014
21
-163.303747
0
LINE
8
0
10
122.8484014
20
-163.303747
11
123.603845
21
-144.769136
0
LINE
8
0
10
123.603845
20
-144.769136
11
105.069234
21
-144.0136924
0
LINE
8
0
10
105.069234
20
-144.0136924
11
104.3137904
21
-162.5483034
0
LINE
8
0
10
105.0895964
20
-143.5141073
11
123.6242074
21
-144.2695509
0
LINE
8
0
10
123.6242074
20
-144.2695509
11
124.379651
21
-125.7349399
0
LINE
8
0
10
124.379651
20
-125.7349399
11
105.84504
21
-124.9794963
0
LINE
8
0
10
105.84504
20
-124.9794963
11
105.0895964
21
-143.5141073
0
LINE
8
0
10
105.8654023
20
-124.4799111
11
124.4000133
21
-125.2353547
0
LINE
8
0
10
124.4000133
20
-125.2353547
11
125.1554569
21
-106.7007437
0
LINE
8
0
10
125.1554569
20
-106.7007437
11
106.6208459
21
-105.9453001
0
LINE
8
0
10
106.6208459
20
-105.9453001
11
105.8654023
21
-124.4799111
0
LINE
8
0
10
106.6412083
20
-105.4457149
11
125.1758193
21
-106.2011585
0
LINE
8
0
10
125.1758193
20
-106.2011585
11
125.9312629
21
-87.6665475
0
LINE
8
0
10
125.9312629
20
-87.6665475
11
107.3966519
21
-86.9111039
0
LINE
8
0
10
107.3966519
20
-86.9111039
11
106.6412083
21
-105.4457149
0
LINE
8
0
10
107.4170142
20
-86.4115187
11
125.9516252
21
-87.1669623
0
LINE
8
0
10
125.9516252
20
-87.1669623
11
126.7070688
21
-68.6323513
0
LINE
8
0
10
126.7070688
20
-68.6323513
11
108.1724578
21
-67.8769077
0
LINE
8
0
10
108.1724578
20
-67.8769077
11
107.4170142
21
-86.4115187
0
LINE
8
0
10
123.1615018
20
-182.632533
11
141.6961128
21
-183.3879766
0
LINE
8
0
10
141.6961128
20
-183.3879766
11
142.4515564
21
-164.8533656
0
LINE
8
0
10
142.4515564
20
-164.8533656
11
123.9169454
21
-164.097922
0
LINE
8
0
10
123.9169454
20
-164.097922
11
123.1615018
21
-182.632533
0
LINE
8
0
10
123.9373077
20
-163.5983368
11
142.4719187
21
-164.3537804
0
LINE
8
0
10
142.4719187
20
-164.3537804
11
143.2273623
21
-145.8191694
0
LINE
8
0
10
143.2273623
20
-145.8191694
11
124.6927513
21
-145.0637258
0
LINE
8
0
10
124.6927513
20
-145.0637258
11
123.9373077
21
-163.5983368
0
LINE
8
0
10
124.7131137
20
-144.5641407
11
143.2477247
21
-145.3195843
0
LINE
8
0
10
143.2477247
20
-145.3195843
11
144.0031683
21
-126.7849733
0
LINE
8
0
10
144.0031683
20
-126.7849733
11
125.4685573
21
-126.0295297
0
LINE
8
0
10
125.4685573
20
-126.0295297
11
124.7131137
21
-144.5641407
0
LINE
8
0
10
125.4889196
20
-125.5299445
11
144.0235306
21
-126.2853881
0
LINE
8
0
10
144.0235306
20
-126.2853881
11
144.7789742
21
-107.7507771
0
LINE
8
0
10
144.7789742
20
-107.7507771
11
126.2443632
21
-106.9953335
0
LINE
8
0
10
126.2443632
20
-106.9953335
11
125.4889196
21
-125.5299445
0
LINE
8
0
10
126.2647256
20
-106.4957483
11
144.7993366
21
-107.2511919
0
LINE
8
0
10
144.7993366
20
-107.2511919
11
145.5547802
21
-88.7165809
0
LINE
8
0
10
145.5547802
20
-88.7165809
11
127.0201692
21
-87.9611373
0
LINE
8
0
10
127.0201692
20
-87.9611373
11
126.2647256
21
-106.4957483
0
LINE
8
0
10
127.0405315
20
-87.4615522
11
145.5751425
21
-88.2169958
0
LINE
8
0
10
145.5751425
20
-88.2169958
11
146.3305861
21
-69.6823848
0
LINE
8
0
10
146.3305861
20
-69.6823848
11
127.7959751
21
-68.9269412
0
LINE
8
0
10
127.7959751
20
-68.9269412
11
127.0405315
21
-87.4615522
0
LINE
8
0
10
182.5804454
20
-183.2782574
11
201.1103679
21
-182.4154285
0
LINE
8
0
10
201.1103679
20
-182.4154285
11
200.247539
21
-163.885506
0
LINE
8
0
10
200.247539
20
-163.885506
11
181.7176165
21
-164.7483349
0
LINE
8
0
10
181.7176165
20
-164.7483349
11
182.5804454
21
-183.2782574
0
LINE
8
0
10
182.2937103
20
-164.2209678
11
200.8236328
21
-163.3581389
0
LINE
8
0
10
200.8236328
20
-163.3581389
11
199.9608039
21
-144.8282164
0
LINE
8
0
10
199.9608039
20
-144.8282164
11
181.4308814
21
-145.6910453
0
LINE
8
0
10
181.4308814
20
-145.6910453
11
182.2937103
21
-164.2209678
0
LINE
8
0
10
181.4076245
20
-145.1915865
11
199.937547
21
-144.3287576
0
LINE
8
0
10
199.937547
20
-144.3287576
11
199.0747181
21
-125.7988351
0
LINE
8
0
10
199.0747181
20
-125.7988351
11
180.5447956
21
-126.661664
0
LINE
8
0
10
180.5447956
20
-126.661664
11
181.4076245
21
-145.1915865
0
LINE
8
0
10
180.5215387
20
-126.1622052
11
199.0514612
21
-125.2993763
0
LINE
8
0
10
199.0514612
20
-125.2993763
11
198.1886323
21
-106.7694538
0
LINE
8
0
10
198.1886323
20
-106.7694538
11
179.6587098
21
-107.6322827
0
LINE
8
0
10
179.6587098
20
-107.6322827
11
180.5215387
21
-126.1622052
0
LINE
8
0
10
179.635453
20
-107.1328239
11
198.1653755
21
-106.269995
0
LINE
8
0
10
198.1653755
20
-106.269995
11
197.3025466
21
-87.7400725
0
LINE
8
0
10
197.3025466
20
-87.7400725
11
178.7726241
21
-88.6029014
0
LINE
8
0
10
178.7726241
20
-88.6029014
11
179.635453
21
-107.1328239
0
LINE
8
0
10
178.7493672
20
-88.1034425
11
197.2792897
21
-87.2406136
0
LINE
8
0
10
197.2792897
20
-87.2406136
11
196.4164608
21
-68.7106911
0
LINE
8
0
10
196.4164608
20
-68.7106911
11
177.8865383
21
-69.57352
0
LINE
8
0
10
177.8865383
20
-69.57352
11
178.7493672
21
-88.1034425
0
LINE
8
0
10
201.3114632
20
-163.0851527
11
219.8413857
21
-162.2223238
0
LINE
8
0
10
219.8413857
20
-162.2223238
11
218.9785568
21
-143.6924013
0
LINE
8
0
10
218.9785568
20
-143.6924013
11
200.4486343
21
-144.5552302
0
LINE
8
0
10
200.4486343
20
-144.5552302
11
201.3114632
21
-163.0851527
0
LINE
8
0
10
200.4253774
20
-144.0557713
11
218.9552999
21
-143.1929424
0
LINE
8
0
10
218.9552999
20
-143.1929424
11
218.092471
21
-124.6630199
0
LINE
8
0
10
218.092471
20
-124.6630199
11
199.5625485
21
-125.5258488
0
LINE
8
0
10
199.5625485
20
-125.5258488
11
200.4253774
21
-144.0557713
0
LINE
8
0
10
199.5392916
20
-125.02639
11
218.0692141
21
-124.1635611
0
LINE
8
0
10
218.0692141
20
-124.1635611
11
217.2063852
21
-105.6336386
0
LINE
8
0
10
217.2063852
20
-105.6336386
11
198.6764627
21
-106.4964675
0
LINE
8
0
10
198.6764627
20
-106.4964675
11
199.5392916
21
-125.02639
0
LINE
8
0
10
198.6532058
20
-105.9970087
11
217.1831283
21
-105.1341798
0
LINE
8
0
10
217.1831283
20
-105.1341798
11
216.3202994
21
-86.6042573
0
LINE
8
0
10
216.3202994
20
-86.6042573
11
197.7903769
21
-87.4670862
0
LINE
8
0
10
197.7903769
20
-87.4670862
11
198.6532058
21
-105.9970087
0
LINE
8
0
10
197.7671201
20
-86.9676274
11
216.2970426
21
-86.1047985
0
LINE
8
0
10
216.2970426
20
-86.1047985
11
215.4342137
21
-67.574876
0
LINE
8
0
10
215.4342137
20
-67.574876
11
196.9042912
21
-68.4377049
0
LINE
8
0
10
196.9042912
20
-68.4377049
11
197.7671201
21
-86.9676274
0
LINE
8
0
10
221.0125368
20
-180.073887
11
239.5546955
21
-179.5345813
0
LINE
8
0
10
239.5546955
20
-179.5345813
11
239.0153898
21
-160.9924226
0
LINE
8
0
10
239.0153898
20
-160.9924226
11
220.4732311
21
-161.5317283
0
LINE
8
0
10
220.4732311
20
-161.5317283
11
221.0125368
21
-180.073887
0
LINE
8
0
10
220.4586945
20
-161.0319397
11
239.0008532
21
-160.492634
0
LINE
8
0
10
239.0008532
20
-160.492634
11
238.4615475
21
-141.9504753
0
LINE
8
0
10
238.4615475
20
-141.9504753
11
219.9193888
21
-142.489781
0
LINE
8
0
10
219.9193888
20
-142.489781
11
220.4586945
21
-161.0319397
0
LINE
8
0
10
219.9048522
20
-141.9899923
11
238.4470109
21
-141.4506866
0
LINE
8
0
10
238.4470109
20
-141.4506866
11
237.9077052
21
-122.9085279
0
LINE
8
0
10
237.9077052
20
-122.9085279
11
219.3655465
21
-123.4478336
0
LINE
8
0
10
219.3655465
20
-123.4478336
11
219.9048522
21
-141.9899923
0
LINE
8
0
10
219.3510099
20
-122.9480449
11
237.8931686
21
-122.4087392
0
LINE
8
0
10
237.8931686
20
-122.4087392
11
237.3538629
21
-103.8665805
0
LINE
8
0
10
237.3538629
20
-103.8665805
11
218.8117042
21
-104.4058862
0
LINE
8
0
10
218.8117042
20
-104.4058862
11
219.3510099
21
-122.9480449
0
LINE
8
0
10
218.7971676
20
-103.9060976
11
237.3393263
21
-103.3667919
0
LINE
8
0
10
237.3393263
20
-103.3667919
11
236.8000206
21
-84.8246332
0
LINE
8
0
10
236.8000206
20
-84.8246332
11
218.2578619
21
-85.3639389
0
LINE
8
0
10
218.2578619
20
-85.3639389
11
218.7971676
21
-103.9060976
0
LINE
8
0
10
218.2433253
20
-84.8641502
11
236.785484
21
-84.3248445
0
LINE
8
0
10
236.785484
20
-84.3248445
11
236.2461783
21
-65.7826858
0
LINE
8
0
10
236.2461783
20
-65.7826858
11
217.7040196
21
-66.3219915
0
LINE
8
0
10
217.7040196
20
-66.3219915
11
218.2433253
21
-84.8641502
0
LINE
8
0
10
239.9184195
20
-180.3610724
11
258.4671663
21
-180.145454
0
LINE
8
0
10
258.4671663
20
-180.145454
11
258.2515479
21
-161.5967072
0
LINE
8
0
10
258.2515479
20
-161.5967072
11
239.7028011
21
-161.8123256
0
LINE
8
0
10
239.7028011
20
-161.8123256
11
239.9184195
21
-180.3610724
0
LINE
8
0
10
239.6969893
20
-161.3123594
11
258.2457361
21
-161.096741
0
LINE
8
0
10
258.2457361
20
-161.096741
11
258.0301177
21
-142.5479942
0
LINE
8
0
10
258.0301177
20
-142.5479942
11
239.4813709
21
-142.7636126
0
LINE
8
0
10
239.4813709
20
-142.7636126
11
239.6969893
21
-161.3123594
0
LINE
8
0
10
239.4755591
20
-142.2636463
11
258.0243059
21
-142.0480279
0
LINE
8
0
10
258.0243059
20
-142.0480279
11
257.8086875
21
-123.4992811
0
LINE
8
0
10
257.8086875
20
-123.4992811
11
239.2599407
21
-123.7148995
0
LINE
8
0
10
239.2599407
20
-123.7148995
11
239.4755591
21
-142.2636463
0
LINE
8
0
10
239.254129
20
-123.2149333
11
257.8028758
21
-122.9993149
0
LINE
8
0
10
257.8028758
20
-122.9993149
11
257.5872574
21
-104.4505681
0
LINE
8
0
10
257.5872574
20
-104.4505681
11
239.0385106
21
-104.6661865
0
LINE
8
0
10
239.0385106
20
-104.6661865
11
239.254129
21
-123.2149333
0
LINE
8
0
10
239.0326988
20
-104.1662202
11
257.5814456
21
-103.9506018
0
LINE
8
0
10
257.5814456
20
-103.9506018
11
257.3658272
21
-85.401855
0
LINE
8
0
10
257.3658272
20
-85.401855
11
238.8170804
21
-85.6174734
0
LINE
8
0
10
238.8170804
20
-85.6174734
11
239.0326988
21
-104.1662202
0
LINE
8
0
10
238.8112686
20
-85.1175072
11
257.3600154
21
-84.9018888
0
LINE
8
0
10
257.3600154
20
-84.9018888
11
257.144397
21
-66.353142
0
LINE
8
0
10
257.144397
20
-66.353142
11
238.5956502
21
-66.5687604
0
LINE
8
0
10
238.5956502
20
-66.5687604
11
238.8112686
21
-85.1175072
0
LINE
8
0
10
258.8280342
20
-181.9780995
11
277.377719
21
-182.0862343
0
LINE
8
0
10
277.377719
20
-182.0862343
11
277.4858538
21
-163.5365495
0
LINE
8
0
10
277.4858538
20
-163.5365495
11
258.936169
21
-163.4284147
0
LINE
8
0
10
258.936169
20
-163.4284147
11
258.8280342
21
-181.9780995
0
LINE
8
0
10
258.9390836
20
-162.9284232
11
277.4887684
21
-163.036558
0
LINE
8
0
10
277.4887684
20
-163.036558
11
277.5969032
21
-144.4868732
0
LINE
8
0
10
277.5969032
20
-144.4868732
11
259.0472184
21
-144.3787384
0
LINE
8
0
10
259.0472184
20
-144.3787384
11
258.9390836
21
-162.9284232
0
LINE
8
0
10
259.050133
20
-143.8787469
11
277.5998178
21
-143.9868817
0
LINE
8
0
10
277.5998178
20
-143.9868817
11
277.7079526
21
-125.4371969
0
LINE
8
0
10
277.7079526
20
-125.4371969
11
259.1582678
21
-125.3290621
0
LINE
8
0
10
259.1582678
20
-125.3290621
11
259.050133
21
-143.8787469
0
LINE
8
0
10
259.1611824
20
-124.8290705
11
277.7108672
21
-124.9372053
0
LINE
8
0
10
277.7108672
20
-124.9372053
11
277.819002
21
-106.3875205
0
LINE
8
0
10
277.819002
20
-106.3875205
11
259.2693172
21
-106.2793857
0
LINE
8
0
10
259.2693172
20
-106.2793857
11
259.1611824
21
-124.8290705
0
LINE
8
0
10
259.2722318
20
-105.7793942
11
277.8219166
21
-105.887529
0
LINE
8
0
10
277.8219166
20
-105.887529
11
277.9300514
21
-87.3378442
0
LINE
8
0
10
277.9300514
20
-87.3378442
11
259.3803666
21
-87.2297094
0
LINE
8
0
10
259.3803666
20
-87.2297094
11
259.2722318
21
-105.7793942
0
LINE
8
0
10
277.8777105
20
-182.0891489
11
296.4273953
21
-182.1972837
0
LINE
8
0
10
296.4273953
20
-182.1972837
11
296.5355301
21
-163.6475989
0
LINE
8
0
10
296.5355301
20
-163.6475989
11
277.9858453
21
-163.5394641
0
LINE
8
0
10
277.9858453
20
-163.5394641
11
277.8777105
21
-182.0891489
0
LINE
8
0
10
283.3511688
20
-163.0707325
11
301.9008536
21
-163.1788673
0
LINE
8
0
10
301.9008536
20
-163.1788673
11
302.0089884
21
-144.6291825
0
LINE
8
0
10
302.0089884
20
-144.6291825
11
283.4593036
21
-144.5210477
0
LINE
8
0
10
283.4593036
20
-144.5210477
11
283.3511688
21
-163.0707325
0
LINE
8
0
10
278.0998093
20
-143.9897963
11
296.6494941
21
-144.0979311
0
LINE
8
0
10
296.6494941
20
-144.0979311
11
296.7576289
21
-125.5482463
0
LINE
8
0
10
296.7576289
20
-125.5482463
11
278.2079441
21
-125.4401115
0
LINE
8
0
10
278.2079441
20
-125.4401115
11
278.0998093
21
-143.9897963
0
LINE
8
0
10
278.2108587
20
-124.9401199
11
296.7605435
21
-125.0482547
0
LINE
8
0
10
296.7605435
20
-125.0482547
11
296.8686783
21
-106.4985699
0
LINE
8
0
10
296.8686783
20
-106.4985699
11
278.3189935
21
-106.3904351
0
LINE
8
0
10
278.3189935
20
-106.3904351
11
278.2108587
21
-124.9401199
0
LINE
8
0
10
278.3219081
20
-105.8904436
11
296.8715929
21
-105.9985784
0
LINE
8
0
10
296.8715929
20
-105.9985784
11
296.9797277
21
-87.4488936
0
LINE
8
0
10
296.9797277
20
-87.4488936
11
278.4300429
21
-87.3407588
0
LINE
8
0
10
278.4300429
20
-87.3407588
11
278.3219081
21
-105.8904436
0
LINE
8
0
10
278.4329575
20
-86.8407673
11
296.9826423
21
-86.9489021
0
LINE
8
0
10
296.9826423
20
-86.9489021
11
297.0907771
21
-68.3992173
0
LINE
8
0
10
297.0907771
20
-68.3992173
11
278.5410923
21
-68.2910825
0
LINE
8
0
10
278.5410923
20
-68.2910825
11
278.4329575
21
-86.8407673
0
LINE
8
0
10
302.5118946
20
-144.1321057
11
321.0615794
21
-144.2402405
0
LINE
8
0
10
321.0615794
20
-144.2402405
11
321.1697142
21
-125.6905557
0
LINE
8
0
10
321.1697142
20
-125.6905557
11
302.6200294
21
-125.5824209
0
LINE
8
0
10
302.6200294
20
-125.5824209
11
302.5118946
21
-144.1321057
0
LINE
8
0
10
297.260535
20
-125.0511694
11
315.8102198
21
-125.1593042
0
LINE
8
0
10
315.8102198
20
-125.1593042
11
315.9183546
21
-106.6096194
0
LINE
8
0
10
315.9183546
20
-106.6096194
11
297.3686698
21
-106.5014846
0
LINE
8
0
10
297.3686698
20
-106.5014846
11
297.260535
21
-125.0511694
0
LINE
8
0
10
297.3715844
20
-106.0014931
11
315.9212692
21
-106.1096279
0
LINE
8
0
10
315.9212692
20
-106.1096279
11
316.029404
21
-87.5599431
0
LINE
8
0
10
316.029404
20
-87.5599431
11
297.4797192
21
-87.4518083
0
LINE
8
0
10
297.4797192
20
-87.4518083
11
297.3715844
21
-106.0014931
0
LINE
8
0
10
297.4826338
20
-86.9518168
11
316.0323186
21
-87.0599516
0
LINE
8
0
10
316.0323186
20
-87.0599516
11
316.1404534
21
-68.5102668
0
LINE
8
0
10
316.1404534
20
-68.5102668
11
297.5907686
21
-68.402132
0
LINE
8
0
10
297.5907686
20
-68.402132
11
297.4826338
21
-86.9518168
0
LINE
8
0
10
316.3102114
20
-125.1622189
11
334.8598962
21
-125.2703537
0
LINE
8
0
10
334.8598962
20
-125.2703537
11
334.968031
21
-106.7206689
0
LINE
8
0
10
334.968031
20
-106.7206689
11
316.4183462
21
-106.6125341
0
LINE
8
0
10
316.4183462
20
-106.6125341
11
316.3102114
21
-125.1622189
0
LINE
8
0
10
321.7836697
20
-106.1438025
11
340.3333545
21
-106.2519373
0
LINE
8
0
10
340.3333545
20
-106.2519373
11
340.4414893
21
-87.7022525
0
LINE
8
0
10
340.4414893
20
-87.7022525
11
321.8918045
21
-87.5941177
0
LINE
8
0
10
321.8918045
20
-87.5941177
11
321.7836697
21
-106.1438025
0
LINE
8
0
10
316.5323102
20
-87.0628663
11
335.081995
21
-87.1710011
0
LINE
8
0
10
335.081995
20
-87.1710011
11
335.1901298
21
-68.6213163
0
LINE
8
0
10
335.1901298
20
-68.6213163
11
316.640445
21
-68.5131815
0
LINE
8
0
10
316.640445
20
-68.5131815
11
316.5323102
21
-87.0628663
0
LINE
8
0
10
335.5819866
20
-87.1739155
11
354.1316714
21
-87.2820503
0
LINE
8
0
10
354.1316714
20
-87.2820503
11
354.2398062
21
-68.7323655
0
LINE
8
0
10
354.2398062
20
-68.7323655
11
335.6901214
21
-68.6242307
0
LINE
8
0
10
335.6901214
20
-68.6242307
11
335.5819866
21
-87.1739155
0
LINE
8
0
10
338.2615658
20
-196.1802493
11
350.7540874
21
-182.4675033
0
LINE
8
0
10
350.7540874
20
-182.4675033
11
337.0413414
21
-169.9749817
0
LINE
8
0
10
337.0413414
20
-169.9749817
11
324.5488198
21
-183.6877277
0
LINE
8
0
10
324.5488198
20
-183.6877277
11
338.2615658
21
-196.1802493
0
LINE
8
0
10
324.179204
20
-183.351002
11
336.6717256
21
-169.638256
0
LINE
8
0
10
336.6717256
20
-169.638256
11
322.9589796
21
-157.1457344
0
LINE
8
0
10
322.9589796
20
-157.1457344
11
310.466458
21
-170.8584804
0
LINE
8
0
10
310.466458
20
-170.8584804
11
324.179204
21
-183.351002
0
LINE
8
0
10
351.0908131
20
-182.0978875
11
363.5833347
21
-168.3851415
0
LINE
8
0
10
363.5833347
20
-168.3851415
11
349.8705887
21
-155.8926199
0
LINE
8
0
10
349.8705887
20
-155.8926199
11
337.3780671
21
-169.6053659
0
LINE
8
0
10
337.3780671
20
-169.6053659
11
351.0908131
21
-182.0978875
0
LINE
8
0
10
337.0084513
20
-169.2686402
11
349.5009729
21
-155.5558942
0
LINE
8
0
10
349.5009729
20
-155.5558942
11
335.7882269
21
-143.0633726
0
LINE
8
0
10
335.7882269
20
-143.0633726
11
323.2957053
21
-156.7761186
0
LINE
8
0
10
323.2957053
20
-156.7761186
11
337.0084513
21
-169.2686402
0
LINE
8
0
10
367.1273721
20
-164.4949353
11
379.6198937
21
-150.7821893
0
LINE
8
0
10
379.6198937
20
-150.7821893
11
365.9071477
21
-138.2896677
0
LINE
8
0
10
365.9071477
20
-138.2896677
11
353.4146261
21
-152.0024137
0
LINE
8
0
10
353.4146261
20
-152.0024137
11
367.1273721
21
-164.4949353
0
LINE
8
0
10
353.0450104
20
-151.6656879
11
365.537532
21
-137.9529419
0
LINE
8
0
10
365.537532
20
-137.9529419
11
351.824786
21
-125.4604203
0
LINE
8
0
10
351.824786
20
-125.4604203
11
339.3322644
21
-139.1731663
0
LINE
8
0
10
339.3322644
20
-139.1731663
11
353.0450104
21
-151.6656879
0
LINE
8
0
10
379.9566195
20
-150.4125735
11
392.4491411
21
-136.6998275
0
LINE
8
0
10
392.4491411
20
-136.6998275
11
378.7363951
21
-124.2073059
0
LINE
8
0
10
378.7363951
20
-124.2073059
11
366.2438735
21
-137.9200519
0
LINE
8
0
10
366.2438735
20
-137.9200519
11
379.9566195
21
-150.4125735
0
LINE
8
0
10
365.8742577
20
-137.5833261
11
378.3667793
21
-123.8705801
0
LINE
8
0
10
378.3667793
20
-123.8705801
11
364.6540333
21
-111.3780585
0
LINE
8
0
10
364.6540333
20
-111.3780585
11
352.1615117
21
-125.0908045
0
LINE
8
0
10
352.1615117
20
-125.0908045
11
365.8742577
21
-137.5833261
0
LINE
8
0
10
364.0454516
20
-106.390166
11
382.5951364
21
-106.4983008
0
LINE
8
0
10
382.5951364
20
-106.4983008
11
382.7032712
21
-87.948616
0
LINE
8
0
10
382.7032712
20
-87.948616
11
364.1535864
21
-87.8404812
0
LINE
8
0
10
364.1535864
20
-87.8404812
11
364.0454516
21
-106.390166
0
LINE
8
0
10
364.156501
20
-87.3404897
11
382.7061858
21
-87.4486245
0
LINE
8
0
10
382.7061858
20
-87.4486245
11
382.8143206
21
-68.8989397
0
LINE
8
0
10
382.8143206
20
-68.8989397
11
364.2646358
21
-68.7908049
0
LINE
8
0
10
364.2646358
20
-68.7908049
11
364.156501
21
-87.3404897
0
LINE
8
0
10
383.0951279
20
-106.5012154
11
401.6448127
21
-106.6093502
0
LINE
8
0
10
401.6448127
20
-106.6093502
11
401.7529475
21
-88.0596654
0
LINE
8
0
10
401.7529475
20
-88.0596654
11
383.2032627
21
-87.9515306
0
LINE
8
0
10
383.2032627
20
-87.9515306
11
383.0951279
21
-106.5012154
0
LINE
8
0
10
383.2061773
20
-87.4515391
11
401.7558621
21
-87.5596739
0
LINE
8
0
10
401.7558621
20
-87.5596739
11
401.8639969
21
-69.0099891
0
LINE
8
0
10
401.8639969
20
-69.0099891
11
383.3143121
21
-68.9018543
0
LINE
8
0
10
383.3143121
20
-68.9018543
11
383.2061773
21
-87.4515391
0
ENDSEC
0
EOF