0
SECTION
2
HEADER
9
$INSUNITS
70
4
0
ENDSEC
0
SECTION
2
TABLES
0
TABLE
2
LTYPE
0
LTYPE
72
65
70
64
2
CONTINUOUS
3
______
73
0
40
0
0
ENDTAB
0
TABLE
2
LAYER
0
ENDTAB
0
ENDSEC
0
SECTION
2
ENTITIES
0
LINE
8
0
10
88.5
20
-109.5
11
88.5
21
4.5
0
LINE
8
0
10
90.5
20
6.5
11
480.37144
21
6.5
0
LINE
8
0
10
482.365672
20
4.6517858
11
487.4471405
21
-62.1109108
0
LINE
8
0
10
486.8671221
20
-63.6769102
11
458.0261646
21
-92.5178677
0
LINE
8
0
10
457.5596412
20
-92.8648706
11
414.6168658
21
-115.9718843
0
LINE
8
0
10
413.4629485
20
-116.200007
11
368.2278379
21
-111.5106608
0
LINE
8
0
10
368.0216109
20
-111.5
11
90.5
21
-111.5
0
ARC
8
0
10
90.5
20
4.5
40
2
50
90
51
180
0
ARC
8
0
10
480.37144
20
4.5
40
2
50
4.3525278
51
90
0
ARC
8
0
10
485.4529085
20
-62.2626966
40
2
50
315
51
4.3525278
0
ARC
8
0
10
456.611951
20
-91.1036541
40
2
50
298.2841815
51
315
0
ARC
8
0
10
413.6691755
20
-114.2106678
40
2
50
264.0815119
51
298.2841815
0
ARC
8
0
10
368.0216109
20
-113.5
40
2
50
84.0815119
51
90
0
ARC
8
0
10
90.5
20
-109.5
40
2
50
180
51
270
0
LINE
8
0
10
90.75
20
-109.25
11
109.25
21
-109.25
0
LINE
8
0
10
109.25
20
-109.25
11
109.25
21
-90.75
0
LINE
8
0
10
109.25
20
-90.75
11
90.75
21
-90.75
0
LINE
8
0
10
90.75
20
-90.75
11
90.75
21
-109.25
0
LINE
8
0
10
90.75
20
-90.25
11
109.25
21
-90.25
0
LINE
8
0
10
109.25
20
-90.25
11
109.25
21
-71.75
0
LINE
8
0
10
109.25
20
-71.75
11
90.75
21
-71.75
0
LINE
8
0
10
90.75
20
-71.75
11
90.75
21
-90.25
0
LINE
8
0
10
90.75
20
-71.25
11
109.25
21
-71.25
0
LINE
8
0
10
109.25
20
-71.25
11
109.25
21
-52.75
0
LINE
8
0
10
109.25
20
-52.75
11
90.75
21
-52.75
0
LINE
8
0
10
90.75
20
-52.75
11
90.75
21
-71.25
0
LINE
8
0
10
90.75
20
-52.25
11
109.25
21
-52.25
0
LINE
8
0
10
109.25
20
-52.25
11
109.25
21
-33.75
0
LINE
8
0
10
109.25
20
-33.75
11
90.75
21
-33.75
0
LINE
8
0
10
90.75
20
-33.75
11
90.75
21
-52.25
0
LINE
8
0
10
90.75
20
-33.25
11
109.25
21
-33.25
0
LINE
8
0
10
109.25
20
-33.25
11
109.25
21
-14.75
0
LINE
8
0
10
109.25
20
-14.75
11
90.75
21
-14.75
0
LINE
8
0
10
90.75
20
-14.75
11
90.75
21
-33.25
0
LINE
8
0
10
90.75
20
-14.25
11
109.25
21
-14.25
0
LINE
8
0
10
109.25
20
-14.25
11
109.25
21
4.25
0
LINE
8
0
10
109.25
20
4.25
11
90.75
21
4.25
0
LINE
8
0
10
90.75
20
4.25
11
90.75
21
-14.25
0
LINE
8
0
10
109.75
20
-109.25
11
128.25
21
-109.25
0
LINE
8
0
10
128.25
20
-109.25
11
128.25
21
-90.75
0
LINE
8
0
10
128.25
20
-90.75
11
109.75
21
-90.75
0
LINE
8
0
10
109.75
20
-90.75
11
109.75
21
-109.25
0
LINE
8
0
10
119.275
20
-90.25
11
137.775
21
-90.25
0
LINE
8
0
10
137.775
20
-90.25
11
137.775
21
-71.75
0
LINE
8
0
10
137.775
20
-71.75
11
119.275
21
-71.75
0
LINE
8
0
10
119.275
20
-71.75
11
119.275
21
-90.25
0
LINE
8
0
10
119.275
20
-71.25
11
137.775
21
-71.25
0
LINE
8
0
10
137.775
20
-71.25
11
137.775
21
-52.75
0
LINE
8
0
10
137.775
20
-52.75
11
119.275
21
-52.75
0
LINE
8
0
10
119.275
20
-52.75
11
119.275
21
-71.25
0
LINE
8
0
10
119.275
20
-52.25
11
137.775
21
-52.25
0
LINE
8
0
10
137.775
20
-52.25
11
137.775
21
-33.75
0
LINE
8
0
10
137.775
20
-33.75
11
119.275
21
-33.75
0
LINE
8
0
10
119.275
20
-33.75
11
119.275
21
-52.25
0
LINE
8
0
10
109.75
20
-33.25
11
128.25
21
-33.25
0
LINE
8
0
10
128.25
20
-33.25
11
128.25
21
-14.75
0
LINE
8
0
10
128.25
20
-14.75
11
109.75
21
-14.75
0
LINE
8
0
10
109.75
20
-14.75
11
109.75
21
-33.25
0
LINE
8
0
10
128.75
20
-109.25
11
147.25
21
-109.25
0
LINE
8
0
10
147.25
20
-109.25
11
147.25
21
-90.75
0
LINE
8
0
10
147.25
20
-90.75
11
128.75
21
-90.75
0
LINE
8
0
10
128.75
20
-90.75
11
128.75
21
-109.25
0
LINE
8
0
10
138.275
20
-90.25
11
156.775
21
-90.25
0
LINE
8
0
10
156.775
20
-90.25
11
156.775
21
-71.75
0
LINE
8
0
10
156.775
20
-71.75
11
138.275
21
-71.75
0
LINE
8
0
10
138.275
20
-71.75
11
138.275
21
-90.25
0
LINE
8
0
10
138.275
20
-71.25
11
156.775
21
-71.25
0
LINE
8
0
10
156.775
20
-71.25
11
156.775
21
-52.75
0
LINE
8
0
10
156.775
20
-52.75
11
138.275
21
-52.75
0
LINE
8
0
10
138.275
20
-52.75
11
138.275
21
-71.25
0
LINE
8
0
10
138.275
20
-52.25
11
156.775
21
-52.25
0
LINE
8
0
10
156.775
20
-52.25
11
156.775
21
-33.75
0
LINE
8
0
10
156.775
20
-33.75
11
138.275
21
-33.75
0
LINE
8
0
10
138.275
20
-33.75
11
138.275
21
-52.25
0
LINE
8
0
10
128.75
20
-33.25
11
147.25
21
-33.25
0
LINE
8
0
10
147.25
20
-33.25
11
147.25
21
-14.75
0
LINE
8
0
10
147.25
20
-14.75
11
128.75
21
-14.75
0
LINE
8
0
10
128.75
20
-14.75
11
128.75
21
-33.25
0
LINE
8
0
10
128.75
20
-14.25
11
147.25
21
-14.25
0
LINE
8
0
10
147.25
20
-14.25
11
147.25
21
4.25
0
LINE
8
0
10
147.25
20
4.25
11
128.75
21
4.25
0
LINE
8
0
10
128.75
20
4.25
11
128.75
21
-14.25
0
LINE
8
0
10
147.75
20
-109.25
11
166.25
21
-109.25
0
LINE
8
0
10
166.25
20
-109.25
11
166.25
21
-90.75
0
LINE
8
0
10
166.25
20
-90.75
11
147.75
21
-90.75
0
LINE
8
0
10
147.75
20
-90.75
11
147.75
21
-109.25
0
LINE
8
0
10
157.275
20
-90.25
11
175.775
21
-90.25
0
LINE
8
0
10
175.775
20
-90.25
11
175.775
21
-71.75
0
LINE
8
0
10
175.775
20
-71.75
11
157.275
21
-71.75
0
LINE
8
0
10
157.275
20
-71.75
11
157.275
21
-90.25
0
LINE
8
0
10
157.275
20
-71.25
11
175.775
21
-71.25
0
LINE
8
0
10
175.775
20
-71.25
11
175.775
21
-52.75
0
LINE
8
0
10
175.775
20
-52.75
11
157.275
21
-52.75
0
LINE
8
0
10
157.275
20
-52.75
11
157.275
21
-71.25
0
LINE
8
0
10
157.275
20
-52.25
11
175.775
21
-52.25
0
LINE
8
0
10
175.775
20
-52.25
11
175.775
21
-33.75
0
LINE
8
0
10
175.775
20
-33.75
11
157.275
21
-33.75
0
LINE
8
0
10
157.275
20
-33.75
11
157.275
21
-52.25
0
LINE
8
0
10
147.75
20
-33.25
11
166.25
21
-33.25
0
LINE
8
0
10
166.25
20
-33.25
11
166.25
21
-14.75
0
LINE
8
0
10
166.25
20
-14.75
11
147.75
21
-14.75
0
LINE
8
0
10
147.75
20
-14.75
11
147.75
21
-33.25
0
LINE
8
0
10
147.75
20
-14.25
11
166.25
21
-14.25
0
LINE
8
0
10
166.25
20
-14.25
11
166.25
21
4.25
0
LINE
8
0
10
166.25
20
4.25
11
147.75
21
4.25
0
LINE
8
0
10
147.75
20
4.25
11
147.75
21
-14.25
0
LINE
8
0
10
185.8
20
-109.25
11
204.3
21
-109.25
0
LINE
8
0
10
204.3
20
-109.25
11
204.3
21
-90.75
0
LINE
8
0
10
204.3
20
-90.75
11
185.8
21
-90.75
0
LINE
8
0
10
185.8
20
-90.75
11
185.8
21
-109.25
0
LINE
8
0
10
176.275
20
-90.25
11
194.775
21
-90.25
0
LINE
8
0
10
194.775
20
-90.25
11
194.775
21
-71.75
0
LINE
8
0
10
194.775
20
-71.75
11
176.275
21
-71.75
0
LINE
8
0
10
176.275
20
-71.75
11
176.275
21
-90.25
0
LINE
8
0
10
176.275
20
-71.25
11
194.775
21
-71.25
0
LINE
8
0
10
194.775
20
-71.25
11
194.775
21
-52.75
0
LINE
8
0
10
194.775
20
-52.75
11
176.275
21
-52.75
0
LINE
8
0
10
176.275
20
-52.75
11
176.275
21
-71.25
0
LINE
8
0
10
176.275
20
-52.25
11
194.775
21
-52.25
0
LINE
8
0
10
194.775
20
-52.25
11
194.775
21
-33.75
0
LINE
8
0
10
194.775
20
-33.75
11
176.275
21
-33.75
0
LINE
8
0
10
176.275
20
-33.75
11
176.275
21
-52.25
0
LINE
8
0
10
166.75
20
-33.25
11
185.25
21
-33.25
0
LINE
8
0
10
185.25
20
-33.25
11
185.25
21
-14.75
0
LINE
8
0
10
185.25
20
-14.75
11
166.75
21
-14.75
0
LINE
8
0
10
166.75
20
-14.75
11
166.75
21
-33.25
0
LINE
8
0
10
166.75
20
-14.25
11
185.25
21
-14.25
0
LINE
8
0
10
185.25
20
-14.25
11
185.25
21
4.25
0
LINE
8
0
10
185.25
20
4.25
11
166.75
21
4.25
0
LINE
8
0
10
166.75
20
4.25
11
166.75
21
-14.25
0
LINE
8
0
10
195.275
20
-90.25
11
213.775
21
-90.25
0
LINE
8
0
10
213.775
20
-90.25
11
213.775
21
-71.75
0
LINE
8
0
10
213.775
20
-71.75
11
195.275
21
-71.75
0
LINE
8
0
10
195.275
20
-71.75
11
195.275
21
-90.25
0
LINE
8
0
10
195.275
20
-71.25
11
213.775
21
-71.25
0
LINE
8
0
10
213.775
20
-71.25
11
213.775
21
-52.75
0
LINE
8
0
10
213.775
20
-52.75
11
195.275
21
-52.75
0
LINE
8
0
10
195.275
20
-52.75
11
195.275
21
-71.25
0
LINE
8
0
10
195.275
20
-52.25
11
213.775
21
-52.25
0
LINE
8
0
10
213.775
20
-52.25
11
213.775
21
-33.75
0
LINE
8
0
10
213.775
20
-33.75
11
195.275
21
-33.75
0
LINE
8
0
10
195.275
20
-33.75
11
195.275
21
-52.25
0
LINE
8
0
10
185.75
20
-33.25
11
204.25
21
-33.25
0
LINE
8
0
10
204.25
20
-33.25
11
204.25
21
-14.75
0
LINE
8
0
10
204.25
20
-14.75
11
185.75
21
-14.75
0
LINE
8
0
10
185.75
20
-14.75
11
185.75
21
-33.25
0
LINE
8
0
10
185.75
20
-14.25
11
204.25
21
-14.25
0
LINE
8
0
10
204.25
20
-14.25
11
204.25
21
4.25
0
LINE
8
0
10
204.25
20
4.25
11
185.75
21
4.25
0
LINE
8
0
10
185.75
20
4.25
11
185.75
21
-14.25
0
LINE
8
0
10
252.425
20
-109.25
11
270.925
21
-109.25
0
LINE
8
0
10
270.925
20
-109.25
11
270.925
21
-90.75
0
LINE
8
0
10
270.925
20
-90.75
11
252.425
21
-90.75
0
LINE
8
0
10
252.425
20
-90.75
11
252.425
21
-109.25
0
LINE
8
0
10
242.9
20
-90.25
11
261.4
21
-90.25
0
LINE
8
0
10
261.4
20
-90.25
11
261.4
21
-71.75
0
LINE
8
0
10
261.4
20
-71.75
11
242.9
21
-71.75
0
LINE
8
0
10
242.9
20
-71.75
11
242.9
21
-90.25
0
LINE
8
0
10
242.9
20
-71.25
11
261.4
21
-71.25
0
LINE
8
0
10
261.4
20
-71.25
11
261.4
21
-52.75
0
LINE
8
0
10
261.4
20
-52.75
11
242.9
21
-52.75
0
LINE
8
0
10
242.9
20
-52.75
11
242.9
21
-71.25
0
LINE
8
0
10
242.9
20
-52.25
11
261.4
21
-52.25
0
LINE
8
0
10
261.4
20
-52.25
11
261.4
21
-33.75
0
LINE
8
0
10
261.4
20
-33.75
11
242.9
21
-33.75
0
LINE
8
0
10
242.9
20
-33.75
11
242.9
21
-52.25
0
LINE
8
0
10
242.9
20
-33.25
11
261.4
21
-33.25
0
LINE
8
0
10
261.4
20
-33.25
11
261.4
21
-14.75
0
LINE
8
0
10
261.4
20
-14.75
11
242.9
21
-14.75
0
LINE
8
0
10
242.9
20
-14.75
11
242.9
21
-33.25
0
LINE
8
0
10
233.375
20
-14.25
11
251.875
21
-14.25
0
LINE
8
0
10
251.875
20
-14.25
11
251.875
21
4.25
0
LINE
8
0
10
251.875
20
4.25
11
233.375
21
4.25
0
LINE
8
0
10
233.375
20
4.25
11
233.375
21
-14.25
0
LINE
8
0
10
261.9
20
-90.25
11
280.4
21
-90.25
0
LINE
8
0
10
280.4
20
-90.25
11
280.4
21
-71.75
0
LINE
8
0
10
280.4
20
-71.75
11
261.9
21
-71.75
0
LINE
8
0
10
261.9
20
-71.75
11
261.9
21
-90.25
0
LINE
8
0
10
261.9
20
-71.25
11
280.4
21
-71.25
0
LINE
8
0
10
280.4
20
-71.25
11
280.4
21
-52.75
0
LINE
8
0
10
280.4
20
-52.75
11
261.9
21
-52.75
0
LINE
8
0
10
261.9
20
-52.75
11
261.9
21
-71.25
0
LINE
8
0
10
261.9
20
-52.25
11
280.4
21
-52.25
0
LINE
8
0
10
280.4
20
-52.25
11
280.4
21
-33.75
0
LINE
8
0
10
280.4
20
-33.75
11
261.9
21
-33.75
0
LINE
8
0
10
261.9
20
-33.75
11
261.9
21
-52.25
0
LINE
8
0
10
261.9
20
-33.25
11
280.4
21
-33.25
0
LINE
8
0
10
280.4
20
-33.25
11
280.4
21
-14.75
0
LINE
8
0
10
280.4
20
-14.75
11
261.9
21
-14.75
0
LINE
8
0
10
261.9
20
-14.75
11
261.9
21
-33.25
0
LINE
8
0
10
252.375
20
-14.25
11
270.875
21
-14.25
0
LINE
8
0
10
270.875
20
-14.25
11
270.875
21
4.25
0
LINE
8
0
10
270.875
20
4.25
11
252.375
21
4.25
0
LINE
8
0
10
252.375
20
4.25
11
252.375
21
-14.25
0
LINE
8
0
10
280.9
20
-90.25
11
299.4
21
-90.25
0
LINE
8
0
10
299.4
20
-90.25
11
299.4
21
-71.75
0
LINE
8
0
10
299.4
20
-71.75
11
280.9
21
-71.75
0
LINE
8
0
10
280.9
20
-71.75
11
280.9
21
-90.25
0
LINE
8
0
10
280.9
20
-71.25
11
299.4
21
-71.25
0
LINE
8
0
10
299.4
20
-71.25
11
299.4
21
-52.75
0
LINE
8
0
10
299.4
20
-52.75
11
280.9
21
-52.75
0
LINE
8
0
10
280.9
20
-52.75
11
280.9
21
-71.25
0
LINE
8
0
10
280.9
20
-52.25
11
299.4
21
-52.25
0
LINE
8
0
10
299.4
20
-52.25
11
299.4
21
-33.75
0
LINE
8
0
10
299.4
20
-33.75
11
280.9
21
-33.75
0
LINE
8
0
10
280.9
20
-33.75
11
280.9
21
-52.25
0
LINE
8
0
10
280.9
20
-33.25
11
299.4
21
-33.25
0
LINE
8
0
10
299.4
20
-33.25
11
299.4
21
-14.75
0
LINE
8
0
10
299.4
20
-14.75
11
280.9
21
-14.75
0
LINE
8
0
10
280.9
20
-14.75
11
280.9
21
-33.25
0
LINE
8
0
10
271.375
20
-14.25
11
289.875
21
-14.25
0
LINE
8
0
10
289.875
20
-14.25
11
289.875
21
4.25
0
LINE
8
0
10
289.875
20
4.25
11
271.375
21
4.25
0
LINE
8
0
10
271.375
20
4.25
11
271.375
21
-14.25
0
LINE
8
0
10
290.375
20
-109.25
11
308.875
21
-109.25
0
LINE
8
0
10
308.875
20
-109.25
11
308.875
21
-90.75
0
LINE
8
0
10
308.875
20
-90.75
11
290.375
21
-90.75
0
LINE
8
0
10
290.375
20
-90.75
11
290.375
21
-109.25
0
LINE
8
0
10
299.9
20
-90.25
11
318.4
21
-90.25
0
LINE
8
0
10
318.4
20
-90.25
11
318.4
21
-71.75
0
LINE
8
0
10
318.4
20
-71.75
11
299.9
21
-71.75
0
LINE
8
0
10
299.9
20
-71.75
11
299.9
21
-90.25
0
LINE
8
0
10
299.9
20
-71.25
11
318.4
21
-71.25
0
LINE
8
0
10
318.4
20
-71.25
11
318.4
21
-52.75
0
LINE
8
0
10
318.4
20
-52.75
11
299.9
21
-52.75
0
LINE
8
0
10
299.9
20
-52.75
11
299.9
21
-71.25
0
LINE
8
0
10
299.9
20
-52.25
11
318.4
21
-52.25
0
LINE
8
0
10
318.4
20
-52.25
11
318.4
21
-33.75
0
LINE
8
0
10
318.4
20
-33.75
11
299.9
21
-33.75
0
LINE
8
0
10
299.9
20
-33.75
11
299.9
21
-52.25
0
LINE
8
0
10
299.9
20
-33.25
11
318.4
21
-33.25
0
LINE
8
0
10
318.4
20
-33.25
11
318.4
21
-14.75
0
LINE
8
0
10
318.4
20
-14.75
11
299.9
21
-14.75
0
LINE
8
0
10
299.9
20
-14.75
11
299.9
21
-33.25
0
LINE
8
0
10
290.375
20
-14.25
11
308.875
21
-14.25
0
LINE
8
0
10
308.875
20
-14.25
11
308.875
21
4.25
0
LINE
8
0
10
308.875
20
4.25
11
290.375
21
4.25
0
LINE
8
0
10
290.375
20
4.25
11
290.375
21
-14.25
0
LINE
8
0
10
309.375
20
-109.25
11
327.875
21
-109.25
0
LINE
8
0
10
327.875
20
-109.25
11
327.875
21
-90.75
0
LINE
8
0
10
327.875
20
-90.75
11
309.375
21
-90.75
0
LINE
8
0
10
309.375
20
-90.75
11
309.375
21
-109.25
0
LINE
8
0
10
318.9
20
-90.25
11
337.4
21
-90.25
0
LINE
8
0
10
337.4
20
-90.25
11
337.4
21
-71.75
0
LINE
8
0
10
337.4
20
-71.75
11
318.9
21
-71.75
0
LINE
8
0
10
318.9
20
-71.75
11
318.9
21
-90.25
0
LINE
8
0
10
318.9
20
-71.25
11
337.4
21
-71.25
0
LINE
8
0
10
337.4
20
-71.25
11
337.4
21
-52.75
0
LINE
8
0
10
337.4
20
-52.75
11
318.9
21
-52.75
0
LINE
8
0
10
318.9
20
-52.75
11
318.9
21
-71.25
0
LINE
8
0
10
318.9
20
-52.25
11
337.4
21
-52.25
0
LINE
8
0
10
337.4
20
-52.25
11
337.4
21
-33.75
0
LINE
8
0
10
337.4
20
-33.75
11
318.9
21
-33.75
0
LINE
8
0
10
318.9
20
-33.75
11
318.9
21
-52.25
0
LINE
8
0
10
318.9
20
-33.25
11
337.4
21
-33.25
0
LINE
8
0
10
337.4
20
-33.25
11
337.4
21
-14.75
0
LINE
8
0
10
337.4
20
-14.75
11
318.9
21
-14.75
0
LINE
8
0
10
318.9
20
-14.75
11
318.9
21
-33.25
0
LINE
8
0
10
328.375
20
-109.25
11
346.875
21
-109.25
0
LINE
8
0
10
346.875
20
-109.25
11
346.875
21
-90.75
0
LINE
8
0
10
346.875
20
-90.75
11
328.375
21
-90.75
0
LINE
8
0
10
328.375
20
-90.75
11
328.375
21
-109.25
0
LINE
8
0
10
347.425
20
-90.25
11
365.925
21
-90.25
0
LINE
8
0
10
365.925
20
-90.25
11
365.925
21
-71.75
0
LINE
8
0
10
365.925
20
-71.75
11
347.425
21
-71.75
0
LINE
8
0
10
347.425
20
-71.75
11
347.425
21
-90.25
0
LINE
8
0
10
337.9
20
-71.25
11
356.4
21
-71.25
0
LINE
8
0
10
356.4
20
-71.25
11
356.4
21
-52.75
0
LINE
8
0
10
356.4
20
-52.75
11
337.9
21
-52.75
0
LINE
8
0
10
337.9
20
-52.75
11
337.9
21
-71.25
0
LINE
8
0
10
337.9
20
-52.25
11
356.4
21
-52.25
0
LINE
8
0
10
356.4
20
-52.25
11
356.4
21
-33.75
0
LINE
8
0
10
356.4
20
-33.75
11
337.9
21
-33.75
0
LINE
8
0
10
337.9
20
-33.75
11
337.9
21
-52.25
0
LINE
8
0
10
337.9
20
-33.25
11
356.4
21
-33.25
0
LINE
8
0
10
356.4
20
-33.25
11
356.4
21
-14.75
0
LINE
8
0
10
356.4
20
-14.75
11
337.9
21
-14.75
0
LINE
8
0
10
337.9
20
-14.75
11
337.9
21
-33.25
0
LINE
8
0
10
328.375
20
-14.25
11
346.875
21
-14.25
0
LINE
8
0
10
346.875
20
-14.25
11
346.875
21
4.25
0
LINE
8
0
10
346.875
20
4.25
11
328.375
21
4.25
0
LINE
8
0
10
328.375
20
4.25
11
328.375
21
-14.25
0
LINE
8
0
10
347.375
20
-109.25
11
365.875
21
-109.25
0
LINE
8
0
10
365.875
20
-109.25
11
365.875
21
-90.75
0
LINE
8
0
10
365.875
20
-90.75
11
347.375
21
-90.75
0
LINE
8
0
10
347.375
20
-90.75
11
347.375
21
-109.25
0
LINE
8
0
10
366.425
20
-71.25
11
384.925
21
-71.25
0
LINE
8
0
10
384.925
20
-71.25
11
384.925
21
-52.75
0
LINE
8
0
10
384.925
20
-52.75
11
366.425
21
-52.75
0
LINE
8
0
10
366.425
20
-52.75
11
366.425
21
-71.25
0
LINE
8
0
10
356.9
20
-52.25
11
375.4
21
-52.25
0
LINE
8
0
10
375.4
20
-52.25
11
375.4
21
-33.75
0
LINE
8
0
10
375.4
20
-33.75
11
356.9
21
-33.75
0
LINE
8
0
10
356.9
20
-33.75
11
356.9
21
-52.25
0
LINE
8
0
10
356.9
20
-33.25
11
375.4
21
-33.25
0
LINE
8
0
10
375.4
20
-33.25
11
375.4
21
-14.75
0
LINE
8
0
10
375.4
20
-14.75
11
356.9
21
-14.75
0
LINE
8
0
10
356.9
20
-14.75
11
356.9
21
-33.25
0
LINE
8
0
10
347.375
20
-14.25
11
365.875
21
-14.25
0
LINE
8
0
10
365.875
20
-14.25
11
365.875
21
4.25
0
LINE
8
0
10
365.875
20
4.25
11
347.375
21
4.25
0
LINE
8
0
10
347.375
20
4.25
11
347.375
21
-14.25
0
LINE
8
0
10
375.9
20
-52.25
11
394.4
21
-52.25
0
LINE
8
0
10
394.4
20
-52.25
11
394.4
21
-33.75
0
LINE
8
0
10
394.4
20
-33.75
11
375.9
21
-33.75
0
LINE
8
0
10
375.9
20
-33.75
11
375.9
21
-52.25
0
LINE
8
0
10
385.425
20
-33.25
11
403.925
21
-33.25
0
LINE
8
0
10
403.925
20
-33.25
11
403.925
21
-14.75
0
LINE
8
0
10
403.925
20
-14.75
11
385.425
21
-14.75
0
LINE
8
0
10
385.425
20
-14.75
11
385.425
21
-33.25
0
LINE
8
0
10
366.375
20
-14.25
11
384.875
21
-14.25
0
LINE
8
0
10
384.875
20
-14.25
11
384.875
21
4.25
0
LINE
8
0
10
384.875
20
4.25
11
366.375
21
4.25
0
LINE
8
0
10
366.375
20
4.25
11
366.375
21
-14.25
0
LINE
8
0
10
385.375
20
-14.25
11
403.875
21
-14.25
0
LINE
8
0
10
403.875
20
-14.25
11
403.875
21
4.25
0
LINE
8
0
10
403.875
20
4.25
11
385.375
21
4.25
0
LINE
8
0
10
385.375
20
4.25
11
385.375
21
-14.25
0
LINE
8
0
10
414.075
20
-113.0814755
11
427.1564755
21
-100
0
LINE
8
0
10
427.1564755
20
-100
11
414.075
21
-86.9185245
0
LINE
8
0
10
414.075
20
-86.9185245
11
400.9935245
21
-100
0
LINE
8
0
10
400.9935245
20
-100
11
414.075
21
-113.0814755
0
LINE
8
0
10
400.6399712
20
-99.6464467
11
413.7214467
21
-86.5649712
0
LINE
8
0
10
413.7214467
20
-86.5649712
11
400.6399712
21
-73.4834957
0
LINE
8
0
10
400.6399712
20
-73.4834957
11
387.5584957
21
-86.5649712
0
LINE
8
0
10
387.5584957
20
-86.5649712
11
400.6399712
21
-99.6464467
0
LINE
8
0
10
427.5100288
20
-99.6464467
11
440.5915043
21
-86.5649712
0
LINE
8
0
10
440.5915043
20
-86.5649712
11
427.5100288
21
-73.4834957
0
LINE
8
0
10
427.5100288
20
-73.4834957
11
414.4285533
21
-86.5649712
0
LINE
8
0
10
414.4285533
20
-86.5649712
11
427.5100288
21
-99.6464467
0
LINE
8
0
10
414.075
20
-86.2114179
11
427.1564755
21
-73.1299424
0
LINE
8
0
10
427.1564755
20
-73.1299424
11
414.075
21
-60.0484669
0
LINE
8
0
10
414.075
20
-60.0484669
11
400.9935245
21
-73.1299424
0
LINE
8
0
10
400.9935245
20
-73.1299424
11
414.075
21
-86.2114179
0
LINE
8
0
10
457.8183932
20
-89.5436586
11
470.8998687
21
-76.4621831
0
LINE
8
0
10
470.8998687
20
-76.4621831
11
457.8183932
21
-63.3807076
0
LINE
8
0
10
457.8183932
20
-63.3807076
11
444.7369177
21
-76.4621831
0
LINE
8
0
10
444.7369177
20
-76.4621831
11
457.8183932
21
-89.5436586
0
LINE
8
0
10
444.3833644
20
-76.1086298
11
457.4648399
21
-63.0271543
0
LINE
8
0
10
457.4648399
20
-63.0271543
11
444.3833644
21
-49.9456788
0
LINE
8
0
10
444.3833644
20
-49.9456788
11
431.3018889
21
-63.0271543
0
LINE
8
0
10
431.3018889
20
-63.0271543
11
444.3833644
21
-76.1086298
0
LINE
8
0
10
471.253422
20
-76.1086298
11
484.3348975
21
-63.0271543
0
LINE
8
0
10
484.3348975
20
-63.0271543
11
471.253422
21
-49.9456788
0
LINE
8
0
10
471.253422
20
-49.9456788
11
458.1719465
21
-63.0271543
0
LINE
8
0
10
458.1719465
20
-63.0271543
11
471.253422
21
-76.1086298
0
LINE
8
0
10
457.8183932
20
-62.673601
11
470.8998687
21
-49.5921255
0
LINE
8
0
10
470.8998687
20
-49.5921255
11
457.8183932
21
-36.51065
0
LINE
8
0
10
457.8183932
20
-36.51065
11
444.7369177
21
-49.5921255
0
LINE
8
0
10
444.7369177
20
-49.5921255
11
457.8183932
21
-62.673601
0
LINE
8
0
10
423.475
20
-33.25
11
441.975
21
-33.25
0
LINE
8
0
10
441.975
20
-33.25
11
441.975
21
-14.75
0
LINE
8
0
10
441.975
20
-14.75
11
423.475
21
-14.75
0
LINE
8
0
10
423.475
20
-14.75
11
423.475
21
-33.25
0
LINE
8
0
10
423.475
20
-14.25
11
441.975
21
-14.25
0
LINE
8
0
10
441.975
20
-14.25
11
441.975
21
4.25
0
LINE
8
0
10
441.975
20
4.25
11
423.475
21
4.25
0
LINE
8
0
10
423.475
20
4.25
11
423.475
21
-14.25
0
LINE
8
0
10
442.475
20
-33.25
11
460.975
21
-33.25
0
LINE
8
0
10
460.975
20
-33.25
11
460.975
21
-14.75
0
LINE
8
0
10
460.975
20
-14.75
11
442.475
21
-14.75
0
LINE
8
0
10
442.475
20
-14.75
11
442.475
21
-33.25
0
LINE
8
0
10
442.475
20
-14.25
11
460.975
21
-14.25
0
LINE
8
0
10
460.975
20
-14.25
11
460.975
21
4.25
0
LINE
8
0
10
460.975
20
4.25
11
442.475
21
4.25
0
LINE
8
0
10
442.475
20
4.25
11
442.475
21
-14.25
0
LINE
8
0
10
461.475
20
-33.25
11
479.975
21
-33.25
0
LINE
8
0
10
479.975
20
-33.25
11
479.975
21
-14.75
0
LINE
8
0
10
479.975
20
-14.75
11
461.475
21
-14.75
0
LINE
8
0
10
461.475
20
-14.75
11
461.475
21
-33.25
0
LINE
8
0
10
461.475
20
-14.25
11
479.975
21
-14.25
0
LINE
8
0
10
479.975
20
-14.25
11
479.975
21
4.25
0
LINE
8
0
10
479.975
20
4.25
11
461.475
21
4.25
0
LINE
8
0
10
461.475
20
4.25
11
461.475
21
-14.25
0
ENDSEC
0
EOF