0
SECTION
2
HEADER
9
$INSUNITS
70
4
0
ENDSEC
0
SECTION
2
TABLES
0
TABLE
2
LTYPE
0
LTYPE
72
65
70
64
2
CONTINUOUS
3
______
73
0
40
0
0
ENDTAB
0
TABLE
2
LAYER
0
ENDTAB
0
ENDSEC
0
SECTION
2
ENTITIES
0
LINE
8
0
10
13.36389
20
-103.7856851
11
21.1919214
21
-60.2419729
0
LINE
8
0
10
24.0075302
20
-57.7759181
11
151.1676943
21
-51.9604333
0
LINE
8
0
10
153.2171842
20
-52.6458939
11
157.6639784
21
-56.325122
0
LINE
8
0
10
159.5828948
20
-57.013708
11
178.82224
21
-56.9721262
0
LINE
8
0
10
180.8076905
20
-56.2153893
11
185.050459
21
-52.4479563
0
LINE
8
0
10
187.1532908
20
-51.6932627
11
442.5225437
21
-61.139652
0
LINE
8
0
10
445.4002304
20
-64.3990687
11
441.2346082
21
-112.0123489
0
LINE
8
0
10
440.8815217
20
-113.1841132
11
430.0228538
21
-133.1515777
0
LINE
8
0
10
429.6167906
20
-133.7257381
11
400.7710414
21
-165.7621884
0
LINE
8
0
10
399.7636107
20
-166.4946335
11
358.287182
21
-184.9936758
0
LINE
8
0
10
356.6615942
20
-185.2265682
11
311.9801593
21
-179.1605231
0
LINE
8
0
10
311.5102342
20
-179.1339861
11
32.1266084
21
-185.3137128
0
LINE
8
0
10
29.6080298
20
-184.0426046
11
18.1850133
21
-167.8334683
0
LINE
8
0
10
17.6445586
20
-166.3145796
11
13.323864
21
-104.5257674
0
ARC
8
0
10
24.1445876
20
-60.7727857
40
3
50
92.6185148
51
169.8085661
0
ARC
8
0
10
151.3047517
20
-54.9573009
40
3
50
50.3960219
51
92.6185148
0
ARC
8
0
10
159.5764109
20
-54.013715
40
3
50
230.3960219
51
270.1238335
0
ARC
8
0
10
178.8157561
20
-53.9721332
40
3
50
270.1238335
51
311.6039764
0
ARC
8
0
10
187.0423934
20
-54.6912123
40
3
50
87.881533
51
131.6039764
0
ARC
8
0
10
442.4116463
20
-64.1376016
40
3
50
355.0000024
51
87.881533
0
ARC
8
0
10
438.2460241
20
-111.7508818
40
3
50
331.4618503
51
355.0000024
0
ARC
8
0
10
427.3873562
20
-131.7183462
40
3
50
317.9999993
51
331.4618503
0
ARC
8
0
10
398.5416069
20
-163.7547965
40
3
50
294.037508
51
317.9999993
0
ARC
8
0
10
357.0651782
20
-182.2538388
40
3
50
262.2686727
51
294.037508
0
ARC
8
0
10
311.5765753
20
-182.1332525
40
3
50
82.2686727
51
91.2671249
0
ARC
8
0
10
32.0602673
20
-182.3144464
40
3
50
215.1733886
51
271.2671249
0
ARC
8
0
10
20.6372508
20
-166.1053101
40
3
50
184.0000013
51
215.1733886
0
ARC
8
0
10
16.3165562
20
-104.3164979
40
3
50
169.8085661
51
184.0000013
0
LINE
8
0
10
33.5440965
20
-181.880265
11
52.0489097
21
-180.5862824
0
LINE
8
0
10
52.0489097
20
-180.5862824
11
50.7549271
21
-162.0814692
0
LINE
8
0
10
50.7549271
20
-162.0814692
11
32.2501139
21
-163.3754518
0
LINE
8
0
10
32.2501139
20
-163.3754518
11
33.5440965
21
-181.880265
0
LINE
8
0
10
26.9655548
20
-163.2437633
11
45.470368
21
-161.9497807
0
LINE
8
0
10
45.470368
20
-161.9497807
11
44.1763854
21
-143.4449675
0
LINE
8
0
10
44.1763854
20
-143.4449675
11
25.6715722
21
-144.7389501
0
LINE
8
0
10
25.6715722
20
-144.7389501
11
26.9655548
21
-163.2437633
0
LINE
8
0
10
25.636694
20
-144.2401681
11
44.1415072
21
-142.9461855
0
LINE
8
0
10
44.1415072
20
-142.9461855
11
42.8475246
21
-124.4413723
0
LINE
8
0
10
42.8475246
20
-124.4413723
11
24.3427114
21
-125.7353549
0
LINE
8
0
10
24.3427114
20
-125.7353549
11
25.636694
21
-144.2401681
0
LINE
8
0
10
24.3078331
20
-125.236573
11
42.8126463
21
-123.9425904
0
LINE
8
0
10
42.8126463
20
-123.9425904
11
41.5186637
21
-105.4377772
0
LINE
8
0
10
41.5186637
20
-105.4377772
11
23.0138505
21
-106.7317598
0
LINE
8
0
10
23.0138505
20
-106.7317598
11
24.3078331
21
-125.236573
0
LINE
8
0
10
28.2286531
20
-105.8658844
11
46.7334663
21
-104.5719018
0
LINE
8
0
10
46.7334663
20
-104.5719018
11
45.4394837
21
-86.0670886
0
LINE
8
0
10
45.4394837
20
-86.0670886
11
26.9346705
21
-87.3610712
0
LINE
8
0
10
26.9346705
20
-87.3610712
11
28.2286531
21
-105.8658844
0
LINE
8
0
10
26.8997922
20
-86.8622892
11
45.4046054
21
-85.5683066
0
LINE
8
0
10
45.4046054
20
-85.5683066
11
44.1106228
21
-67.0634934
0
LINE
8
0
10
44.1106228
20
-67.0634934
11
25.6058096
21
-68.357476
0
LINE
8
0
10
25.6058096
20
-68.357476
11
26.8997922
21
-86.8622892
0
LINE
8
0
10
52.3762341
20
-180.3997111
11
70.9008119
21
-179.4288791
0
LINE
8
0
10
70.9008119
20
-179.4288791
11
69.9299799
21
-160.9043013
0
LINE
8
0
10
69.9299799
20
-160.9043013
11
51.4054021
21
-161.8751333
0
LINE
8
0
10
51.4054021
20
-161.8751333
11
52.3762341
21
-180.3997111
0
LINE
8
0
10
51.3792341
20
-161.3758185
11
69.9038119
21
-160.4049865
0
LINE
8
0
10
69.9038119
20
-160.4049865
11
68.9329799
21
-141.8804087
0
LINE
8
0
10
68.9329799
20
-141.8804087
11
50.4084021
21
-142.8512407
0
LINE
8
0
10
50.4084021
20
-142.8512407
11
51.3792341
21
-161.3758185
0
LINE
8
0
10
50.3822341
20
-142.3519258
11
68.9068119
21
-141.3810938
0
LINE
8
0
10
68.9068119
20
-141.3810938
11
67.9359799
21
-122.856516
0
LINE
8
0
10
67.9359799
20
-122.856516
11
49.4114021
21
-123.827348
0
LINE
8
0
10
49.4114021
20
-123.827348
11
50.3822341
21
-142.3519258
0
LINE
8
0
10
49.3852341
20
-123.3280331
11
67.9098119
21
-122.3572011
0
LINE
8
0
10
67.9098119
20
-122.3572011
11
66.9389799
21
-103.8326233
0
LINE
8
0
10
66.9389799
20
-103.8326233
11
48.4144021
21
-104.8034553
0
LINE
8
0
10
48.4144021
20
-104.8034553
11
49.3852341
21
-123.3280331
0
LINE
8
0
10
48.3882342
20
-104.3041404
11
66.912812
21
-103.3333084
0
LINE
8
0
10
66.912812
20
-103.3333084
11
65.94198
21
-84.8087306
0
LINE
8
0
10
65.94198
20
-84.8087306
11
47.4174022
21
-85.7795626
0
LINE
8
0
10
47.4174022
20
-85.7795626
11
48.3882342
21
-104.3041404
0
LINE
8
0
10
71.1266706
20
-177.2507901
11
89.6653705
21
-176.6034044
0
LINE
8
0
10
89.6653705
20
-176.6034044
11
89.0179848
21
-158.0647045
0
LINE
8
0
10
89.0179848
20
-158.0647045
11
70.4792849
21
-158.7120902
0
LINE
8
0
10
70.4792849
20
-158.7120902
11
71.1266706
21
-177.2507901
0
LINE
8
0
10
70.4618352
20
-158.2123948
11
89.0005351
21
-157.5650091
0
LINE
8
0
10
89.0005351
20
-157.5650091
11
88.3531494
21
-139.0263092
0
LINE
8
0
10
88.3531494
20
-139.0263092
11
69.8144495
21
-139.6736949
0
LINE
8
0
10
69.8144495
20
-139.6736949
11
70.4618352
21
-158.2123948
0
LINE
8
0
10
69.7969998
20
-139.1739996
11
88.3356997
21
-138.5266139
0
LINE
8
0
10
88.3356997
20
-138.5266139
11
87.688314
21
-119.987914
0
LINE
8
0
10
87.688314
20
-119.987914
11
69.1496141
21
-120.6352997
0
LINE
8
0
10
69.1496141
20
-120.6352997
11
69.7969998
21
-139.1739996
0
LINE
8
0
10
69.1321644
20
-120.1356044
11
87.6708643
21
-119.4882187
0
LINE
8
0
10
87.6708643
20
-119.4882187
11
87.0234786
21
-100.9495188
0
LINE
8
0
10
87.0234786
20
-100.9495188
11
68.4847787
21
-101.5969045
0
LINE
8
0
10
68.4847787
20
-101.5969045
11
69.1321644
21
-120.1356044
0
LINE
8
0
10
68.4673291
20
-101.0972092
11
87.006029
21
-100.4498235
0
LINE
8
0
10
87.006029
20
-100.4498235
11
86.3586433
21
-81.9111236
0
LINE
8
0
10
86.3586433
20
-81.9111236
11
67.8199434
21
-82.5585093
0
LINE
8
0
10
67.8199434
20
-82.5585093
11
68.4673291
21
-101.0972092
0
LINE
8
0
10
67.8024937
20
-82.058814
11
86.3411936
21
-81.4114283
0
LINE
8
0
10
86.3411936
20
-81.4114283
11
85.6938079
21
-62.8727284
0
LINE
8
0
10
85.6938079
20
-62.8727284
11
67.155108
21
-63.5201141
0
LINE
8
0
10
67.155108
20
-63.5201141
11
67.8024937
21
-82.058814
0
LINE
8
0
10
89.9641071
20
-175.4289793
11
108.5112818
21
-175.1052372
0
LINE
8
0
10
108.5112818
20
-175.1052372
11
108.1875397
21
-156.5580625
0
LINE
8
0
10
108.1875397
20
-156.5580625
11
89.640365
21
-156.8818046
0
LINE
8
0
10
89.640365
20
-156.8818046
11
89.9641071
21
-175.4289793
0
LINE
8
0
10
89.6316388
20
-156.3818806
11
108.1788135
21
-156.0581385
0
LINE
8
0
10
108.1788135
20
-156.0581385
11
107.8550714
21
-137.5109638
0
LINE
8
0
10
107.8550714
20
-137.5109638
11
89.3078967
21
-137.8347059
0
LINE
8
0
10
89.3078967
20
-137.8347059
11
89.6316388
21
-156.3818806
0
LINE
8
0
10
89.2991704
20
-137.334782
11
107.8463451
21
-137.0110399
0
LINE
8
0
10
107.8463451
20
-137.0110399
11
107.522603
21
-118.4638652
0
LINE
8
0
10
107.522603
20
-118.4638652
11
88.9754283
21
-118.7876073
0
LINE
8
0
10
88.9754283
20
-118.7876073
11
89.2991704
21
-137.334782
0
LINE
8
0
10
88.966702
20
-118.2876834
11
107.5138767
21
-117.9639413
0
LINE
8
0
10
107.5138767
20
-117.9639413
11
107.1901346
21
-99.4167666
0
LINE
8
0
10
107.1901346
20
-99.4167666
11
88.6429599
21
-99.7405087
0
LINE
8
0
10
88.6429599
20
-99.7405087
11
88.966702
21
-118.2876834
0
LINE
8
0
10
88.6342336
20
-99.2405848
11
107.1814083
21
-98.9168427
0
LINE
8
0
10
107.1814083
20
-98.9168427
11
106.8576662
21
-80.369668
0
LINE
8
0
10
106.8576662
20
-80.369668
11
88.3104915
21
-80.6934101
0
LINE
8
0
10
88.3104915
20
-80.6934101
11
88.6342336
21
-99.2405848
0
LINE
8
0
10
88.3017653
20
-80.1934861
11
106.84894
21
-79.869744
0
LINE
8
0
10
106.84894
20
-79.869744
11
106.5251979
21
-61.3225693
0
LINE
8
0
10
106.5251979
20
-61.3225693
11
87.9780232
21
-61.6463114
0
LINE
8
0
10
87.9780232
20
-61.6463114
11
88.3017653
21
-80.1934861
0
LINE
8
0
10
108.8653746
20
-156.8859003
11
127.4153746
21
-156.8859003
0
LINE
8
0
10
127.4153746
20
-156.8859003
11
127.4153746
21
-138.3359003
0
LINE
8
0
10
127.4153746
20
-138.3359003
11
108.8653746
21
-138.3359003
0
LINE
8
0
10
108.8653746
20
-138.3359003
11
108.8653746
21
-156.8859003
0
LINE
8
0
10
108.8653746
20
-137.8359003
11
127.4153746
21
-137.8359003
0
LINE
8
0
10
127.4153746
20
-137.8359003
11
127.4153746
21
-119.2859003
0
LINE
8
0
10
127.4153746
20
-119.2859003
11
108.8653746
21
-119.2859003
0
LINE
8
0
10
108.8653746
20
-119.2859003
11
108.8653746
21
-137.8359003
0
LINE
8
0
10
108.8653746
20
-118.7859003
11
127.4153746
21
-118.7859003
0
LINE
8
0
10
127.4153746
20
-118.7859003
11
127.4153746
21
-100.2359003
0
LINE
8
0
10
127.4153746
20
-100.2359003
11
108.8653746
21
-100.2359003
0
LINE
8
0
10
108.8653746
20
-100.2359003
11
108.8653746
21
-118.7859003
0
LINE
8
0
10
108.8653746
20
-99.7359003
11
127.4153746
21
-99.7359003
0
LINE
8
0
10
127.4153746
20
-99.7359003
11
127.4153746
21
-81.1859003
0
LINE
8
0
10
127.4153746
20
-81.1859003
11
108.8653746
21
-81.1859003
0
LINE
8
0
10
108.8653746
20
-81.1859003
11
108.8653746
21
-99.7359003
0
LINE
8
0
10
108.8653746
20
-80.6859003
11
127.4153746
21
-80.6859003
0
LINE
8
0
10
127.4153746
20
-80.6859003
11
127.4153746
21
-62.1359003
0
LINE
8
0
10
127.4153746
20
-62.1359003
11
108.8653746
21
-62.1359003
0
LINE
8
0
10
108.8653746
20
-62.1359003
11
108.8653746
21
-80.6859003
0
LINE
8
0
10
128.3548247
20
-176.0330881
11
146.9019994
21
-176.3568302
0
LINE
8
0
10
146.9019994
20
-176.3568302
11
147.2257415
21
-157.8096555
0
LINE
8
0
10
147.2257415
20
-157.8096555
11
128.6785668
21
-157.4859134
0
LINE
8
0
10
128.6785668
20
-157.4859134
11
128.3548247
21
-176.0330881
0
LINE
8
0
10
128.687293
20
-156.9859895
11
147.2344677
21
-157.3097316
0
LINE
8
0
10
147.2344677
20
-157.3097316
11
147.5582098
21
-138.7625569
0
LINE
8
0
10
147.5582098
20
-138.7625569
11
129.0110351
21
-138.4388148
0
LINE
8
0
10
129.0110351
20
-138.4388148
11
128.687293
21
-156.9859895
0
LINE
8
0
10
129.0197613
20
-137.9388909
11
147.566936
21
-138.262633
0
LINE
8
0
10
147.566936
20
-138.262633
11
147.8906781
21
-119.7154583
0
LINE
8
0
10
147.8906781
20
-119.7154583
11
129.3435034
21
-119.3917162
0
LINE
8
0
10
129.3435034
20
-119.3917162
11
129.0197613
21
-137.9388909
0
LINE
8
0
10
129.3522296
20
-118.8917923
11
147.8994043
21
-119.2155344
0
LINE
8
0
10
147.8994043
20
-119.2155344
11
148.2231464
21
-100.6683597
0
LINE
8
0
10
148.2231464
20
-100.6683597
11
129.6759717
21
-100.3446176
0
LINE
8
0
10
129.6759717
20
-100.3446176
11
129.3522296
21
-118.8917923
0
LINE
8
0
10
129.6846979
20
-99.8446937
11
148.2318726
21
-100.1684358
0
LINE
8
0
10
148.2318726
20
-100.1684358
11
148.5556147
21
-81.6212611
0
LINE
8
0
10
148.5556147
20
-81.6212611
11
130.00844
21
-81.297519
0
LINE
8
0
10
130.00844
20
-81.297519
11
129.6846979
21
-99.8446937
0
LINE
8
0
10
130.0171663
20
-80.7975951
11
148.564341
21
-81.1213372
0
LINE
8
0
10
148.564341
20
-81.1213372
11
148.8880831
21
-62.5741625
0
LINE
8
0
10
148.8880831
20
-62.5741625
11
130.3409084
21
-62.2504204
0
LINE
8
0
10
130.3409084
20
-62.2504204
11
130.0171663
21
-80.7975951
0
LINE
8
0
10
195.1139823
20
-175.864422
11
213.6385601
21
-174.89359
0
LINE
8
0
10
213.6385601
20
-174.89359
11
212.6677281
21
-156.3690122
0
LINE
8
0
10
212.6677281
20
-156.3690122
11
194.1431503
21
-157.3398442
0
LINE
8
0
10
194.1431503
20
-157.3398442
11
195.1139823
21
-175.864422
0
LINE
8
0
10
194.7161601
20
-156.8091278
11
213.2407379
21
-155.8382958
0
LINE
8
0
10
213.2407379
20
-155.8382958
11
212.2699059
21
-137.313718
0
LINE
8
0
10
212.2699059
20
-137.313718
11
193.7453281
21
-138.28455
0
LINE
8
0
10
193.7453281
20
-138.28455
11
194.7161601
21
-156.8091278
0
LINE
8
0
10
193.7191601
20
-137.7852351
11
212.2437379
21
-136.8144031
0
LINE
8
0
10
212.2437379
20
-136.8144031
11
211.2729059
21
-118.2898253
0
LINE
8
0
10
211.2729059
20
-118.2898253
11
192.7483281
21
-119.2606573
0
LINE
8
0
10
192.7483281
20
-119.2606573
11
193.7191601
21
-137.7852351
0
LINE
8
0
10
192.7221601
20
-118.7613424
11
211.2467379
21
-117.7905104
0
LINE
8
0
10
211.2467379
20
-117.7905104
11
210.2759059
21
-99.2659326
0
LINE
8
0
10
210.2759059
20
-99.2659326
11
191.7513281
21
-100.2367646
0
LINE
8
0
10
191.7513281
20
-100.2367646
11
192.7221601
21
-118.7613424
0
LINE
8
0
10
191.7251601
20
-99.7374497
11
210.2497379
21
-98.7666177
0
LINE
8
0
10
210.2497379
20
-98.7666177
11
209.2789059
21
-80.2420399
0
LINE
8
0
10
209.2789059
20
-80.2420399
11
190.7543281
21
-81.2128719
0
LINE
8
0
10
190.7543281
20
-81.2128719
11
191.7251601
21
-99.7374497
0
LINE
8
0
10
190.7281601
20
-80.7135571
11
209.2527379
21
-79.7427251
0
LINE
8
0
10
209.2527379
20
-79.7427251
11
208.2819059
21
-61.2181473
0
LINE
8
0
10
208.2819059
20
-61.2181473
11
189.7573281
21
-62.1889793
0
LINE
8
0
10
189.7573281
20
-62.1889793
11
190.7281601
21
-80.7135571
0
LINE
8
0
10
213.8903491
20
-155.3933058
11
232.429049
21
-154.7459201
0
LINE
8
0
10
232.429049
20
-154.7459201
11
231.7816633
21
-136.2072202
0
LINE
8
0
10
231.7816633
20
-136.2072202
11
213.2429634
21
-136.8546059
0
LINE
8
0
10
213.2429634
20
-136.8546059
11
213.8903491
21
-155.3933058
0
LINE
8
0
10
213.2255137
20
-136.3549106
11
231.7642136
21
-135.7075249
0
LINE
8
0
10
231.7642136
20
-135.7075249
11
231.1168279
21
-117.168825
0
LINE
8
0
10
231.1168279
20
-117.168825
11
212.578128
21
-117.8162107
0
LINE
8
0
10
212.578128
20
-117.8162107
11
213.2255137
21
-136.3549106
0
LINE
8
0
10
212.5606783
20
-117.3165153
11
231.0993782
21
-116.6691296
0
LINE
8
0
10
231.0993782
20
-116.6691296
11
230.4519925
21
-98.1304297
0
LINE
8
0
10
230.4519925
20
-98.1304297
11
211.9132926
21
-98.7778154
0
LINE
8
0
10
211.9132926
20
-98.7778154
11
212.5606783
21
-117.3165153
0
LINE
8
0
10
211.895843
20
-98.2781201
11
230.4345429
21
-97.6307344
0
LINE
8
0
10
230.4345429
20
-97.6307344
11
229.7871572
21
-79.0920345
0
LINE
8
0
10
229.7871572
20
-79.0920345
11
211.2484573
21
-79.7394202
0
LINE
8
0
10
211.2484573
20
-79.7394202
11
211.895843
21
-98.2781201
0
LINE
8
0
10
211.2310076
20
-79.2397249
11
229.7697075
21
-78.5923392
0
LINE
8
0
10
229.7697075
20
-78.5923392
11
229.1223218
21
-60.0536393
0
LINE
8
0
10
229.1223218
20
-60.0536393
11
210.5836219
21
-60.701025
0
LINE
8
0
10
210.5836219
20
-60.701025
11
211.2310076
21
-79.2397249
0
LINE
8
0
10
233.392621
20
-172.6098903
11
251.9397957
21
-172.2861482
0
LINE
8
0
10
251.9397957
20
-172.2861482
11
251.6160536
21
-153.7389735
0
LINE
8
0
10
251.6160536
20
-153.7389735
11
233.0688789
21
-154.0627156
0
LINE
8
0
10
233.0688789
20
-154.0627156
11
233.392621
21
-172.6098903
0
LINE
8
0
10
233.0601527
20
-153.5627917
11
251.6073274
21
-153.2390496
0
LINE
8
0
10
251.6073274
20
-153.2390496
11
251.2835853
21
-134.6918749
0
LINE
8
0
10
251.2835853
20
-134.6918749
11
232.7364106
21
-135.015617
0
LINE
8
0
10
232.7364106
20
-135.015617
11
233.0601527
21
-153.5627917
0
LINE
8
0
10
232.7276843
20
-134.5156931
11
251.274859
21
-134.191951
0
LINE
8
0
10
251.274859
20
-134.191951
11
250.9511169
21
-115.6447763
0
LINE
8
0
10
250.9511169
20
-115.6447763
11
232.4039422
21
-115.9685184
0
LINE
8
0
10
232.4039422
20
-115.9685184
11
232.7276843
21
-134.5156931
0
LINE
8
0
10
232.3952159
20
-115.4685944
11
250.9423906
21
-115.1448523
0
LINE
8
0
10
250.9423906
20
-115.1448523
11
250.6186485
21
-96.5976776
0
LINE
8
0
10
250.6186485
20
-96.5976776
11
232.0714738
21
-96.9214197
0
LINE
8
0
10
232.0714738
20
-96.9214197
11
232.3952159
21
-115.4685944
0
LINE
8
0
10
232.0627475
20
-96.4214958
11
250.6099222
21
-96.0977537
0
LINE
8
0
10
250.6099222
20
-96.0977537
11
250.2861801
21
-77.550579
0
LINE
8
0
10
250.2861801
20
-77.550579
11
231.7390054
21
-77.8743211
0
LINE
8
0
10
231.7390054
20
-77.8743211
11
232.0627475
21
-96.4214958
0
LINE
8
0
10
231.7302792
20
-77.3743972
11
250.2774539
21
-77.0506551
0
LINE
8
0
10
250.2774539
20
-77.0506551
11
249.9537118
21
-58.5034804
0
LINE
8
0
10
249.9537118
20
-58.5034804
11
231.4065371
21
-58.8272225
0
LINE
8
0
10
231.4065371
20
-58.8272225
11
231.7302792
21
-77.3743972
0
LINE
8
0
10
252.2938884
20
-173.1168113
11
270.8438884
21
-173.1168113
0
LINE
8
0
10
270.8438884
20
-173.1168113
11
270.8438884
21
-154.5668113
0
LINE
8
0
10
270.8438884
20
-154.5668113
11
252.2938884
21
-154.5668113
0
LINE
8
0
10
252.2938884
20
-154.5668113
11
252.2938884
21
-173.1168113
0
LINE
8
0
10
252.2938884
20
-154.0668113
11
270.8438884
21
-154.0668113
0
LINE
8
0
10
270.8438884
20
-154.0668113
11
270.8438884
21
-135.5168113
0
LINE
8
0
10
270.8438884
20
-135.5168113
11
252.2938884
21
-135.5168113
0
LINE
8
0
10
252.2938884
20
-135.5168113
11
252.2938884
21
-154.0668113
0
LINE
8
0
10
252.2938884
20
-135.0168113
11
270.8438884
21
-135.0168113
0
LINE
8
0
10
270.8438884
20
-135.0168113
11
270.8438884
21
-116.4668113
0
LINE
8
0
10
270.8438884
20
-116.4668113
11
252.2938884
21
-116.4668113
0
LINE
8
0
10
252.2938884
20
-116.4668113
11
252.2938884
21
-135.0168113
0
LINE
8
0
10
252.2938884
20
-115.9668113
11
270.8438884
21
-115.9668113
0
LINE
8
0
10
270.8438884
20
-115.9668113
11
270.8438884
21
-97.4168113
0
LINE
8
0
10
270.8438884
20
-97.4168113
11
252.2938884
21
-97.4168113
0
LINE
8
0
10
252.2938884
20
-97.4168113
11
252.2938884
21
-115.9668113
0
LINE
8
0
10
252.2938884
20
-96.9168113
11
270.8438884
21
-96.9168113
0
LINE
8
0
10
270.8438884
20
-96.9168113
11
270.8438884
21
-78.3668113
0
LINE
8
0
10
270.8438884
20
-78.3668113
11
252.2938884
21
-78.3668113
0
LINE
8
0
10
252.2938884
20
-78.3668113
11
252.2938884
21
-96.9168113
0
LINE
8
0
10
252.2938885
20
-77.8668113
11
270.8438885
21
-77.8668113
0
LINE
8
0
10
270.8438885
20
-77.8668113
11
270.8438885
21
-59.3168113
0
LINE
8
0
10
270.8438885
20
-59.3168113
11
252.2938885
21
-59.3168113
0
LINE
8
0
10
252.2938885
20
-59.3168113
11
252.2938885
21
-77.8668113
0
LINE
8
0
10
271.1834299
20
-174.9535277
11
289.7306046
21
-175.2772698
0
LINE
8
0
10
289.7306046
20
-175.2772698
11
290.0543467
21
-156.7300951
0
LINE
8
0
10
290.0543467
20
-156.7300951
11
271.507172
21
-156.406353
0
LINE
8
0
10
271.507172
20
-156.406353
11
271.1834299
21
-174.9535277
0
LINE
8
0
10
271.5158983
20
-155.9064291
11
290.063073
21
-156.2301712
0
LINE
8
0
10
290.063073
20
-156.2301712
11
290.3868151
21
-137.6829965
0
LINE
8
0
10
290.3868151
20
-137.6829965
11
271.8396404
21
-137.3592544
0
LINE
8
0
10
271.8396404
20
-137.3592544
11
271.5158983
21
-155.9064291
0
LINE
8
0
10
271.8483666
20
-136.8593306
11
290.3955413
21
-137.1830727
0
LINE
8
0
10
290.3955413
20
-137.1830727
11
290.7192834
21
-118.635898
0
LINE
8
0
10
290.7192834
20
-118.635898
11
272.1721087
21
-118.3121559
0
LINE
8
0
10
272.1721087
20
-118.3121559
11
271.8483666
21
-136.8593306
0
LINE
8
0
10
272.1808349
20
-117.812232
11
290.7280096
21
-118.1359741
0
LINE
8
0
10
290.7280096
20
-118.1359741
11
291.0517517
21
-99.5887994
0
LINE
8
0
10
291.0517517
20
-99.5887994
11
272.504577
21
-99.2650573
0
LINE
8
0
10
272.504577
20
-99.2650573
11
272.1808349
21
-117.812232
0
LINE
8
0
10
272.5133032
20
-98.7651334
11
291.0604779
21
-99.0888755
0
LINE
8
0
10
291.0604779
20
-99.0888755
11
291.38422
21
-80.5417008
0
LINE
8
0
10
291.38422
20
-80.5417008
11
272.8370453
21
-80.2179587
0
LINE
8
0
10
272.8370453
20
-80.2179587
11
272.5133032
21
-98.7651334
0
LINE
8
0
10
290.0729441
20
-175.1199366
11
308.611644
21
-175.7673223
0
LINE
8
0
10
308.611644
20
-175.7673223
11
309.2590297
21
-157.2286224
0
LINE
8
0
10
309.2590297
20
-157.2286224
11
290.7203298
21
-156.5812367
0
LINE
8
0
10
290.7203298
20
-156.5812367
11
290.0729441
21
-175.1199366
0
LINE
8
0
10
296.0970128
20
-156.26869
11
314.6357127
21
-156.9160757
0
LINE
8
0
10
314.6357127
20
-156.9160757
11
315.2830984
21
-138.3773758
0
LINE
8
0
10
315.2830984
20
-138.3773758
11
296.7443985
21
-137.7299901
0
LINE
8
0
10
296.7443985
20
-137.7299901
11
296.0970128
21
-156.26869
0
LINE
8
0
10
291.4026149
20
-137.0431461
11
309.9413148
21
-137.6905318
0
LINE
8
0
10
309.9413148
20
-137.6905318
11
310.5887005
21
-119.1518319
0
LINE
8
0
10
310.5887005
20
-119.1518319
11
292.0500006
21
-118.5044462
0
LINE
8
0
10
292.0500006
20
-118.5044462
11
291.4026149
21
-137.0431461
0
LINE
8
0
10
292.0674504
20
-118.0047508
11
310.6061503
21
-118.6521365
0
LINE
8
0
10
310.6061503
20
-118.6521365
11
311.253536
21
-100.1134366
0
LINE
8
0
10
311.253536
20
-100.1134366
11
292.7148361
21
-99.4660509
0
LINE
8
0
10
292.7148361
20
-99.4660509
11
292.0674504
21
-118.0047508
0
LINE
8
0
10
292.7322858
20
-98.9663556
11
311.2709857
21
-99.6137413
0
LINE
8
0
10
311.2709857
20
-99.6137413
11
311.9183714
21
-81.0750414
0
LINE
8
0
10
311.9183714
20
-81.0750414
11
293.3796715
21
-80.4276557
0
LINE
8
0
10
293.3796715
20
-80.4276557
11
292.7322858
21
-98.9663556
0
LINE
8
0
10
293.3971212
20
-79.9279603
11
311.9358211
21
-80.575346
0
LINE
8
0
10
311.9358211
20
-80.575346
11
312.5832068
21
-62.0366461
0
LINE
8
0
10
312.5832068
20
-62.0366461
11
294.0445069
21
-61.3892604
0
LINE
8
0
10
294.0445069
20
-61.3892604
11
293.3971212
21
-79.9279603
0
LINE
8
0
10
316.3058281
20
-137.8488544
11
334.8304059
21
-138.8196864
0
LINE
8
0
10
334.8304059
20
-138.8196864
11
335.8012379
21
-120.2951086
0
LINE
8
0
10
335.8012379
20
-120.2951086
11
317.2766601
21
-119.3242766
0
LINE
8
0
10
317.2766601
20
-119.3242766
11
316.3058281
21
-137.8488544
0
LINE
8
0
10
311.9476773
20
-118.5443102
11
330.4722551
21
-119.5151422
0
LINE
8
0
10
330.4722551
20
-119.5151422
11
331.4430871
21
-100.9905644
0
LINE
8
0
10
331.4430871
20
-100.9905644
11
312.9185093
21
-100.0197324
0
LINE
8
0
10
312.9185093
20
-100.0197324
11
311.9476773
21
-118.5443102
0
LINE
8
0
10
312.9446773
20
-99.5204175
11
331.4692551
21
-100.4912495
0
LINE
8
0
10
331.4692551
20
-100.4912495
11
332.4400871
21
-81.9666717
0
LINE
8
0
10
332.4400871
20
-81.9666717
11
313.9155093
21
-80.9958397
0
LINE
8
0
10
313.9155093
20
-80.9958397
11
312.9446773
21
-99.5204175
0
LINE
8
0
10
313.9416773
20
-80.4965249
11
332.4662551
21
-81.4673569
0
LINE
8
0
10
332.4662551
20
-81.4673569
11
333.4370871
21
-62.9427791
0
LINE
8
0
10
333.4370871
20
-62.9427791
11
314.9125093
21
-61.9719471
0
LINE
8
0
10
314.9125093
20
-61.9719471
11
313.9416773
21
-80.4965249
0
LINE
8
0
10
331.8154594
20
-119.4307448
11
350.3202726
21
-120.7247274
0
LINE
8
0
10
350.3202726
20
-120.7247274
11
351.6142552
21
-102.2199142
0
LINE
8
0
10
351.6142552
20
-102.2199142
11
333.109442
21
-100.9259316
0
LINE
8
0
10
333.109442
20
-100.9259316
11
331.8154594
21
-119.4307448
0
LINE
8
0
10
338.4937575
20
-100.8012187
11
356.9985707
21
-102.0952013
0
LINE
8
0
10
356.9985707
20
-102.0952013
11
358.2925533
21
-83.5903881
0
LINE
8
0
10
358.2925533
20
-83.5903881
11
339.7877401
21
-82.2964055
0
LINE
8
0
10
339.7877401
20
-82.2964055
11
338.4937575
21
-100.8012187
0
LINE
8
0
10
334.4731811
20
-81.4235545
11
352.9779943
21
-82.7175371
0
LINE
8
0
10
352.9779943
20
-82.7175371
11
354.2719769
21
-64.2127239
0
LINE
8
0
10
354.2719769
20
-64.2127239
11
335.7671637
21
-62.9187413
0
LINE
8
0
10
335.7671637
20
-62.9187413
11
334.4731811
21
-81.4235545
0
LINE
8
0
10
354.9853793
20
-82.7087672
11
373.4647909
21
-84.3255062
0
LINE
8
0
10
373.4647909
20
-84.3255062
11
375.0815299
21
-65.8460946
0
LINE
8
0
10
375.0815299
20
-65.8460946
11
356.6021183
21
-64.2293556
0
LINE
8
0
10
356.6021183
20
-64.2293556
11
354.9853793
21
-82.7087672
0
LINE
8
0
10
357.2669782
20
-180.7515183
11
369.6793509
21
-166.9661818
0
LINE
8
0
10
369.6793509
20
-166.9661818
11
355.8940144
21
-154.5538091
0
LINE
8
0
10
355.8940144
20
-154.5538091
11
343.4816417
21
-168.3391456
0
LINE
8
0
10
343.4816417
20
-168.3391456
11
357.2669782
21
-180.7515183
0
LINE
8
0
10
343.1100692
20
-168.0045803
11
355.5224419
21
-154.2192438
0
LINE
8
0
10
355.5224419
20
-154.2192438
11
341.7371054
21
-141.8068711
0
LINE
8
0
10
341.7371054
20
-141.8068711
11
329.3247327
21
-155.5922076
0
LINE
8
0
10
329.3247327
20
-155.5922076
11
343.1100692
21
-168.0045803
0
LINE
8
0
10
370.0139162
20
-166.5946093
11
382.4262889
21
-152.8092728
0
LINE
8
0
10
382.4262889
20
-152.8092728
11
368.6409524
21
-140.3969001
0
LINE
8
0
10
368.6409524
20
-140.3969001
11
356.2285797
21
-154.1822366
0
LINE
8
0
10
356.2285797
20
-154.1822366
11
370.0139162
21
-166.5946093
0
LINE
8
0
10
355.8570072
20
-153.8476713
11
368.2693799
21
-140.0623348
0
LINE
8
0
10
368.2693799
20
-140.0623348
11
354.4840434
21
-127.6499621
0
LINE
8
0
10
354.4840434
20
-127.6499621
11
342.0716707
21
-141.4352986
0
LINE
8
0
10
342.0716707
20
-141.4352986
11
355.8570072
21
-153.8476713
0
LINE
8
0
10
400.1044977
20
-161.6454113
11
412.5168704
21
-147.8600748
0
LINE
8
0
10
412.5168704
20
-147.8600748
11
398.7315339
21
-135.4477021
0
LINE
8
0
10
398.7315339
20
-135.4477021
11
386.3191612
21
-149.2330386
0
LINE
8
0
10
386.3191612
20
-149.2330386
11
400.1044977
21
-161.6454113
0
LINE
8
0
10
385.9475888
20
-148.8984732
11
398.3599615
21
-135.1131367
0
LINE
8
0
10
398.3599615
20
-135.1131367
11
384.574625
21
-122.700764
0
LINE
8
0
10
384.574625
20
-122.700764
11
372.1622523
21
-136.4861005
0
LINE
8
0
10
372.1622523
20
-136.4861005
11
385.9475888
21
-148.8984732
0
LINE
8
0
10
412.8514357
20
-147.4885023
11
425.2638084
21
-133.7031658
0
LINE
8
0
10
425.2638084
20
-133.7031658
11
411.4784719
21
-121.2907931
0
LINE
8
0
10
411.4784719
20
-121.2907931
11
399.0660992
21
-135.0761296
0
LINE
8
0
10
399.0660992
20
-135.0761296
11
412.8514357
21
-147.4885023
0
LINE
8
0
10
398.6945268
20
-134.7415643
11
411.1068995
21
-120.9562278
0
LINE
8
0
10
411.1068995
20
-120.9562278
11
397.321563
21
-108.5438551
0
LINE
8
0
10
397.321563
20
-108.5438551
11
384.9091903
21
-122.3291916
0
LINE
8
0
10
384.9091903
20
-122.3291916
11
398.6945268
21
-134.7415643
0
LINE
8
0
10
381.7913259
20
-104.1767516
11
400.2707375
21
-105.7934906
0
LINE
8
0
10
400.2707375
20
-105.7934906
11
401.8874765
21
-87.314079
0
LINE
8
0
10
401.8874765
20
-87.314079
11
383.4080649
21
-85.69734
0
LINE
8
0
10
383.4080649
20
-85.69734
11
381.7913259
21
-104.1767516
0
LINE
8
0
10
383.4516428
20
-85.1992426
11
401.9310544
21
-86.8159816
0
LINE
8
0
10
401.9310544
20
-86.8159816
11
403.5477934
21
-68.33657
0
LINE
8
0
10
403.5477934
20
-68.33657
11
385.0683818
21
-66.719831
0
LINE
8
0
10
385.0683818
20
-66.719831
11
383.4516428
21
-85.1992426
0
LINE
8
0
10
400.7688349
20
-105.8370685
11
419.2482465
21
-107.4538075
0
LINE
8
0
10
419.2482465
20
-107.4538075
11
420.8649855
21
-88.9743959
0
LINE
8
0
10
420.8649855
20
-88.9743959
11
402.3855739
21
-87.3576569
0
LINE
8
0
10
402.3855739
20
-87.3576569
11
400.7688349
21
-105.8370685
0
LINE
8
0
10
402.4291518
20
-86.8595595
11
420.9085634
21
-88.4762985
0
LINE
8
0
10
420.9085634
20
-88.4762985
11
422.5253024
21
-69.9968869
0
LINE
8
0
10
422.5253024
20
-69.9968869
11
404.0458908
21
-68.3801479
0
LINE
8
0
10
404.0458908
20
-68.3801479
11
402.4291518
21
-86.8595595
0
LINE
8
0
10
419.7463439
20
-107.4973854
11
438.2257555
21
-109.1141244
0
LINE
8
0
10
438.2257555
20
-109.1141244
11
439.8424945
21
-90.6347128
0
LINE
8
0
10
439.8424945
20
-90.6347128
11
421.3630829
21
-89.0179738
0
LINE
8
0
10
421.3630829
20
-89.0179738
11
419.7463439
21
-107.4973854
0
LINE
8
0
10
421.4066608
20
-88.5198764
11
439.8860724
21
-90.1366154
0
LINE
8
0
10
439.8860724
20
-90.1366154
11
441.5028114
21
-71.6572038
0
LINE
8
0
10
441.5028114
20
-71.6572038
11
423.0233998
21
-70.0404648
0
LINE
8
0
10
423.0233998
20
-70.0404648
11
421.4066608
21
-88.5198764
0
ENDSEC
0
EOF