0
SECTION
2
HEADER
9
$INSUNITS
70
4
0
ENDSEC
0
SECTION
2
TABLES
0
TABLE
2
LTYPE
0
LTYPE
72
65
70
64
2
CONTINUOUS
3
______
73
0
40
0
0
ENDTAB
0
TABLE
2
LAYER
0
ENDTAB
0
ENDSEC
0
SECTION
2
ENTITIES
0
LINE
8
0
10
18.5
20
-209.5
11
18.5
21
-95.5
0
LINE
8
0
10
20.5
20
-93.5
11
400.6645392
21
-93.5
0
LINE
8
0
10
402.6642304
20
-95.5351464
11
401.5019988
21
-161.6614055
0
LINE
8
0
10
400.9165212
20
-163.0404727
11
371.995689
21
-191.9613049
0
LINE
8
0
10
371.5325743
20
-192.3064692
11
331.2490776
21
-214.0832546
0
LINE
8
0
10
330.1626251
20
-214.3192913
11
288.6675989
21
-211.5045854
0
LINE
8
0
10
288.5322453
20
-211.5
11
20.5
21
-211.5
0
ARC
8
0
10
20.5
20
-95.5
40
2
50
90
51
180
0
ARC
8
0
10
400.6645392
20
-95.5
40
2
50
358.993078
51
90
0
ARC
8
0
10
399.5023076
20
-161.6262591
40
2
50
315
51
358.993078
0
ARC
8
0
10
370.5814754
20
-190.5470913
40
2
50
298.395133
51
315
0
ARC
8
0
10
330.2979787
20
-212.3238767
40
2
50
266.1194389
51
298.395133
0
ARC
8
0
10
288.5322453
20
-213.5
40
2
50
86.1194389
51
90
0
ARC
8
0
10
20.5
20
-209.5
40
2
50
180
51
270
0
LINE
8
0
10
20.75
20
-209.25
11
39.25
21
-209.25
0
LINE
8
0
10
39.25
20
-209.25
11
39.25
21
-190.75
0
LINE
8
0
10
39.25
20
-190.75
11
20.75
21
-190.75
0
LINE
8
0
10
20.75
20
-190.75
11
20.75
21
-209.25
0
LINE
8
0
10
20.75
20
-190.25
11
39.25
21
-190.25
0
LINE
8
0
10
39.25
20
-190.25
11
39.25
21
-171.75
0
LINE
8
0
10
39.25
20
-171.75
11
20.75
21
-171.75
0
LINE
8
0
10
20.75
20
-171.75
11
20.75
21
-190.25
0
LINE
8
0
10
20.75
20
-171.25
11
39.25
21
-171.25
0
LINE
8
0
10
39.25
20
-171.25
11
39.25
21
-152.75
0
LINE
8
0
10
39.25
20
-152.75
11
20.75
21
-152.75
0
LINE
8
0
10
20.75
20
-152.75
11
20.75
21
-171.25
0
LINE
8
0
10
20.75
20
-152.25
11
39.25
21
-152.25
0
LINE
8
0
10
39.25
20
-152.25
11
39.25
21
-133.75
0
LINE
8
0
10
39.25
20
-133.75
11
20.75
21
-133.75
0
LINE
8
0
10
20.75
20
-133.75
11
20.75
21
-152.25
0
LINE
8
0
10
20.75
20
-133.25
11
39.25
21
-133.25
0
LINE
8
0
10
39.25
20
-133.25
11
39.25
21
-114.75
0
LINE
8
0
10
39.25
20
-114.75
11
20.75
21
-114.75
0
LINE
8
0
10
20.75
20
-114.75
11
20.75
21
-133.25
0
LINE
8
0
10
20.75
20
-114.25
11
39.25
21
-114.25
0
LINE
8
0
10
39.25
20
-114.25
11
39.25
21
-95.75
0
LINE
8
0
10
39.25
20
-95.75
11
20.75
21
-95.75
0
LINE
8
0
10
20.75
20
-95.75
11
20.75
21
-114.25
0
LINE
8
0
10
39.75
20
-209.25
11
58.25
21
-209.25
0
LINE
8
0
10
58.25
20
-209.25
11
58.25
21
-190.75
0
LINE
8
0
10
58.25
20
-190.75
11
39.75
21
-190.75
0
LINE
8
0
10
39.75
20
-190.75
11
39.75
21
-209.25
0
LINE
8
0
10
49.275
20
-190.25
11
67.775
21
-190.25
0
LINE
8
0
10
67.775
20
-190.25
11
67.775
21
-171.75
0
LINE
8
0
10
67.775
20
-171.75
11
49.275
21
-171.75
0
LINE
8
0
10
49.275
20
-171.75
11
49.275
21
-190.25
0
LINE
8
0
10
49.275
20
-171.25
11
67.775
21
-171.25
0
LINE
8
0
10
67.775
20
-171.25
11
67.775
21
-152.75
0
LINE
8
0
10
67.775
20
-152.75
11
49.275
21
-152.75
0
LINE
8
0
10
49.275
20
-152.75
11
49.275
21
-171.25
0
LINE
8
0
10
49.275
20
-152.25
11
67.775
21
-152.25
0
LINE
8
0
10
67.775
20
-152.25
11
67.775
21
-133.75
0
LINE
8
0
10
67.775
20
-133.75
11
49.275
21
-133.75
0
LINE
8
0
10
49.275
20
-133.75
11
49.275
21
-152.25
0
LINE
8
0
10
39.75
20
-133.25
11
58.25
21
-133.25
0
LINE
8
0
10
58.25
20
-133.25
11
58.25
21
-114.75
0
LINE
8
0
10
58.25
20
-114.75
11
39.75
21
-114.75
0
LINE
8
0
10
39.75
20
-114.75
11
39.75
21
-133.25
0
LINE
8
0
10
58.75
20
-209.25
11
77.25
21
-209.25
0
LINE
8
0
10
77.25
20
-209.25
11
77.25
21
-190.75
0
LINE
8
0
10
77.25
20
-190.75
11
58.75
21
-190.75
0
LINE
8
0
10
58.75
20
-190.75
11
58.75
21
-209.25
0
LINE
8
0
10
68.275
20
-190.25
11
86.775
21
-190.25
0
LINE
8
0
10
86.775
20
-190.25
11
86.775
21
-171.75
0
LINE
8
0
10
86.775
20
-171.75
11
68.275
21
-171.75
0
LINE
8
0
10
68.275
20
-171.75
11
68.275
21
-190.25
0
LINE
8
0
10
68.275
20
-171.25
11
86.775
21
-171.25
0
LINE
8
0
10
86.775
20
-171.25
11
86.775
21
-152.75
0
LINE
8
0
10
86.775
20
-152.75
11
68.275
21
-152.75
0
LINE
8
0
10
68.275
20
-152.75
11
68.275
21
-171.25
0
LINE
8
0
10
68.275
20
-152.25
11
86.775
21
-152.25
0
LINE
8
0
10
86.775
20
-152.25
11
86.775
21
-133.75
0
LINE
8
0
10
86.775
20
-133.75
11
68.275
21
-133.75
0
LINE
8
0
10
68.275
20
-133.75
11
68.275
21
-152.25
0
LINE
8
0
10
58.75
20
-133.25
11
77.25
21
-133.25
0
LINE
8
0
10
77.25
20
-133.25
11
77.25
21
-114.75
0
LINE
8
0
10
77.25
20
-114.75
11
58.75
21
-114.75
0
LINE
8
0
10
58.75
20
-114.75
11
58.75
21
-133.25
0
LINE
8
0
10
58.75
20
-114.25
11
77.25
21
-114.25
0
LINE
8
0
10
77.25
20
-114.25
11
77.25
21
-95.75
0
LINE
8
0
10
77.25
20
-95.75
11
58.75
21
-95.75
0
LINE
8
0
10
58.75
20
-95.75
11
58.75
21
-114.25
0
LINE
8
0
10
77.75
20
-209.25
11
96.25
21
-209.25
0
LINE
8
0
10
96.25
20
-209.25
11
96.25
21
-190.75
0
LINE
8
0
10
96.25
20
-190.75
11
77.75
21
-190.75
0
LINE
8
0
10
77.75
20
-190.75
11
77.75
21
-209.25
0
LINE
8
0
10
87.275
20
-190.25
11
105.775
21
-190.25
0
LINE
8
0
10
105.775
20
-190.25
11
105.775
21
-171.75
0
LINE
8
0
10
105.775
20
-171.75
11
87.275
21
-171.75
0
LINE
8
0
10
87.275
20
-171.75
11
87.275
21
-190.25
0
LINE
8
0
10
87.275
20
-171.25
11
105.775
21
-171.25
0
LINE
8
0
10
105.775
20
-171.25
11
105.775
21
-152.75
0
LINE
8
0
10
105.775
20
-152.75
11
87.275
21
-152.75
0
LINE
8
0
10
87.275
20
-152.75
11
87.275
21
-171.25
0
LINE
8
0
10
87.275
20
-152.25
11
105.775
21
-152.25
0
LINE
8
0
10
105.775
20
-152.25
11
105.775
21
-133.75
0
LINE
8
0
10
105.775
20
-133.75
11
87.275
21
-133.75
0
LINE
8
0
10
87.275
20
-133.75
11
87.275
21
-152.25
0
LINE
8
0
10
77.75
20
-133.25
11
96.25
21
-133.25
0
LINE
8
0
10
96.25
20
-133.25
11
96.25
21
-114.75
0
LINE
8
0
10
96.25
20
-114.75
11
77.75
21
-114.75
0
LINE
8
0
10
77.75
20
-114.75
11
77.75
21
-133.25
0
LINE
8
0
10
77.75
20
-114.25
11
96.25
21
-114.25
0
LINE
8
0
10
96.25
20
-114.25
11
96.25
21
-95.75
0
LINE
8
0
10
96.25
20
-95.75
11
77.75
21
-95.75
0
LINE
8
0
10
77.75
20
-95.75
11
77.75
21
-114.25
0
LINE
8
0
10
115.8
20
-209.25
11
134.3
21
-209.25
0
LINE
8
0
10
134.3
20
-209.25
11
134.3
21
-190.75
0
LINE
8
0
10
134.3
20
-190.75
11
115.8
21
-190.75
0
LINE
8
0
10
115.8
20
-190.75
11
115.8
21
-209.25
0
LINE
8
0
10
106.275
20
-190.25
11
124.775
21
-190.25
0
LINE
8
0
10
124.775
20
-190.25
11
124.775
21
-171.75
0
LINE
8
0
10
124.775
20
-171.75
11
106.275
21
-171.75
0
LINE
8
0
10
106.275
20
-171.75
11
106.275
21
-190.25
0
LINE
8
0
10
106.275
20
-171.25
11
124.775
21
-171.25
0
LINE
8
0
10
124.775
20
-171.25
11
124.775
21
-152.75
0
LINE
8
0
10
124.775
20
-152.75
11
106.275
21
-152.75
0
LINE
8
0
10
106.275
20
-152.75
11
106.275
21
-171.25
0
LINE
8
0
10
106.275
20
-152.25
11
124.775
21
-152.25
0
LINE
8
0
10
124.775
20
-152.25
11
124.775
21
-133.75
0
LINE
8
0
10
124.775
20
-133.75
11
106.275
21
-133.75
0
LINE
8
0
10
106.275
20
-133.75
11
106.275
21
-152.25
0
LINE
8
0
10
96.75
20
-133.25
11
115.25
21
-133.25
0
LINE
8
0
10
115.25
20
-133.25
11
115.25
21
-114.75
0
LINE
8
0
10
115.25
20
-114.75
11
96.75
21
-114.75
0
LINE
8
0
10
96.75
20
-114.75
11
96.75
21
-133.25
0
LINE
8
0
10
96.75
20
-114.25
11
115.25
21
-114.25
0
LINE
8
0
10
115.25
20
-114.25
11
115.25
21
-95.75
0
LINE
8
0
10
115.25
20
-95.75
11
96.75
21
-95.75
0
LINE
8
0
10
96.75
20
-95.75
11
96.75
21
-114.25
0
LINE
8
0
10
125.275
20
-190.25
11
143.775
21
-190.25
0
LINE
8
0
10
143.775
20
-190.25
11
143.775
21
-171.75
0
LINE
8
0
10
143.775
20
-171.75
11
125.275
21
-171.75
0
LINE
8
0
10
125.275
20
-171.75
11
125.275
21
-190.25
0
LINE
8
0
10
125.275
20
-171.25
11
143.775
21
-171.25
0
LINE
8
0
10
143.775
20
-171.25
11
143.775
21
-152.75
0
LINE
8
0
10
143.775
20
-152.75
11
125.275
21
-152.75
0
LINE
8
0
10
125.275
20
-152.75
11
125.275
21
-171.25
0
LINE
8
0
10
125.275
20
-152.25
11
143.775
21
-152.25
0
LINE
8
0
10
143.775
20
-152.25
11
143.775
21
-133.75
0
LINE
8
0
10
143.775
20
-133.75
11
125.275
21
-133.75
0
LINE
8
0
10
125.275
20
-133.75
11
125.275
21
-152.25
0
LINE
8
0
10
115.75
20
-133.25
11
134.25
21
-133.25
0
LINE
8
0
10
134.25
20
-133.25
11
134.25
21
-114.75
0
LINE
8
0
10
134.25
20
-114.75
11
115.75
21
-114.75
0
LINE
8
0
10
115.75
20
-114.75
11
115.75
21
-133.25
0
LINE
8
0
10
115.75
20
-114.25
11
134.25
21
-114.25
0
LINE
8
0
10
134.25
20
-114.25
11
134.25
21
-95.75
0
LINE
8
0
10
134.25
20
-95.75
11
115.75
21
-95.75
0
LINE
8
0
10
115.75
20
-95.75
11
115.75
21
-114.25
0
LINE
8
0
10
172.9
20
-209.25
11
191.4
21
-209.25
0
LINE
8
0
10
191.4
20
-209.25
11
191.4
21
-190.75
0
LINE
8
0
10
191.4
20
-190.75
11
172.9
21
-190.75
0
LINE
8
0
10
172.9
20
-190.75
11
172.9
21
-209.25
0
LINE
8
0
10
163.375
20
-190.25
11
181.875
21
-190.25
0
LINE
8
0
10
181.875
20
-190.25
11
181.875
21
-171.75
0
LINE
8
0
10
181.875
20
-171.75
11
163.375
21
-171.75
0
LINE
8
0
10
163.375
20
-171.75
11
163.375
21
-190.25
0
LINE
8
0
10
163.375
20
-171.25
11
181.875
21
-171.25
0
LINE
8
0
10
181.875
20
-171.25
11
181.875
21
-152.75
0
LINE
8
0
10
181.875
20
-152.75
11
163.375
21
-152.75
0
LINE
8
0
10
163.375
20
-152.75
11
163.375
21
-171.25
0
LINE
8
0
10
163.375
20
-152.25
11
181.875
21
-152.25
0
LINE
8
0
10
181.875
20
-152.25
11
181.875
21
-133.75
0
LINE
8
0
10
181.875
20
-133.75
11
163.375
21
-133.75
0
LINE
8
0
10
163.375
20
-133.75
11
163.375
21
-152.25
0
LINE
8
0
10
163.375
20
-133.25
11
181.875
21
-133.25
0
LINE
8
0
10
181.875
20
-133.25
11
181.875
21
-114.75
0
LINE
8
0
10
181.875
20
-114.75
11
163.375
21
-114.75
0
LINE
8
0
10
163.375
20
-114.75
11
163.375
21
-133.25
0
LINE
8
0
10
153.85
20
-114.25
11
172.35
21
-114.25
0
LINE
8
0
10
172.35
20
-114.25
11
172.35
21
-95.75
0
LINE
8
0
10
172.35
20
-95.75
11
153.85
21
-95.75
0
LINE
8
0
10
153.85
20
-95.75
11
153.85
21
-114.25
0
LINE
8
0
10
182.375
20
-190.25
11
200.875
21
-190.25
0
LINE
8
0
10
200.875
20
-190.25
11
200.875
21
-171.75
0
LINE
8
0
10
200.875
20
-171.75
11
182.375
21
-171.75
0
LINE
8
0
10
182.375
20
-171.75
11
182.375
21
-190.25
0
LINE
8
0
10
182.375
20
-171.25
11
200.875
21
-171.25
0
LINE
8
0
10
200.875
20
-171.25
11
200.875
21
-152.75
0
LINE
8
0
10
200.875
20
-152.75
11
182.375
21
-152.75
0
LINE
8
0
10
182.375
20
-152.75
11
182.375
21
-171.25
0
LINE
8
0
10
182.375
20
-152.25
11
200.875
21
-152.25
0
LINE
8
0
10
200.875
20
-152.25
11
200.875
21
-133.75
0
LINE
8
0
10
200.875
20
-133.75
11
182.375
21
-133.75
0
LINE
8
0
10
182.375
20
-133.75
11
182.375
21
-152.25
0
LINE
8
0
10
182.375
20
-133.25
11
200.875
21
-133.25
0
LINE
8
0
10
200.875
20
-133.25
11
200.875
21
-114.75
0
LINE
8
0
10
200.875
20
-114.75
11
182.375
21
-114.75
0
LINE
8
0
10
182.375
20
-114.75
11
182.375
21
-133.25
0
LINE
8
0
10
172.85
20
-114.25
11
191.35
21
-114.25
0
LINE
8
0
10
191.35
20
-114.25
11
191.35
21
-95.75
0
LINE
8
0
10
191.35
20
-95.75
11
172.85
21
-95.75
0
LINE
8
0
10
172.85
20
-95.75
11
172.85
21
-114.25
0
LINE
8
0
10
201.375
20
-190.25
11
219.875
21
-190.25
0
LINE
8
0
10
219.875
20
-190.25
11
219.875
21
-171.75
0
LINE
8
0
10
219.875
20
-171.75
11
201.375
21
-171.75
0
LINE
8
0
10
201.375
20
-171.75
11
201.375
21
-190.25
0
LINE
8
0
10
201.375
20
-171.25
11
219.875
21
-171.25
0
LINE
8
0
10
219.875
20
-171.25
11
219.875
21
-152.75
0
LINE
8
0
10
219.875
20
-152.75
11
201.375
21
-152.75
0
LINE
8
0
10
201.375
20
-152.75
11
201.375
21
-171.25
0
LINE
8
0
10
201.375
20
-152.25
11
219.875
21
-152.25
0
LINE
8
0
10
219.875
20
-152.25
11
219.875
21
-133.75
0
LINE
8
0
10
219.875
20
-133.75
11
201.375
21
-133.75
0
LINE
8
0
10
201.375
20
-133.75
11
201.375
21
-152.25
0
LINE
8
0
10
201.375
20
-133.25
11
219.875
21
-133.25
0
LINE
8
0
10
219.875
20
-133.25
11
219.875
21
-114.75
0
LINE
8
0
10
219.875
20
-114.75
11
201.375
21
-114.75
0
LINE
8
0
10
201.375
20
-114.75
11
201.375
21
-133.25
0
LINE
8
0
10
191.85
20
-114.25
11
210.35
21
-114.25
0
LINE
8
0
10
210.35
20
-114.25
11
210.35
21
-95.75
0
LINE
8
0
10
210.35
20
-95.75
11
191.85
21
-95.75
0
LINE
8
0
10
191.85
20
-95.75
11
191.85
21
-114.25
0
LINE
8
0
10
210.85
20
-209.25
11
229.35
21
-209.25
0
LINE
8
0
10
229.35
20
-209.25
11
229.35
21
-190.75
0
LINE
8
0
10
229.35
20
-190.75
11
210.85
21
-190.75
0
LINE
8
0
10
210.85
20
-190.75
11
210.85
21
-209.25
0
LINE
8
0
10
220.375
20
-190.25
11
238.875
21
-190.25
0
LINE
8
0
10
238.875
20
-190.25
11
238.875
21
-171.75
0
LINE
8
0
10
238.875
20
-171.75
11
220.375
21
-171.75
0
LINE
8
0
10
220.375
20
-171.75
11
220.375
21
-190.25
0
LINE
8
0
10
220.375
20
-171.25
11
238.875
21
-171.25
0
LINE
8
0
10
238.875
20
-171.25
11
238.875
21
-152.75
0
LINE
8
0
10
238.875
20
-152.75
11
220.375
21
-152.75
0
LINE
8
0
10
220.375
20
-152.75
11
220.375
21
-171.25
0
LINE
8
0
10
220.375
20
-152.25
11
238.875
21
-152.25
0
LINE
8
0
10
238.875
20
-152.25
11
238.875
21
-133.75
0
LINE
8
0
10
238.875
20
-133.75
11
220.375
21
-133.75
0
LINE
8
0
10
220.375
20
-133.75
11
220.375
21
-152.25
0
LINE
8
0
10
220.375
20
-133.25
11
238.875
21
-133.25
0
LINE
8
0
10
238.875
20
-133.25
11
238.875
21
-114.75
0
LINE
8
0
10
238.875
20
-114.75
11
220.375
21
-114.75
0
LINE
8
0
10
220.375
20
-114.75
11
220.375
21
-133.25
0
LINE
8
0
10
210.85
20
-114.25
11
229.35
21
-114.25
0
LINE
8
0
10
229.35
20
-114.25
11
229.35
21
-95.75
0
LINE
8
0
10
229.35
20
-95.75
11
210.85
21
-95.75
0
LINE
8
0
10
210.85
20
-95.75
11
210.85
21
-114.25
0
LINE
8
0
10
229.85
20
-209.25
11
248.35
21
-209.25
0
LINE
8
0
10
248.35
20
-209.25
11
248.35
21
-190.75
0
LINE
8
0
10
248.35
20
-190.75
11
229.85
21
-190.75
0
LINE
8
0
10
229.85
20
-190.75
11
229.85
21
-209.25
0
LINE
8
0
10
239.375
20
-190.25
11
257.875
21
-190.25
0
LINE
8
0
10
257.875
20
-190.25
11
257.875
21
-171.75
0
LINE
8
0
10
257.875
20
-171.75
11
239.375
21
-171.75
0
LINE
8
0
10
239.375
20
-171.75
11
239.375
21
-190.25
0
LINE
8
0
10
239.375
20
-171.25
11
257.875
21
-171.25
0
LINE
8
0
10
257.875
20
-171.25
11
257.875
21
-152.75
0
LINE
8
0
10
257.875
20
-152.75
11
239.375
21
-152.75
0
LINE
8
0
10
239.375
20
-152.75
11
239.375
21
-171.25
0
LINE
8
0
10
239.375
20
-152.25
11
257.875
21
-152.25
0
LINE
8
0
10
257.875
20
-152.25
11
257.875
21
-133.75
0
LINE
8
0
10
257.875
20
-133.75
11
239.375
21
-133.75
0
LINE
8
0
10
239.375
20
-133.75
11
239.375
21
-152.25
0
LINE
8
0
10
239.375
20
-133.25
11
257.875
21
-133.25
0
LINE
8
0
10
257.875
20
-133.25
11
257.875
21
-114.75
0
LINE
8
0
10
257.875
20
-114.75
11
239.375
21
-114.75
0
LINE
8
0
10
239.375
20
-114.75
11
239.375
21
-133.25
0
LINE
8
0
10
248.85
20
-209.25
11
267.35
21
-209.25
0
LINE
8
0
10
267.35
20
-209.25
11
267.35
21
-190.75
0
LINE
8
0
10
267.35
20
-190.75
11
248.85
21
-190.75
0
LINE
8
0
10
248.85
20
-190.75
11
248.85
21
-209.25
0
LINE
8
0
10
267.9
20
-190.25
11
286.4
21
-190.25
0
LINE
8
0
10
286.4
20
-190.25
11
286.4
21
-171.75
0
LINE
8
0
10
286.4
20
-171.75
11
267.9
21
-171.75
0
LINE
8
0
10
267.9
20
-171.75
11
267.9
21
-190.25
0
LINE
8
0
10
258.375
20
-171.25
11
276.875
21
-171.25
0
LINE
8
0
10
276.875
20
-171.25
11
276.875
21
-152.75
0
LINE
8
0
10
276.875
20
-152.75
11
258.375
21
-152.75
0
LINE
8
0
10
258.375
20
-152.75
11
258.375
21
-171.25
0
LINE
8
0
10
258.375
20
-152.25
11
276.875
21
-152.25
0
LINE
8
0
10
276.875
20
-152.25
11
276.875
21
-133.75
0
LINE
8
0
10
276.875
20
-133.75
11
258.375
21
-133.75
0
LINE
8
0
10
258.375
20
-133.75
11
258.375
21
-152.25
0
LINE
8
0
10
258.375
20
-133.25
11
276.875
21
-133.25
0
LINE
8
0
10
276.875
20
-133.25
11
276.875
21
-114.75
0
LINE
8
0
10
276.875
20
-114.75
11
258.375
21
-114.75
0
LINE
8
0
10
258.375
20
-114.75
11
258.375
21
-133.25
0
LINE
8
0
10
248.85
20
-114.25
11
267.35
21
-114.25
0
LINE
8
0
10
267.35
20
-114.25
11
267.35
21
-95.75
0
LINE
8
0
10
267.35
20
-95.75
11
248.85
21
-95.75
0
LINE
8
0
10
248.85
20
-95.75
11
248.85
21
-114.25
0
LINE
8
0
10
267.85
20
-209.25
11
286.35
21
-209.25
0
LINE
8
0
10
286.35
20
-209.25
11
286.35
21
-190.75
0
LINE
8
0
10
286.35
20
-190.75
11
267.85
21
-190.75
0
LINE
8
0
10
267.85
20
-190.75
11
267.85
21
-209.25
0
LINE
8
0
10
286.9
20
-171.25
11
305.4
21
-171.25
0
LINE
8
0
10
305.4
20
-171.25
11
305.4
21
-152.75
0
LINE
8
0
10
305.4
20
-152.75
11
286.9
21
-152.75
0
LINE
8
0
10
286.9
20
-152.75
11
286.9
21
-171.25
0
LINE
8
0
10
277.375
20
-152.25
11
295.875
21
-152.25
0
LINE
8
0
10
295.875
20
-152.25
11
295.875
21
-133.75
0
LINE
8
0
10
295.875
20
-133.75
11
277.375
21
-133.75
0
LINE
8
0
10
277.375
20
-133.75
11
277.375
21
-152.25
0
LINE
8
0
10
277.375
20
-133.25
11
295.875
21
-133.25
0
LINE
8
0
10
295.875
20
-133.25
11
295.875
21
-114.75
0
LINE
8
0
10
295.875
20
-114.75
11
277.375
21
-114.75
0
LINE
8
0
10
277.375
20
-114.75
11
277.375
21
-133.25
0
LINE
8
0
10
267.85
20
-114.25
11
286.35
21
-114.25
0
LINE
8
0
10
286.35
20
-114.25
11
286.35
21
-95.75
0
LINE
8
0
10
286.35
20
-95.75
11
267.85
21
-95.75
0
LINE
8
0
10
267.85
20
-95.75
11
267.85
21
-114.25
0
LINE
8
0
10
296.375
20
-152.25
11
314.875
21
-152.25
0
LINE
8
0
10
314.875
20
-152.25
11
314.875
21
-133.75
0
LINE
8
0
10
314.875
20
-133.75
11
296.375
21
-133.75
0
LINE
8
0
10
296.375
20
-133.75
11
296.375
21
-152.25
0
LINE
8
0
10
305.9
20
-133.25
11
324.4
21
-133.25
0
LINE
8
0
10
324.4
20
-133.25
11
324.4
21
-114.75
0
LINE
8
0
10
324.4
20
-114.75
11
305.9
21
-114.75
0
LINE
8
0
10
305.9
20
-114.75
11
305.9
21
-133.25
0
LINE
8
0
10
286.85
20
-114.25
11
305.35
21
-114.25
0
LINE
8
0
10
305.35
20
-114.25
11
305.35
21
-95.75
0
LINE
8
0
10
305.35
20
-95.75
11
286.85
21
-95.75
0
LINE
8
0
10
286.85
20
-95.75
11
286.85
21
-114.25
0
LINE
8
0
10
305.85
20
-114.25
11
324.35
21
-114.25
0
LINE
8
0
10
324.35
20
-114.25
11
324.35
21
-95.75
0
LINE
8
0
10
324.35
20
-95.75
11
305.85
21
-95.75
0
LINE
8
0
10
305.85
20
-95.75
11
305.85
21
-114.25
0
LINE
8
0
10
330.74
20
-211.1764755
11
343.8214755
21
-198.095
0
LINE
8
0
10
343.8214755
20
-198.095
11
330.74
21
-185.0135245
0
LINE
8
0
10
330.74
20
-185.0135245
11
317.6585245
21
-198.095
0
LINE
8
0
10
317.6585245
20
-198.095
11
330.74
21
-211.1764755
0
LINE
8
0
10
317.3049712
20
-197.7414467
11
330.3864467
21
-184.6599712
0
LINE
8
0
10
330.3864467
20
-184.6599712
11
317.3049712
21
-171.5784957
0
LINE
8
0
10
317.3049712
20
-171.5784957
11
304.2234957
21
-184.6599712
0
LINE
8
0
10
304.2234957
20
-184.6599712
11
317.3049712
21
-197.7414467
0
LINE
8
0
10
344.1750288
20
-197.7414467
11
357.2565043
21
-184.6599712
0
LINE
8
0
10
357.2565043
20
-184.6599712
11
344.1750288
21
-171.5784957
0
LINE
8
0
10
344.1750288
20
-171.5784957
11
331.0935533
21
-184.6599712
0
LINE
8
0
10
331.0935533
20
-184.6599712
11
344.1750288
21
-197.7414467
0
LINE
8
0
10
330.74
20
-184.3064179
11
343.8214755
21
-171.2249424
0
LINE
8
0
10
343.8214755
20
-171.2249424
11
330.74
21
-158.1434669
0
LINE
8
0
10
330.74
20
-158.1434669
11
317.6585245
21
-171.2249424
0
LINE
8
0
10
317.6585245
20
-171.2249424
11
330.74
21
-184.3064179
0
LINE
8
0
10
371.7893164
20
-188.985697
11
384.8707919
21
-175.9042215
0
LINE
8
0
10
384.8707919
20
-175.9042215
11
371.7893164
21
-162.822746
0
LINE
8
0
10
371.7893164
20
-162.822746
11
358.7078409
21
-175.9042215
0
LINE
8
0
10
358.7078409
20
-175.9042215
11
371.7893164
21
-188.985697
0
LINE
8
0
10
358.3542876
20
-175.5506682
11
371.4357631
21
-162.4691927
0
LINE
8
0
10
371.4357631
20
-162.4691927
11
358.3542876
21
-149.3877172
0
LINE
8
0
10
358.3542876
20
-149.3877172
11
345.2728121
21
-162.4691927
0
LINE
8
0
10
345.2728121
20
-162.4691927
11
358.3542876
21
-175.5506682
0
LINE
8
0
10
385.2243452
20
-175.5506682
11
398.3058207
21
-162.4691927
0
LINE
8
0
10
398.3058207
20
-162.4691927
11
385.2243452
21
-149.3877172
0
LINE
8
0
10
385.2243452
20
-149.3877172
11
372.1428697
21
-162.4691927
0
LINE
8
0
10
372.1428697
20
-162.4691927
11
385.2243452
21
-175.5506682
0
LINE
8
0
10
371.7893164
20
-162.1156394
11
384.8707919
21
-149.0341639
0
LINE
8
0
10
384.8707919
20
-149.0341639
11
371.7893164
21
-135.9526884
0
LINE
8
0
10
371.7893164
20
-135.9526884
11
358.7078409
21
-149.0341639
0
LINE
8
0
10
358.7078409
20
-149.0341639
11
371.7893164
21
-162.1156394
0
LINE
8
0
10
343.95
20
-133.25
11
362.45
21
-133.25
0
LINE
8
0
10
362.45
20
-133.25
11
362.45
21
-114.75
0
LINE
8
0
10
362.45
20
-114.75
11
343.95
21
-114.75
0
LINE
8
0
10
343.95
20
-114.75
11
343.95
21
-133.25
0
LINE
8
0
10
343.95
20
-114.25
11
362.45
21
-114.25
0
LINE
8
0
10
362.45
20
-114.25
11
362.45
21
-95.75
0
LINE
8
0
10
362.45
20
-95.75
11
343.95
21
-95.75
0
LINE
8
0
10
343.95
20
-95.75
11
343.95
21
-114.25
0
LINE
8
0
10
362.95
20
-133.25
11
381.45
21
-133.25
0
LINE
8
0
10
381.45
20
-133.25
11
381.45
21
-114.75
0
LINE
8
0
10
381.45
20
-114.75
11
362.95
21
-114.75
0
LINE
8
0
10
362.95
20
-114.75
11
362.95
21
-133.25
0
LINE
8
0
10
362.95
20
-114.25
11
381.45
21
-114.25
0
LINE
8
0
10
381.45
20
-114.25
11
381.45
21
-95.75
0
LINE
8
0
10
381.45
20
-95.75
11
362.95
21
-95.75
0
LINE
8
0
10
362.95
20
-95.75
11
362.95
21
-114.25
0
LINE
8
0
10
381.95
20
-133.25
11
400.45
21
-133.25
0
LINE
8
0
10
400.45
20
-133.25
11
400.45
21
-114.75
0
LINE
8
0
10
400.45
20
-114.75
11
381.95
21
-114.75
0
LINE
8
0
10
381.95
20
-114.75
11
381.95
21
-133.25
0
LINE
8
0
10
381.95
20
-114.25
11
400.45
21
-114.25
0
LINE
8
0
10
400.45
20
-114.25
11
400.45
21
-95.75
0
LINE
8
0
10
400.45
20
-95.75
11
381.95
21
-95.75
0
LINE
8
0
10
381.95
20
-95.75
11
381.95
21
-114.25
0
ENDSEC
0
EOF