0
SECTION
2
HEADER
9
$INSUNITS
70
4
0
ENDSEC
0
SECTION
2
TABLES
0
TABLE
2
LTYPE
0
LTYPE
72
65
70
64
2
CONTINUOUS
3
______
73
0
40
0
0
ENDTAB
0
TABLE
2
LAYER
0
ENDTAB
0
ENDSEC
0
SECTION
2
ENTITIES
0
LINE
8
0
10
12.4694341
20
-105.0302281
11
23.3603086
21
-61.158329
0
LINE
8
0
10
25.292667
20
-59.640208
11
36.2122791
21
-59.5925619
0
LINE
8
0
10
36.3083889
20
-59.5898313
11
77.1407823
21
-57.4465255
0
LINE
8
0
10
77.1845375
20
-57.4447088
11
98.922729
21
-56.7805022
0
LINE
8
0
10
99.1458004
20
-56.7861403
11
119.4295206
21
-58.4344379
0
LINE
8
0
10
119.4795381
20
-58.437872
11
149.8912196
21
-60.1431855
0
LINE
8
0
10
151.1006652
20
-60.6387645
11
156.0329106
21
-64.9800877
0
LINE
8
0
10
157.3484967
20
-65.4787952
11
167.8985873
21
-65.5095601
0
LINE
8
0
10
169.2126865
20
-65.0223268
11
174.1850396
21
-60.7221255
0
LINE
8
0
10
175.3989668
20
-60.2371099
11
206.2137768
21
-58.781959
0
LINE
8
0
10
206.2841202
20
-58.7773935
11
228.3456591
21
-56.9546202
0
LINE
8
0
10
228.5652393
20
-56.9485821
11
249.5056289
21
-57.5235813
0
LINE
8
0
10
249.5625977
20
-57.5259586
11
288.4096926
21
-59.7021949
0
LINE
8
0
10
288.4953792
20
-59.7051545
11
403.7426265
21
-61.2138235
0
LINE
8
0
10
405.716276
20
-63.2398314
11
405.0710559
21
-112.5281987
0
LINE
8
0
10
404.9856176
20
-113.0809057
11
397.1721777
21
-138.9201355
0
LINE
8
0
10
338.9539036
20
-202.1968201
11
396.7264323
21
-139.6988507
0
LINE
8
0
10
336.7217436
20
-202.6877437
11
300.6579962
21
-187.791971
0
LINE
8
0
10
268.0200846
20
-187.2230661
11
299.9206604
21
-187.6406673
0
LINE
8
0
10
267.8435548
20
-187.2129381
11
249.1826715
21
-185.3117828
0
LINE
8
0
10
249.0001911
20
-185.3015858
11
217.8777881
21
-184.9867891
0
LINE
8
0
10
217.5656808
20
-185.0080997
11
204.235484
21
-186.9745531
0
LINE
8
0
10
204.0752642
20
-186.9916279
11
166.7199592
21
-189.4560518
0
LINE
8
0
10
166.5777796
20
-189.4603623
11
156.9831763
21
-189.4098905
0
LINE
8
0
10
156.8446281
20
-189.4043551
11
119.4908161
21
-186.6124405
0
LINE
8
0
10
119.3696839
20
-186.5996674
11
106.5980195
21
-184.8582417
0
LINE
8
0
10
106.3048025
20
-184.8400379
11
74.9877311
21
-185.2004543
0
LINE
8
0
10
74.7932055
20
-185.2121882
11
55.9718034
21
-187.2716244
0
LINE
8
0
10
25.4205494
20
-187.4158663
11
55.7629886
21
-187.2834717
0
LINE
8
0
10
23.7051467
20
-186.4586013
11
12.9758653
21
-168.8973399
0
LINE
8
0
10
12.6825605
20
-167.8633506
11
12.4105381
21
-105.5208147
0
ARC
8
0
10
25.3013936
20
-61.640189
40
2
50
90.2499995
51
166.0585639
0
ARC
8
0
10
36.2035525
20
-57.5925809
40
2
50
270.2499995
51
273.0047188
0
ARC
8
0
10
77.2456187
20
-59.4437759
40
2
50
91.7501197
51
93.0047188
0
ARC
8
0
10
98.9838102
20
-58.7795693
40
2
50
85.3542336
51
91.7501197
0
ARC
8
0
10
119.5915108
20
-56.4410089
40
2
50
265.3542336
51
266.790543
0
ARC
8
0
10
149.779247
20
-62.1400486
40
2
50
48.6460229
51
86.790543
0
ARC
8
0
10
157.3543289
20
-63.4788037
40
2
50
228.6460229
51
269.8329195
0
ARC
8
0
10
167.9044195
20
-63.5095686
40
2
50
269.8329195
51
310.8539805
0
ARC
8
0
10
175.4933066
20
-62.2348837
40
2
50
92.7036394
51
130.8539805
0
ARC
8
0
10
206.119437
20
-56.7841852
40
2
50
272.7036394
51
274.7231736
0
ARC
8
0
10
228.5103423
20
-58.9478285
40
2
50
88.4271192
51
94.7231736
0
ARC
8
0
10
249.4507319
20
-59.5228277
40
2
50
86.7936075
51
88.4271192
0
ARC
8
0
10
288.5215584
20
-57.7053258
40
2
50
266.7936075
51
269.2499997
0
ARC
8
0
10
403.7164473
20
-63.2136522
40
2
50
359.2499997
51
89.2499997
0
ARC
8
0
10
403.0712272
20
-112.5020195
40
2
50
343.1753815
51
359.2499997
0
ARC
8
0
10
395.2577873
20
-138.3412493
40
2
50
317.2500015
51
343.1753815
0
ARC
8
0
10
337.4852586
20
-200.8392186
40
2
50
247.5574107
51
317.2500015
0
ARC
8
0
10
299.8944812
20
-189.640496
40
2
50
67.5574107
51
89.2499997
0
ARC
8
0
10
268.0462638
20
-185.2232374
40
2
50
264.1828262
51
269.2499997
0
ARC
8
0
10
248.9799625
20
-187.3014835
40
2
50
84.1828262
51
89.4204834
0
ARC
8
0
10
217.8575595
20
-186.9866868
40
2
50
89.4204834
51
98.3916761
0
ARC
8
0
10
203.9436054
20
-184.995966
40
2
50
273.7744762
51
278.3916761
0
ARC
8
0
10
166.5883004
20
-187.46039
40
2
50
269.6985999
51
273.7744762
0
ARC
8
0
10
156.9936971
20
-187.4099182
40
2
50
265.7255236
51
269.6985999
0
ARC
8
0
10
119.6398851
20
-184.6180036
40
2
50
262.235563
51
265.7255236
0
ARC
8
0
10
106.3278183
20
-186.8399055
40
2
50
82.235563
51
90.6593686
0
ARC
8
0
10
75.0107469
20
-187.2003219
40
2
50
90.6593686
51
96.2444565
0
ARC
8
0
10
55.754262
20
-185.2834907
40
2
50
270.2499995
51
276.2444565
0
ARC
8
0
10
25.4118228
20
-185.4158853
40
2
50
211.4233863
51
270.2499995
0
ARC
8
0
10
14.6825415
20
-167.854624
40
2
50
180.2499995
51
211.4233863
0
ARC
8
0
10
14.4105191
20
-105.5120881
40
2
50
166.0585639
51
180.2499995
0
LINE
8
0
10
27.5287944
20
-184.1566364
11
46.0786178
21
-184.075697
0
LINE
8
0
10
46.0786178
20
-184.075697
11
45.9976784
21
-165.5258736
0
LINE
8
0
10
45.9976784
20
-165.5258736
11
27.447855
21
-165.606813
0
LINE
8
0
10
27.447855
20
-165.606813
11
27.5287944
21
-184.1566364
0
LINE
8
0
10
22.1832235
20
-165.1297796
11
40.7330469
21
-165.0488402
0
LINE
8
0
10
40.7330469
20
-165.0488402
11
40.6521075
21
-146.4990168
0
LINE
8
0
10
40.6521075
20
-146.4990168
11
22.1022841
21
-146.5799562
0
LINE
8
0
10
22.1022841
20
-146.5799562
11
22.1832235
21
-165.1297796
0
LINE
8
0
10
22.1001024
20
-146.079961
11
40.6499258
21
-145.9990216
0
LINE
8
0
10
40.6499258
20
-145.9990216
11
40.5689864
21
-127.4491982
0
LINE
8
0
10
40.5689864
20
-127.4491982
11
22.019163
21
-127.5301376
0
LINE
8
0
10
22.019163
20
-127.5301376
11
22.1001024
21
-146.079961
0
LINE
8
0
10
22.0169814
20
-127.0301423
11
40.5668048
21
-126.9492029
0
LINE
8
0
10
40.5668048
20
-126.9492029
11
40.4858654
21
-108.3993795
0
LINE
8
0
10
40.4858654
20
-108.3993795
11
21.936042
21
-108.4803189
0
LINE
8
0
10
21.936042
20
-108.4803189
11
22.0169814
21
-127.0301423
0
LINE
8
0
10
27.1963103
20
-107.9573618
11
45.7461337
21
-107.8764224
0
LINE
8
0
10
45.7461337
20
-107.8764224
11
45.6651943
21
-89.326599
0
LINE
8
0
10
45.6651943
20
-89.326599
11
27.1153709
21
-89.4075384
0
LINE
8
0
10
27.1153709
20
-89.4075384
11
27.1963103
21
-107.9573618
0
LINE
8
0
10
27.1131892
20
-88.9075431
11
45.6630126
21
-88.8266037
0
LINE
8
0
10
45.6630126
20
-88.8266037
11
45.5820732
21
-70.2767803
0
LINE
8
0
10
45.5820732
20
-70.2767803
11
27.0322498
21
-70.3577197
0
LINE
8
0
10
27.0322498
20
-70.3577197
11
27.1131892
21
-88.9075431
0
LINE
8
0
10
46.5786131
20
-184.0735154
11
65.1284365
21
-183.992576
0
LINE
8
0
10
65.1284365
20
-183.992576
11
65.0474971
21
-165.4427526
0
LINE
8
0
10
65.0474971
20
-165.4427526
11
46.4976737
21
-165.523692
0
LINE
8
0
10
46.4976737
20
-165.523692
11
46.5786131
21
-184.0735154
0
LINE
8
0
10
46.495492
20
-165.0236967
11
65.0453154
21
-164.9427573
0
LINE
8
0
10
65.0453154
20
-164.9427573
11
64.964376
21
-146.3929339
0
LINE
8
0
10
64.964376
20
-146.3929339
11
46.4145526
21
-146.4738733
0
LINE
8
0
10
46.4145526
20
-146.4738733
11
46.495492
21
-165.0236967
0
LINE
8
0
10
46.412371
20
-145.973878
11
64.9621944
21
-145.8929386
0
LINE
8
0
10
64.9621944
20
-145.8929386
11
64.881255
21
-127.3431152
0
LINE
8
0
10
64.881255
20
-127.3431152
11
46.3314316
21
-127.4240546
0
LINE
8
0
10
46.3314316
20
-127.4240546
11
46.412371
21
-145.973878
0
LINE
8
0
10
46.32925
20
-126.9240594
11
64.8790734
21
-126.84312
0
LINE
8
0
10
64.8790734
20
-126.84312
11
64.798134
21
-108.2932966
0
LINE
8
0
10
64.798134
20
-108.2932966
11
46.2483106
21
-108.374236
0
LINE
8
0
10
46.2483106
20
-108.374236
11
46.32925
21
-126.9240594
0
LINE
8
0
10
46.2461289
20
-107.8742407
11
64.7959523
21
-107.7933013
0
LINE
8
0
10
64.7959523
20
-107.7933013
11
64.7150129
21
-89.2434779
0
LINE
8
0
10
64.7150129
20
-89.2434779
11
46.1651895
21
-89.3244173
0
LINE
8
0
10
46.1651895
20
-89.3244173
11
46.2461289
21
-107.8742407
0
LINE
8
0
10
65.6585186
20
-181.8304493
11
84.2069294
21
-182.0732613
0
LINE
8
0
10
84.2069294
20
-182.0732613
11
84.4497414
21
-163.5248505
0
LINE
8
0
10
84.4497414
20
-163.5248505
11
65.9013306
21
-163.2820385
0
LINE
8
0
10
65.9013306
20
-163.2820385
11
65.6585186
21
-181.8304493
0
LINE
8
0
10
65.9078753
20
-162.7820813
11
84.4562861
21
-163.0248933
0
LINE
8
0
10
84.4562861
20
-163.0248933
11
84.6990981
21
-144.4764825
0
LINE
8
0
10
84.6990981
20
-144.4764825
11
66.1506873
21
-144.2336705
0
LINE
8
0
10
66.1506873
20
-144.2336705
11
65.9078753
21
-162.7820813
0
LINE
8
0
10
66.3572149
20
-143.7363313
11
84.9056257
21
-143.9791433
0
LINE
8
0
10
84.9056257
20
-143.9791433
11
85.1484377
21
-125.4307325
0
LINE
8
0
10
85.1484377
20
-125.4307325
11
66.6000269
21
-125.1879205
0
LINE
8
0
10
66.6000269
20
-125.1879205
11
66.3572149
21
-143.7363313
0
LINE
8
0
10
66.8065545
20
-124.6905813
11
85.3549653
21
-124.9333933
0
LINE
8
0
10
85.3549653
20
-124.9333933
11
85.5977773
21
-106.3849825
0
LINE
8
0
10
85.5977773
20
-106.3849825
11
67.0493665
21
-106.1421705
0
LINE
8
0
10
67.0493665
20
-106.1421705
11
66.8065545
21
-124.6905813
0
LINE
8
0
10
67.0559112
20
-105.6422134
11
85.604322
21
-105.8850254
0
LINE
8
0
10
85.604322
20
-105.8850254
11
85.847134
21
-87.3366146
0
LINE
8
0
10
85.847134
20
-87.3366146
11
67.2987232
21
-87.0938026
0
LINE
8
0
10
67.2987232
20
-87.0938026
11
67.0559112
21
-105.6422134
0
LINE
8
0
10
67.5052508
20
-86.5964634
11
86.0536616
21
-86.8392754
0
LINE
8
0
10
86.0536616
20
-86.8392754
11
86.2964736
21
-68.2908646
0
LINE
8
0
10
86.2964736
20
-68.2908646
11
67.7480628
21
-68.0480526
0
LINE
8
0
10
67.7480628
20
-68.0480526
11
67.5052508
21
-86.5964634
0
LINE
8
0
10
84.7614993
20
-180.9241191
11
103.3028474
21
-181.4906086
0
LINE
8
0
10
103.3028474
20
-181.4906086
11
103.8693369
21
-162.9492605
0
LINE
8
0
10
103.8693369
20
-162.9492605
11
85.3279888
21
-162.382771
0
LINE
8
0
10
85.3279888
20
-162.382771
11
84.7614993
21
-180.9241191
0
LINE
8
0
10
85.3432579
20
-161.8830041
11
103.884606
21
-162.4494936
0
LINE
8
0
10
103.884606
20
-162.4494936
11
104.4510955
21
-143.9081455
0
LINE
8
0
10
104.4510955
20
-143.9081455
11
85.9097474
21
-143.341656
0
LINE
8
0
10
85.9097474
20
-143.341656
11
85.3432579
21
-161.8830041
0
LINE
8
0
10
86.32483
20
-142.8541046
11
104.8661781
21
-143.4205941
0
LINE
8
0
10
104.8661781
20
-143.4205941
11
105.4326676
21
-124.879246
0
LINE
8
0
10
105.4326676
20
-124.879246
11
86.8913195
21
-124.3127565
0
LINE
8
0
10
86.8913195
20
-124.3127565
11
86.32483
21
-142.8541046
0
LINE
8
0
10
87.3064021
20
-123.825205
11
105.8477502
21
-124.3916945
0
LINE
8
0
10
105.8477502
20
-124.3916945
11
106.4142397
21
-105.8503464
0
LINE
8
0
10
106.4142397
20
-105.8503464
11
87.8728916
21
-105.2838569
0
LINE
8
0
10
87.8728916
20
-105.2838569
11
87.3064021
21
-123.825205
0
LINE
8
0
10
87.8881607
20
-104.7840901
11
106.4295088
21
-105.3505796
0
LINE
8
0
10
106.4295088
20
-105.3505796
11
106.9959983
21
-86.8092315
0
LINE
8
0
10
106.9959983
20
-86.8092315
11
88.4546502
21
-86.242742
0
LINE
8
0
10
88.4546502
20
-86.242742
11
87.8881607
21
-104.7840901
0
LINE
8
0
10
88.8697328
20
-85.7551905
11
107.4110809
21
-86.32168
0
LINE
8
0
10
107.4110809
20
-86.32168
11
107.9775704
21
-67.7803319
0
LINE
8
0
10
107.9775704
20
-67.7803319
11
89.4362223
21
-67.2138424
0
LINE
8
0
10
89.4362223
20
-67.2138424
11
88.8697328
21
-85.7551905
0
LINE
8
0
10
104.5303879
20
-163.3162178
11
123.0590254
21
-164.2062121
0
LINE
8
0
10
123.0590254
20
-164.2062121
11
123.9490197
21
-145.6775746
0
LINE
8
0
10
123.9490197
20
-145.6775746
11
105.4203822
21
-144.7875803
0
LINE
8
0
10
105.4203822
20
-144.7875803
11
104.5303879
21
-163.3162178
0
LINE
8
0
10
105.644141
20
-144.2977517
11
124.1727785
21
-145.187746
0
LINE
8
0
10
124.1727785
20
-145.187746
11
125.0627728
21
-126.6591085
0
LINE
8
0
10
125.0627728
20
-126.6591085
11
106.5341353
21
-125.7691142
0
LINE
8
0
10
106.5341353
20
-125.7691142
11
105.644141
21
-144.2977517
0
LINE
8
0
10
106.757894
20
-125.2792857
11
125.2865315
21
-126.16928
0
LINE
8
0
10
125.2865315
20
-126.16928
11
126.1765258
21
-107.6406425
0
LINE
8
0
10
126.1765258
20
-107.6406425
11
107.6478883
21
-106.7506482
0
LINE
8
0
10
107.6478883
20
-106.7506482
11
106.757894
21
-125.2792857
0
LINE
8
0
10
107.6718774
20
-106.2512239
11
126.2005149
21
-107.1412182
0
LINE
8
0
10
126.2005149
20
-107.1412182
11
127.0905092
21
-88.6125807
0
LINE
8
0
10
127.0905092
20
-88.6125807
11
108.5618717
21
-87.7225864
0
LINE
8
0
10
108.5618717
20
-87.7225864
11
107.6718774
21
-106.2512239
0
LINE
8
0
10
108.7856305
20
-87.2327578
11
127.314268
21
-88.1227521
0
LINE
8
0
10
127.314268
20
-88.1227521
11
128.2042623
21
-69.5941146
0
LINE
8
0
10
128.2042623
20
-69.5941146
11
109.6756248
21
-68.7041203
0
LINE
8
0
10
109.6756248
20
-68.7041203
11
108.7856305
21
-87.2327578
0
LINE
8
0
10
122.8322415
20
-183.5175707
11
141.360879
21
-184.407565
0
LINE
8
0
10
141.360879
20
-184.407565
11
142.2508733
21
-165.8789275
0
LINE
8
0
10
142.2508733
20
-165.8789275
11
123.7222358
21
-164.9889332
0
LINE
8
0
10
123.7222358
20
-164.9889332
11
122.8322415
21
-183.5175707
0
LINE
8
0
10
123.7462249
20
-164.489509
11
142.2748624
21
-165.3795033
0
LINE
8
0
10
142.2748624
20
-165.3795033
11
143.1648567
21
-146.8508658
0
LINE
8
0
10
143.1648567
20
-146.8508658
11
124.6362192
21
-145.9608715
0
LINE
8
0
10
124.6362192
20
-145.9608715
11
123.7462249
21
-164.489509
0
LINE
8
0
10
124.6602083
20
-145.4614472
11
143.1888458
21
-146.3514415
0
LINE
8
0
10
143.1888458
20
-146.3514415
11
144.0788401
21
-127.822804
0
LINE
8
0
10
144.0788401
20
-127.822804
11
125.5502026
21
-126.9328097
0
LINE
8
0
10
125.5502026
20
-126.9328097
11
124.6602083
21
-145.4614472
0
LINE
8
0
10
125.5741916
20
-126.4333855
11
144.1028291
21
-127.3233798
0
LINE
8
0
10
144.1028291
20
-127.3233798
11
144.9928234
21
-108.7947423
0
LINE
8
0
10
144.9928234
20
-108.7947423
11
126.4641859
21
-107.904748
0
LINE
8
0
10
126.4641859
20
-107.904748
11
125.5741916
21
-126.4333855
0
LINE
8
0
10
126.488175
20
-107.4053238
11
145.0168125
21
-108.2953181
0
LINE
8
0
10
145.0168125
20
-108.2953181
11
145.9068068
21
-89.7666806
0
LINE
8
0
10
145.9068068
20
-89.7666806
11
127.3781693
21
-88.8766863
0
LINE
8
0
10
127.3781693
20
-88.8766863
11
126.488175
21
-107.4053238
0
LINE
8
0
10
127.4021584
20
-88.3772621
11
145.9307959
21
-89.2672564
0
LINE
8
0
10
145.9307959
20
-89.2672564
11
146.8207902
21
-70.7386189
0
LINE
8
0
10
146.8207902
20
-70.7386189
11
128.2921527
21
-69.8486246
0
LINE
8
0
10
128.2921527
20
-69.8486246
11
127.4021584
21
-88.3772621
0
LINE
8
0
10
182.2449307
20
-184.5946897
11
200.7806293
21
-183.8664201
0
LINE
8
0
10
200.7806293
20
-183.8664201
11
200.0523597
21
-165.3307215
0
LINE
8
0
10
200.0523597
20
-165.3307215
11
181.5166611
21
-166.0589911
0
LINE
8
0
10
181.5166611
20
-166.0589911
11
182.2449307
21
-184.5946897
0
LINE
8
0
10
182.0965686
20
-165.5358206
11
200.6322672
21
-164.807551
0
LINE
8
0
10
200.6322672
20
-164.807551
11
199.9039976
21
-146.2718524
0
LINE
8
0
10
199.9039976
20
-146.2718524
11
181.368299
21
-147.000122
0
LINE
8
0
10
181.368299
20
-147.000122
11
182.0965686
21
-165.5358206
0
LINE
8
0
10
181.3486692
20
-146.5005074
11
199.8843678
21
-145.7722378
0
LINE
8
0
10
199.8843678
20
-145.7722378
11
199.1560982
21
-127.2365392
0
LINE
8
0
10
199.1560982
20
-127.2365392
11
180.6203996
21
-127.9648088
0
LINE
8
0
10
180.6203996
20
-127.9648088
11
181.3486692
21
-146.5005074
0
LINE
8
0
10
180.6007697
20
-127.4651942
11
199.1364683
21
-126.7369246
0
LINE
8
0
10
199.1364683
20
-126.7369246
11
198.4081987
21
-108.201226
0
LINE
8
0
10
198.4081987
20
-108.201226
11
179.8725001
21
-108.9294956
0
LINE
8
0
10
179.8725001
20
-108.9294956
11
180.6007697
21
-127.4651942
0
LINE
8
0
10
179.8528702
20
-108.429881
11
198.3885688
21
-107.7016114
0
LINE
8
0
10
198.3885688
20
-107.7016114
11
197.6602992
21
-89.1659128
0
LINE
8
0
10
197.6602992
20
-89.1659128
11
179.1246006
21
-89.8941824
0
LINE
8
0
10
179.1246006
20
-89.8941824
11
179.8528702
21
-108.429881
0
LINE
8
0
10
179.1049707
20
-89.3945678
11
197.6406693
21
-88.6662982
0
LINE
8
0
10
197.6406693
20
-88.6662982
11
196.9123997
21
-70.1305996
0
LINE
8
0
10
196.9123997
20
-70.1305996
11
178.3767011
21
-70.8588692
0
LINE
8
0
10
178.3767011
20
-70.8588692
11
179.1049707
21
-89.3945678
0
LINE
8
0
10
201.1220668
20
-164.5381139
11
219.6577654
21
-163.8098443
0
LINE
8
0
10
219.6577654
20
-163.8098443
11
218.9294958
21
-145.2741457
0
LINE
8
0
10
218.9294958
20
-145.2741457
11
200.3937972
21
-146.0024153
0
LINE
8
0
10
200.3937972
20
-146.0024153
11
201.1220668
21
-164.5381139
0
LINE
8
0
10
200.3741674
20
-145.5028007
11
218.909866
21
-144.7745311
0
LINE
8
0
10
218.909866
20
-144.7745311
11
218.1815964
21
-126.2388325
0
LINE
8
0
10
218.1815964
20
-126.2388325
11
199.6458978
21
-126.9671021
0
LINE
8
0
10
199.6458978
20
-126.9671021
11
200.3741674
21
-145.5028007
0
LINE
8
0
10
199.6262679
20
-126.4674875
11
218.1619665
21
-125.7392179
0
LINE
8
0
10
218.1619665
20
-125.7392179
11
217.4336969
21
-107.2035193
0
LINE
8
0
10
217.4336969
20
-107.2035193
11
198.8979983
21
-107.9317889
0
LINE
8
0
10
198.8979983
20
-107.9317889
11
199.6262679
21
-126.4674875
0
LINE
8
0
10
198.8783684
20
-107.4321743
11
217.414067
21
-106.7039047
0
LINE
8
0
10
217.414067
20
-106.7039047
11
216.6857974
21
-88.1682061
0
LINE
8
0
10
216.6857974
20
-88.1682061
11
198.1500988
21
-88.8964757
0
LINE
8
0
10
198.1500988
20
-88.8964757
11
198.8783684
21
-107.4321743
0
LINE
8
0
10
198.1304689
20
-88.3968611
11
216.6661675
21
-87.6685915
0
LINE
8
0
10
216.6661675
20
-87.6685915
11
215.9378979
21
-69.1328929
0
LINE
8
0
10
215.9378979
20
-69.1328929
11
197.4021993
21
-69.8611625
0
LINE
8
0
10
197.4021993
20
-69.8611625
11
198.1304689
21
-88.3968611
0
LINE
8
0
10
220.8992268
20
-181.6650773
11
239.4448124
21
-181.2604111
0
LINE
8
0
10
239.4448124
20
-181.2604111
11
239.0401462
21
-162.7148255
0
LINE
8
0
10
239.0401462
20
-162.7148255
11
220.4945606
21
-163.1194917
0
LINE
8
0
10
220.4945606
20
-163.1194917
11
220.8992268
21
-181.6650773
0
LINE
8
0
10
220.6836056
20
-162.6152476
11
239.2291912
21
-162.2105814
0
LINE
8
0
10
239.2291912
20
-162.2105814
11
238.824525
21
-143.6649958
0
LINE
8
0
10
238.824525
20
-143.6649958
11
220.2789394
21
-144.069662
0
LINE
8
0
10
220.2789394
20
-144.069662
11
220.6836056
21
-162.6152476
0
LINE
8
0
10
220.4679845
20
-143.565418
11
239.0135701
21
-143.1607518
0
LINE
8
0
10
239.0135701
20
-143.1607518
11
238.6089039
21
-124.6151662
0
LINE
8
0
10
238.6089039
20
-124.6151662
11
220.0633183
21
-125.0198324
0
LINE
8
0
10
220.0633183
20
-125.0198324
11
220.4679845
21
-143.565418
0
LINE
8
0
10
220.2523633
20
-124.5155884
11
238.7979489
21
-124.1109222
0
LINE
8
0
10
238.7979489
20
-124.1109222
11
238.3932827
21
-105.5653366
0
LINE
8
0
10
238.3932827
20
-105.5653366
11
219.8476971
21
-105.9700028
0
LINE
8
0
10
219.8476971
20
-105.9700028
11
220.2523633
21
-124.5155884
0
LINE
8
0
10
220.0367422
20
-105.4657588
11
238.5823278
21
-105.0610926
0
LINE
8
0
10
238.5823278
20
-105.0610926
11
238.1776616
21
-86.515507
0
LINE
8
0
10
238.1776616
20
-86.515507
11
219.632076
21
-86.9201732
0
LINE
8
0
10
219.632076
20
-86.9201732
11
220.0367422
21
-105.4657588
0
LINE
8
0
10
219.821121
20
-86.4159292
11
238.3667066
21
-86.011263
0
LINE
8
0
10
238.3667066
20
-86.011263
11
237.9620404
21
-67.4656774
0
LINE
8
0
10
237.9620404
20
-67.4656774
11
219.4164548
21
-67.8703436
0
LINE
8
0
10
219.4164548
20
-67.8703436
11
219.821121
21
-86.4159292
0
LINE
8
0
10
239.8025717
20
-182.0930116
11
258.3523951
21
-182.0120722
0
LINE
8
0
10
258.3523951
20
-182.0120722
11
258.2714557
21
-163.4622488
0
LINE
8
0
10
258.2714557
20
-163.4622488
11
239.7216323
21
-163.5431882
0
LINE
8
0
10
239.7216323
20
-163.5431882
11
239.8025717
21
-182.0930116
0
LINE
8
0
10
239.9194487
20
-163.0423203
11
258.4692721
21
-162.9613809
0
LINE
8
0
10
258.4692721
20
-162.9613809
11
258.3883327
21
-144.4115575
0
LINE
8
0
10
258.3883327
20
-144.4115575
11
239.8385093
21
-144.4924969
0
LINE
8
0
10
239.8385093
20
-144.4924969
11
239.9194487
21
-163.0423203
0
LINE
8
0
10
240.0363258
20
-143.991629
11
258.5861492
21
-143.9106896
0
LINE
8
0
10
258.5861492
20
-143.9106896
11
258.5052098
21
-125.3608662
0
LINE
8
0
10
258.5052098
20
-125.3608662
11
239.9553864
21
-125.4418056
0
LINE
8
0
10
239.9553864
20
-125.4418056
11
240.0363258
21
-143.991629
0
LINE
8
0
10
240.1532029
20
-124.9409376
11
258.7030263
21
-124.8599982
0
LINE
8
0
10
258.7030263
20
-124.8599982
11
258.6220869
21
-106.3101748
0
LINE
8
0
10
258.6220869
20
-106.3101748
11
240.0722635
21
-106.3911142
0
LINE
8
0
10
240.0722635
20
-106.3911142
11
240.1532029
21
-124.9409376
0
LINE
8
0
10
240.2700799
20
-105.8902463
11
258.8199033
21
-105.8093069
0
LINE
8
0
10
258.8199033
20
-105.8093069
11
258.7389639
21
-87.2594835
0
LINE
8
0
10
258.7389639
20
-87.2594835
11
240.1891405
21
-87.3404229
0
LINE
8
0
10
240.1891405
20
-87.3404229
11
240.2700799
21
-105.8902463
0
LINE
8
0
10
240.386957
20
-86.839555
11
258.9367804
21
-86.7586156
0
LINE
8
0
10
258.9367804
20
-86.7586156
11
258.855841
21
-68.2087922
0
LINE
8
0
10
258.855841
20
-68.2087922
11
240.3060176
21
-68.2897316
0
LINE
8
0
10
240.3060176
20
-68.2897316
11
240.386957
21
-86.839555
0
LINE
8
0
10
258.6999323
20
-183.8507801
11
277.2483431
21
-184.0935921
0
LINE
8
0
10
277.2483431
20
-184.0935921
11
277.4911551
21
-165.5451813
0
LINE
8
0
10
277.4911551
20
-165.5451813
11
258.9427443
21
-165.3023693
0
LINE
8
0
10
258.9427443
20
-165.3023693
11
258.6999323
21
-183.8507801
0
LINE
8
0
10
259.1492719
20
-164.8050301
11
277.6976827
21
-165.0478421
0
LINE
8
0
10
277.6976827
20
-165.0478421
11
277.9404947
21
-146.4994313
0
LINE
8
0
10
277.9404947
20
-146.4994313
11
259.3920839
21
-146.2566193
0
LINE
8
0
10
259.3920839
20
-146.2566193
11
259.1492719
21
-164.8050301
0
LINE
8
0
10
259.5986115
20
-145.7592801
11
296.5954417
21
-146.243595
0
LINE
8
0
10
259.8414235
20
-127.2108693
11
296.8382537
21
-127.6951842
0
LINE
8
0
10
259.8414235
20
-127.2108693
11
259.5986115
21
-145.7592801
0
LINE
8
0
10
260.047951
20
-126.7135301
11
296.8447985
21
-127.1952271
0
LINE
8
0
10
260.290763
20
-108.1651193
11
297.0876105
21
-108.6468163
0
LINE
8
0
10
260.290763
20
-108.1651193
11
260.047951
21
-126.7135301
0
LINE
8
0
10
260.4972906
20
-107.6677801
11
297.0941552
21
-108.1468591
0
LINE
8
0
10
260.7401026
20
-89.1193693
11
297.3369672
21
-89.5984483
0
LINE
8
0
10
260.7401026
20
-89.1193693
11
260.4972906
21
-107.6677801
0
LINE
8
0
10
277.5483174
20
-184.0975189
11
296.0967282
21
-184.3403309
0
LINE
8
0
10
296.0967282
20
-184.3403309
11
296.3395402
21
-165.7919201
0
LINE
8
0
10
296.3395402
20
-165.7919201
11
277.7911294
21
-165.5491081
0
LINE
8
0
10
277.7911294
20
-165.5491081
11
277.5483174
21
-184.0975189
0
LINE
8
0
10
283.1597148
20
-165.1193439
11
301.7081256
21
-165.3621559
0
LINE
8
0
10
301.7081256
20
-165.3621559
11
301.9509376
21
-146.8137451
0
LINE
8
0
10
301.9509376
20
-146.8137451
11
283.4025268
21
-146.5709331
0
LINE
8
0
10
283.4025268
20
-146.5709331
11
283.1597148
21
-165.1193439
0
LINE
8
0
10
296.5954417
20
-146.243595
11
296.8382537
21
-127.6951842
0
LINE
8
0
10
296.8447985
20
-127.1952271
11
297.0876105
21
-108.6468163
0
LINE
8
0
10
297.0941552
20
-108.1468591
11
297.3369672
21
-89.5984483
0
LINE
8
0
10
278.7951012
20
-88.8556792
11
297.343512
21
-89.0984912
0
LINE
8
0
10
297.343512
20
-89.0984912
11
297.586324
21
-70.5500804
0
LINE
8
0
10
297.586324
20
-70.5500804
11
279.0379132
21
-70.3072684
0
LINE
8
0
10
279.0379132
20
-70.3072684
11
278.7951012
21
-88.8556792
0
LINE
8
0
10
302.4574395
20
-146.3203328
11
321.0058503
21
-146.5631448
0
LINE
8
0
10
321.0058503
20
-146.5631448
11
321.2486623
21
-128.014734
0
LINE
8
0
10
321.2486623
20
-128.014734
11
302.7002515
21
-127.771922
0
LINE
8
0
10
302.7002515
20
-127.771922
11
302.4574395
21
-146.3203328
0
LINE
8
0
10
297.3447556
20
-127.2017719
11
315.8931664
21
-127.4445839
0
LINE
8
0
10
315.8931664
20
-127.4445839
11
316.1359784
21
-108.8961731
0
LINE
8
0
10
316.1359784
20
-108.8961731
11
297.5875676
21
-108.6533611
0
LINE
8
0
10
297.5875676
20
-108.6533611
11
297.3447556
21
-127.2017719
0
LINE
8
0
10
297.5941124
20
-108.153404
11
316.1425232
21
-108.396216
0
LINE
8
0
10
316.1425232
20
-108.396216
11
316.3853352
21
-89.8478052
0
LINE
8
0
10
316.3853352
20
-89.8478052
11
297.8369244
21
-89.6049932
0
LINE
8
0
10
297.8369244
20
-89.6049932
11
297.5941124
21
-108.153404
0
LINE
8
0
10
297.8434691
20
-89.1050361
11
316.3918799
21
-89.3478481
0
LINE
8
0
10
316.3918799
20
-89.3478481
11
316.6346919
21
-70.7994373
0
LINE
8
0
10
316.6346919
20
-70.7994373
11
298.0862811
21
-70.5566253
0
LINE
8
0
10
298.0862811
20
-70.5566253
11
297.8434691
21
-89.1050361
0
LINE
8
0
10
316.3931236
20
-127.4511288
11
334.9415344
21
-127.6939408
0
LINE
8
0
10
334.9415344
20
-127.6939408
11
335.1843464
21
-109.14553
0
LINE
8
0
10
335.1843464
20
-109.14553
11
316.6359356
21
-108.902718
0
LINE
8
0
10
316.6359356
20
-108.902718
11
316.3931236
21
-127.4511288
0
LINE
8
0
10
322.0045209
20
-108.4729538
11
340.5529317
21
-108.7157658
0
LINE
8
0
10
340.5529317
20
-108.7157658
11
340.7957437
21
-90.167355
0
LINE
8
0
10
340.7957437
20
-90.167355
11
322.2473329
21
-89.924543
0
LINE
8
0
10
322.2473329
20
-89.924543
11
322.0045209
21
-108.4729538
0
LINE
8
0
10
316.8918371
20
-89.3543929
11
335.4402479
21
-89.5972049
0
LINE
8
0
10
335.4402479
20
-89.5972049
11
335.6830599
21
-71.0487941
0
LINE
8
0
10
335.6830599
20
-71.0487941
11
317.1346491
21
-70.8059821
0
LINE
8
0
10
317.1346491
20
-70.8059821
11
316.8918371
21
-89.3543929
0
LINE
8
0
10
335.9402051
20
-89.6037496
11
354.4886159
21
-89.8465616
0
LINE
8
0
10
354.4886159
20
-89.8465616
11
354.7314279
21
-71.2981508
0
LINE
8
0
10
354.7314279
20
-71.2981508
11
336.1830171
21
-71.0553388
0
LINE
8
0
10
336.1830171
20
-71.0553388
11
335.9402051
21
-89.6037496
0
LINE
8
0
10
337.8282726
20
-198.6266652
11
350.4200264
21
-185.0049826
0
LINE
8
0
10
350.4200264
20
-185.0049826
11
336.7983438
21
-172.4132288
0
LINE
8
0
10
336.7983438
20
-172.4132288
11
324.20659
21
-186.0349114
0
LINE
8
0
10
324.20659
20
-186.0349114
11
337.8282726
21
-198.6266652
0
LINE
8
0
10
323.8394288
20
-185.695511
11
336.4311826
21
-172.0738284
0
LINE
8
0
10
336.4311826
20
-172.0738284
11
322.8095
21
-159.4820746
0
LINE
8
0
10
322.8095
20
-159.4820746
11
310.2177462
21
-173.1037572
0
LINE
8
0
10
310.2177462
20
-173.1037572
11
323.8394288
21
-185.695511
0
LINE
8
0
10
350.7594268
20
-184.6378214
11
363.3511806
21
-171.0161388
0
LINE
8
0
10
363.3511806
20
-171.0161388
11
349.729498
21
-158.424385
0
LINE
8
0
10
349.729498
20
-158.424385
11
337.1377442
21
-172.0460676
0
LINE
8
0
10
337.1377442
20
-172.0460676
11
350.7594268
21
-184.6378214
0
LINE
8
0
10
336.770583
20
-171.7066672
11
349.3623368
21
-158.0849846
0
LINE
8
0
10
349.3623368
20
-158.0849846
11
335.7406542
21
-145.4932308
0
LINE
8
0
10
335.7406542
20
-145.4932308
11
323.1489004
21
-159.1149134
0
LINE
8
0
10
323.1489004
20
-159.1149134
11
336.770583
21
-171.7066672
0
LINE
8
0
10
366.9233695
20
-167.1517667
11
379.5151233
21
-153.5300841
0
LINE
8
0
10
379.5151233
20
-153.5300841
11
365.8934407
21
-140.9383303
0
LINE
8
0
10
365.8934407
20
-140.9383303
11
353.3016869
21
-154.5600129
0
LINE
8
0
10
353.3016869
20
-154.5600129
11
366.9233695
21
-167.1517667
0
LINE
8
0
10
352.9345257
20
-154.2206125
11
365.5262795
21
-140.5989299
0
LINE
8
0
10
365.5262795
20
-140.5989299
11
351.9045969
21
-128.0071761
0
LINE
8
0
10
351.9045969
20
-128.0071761
11
339.3128431
21
-141.6288587
0
LINE
8
0
10
339.3128431
20
-141.6288587
11
352.9345257
21
-154.2206125
0
LINE
8
0
10
379.8545238
20
-153.1629229
11
392.4462776
21
-139.5412403
0
LINE
8
0
10
392.4462776
20
-139.5412403
11
378.824595
21
-126.9494865
0
LINE
8
0
10
378.824595
20
-126.9494865
11
366.2328412
21
-140.5711691
0
LINE
8
0
10
366.2328412
20
-140.5711691
11
379.8545238
21
-153.1629229
0
LINE
8
0
10
365.86568
20
-140.2317687
11
378.4574338
21
-126.6100861
0
LINE
8
0
10
378.4574338
20
-126.6100861
11
364.8357512
21
-114.0183323
0
LINE
8
0
10
364.8357512
20
-114.0183323
11
352.2439974
21
-127.6400149
0
LINE
8
0
10
352.2439974
20
-127.6400149
11
365.86568
21
-140.2317687
0
LINE
8
0
10
364.2634002
20
-109.0261527
11
382.811811
21
-109.2689647
0
LINE
8
0
10
382.811811
20
-109.2689647
11
383.054623
21
-90.7205539
0
LINE
8
0
10
383.054623
20
-90.7205539
11
364.5062122
21
-90.4777419
0
LINE
8
0
10
364.5062122
20
-90.4777419
11
364.2634002
21
-109.0261527
0
LINE
8
0
10
364.5127569
20
-89.9777847
11
383.0611677
21
-90.2205967
0
LINE
8
0
10
383.0611677
20
-90.2205967
11
383.3039797
21
-71.6721859
0
LINE
8
0
10
383.3039797
20
-71.6721859
11
364.7555689
21
-71.4293739
0
LINE
8
0
10
364.7555689
20
-71.4293739
11
364.5127569
21
-89.9777847
0
LINE
8
0
10
383.3117681
20
-109.2755094
11
401.8601789
21
-109.5183214
0
LINE
8
0
10
401.8601789
20
-109.5183214
11
402.1029909
21
-90.9699106
0
LINE
8
0
10
402.1029909
20
-90.9699106
11
383.5545801
21
-90.7270986
0
LINE
8
0
10
383.5545801
20
-90.7270986
11
383.3117681
21
-109.2755094
0
LINE
8
0
10
383.5611249
20
-90.2271415
11
402.1095357
21
-90.4699535
0
LINE
8
0
10
402.1095357
20
-90.4699535
11
402.3523477
21
-71.9215427
0
LINE
8
0
10
402.3523477
20
-71.9215427
11
383.8039369
21
-71.6787307
0
LINE
8
0
10
383.8039369
20
-71.6787307
11
383.5611249
21
-90.2271415
0
ENDSEC
0
EOF