<?xml version="1.0"?>
<svg
  xmlns="http://www.w3.org/2000/svg"
  xmlns:xlink="http://www.w3.org/1999/xlink" version="1.1"
  preserveAspectRatio="xMinYMin meet"
  viewBox="13.1762103 55.322039 392.98855910000003 145.0615722"
  width="100%" height="100%"
>
  <g stroke="#000000" stroke-width="0.1%" fill="none" transform="matrix(1,0,0,-1,0,0)">
    <g stroke="rgb(0, 0, 0)"><path d="M13.2316779,-104.9369255L23.8037333,-60.9871093" /></g>
<g stroke="rgb(0, 0, 0)"><path d="M25.7250185,-59.4549984L36.6426895,-59.3280868" /></g>
<g stroke="rgb(0, 0, 0)"><path d="M36.7413811,-59.3245012L76.7575324,-56.8801927" /></g>
<g stroke="rgb(0, 0, 0)"><path d="M76.7979267,-56.8781351L97.7321084,-56.0238893" /></g>
<g stroke="rgb(0, 0, 0)"><path d="M97.9566486,-56.0273447L118.8534746,-57.5252551" /></g>
<g stroke="rgb(0, 0, 0)"><path d="M118.8994966,-57.5280212L150.3236516,-59.0534727" /></g>
<g stroke="rgb(0, 0, 0)"><path d="M151.5371614,-59.5402817L156.5005862,-63.8454971" /></g>
<g stroke="rgb(0, 0, 0)"><path d="M157.8197586,-64.3346396L168.3697945,-64.2888048" /></g>
<g stroke="rgb(0, 0, 0)"><path d="M169.6803213,-63.7920435L174.621322,-59.4558534" /></g>
<g stroke="rgb(0, 0, 0)"><path d="M175.8316956,-58.962037L206.6316826,-57.283381" /></g>
<g stroke="rgb(0, 0, 0)"><path d="M206.7088582,-57.2776754L227.5512497,-55.3307084" /></g>
<g stroke="rgb(0, 0, 0)"><path d="M227.7756631,-55.3224076L248.7175943,-55.7245203" /></g>
<g stroke="rgb(0, 0, 0)"><path d="M248.7729659,-55.726351L288.8373551,-57.6067826" /></g>
<g stroke="rgb(0, 0, 0)"><path d="M288.9194635,-57.6089479L404.1764282,-58.2808343" /></g>
<g stroke="rgb(0, 0, 0)"><path d="M406.1647354,-60.2924591L405.8773909,-109.5842116" /></g>
<g stroke="rgb(0, 0, 0)"><path d="M405.7959679,-110.1375244L398.1703394,-136.0328031" /></g>
<g stroke="rgb(0, 0, 0)"><path d="M340.4130207,-199.7305138L397.7302596,-136.8147341" /></g>
<g stroke="rgb(0, 0, 0)"><path d="M338.1844838,-200.2376311L302.013536,-185.604092" /></g>
<g stroke="rgb(0, 0, 0)"><path d="M269.1721753,-185.2710029L301.2751212,-185.4581459" /></g>
<g stroke="rgb(0, 0, 0)"><path d="M268.9959419,-185.2621915L250.3215035,-183.5000073" /></g>
<g stroke="rgb(0, 0, 0)"><path d="M250.1390965,-183.4911694L219.0169665,-183.4058123" /></g>
<g stroke="rgb(0, 0, 0)"><path d="M218.7016089,-183.4299559L205.5894291,-185.4863397" /></g>
<g stroke="rgb(0, 0, 0)"><path d="M205.4257017,-185.5051441L168.091112,-188.2405869" /></g>
<g stroke="rgb(0, 0, 0)"><path d="M167.9489674,-188.2459296L158.3542492,-188.2651208" /></g>
<g stroke="rgb(0, 0, 0)"><path d="M158.2156642,-188.2605914L120.8394668,-185.7397489" /></g>
<g stroke="rgb(0, 0, 0)"><path d="M120.7244064,-185.7286405L107.5348212,-184.0693055" /></g>
<g stroke="rgb(0, 0, 0)"><path d="M107.2468826,-184.0540303L76.1313155,-184.6499035" /></g>
<g stroke="rgb(0, 0, 0)"><path d="M75.9350839,-184.663335L57.3312794,-186.8600198" /></g>
<g stroke="rgb(0, 0, 0)"><path d="M26.7806134,-187.2263604L57.1200014,-186.8736828" /></g>
<g stroke="rgb(0, 0, 0)"><path d="M25.0583057,-186.2815754L14.2018033,-168.7986769" /></g>
<g stroke="rgb(0, 0, 0)"><path d="M13.900999,-167.7668442L13.1763454,-105.4279267" /></g>
<g stroke="rgb(0, 0, 0)"><path d="M 25.72501850070782 -59.45499841263259 A 2 2 0 0 1 23.803733314236013 -60.98710930406302" /></g>
<g stroke="rgb(0, 0, 0)"><path d="M 36.64268949929218 -59.32808678736741 A 2 2 0 0 1 36.74138110430754 -59.32450117104503" /></g>
<g stroke="rgb(0, 0, 0)"><path d="M 76.79792670133189 -56.87813507184497 A 2 2 0 0 1 76.75753249569246 -56.880192728954974" /></g>
<g stroke="rgb(0, 0, 0)"><path d="M 97.95664859545558 -56.02734468480159 A 2 2 0 0 1 97.73210840133189 -56.02388927184497" /></g>
<g stroke="rgb(0, 0, 0)"><path d="M 118.85347460454443 -57.525255115198405 A 2 2 0 0 1 118.89949659613647 -57.52802124664685" /></g>
<g stroke="rgb(0, 0, 0)"><path d="M 151.53716139816757 -59.540281704011946 A 2 2 0 0 1 150.3236516038635 -59.05347265335315" /></g>
<g stroke="rgb(0, 0, 0)"><path d="M 156.50058620183242 -63.84549709598806 A 2 2 0 0 1 157.81975860009936 -64.33463962523025" /></g>
<g stroke="rgb(0, 0, 0)"><path d="M 168.36979450009937 -64.28880482523026 A 2 2 0 0 1 169.6803212850213 -63.79204348185181" /></g>
<g stroke="rgb(0, 0, 0)"><path d="M 175.83169560433407 -58.962036951994 A 2 2 0 0 1 174.6213220149787 -59.455853318148186" /></g>
<g stroke="rgb(0, 0, 0)"><path d="M 206.63168259566592 -57.283380948006 A 2 2 0 0 1 206.70885819512188 -57.27767535515603" /></g>
<g stroke="rgb(0, 0, 0)"><path d="M 227.7756631002525 -55.32240758949424 A 2 2 0 0 1 227.55124970487813 -55.33070844484397" /></g>
<g stroke="rgb(0, 0, 0)"><path d="M 248.7729658974988 -55.726350981040966 A 2 2 0 0 1 248.7175943002525 -55.724520289494244" /></g>
<g stroke="rgb(0, 0, 0)"><path d="M 288.83735510250125 -57.60678261895904 A 2 2 0 0 1 288.91946350030656 -57.608947917808734" /></g>
<g stroke="rgb(0, 0, 0)"><path d="M 406.16473541780874 -60.29245909969346 A 2 2 0 0 1 404.1764281996935 -58.28083428219127" /></g>
<g stroke="rgb(0, 0, 0)"><path d="M 405.7959678634266 -110.13752438998148 A 2 2 0 0 1 405.8773909178087 -109.58421159969346" /></g>
<g stroke="rgb(0, 0, 0)"><path d="M 397.730259591625 -136.8147340915076 A 2 2 0 0 1 398.1703393634266 -136.03280308998148" /></g>
<g stroke="rgb(0, 0, 0)"><path d="M 338.1844838844497 -200.23763104111694 A 2 2 0 0 1 340.413020691625 -199.7305137915076" /></g>
<g stroke="rgb(0, 0, 0)"><path d="M 302.01353601555024 -185.60409205888305 A 2 2 0 0 1 301.27512119969344 -185.45814588219127" /></g>
<g stroke="rgb(0, 0, 0)"><path d="M 268.9959419035353 -185.26219147021993 A 2 2 0 0 1 269.17217530030655 -185.27100291780874" /></g>
<g stroke="rgb(0, 0, 0)"><path d="M 250.32150349646471 -183.5000073297801 A 2 2 0 0 1 250.13909649993406 -183.49116942186873" /></g>
<g stroke="rgb(0, 0, 0)"><path d="M 219.01696649993406 -183.40581232186872 A 2 2 0 0 1 218.70160890628492 -183.42995584332004" /></g>
<g stroke="rgb(0, 0, 0)"><path d="M 205.42570170530513 -185.5051440624555 A 2 2 0 0 1 205.5894290937151 -185.48633975667997" /></g>
<g stroke="rgb(0, 0, 0)"><path d="M 167.9489674001885 -188.2459295991956 A 2 2 0 0 1 168.09111200530512 -188.2405868624555" /></g>
<g stroke="rgb(0, 0, 0)"><path d="M 158.21566419855014 -188.26059140835318 A 2 2 0 0 1 158.35424920018852 -188.26512079919559" /></g>
<g stroke="rgb(0, 0, 0)"><path d="M 120.72440640344752 -185.7286404772695 A 2 2 0 0 1 120.83946679855013 -185.7397489083532" /></g>
<g stroke="rgb(0, 0, 0)"><path d="M 107.53482119655247 -184.0693055227305 A 2 2 0 0 1 107.24688259898146 -184.0540303335748" /></g>
<g stroke="rgb(0, 0, 0)"><path d="M 76.13131549898146 -184.6499035335748 A 2 2 0 0 1 75.93508389056412 -184.6633350154628" /></g>
<g stroke="rgb(0, 0, 0)"><path d="M 57.12000139929218 -186.87368278736741 A 2 2 0 0 1 57.33127940943589 -186.8600197845372" /></g>
<g stroke="rgb(0, 0, 0)"><path d="M 25.058305720076753 -186.28157534795605 A 2 2 0 0 1 26.78061339929218 -187.2263603873674" /></g>
<g stroke="rgb(0, 0, 0)"><path d="M 13.900999012632587 -167.76684419929217 A 2 2 0 0 1 14.201803420076752 -168.79867684795605" /></g>
<g stroke="rgb(0, 0, 0)"><path d="M 13.23167791423601 -104.93692550406303 A 2 2 0 0 1 13.176345412632587 -105.42792669929219" /></g>
<g stroke="rgb(0, 0, 0)"><path d="M28.8651392,-183.9519095L47.413886,-183.7362911" /></g>
<g stroke="rgb(0, 0, 0)"><path d="M47.413886,-183.7362911L47.1982676,-165.1875443" /></g>
<g stroke="rgb(0, 0, 0)"><path d="M47.1982676,-165.1875443L28.6495208,-165.4031627" /></g>
<g stroke="rgb(0, 0, 0)"><path d="M28.6495208,-165.4031627L28.8651392,-183.9519095" /></g>
<g stroke="rgb(0, 0, 0)"><path d="M23.3815645,-164.9643658L41.9303113,-164.7487474" /></g>
<g stroke="rgb(0, 0, 0)"><path d="M41.9303113,-164.7487474L41.7146929,-146.2000006" /></g>
<g stroke="rgb(0, 0, 0)"><path d="M41.7146929,-146.2000006L23.1659461,-146.415619" /></g>
<g stroke="rgb(0, 0, 0)"><path d="M23.1659461,-146.415619L23.3815645,-164.9643658" /></g>
<g stroke="rgb(0, 0, 0)"><path d="M23.1601344,-145.9156527L41.7088812,-145.7000343" /></g>
<g stroke="rgb(0, 0, 0)"><path d="M41.7088812,-145.7000343L41.4932628,-127.1512875" /></g>
<g stroke="rgb(0, 0, 0)"><path d="M41.4932628,-127.1512875L22.944516,-127.3669059" /></g>
<g stroke="rgb(0, 0, 0)"><path d="M22.944516,-127.3669059L23.1601344,-145.9156527" /></g>
<g stroke="rgb(0, 0, 0)"><path d="M22.9387042,-126.8669397L41.487451,-126.6513213" /></g>
<g stroke="rgb(0, 0, 0)"><path d="M41.487451,-126.6513213L41.2718326,-108.1025745" /></g>
<g stroke="rgb(0, 0, 0)"><path d="M41.2718326,-108.1025745L22.7230858,-108.3181929" /></g>
<g stroke="rgb(0, 0, 0)"><path d="M22.7230858,-108.3181929L22.9387042,-126.8669397" /></g>
<g stroke="rgb(0, 0, 0)"><path d="M27.9794185,-107.7570573L46.5281653,-107.5414389" /></g>
<g stroke="rgb(0, 0, 0)"><path d="M46.5281653,-107.5414389L46.3125469,-88.9926921" /></g>
<g stroke="rgb(0, 0, 0)"><path d="M46.3125469,-88.9926921L27.7638001,-89.2083105" /></g>
<g stroke="rgb(0, 0, 0)"><path d="M27.7638001,-89.2083105L27.9794185,-107.7570573" /></g>
<g stroke="rgb(0, 0, 0)"><path d="M27.7579883,-88.7083442L46.3067351,-88.4927258" /></g>
<g stroke="rgb(0, 0, 0)"><path d="M46.3067351,-88.4927258L46.0911167,-69.943979" /></g>
<g stroke="rgb(0, 0, 0)"><path d="M46.0911167,-69.943979L27.5423699,-70.1595974" /></g>
<g stroke="rgb(0, 0, 0)"><path d="M27.5423699,-70.1595974L27.7579883,-88.7083442" /></g>
<g stroke="rgb(0, 0, 0)"><path d="M47.9138522,-183.7304793L66.462599,-183.5148609" /></g>
<g stroke="rgb(0, 0, 0)"><path d="M66.462599,-183.5148609L66.2469806,-164.9661141" /></g>
<g stroke="rgb(0, 0, 0)"><path d="M66.2469806,-164.9661141L47.6982338,-165.1817325" /></g>
<g stroke="rgb(0, 0, 0)"><path d="M47.6982338,-165.1817325L47.9138522,-183.7304793" /></g>
<g stroke="rgb(0, 0, 0)"><path d="M47.6924221,-164.6817662L66.2411689,-164.4661478" /></g>
<g stroke="rgb(0, 0, 0)"><path d="M66.2411689,-164.4661478L66.0255505,-145.917401" /></g>
<g stroke="rgb(0, 0, 0)"><path d="M66.0255505,-145.917401L47.4768037,-146.1330194" /></g>
<g stroke="rgb(0, 0, 0)"><path d="M47.4768037,-146.1330194L47.6924221,-164.6817662" /></g>
<g stroke="rgb(0, 0, 0)"><path d="M47.4709919,-145.6330532L66.0197387,-145.4174348" /></g>
<g stroke="rgb(0, 0, 0)"><path d="M66.0197387,-145.4174348L65.8041203,-126.868688" /></g>
<g stroke="rgb(0, 0, 0)"><path d="M65.8041203,-126.868688L47.2553735,-127.0843064" /></g>
<g stroke="rgb(0, 0, 0)"><path d="M47.2553735,-127.0843064L47.4709919,-145.6330532" /></g>
<g stroke="rgb(0, 0, 0)"><path d="M47.2495617,-126.5843402L65.7983085,-126.3687218" /></g>
<g stroke="rgb(0, 0, 0)"><path d="M65.7983085,-126.3687218L65.5826901,-107.819975" /></g>
<g stroke="rgb(0, 0, 0)"><path d="M65.5826901,-107.819975L47.0339433,-108.0355934" /></g>
<g stroke="rgb(0, 0, 0)"><path d="M47.0339433,-108.0355934L47.2495617,-126.5843402" /></g>
<g stroke="rgb(0, 0, 0)"><path d="M47.0281316,-107.5356271L65.5768784,-107.3200087" /></g>
<g stroke="rgb(0, 0, 0)"><path d="M65.5768784,-107.3200087L65.36126,-88.7712619" /></g>
<g stroke="rgb(0, 0, 0)"><path d="M65.36126,-88.7712619L46.8125132,-88.9868803" /></g>
<g stroke="rgb(0, 0, 0)"><path d="M46.8125132,-88.9868803L47.0281316,-107.5356271" /></g>
<g stroke="rgb(0, 0, 0)"><path d="M66.7769724,-181.3477766L85.3266572,-181.4559114" /></g>
<g stroke="rgb(0, 0, 0)"><path d="M85.3266572,-181.4559114L85.434792,-162.9062266" /></g>
<g stroke="rgb(0, 0, 0)"><path d="M85.434792,-162.9062266L66.8851072,-162.7980918" /></g>
<g stroke="rgb(0, 0, 0)"><path d="M66.8851072,-162.7980918L66.7769724,-181.3477766" /></g>
<g stroke="rgb(0, 0, 0)"><path d="M66.8880218,-162.2981003L85.4377066,-162.4062351" /></g>
<g stroke="rgb(0, 0, 0)"><path d="M85.4377066,-162.4062351L85.5458414,-143.8565503" /></g>
<g stroke="rgb(0, 0, 0)"><path d="M85.5458414,-143.8565503L66.9961566,-143.7484155" /></g>
<g stroke="rgb(0, 0, 0)"><path d="M66.9961566,-143.7484155L66.8880218,-162.2981003" /></g>
<g stroke="rgb(0, 0, 0)"><path d="M66.9990712,-143.248424L85.548756,-143.3565588" /></g>
<g stroke="rgb(0, 0, 0)"><path d="M85.548756,-143.3565588L85.6568908,-124.806874" /></g>
<g stroke="rgb(0, 0, 0)"><path d="M85.6568908,-124.806874L67.107206,-124.6987392" /></g>
<g stroke="rgb(0, 0, 0)"><path d="M67.107206,-124.6987392L66.9990712,-143.248424" /></g>
<g stroke="rgb(0, 0, 0)"><path d="M67.1101206,-124.1987476L85.6598054,-124.3068824" /></g>
<g stroke="rgb(0, 0, 0)"><path d="M85.6598054,-124.3068824L85.7679402,-105.7571976" /></g>
<g stroke="rgb(0, 0, 0)"><path d="M85.7679402,-105.7571976L67.2182554,-105.6490628" /></g>
<g stroke="rgb(0, 0, 0)"><path d="M67.2182554,-105.6490628L67.1101206,-124.1987476" /></g>
<g stroke="rgb(0, 0, 0)"><path d="M67.22117,-105.1490713L85.7708548,-105.2572061" /></g>
<g stroke="rgb(0, 0, 0)"><path d="M85.7708548,-105.2572061L85.8789896,-86.7075213" /></g>
<g stroke="rgb(0, 0, 0)"><path d="M85.8789896,-86.7075213L67.3293048,-86.5993865" /></g>
<g stroke="rgb(0, 0, 0)"><path d="M67.3293048,-86.5993865L67.22117,-105.1490713" /></g>
<g stroke="rgb(0, 0, 0)"><path d="M67.3322194,-86.099395L85.8819042,-86.2075298" /></g>
<g stroke="rgb(0, 0, 0)"><path d="M85.8819042,-86.2075298L85.990039,-67.657845" /></g>
<g stroke="rgb(0, 0, 0)"><path d="M85.990039,-67.657845L67.4403542,-67.5497102" /></g>
<g stroke="rgb(0, 0, 0)"><path d="M67.4403542,-67.5497102L67.3322194,-86.099395" /></g>
<g stroke="rgb(0, 0, 0)"><path d="M85.6729742,-180.2946267L104.2179466,-180.7264817" /></g>
<g stroke="rgb(0, 0, 0)"><path d="M104.2179466,-180.7264817L104.6498016,-162.1815093" /></g>
<g stroke="rgb(0, 0, 0)"><path d="M104.6498016,-162.1815093L86.1048292,-161.7496543" /></g>
<g stroke="rgb(0, 0, 0)"><path d="M86.1048292,-161.7496543L85.6729742,-180.2946267" /></g>
<g stroke="rgb(0, 0, 0)"><path d="M86.1164694,-161.2497898L104.6614418,-161.6816448" /></g>
<g stroke="rgb(0, 0, 0)"><path d="M104.6614418,-161.6816448L105.0932968,-143.1366724" /></g>
<g stroke="rgb(0, 0, 0)"><path d="M105.0932968,-143.1366724L86.5483244,-142.7048174" /></g>
<g stroke="rgb(0, 0, 0)"><path d="M86.5483244,-142.7048174L86.1164694,-161.2497898" /></g>
<g stroke="rgb(0, 0, 0)"><path d="M86.5599646,-142.2049529L105.104937,-142.6368079" /></g>
<g stroke="rgb(0, 0, 0)"><path d="M105.104937,-142.6368079L105.536792,-124.0918355" /></g>
<g stroke="rgb(0, 0, 0)"><path d="M105.536792,-124.0918355L86.9918196,-123.6599805" /></g>
<g stroke="rgb(0, 0, 0)"><path d="M86.9918196,-123.6599805L86.5599646,-142.2049529" /></g>
<g stroke="rgb(0, 0, 0)"><path d="M87.0034598,-123.1601159L105.5484322,-123.5919709" /></g>
<g stroke="rgb(0, 0, 0)"><path d="M105.5484322,-123.5919709L105.9802872,-105.0469985" /></g>
<g stroke="rgb(0, 0, 0)"><path d="M105.9802872,-105.0469985L87.4353148,-104.6151435" /></g>
<g stroke="rgb(0, 0, 0)"><path d="M87.4353148,-104.6151435L87.0034598,-123.1601159" /></g>
<g stroke="rgb(0, 0, 0)"><path d="M87.446955,-104.115279L105.9919274,-104.547134" /></g>
<g stroke="rgb(0, 0, 0)"><path d="M105.9919274,-104.547134L106.4237824,-86.0021616" /></g>
<g stroke="rgb(0, 0, 0)"><path d="M106.4237824,-86.0021616L87.87881,-85.5703066" /></g>
<g stroke="rgb(0, 0, 0)"><path d="M87.87881,-85.5703066L87.446955,-104.115279" /></g>
<g stroke="rgb(0, 0, 0)"><path d="M87.8904502,-85.0704421L106.4354226,-85.5022971" /></g>
<g stroke="rgb(0, 0, 0)"><path d="M106.4354226,-85.5022971L106.8672776,-66.9573247" /></g>
<g stroke="rgb(0, 0, 0)"><path d="M106.8672776,-66.9573247L88.3223052,-66.5254697" /></g>
<g stroke="rgb(0, 0, 0)"><path d="M88.3223052,-66.5254697L87.8904502,-85.0704421" /></g>
<g stroke="rgb(0, 0, 0)"><path d="M105.3137229,-162.5366798L123.8483339,-163.2921234" /></g>
<g stroke="rgb(0, 0, 0)"><path d="M123.8483339,-163.2921234L124.6037775,-144.7575124" /></g>
<g stroke="rgb(0, 0, 0)"><path d="M124.6037775,-144.7575124L106.0691665,-144.0020688" /></g>
<g stroke="rgb(0, 0, 0)"><path d="M106.0691665,-144.0020688L105.3137229,-162.5366798" /></g>
<g stroke="rgb(0, 0, 0)"><path d="M106.0895288,-143.5024836L124.6241398,-144.2579272" /></g>
<g stroke="rgb(0, 0, 0)"><path d="M124.6241398,-144.2579272L125.3795834,-125.7233162" /></g>
<g stroke="rgb(0, 0, 0)"><path d="M125.3795834,-125.7233162L106.8449724,-124.9678726" /></g>
<g stroke="rgb(0, 0, 0)"><path d="M106.8449724,-124.9678726L106.0895288,-143.5024836" /></g>
<g stroke="rgb(0, 0, 0)"><path d="M106.8653348,-124.4682875L125.3999458,-125.2237311" /></g>
<g stroke="rgb(0, 0, 0)"><path d="M125.3999458,-125.2237311L126.1553894,-106.6891201" /></g>
<g stroke="rgb(0, 0, 0)"><path d="M126.1553894,-106.6891201L107.6207784,-105.9336765" /></g>
<g stroke="rgb(0, 0, 0)"><path d="M107.6207784,-105.9336765L106.8653348,-124.4682875" /></g>
<g stroke="rgb(0, 0, 0)"><path d="M107.6411407,-105.4340913L126.1757517,-106.1895349" /></g>
<g stroke="rgb(0, 0, 0)"><path d="M126.1757517,-106.1895349L126.9311953,-87.6549239" /></g>
<g stroke="rgb(0, 0, 0)"><path d="M126.9311953,-87.6549239L108.3965843,-86.8994803" /></g>
<g stroke="rgb(0, 0, 0)"><path d="M108.3965843,-86.8994803L107.6411407,-105.4340913" /></g>
<g stroke="rgb(0, 0, 0)"><path d="M108.4169466,-86.3998951L126.9515576,-87.1553387" /></g>
<g stroke="rgb(0, 0, 0)"><path d="M126.9515576,-87.1553387L127.7070012,-68.6207277" /></g>
<g stroke="rgb(0, 0, 0)"><path d="M127.7070012,-68.6207277L109.1723902,-67.8652841" /></g>
<g stroke="rgb(0, 0, 0)"><path d="M109.1723902,-67.8652841L108.4169466,-86.3998951" /></g>
<g stroke="rgb(0, 0, 0)"><path d="M124.1614343,-182.6209094L142.6960453,-183.376353" /></g>
<g stroke="rgb(0, 0, 0)"><path d="M142.6960453,-183.376353L143.4514889,-164.841742" /></g>
<g stroke="rgb(0, 0, 0)"><path d="M143.4514889,-164.841742L124.9168779,-164.0862984" /></g>
<g stroke="rgb(0, 0, 0)"><path d="M124.9168779,-164.0862984L124.1614343,-182.6209094" /></g>
<g stroke="rgb(0, 0, 0)"><path d="M124.9372402,-163.5867132L143.4718512,-164.3421568" /></g>
<g stroke="rgb(0, 0, 0)"><path d="M143.4718512,-164.3421568L144.2272948,-145.8075458" /></g>
<g stroke="rgb(0, 0, 0)"><path d="M144.2272948,-145.8075458L125.6926838,-145.0521022" /></g>
<g stroke="rgb(0, 0, 0)"><path d="M125.6926838,-145.0521022L124.9372402,-163.5867132" /></g>
<g stroke="rgb(0, 0, 0)"><path d="M125.7130461,-144.552517L144.2476571,-145.3079606" /></g>
<g stroke="rgb(0, 0, 0)"><path d="M144.2476571,-145.3079606L145.0031007,-126.7733496" /></g>
<g stroke="rgb(0, 0, 0)"><path d="M145.0031007,-126.7733496L126.4684897,-126.017906" /></g>
<g stroke="rgb(0, 0, 0)"><path d="M126.4684897,-126.017906L125.7130461,-144.552517" /></g>
<g stroke="rgb(0, 0, 0)"><path d="M126.4888521,-125.5183209L145.0234631,-126.2737645" /></g>
<g stroke="rgb(0, 0, 0)"><path d="M145.0234631,-126.2737645L145.7789067,-107.7391535" /></g>
<g stroke="rgb(0, 0, 0)"><path d="M145.7789067,-107.7391535L127.2442957,-106.9837099" /></g>
<g stroke="rgb(0, 0, 0)"><path d="M127.2442957,-106.9837099L126.4888521,-125.5183209" /></g>
<g stroke="rgb(0, 0, 0)"><path d="M127.264658,-106.4841247L145.799269,-107.2395683" /></g>
<g stroke="rgb(0, 0, 0)"><path d="M145.799269,-107.2395683L146.5547126,-88.7049573" /></g>
<g stroke="rgb(0, 0, 0)"><path d="M146.5547126,-88.7049573L128.0201016,-87.9495137" /></g>
<g stroke="rgb(0, 0, 0)"><path d="M128.0201016,-87.9495137L127.264658,-106.4841247" /></g>
<g stroke="rgb(0, 0, 0)"><path d="M128.0404639,-87.4499285L146.5750749,-88.2053721" /></g>
<g stroke="rgb(0, 0, 0)"><path d="M146.5750749,-88.2053721L147.3305185,-69.6707611" /></g>
<g stroke="rgb(0, 0, 0)"><path d="M147.3305185,-69.6707611L128.7959075,-68.9153175" /></g>
<g stroke="rgb(0, 0, 0)"><path d="M128.7959075,-68.9153175L128.0404639,-87.4499285" /></g>
<g stroke="rgb(0, 0, 0)"><path d="M183.5803779,-183.2666338L202.1103004,-182.4038049" /></g>
<g stroke="rgb(0, 0, 0)"><path d="M202.1103004,-182.4038049L201.2474715,-163.8738824" /></g>
<g stroke="rgb(0, 0, 0)"><path d="M201.2474715,-163.8738824L182.717549,-164.7367113" /></g>
<g stroke="rgb(0, 0, 0)"><path d="M182.717549,-164.7367113L183.5803779,-183.2666338" /></g>
<g stroke="rgb(0, 0, 0)"><path d="M183.2936427,-164.2093442L201.8235652,-163.3465153" /></g>
<g stroke="rgb(0, 0, 0)"><path d="M201.8235652,-163.3465153L200.9607363,-144.8165928" /></g>
<g stroke="rgb(0, 0, 0)"><path d="M200.9607363,-144.8165928L182.4308138,-145.6794217" /></g>
<g stroke="rgb(0, 0, 0)"><path d="M182.4308138,-145.6794217L183.2936427,-164.2093442" /></g>
<g stroke="rgb(0, 0, 0)"><path d="M182.4075569,-145.1799629L200.9374794,-144.317134" /></g>
<g stroke="rgb(0, 0, 0)"><path d="M200.9374794,-144.317134L200.0746505,-125.7872115" /></g>
<g stroke="rgb(0, 0, 0)"><path d="M200.0746505,-125.7872115L181.544728,-126.6500404" /></g>
<g stroke="rgb(0, 0, 0)"><path d="M181.544728,-126.6500404L182.4075569,-145.1799629" /></g>
<g stroke="rgb(0, 0, 0)"><path d="M181.5214712,-126.1505816L200.0513937,-125.2877527" /></g>
<g stroke="rgb(0, 0, 0)"><path d="M200.0513937,-125.2877527L199.1885648,-106.7578302" /></g>
<g stroke="rgb(0, 0, 0)"><path d="M199.1885648,-106.7578302L180.6586423,-107.6206591" /></g>
<g stroke="rgb(0, 0, 0)"><path d="M180.6586423,-107.6206591L181.5214712,-126.1505816" /></g>
<g stroke="rgb(0, 0, 0)"><path d="M180.6353854,-107.1212002L199.1653079,-106.2583713" /></g>
<g stroke="rgb(0, 0, 0)"><path d="M199.1653079,-106.2583713L198.302479,-87.7284488" /></g>
<g stroke="rgb(0, 0, 0)"><path d="M198.302479,-87.7284488L179.7725565,-88.5912777" /></g>
<g stroke="rgb(0, 0, 0)"><path d="M179.7725565,-88.5912777L180.6353854,-107.1212002" /></g>
<g stroke="rgb(0, 0, 0)"><path d="M179.7492996,-88.0918189L198.2792221,-87.22899" /></g>
<g stroke="rgb(0, 0, 0)"><path d="M198.2792221,-87.22899L197.4163932,-68.6990675" /></g>
<g stroke="rgb(0, 0, 0)"><path d="M197.4163932,-68.6990675L178.8864707,-69.5618964" /></g>
<g stroke="rgb(0, 0, 0)"><path d="M178.8864707,-69.5618964L179.7492996,-88.0918189" /></g>
<g stroke="rgb(0, 0, 0)"><path d="M202.3113956,-163.073529L220.8413181,-162.2107001" /></g>
<g stroke="rgb(0, 0, 0)"><path d="M220.8413181,-162.2107001L219.9784892,-143.6807776" /></g>
<g stroke="rgb(0, 0, 0)"><path d="M219.9784892,-143.6807776L201.4485667,-144.5436065" /></g>
<g stroke="rgb(0, 0, 0)"><path d="M201.4485667,-144.5436065L202.3113956,-163.073529" /></g>
<g stroke="rgb(0, 0, 0)"><path d="M201.4253098,-144.0441477L219.9552323,-143.1813188" /></g>
<g stroke="rgb(0, 0, 0)"><path d="M219.9552323,-143.1813188L219.0924034,-124.6513963" /></g>
<g stroke="rgb(0, 0, 0)"><path d="M219.0924034,-124.6513963L200.5624809,-125.5142252" /></g>
<g stroke="rgb(0, 0, 0)"><path d="M200.5624809,-125.5142252L201.4253098,-144.0441477" /></g>
<g stroke="rgb(0, 0, 0)"><path d="M200.5392241,-125.0147664L219.0691466,-124.1519375" /></g>
<g stroke="rgb(0, 0, 0)"><path d="M219.0691466,-124.1519375L218.2063177,-105.622015" /></g>
<g stroke="rgb(0, 0, 0)"><path d="M218.2063177,-105.622015L199.6763952,-106.4848439" /></g>
<g stroke="rgb(0, 0, 0)"><path d="M199.6763952,-106.4848439L200.5392241,-125.0147664" /></g>
<g stroke="rgb(0, 0, 0)"><path d="M199.6531383,-105.9853851L218.1830608,-105.1225562" /></g>
<g stroke="rgb(0, 0, 0)"><path d="M218.1830608,-105.1225562L217.3202319,-86.5926337" /></g>
<g stroke="rgb(0, 0, 0)"><path d="M217.3202319,-86.5926337L198.7903094,-87.4554626" /></g>
<g stroke="rgb(0, 0, 0)"><path d="M198.7903094,-87.4554626L199.6531383,-105.9853851" /></g>
<g stroke="rgb(0, 0, 0)"><path d="M198.7670525,-86.9560037L217.296975,-86.0931748" /></g>
<g stroke="rgb(0, 0, 0)"><path d="M217.296975,-86.0931748L216.4341461,-67.5632523" /></g>
<g stroke="rgb(0, 0, 0)"><path d="M216.4341461,-67.5632523L197.9042236,-68.4260812" /></g>
<g stroke="rgb(0, 0, 0)"><path d="M197.9042236,-68.4260812L198.7670525,-86.9560037" /></g>
<g stroke="rgb(0, 0, 0)"><path d="M222.0124692,-180.0622634L240.5546279,-179.5229577" /></g>
<g stroke="rgb(0, 0, 0)"><path d="M240.5546279,-179.5229577L240.0153222,-160.980799" /></g>
<g stroke="rgb(0, 0, 0)"><path d="M240.0153222,-160.980799L221.4731635,-161.5201047" /></g>
<g stroke="rgb(0, 0, 0)"><path d="M221.4731635,-161.5201047L222.0124692,-180.0622634" /></g>
<g stroke="rgb(0, 0, 0)"><path d="M221.4586269,-161.020316L240.0007856,-160.4810103" /></g>
<g stroke="rgb(0, 0, 0)"><path d="M240.0007856,-160.4810103L239.4614799,-141.9388516" /></g>
<g stroke="rgb(0, 0, 0)"><path d="M239.4614799,-141.9388516L220.9193212,-142.4781573" /></g>
<g stroke="rgb(0, 0, 0)"><path d="M220.9193212,-142.4781573L221.4586269,-161.020316" /></g>
<g stroke="rgb(0, 0, 0)"><path d="M220.9047846,-141.9783687L239.4469433,-141.439063" /></g>
<g stroke="rgb(0, 0, 0)"><path d="M239.4469433,-141.439063L238.9076376,-122.8969043" /></g>
<g stroke="rgb(0, 0, 0)"><path d="M238.9076376,-122.8969043L220.3654789,-123.43621" /></g>
<g stroke="rgb(0, 0, 0)"><path d="M220.3654789,-123.43621L220.9047846,-141.9783687" /></g>
<g stroke="rgb(0, 0, 0)"><path d="M220.3509423,-122.9364213L238.893101,-122.3971156" /></g>
<g stroke="rgb(0, 0, 0)"><path d="M238.893101,-122.3971156L238.3537953,-103.8549569" /></g>
<g stroke="rgb(0, 0, 0)"><path d="M238.3537953,-103.8549569L219.8116366,-104.3942626" /></g>
<g stroke="rgb(0, 0, 0)"><path d="M219.8116366,-104.3942626L220.3509423,-122.9364213" /></g>
<g stroke="rgb(0, 0, 0)"><path d="M219.7971001,-103.894474L238.3392588,-103.3551683" /></g>
<g stroke="rgb(0, 0, 0)"><path d="M238.3392588,-103.3551683L237.7999531,-84.8130096" /></g>
<g stroke="rgb(0, 0, 0)"><path d="M237.7999531,-84.8130096L219.2577944,-85.3523153" /></g>
<g stroke="rgb(0, 0, 0)"><path d="M219.2577944,-85.3523153L219.7971001,-103.894474" /></g>
<g stroke="rgb(0, 0, 0)"><path d="M219.2432578,-84.8525266L237.7854165,-84.3132209" /></g>
<g stroke="rgb(0, 0, 0)"><path d="M237.7854165,-84.3132209L237.2461108,-65.7710622" /></g>
<g stroke="rgb(0, 0, 0)"><path d="M237.2461108,-65.7710622L218.7039521,-66.3103679" /></g>
<g stroke="rgb(0, 0, 0)"><path d="M218.7039521,-66.3103679L219.2432578,-84.8525266" /></g>
<g stroke="rgb(0, 0, 0)"><path d="M240.9183519,-180.3494488L259.4670987,-180.1338304" /></g>
<g stroke="rgb(0, 0, 0)"><path d="M259.4670987,-180.1338304L259.2514803,-161.5850836" /></g>
<g stroke="rgb(0, 0, 0)"><path d="M259.2514803,-161.5850836L240.7027335,-161.800702" /></g>
<g stroke="rgb(0, 0, 0)"><path d="M240.7027335,-161.800702L240.9183519,-180.3494488" /></g>
<g stroke="rgb(0, 0, 0)"><path d="M240.6969218,-161.3007357L259.2456686,-161.0851173" /></g>
<g stroke="rgb(0, 0, 0)"><path d="M259.2456686,-161.0851173L259.0300502,-142.5363705" /></g>
<g stroke="rgb(0, 0, 0)"><path d="M259.0300502,-142.5363705L240.4813034,-142.7519889" /></g>
<g stroke="rgb(0, 0, 0)"><path d="M240.4813034,-142.7519889L240.6969218,-161.3007357" /></g>
<g stroke="rgb(0, 0, 0)"><path d="M240.4754916,-142.2520227L259.0242384,-142.0364043" /></g>
<g stroke="rgb(0, 0, 0)"><path d="M259.0242384,-142.0364043L258.80862,-123.4876575" /></g>
<g stroke="rgb(0, 0, 0)"><path d="M258.80862,-123.4876575L240.2598732,-123.7032759" /></g>
<g stroke="rgb(0, 0, 0)"><path d="M240.2598732,-123.7032759L240.4754916,-142.2520227" /></g>
<g stroke="rgb(0, 0, 0)"><path d="M240.2540614,-123.2033096L258.8028082,-122.9876912" /></g>
<g stroke="rgb(0, 0, 0)"><path d="M258.8028082,-122.9876912L258.5871898,-104.4389444" /></g>
<g stroke="rgb(0, 0, 0)"><path d="M258.5871898,-104.4389444L240.038443,-104.6545628" /></g>
<g stroke="rgb(0, 0, 0)"><path d="M240.038443,-104.6545628L240.2540614,-123.2033096" /></g>
<g stroke="rgb(0, 0, 0)"><path d="M240.0326312,-104.1545966L258.581378,-103.9389782" /></g>
<g stroke="rgb(0, 0, 0)"><path d="M258.581378,-103.9389782L258.3657596,-85.3902314" /></g>
<g stroke="rgb(0, 0, 0)"><path d="M258.3657596,-85.3902314L239.8170128,-85.6058498" /></g>
<g stroke="rgb(0, 0, 0)"><path d="M239.8170128,-85.6058498L240.0326312,-104.1545966" /></g>
<g stroke="rgb(0, 0, 0)"><path d="M239.8112011,-85.1058836L258.3599479,-84.8902652" /></g>
<g stroke="rgb(0, 0, 0)"><path d="M258.3599479,-84.8902652L258.1443295,-66.3415184" /></g>
<g stroke="rgb(0, 0, 0)"><path d="M258.1443295,-66.3415184L239.5955827,-66.5571368" /></g>
<g stroke="rgb(0, 0, 0)"><path d="M239.5955827,-66.5571368L239.8112011,-85.1058836" /></g>
<g stroke="rgb(0, 0, 0)"><path d="M259.8279666,-181.9664759L278.3776514,-182.0746107" /></g>
<g stroke="rgb(0, 0, 0)"><path d="M278.3776514,-182.0746107L278.4857862,-163.5249259" /></g>
<g stroke="rgb(0, 0, 0)"><path d="M278.4857862,-163.5249259L259.9361014,-163.4167911" /></g>
<g stroke="rgb(0, 0, 0)"><path d="M259.9361014,-163.4167911L259.8279666,-181.9664759" /></g>
<g stroke="rgb(0, 0, 0)"><path d="M259.939016,-162.9167996L278.4887008,-163.0249344" /></g>
<g stroke="rgb(0, 0, 0)"><path d="M278.4887008,-163.0249344L278.5968356,-144.4752496" /></g>
<g stroke="rgb(0, 0, 0)"><path d="M278.5968356,-144.4752496L260.0471508,-144.3671148" /></g>
<g stroke="rgb(0, 0, 0)"><path d="M260.0471508,-144.3671148L259.939016,-162.9167996" /></g>
<g stroke="rgb(0, 0, 0)"><path d="M260.0500654,-143.8671232L278.5997502,-143.975258" /></g>
<g stroke="rgb(0, 0, 0)"><path d="M278.5997502,-143.975258L278.707885,-125.4255732" /></g>
<g stroke="rgb(0, 0, 0)"><path d="M278.707885,-125.4255732L260.1582002,-125.3174384" /></g>
<g stroke="rgb(0, 0, 0)"><path d="M260.1582002,-125.3174384L260.0500654,-143.8671232" /></g>
<g stroke="rgb(0, 0, 0)"><path d="M260.1611148,-124.8174469L278.7107996,-124.9255817" /></g>
<g stroke="rgb(0, 0, 0)"><path d="M278.7107996,-124.9255817L278.8189344,-106.3758969" /></g>
<g stroke="rgb(0, 0, 0)"><path d="M278.8189344,-106.3758969L260.2692496,-106.2677621" /></g>
<g stroke="rgb(0, 0, 0)"><path d="M260.2692496,-106.2677621L260.1611148,-124.8174469" /></g>
<g stroke="rgb(0, 0, 0)"><path d="M260.2721642,-105.7677706L278.821849,-105.8759054" /></g>
<g stroke="rgb(0, 0, 0)"><path d="M278.821849,-105.8759054L278.9299838,-87.3262206" /></g>
<g stroke="rgb(0, 0, 0)"><path d="M278.9299838,-87.3262206L260.380299,-87.2180858" /></g>
<g stroke="rgb(0, 0, 0)"><path d="M260.380299,-87.2180858L260.2721642,-105.7677706" /></g>
<g stroke="rgb(0, 0, 0)"><path d="M278.877643,-182.0775253L297.4273278,-182.1856601" /></g>
<g stroke="rgb(0, 0, 0)"><path d="M297.4273278,-182.1856601L297.5354626,-163.6359753" /></g>
<g stroke="rgb(0, 0, 0)"><path d="M297.5354626,-163.6359753L278.9857778,-163.5278405" /></g>
<g stroke="rgb(0, 0, 0)"><path d="M278.9857778,-163.5278405L278.877643,-182.0775253" /></g>
<g stroke="rgb(0, 0, 0)"><path d="M284.3511013,-163.0591089L302.9007861,-163.1672437" /></g>
<g stroke="rgb(0, 0, 0)"><path d="M302.9007861,-163.1672437L303.0089209,-144.6175589" /></g>
<g stroke="rgb(0, 0, 0)"><path d="M303.0089209,-144.6175589L284.4592361,-144.5094241" /></g>
<g stroke="rgb(0, 0, 0)"><path d="M284.4592361,-144.5094241L284.3511013,-163.0591089" /></g>
<g stroke="rgb(0, 0, 0)"><path d="M279.0997418,-143.9781726L297.6494266,-144.0863074" /></g>
<g stroke="rgb(0, 0, 0)"><path d="M297.6494266,-144.0863074L297.7575614,-125.5366226" /></g>
<g stroke="rgb(0, 0, 0)"><path d="M297.7575614,-125.5366226L279.2078766,-125.4284878" /></g>
<g stroke="rgb(0, 0, 0)"><path d="M279.2078766,-125.4284878L279.0997418,-143.9781726" /></g>
<g stroke="rgb(0, 0, 0)"><path d="M279.2107911,-124.9284963L297.7604759,-125.0366311" /></g>
<g stroke="rgb(0, 0, 0)"><path d="M297.7604759,-125.0366311L297.8686107,-106.4869463" /></g>
<g stroke="rgb(0, 0, 0)"><path d="M297.8686107,-106.4869463L279.3189259,-106.3788115" /></g>
<g stroke="rgb(0, 0, 0)"><path d="M279.3189259,-106.3788115L279.2107911,-124.9284963" /></g>
<g stroke="rgb(0, 0, 0)"><path d="M279.3218405,-105.87882L297.8715253,-105.9869548" /></g>
<g stroke="rgb(0, 0, 0)"><path d="M297.8715253,-105.9869548L297.9796601,-87.43727" /></g>
<g stroke="rgb(0, 0, 0)"><path d="M297.9796601,-87.43727L279.4299753,-87.3291352" /></g>
<g stroke="rgb(0, 0, 0)"><path d="M279.4299753,-87.3291352L279.3218405,-105.87882" /></g>
<g stroke="rgb(0, 0, 0)"><path d="M279.4328899,-86.8291436L297.9825747,-86.9372784" /></g>
<g stroke="rgb(0, 0, 0)"><path d="M297.9825747,-86.9372784L298.0907095,-68.3875936" /></g>
<g stroke="rgb(0, 0, 0)"><path d="M298.0907095,-68.3875936L279.5410247,-68.2794588" /></g>
<g stroke="rgb(0, 0, 0)"><path d="M279.5410247,-68.2794588L279.4328899,-86.8291436" /></g>
<g stroke="rgb(0, 0, 0)"><path d="M303.511827,-144.1204821L322.0615118,-144.2286169" /></g>
<g stroke="rgb(0, 0, 0)"><path d="M322.0615118,-144.2286169L322.1696466,-125.6789321" /></g>
<g stroke="rgb(0, 0, 0)"><path d="M322.1696466,-125.6789321L303.6199618,-125.5707973" /></g>
<g stroke="rgb(0, 0, 0)"><path d="M303.6199618,-125.5707973L303.511827,-144.1204821" /></g>
<g stroke="rgb(0, 0, 0)"><path d="M298.2604675,-125.0395458L316.8101523,-125.1476806" /></g>
<g stroke="rgb(0, 0, 0)"><path d="M316.8101523,-125.1476806L316.9182871,-106.5979958" /></g>
<g stroke="rgb(0, 0, 0)"><path d="M316.9182871,-106.5979958L298.3686023,-106.489861" /></g>
<g stroke="rgb(0, 0, 0)"><path d="M298.3686023,-106.489861L298.2604675,-125.0395458" /></g>
<g stroke="rgb(0, 0, 0)"><path d="M298.3715169,-105.9898695L316.9212017,-106.0980043" /></g>
<g stroke="rgb(0, 0, 0)"><path d="M316.9212017,-106.0980043L317.0293365,-87.5483195" /></g>
<g stroke="rgb(0, 0, 0)"><path d="M317.0293365,-87.5483195L298.4796517,-87.4401847" /></g>
<g stroke="rgb(0, 0, 0)"><path d="M298.4796517,-87.4401847L298.3715169,-105.9898695" /></g>
<g stroke="rgb(0, 0, 0)"><path d="M298.4825663,-86.9401931L317.0322511,-87.0483279" /></g>
<g stroke="rgb(0, 0, 0)"><path d="M317.0322511,-87.0483279L317.1403859,-68.4986431" /></g>
<g stroke="rgb(0, 0, 0)"><path d="M317.1403859,-68.4986431L298.5907011,-68.3905083" /></g>
<g stroke="rgb(0, 0, 0)"><path d="M298.5907011,-68.3905083L298.4825663,-86.9401931" /></g>
<g stroke="rgb(0, 0, 0)"><path d="M317.3101438,-125.1505953L335.8598286,-125.2587301" /></g>
<g stroke="rgb(0, 0, 0)"><path d="M335.8598286,-125.2587301L335.9679634,-106.7090453" /></g>
<g stroke="rgb(0, 0, 0)"><path d="M335.9679634,-106.7090453L317.4182786,-106.6009105" /></g>
<g stroke="rgb(0, 0, 0)"><path d="M317.4182786,-106.6009105L317.3101438,-125.1505953" /></g>
<g stroke="rgb(0, 0, 0)"><path d="M322.7836021,-106.1321789L355.0205544,-106.320103" /></g>
<g stroke="rgb(0, 0, 0)"><path d="M322.8917369,-87.5824941L355.1286892,-87.7704182" /></g>
<g stroke="rgb(0, 0, 0)"><path d="M322.8917369,-87.5824941L322.7836021,-106.1321789" /></g>
<g stroke="rgb(0, 0, 0)"><path d="M317.5322426,-87.0512426L336.0819274,-87.1593774" /></g>
<g stroke="rgb(0, 0, 0)"><path d="M336.0819274,-87.1593774L336.1900622,-68.6096926" /></g>
<g stroke="rgb(0, 0, 0)"><path d="M336.1900622,-68.6096926L317.6403774,-68.5015578" /></g>
<g stroke="rgb(0, 0, 0)"><path d="M317.6403774,-68.5015578L317.5322426,-87.0512426" /></g>
<g stroke="rgb(0, 0, 0)"><path d="M351.7119031,-182.5021102L354.5763569,-182.5188084" /></g>
<g stroke="rgb(0, 0, 0)"><path d="M354.5763569,-182.5188084L354.5949022,-179.3375102" /></g>
<g stroke="rgb(0, 0, 0)"><path d="M343.5611862,-163.9042806L342.8883811,-163.9003585" /></g>
<g stroke="rgb(0, 0, 0)"><path d="M336.1134146,-167.5306706L336.1094925,-168.2034756" /></g>
<g stroke="rgb(0, 0, 0)"><path d="M336.0910824,-171.3615929L336.0867264,-172.1088186" /></g>
<g stroke="rgb(0, 0, 0)"><path d="M343.3414903,-163.4029913L344.0142953,-163.4069134" /></g>
<g stroke="rgb(0, 0, 0)"><path d="M354.711244,-159.3799537L354.7525241,-152.2986817" /></g>
<g stroke="rgb(0, 0, 0)"><path d="M354.756507,-151.6154413L354.7608629,-150.8682157" /></g>
<g stroke="rgb(0, 0, 0)"><path d="M346.6000709,-144.871672L338.7355217,-144.8258258" /></g>
<g stroke="rgb(0, 0, 0)"><path d="M338.1831395,-144.3225972L346.0476887,-144.3684434" /></g>
<g stroke="rgb(0, 0, 0)"><path d="M354.8980336,-127.3376186L354.9019557,-126.6648136" /></g>
<g stroke="rgb(0, 0, 0)"><path d="M354.023606,-125.8646236L353.2763803,-125.8602676" /></g>
<g stroke="rgb(0, 0, 0)"><path d="M352.4542283,-125.8554749L336.3569056,-125.7616361" /></g>
<g stroke="rgb(0, 0, 0)"><path d="M336.3569056,-125.7616361L336.252687,-143.6395242" /></g>
<g stroke="rgb(0, 0, 0)"><path d="M336.3598202,-125.2616446L353.4712238,-125.361395" /></g>
<g stroke="rgb(0, 0, 0)"><path d="M354.9224676,-123.146147L355.0176398,-106.8200946" /></g>
<g stroke="rgb(0, 0, 0)"><path d="M355.0176398,-106.8200946L336.467955,-106.7119598" /></g>
<g stroke="rgb(0, 0, 0)"><path d="M336.467955,-106.7119598L336.3598202,-125.2616446" /></g>
<g stroke="rgb(0, 0, 0)"><path d="M355.0205544,-106.320103L355.1286892,-87.7704182" /></g>
<g stroke="rgb(0, 0, 0)"><path d="M336.581919,-87.1622919L355.1316038,-87.2704267" /></g>
<g stroke="rgb(0, 0, 0)"><path d="M355.1316038,-87.2704267L355.2397386,-68.7207419" /></g>
<g stroke="rgb(0, 0, 0)"><path d="M355.2397386,-68.7207419L336.6900538,-68.6126071" /></g>
<g stroke="rgb(0, 0, 0)"><path d="M336.6900538,-68.6126071L336.581919,-87.1622919" /></g>
<g stroke="rgb(0, 0, 0)"><path d="M339.2614982,-196.1686257L351.7119031,-182.5021102" /></g>
<g stroke="rgb(0, 0, 0)"><path d="M336.0867264,-172.1088186L325.5487522,-183.6761041" /></g>
<g stroke="rgb(0, 0, 0)"><path d="M325.5487522,-183.6761041L339.2614982,-196.1686257" /></g>
<g stroke="rgb(0, 0, 0)"><path d="M325.1791364,-183.3393783L336.0910824,-171.3615929" /></g>
<g stroke="rgb(0, 0, 0)"><path d="M336.1094925,-168.2034756L323.958912,-157.1341107" /></g>
<g stroke="rgb(0, 0, 0)"><path d="M323.958912,-157.1341107L311.4663904,-170.8468567" /></g>
<g stroke="rgb(0, 0, 0)"><path d="M311.4663904,-170.8468567L325.1791364,-183.3393783" /></g>
<g stroke="rgb(0, 0, 0)"><path d="M354.5949022,-179.3375102L364.5832671,-168.3735179" /></g>
<g stroke="rgb(0, 0, 0)"><path d="M364.5832671,-168.3735179L354.711244,-159.3799537" /></g>
<g stroke="rgb(0, 0, 0)"><path d="M344.0142953,-163.4069134L343.5611862,-163.9042806" /></g>
<g stroke="rgb(0, 0, 0)"><path d="M342.8883811,-163.9003585L343.3414903,-163.4029913" /></g>
<g stroke="rgb(0, 0, 0)"><path d="M338.7355217,-144.8258258L338.1831395,-144.3225972" /></g>
<g stroke="rgb(0, 0, 0)"><path d="M336.252687,-143.6395242L324.2956377,-156.7644949" /></g>
<g stroke="rgb(0, 0, 0)"><path d="M324.2956377,-156.7644949L336.1134146,-167.5306706" /></g>
<g stroke="rgb(0, 0, 0)"><path d="M368.1273046,-164.4833116L380.6198262,-150.7705656" /></g>
<g stroke="rgb(0, 0, 0)"><path d="M380.6198262,-150.7705656L366.9070802,-138.278044" /></g>
<g stroke="rgb(0, 0, 0)"><path d="M366.9070802,-138.278044L354.756507,-151.6154413" /></g>
<g stroke="rgb(0, 0, 0)"><path d="M354.7525241,-152.2986817L368.1273046,-164.4833116" /></g>
<g stroke="rgb(0, 0, 0)"><path d="M354.7608629,-150.8682157L366.5374644,-137.9413183" /></g>
<g stroke="rgb(0, 0, 0)"><path d="M366.5374644,-137.9413183L354.8980336,-127.3376186" /></g>
<g stroke="rgb(0, 0, 0)"><path d="M353.2763803,-125.8602676L352.8247184,-125.4487967" /></g>
<g stroke="rgb(0, 0, 0)"><path d="M352.8247184,-125.4487967L352.4542283,-125.8554749" /></g>
<g stroke="rgb(0, 0, 0)"><path d="M346.0476887,-144.3684434L346.6000709,-144.871672" /></g>
<g stroke="rgb(0, 0, 0)"><path d="M380.9565519,-150.4009498L393.4490735,-136.6882038" /></g>
<g stroke="rgb(0, 0, 0)"><path d="M393.4490735,-136.6882038L379.7363275,-124.1956822" /></g>
<g stroke="rgb(0, 0, 0)"><path d="M379.7363275,-124.1956822L367.2438059,-137.9084282" /></g>
<g stroke="rgb(0, 0, 0)"><path d="M367.2438059,-137.9084282L380.9565519,-150.4009498" /></g>
<g stroke="rgb(0, 0, 0)"><path d="M366.8741901,-137.5717025L379.3667117,-123.8589565" /></g>
<g stroke="rgb(0, 0, 0)"><path d="M379.3667117,-123.8589565L365.6539657,-111.3664349" /></g>
<g stroke="rgb(0, 0, 0)"><path d="M365.6539657,-111.3664349L354.9224676,-123.146147" /></g>
<g stroke="rgb(0, 0, 0)"><path d="M354.9019557,-126.6648136L366.8741901,-137.5717025" /></g>
<g stroke="rgb(0, 0, 0)"><path d="M353.4712238,-125.361395L354.023606,-125.8646236" /></g>
<g stroke="rgb(0, 0, 0)"><path d="M365.045384,-106.3785424L383.5950688,-106.4866772" /></g>
<g stroke="rgb(0, 0, 0)"><path d="M383.5950688,-106.4866772L383.7032036,-87.9369924" /></g>
<g stroke="rgb(0, 0, 0)"><path d="M383.7032036,-87.9369924L365.1535188,-87.8288576" /></g>
<g stroke="rgb(0, 0, 0)"><path d="M365.1535188,-87.8288576L365.045384,-106.3785424" /></g>
<g stroke="rgb(0, 0, 0)"><path d="M365.1564334,-87.3288661L383.7061182,-87.4370009" /></g>
<g stroke="rgb(0, 0, 0)"><path d="M383.7061182,-87.4370009L383.814253,-68.8873161" /></g>
<g stroke="rgb(0, 0, 0)"><path d="M383.814253,-68.8873161L365.2645682,-68.7791813" /></g>
<g stroke="rgb(0, 0, 0)"><path d="M365.2645682,-68.7791813L365.1564334,-87.3288661" /></g>
<g stroke="rgb(0, 0, 0)"><path d="M384.0950604,-106.4895918L402.6447452,-106.5977266" /></g>
<g stroke="rgb(0, 0, 0)"><path d="M402.6447452,-106.5977266L402.75288,-88.0480418" /></g>
<g stroke="rgb(0, 0, 0)"><path d="M402.75288,-88.0480418L384.2031952,-87.939907" /></g>
<g stroke="rgb(0, 0, 0)"><path d="M384.2031952,-87.939907L384.0950604,-106.4895918" /></g>
<g stroke="rgb(0, 0, 0)"><path d="M384.2061098,-87.4399154L402.7557946,-87.5480502" /></g>
<g stroke="rgb(0, 0, 0)"><path d="M402.7557946,-87.5480502L402.8639294,-68.9983654" /></g>
<g stroke="rgb(0, 0, 0)"><path d="M402.8639294,-68.9983654L384.3142446,-68.8902306" /></g>
<g stroke="rgb(0, 0, 0)"><path d="M384.3142446,-68.8902306L384.2061098,-87.4399154" /></g>
  </g>
</svg>