<?xml version="1.0"?>
<svg
  xmlns="http://www.w3.org/2000/svg"
  xmlns:xlink="http://www.w3.org/1999/xlink" version="1.1"
  preserveAspectRatio="xMinYMin meet"
  viewBox="12.4105191 56.7795693 393.30592820000004 146.05964930000002"
  width="100%" height="100%"
>
  <g stroke="#000000" stroke-width="0.1%" fill="none" transform="matrix(1,0,0,-1,0,0)">
    <g stroke="rgb(0, 0, 0)"><path d="M12.4694341,-105.0302281L23.3603086,-61.158329" /></g>
<g stroke="rgb(0, 0, 0)"><path d="M25.292667,-59.640208L36.2122791,-59.5925619" /></g>
<g stroke="rgb(0, 0, 0)"><path d="M36.3083889,-59.5898313L77.1407823,-57.4465255" /></g>
<g stroke="rgb(0, 0, 0)"><path d="M77.1845375,-57.4447088L98.922729,-56.7805022" /></g>
<g stroke="rgb(0, 0, 0)"><path d="M99.1458004,-56.7861403L119.4295206,-58.4344379" /></g>
<g stroke="rgb(0, 0, 0)"><path d="M119.4795381,-58.437872L149.8912196,-60.1431855" /></g>
<g stroke="rgb(0, 0, 0)"><path d="M151.1006652,-60.6387645L156.0329106,-64.9800877" /></g>
<g stroke="rgb(0, 0, 0)"><path d="M157.3484967,-65.4787952L167.8985873,-65.5095601" /></g>
<g stroke="rgb(0, 0, 0)"><path d="M169.2126865,-65.0223268L174.1850396,-60.7221255" /></g>
<g stroke="rgb(0, 0, 0)"><path d="M175.3989668,-60.2371099L206.2137768,-58.781959" /></g>
<g stroke="rgb(0, 0, 0)"><path d="M206.2841202,-58.7773935L228.3456591,-56.9546202" /></g>
<g stroke="rgb(0, 0, 0)"><path d="M228.5652393,-56.9485821L249.5056289,-57.5235813" /></g>
<g stroke="rgb(0, 0, 0)"><path d="M249.5625977,-57.5259586L288.4096926,-59.7021949" /></g>
<g stroke="rgb(0, 0, 0)"><path d="M288.4953792,-59.7051545L403.7426265,-61.2138235" /></g>
<g stroke="rgb(0, 0, 0)"><path d="M405.716276,-63.2398314L405.0710559,-112.5281987" /></g>
<g stroke="rgb(0, 0, 0)"><path d="M404.9856176,-113.0809057L397.1721777,-138.9201355" /></g>
<g stroke="rgb(0, 0, 0)"><path d="M338.9539036,-202.1968201L396.7264323,-139.6988507" /></g>
<g stroke="rgb(0, 0, 0)"><path d="M336.7217436,-202.6877437L300.6579962,-187.791971" /></g>
<g stroke="rgb(0, 0, 0)"><path d="M268.0200846,-187.2230661L299.9206604,-187.6406673" /></g>
<g stroke="rgb(0, 0, 0)"><path d="M267.8435548,-187.2129381L249.1826715,-185.3117828" /></g>
<g stroke="rgb(0, 0, 0)"><path d="M249.0001911,-185.3015858L217.8777881,-184.9867891" /></g>
<g stroke="rgb(0, 0, 0)"><path d="M217.5656808,-185.0080997L204.235484,-186.9745531" /></g>
<g stroke="rgb(0, 0, 0)"><path d="M204.0752642,-186.9916279L166.7199592,-189.4560518" /></g>
<g stroke="rgb(0, 0, 0)"><path d="M166.5777796,-189.4603623L156.9831763,-189.4098905" /></g>
<g stroke="rgb(0, 0, 0)"><path d="M156.8446281,-189.4043551L119.4908161,-186.6124405" /></g>
<g stroke="rgb(0, 0, 0)"><path d="M119.3696839,-186.5996674L106.5980195,-184.8582417" /></g>
<g stroke="rgb(0, 0, 0)"><path d="M106.3048025,-184.8400379L74.9877311,-185.2004543" /></g>
<g stroke="rgb(0, 0, 0)"><path d="M74.7932055,-185.2121882L55.9718034,-187.2716244" /></g>
<g stroke="rgb(0, 0, 0)"><path d="M25.4205494,-187.4158663L55.7629886,-187.2834717" /></g>
<g stroke="rgb(0, 0, 0)"><path d="M23.7051467,-186.4586013L12.9758653,-168.8973399" /></g>
<g stroke="rgb(0, 0, 0)"><path d="M12.6825605,-167.8633506L12.4105381,-105.5208147" /></g>
<g stroke="rgb(0, 0, 0)"><path d="M 25.292666998883636 -59.64020803848238 A 2 2 0 0 1 23.360308608609238 -61.15832900353056" /></g>
<g stroke="rgb(0, 0, 0)"><path d="M 36.212279101116366 -59.59256186151762 A 2 2 0 0 1 36.308388903585005 -59.589831342103686" /></g>
<g stroke="rgb(0, 0, 0)"><path d="M 77.18453749721105 -57.44470884593056 A 2 2 0 0 1 77.14078229641498 -57.446525457896314" /></g>
<g stroke="rgb(0, 0, 0)"><path d="M 99.14580040015315 -56.786140300749125 A 2 2 0 0 1 98.92272899721105 -56.78050224593056" /></g>
<g stroke="rgb(0, 0, 0)"><path d="M 119.42952059984684 -58.434437899250874 A 2 2 0 0 1 119.479538194683 -58.43787197383819" /></g>
<g stroke="rgb(0, 0, 0)"><path d="M 151.10066524895223 -60.6387645458197 A 2 2 0 0 1 149.891219605317 -60.14318552616181" /></g>
<g stroke="rgb(0, 0, 0)"><path d="M 156.03291065104779 -64.9800877541803 A 2 2 0 0 1 157.3484966985841 -65.47879519633858" /></g>
<g stroke="rgb(0, 0, 0)"><path d="M 167.8985872985841 -65.50956009633859 A 2 2 0 0 1 169.21268651457126 -65.02232681550727" /></g>
<g stroke="rgb(0, 0, 0)"><path d="M 175.39896680077447 -60.2371099384639 A 2 2 0 0 1 174.18503958542874 -60.72212548449273" /></g>
<g stroke="rgb(0, 0, 0)"><path d="M 206.21377679922554 -58.7819589615361 A 2 2 0 0 1 206.28412019501772 -58.77739352962306" /></g>
<g stroke="rgb(0, 0, 0)"><path d="M 228.5652393016463 -56.94858206216142 A 2 2 0 0 1 228.34565910498227 -56.95462017037694" /></g>
<g stroke="rgb(0, 0, 0)"><path d="M 249.56259770170746 -57.52595864009438 A 2 2 0 0 1 249.5056289016463 -57.52358126216142" /></g>
<g stroke="rgb(0, 0, 0)"><path d="M 288.40969259829257 -59.70219485990562 A 2 2 0 0 1 288.4953791983862 -59.705154455010934" /></g>
<g stroke="rgb(0, 0, 0)"><path d="M 405.716275955011 -63.23983140161376 A 2 2 0 0 1 403.7426265016138 -61.21382354498906" /></g>
<g stroke="rgb(0, 0, 0)"><path d="M 404.98561763950346 -113.08090571087213 A 2 2 0 0 1 405.07105585501097 -112.52819870161377" /></g>
<g stroke="rgb(0, 0, 0)"><path d="M 396.7264323544133 -139.69885075261683 A 2 2 0 0 1 397.17217773950347 -138.92013551087211" /></g>
<g stroke="rgb(0, 0, 0)"><path d="M 336.721743584371 -202.68774363929728 A 2 2 0 0 1 338.9539036544133 -202.19682005261686" /></g>
<g stroke="rgb(0, 0, 0)"><path d="M 300.657996215629 -187.79197096070274 A 2 2 0 0 1 299.92066040161376 -187.64066734498908" /></g>
<g stroke="rgb(0, 0, 0)"><path d="M 267.84355480491826 -187.21293814717603 A 2 2 0 0 1 268.02008459838623 -187.22306605501092" /></g>
<g stroke="rgb(0, 0, 0)"><path d="M 249.1826714950818 -185.31178275282394 A 2 2 0 0 1 249.00019110056954 -185.30158580168666" /></g>
<g stroke="rgb(0, 0, 0)"><path d="M 217.87778810056955 -184.98678910168667 A 2 2 0 0 1 217.56568088786125 -185.0080997092264" /></g>
<g stroke="rgb(0, 0, 0)"><path d="M 204.07526419776124 -186.99162778521614 A 2 2 0 0 1 204.23548401213876 -186.9745530907736" /></g>
<g stroke="rgb(0, 0, 0)"><path d="M 166.57777960030052 -189.46036232800196 A 2 2 0 0 1 166.71995919776126 -189.45605178521612" /></g>
<g stroke="rgb(0, 0, 0)"><path d="M 156.844628095029 -189.4043550708377 A 2 2 0 0 1 156.9831763003005 -189.40989052800197" /></g>
<g stroke="rgb(0, 0, 0)"><path d="M 119.36968390474921 -186.59966737422738 A 2 2 0 0 1 119.49081609502902 -186.61244047083773" /></g>
<g stroke="rgb(0, 0, 0)"><path d="M 106.5980194952508 -184.85824172577261 A 2 2 0 0 1 106.30480250192545 -184.84003793612507" /></g>
<g stroke="rgb(0, 0, 0)"><path d="M 74.98773110192545 -185.2004543361251 A 2 2 0 0 1 74.79320550584283 -185.2121881666138" /></g>
<g stroke="rgb(0, 0, 0)"><path d="M 55.76298860111636 -187.2834716615176 A 2 2 0 0 1 55.97180339415717 -187.2716244333862" /></g>
<g stroke="rgb(0, 0, 0)"><path d="M 23.705146666490943 -186.4586012609935 A 2 2 0 0 1 25.420549401116364 -187.41586626151764" /></g>
<g stroke="rgb(0, 0, 0)"><path d="M 12.682560538482376 -167.86335060111637 A 2 2 0 0 1 12.975865366490943 -168.8973399609935" /></g>
<g stroke="rgb(0, 0, 0)"><path d="M 12.469434108609239 -105.03022810353056 A 2 2 0 0 1 12.410538138482377 -105.52081470111636" /></g>
<g stroke="rgb(0, 0, 0)"><path d="M27.5287944,-184.1566364L46.0786178,-184.075697" /></g>
<g stroke="rgb(0, 0, 0)"><path d="M46.0786178,-184.075697L45.9976784,-165.5258736" /></g>
<g stroke="rgb(0, 0, 0)"><path d="M45.9976784,-165.5258736L27.447855,-165.606813" /></g>
<g stroke="rgb(0, 0, 0)"><path d="M27.447855,-165.606813L27.5287944,-184.1566364" /></g>
<g stroke="rgb(0, 0, 0)"><path d="M22.1832235,-165.1297796L40.7330469,-165.0488402" /></g>
<g stroke="rgb(0, 0, 0)"><path d="M40.7330469,-165.0488402L40.6521075,-146.4990168" /></g>
<g stroke="rgb(0, 0, 0)"><path d="M40.6521075,-146.4990168L22.1022841,-146.5799562" /></g>
<g stroke="rgb(0, 0, 0)"><path d="M22.1022841,-146.5799562L22.1832235,-165.1297796" /></g>
<g stroke="rgb(0, 0, 0)"><path d="M22.1001024,-146.079961L40.6499258,-145.9990216" /></g>
<g stroke="rgb(0, 0, 0)"><path d="M40.6499258,-145.9990216L40.5689864,-127.4491982" /></g>
<g stroke="rgb(0, 0, 0)"><path d="M40.5689864,-127.4491982L22.019163,-127.5301376" /></g>
<g stroke="rgb(0, 0, 0)"><path d="M22.019163,-127.5301376L22.1001024,-146.079961" /></g>
<g stroke="rgb(0, 0, 0)"><path d="M22.0169814,-127.0301423L40.5668048,-126.9492029" /></g>
<g stroke="rgb(0, 0, 0)"><path d="M40.5668048,-126.9492029L40.4858654,-108.3993795" /></g>
<g stroke="rgb(0, 0, 0)"><path d="M40.4858654,-108.3993795L21.936042,-108.4803189" /></g>
<g stroke="rgb(0, 0, 0)"><path d="M21.936042,-108.4803189L22.0169814,-127.0301423" /></g>
<g stroke="rgb(0, 0, 0)"><path d="M27.1963103,-107.9573618L45.7461337,-107.8764224" /></g>
<g stroke="rgb(0, 0, 0)"><path d="M45.7461337,-107.8764224L45.6651943,-89.326599" /></g>
<g stroke="rgb(0, 0, 0)"><path d="M45.6651943,-89.326599L27.1153709,-89.4075384" /></g>
<g stroke="rgb(0, 0, 0)"><path d="M27.1153709,-89.4075384L27.1963103,-107.9573618" /></g>
<g stroke="rgb(0, 0, 0)"><path d="M27.1131892,-88.9075431L45.6630126,-88.8266037" /></g>
<g stroke="rgb(0, 0, 0)"><path d="M45.6630126,-88.8266037L45.5820732,-70.2767803" /></g>
<g stroke="rgb(0, 0, 0)"><path d="M45.5820732,-70.2767803L27.0322498,-70.3577197" /></g>
<g stroke="rgb(0, 0, 0)"><path d="M27.0322498,-70.3577197L27.1131892,-88.9075431" /></g>
<g stroke="rgb(0, 0, 0)"><path d="M46.5786131,-184.0735154L65.1284365,-183.992576" /></g>
<g stroke="rgb(0, 0, 0)"><path d="M65.1284365,-183.992576L65.0474971,-165.4427526" /></g>
<g stroke="rgb(0, 0, 0)"><path d="M65.0474971,-165.4427526L46.4976737,-165.523692" /></g>
<g stroke="rgb(0, 0, 0)"><path d="M46.4976737,-165.523692L46.5786131,-184.0735154" /></g>
<g stroke="rgb(0, 0, 0)"><path d="M46.495492,-165.0236967L65.0453154,-164.9427573" /></g>
<g stroke="rgb(0, 0, 0)"><path d="M65.0453154,-164.9427573L64.964376,-146.3929339" /></g>
<g stroke="rgb(0, 0, 0)"><path d="M64.964376,-146.3929339L46.4145526,-146.4738733" /></g>
<g stroke="rgb(0, 0, 0)"><path d="M46.4145526,-146.4738733L46.495492,-165.0236967" /></g>
<g stroke="rgb(0, 0, 0)"><path d="M46.412371,-145.973878L64.9621944,-145.8929386" /></g>
<g stroke="rgb(0, 0, 0)"><path d="M64.9621944,-145.8929386L64.881255,-127.3431152" /></g>
<g stroke="rgb(0, 0, 0)"><path d="M64.881255,-127.3431152L46.3314316,-127.4240546" /></g>
<g stroke="rgb(0, 0, 0)"><path d="M46.3314316,-127.4240546L46.412371,-145.973878" /></g>
<g stroke="rgb(0, 0, 0)"><path d="M46.32925,-126.9240594L64.8790734,-126.84312" /></g>
<g stroke="rgb(0, 0, 0)"><path d="M64.8790734,-126.84312L64.798134,-108.2932966" /></g>
<g stroke="rgb(0, 0, 0)"><path d="M64.798134,-108.2932966L46.2483106,-108.374236" /></g>
<g stroke="rgb(0, 0, 0)"><path d="M46.2483106,-108.374236L46.32925,-126.9240594" /></g>
<g stroke="rgb(0, 0, 0)"><path d="M46.2461289,-107.8742407L64.7959523,-107.7933013" /></g>
<g stroke="rgb(0, 0, 0)"><path d="M64.7959523,-107.7933013L64.7150129,-89.2434779" /></g>
<g stroke="rgb(0, 0, 0)"><path d="M64.7150129,-89.2434779L46.1651895,-89.3244173" /></g>
<g stroke="rgb(0, 0, 0)"><path d="M46.1651895,-89.3244173L46.2461289,-107.8742407" /></g>
<g stroke="rgb(0, 0, 0)"><path d="M65.6585186,-181.8304493L84.2069294,-182.0732613" /></g>
<g stroke="rgb(0, 0, 0)"><path d="M84.2069294,-182.0732613L84.4497414,-163.5248505" /></g>
<g stroke="rgb(0, 0, 0)"><path d="M84.4497414,-163.5248505L65.9013306,-163.2820385" /></g>
<g stroke="rgb(0, 0, 0)"><path d="M65.9013306,-163.2820385L65.6585186,-181.8304493" /></g>
<g stroke="rgb(0, 0, 0)"><path d="M65.9078753,-162.7820813L84.4562861,-163.0248933" /></g>
<g stroke="rgb(0, 0, 0)"><path d="M84.4562861,-163.0248933L84.6990981,-144.4764825" /></g>
<g stroke="rgb(0, 0, 0)"><path d="M84.6990981,-144.4764825L66.1506873,-144.2336705" /></g>
<g stroke="rgb(0, 0, 0)"><path d="M66.1506873,-144.2336705L65.9078753,-162.7820813" /></g>
<g stroke="rgb(0, 0, 0)"><path d="M66.3572149,-143.7363313L84.9056257,-143.9791433" /></g>
<g stroke="rgb(0, 0, 0)"><path d="M84.9056257,-143.9791433L85.1484377,-125.4307325" /></g>
<g stroke="rgb(0, 0, 0)"><path d="M85.1484377,-125.4307325L66.6000269,-125.1879205" /></g>
<g stroke="rgb(0, 0, 0)"><path d="M66.6000269,-125.1879205L66.3572149,-143.7363313" /></g>
<g stroke="rgb(0, 0, 0)"><path d="M66.8065545,-124.6905813L85.3549653,-124.9333933" /></g>
<g stroke="rgb(0, 0, 0)"><path d="M85.3549653,-124.9333933L85.5977773,-106.3849825" /></g>
<g stroke="rgb(0, 0, 0)"><path d="M85.5977773,-106.3849825L67.0493665,-106.1421705" /></g>
<g stroke="rgb(0, 0, 0)"><path d="M67.0493665,-106.1421705L66.8065545,-124.6905813" /></g>
<g stroke="rgb(0, 0, 0)"><path d="M67.0559112,-105.6422134L85.604322,-105.8850254" /></g>
<g stroke="rgb(0, 0, 0)"><path d="M85.604322,-105.8850254L85.847134,-87.3366146" /></g>
<g stroke="rgb(0, 0, 0)"><path d="M85.847134,-87.3366146L67.2987232,-87.0938026" /></g>
<g stroke="rgb(0, 0, 0)"><path d="M67.2987232,-87.0938026L67.0559112,-105.6422134" /></g>
<g stroke="rgb(0, 0, 0)"><path d="M67.5052508,-86.5964634L86.0536616,-86.8392754" /></g>
<g stroke="rgb(0, 0, 0)"><path d="M86.0536616,-86.8392754L86.2964736,-68.2908646" /></g>
<g stroke="rgb(0, 0, 0)"><path d="M86.2964736,-68.2908646L67.7480628,-68.0480526" /></g>
<g stroke="rgb(0, 0, 0)"><path d="M67.7480628,-68.0480526L67.5052508,-86.5964634" /></g>
<g stroke="rgb(0, 0, 0)"><path d="M84.7614993,-180.9241191L103.3028474,-181.4906086" /></g>
<g stroke="rgb(0, 0, 0)"><path d="M103.3028474,-181.4906086L103.8693369,-162.9492605" /></g>
<g stroke="rgb(0, 0, 0)"><path d="M103.8693369,-162.9492605L85.3279888,-162.382771" /></g>
<g stroke="rgb(0, 0, 0)"><path d="M85.3279888,-162.382771L84.7614993,-180.9241191" /></g>
<g stroke="rgb(0, 0, 0)"><path d="M85.3432579,-161.8830041L103.884606,-162.4494936" /></g>
<g stroke="rgb(0, 0, 0)"><path d="M103.884606,-162.4494936L104.4510955,-143.9081455" /></g>
<g stroke="rgb(0, 0, 0)"><path d="M104.4510955,-143.9081455L85.9097474,-143.341656" /></g>
<g stroke="rgb(0, 0, 0)"><path d="M85.9097474,-143.341656L85.3432579,-161.8830041" /></g>
<g stroke="rgb(0, 0, 0)"><path d="M86.32483,-142.8541046L104.8661781,-143.4205941" /></g>
<g stroke="rgb(0, 0, 0)"><path d="M104.8661781,-143.4205941L105.4326676,-124.879246" /></g>
<g stroke="rgb(0, 0, 0)"><path d="M105.4326676,-124.879246L86.8913195,-124.3127565" /></g>
<g stroke="rgb(0, 0, 0)"><path d="M86.8913195,-124.3127565L86.32483,-142.8541046" /></g>
<g stroke="rgb(0, 0, 0)"><path d="M87.3064021,-123.825205L105.8477502,-124.3916945" /></g>
<g stroke="rgb(0, 0, 0)"><path d="M105.8477502,-124.3916945L106.4142397,-105.8503464" /></g>
<g stroke="rgb(0, 0, 0)"><path d="M106.4142397,-105.8503464L87.8728916,-105.2838569" /></g>
<g stroke="rgb(0, 0, 0)"><path d="M87.8728916,-105.2838569L87.3064021,-123.825205" /></g>
<g stroke="rgb(0, 0, 0)"><path d="M87.8881607,-104.7840901L106.4295088,-105.3505796" /></g>
<g stroke="rgb(0, 0, 0)"><path d="M106.4295088,-105.3505796L106.9959983,-86.8092315" /></g>
<g stroke="rgb(0, 0, 0)"><path d="M106.9959983,-86.8092315L88.4546502,-86.242742" /></g>
<g stroke="rgb(0, 0, 0)"><path d="M88.4546502,-86.242742L87.8881607,-104.7840901" /></g>
<g stroke="rgb(0, 0, 0)"><path d="M88.8697328,-85.7551905L107.4110809,-86.32168" /></g>
<g stroke="rgb(0, 0, 0)"><path d="M107.4110809,-86.32168L107.9775704,-67.7803319" /></g>
<g stroke="rgb(0, 0, 0)"><path d="M107.9775704,-67.7803319L89.4362223,-67.2138424" /></g>
<g stroke="rgb(0, 0, 0)"><path d="M89.4362223,-67.2138424L88.8697328,-85.7551905" /></g>
<g stroke="rgb(0, 0, 0)"><path d="M104.5303879,-163.3162178L123.0590254,-164.2062121" /></g>
<g stroke="rgb(0, 0, 0)"><path d="M123.0590254,-164.2062121L123.9490197,-145.6775746" /></g>
<g stroke="rgb(0, 0, 0)"><path d="M123.9490197,-145.6775746L105.4203822,-144.7875803" /></g>
<g stroke="rgb(0, 0, 0)"><path d="M105.4203822,-144.7875803L104.5303879,-163.3162178" /></g>
<g stroke="rgb(0, 0, 0)"><path d="M105.644141,-144.2977517L124.1727785,-145.187746" /></g>
<g stroke="rgb(0, 0, 0)"><path d="M124.1727785,-145.187746L125.0627728,-126.6591085" /></g>
<g stroke="rgb(0, 0, 0)"><path d="M125.0627728,-126.6591085L106.5341353,-125.7691142" /></g>
<g stroke="rgb(0, 0, 0)"><path d="M106.5341353,-125.7691142L105.644141,-144.2977517" /></g>
<g stroke="rgb(0, 0, 0)"><path d="M106.757894,-125.2792857L125.2865315,-126.16928" /></g>
<g stroke="rgb(0, 0, 0)"><path d="M125.2865315,-126.16928L126.1765258,-107.6406425" /></g>
<g stroke="rgb(0, 0, 0)"><path d="M126.1765258,-107.6406425L107.6478883,-106.7506482" /></g>
<g stroke="rgb(0, 0, 0)"><path d="M107.6478883,-106.7506482L106.757894,-125.2792857" /></g>
<g stroke="rgb(0, 0, 0)"><path d="M107.6718774,-106.2512239L126.2005149,-107.1412182" /></g>
<g stroke="rgb(0, 0, 0)"><path d="M126.2005149,-107.1412182L127.0905092,-88.6125807" /></g>
<g stroke="rgb(0, 0, 0)"><path d="M127.0905092,-88.6125807L108.5618717,-87.7225864" /></g>
<g stroke="rgb(0, 0, 0)"><path d="M108.5618717,-87.7225864L107.6718774,-106.2512239" /></g>
<g stroke="rgb(0, 0, 0)"><path d="M108.7856305,-87.2327578L127.314268,-88.1227521" /></g>
<g stroke="rgb(0, 0, 0)"><path d="M127.314268,-88.1227521L128.2042623,-69.5941146" /></g>
<g stroke="rgb(0, 0, 0)"><path d="M128.2042623,-69.5941146L109.6756248,-68.7041203" /></g>
<g stroke="rgb(0, 0, 0)"><path d="M109.6756248,-68.7041203L108.7856305,-87.2327578" /></g>
<g stroke="rgb(0, 0, 0)"><path d="M122.8322415,-183.5175707L141.360879,-184.407565" /></g>
<g stroke="rgb(0, 0, 0)"><path d="M141.360879,-184.407565L142.2508733,-165.8789275" /></g>
<g stroke="rgb(0, 0, 0)"><path d="M142.2508733,-165.8789275L123.7222358,-164.9889332" /></g>
<g stroke="rgb(0, 0, 0)"><path d="M123.7222358,-164.9889332L122.8322415,-183.5175707" /></g>
<g stroke="rgb(0, 0, 0)"><path d="M123.7462249,-164.489509L142.2748624,-165.3795033" /></g>
<g stroke="rgb(0, 0, 0)"><path d="M142.2748624,-165.3795033L143.1648567,-146.8508658" /></g>
<g stroke="rgb(0, 0, 0)"><path d="M143.1648567,-146.8508658L124.6362192,-145.9608715" /></g>
<g stroke="rgb(0, 0, 0)"><path d="M124.6362192,-145.9608715L123.7462249,-164.489509" /></g>
<g stroke="rgb(0, 0, 0)"><path d="M124.6602083,-145.4614472L143.1888458,-146.3514415" /></g>
<g stroke="rgb(0, 0, 0)"><path d="M143.1888458,-146.3514415L144.0788401,-127.822804" /></g>
<g stroke="rgb(0, 0, 0)"><path d="M144.0788401,-127.822804L125.5502026,-126.9328097" /></g>
<g stroke="rgb(0, 0, 0)"><path d="M125.5502026,-126.9328097L124.6602083,-145.4614472" /></g>
<g stroke="rgb(0, 0, 0)"><path d="M125.5741916,-126.4333855L144.1028291,-127.3233798" /></g>
<g stroke="rgb(0, 0, 0)"><path d="M144.1028291,-127.3233798L144.9928234,-108.7947423" /></g>
<g stroke="rgb(0, 0, 0)"><path d="M144.9928234,-108.7947423L126.4641859,-107.904748" /></g>
<g stroke="rgb(0, 0, 0)"><path d="M126.4641859,-107.904748L125.5741916,-126.4333855" /></g>
<g stroke="rgb(0, 0, 0)"><path d="M126.488175,-107.4053238L145.0168125,-108.2953181" /></g>
<g stroke="rgb(0, 0, 0)"><path d="M145.0168125,-108.2953181L145.9068068,-89.7666806" /></g>
<g stroke="rgb(0, 0, 0)"><path d="M145.9068068,-89.7666806L127.3781693,-88.8766863" /></g>
<g stroke="rgb(0, 0, 0)"><path d="M127.3781693,-88.8766863L126.488175,-107.4053238" /></g>
<g stroke="rgb(0, 0, 0)"><path d="M127.4021584,-88.3772621L145.9307959,-89.2672564" /></g>
<g stroke="rgb(0, 0, 0)"><path d="M145.9307959,-89.2672564L146.8207902,-70.7386189" /></g>
<g stroke="rgb(0, 0, 0)"><path d="M146.8207902,-70.7386189L128.2921527,-69.8486246" /></g>
<g stroke="rgb(0, 0, 0)"><path d="M128.2921527,-69.8486246L127.4021584,-88.3772621" /></g>
<g stroke="rgb(0, 0, 0)"><path d="M182.2449307,-184.5946897L200.7806293,-183.8664201" /></g>
<g stroke="rgb(0, 0, 0)"><path d="M200.7806293,-183.8664201L200.0523597,-165.3307215" /></g>
<g stroke="rgb(0, 0, 0)"><path d="M200.0523597,-165.3307215L181.5166611,-166.0589911" /></g>
<g stroke="rgb(0, 0, 0)"><path d="M181.5166611,-166.0589911L182.2449307,-184.5946897" /></g>
<g stroke="rgb(0, 0, 0)"><path d="M182.0965686,-165.5358206L200.6322672,-164.807551" /></g>
<g stroke="rgb(0, 0, 0)"><path d="M200.6322672,-164.807551L199.9039976,-146.2718524" /></g>
<g stroke="rgb(0, 0, 0)"><path d="M199.9039976,-146.2718524L181.368299,-147.000122" /></g>
<g stroke="rgb(0, 0, 0)"><path d="M181.368299,-147.000122L182.0965686,-165.5358206" /></g>
<g stroke="rgb(0, 0, 0)"><path d="M181.3486692,-146.5005074L199.8843678,-145.7722378" /></g>
<g stroke="rgb(0, 0, 0)"><path d="M199.8843678,-145.7722378L199.1560982,-127.2365392" /></g>
<g stroke="rgb(0, 0, 0)"><path d="M199.1560982,-127.2365392L180.6203996,-127.9648088" /></g>
<g stroke="rgb(0, 0, 0)"><path d="M180.6203996,-127.9648088L181.3486692,-146.5005074" /></g>
<g stroke="rgb(0, 0, 0)"><path d="M180.6007697,-127.4651942L199.1364683,-126.7369246" /></g>
<g stroke="rgb(0, 0, 0)"><path d="M199.1364683,-126.7369246L198.4081987,-108.201226" /></g>
<g stroke="rgb(0, 0, 0)"><path d="M198.4081987,-108.201226L179.8725001,-108.9294956" /></g>
<g stroke="rgb(0, 0, 0)"><path d="M179.8725001,-108.9294956L180.6007697,-127.4651942" /></g>
<g stroke="rgb(0, 0, 0)"><path d="M179.8528702,-108.429881L198.3885688,-107.7016114" /></g>
<g stroke="rgb(0, 0, 0)"><path d="M198.3885688,-107.7016114L197.6602992,-89.1659128" /></g>
<g stroke="rgb(0, 0, 0)"><path d="M197.6602992,-89.1659128L179.1246006,-89.8941824" /></g>
<g stroke="rgb(0, 0, 0)"><path d="M179.1246006,-89.8941824L179.8528702,-108.429881" /></g>
<g stroke="rgb(0, 0, 0)"><path d="M179.1049707,-89.3945678L197.6406693,-88.6662982" /></g>
<g stroke="rgb(0, 0, 0)"><path d="M197.6406693,-88.6662982L196.9123997,-70.1305996" /></g>
<g stroke="rgb(0, 0, 0)"><path d="M196.9123997,-70.1305996L178.3767011,-70.8588692" /></g>
<g stroke="rgb(0, 0, 0)"><path d="M178.3767011,-70.8588692L179.1049707,-89.3945678" /></g>
<g stroke="rgb(0, 0, 0)"><path d="M201.1220668,-164.5381139L219.6577654,-163.8098443" /></g>
<g stroke="rgb(0, 0, 0)"><path d="M219.6577654,-163.8098443L218.9294958,-145.2741457" /></g>
<g stroke="rgb(0, 0, 0)"><path d="M218.9294958,-145.2741457L200.3937972,-146.0024153" /></g>
<g stroke="rgb(0, 0, 0)"><path d="M200.3937972,-146.0024153L201.1220668,-164.5381139" /></g>
<g stroke="rgb(0, 0, 0)"><path d="M200.3741674,-145.5028007L218.909866,-144.7745311" /></g>
<g stroke="rgb(0, 0, 0)"><path d="M218.909866,-144.7745311L218.1815964,-126.2388325" /></g>
<g stroke="rgb(0, 0, 0)"><path d="M218.1815964,-126.2388325L199.6458978,-126.9671021" /></g>
<g stroke="rgb(0, 0, 0)"><path d="M199.6458978,-126.9671021L200.3741674,-145.5028007" /></g>
<g stroke="rgb(0, 0, 0)"><path d="M199.6262679,-126.4674875L218.1619665,-125.7392179" /></g>
<g stroke="rgb(0, 0, 0)"><path d="M218.1619665,-125.7392179L217.4336969,-107.2035193" /></g>
<g stroke="rgb(0, 0, 0)"><path d="M217.4336969,-107.2035193L198.8979983,-107.9317889" /></g>
<g stroke="rgb(0, 0, 0)"><path d="M198.8979983,-107.9317889L199.6262679,-126.4674875" /></g>
<g stroke="rgb(0, 0, 0)"><path d="M198.8783684,-107.4321743L217.414067,-106.7039047" /></g>
<g stroke="rgb(0, 0, 0)"><path d="M217.414067,-106.7039047L216.6857974,-88.1682061" /></g>
<g stroke="rgb(0, 0, 0)"><path d="M216.6857974,-88.1682061L198.1500988,-88.8964757" /></g>
<g stroke="rgb(0, 0, 0)"><path d="M198.1500988,-88.8964757L198.8783684,-107.4321743" /></g>
<g stroke="rgb(0, 0, 0)"><path d="M198.1304689,-88.3968611L216.6661675,-87.6685915" /></g>
<g stroke="rgb(0, 0, 0)"><path d="M216.6661675,-87.6685915L215.9378979,-69.1328929" /></g>
<g stroke="rgb(0, 0, 0)"><path d="M215.9378979,-69.1328929L197.4021993,-69.8611625" /></g>
<g stroke="rgb(0, 0, 0)"><path d="M197.4021993,-69.8611625L198.1304689,-88.3968611" /></g>
<g stroke="rgb(0, 0, 0)"><path d="M220.8992268,-181.6650773L239.4448124,-181.2604111" /></g>
<g stroke="rgb(0, 0, 0)"><path d="M239.4448124,-181.2604111L239.0401462,-162.7148255" /></g>
<g stroke="rgb(0, 0, 0)"><path d="M239.0401462,-162.7148255L220.4945606,-163.1194917" /></g>
<g stroke="rgb(0, 0, 0)"><path d="M220.4945606,-163.1194917L220.8992268,-181.6650773" /></g>
<g stroke="rgb(0, 0, 0)"><path d="M220.6836056,-162.6152476L239.2291912,-162.2105814" /></g>
<g stroke="rgb(0, 0, 0)"><path d="M239.2291912,-162.2105814L238.824525,-143.6649958" /></g>
<g stroke="rgb(0, 0, 0)"><path d="M238.824525,-143.6649958L220.2789394,-144.069662" /></g>
<g stroke="rgb(0, 0, 0)"><path d="M220.2789394,-144.069662L220.6836056,-162.6152476" /></g>
<g stroke="rgb(0, 0, 0)"><path d="M220.4679845,-143.565418L239.0135701,-143.1607518" /></g>
<g stroke="rgb(0, 0, 0)"><path d="M239.0135701,-143.1607518L238.6089039,-124.6151662" /></g>
<g stroke="rgb(0, 0, 0)"><path d="M238.6089039,-124.6151662L220.0633183,-125.0198324" /></g>
<g stroke="rgb(0, 0, 0)"><path d="M220.0633183,-125.0198324L220.4679845,-143.565418" /></g>
<g stroke="rgb(0, 0, 0)"><path d="M220.2523633,-124.5155884L238.7979489,-124.1109222" /></g>
<g stroke="rgb(0, 0, 0)"><path d="M238.7979489,-124.1109222L238.3932827,-105.5653366" /></g>
<g stroke="rgb(0, 0, 0)"><path d="M238.3932827,-105.5653366L219.8476971,-105.9700028" /></g>
<g stroke="rgb(0, 0, 0)"><path d="M219.8476971,-105.9700028L220.2523633,-124.5155884" /></g>
<g stroke="rgb(0, 0, 0)"><path d="M220.0367422,-105.4657588L238.5823278,-105.0610926" /></g>
<g stroke="rgb(0, 0, 0)"><path d="M238.5823278,-105.0610926L238.1776616,-86.515507" /></g>
<g stroke="rgb(0, 0, 0)"><path d="M238.1776616,-86.515507L219.632076,-86.9201732" /></g>
<g stroke="rgb(0, 0, 0)"><path d="M219.632076,-86.9201732L220.0367422,-105.4657588" /></g>
<g stroke="rgb(0, 0, 0)"><path d="M219.821121,-86.4159292L238.3667066,-86.011263" /></g>
<g stroke="rgb(0, 0, 0)"><path d="M238.3667066,-86.011263L237.9620404,-67.4656774" /></g>
<g stroke="rgb(0, 0, 0)"><path d="M237.9620404,-67.4656774L219.4164548,-67.8703436" /></g>
<g stroke="rgb(0, 0, 0)"><path d="M219.4164548,-67.8703436L219.821121,-86.4159292" /></g>
<g stroke="rgb(0, 0, 0)"><path d="M239.8025717,-182.0930116L258.3523951,-182.0120722" /></g>
<g stroke="rgb(0, 0, 0)"><path d="M258.3523951,-182.0120722L258.2714557,-163.4622488" /></g>
<g stroke="rgb(0, 0, 0)"><path d="M258.2714557,-163.4622488L239.7216323,-163.5431882" /></g>
<g stroke="rgb(0, 0, 0)"><path d="M239.7216323,-163.5431882L239.8025717,-182.0930116" /></g>
<g stroke="rgb(0, 0, 0)"><path d="M239.9194487,-163.0423203L258.4692721,-162.9613809" /></g>
<g stroke="rgb(0, 0, 0)"><path d="M258.4692721,-162.9613809L258.3883327,-144.4115575" /></g>
<g stroke="rgb(0, 0, 0)"><path d="M258.3883327,-144.4115575L239.8385093,-144.4924969" /></g>
<g stroke="rgb(0, 0, 0)"><path d="M239.8385093,-144.4924969L239.9194487,-163.0423203" /></g>
<g stroke="rgb(0, 0, 0)"><path d="M240.0363258,-143.991629L258.5861492,-143.9106896" /></g>
<g stroke="rgb(0, 0, 0)"><path d="M258.5861492,-143.9106896L258.5052098,-125.3608662" /></g>
<g stroke="rgb(0, 0, 0)"><path d="M258.5052098,-125.3608662L239.9553864,-125.4418056" /></g>
<g stroke="rgb(0, 0, 0)"><path d="M239.9553864,-125.4418056L240.0363258,-143.991629" /></g>
<g stroke="rgb(0, 0, 0)"><path d="M240.1532029,-124.9409376L258.7030263,-124.8599982" /></g>
<g stroke="rgb(0, 0, 0)"><path d="M258.7030263,-124.8599982L258.6220869,-106.3101748" /></g>
<g stroke="rgb(0, 0, 0)"><path d="M258.6220869,-106.3101748L240.0722635,-106.3911142" /></g>
<g stroke="rgb(0, 0, 0)"><path d="M240.0722635,-106.3911142L240.1532029,-124.9409376" /></g>
<g stroke="rgb(0, 0, 0)"><path d="M240.2700799,-105.8902463L258.8199033,-105.8093069" /></g>
<g stroke="rgb(0, 0, 0)"><path d="M258.8199033,-105.8093069L258.7389639,-87.2594835" /></g>
<g stroke="rgb(0, 0, 0)"><path d="M258.7389639,-87.2594835L240.1891405,-87.3404229" /></g>
<g stroke="rgb(0, 0, 0)"><path d="M240.1891405,-87.3404229L240.2700799,-105.8902463" /></g>
<g stroke="rgb(0, 0, 0)"><path d="M240.386957,-86.839555L258.9367804,-86.7586156" /></g>
<g stroke="rgb(0, 0, 0)"><path d="M258.9367804,-86.7586156L258.855841,-68.2087922" /></g>
<g stroke="rgb(0, 0, 0)"><path d="M258.855841,-68.2087922L240.3060176,-68.2897316" /></g>
<g stroke="rgb(0, 0, 0)"><path d="M240.3060176,-68.2897316L240.386957,-86.839555" /></g>
<g stroke="rgb(0, 0, 0)"><path d="M258.6999323,-183.8507801L277.2483431,-184.0935921" /></g>
<g stroke="rgb(0, 0, 0)"><path d="M277.2483431,-184.0935921L277.4911551,-165.5451813" /></g>
<g stroke="rgb(0, 0, 0)"><path d="M277.4911551,-165.5451813L258.9427443,-165.3023693" /></g>
<g stroke="rgb(0, 0, 0)"><path d="M258.9427443,-165.3023693L258.6999323,-183.8507801" /></g>
<g stroke="rgb(0, 0, 0)"><path d="M259.1492719,-164.8050301L277.6976827,-165.0478421" /></g>
<g stroke="rgb(0, 0, 0)"><path d="M277.6976827,-165.0478421L277.9404947,-146.4994313" /></g>
<g stroke="rgb(0, 0, 0)"><path d="M277.9404947,-146.4994313L259.3920839,-146.2566193" /></g>
<g stroke="rgb(0, 0, 0)"><path d="M259.3920839,-146.2566193L259.1492719,-164.8050301" /></g>
<g stroke="rgb(0, 0, 0)"><path d="M259.5986115,-145.7592801L296.5954417,-146.243595" /></g>
<g stroke="rgb(0, 0, 0)"><path d="M259.8414235,-127.2108693L296.8382537,-127.6951842" /></g>
<g stroke="rgb(0, 0, 0)"><path d="M259.8414235,-127.2108693L259.5986115,-145.7592801" /></g>
<g stroke="rgb(0, 0, 0)"><path d="M260.047951,-126.7135301L296.8447985,-127.1952271" /></g>
<g stroke="rgb(0, 0, 0)"><path d="M260.290763,-108.1651193L297.0876105,-108.6468163" /></g>
<g stroke="rgb(0, 0, 0)"><path d="M260.290763,-108.1651193L260.047951,-126.7135301" /></g>
<g stroke="rgb(0, 0, 0)"><path d="M260.4972906,-107.6677801L297.0941552,-108.1468591" /></g>
<g stroke="rgb(0, 0, 0)"><path d="M260.7401026,-89.1193693L297.3369672,-89.5984483" /></g>
<g stroke="rgb(0, 0, 0)"><path d="M260.7401026,-89.1193693L260.4972906,-107.6677801" /></g>
<g stroke="rgb(0, 0, 0)"><path d="M277.5483174,-184.0975189L296.0967282,-184.3403309" /></g>
<g stroke="rgb(0, 0, 0)"><path d="M296.0967282,-184.3403309L296.3395402,-165.7919201" /></g>
<g stroke="rgb(0, 0, 0)"><path d="M296.3395402,-165.7919201L277.7911294,-165.5491081" /></g>
<g stroke="rgb(0, 0, 0)"><path d="M277.7911294,-165.5491081L277.5483174,-184.0975189" /></g>
<g stroke="rgb(0, 0, 0)"><path d="M283.1597148,-165.1193439L301.7081256,-165.3621559" /></g>
<g stroke="rgb(0, 0, 0)"><path d="M301.7081256,-165.3621559L301.9509376,-146.8137451" /></g>
<g stroke="rgb(0, 0, 0)"><path d="M301.9509376,-146.8137451L283.4025268,-146.5709331" /></g>
<g stroke="rgb(0, 0, 0)"><path d="M283.4025268,-146.5709331L283.1597148,-165.1193439" /></g>
<g stroke="rgb(0, 0, 0)"><path d="M296.5954417,-146.243595L296.8382537,-127.6951842" /></g>
<g stroke="rgb(0, 0, 0)"><path d="M296.8447985,-127.1952271L297.0876105,-108.6468163" /></g>
<g stroke="rgb(0, 0, 0)"><path d="M297.0941552,-108.1468591L297.3369672,-89.5984483" /></g>
<g stroke="rgb(0, 0, 0)"><path d="M278.7951012,-88.8556792L297.343512,-89.0984912" /></g>
<g stroke="rgb(0, 0, 0)"><path d="M297.343512,-89.0984912L297.586324,-70.5500804" /></g>
<g stroke="rgb(0, 0, 0)"><path d="M297.586324,-70.5500804L279.0379132,-70.3072684" /></g>
<g stroke="rgb(0, 0, 0)"><path d="M279.0379132,-70.3072684L278.7951012,-88.8556792" /></g>
<g stroke="rgb(0, 0, 0)"><path d="M302.4574395,-146.3203328L321.0058503,-146.5631448" /></g>
<g stroke="rgb(0, 0, 0)"><path d="M321.0058503,-146.5631448L321.2486623,-128.014734" /></g>
<g stroke="rgb(0, 0, 0)"><path d="M321.2486623,-128.014734L302.7002515,-127.771922" /></g>
<g stroke="rgb(0, 0, 0)"><path d="M302.7002515,-127.771922L302.4574395,-146.3203328" /></g>
<g stroke="rgb(0, 0, 0)"><path d="M297.3447556,-127.2017719L315.8931664,-127.4445839" /></g>
<g stroke="rgb(0, 0, 0)"><path d="M315.8931664,-127.4445839L316.1359784,-108.8961731" /></g>
<g stroke="rgb(0, 0, 0)"><path d="M316.1359784,-108.8961731L297.5875676,-108.6533611" /></g>
<g stroke="rgb(0, 0, 0)"><path d="M297.5875676,-108.6533611L297.3447556,-127.2017719" /></g>
<g stroke="rgb(0, 0, 0)"><path d="M297.5941124,-108.153404L316.1425232,-108.396216" /></g>
<g stroke="rgb(0, 0, 0)"><path d="M316.1425232,-108.396216L316.3853352,-89.8478052" /></g>
<g stroke="rgb(0, 0, 0)"><path d="M316.3853352,-89.8478052L297.8369244,-89.6049932" /></g>
<g stroke="rgb(0, 0, 0)"><path d="M297.8369244,-89.6049932L297.5941124,-108.153404" /></g>
<g stroke="rgb(0, 0, 0)"><path d="M297.8434691,-89.1050361L316.3918799,-89.3478481" /></g>
<g stroke="rgb(0, 0, 0)"><path d="M316.3918799,-89.3478481L316.6346919,-70.7994373" /></g>
<g stroke="rgb(0, 0, 0)"><path d="M316.6346919,-70.7994373L298.0862811,-70.5566253" /></g>
<g stroke="rgb(0, 0, 0)"><path d="M298.0862811,-70.5566253L297.8434691,-89.1050361" /></g>
<g stroke="rgb(0, 0, 0)"><path d="M316.3931236,-127.4511288L334.9415344,-127.6939408" /></g>
<g stroke="rgb(0, 0, 0)"><path d="M334.9415344,-127.6939408L335.1843464,-109.14553" /></g>
<g stroke="rgb(0, 0, 0)"><path d="M335.1843464,-109.14553L316.6359356,-108.902718" /></g>
<g stroke="rgb(0, 0, 0)"><path d="M316.6359356,-108.902718L316.3931236,-127.4511288" /></g>
<g stroke="rgb(0, 0, 0)"><path d="M322.0045209,-108.4729538L340.5529317,-108.7157658" /></g>
<g stroke="rgb(0, 0, 0)"><path d="M340.5529317,-108.7157658L340.7957437,-90.167355" /></g>
<g stroke="rgb(0, 0, 0)"><path d="M340.7957437,-90.167355L322.2473329,-89.924543" /></g>
<g stroke="rgb(0, 0, 0)"><path d="M322.2473329,-89.924543L322.0045209,-108.4729538" /></g>
<g stroke="rgb(0, 0, 0)"><path d="M316.8918371,-89.3543929L335.4402479,-89.5972049" /></g>
<g stroke="rgb(0, 0, 0)"><path d="M335.4402479,-89.5972049L335.6830599,-71.0487941" /></g>
<g stroke="rgb(0, 0, 0)"><path d="M335.6830599,-71.0487941L317.1346491,-70.8059821" /></g>
<g stroke="rgb(0, 0, 0)"><path d="M317.1346491,-70.8059821L316.8918371,-89.3543929" /></g>
<g stroke="rgb(0, 0, 0)"><path d="M335.9402051,-89.6037496L354.4886159,-89.8465616" /></g>
<g stroke="rgb(0, 0, 0)"><path d="M354.4886159,-89.8465616L354.7314279,-71.2981508" /></g>
<g stroke="rgb(0, 0, 0)"><path d="M354.7314279,-71.2981508L336.1830171,-71.0553388" /></g>
<g stroke="rgb(0, 0, 0)"><path d="M336.1830171,-71.0553388L335.9402051,-89.6037496" /></g>
<g stroke="rgb(0, 0, 0)"><path d="M337.8282726,-198.6266652L350.4200264,-185.0049826" /></g>
<g stroke="rgb(0, 0, 0)"><path d="M350.4200264,-185.0049826L336.7983438,-172.4132288" /></g>
<g stroke="rgb(0, 0, 0)"><path d="M336.7983438,-172.4132288L324.20659,-186.0349114" /></g>
<g stroke="rgb(0, 0, 0)"><path d="M324.20659,-186.0349114L337.8282726,-198.6266652" /></g>
<g stroke="rgb(0, 0, 0)"><path d="M323.8394288,-185.695511L336.4311826,-172.0738284" /></g>
<g stroke="rgb(0, 0, 0)"><path d="M336.4311826,-172.0738284L322.8095,-159.4820746" /></g>
<g stroke="rgb(0, 0, 0)"><path d="M322.8095,-159.4820746L310.2177462,-173.1037572" /></g>
<g stroke="rgb(0, 0, 0)"><path d="M310.2177462,-173.1037572L323.8394288,-185.695511" /></g>
<g stroke="rgb(0, 0, 0)"><path d="M350.7594268,-184.6378214L363.3511806,-171.0161388" /></g>
<g stroke="rgb(0, 0, 0)"><path d="M363.3511806,-171.0161388L349.729498,-158.424385" /></g>
<g stroke="rgb(0, 0, 0)"><path d="M349.729498,-158.424385L337.1377442,-172.0460676" /></g>
<g stroke="rgb(0, 0, 0)"><path d="M337.1377442,-172.0460676L350.7594268,-184.6378214" /></g>
<g stroke="rgb(0, 0, 0)"><path d="M336.770583,-171.7066672L349.3623368,-158.0849846" /></g>
<g stroke="rgb(0, 0, 0)"><path d="M349.3623368,-158.0849846L335.7406542,-145.4932308" /></g>
<g stroke="rgb(0, 0, 0)"><path d="M335.7406542,-145.4932308L323.1489004,-159.1149134" /></g>
<g stroke="rgb(0, 0, 0)"><path d="M323.1489004,-159.1149134L336.770583,-171.7066672" /></g>
<g stroke="rgb(0, 0, 0)"><path d="M366.9233695,-167.1517667L379.5151233,-153.5300841" /></g>
<g stroke="rgb(0, 0, 0)"><path d="M379.5151233,-153.5300841L365.8934407,-140.9383303" /></g>
<g stroke="rgb(0, 0, 0)"><path d="M365.8934407,-140.9383303L353.3016869,-154.5600129" /></g>
<g stroke="rgb(0, 0, 0)"><path d="M353.3016869,-154.5600129L366.9233695,-167.1517667" /></g>
<g stroke="rgb(0, 0, 0)"><path d="M352.9345257,-154.2206125L365.5262795,-140.5989299" /></g>
<g stroke="rgb(0, 0, 0)"><path d="M365.5262795,-140.5989299L351.9045969,-128.0071761" /></g>
<g stroke="rgb(0, 0, 0)"><path d="M351.9045969,-128.0071761L339.3128431,-141.6288587" /></g>
<g stroke="rgb(0, 0, 0)"><path d="M339.3128431,-141.6288587L352.9345257,-154.2206125" /></g>
<g stroke="rgb(0, 0, 0)"><path d="M379.8545238,-153.1629229L392.4462776,-139.5412403" /></g>
<g stroke="rgb(0, 0, 0)"><path d="M392.4462776,-139.5412403L378.824595,-126.9494865" /></g>
<g stroke="rgb(0, 0, 0)"><path d="M378.824595,-126.9494865L366.2328412,-140.5711691" /></g>
<g stroke="rgb(0, 0, 0)"><path d="M366.2328412,-140.5711691L379.8545238,-153.1629229" /></g>
<g stroke="rgb(0, 0, 0)"><path d="M365.86568,-140.2317687L378.4574338,-126.6100861" /></g>
<g stroke="rgb(0, 0, 0)"><path d="M378.4574338,-126.6100861L364.8357512,-114.0183323" /></g>
<g stroke="rgb(0, 0, 0)"><path d="M364.8357512,-114.0183323L352.2439974,-127.6400149" /></g>
<g stroke="rgb(0, 0, 0)"><path d="M352.2439974,-127.6400149L365.86568,-140.2317687" /></g>
<g stroke="rgb(0, 0, 0)"><path d="M364.2634002,-109.0261527L382.811811,-109.2689647" /></g>
<g stroke="rgb(0, 0, 0)"><path d="M382.811811,-109.2689647L383.054623,-90.7205539" /></g>
<g stroke="rgb(0, 0, 0)"><path d="M383.054623,-90.7205539L364.5062122,-90.4777419" /></g>
<g stroke="rgb(0, 0, 0)"><path d="M364.5062122,-90.4777419L364.2634002,-109.0261527" /></g>
<g stroke="rgb(0, 0, 0)"><path d="M364.5127569,-89.9777847L383.0611677,-90.2205967" /></g>
<g stroke="rgb(0, 0, 0)"><path d="M383.0611677,-90.2205967L383.3039797,-71.6721859" /></g>
<g stroke="rgb(0, 0, 0)"><path d="M383.3039797,-71.6721859L364.7555689,-71.4293739" /></g>
<g stroke="rgb(0, 0, 0)"><path d="M364.7555689,-71.4293739L364.5127569,-89.9777847" /></g>
<g stroke="rgb(0, 0, 0)"><path d="M383.3117681,-109.2755094L401.8601789,-109.5183214" /></g>
<g stroke="rgb(0, 0, 0)"><path d="M401.8601789,-109.5183214L402.1029909,-90.9699106" /></g>
<g stroke="rgb(0, 0, 0)"><path d="M402.1029909,-90.9699106L383.5545801,-90.7270986" /></g>
<g stroke="rgb(0, 0, 0)"><path d="M383.5545801,-90.7270986L383.3117681,-109.2755094" /></g>
<g stroke="rgb(0, 0, 0)"><path d="M383.5611249,-90.2271415L402.1095357,-90.4699535" /></g>
<g stroke="rgb(0, 0, 0)"><path d="M402.1095357,-90.4699535L402.3523477,-71.9215427" /></g>
<g stroke="rgb(0, 0, 0)"><path d="M402.3523477,-71.9215427L383.8039369,-71.6787307" /></g>
<g stroke="rgb(0, 0, 0)"><path d="M383.8039369,-71.6787307L383.5611249,-90.2271415" /></g>
  </g>
</svg>