0
SECTION
2
HEADER
9
$INSUNITS
70
4
0
ENDSEC
0
SECTION
2
TABLES
0
TABLE
2
LTYPE
0
LTYPE
72
65
70
64
2
CONTINUOUS
3
______
73
0
40
0
0
ENDTAB
0
TABLE
2
LAYER
0
ENDTAB
0
ENDSEC
0
SECTION
2
ENTITIES
0
LINE
8
0
10
13.2316779
20
-104.9369255
11
23.8037333
21
-60.9871093
0
LINE
8
0
10
25.7250185
20
-59.4549984
11
36.6426895
21
-59.3280868
0
LINE
8
0
10
36.7413811
20
-59.3245012
11
76.7575324
21
-56.8801927
0
LINE
8
0
10
76.7979267
20
-56.8781351
11
97.7321084
21
-56.0238893
0
LINE
8
0
10
97.9566486
20
-56.0273447
11
118.8534746
21
-57.5252551
0
LINE
8
0
10
118.8994966
20
-57.5280212
11
150.3236516
21
-59.0534727
0
LINE
8
0
10
151.5371614
20
-59.5402817
11
156.5005862
21
-63.8454971
0
LINE
8
0
10
157.8197586
20
-64.3346396
11
168.3697945
21
-64.2888048
0
LINE
8
0
10
169.6803213
20
-63.7920435
11
174.621322
21
-59.4558534
0
LINE
8
0
10
175.8316956
20
-58.962037
11
206.6316826
21
-57.283381
0
LINE
8
0
10
206.7088582
20
-57.2776754
11
227.5512497
21
-55.3307084
0
LINE
8
0
10
227.7756631
20
-55.3224076
11
248.7175943
21
-55.7245203
0
LINE
8
0
10
248.7729659
20
-55.726351
11
288.8373551
21
-57.6067826
0
LINE
8
0
10
288.9194635
20
-57.6089479
11
404.1764282
21
-58.2808343
0
LINE
8
0
10
406.1647354
20
-60.2924591
11
405.8773909
21
-109.5842116
0
LINE
8
0
10
405.7959679
20
-110.1375244
11
398.1703394
21
-136.0328031
0
LINE
8
0
10
340.4130207
20
-199.7305138
11
397.7302596
21
-136.8147341
0
LINE
8
0
10
338.1844838
20
-200.2376311
11
302.013536
21
-185.604092
0
LINE
8
0
10
269.1721753
20
-185.2710029
11
301.2751212
21
-185.4581459
0
LINE
8
0
10
268.9959419
20
-185.2621915
11
250.3215035
21
-183.5000073
0
LINE
8
0
10
250.1390965
20
-183.4911694
11
219.0169665
21
-183.4058123
0
LINE
8
0
10
218.7016089
20
-183.4299559
11
205.5894291
21
-185.4863397
0
LINE
8
0
10
205.4257017
20
-185.5051441
11
168.091112
21
-188.2405869
0
LINE
8
0
10
167.9489674
20
-188.2459296
11
158.3542492
21
-188.2651208
0
LINE
8
0
10
158.2156642
20
-188.2605914
11
120.8394668
21
-185.7397489
0
LINE
8
0
10
120.7244064
20
-185.7286405
11
107.5348212
21
-184.0693055
0
LINE
8
0
10
107.2468826
20
-184.0540303
11
76.1313155
21
-184.6499035
0
LINE
8
0
10
75.9350839
20
-184.663335
11
57.3312794
21
-186.8600198
0
LINE
8
0
10
26.7806134
20
-187.2263604
11
57.1200014
21
-186.8736828
0
LINE
8
0
10
25.0583057
20
-186.2815754
11
14.2018033
21
-168.7986769
0
LINE
8
0
10
13.900999
20
-167.7668442
11
13.1763454
21
-105.4279267
0
ARC
8
0
10
25.7482657
20
-61.4548633
40
2
50
90.6659982
51
166.4745651
0
ARC
8
0
10
36.6194423
20
-57.3282219
40
2
50
270.6659982
51
273.4954573
0
ARC
8
0
10
76.8794713
20
-58.876472
40
2
50
92.3367284
51
93.4954573
0
ARC
8
0
10
97.813653
20
-58.0222262
40
2
50
85.8999797
51
92.3367284
0
ARC
8
0
10
118.9964702
20
-55.5303736
40
2
50
265.8999797
51
267.2208212
0
ARC
8
0
10
150.226678
20
-61.0511203
40
2
50
49.0620206
51
87.2208212
0
ARC
8
0
10
157.8110696
20
-62.3346585
40
2
50
229.0620206
51
270.2489223
0
ARC
8
0
10
168.3611055
20
-62.2888237
40
2
50
270.2489223
51
311.2699753
0
ARC
8
0
10
175.9405378
20
-60.9590731
40
2
50
93.1196404
51
131.2699753
0
ARC
8
0
10
206.5228404
20
-55.2863448
40
2
50
273.1196404
51
275.3367306
0
ARC
8
0
10
227.7372675
20
-57.322039
40
2
50
88.8999795
51
95.3367306
0
ARC
8
0
10
248.6791987
20
-57.7241517
40
2
50
87.3127826
51
88.8999795
0
ARC
8
0
10
288.9311223
20
-55.6089819
40
2
50
267.3127826
51
269.6659981
0
ARC
8
0
10
404.1647694
20
-60.2808003
40
2
50
359.6659981
51
89.6659981
0
ARC
8
0
10
403.8774249
20
-109.5725528
40
2
50
343.5913791
51
359.6659981
0
ARC
8
0
10
396.2517964
20
-135.4678315
40
2
50
317.6660004
51
343.5913791
0
ARC
8
0
10
338.9345575
20
-198.3836112
40
2
50
247.9734122
51
317.6660004
0
ARC
8
0
10
301.2634624
20
-187.4581119
40
2
50
67.9734122
51
89.6659981
0
ARC
8
0
10
269.1838341
20
-183.2710369
40
2
50
264.6093356
51
269.6659981
0
ARC
8
0
10
250.1336113
20
-185.4911619
40
2
50
84.6093356
51
89.8428604
0
ARC
8
0
10
219.0114813
20
-185.4058048
40
2
50
89.8428604
51
98.9130959
0
ARC
8
0
10
205.2795567
20
-183.5104908
40
2
50
274.1904809
51
278.9130959
0
ARC
8
0
10
167.944967
20
-186.2459336
40
2
50
270.1146031
51
274.1904809
0
ARC
8
0
10
158.3502488
20
-186.2651248
40
2
50
266.1415194
51
270.1146031
0
ARC
8
0
10
120.9740514
20
-183.7442823
40
2
50
262.8294946
51
266.1415194
0
ARC
8
0
10
107.2851762
20
-186.0536637
40
2
50
82.8294946
51
91.0970979
0
ARC
8
0
10
76.1696091
20
-186.6495369
40
2
50
91.0970979
51
96.7341459
0
ARC
8
0
10
57.0967542
20
-184.8738179
40
2
50
270.6659982
51
276.7341459
0
ARC
8
0
10
26.7573662
20
-185.2264955
40
2
50
211.8393876
51
270.6659982
0
ARC
8
0
10
15.9008639
20
-167.743597
40
2
50
180.6659982
51
211.8393876
0
ARC
8
0
10
15.1762103
20
-105.4046795
40
2
50
166.4745651
51
180.6659982
0
LINE
8
0
10
28.8651392
20
-183.9519095
11
47.413886
21
-183.7362911
0
LINE
8
0
10
47.413886
20
-183.7362911
11
47.1982676
21
-165.1875443
0
LINE
8
0
10
47.1982676
20
-165.1875443
11
28.6495208
21
-165.4031627
0
LINE
8
0
10
28.6495208
20
-165.4031627
11
28.8651392
21
-183.9519095
0
LINE
8
0
10
23.3815645
20
-164.9643658
11
41.9303113
21
-164.7487474
0
LINE
8
0
10
41.9303113
20
-164.7487474
11
41.7146929
21
-146.2000006
0
LINE
8
0
10
41.7146929
20
-146.2000006
11
23.1659461
21
-146.415619
0
LINE
8
0
10
23.1659461
20
-146.415619
11
23.3815645
21
-164.9643658
0
LINE
8
0
10
23.1601344
20
-145.9156527
11
41.7088812
21
-145.7000343
0
LINE
8
0
10
41.7088812
20
-145.7000343
11
41.4932628
21
-127.1512875
0
LINE
8
0
10
41.4932628
20
-127.1512875
11
22.944516
21
-127.3669059
0
LINE
8
0
10
22.944516
20
-127.3669059
11
23.1601344
21
-145.9156527
0
LINE
8
0
10
22.9387042
20
-126.8669397
11
41.487451
21
-126.6513213
0
LINE
8
0
10
41.487451
20
-126.6513213
11
41.2718326
21
-108.1025745
0
LINE
8
0
10
41.2718326
20
-108.1025745
11
22.7230858
21
-108.3181929
0
LINE
8
0
10
22.7230858
20
-108.3181929
11
22.9387042
21
-126.8669397
0
LINE
8
0
10
27.9794185
20
-107.7570573
11
46.5281653
21
-107.5414389
0
LINE
8
0
10
46.5281653
20
-107.5414389
11
46.3125469
21
-88.9926921
0
LINE
8
0
10
46.3125469
20
-88.9926921
11
27.7638001
21
-89.2083105
0
LINE
8
0
10
27.7638001
20
-89.2083105
11
27.9794185
21
-107.7570573
0
LINE
8
0
10
27.7579883
20
-88.7083442
11
46.3067351
21
-88.4927258
0
LINE
8
0
10
46.3067351
20
-88.4927258
11
46.0911167
21
-69.943979
0
LINE
8
0
10
46.0911167
20
-69.943979
11
27.5423699
21
-70.1595974
0
LINE
8
0
10
27.5423699
20
-70.1595974
11
27.7579883
21
-88.7083442
0
LINE
8
0
10
47.9138522
20
-183.7304793
11
66.462599
21
-183.5148609
0
LINE
8
0
10
66.462599
20
-183.5148609
11
66.2469806
21
-164.9661141
0
LINE
8
0
10
66.2469806
20
-164.9661141
11
47.6982338
21
-165.1817325
0
LINE
8
0
10
47.6982338
20
-165.1817325
11
47.9138522
21
-183.7304793
0
LINE
8
0
10
47.6924221
20
-164.6817662
11
66.2411689
21
-164.4661478
0
LINE
8
0
10
66.2411689
20
-164.4661478
11
66.0255505
21
-145.917401
0
LINE
8
0
10
66.0255505
20
-145.917401
11
47.4768037
21
-146.1330194
0
LINE
8
0
10
47.4768037
20
-146.1330194
11
47.6924221
21
-164.6817662
0
LINE
8
0
10
47.4709919
20
-145.6330532
11
66.0197387
21
-145.4174348
0
LINE
8
0
10
66.0197387
20
-145.4174348
11
65.8041203
21
-126.868688
0
LINE
8
0
10
65.8041203
20
-126.868688
11
47.2553735
21
-127.0843064
0
LINE
8
0
10
47.2553735
20
-127.0843064
11
47.4709919
21
-145.6330532
0
LINE
8
0
10
47.2495617
20
-126.5843402
11
65.7983085
21
-126.3687218
0
LINE
8
0
10
65.7983085
20
-126.3687218
11
65.5826901
21
-107.819975
0
LINE
8
0
10
65.5826901
20
-107.819975
11
47.0339433
21
-108.0355934
0
LINE
8
0
10
47.0339433
20
-108.0355934
11
47.2495617
21
-126.5843402
0
LINE
8
0
10
47.0281316
20
-107.5356271
11
65.5768784
21
-107.3200087
0
LINE
8
0
10
65.5768784
20
-107.3200087
11
65.36126
21
-88.7712619
0
LINE
8
0
10
65.36126
20
-88.7712619
11
46.8125132
21
-88.9868803
0
LINE
8
0
10
46.8125132
20
-88.9868803
11
47.0281316
21
-107.5356271
0
LINE
8
0
10
66.7769724
20
-181.3477766
11
85.3266572
21
-181.4559114
0
LINE
8
0
10
85.3266572
20
-181.4559114
11
85.434792
21
-162.9062266
0
LINE
8
0
10
85.434792
20
-162.9062266
11
66.8851072
21
-162.7980918
0
LINE
8
0
10
66.8851072
20
-162.7980918
11
66.7769724
21
-181.3477766
0
LINE
8
0
10
66.8880218
20
-162.2981003
11
85.4377066
21
-162.4062351
0
LINE
8
0
10
85.4377066
20
-162.4062351
11
85.5458414
21
-143.8565503
0
LINE
8
0
10
85.5458414
20
-143.8565503
11
66.9961566
21
-143.7484155
0
LINE
8
0
10
66.9961566
20
-143.7484155
11
66.8880218
21
-162.2981003
0
LINE
8
0
10
66.9990712
20
-143.248424
11
85.548756
21
-143.3565588
0
LINE
8
0
10
85.548756
20
-143.3565588
11
85.6568908
21
-124.806874
0
LINE
8
0
10
85.6568908
20
-124.806874
11
67.107206
21
-124.6987392
0
LINE
8
0
10
67.107206
20
-124.6987392
11
66.9990712
21
-143.248424
0
LINE
8
0
10
67.1101206
20
-124.1987476
11
85.6598054
21
-124.3068824
0
LINE
8
0
10
85.6598054
20
-124.3068824
11
85.7679402
21
-105.7571976
0
LINE
8
0
10
85.7679402
20
-105.7571976
11
67.2182554
21
-105.6490628
0
LINE
8
0
10
67.2182554
20
-105.6490628
11
67.1101206
21
-124.1987476
0
LINE
8
0
10
67.22117
20
-105.1490713
11
85.7708548
21
-105.2572061
0
LINE
8
0
10
85.7708548
20
-105.2572061
11
85.8789896
21
-86.7075213
0
LINE
8
0
10
85.8789896
20
-86.7075213
11
67.3293048
21
-86.5993865
0
LINE
8
0
10
67.3293048
20
-86.5993865
11
67.22117
21
-105.1490713
0
LINE
8
0
10
67.3322194
20
-86.099395
11
85.8819042
21
-86.2075298
0
LINE
8
0
10
85.8819042
20
-86.2075298
11
85.990039
21
-67.657845
0
LINE
8
0
10
85.990039
20
-67.657845
11
67.4403542
21
-67.5497102
0
LINE
8
0
10
67.4403542
20
-67.5497102
11
67.3322194
21
-86.099395
0
LINE
8
0
10
85.6729742
20
-180.2946267
11
104.2179466
21
-180.7264817
0
LINE
8
0
10
104.2179466
20
-180.7264817
11
104.6498016
21
-162.1815093
0
LINE
8
0
10
104.6498016
20
-162.1815093
11
86.1048292
21
-161.7496543
0
LINE
8
0
10
86.1048292
20
-161.7496543
11
85.6729742
21
-180.2946267
0
LINE
8
0
10
86.1164694
20
-161.2497898
11
104.6614418
21
-161.6816448
0
LINE
8
0
10
104.6614418
20
-161.6816448
11
105.0932968
21
-143.1366724
0
LINE
8
0
10
105.0932968
20
-143.1366724
11
86.5483244
21
-142.7048174
0
LINE
8
0
10
86.5483244
20
-142.7048174
11
86.1164694
21
-161.2497898
0
LINE
8
0
10
86.5599646
20
-142.2049529
11
105.104937
21
-142.6368079
0
LINE
8
0
10
105.104937
20
-142.6368079
11
105.536792
21
-124.0918355
0
LINE
8
0
10
105.536792
20
-124.0918355
11
86.9918196
21
-123.6599805
0
LINE
8
0
10
86.9918196
20
-123.6599805
11
86.5599646
21
-142.2049529
0
LINE
8
0
10
87.0034598
20
-123.1601159
11
105.5484322
21
-123.5919709
0
LINE
8
0
10
105.5484322
20
-123.5919709
11
105.9802872
21
-105.0469985
0
LINE
8
0
10
105.9802872
20
-105.0469985
11
87.4353148
21
-104.6151435
0
LINE
8
0
10
87.4353148
20
-104.6151435
11
87.0034598
21
-123.1601159
0
LINE
8
0
10
87.446955
20
-104.115279
11
105.9919274
21
-104.547134
0
LINE
8
0
10
105.9919274
20
-104.547134
11
106.4237824
21
-86.0021616
0
LINE
8
0
10
106.4237824
20
-86.0021616
11
87.87881
21
-85.5703066
0
LINE
8
0
10
87.87881
20
-85.5703066
11
87.446955
21
-104.115279
0
LINE
8
0
10
87.8904502
20
-85.0704421
11
106.4354226
21
-85.5022971
0
LINE
8
0
10
106.4354226
20
-85.5022971
11
106.8672776
21
-66.9573247
0
LINE
8
0
10
106.8672776
20
-66.9573247
11
88.3223052
21
-66.5254697
0
LINE
8
0
10
88.3223052
20
-66.5254697
11
87.8904502
21
-85.0704421
0
LINE
8
0
10
105.3137229
20
-162.5366798
11
123.8483339
21
-163.2921234
0
LINE
8
0
10
123.8483339
20
-163.2921234
11
124.6037775
21
-144.7575124
0
LINE
8
0
10
124.6037775
20
-144.7575124
11
106.0691665
21
-144.0020688
0
LINE
8
0
10
106.0691665
20
-144.0020688
11
105.3137229
21
-162.5366798
0
LINE
8
0
10
106.0895288
20
-143.5024836
11
124.6241398
21
-144.2579272
0
LINE
8
0
10
124.6241398
20
-144.2579272
11
125.3795834
21
-125.7233162
0
LINE
8
0
10
125.3795834
20
-125.7233162
11
106.8449724
21
-124.9678726
0
LINE
8
0
10
106.8449724
20
-124.9678726
11
106.0895288
21
-143.5024836
0
LINE
8
0
10
106.8653348
20
-124.4682875
11
125.3999458
21
-125.2237311
0
LINE
8
0
10
125.3999458
20
-125.2237311
11
126.1553894
21
-106.6891201
0
LINE
8
0
10
126.1553894
20
-106.6891201
11
107.6207784
21
-105.9336765
0
LINE
8
0
10
107.6207784
20
-105.9336765
11
106.8653348
21
-124.4682875
0
LINE
8
0
10
107.6411407
20
-105.4340913
11
126.1757517
21
-106.1895349
0
LINE
8
0
10
126.1757517
20
-106.1895349
11
126.9311953
21
-87.6549239
0
LINE
8
0
10
126.9311953
20
-87.6549239
11
108.3965843
21
-86.8994803
0
LINE
8
0
10
108.3965843
20
-86.8994803
11
107.6411407
21
-105.4340913
0
LINE
8
0
10
108.4169466
20
-86.3998951
11
126.9515576
21
-87.1553387
0
LINE
8
0
10
126.9515576
20
-87.1553387
11
127.7070012
21
-68.6207277
0
LINE
8
0
10
127.7070012
20
-68.6207277
11
109.1723902
21
-67.8652841
0
LINE
8
0
10
109.1723902
20
-67.8652841
11
108.4169466
21
-86.3998951
0
LINE
8
0
10
124.1614343
20
-182.6209094
11
142.6960453
21
-183.376353
0
LINE
8
0
10
142.6960453
20
-183.376353
11
143.4514889
21
-164.841742
0
LINE
8
0
10
143.4514889
20
-164.841742
11
124.9168779
21
-164.0862984
0
LINE
8
0
10
124.9168779
20
-164.0862984
11
124.1614343
21
-182.6209094
0
LINE
8
0
10
124.9372402
20
-163.5867132
11
143.4718512
21
-164.3421568
0
LINE
8
0
10
143.4718512
20
-164.3421568
11
144.2272948
21
-145.8075458
0
LINE
8
0
10
144.2272948
20
-145.8075458
11
125.6926838
21
-145.0521022
0
LINE
8
0
10
125.6926838
20
-145.0521022
11
124.9372402
21
-163.5867132
0
LINE
8
0
10
125.7130461
20
-144.552517
11
144.2476571
21
-145.3079606
0
LINE
8
0
10
144.2476571
20
-145.3079606
11
145.0031007
21
-126.7733496
0
LINE
8
0
10
145.0031007
20
-126.7733496
11
126.4684897
21
-126.017906
0
LINE
8
0
10
126.4684897
20
-126.017906
11
125.7130461
21
-144.552517
0
LINE
8
0
10
126.4888521
20
-125.5183209
11
145.0234631
21
-126.2737645
0
LINE
8
0
10
145.0234631
20
-126.2737645
11
145.7789067
21
-107.7391535
0
LINE
8
0
10
145.7789067
20
-107.7391535
11
127.2442957
21
-106.9837099
0
LINE
8
0
10
127.2442957
20
-106.9837099
11
126.4888521
21
-125.5183209
0
LINE
8
0
10
127.264658
20
-106.4841247
11
145.799269
21
-107.2395683
0
LINE
8
0
10
145.799269
20
-107.2395683
11
146.5547126
21
-88.7049573
0
LINE
8
0
10
146.5547126
20
-88.7049573
11
128.0201016
21
-87.9495137
0
LINE
8
0
10
128.0201016
20
-87.9495137
11
127.264658
21
-106.4841247
0
LINE
8
0
10
128.0404639
20
-87.4499285
11
146.5750749
21
-88.2053721
0
LINE
8
0
10
146.5750749
20
-88.2053721
11
147.3305185
21
-69.6707611
0
LINE
8
0
10
147.3305185
20
-69.6707611
11
128.7959075
21
-68.9153175
0
LINE
8
0
10
128.7959075
20
-68.9153175
11
128.0404639
21
-87.4499285
0
LINE
8
0
10
183.5803779
20
-183.2666338
11
202.1103004
21
-182.4038049
0
LINE
8
0
10
202.1103004
20
-182.4038049
11
201.2474715
21
-163.8738824
0
LINE
8
0
10
201.2474715
20
-163.8738824
11
182.717549
21
-164.7367113
0
LINE
8
0
10
182.717549
20
-164.7367113
11
183.5803779
21
-183.2666338
0
LINE
8
0
10
183.2936427
20
-164.2093442
11
201.8235652
21
-163.3465153
0
LINE
8
0
10
201.8235652
20
-163.3465153
11
200.9607363
21
-144.8165928
0
LINE
8
0
10
200.9607363
20
-144.8165928
11
182.4308138
21
-145.6794217
0
LINE
8
0
10
182.4308138
20
-145.6794217
11
183.2936427
21
-164.2093442
0
LINE
8
0
10
182.4075569
20
-145.1799629
11
200.9374794
21
-144.317134
0
LINE
8
0
10
200.9374794
20
-144.317134
11
200.0746505
21
-125.7872115
0
LINE
8
0
10
200.0746505
20
-125.7872115
11
181.544728
21
-126.6500404
0
LINE
8
0
10
181.544728
20
-126.6500404
11
182.4075569
21
-145.1799629
0
LINE
8
0
10
181.5214712
20
-126.1505816
11
200.0513937
21
-125.2877527
0
LINE
8
0
10
200.0513937
20
-125.2877527
11
199.1885648
21
-106.7578302
0
LINE
8
0
10
199.1885648
20
-106.7578302
11
180.6586423
21
-107.6206591
0
LINE
8
0
10
180.6586423
20
-107.6206591
11
181.5214712
21
-126.1505816
0
LINE
8
0
10
180.6353854
20
-107.1212002
11
199.1653079
21
-106.2583713
0
LINE
8
0
10
199.1653079
20
-106.2583713
11
198.302479
21
-87.7284488
0
LINE
8
0
10
198.302479
20
-87.7284488
11
179.7725565
21
-88.5912777
0
LINE
8
0
10
179.7725565
20
-88.5912777
11
180.6353854
21
-107.1212002
0
LINE
8
0
10
179.7492996
20
-88.0918189
11
198.2792221
21
-87.22899
0
LINE
8
0
10
198.2792221
20
-87.22899
11
197.4163932
21
-68.6990675
0
LINE
8
0
10
197.4163932
20
-68.6990675
11
178.8864707
21
-69.5618964
0
LINE
8
0
10
178.8864707
20
-69.5618964
11
179.7492996
21
-88.0918189
0
LINE
8
0
10
202.3113956
20
-163.073529
11
220.8413181
21
-162.2107001
0
LINE
8
0
10
220.8413181
20
-162.2107001
11
219.9784892
21
-143.6807776
0
LINE
8
0
10
219.9784892
20
-143.6807776
11
201.4485667
21
-144.5436065
0
LINE
8
0
10
201.4485667
20
-144.5436065
11
202.3113956
21
-163.073529
0
LINE
8
0
10
201.4253098
20
-144.0441477
11
219.9552323
21
-143.1813188
0
LINE
8
0
10
219.9552323
20
-143.1813188
11
219.0924034
21
-124.6513963
0
LINE
8
0
10
219.0924034
20
-124.6513963
11
200.5624809
21
-125.5142252
0
LINE
8
0
10
200.5624809
20
-125.5142252
11
201.4253098
21
-144.0441477
0
LINE
8
0
10
200.5392241
20
-125.0147664
11
219.0691466
21
-124.1519375
0
LINE
8
0
10
219.0691466
20
-124.1519375
11
218.2063177
21
-105.622015
0
LINE
8
0
10
218.2063177
20
-105.622015
11
199.6763952
21
-106.4848439
0
LINE
8
0
10
199.6763952
20
-106.4848439
11
200.5392241
21
-125.0147664
0
LINE
8
0
10
199.6531383
20
-105.9853851
11
218.1830608
21
-105.1225562
0
LINE
8
0
10
218.1830608
20
-105.1225562
11
217.3202319
21
-86.5926337
0
LINE
8
0
10
217.3202319
20
-86.5926337
11
198.7903094
21
-87.4554626
0
LINE
8
0
10
198.7903094
20
-87.4554626
11
199.6531383
21
-105.9853851
0
LINE
8
0
10
198.7670525
20
-86.9560037
11
217.296975
21
-86.0931748
0
LINE
8
0
10
217.296975
20
-86.0931748
11
216.4341461
21
-67.5632523
0
LINE
8
0
10
216.4341461
20
-67.5632523
11
197.9042236
21
-68.4260812
0
LINE
8
0
10
197.9042236
20
-68.4260812
11
198.7670525
21
-86.9560037
0
LINE
8
0
10
222.0124692
20
-180.0622634
11
240.5546279
21
-179.5229577
0
LINE
8
0
10
240.5546279
20
-179.5229577
11
240.0153222
21
-160.980799
0
LINE
8
0
10
240.0153222
20
-160.980799
11
221.4731635
21
-161.5201047
0
LINE
8
0
10
221.4731635
20
-161.5201047
11
222.0124692
21
-180.0622634
0
LINE
8
0
10
221.4586269
20
-161.020316
11
240.0007856
21
-160.4810103
0
LINE
8
0
10
240.0007856
20
-160.4810103
11
239.4614799
21
-141.9388516
0
LINE
8
0
10
239.4614799
20
-141.9388516
11
220.9193212
21
-142.4781573
0
LINE
8
0
10
220.9193212
20
-142.4781573
11
221.4586269
21
-161.020316
0
LINE
8
0
10
220.9047846
20
-141.9783687
11
239.4469433
21
-141.439063
0
LINE
8
0
10
239.4469433
20
-141.439063
11
238.9076376
21
-122.8969043
0
LINE
8
0
10
238.9076376
20
-122.8969043
11
220.3654789
21
-123.43621
0
LINE
8
0
10
220.3654789
20
-123.43621
11
220.9047846
21
-141.9783687
0
LINE
8
0
10
220.3509423
20
-122.9364213
11
238.893101
21
-122.3971156
0
LINE
8
0
10
238.893101
20
-122.3971156
11
238.3537953
21
-103.8549569
0
LINE
8
0
10
238.3537953
20
-103.8549569
11
219.8116366
21
-104.3942626
0
LINE
8
0
10
219.8116366
20
-104.3942626
11
220.3509423
21
-122.9364213
0
LINE
8
0
10
219.7971001
20
-103.894474
11
238.3392588
21
-103.3551683
0
LINE
8
0
10
238.3392588
20
-103.3551683
11
237.7999531
21
-84.8130096
0
LINE
8
0
10
237.7999531
20
-84.8130096
11
219.2577944
21
-85.3523153
0
LINE
8
0
10
219.2577944
20
-85.3523153
11
219.7971001
21
-103.894474
0
LINE
8
0
10
219.2432578
20
-84.8525266
11
237.7854165
21
-84.3132209
0
LINE
8
0
10
237.7854165
20
-84.3132209
11
237.2461108
21
-65.7710622
0
LINE
8
0
10
237.2461108
20
-65.7710622
11
218.7039521
21
-66.3103679
0
LINE
8
0
10
218.7039521
20
-66.3103679
11
219.2432578
21
-84.8525266
0
LINE
8
0
10
240.9183519
20
-180.3494488
11
259.4670987
21
-180.1338304
0
LINE
8
0
10
259.4670987
20
-180.1338304
11
259.2514803
21
-161.5850836
0
LINE
8
0
10
259.2514803
20
-161.5850836
11
240.7027335
21
-161.800702
0
LINE
8
0
10
240.7027335
20
-161.800702
11
240.9183519
21
-180.3494488
0
LINE
8
0
10
240.6969218
20
-161.3007357
11
259.2456686
21
-161.0851173
0
LINE
8
0
10
259.2456686
20
-161.0851173
11
259.0300502
21
-142.5363705
0
LINE
8
0
10
259.0300502
20
-142.5363705
11
240.4813034
21
-142.7519889
0
LINE
8
0
10
240.4813034
20
-142.7519889
11
240.6969218
21
-161.3007357
0
LINE
8
0
10
240.4754916
20
-142.2520227
11
259.0242384
21
-142.0364043
0
LINE
8
0
10
259.0242384
20
-142.0364043
11
258.80862
21
-123.4876575
0
LINE
8
0
10
258.80862
20
-123.4876575
11
240.2598732
21
-123.7032759
0
LINE
8
0
10
240.2598732
20
-123.7032759
11
240.4754916
21
-142.2520227
0
LINE
8
0
10
240.2540614
20
-123.2033096
11
258.8028082
21
-122.9876912
0
LINE
8
0
10
258.8028082
20
-122.9876912
11
258.5871898
21
-104.4389444
0
LINE
8
0
10
258.5871898
20
-104.4389444
11
240.038443
21
-104.6545628
0
LINE
8
0
10
240.038443
20
-104.6545628
11
240.2540614
21
-123.2033096
0
LINE
8
0
10
240.0326312
20
-104.1545966
11
258.581378
21
-103.9389782
0
LINE
8
0
10
258.581378
20
-103.9389782
11
258.3657596
21
-85.3902314
0
LINE
8
0
10
258.3657596
20
-85.3902314
11
239.8170128
21
-85.6058498
0
LINE
8
0
10
239.8170128
20
-85.6058498
11
240.0326312
21
-104.1545966
0
LINE
8
0
10
239.8112011
20
-85.1058836
11
258.3599479
21
-84.8902652
0
LINE
8
0
10
258.3599479
20
-84.8902652
11
258.1443295
21
-66.3415184
0
LINE
8
0
10
258.1443295
20
-66.3415184
11
239.5955827
21
-66.5571368
0
LINE
8
0
10
239.5955827
20
-66.5571368
11
239.8112011
21
-85.1058836
0
LINE
8
0
10
259.8279666
20
-181.9664759
11
278.3776514
21
-182.0746107
0
LINE
8
0
10
278.3776514
20
-182.0746107
11
278.4857862
21
-163.5249259
0
LINE
8
0
10
278.4857862
20
-163.5249259
11
259.9361014
21
-163.4167911
0
LINE
8
0
10
259.9361014
20
-163.4167911
11
259.8279666
21
-181.9664759
0
LINE
8
0
10
259.939016
20
-162.9167996
11
278.4887008
21
-163.0249344
0
LINE
8
0
10
278.4887008
20
-163.0249344
11
278.5968356
21
-144.4752496
0
LINE
8
0
10
278.5968356
20
-144.4752496
11
260.0471508
21
-144.3671148
0
LINE
8
0
10
260.0471508
20
-144.3671148
11
259.939016
21
-162.9167996
0
LINE
8
0
10
260.0500654
20
-143.8671232
11
278.5997502
21
-143.975258
0
LINE
8
0
10
278.5997502
20
-143.975258
11
278.707885
21
-125.4255732
0
LINE
8
0
10
278.707885
20
-125.4255732
11
260.1582002
21
-125.3174384
0
LINE
8
0
10
260.1582002
20
-125.3174384
11
260.0500654
21
-143.8671232
0
LINE
8
0
10
260.1611148
20
-124.8174469
11
278.7107996
21
-124.9255817
0
LINE
8
0
10
278.7107996
20
-124.9255817
11
278.8189344
21
-106.3758969
0
LINE
8
0
10
278.8189344
20
-106.3758969
11
260.2692496
21
-106.2677621
0
LINE
8
0
10
260.2692496
20
-106.2677621
11
260.1611148
21
-124.8174469
0
LINE
8
0
10
260.2721642
20
-105.7677706
11
278.821849
21
-105.8759054
0
LINE
8
0
10
278.821849
20
-105.8759054
11
278.9299838
21
-87.3262206
0
LINE
8
0
10
278.9299838
20
-87.3262206
11
260.380299
21
-87.2180858
0
LINE
8
0
10
260.380299
20
-87.2180858
11
260.2721642
21
-105.7677706
0
LINE
8
0
10
278.877643
20
-182.0775253
11
297.4273278
21
-182.1856601
0
LINE
8
0
10
297.4273278
20
-182.1856601
11
297.5354626
21
-163.6359753
0
LINE
8
0
10
297.5354626
20
-163.6359753
11
278.9857778
21
-163.5278405
0
LINE
8
0
10
278.9857778
20
-163.5278405
11
278.877643
21
-182.0775253
0
LINE
8
0
10
284.3511013
20
-163.0591089
11
302.9007861
21
-163.1672437
0
LINE
8
0
10
302.9007861
20
-163.1672437
11
303.0089209
21
-144.6175589
0
LINE
8
0
10
303.0089209
20
-144.6175589
11
284.4592361
21
-144.5094241
0
LINE
8
0
10
284.4592361
20
-144.5094241
11
284.3511013
21
-163.0591089
0
LINE
8
0
10
279.0997418
20
-143.9781726
11
297.6494266
21
-144.0863074
0
LINE
8
0
10
297.6494266
20
-144.0863074
11
297.7575614
21
-125.5366226
0
LINE
8
0
10
297.7575614
20
-125.5366226
11
279.2078766
21
-125.4284878
0
LINE
8
0
10
279.2078766
20
-125.4284878
11
279.0997418
21
-143.9781726
0
LINE
8
0
10
279.2107911
20
-124.9284963
11
297.7604759
21
-125.0366311
0
LINE
8
0
10
297.7604759
20
-125.0366311
11
297.8686107
21
-106.4869463
0
LINE
8
0
10
297.8686107
20
-106.4869463
11
279.3189259
21
-106.3788115
0
LINE
8
0
10
279.3189259
20
-106.3788115
11
279.2107911
21
-124.9284963
0
LINE
8
0
10
279.3218405
20
-105.87882
11
297.8715253
21
-105.9869548
0
LINE
8
0
10
297.8715253
20
-105.9869548
11
297.9796601
21
-87.43727
0
LINE
8
0
10
297.9796601
20
-87.43727
11
279.4299753
21
-87.3291352
0
LINE
8
0
10
279.4299753
20
-87.3291352
11
279.3218405
21
-105.87882
0
LINE
8
0
10
279.4328899
20
-86.8291436
11
297.9825747
21
-86.9372784
0
LINE
8
0
10
297.9825747
20
-86.9372784
11
298.0907095
21
-68.3875936
0
LINE
8
0
10
298.0907095
20
-68.3875936
11
279.5410247
21
-68.2794588
0
LINE
8
0
10
279.5410247
20
-68.2794588
11
279.4328899
21
-86.8291436
0
LINE
8
0
10
303.511827
20
-144.1204821
11
322.0615118
21
-144.2286169
0
LINE
8
0
10
322.0615118
20
-144.2286169
11
322.1696466
21
-125.6789321
0
LINE
8
0
10
322.1696466
20
-125.6789321
11
303.6199618
21
-125.5707973
0
LINE
8
0
10
303.6199618
20
-125.5707973
11
303.511827
21
-144.1204821
0
LINE
8
0
10
298.2604675
20
-125.0395458
11
316.8101523
21
-125.1476806
0
LINE
8
0
10
316.8101523
20
-125.1476806
11
316.9182871
21
-106.5979958
0
LINE
8
0
10
316.9182871
20
-106.5979958
11
298.3686023
21
-106.489861
0
LINE
8
0
10
298.3686023
20
-106.489861
11
298.2604675
21
-125.0395458
0
LINE
8
0
10
298.3715169
20
-105.9898695
11
316.9212017
21
-106.0980043
0
LINE
8
0
10
316.9212017
20
-106.0980043
11
317.0293365
21
-87.5483195
0
LINE
8
0
10
317.0293365
20
-87.5483195
11
298.4796517
21
-87.4401847
0
LINE
8
0
10
298.4796517
20
-87.4401847
11
298.3715169
21
-105.9898695
0
LINE
8
0
10
298.4825663
20
-86.9401931
11
317.0322511
21
-87.0483279
0
LINE
8
0
10
317.0322511
20
-87.0483279
11
317.1403859
21
-68.4986431
0
LINE
8
0
10
317.1403859
20
-68.4986431
11
298.5907011
21
-68.3905083
0
LINE
8
0
10
298.5907011
20
-68.3905083
11
298.4825663
21
-86.9401931
0
LINE
8
0
10
317.3101438
20
-125.1505953
11
335.8598286
21
-125.2587301
0
LINE
8
0
10
335.8598286
20
-125.2587301
11
335.9679634
21
-106.7090453
0
LINE
8
0
10
335.9679634
20
-106.7090453
11
317.4182786
21
-106.6009105
0
LINE
8
0
10
317.4182786
20
-106.6009105
11
317.3101438
21
-125.1505953
0
LINE
8
0
10
322.7836021
20
-106.1321789
11
341.3332869
21
-106.2403137
0
LINE
8
0
10
341.3332869
20
-106.2403137
11
341.4414217
21
-87.6906289
0
LINE
8
0
10
341.4414217
20
-87.6906289
11
322.8917369
21
-87.5824941
0
LINE
8
0
10
322.8917369
20
-87.5824941
11
322.7836021
21
-106.1321789
0
LINE
8
0
10
317.5322426
20
-87.0512426
11
336.0819274
21
-87.1593774
0
LINE
8
0
10
336.0819274
20
-87.1593774
11
336.1900622
21
-68.6096926
0
LINE
8
0
10
336.1900622
20
-68.6096926
11
317.6403774
21
-68.5015578
0
LINE
8
0
10
317.6403774
20
-68.5015578
11
317.5322426
21
-87.0512426
0
LINE
8
0
10
336.581919
20
-87.1622919
11
355.1316038
21
-87.2704267
0
LINE
8
0
10
355.1316038
20
-87.2704267
11
355.2397386
21
-68.7207419
0
LINE
8
0
10
355.2397386
20
-68.7207419
11
336.6900538
21
-68.6126071
0
LINE
8
0
10
336.6900538
20
-68.6126071
11
336.581919
21
-87.1622919
0
LINE
8
0
10
339.2614982
20
-196.1686257
11
351.7540198
21
-182.4558797
0
LINE
8
0
10
351.7540198
20
-182.4558797
11
338.0412738
21
-169.9633581
0
LINE
8
0
10
338.0412738
20
-169.9633581
11
325.5487522
21
-183.6761041
0
LINE
8
0
10
325.5487522
20
-183.6761041
11
339.2614982
21
-196.1686257
0
LINE
8
0
10
325.1791364
20
-183.3393783
11
337.671658
21
-169.6266323
0
LINE
8
0
10
337.671658
20
-169.6266323
11
323.958912
21
-157.1341107
0
LINE
8
0
10
323.958912
20
-157.1341107
11
311.4663904
21
-170.8468567
0
LINE
8
0
10
311.4663904
20
-170.8468567
11
325.1791364
21
-183.3393783
0
LINE
8
0
10
352.0907455
20
-182.0862639
11
364.5832671
21
-168.3735179
0
LINE
8
0
10
364.5832671
20
-168.3735179
11
350.8705211
21
-155.8809963
0
LINE
8
0
10
350.8705211
20
-155.8809963
11
338.3779995
21
-169.5937423
0
LINE
8
0
10
338.3779995
20
-169.5937423
11
352.0907455
21
-182.0862639
0
LINE
8
0
10
338.0083837
20
-169.2570165
11
350.5009053
21
-155.5442705
0
LINE
8
0
10
350.5009053
20
-155.5442705
11
336.7881593
21
-143.0517489
0
LINE
8
0
10
336.7881593
20
-143.0517489
11
324.2956377
21
-156.7644949
0
LINE
8
0
10
324.2956377
20
-156.7644949
11
338.0083837
21
-169.2570165
0
LINE
8
0
10
368.1273046
20
-164.4833116
11
380.6198262
21
-150.7705656
0
LINE
8
0
10
380.6198262
20
-150.7705656
11
366.9070802
21
-138.278044
0
LINE
8
0
10
366.9070802
20
-138.278044
11
354.4145586
21
-151.99079
0
LINE
8
0
10
354.4145586
20
-151.99079
11
368.1273046
21
-164.4833116
0
LINE
8
0
10
354.0449428
20
-151.6540643
11
366.5374644
21
-137.9413183
0
LINE
8
0
10
366.5374644
20
-137.9413183
11
352.8247184
21
-125.4487967
0
LINE
8
0
10
352.8247184
20
-125.4487967
11
340.3321968
21
-139.1615427
0
LINE
8
0
10
340.3321968
20
-139.1615427
11
354.0449428
21
-151.6540643
0
LINE
8
0
10
380.9565519
20
-150.4009498
11
393.4490735
21
-136.6882038
0
LINE
8
0
10
393.4490735
20
-136.6882038
11
379.7363275
21
-124.1956822
0
LINE
8
0
10
379.7363275
20
-124.1956822
11
367.2438059
21
-137.9084282
0
LINE
8
0
10
367.2438059
20
-137.9084282
11
380.9565519
21
-150.4009498
0
LINE
8
0
10
366.8741901
20
-137.5717025
11
379.3667117
21
-123.8589565
0
LINE
8
0
10
379.3667117
20
-123.8589565
11
365.6539657
21
-111.3664349
0
LINE
8
0
10
365.6539657
20
-111.3664349
11
353.1614441
21
-125.0791809
0
LINE
8
0
10
353.1614441
20
-125.0791809
11
366.8741901
21
-137.5717025
0
LINE
8
0
10
365.045384
20
-106.3785424
11
383.5950688
21
-106.4866772
0
LINE
8
0
10
383.5950688
20
-106.4866772
11
383.7032036
21
-87.9369924
0
LINE
8
0
10
383.7032036
20
-87.9369924
11
365.1535188
21
-87.8288576
0
LINE
8
0
10
365.1535188
20
-87.8288576
11
365.045384
21
-106.3785424
0
LINE
8
0
10
365.1564334
20
-87.3288661
11
383.7061182
21
-87.4370009
0
LINE
8
0
10
383.7061182
20
-87.4370009
11
383.814253
21
-68.8873161
0
LINE
8
0
10
383.814253
20
-68.8873161
11
365.2645682
21
-68.7791813
0
LINE
8
0
10
365.2645682
20
-68.7791813
11
365.1564334
21
-87.3288661
0
LINE
8
0
10
384.0950604
20
-106.4895918
11
402.6447452
21
-106.5977266
0
LINE
8
0
10
402.6447452
20
-106.5977266
11
402.75288
21
-88.0480418
0
LINE
8
0
10
402.75288
20
-88.0480418
11
384.2031952
21
-87.939907
0
LINE
8
0
10
384.2031952
20
-87.939907
11
384.0950604
21
-106.4895918
0
LINE
8
0
10
384.2061098
20
-87.4399154
11
402.7557946
21
-87.5480502
0
LINE
8
0
10
402.7557946
20
-87.5480502
11
402.8639294
21
-68.9983654
0
LINE
8
0
10
402.8639294
20
-68.9983654
11
384.3142446
21
-68.8902306
0
LINE
8
0
10
384.3142446
20
-68.8902306
11
384.2061098
21
-87.4399154
0
ENDSEC
0
EOF