0
SECTION
2
HEADER
9
$INSUNITS
70
4
0
ENDSEC
0
SECTION
2
TABLES
0
TABLE
2
LTYPE
0
LTYPE
72
65
70
64
2
CONTINUOUS
3
______
73
0
40
0
0
ENDTAB
0
TABLE
2
LAYER
0
ENDTAB
0
ENDSEC
0
SECTION
2
ENTITIES
0
LINE
8
0
10
34.8051363
20
-206.7041424
11
48.8046032
21
-206.5819709
0
LINE
8
0
10
48.8046032
20
-206.5819709
11
48.6824317
21
-192.582504
0
LINE
8
0
10
48.6824317
20
-192.582504
11
34.6829648
21
-192.7046755
0
LINE
8
0
10
34.6829648
20
-192.7046755
11
34.8051363
21
-206.7041424
0
LINE
8
0
10
29.3765962
20
-187.7007912
11
43.3760631
21
-187.5786197
0
LINE
8
0
10
43.3760631
20
-187.5786197
11
43.2538916
21
-173.5791528
0
LINE
8
0
10
43.2538916
20
-173.5791528
11
29.2544247
21
-173.7013243
0
LINE
8
0
10
29.2544247
20
-173.7013243
11
29.3765962
21
-187.7007912
0
LINE
8
0
10
29.2103557
20
-168.6515165
11
43.2098226
21
-168.529345
0
LINE
8
0
10
43.2098226
20
-168.529345
11
43.0876511
21
-154.5298781
0
LINE
8
0
10
43.0876511
20
-154.5298781
11
29.0881842
21
-154.6520496
0
LINE
8
0
10
29.0881842
20
-154.6520496
11
29.2103557
21
-168.6515165
0
LINE
8
0
10
29.0441152
20
-149.6022419
11
43.0435821
21
-149.4800704
0
LINE
8
0
10
43.0435821
20
-149.4800704
11
42.9214106
21
-135.4806035
0
LINE
8
0
10
42.9214106
20
-135.4806035
11
28.9219437
21
-135.602775
0
LINE
8
0
10
28.9219437
20
-135.602775
11
29.0441152
21
-149.6022419
0
LINE
8
0
10
34.1401743
20
-130.5070439
11
48.1396412
21
-130.3848724
0
LINE
8
0
10
48.1396412
20
-130.3848724
11
48.0174697
21
-116.3854055
0
LINE
8
0
10
48.0174697
20
-116.3854055
11
34.0180028
21
-116.507577
0
LINE
8
0
10
34.0180028
20
-116.507577
11
34.1401743
21
-130.5070439
0
LINE
8
0
10
33.9739338
20
-111.4577692
11
47.9734007
21
-111.3355977
0
LINE
8
0
10
47.9734007
20
-111.3355977
11
47.8512292
21
-97.3361308
0
LINE
8
0
10
47.8512292
20
-97.3361308
11
33.8517623
21
-97.4583023
0
LINE
8
0
10
33.8517623
20
-97.4583023
11
33.9739338
21
-111.4577692
0
LINE
8
0
10
53.854411
20
-206.5379019
11
67.8538779
21
-206.4157304
0
LINE
8
0
10
67.8538779
20
-206.4157304
11
67.7317064
21
-192.4162635
0
LINE
8
0
10
67.7317064
20
-192.4162635
11
53.7322395
21
-192.538435
0
LINE
8
0
10
53.7322395
20
-192.538435
11
53.854411
21
-206.5379019
0
LINE
8
0
10
53.6881705
20
-187.4886273
11
67.6876374
21
-187.3664558
0
LINE
8
0
10
67.6876374
20
-187.3664558
11
67.5654659
21
-173.3669889
0
LINE
8
0
10
67.5654659
20
-173.3669889
11
53.565999
21
-173.4891604
0
LINE
8
0
10
53.565999
20
-173.4891604
11
53.6881705
21
-187.4886273
0
LINE
8
0
10
53.52193
20
-168.4393526
11
67.5213969
21
-168.3171811
0
LINE
8
0
10
67.5213969
20
-168.3171811
11
67.3992254
21
-154.3177142
0
LINE
8
0
10
67.3992254
20
-154.3177142
11
53.3997585
21
-154.4398857
0
LINE
8
0
10
53.3997585
20
-154.4398857
11
53.52193
21
-168.4393526
0
LINE
8
0
10
53.3556895
20
-149.390078
11
67.3551564
21
-149.2679065
0
LINE
8
0
10
67.3551564
20
-149.2679065
11
67.2329849
21
-135.2684396
0
LINE
8
0
10
67.2329849
20
-135.2684396
11
53.233518
21
-135.3906111
0
LINE
8
0
10
53.233518
20
-135.3906111
11
53.3556895
21
-149.390078
0
LINE
8
0
10
53.189449
20
-130.3408034
11
67.1889159
21
-130.2186319
0
LINE
8
0
10
67.1889159
20
-130.2186319
11
67.0667444
21
-116.219165
0
LINE
8
0
10
67.0667444
20
-116.219165
11
53.0672775
21
-116.3413365
0
LINE
8
0
10
53.0672775
20
-116.3413365
11
53.189449
21
-130.3408034
0
LINE
8
0
10
72.764061
20
-204.249566
11
86.7635279
21
-204.3717375
0
LINE
8
0
10
86.7635279
20
-204.3717375
11
86.8856994
21
-190.3722706
0
LINE
8
0
10
86.8856994
20
-190.3722706
11
72.8862325
21
-190.2500991
0
LINE
8
0
10
72.8862325
20
-190.2500991
11
72.764061
21
-204.249566
0
LINE
8
0
10
72.9303015
20
-185.2002914
11
86.9297684
21
-185.3224629
0
LINE
8
0
10
86.9297684
20
-185.3224629
11
87.0519399
21
-171.322996
0
LINE
8
0
10
87.0519399
20
-171.322996
11
73.052473
21
-171.2008245
0
LINE
8
0
10
73.052473
20
-171.2008245
11
72.9303015
21
-185.2002914
0
LINE
8
0
10
73.0965419
20
-166.1510168
11
87.0960088
21
-166.2731883
0
LINE
8
0
10
87.0960088
20
-166.2731883
11
87.2181803
21
-152.2737214
0
LINE
8
0
10
87.2181803
20
-152.2737214
11
73.2187134
21
-152.1515499
0
LINE
8
0
10
73.2187134
20
-152.1515499
11
73.0965419
21
-166.1510168
0
LINE
8
0
10
73.2627824
20
-147.1017421
11
87.2622493
21
-147.2239136
0
LINE
8
0
10
87.2622493
20
-147.2239136
11
87.3844208
21
-133.2244467
0
LINE
8
0
10
87.3844208
20
-133.2244467
11
73.3849539
21
-133.1022752
0
LINE
8
0
10
73.3849539
20
-133.1022752
11
73.2627824
21
-147.1017421
0
LINE
8
0
10
73.4290229
20
-128.0524675
11
87.4284898
21
-128.174639
0
LINE
8
0
10
87.4284898
20
-128.174639
11
87.5506613
21
-114.1751721
0
LINE
8
0
10
87.5506613
20
-114.1751721
11
73.5511944
21
-114.0530006
0
LINE
8
0
10
73.5511944
20
-114.0530006
11
73.4290229
21
-128.0524675
0
LINE
8
0
10
73.5952633
20
-109.0031928
11
87.5947302
21
-109.1253643
0
LINE
8
0
10
87.5947302
20
-109.1253643
11
87.7169017
21
-95.1258974
0
LINE
8
0
10
87.7169017
20
-95.1258974
11
73.7174348
21
-95.0037259
0
LINE
8
0
10
73.7174348
20
-95.0037259
11
73.5952633
21
-109.0031928
0
LINE
8
0
10
91.7020415
20
-203.2915595
11
105.697244
21
-203.6580368
0
LINE
8
0
10
105.697244
20
-203.6580368
11
106.0637213
21
-189.6628343
0
LINE
8
0
10
106.0637213
20
-189.6628343
11
92.0685188
21
-189.296357
0
LINE
8
0
10
92.0685188
20
-189.296357
11
91.7020415
21
-203.2915595
0
LINE
8
0
10
92.2007123
20
-184.2480874
11
106.1959148
21
-184.6145647
0
LINE
8
0
10
106.1959148
20
-184.6145647
11
106.5623921
21
-170.6193622
0
LINE
8
0
10
106.5623921
20
-170.6193622
11
92.5671896
21
-170.2528849
0
LINE
8
0
10
92.5671896
20
-170.2528849
11
92.2007123
21
-184.2480874
0
LINE
8
0
10
92.6993832
20
-165.2046153
11
106.6945857
21
-165.5710926
0
LINE
8
0
10
106.6945857
20
-165.5710926
11
107.061063
21
-151.5758901
0
LINE
8
0
10
107.061063
20
-151.5758901
11
93.0658605
21
-151.2094128
0
LINE
8
0
10
93.0658605
20
-151.2094128
11
92.6993832
21
-165.2046153
0
LINE
8
0
10
93.198054
20
-146.1611432
11
107.1932565
21
-146.5276205
0
LINE
8
0
10
107.1932565
20
-146.5276205
11
107.5597338
21
-132.532418
0
LINE
8
0
10
107.5597338
20
-132.532418
11
93.5645313
21
-132.1659407
0
LINE
8
0
10
93.5645313
20
-132.1659407
11
93.198054
21
-146.1611432
0
LINE
8
0
10
93.6967249
20
-127.1176711
11
107.6919274
21
-127.4841484
0
LINE
8
0
10
107.6919274
20
-127.4841484
11
108.0584047
21
-113.4889459
0
LINE
8
0
10
108.0584047
20
-113.4889459
11
94.0632022
21
-113.1224686
0
LINE
8
0
10
94.0632022
20
-113.1224686
11
93.6967249
21
-127.1176711
0
LINE
8
0
10
94.1953958
20
-108.074199
11
108.1905983
21
-108.4406763
0
LINE
8
0
10
108.1905983
20
-108.4406763
11
108.5570756
21
-94.4454738
0
LINE
8
0
10
108.5570756
20
-94.4454738
11
94.5618731
21
-94.0789965
0
LINE
8
0
10
94.5618731
20
-94.0789965
11
94.1953958
21
-108.074199
0
LINE
8
0
10
111.4324526
20
-185.6316583
11
125.4191277
21
-186.2423298
0
LINE
8
0
10
125.4191277
20
-186.2423298
11
126.0297992
21
-172.2556547
0
LINE
8
0
10
126.0297992
20
-172.2556547
11
112.0431241
21
-171.6449832
0
LINE
8
0
10
112.0431241
20
-171.6449832
11
111.4324526
21
-185.6316583
0
LINE
8
0
10
112.263402
20
-166.5997898
11
126.2500771
21
-167.2104613
0
LINE
8
0
10
126.2500771
20
-167.2104613
11
126.8607486
21
-153.2237862
0
LINE
8
0
10
126.8607486
20
-153.2237862
11
112.8740735
21
-152.6131147
0
LINE
8
0
10
112.8740735
20
-152.6131147
11
112.263402
21
-166.5997898
0
LINE
8
0
10
113.0943513
20
-147.5679212
11
127.0810264
21
-148.1785927
0
LINE
8
0
10
127.0810264
20
-148.1785927
11
127.6916979
21
-134.1919176
0
LINE
8
0
10
127.6916979
20
-134.1919176
11
113.7050228
21
-133.5812461
0
LINE
8
0
10
113.7050228
20
-133.5812461
11
113.0943513
21
-147.5679212
0
LINE
8
0
10
113.9253007
20
-128.5360526
11
127.9119758
21
-129.1467241
0
LINE
8
0
10
127.9119758
20
-129.1467241
11
128.5226473
21
-115.160049
0
LINE
8
0
10
128.5226473
20
-115.160049
11
114.5359722
21
-114.5493775
0
LINE
8
0
10
114.5359722
20
-114.5493775
11
113.9253007
21
-128.5360526
0
LINE
8
0
10
114.75625
20
-109.504184
11
128.7429251
21
-110.1148555
0
LINE
8
0
10
128.7429251
20
-110.1148555
11
129.3535966
21
-96.1281804
0
LINE
8
0
10
129.3535966
20
-96.1281804
11
115.3669215
21
-95.5175089
0
LINE
8
0
10
115.3669215
20
-95.5175089
11
114.75625
21
-109.504184
0
LINE
8
0
10
128.0950822
20
-205.6403611
11
142.0789596
21
-206.3120549
0
LINE
8
0
10
142.0789596
20
-206.3120549
11
142.7506534
21
-192.3281775
0
LINE
8
0
10
142.7506534
20
-192.3281775
11
128.766776
21
-191.6564837
0
LINE
8
0
10
128.766776
20
-191.6564837
11
128.0950822
21
-205.6403611
0
LINE
8
0
10
130.5073381
20
-186.6842666
11
144.4912155
21
-187.3559604
0
LINE
8
0
10
144.4912155
20
-187.3559604
11
145.1629093
21
-173.372083
0
LINE
8
0
10
145.1629093
20
-173.372083
11
131.1790319
21
-172.7003892
0
LINE
8
0
10
131.1790319
20
-172.7003892
11
130.5073381
21
-186.6842666
0
LINE
8
0
10
131.4213214
20
-167.6562049
11
145.4051988
21
-168.3278987
0
LINE
8
0
10
145.4051988
20
-168.3278987
11
146.0768926
21
-154.3440213
0
LINE
8
0
10
146.0768926
20
-154.3440213
11
132.0930152
21
-153.6723275
0
LINE
8
0
10
132.0930152
20
-153.6723275
11
131.4213214
21
-167.6562049
0
LINE
8
0
10
132.3353048
20
-148.6281431
11
146.3191822
21
-149.2998369
0
LINE
8
0
10
146.3191822
20
-149.2998369
11
146.990876
21
-135.3159595
0
LINE
8
0
10
146.990876
20
-135.3159595
11
133.0069986
21
-134.6442657
0
LINE
8
0
10
133.0069986
20
-134.6442657
11
132.3353048
21
-148.6281431
0
LINE
8
0
10
133.2492881
20
-129.6000814
11
147.2331655
21
-130.2717752
0
LINE
8
0
10
147.2331655
20
-130.2717752
11
147.9048593
21
-116.2878978
0
LINE
8
0
10
147.9048593
20
-116.2878978
11
133.9209819
21
-115.616204
0
LINE
8
0
10
133.9209819
20
-115.616204
11
133.2492881
21
-129.6000814
0
LINE
8
0
10
134.1632715
20
-110.5720197
11
148.1471489
21
-111.2437135
0
LINE
8
0
10
148.1471489
20
-111.2437135
11
148.8188427
21
-97.2598361
0
LINE
8
0
10
148.8188427
20
-97.2598361
11
134.8349653
21
-96.5881423
0
LINE
8
0
10
134.8349653
20
-96.5881423
11
134.1632715
21
-110.5720197
0
LINE
8
0
10
184.2116358
20
-206.3034172
11
198.1955132
21
-205.6317234
0
LINE
8
0
10
198.1955132
20
-205.6317234
11
197.5238194
21
-191.647846
0
LINE
8
0
10
197.5238194
20
-191.647846
11
183.539942
21
-192.3195398
0
LINE
8
0
10
183.539942
20
-192.3195398
11
184.2116358
21
-206.3034172
0
LINE
8
0
10
181.7993798
20
-187.3473226
11
195.7832572
21
-186.6756288
0
LINE
8
0
10
195.7832572
20
-186.6756288
11
195.1115634
21
-172.6917514
0
LINE
8
0
10
195.1115634
20
-172.6917514
11
181.127686
21
-173.3634452
0
LINE
8
0
10
181.127686
20
-173.3634452
11
181.7993798
21
-187.3473226
0
LINE
8
0
10
180.8853964
20
-168.3192609
11
194.8692738
21
-167.6475671
0
LINE
8
0
10
194.8692738
20
-167.6475671
11
194.19758
21
-153.6636897
0
LINE
8
0
10
194.19758
20
-153.6636897
11
180.2137026
21
-154.3353835
0
LINE
8
0
10
180.2137026
20
-154.3353835
11
180.8853964
21
-168.3192609
0
LINE
8
0
10
179.9714131
20
-149.2911992
11
193.9552905
21
-148.6195054
0
LINE
8
0
10
193.9552905
20
-148.6195054
11
193.2835967
21
-134.635628
0
LINE
8
0
10
193.2835967
20
-134.635628
11
179.2997193
21
-135.3073218
0
LINE
8
0
10
179.2997193
20
-135.3073218
11
179.9714131
21
-149.2911992
0
LINE
8
0
10
179.0574297
20
-130.2631375
11
193.0413071
21
-129.5914437
0
LINE
8
0
10
193.0413071
20
-129.5914437
11
192.3696133
21
-115.6075663
0
LINE
8
0
10
192.3696133
20
-115.6075663
11
178.3857359
21
-116.2792601
0
LINE
8
0
10
178.3857359
20
-116.2792601
11
179.0574297
21
-130.2631375
0
LINE
8
0
10
178.1434464
20
-111.2350757
11
192.1273238
21
-110.5633819
0
LINE
8
0
10
192.1273238
20
-110.5633819
11
191.45563
21
-96.5795045
0
LINE
8
0
10
191.45563
20
-96.5795045
11
177.4717526
21
-97.2511983
0
LINE
8
0
10
177.4717526
20
-97.2511983
11
178.1434464
21
-111.2350757
0
LINE
8
0
10
200.815447
20
-186.1836272
11
214.7993244
21
-185.5119334
0
LINE
8
0
10
214.7993244
20
-185.5119334
11
214.1276306
21
-171.528056
0
LINE
8
0
10
214.1276306
20
-171.528056
11
200.1437532
21
-172.1997498
0
LINE
8
0
10
200.1437532
20
-172.1997498
11
200.815447
21
-186.1836272
0
LINE
8
0
10
199.9014637
20
-167.1555655
11
213.8853411
21
-166.4838717
0
LINE
8
0
10
213.8853411
20
-166.4838717
11
213.2136473
21
-152.4999943
0
LINE
8
0
10
213.2136473
20
-152.4999943
11
199.2297699
21
-153.1716881
0
LINE
8
0
10
199.2297699
20
-153.1716881
11
199.9014637
21
-167.1555655
0
LINE
8
0
10
198.9874803
20
-148.1275038
11
212.9713577
21
-147.45581
0
LINE
8
0
10
212.9713577
20
-147.45581
11
212.2996639
21
-133.4719326
0
LINE
8
0
10
212.2996639
20
-133.4719326
11
198.3157865
21
-134.1436264
0
LINE
8
0
10
198.3157865
20
-134.1436264
11
198.9874803
21
-148.1275038
0
LINE
8
0
10
198.073497
20
-129.0994421
11
212.0573744
21
-128.4277483
0
LINE
8
0
10
212.0573744
20
-128.4277483
11
211.3856806
21
-114.4438709
0
LINE
8
0
10
211.3856806
20
-114.4438709
11
197.4018032
21
-115.1155647
0
LINE
8
0
10
197.4018032
20
-115.1155647
11
198.073497
21
-129.0994421
0
LINE
8
0
10
197.1595136
20
-110.0713803
11
211.143391
21
-109.3996865
0
LINE
8
0
10
211.143391
20
-109.3996865
11
210.4716972
21
-95.4158091
0
LINE
8
0
10
210.4716972
20
-95.4158091
11
196.4878198
21
-96.0875029
0
LINE
8
0
10
196.4878198
20
-96.0875029
11
197.1595136
21
-110.0713803
0
LINE
8
0
10
220.5826403
20
-203.1815762
11
234.5761105
21
-202.754037
0
LINE
8
0
10
234.5761105
20
-202.754037
11
234.1485713
21
-188.7605668
0
LINE
8
0
10
234.1485713
20
-188.7605668
11
220.1551011
21
-189.188106
0
LINE
8
0
10
220.1551011
20
-189.188106
11
220.5826403
21
-203.1815762
0
LINE
8
0
10
220.0008816
20
-184.1404614
11
233.9943518
21
-183.7129222
0
LINE
8
0
10
233.9943518
20
-183.7129222
11
233.5668126
21
-169.719452
0
LINE
8
0
10
233.5668126
20
-169.719452
11
219.5733424
21
-170.1469912
0
LINE
8
0
10
219.5733424
20
-170.1469912
11
220.0008816
21
-184.1404614
0
LINE
8
0
10
219.4191229
20
-165.0993465
11
233.4125931
21
-164.6718073
0
LINE
8
0
10
233.4125931
20
-164.6718073
11
232.9850539
21
-150.6783371
0
LINE
8
0
10
232.9850539
20
-150.6783371
11
218.9915837
21
-151.1058763
0
LINE
8
0
10
218.9915837
20
-151.1058763
11
219.4191229
21
-165.0993465
0
LINE
8
0
10
218.8373641
20
-146.0582316
11
232.8308343
21
-145.6306924
0
LINE
8
0
10
232.8308343
20
-145.6306924
11
232.4032951
21
-131.6372222
0
LINE
8
0
10
232.4032951
20
-131.6372222
11
218.4098249
21
-132.0647614
0
LINE
8
0
10
218.4098249
20
-132.0647614
11
218.8373641
21
-146.0582316
0
LINE
8
0
10
218.2556054
20
-127.0171167
11
232.2490756
21
-126.5895775
0
LINE
8
0
10
232.2490756
20
-126.5895775
11
231.8215364
21
-112.5961073
0
LINE
8
0
10
231.8215364
20
-112.5961073
11
217.8280662
21
-113.0236465
0
LINE
8
0
10
217.8280662
20
-113.0236465
11
218.2556054
21
-127.0171167
0
LINE
8
0
10
217.6738467
20
-107.9760018
11
231.6673169
21
-107.5484626
0
LINE
8
0
10
231.6673169
20
-107.5484626
11
231.2397777
21
-93.5549924
0
LINE
8
0
10
231.2397777
20
-93.5549924
11
217.2463075
21
-93.9825316
0
LINE
8
0
10
217.2463075
20
-93.9825316
11
217.6738467
21
-107.9760018
0
LINE
8
0
10
239.5294861
20
-203.479874
11
253.5282867
21
-203.2966196
0
LINE
8
0
10
253.5282867
20
-203.2966196
11
253.3450323
21
-189.297819
0
LINE
8
0
10
253.3450323
20
-189.297819
11
239.3462317
21
-189.4810734
0
LINE
8
0
10
239.3462317
20
-189.4810734
11
239.5294861
21
-203.479874
0
LINE
8
0
10
239.2801294
20
-184.431506
11
253.27893
21
-184.2482516
0
LINE
8
0
10
253.27893
20
-184.2482516
11
253.0956756
21
-170.249451
0
LINE
8
0
10
253.0956756
20
-170.249451
11
239.096875
21
-170.4327054
0
LINE
8
0
10
239.096875
20
-170.4327054
11
239.2801294
21
-184.431506
0
LINE
8
0
10
239.0307726
20
-165.383138
11
253.0295732
21
-165.1998836
0
LINE
8
0
10
253.0295732
20
-165.1998836
11
252.8463188
21
-151.201083
0
LINE
8
0
10
252.8463188
20
-151.201083
11
238.8475182
21
-151.3843374
0
LINE
8
0
10
238.8475182
20
-151.3843374
11
239.0307726
21
-165.383138
0
LINE
8
0
10
238.7814159
20
-146.33477
11
252.7802165
21
-146.1515156
0
LINE
8
0
10
252.7802165
20
-146.1515156
11
252.5969621
21
-132.152715
0
LINE
8
0
10
252.5969621
20
-132.152715
11
238.5981615
21
-132.3359694
0
LINE
8
0
10
238.5981615
20
-132.3359694
11
238.7814159
21
-146.33477
0
LINE
8
0
10
238.5320591
20
-127.2864021
11
252.5308597
21
-127.1031477
0
LINE
8
0
10
252.5308597
20
-127.1031477
11
252.3476053
21
-113.1043471
0
LINE
8
0
10
252.3476053
20
-113.1043471
11
238.3488047
21
-113.2876015
0
LINE
8
0
10
238.3488047
20
-113.2876015
11
238.5320591
21
-127.2864021
0
LINE
8
0
10
238.2827023
20
-108.2380341
11
252.2815029
21
-108.0547797
0
LINE
8
0
10
252.2815029
20
-108.0547797
11
252.0982485
21
-94.0559791
0
LINE
8
0
10
252.0982485
20
-94.0559791
11
238.0994479
21
-94.2392335
0
LINE
8
0
10
238.0994479
20
-94.2392335
11
238.2827023
21
-108.2380341
0
LINE
8
0
10
258.4813299
20
-205.1087085
11
272.4811966
21
-205.1697948
0
LINE
8
0
10
272.4811966
20
-205.1697948
11
272.5422829
21
-191.1699281
0
LINE
8
0
10
272.5422829
20
-191.1699281
11
258.5424162
21
-191.1088418
0
LINE
8
0
10
258.5424162
20
-191.1088418
11
258.4813299
21
-205.1087085
0
LINE
8
0
10
258.5644509
20
-186.0588899
11
272.5643176
21
-186.1199762
0
LINE
8
0
10
272.5643176
20
-186.1199762
11
272.6254039
21
-172.1201095
0
LINE
8
0
10
272.6254039
20
-172.1201095
11
258.6255372
21
-172.0590232
0
LINE
8
0
10
258.6255372
20
-172.0590232
11
258.5644509
21
-186.0588899
0
LINE
8
0
10
258.647572
20
-167.0090713
11
272.6474387
21
-167.0701576
0
LINE
8
0
10
272.6474387
20
-167.0701576
11
272.708525
21
-153.0702909
0
LINE
8
0
10
272.708525
20
-153.0702909
11
258.7086583
21
-153.0092046
0
LINE
8
0
10
258.7086583
20
-153.0092046
11
258.647572
21
-167.0090713
0
LINE
8
0
10
258.730693
20
-147.9592527
11
272.7305597
21
-148.020339
0
LINE
8
0
10
272.7305597
20
-148.020339
11
272.791646
21
-134.0204723
0
LINE
8
0
10
272.791646
20
-134.0204723
11
258.7917793
21
-133.959386
0
LINE
8
0
10
258.7917793
20
-133.959386
11
258.730693
21
-147.9592527
0
LINE
8
0
10
258.8138141
20
-128.9094341
11
272.8136808
21
-128.9705204
0
LINE
8
0
10
272.8136808
20
-128.9705204
11
272.8747671
21
-114.9706537
0
LINE
8
0
10
272.8747671
20
-114.9706537
11
258.8749004
21
-114.9095674
0
LINE
8
0
10
258.8749004
20
-114.9095674
11
258.8138141
21
-128.9094341
0
LINE
8
0
10
277.5311485
20
-205.1918296
11
291.5310152
21
-205.2529159
0
LINE
8
0
10
291.5310152
20
-205.2529159
11
291.5921015
21
-191.2530492
0
LINE
8
0
10
291.5921015
20
-191.2530492
11
277.5922348
21
-191.1919629
0
LINE
8
0
10
277.5922348
20
-191.1919629
11
277.5311485
21
-205.1918296
0
LINE
8
0
10
282.9767185
20
-186.1654093
11
296.9765852
21
-186.2264956
0
LINE
8
0
10
296.9765852
20
-186.2264956
11
297.0376715
21
-172.2266289
0
LINE
8
0
10
297.0376715
20
-172.2266289
11
283.0378048
21
-172.1655426
0
LINE
8
0
10
283.0378048
20
-172.1655426
11
282.9767185
21
-186.1654093
0
LINE
8
0
10
277.6973906
20
-167.0921923
11
291.6972573
21
-167.1532786
0
LINE
8
0
10
291.6972573
20
-167.1532786
11
291.7583436
21
-153.1534119
0
LINE
8
0
10
291.7583436
20
-153.1534119
11
277.7584769
21
-153.0923256
0
LINE
8
0
10
277.7584769
20
-153.0923256
11
277.6973906
21
-167.0921923
0
LINE
8
0
10
277.7805116
20
-148.0423737
11
291.7803783
21
-148.10346
0
LINE
8
0
10
291.7803783
20
-148.10346
11
291.8414646
21
-134.1035933
0
LINE
8
0
10
291.8414646
20
-134.1035933
11
277.8415979
21
-134.042507
0
LINE
8
0
10
277.8415979
20
-134.042507
11
277.7805116
21
-148.0423737
0
LINE
8
0
10
277.8636327
20
-128.9925551
11
291.8634994
21
-129.0536414
0
LINE
8
0
10
291.8634994
20
-129.0536414
11
291.9245857
21
-115.0537747
0
LINE
8
0
10
291.9245857
20
-115.0537747
11
277.924719
21
-114.9926884
0
LINE
8
0
10
277.924719
20
-114.9926884
11
277.8636327
21
-128.9925551
0
LINE
8
0
10
277.9467537
20
-109.9427365
11
291.9466204
21
-110.0038228
0
LINE
8
0
10
291.9466204
20
-110.0038228
11
292.0077067
21
-96.0039561
0
LINE
8
0
10
292.0077067
20
-96.0039561
11
278.00784
21
-95.9428698
0
LINE
8
0
10
278.00784
20
-95.9428698
11
277.9467537
21
-109.9427365
0
LINE
8
0
10
302.1096583
20
-167.1987118
11
316.109525
21
-167.2597981
0
LINE
8
0
10
316.109525
20
-167.2597981
11
316.1706113
21
-153.2599314
0
LINE
8
0
10
316.1706113
20
-153.2599314
11
302.1707446
21
-153.1988451
0
LINE
8
0
10
302.1707446
20
-153.1988451
11
302.1096583
21
-167.1987118
0
LINE
8
0
10
296.8303303
20
-148.1254949
11
310.830197
21
-148.1865812
0
LINE
8
0
10
310.830197
20
-148.1865812
11
310.8912833
21
-134.1867145
0
LINE
8
0
10
310.8912833
20
-134.1867145
11
296.8914166
21
-134.1256282
0
LINE
8
0
10
296.8914166
20
-134.1256282
11
296.8303303
21
-148.1254949
0
LINE
8
0
10
296.9134514
20
-129.0756763
11
310.9133181
21
-129.1367626
0
LINE
8
0
10
310.9133181
20
-129.1367626
11
310.9744044
21
-115.1368959
0
LINE
8
0
10
310.9744044
20
-115.1368959
11
296.9745377
21
-115.0758096
0
LINE
8
0
10
296.9745377
20
-115.0758096
11
296.9134514
21
-129.0756763
0
LINE
8
0
10
296.9965724
20
-110.0258576
11
310.9964391
21
-110.0869439
0
LINE
8
0
10
310.9964391
20
-110.0869439
11
311.0575254
21
-96.0870772
0
LINE
8
0
10
311.0575254
20
-96.0870772
11
297.0576587
21
-96.0259909
0
LINE
8
0
10
297.0576587
20
-96.0259909
11
296.9965724
21
-110.0258576
0
LINE
8
0
10
315.880149
20
-148.2086158
11
329.8800157
21
-148.2697021
0
LINE
8
0
10
329.8800157
20
-148.2697021
11
329.941102
21
-134.2698354
0
LINE
8
0
10
329.941102
20
-134.2698354
11
315.9412353
21
-134.2087491
0
LINE
8
0
10
315.9412353
20
-134.2087491
11
315.880149
21
-148.2086158
0
LINE
8
0
10
321.325719
20
-129.1821955
11
335.3255857
21
-129.2432818
0
LINE
8
0
10
335.3255857
20
-129.2432818
11
335.386672
21
-115.2434151
0
LINE
8
0
10
335.386672
20
-115.2434151
11
321.3868053
21
-115.1823288
0
LINE
8
0
10
321.3868053
20
-115.1823288
11
321.325719
21
-129.1821955
0
LINE
8
0
10
316.0463911
20
-110.1089786
11
330.0462578
21
-110.1700649
0
LINE
8
0
10
330.0462578
20
-110.1700649
11
330.1073441
21
-96.1701982
0
LINE
8
0
10
330.1073441
20
-96.1701982
11
316.1074774
21
-96.1091119
0
LINE
8
0
10
316.1074774
20
-96.1091119
11
316.0463911
21
-110.1089786
0
LINE
8
0
10
335.0962098
20
-110.1920997
11
349.0960765
21
-110.253186
0
LINE
8
0
10
349.0960765
20
-110.253186
11
349.1571628
21
-96.2533193
0
LINE
8
0
10
349.1571628
20
-96.2533193
11
335.1572961
21
-96.192233
0
LINE
8
0
10
335.1572961
20
-96.192233
11
335.0962098
21
-110.1920997
0
LINE
8
0
10
337.5939124
20
-218.1450545
11
347.0070477
21
-207.7820008
0
LINE
8
0
10
347.0070477
20
-207.7820008
11
336.643994
21
-198.3688655
0
LINE
8
0
10
336.643994
20
-198.3688655
11
327.2308587
21
-208.7319192
0
LINE
8
0
10
327.2308587
20
-208.7319192
11
337.5939124
21
-218.1450545
0
LINE
8
0
10
323.4927571
20
-205.3364668
11
332.9058924
21
-194.9734131
0
LINE
8
0
10
332.9058924
20
-194.9734131
11
322.5428387
21
-185.5602778
0
LINE
8
0
10
322.5428387
20
-185.5602778
11
313.1297034
21
-195.9233315
0
LINE
8
0
10
313.1297034
20
-195.9233315
11
323.4927571
21
-205.3364668
0
LINE
8
0
10
350.4025001
20
-204.0438992
11
359.8156354
21
-193.6808455
0
LINE
8
0
10
359.8156354
20
-193.6808455
11
349.4525817
21
-184.2677102
0
LINE
8
0
10
349.4525817
20
-184.2677102
11
340.0394464
21
-194.6307639
0
LINE
8
0
10
340.0394464
20
-194.6307639
11
350.4025001
21
-204.0438992
0
LINE
8
0
10
336.3013448
20
-191.2353115
11
345.7144801
21
-180.8722578
0
LINE
8
0
10
345.7144801
20
-180.8722578
11
335.3514264
21
-171.4591225
0
LINE
8
0
10
335.3514264
20
-171.4591225
11
325.9382911
21
-181.8221762
0
LINE
8
0
10
325.9382911
20
-181.8221762
11
336.3013448
21
-191.2353115
0
LINE
8
0
10
366.4132347
20
-186.4174549
11
375.82637
21
-176.0544012
0
LINE
8
0
10
375.82637
20
-176.0544012
11
365.4633163
21
-166.6412659
0
LINE
8
0
10
365.4633163
20
-166.6412659
11
356.050181
21
-177.0043196
0
LINE
8
0
10
356.050181
20
-177.0043196
11
366.4132347
21
-186.4174549
0
LINE
8
0
10
352.3120794
20
-173.6088673
11
361.7252147
21
-163.2458136
0
LINE
8
0
10
361.7252147
20
-163.2458136
11
351.362161
21
-153.8326783
0
LINE
8
0
10
351.362161
20
-153.8326783
11
341.9490257
21
-164.195732
0
LINE
8
0
10
341.9490257
20
-164.195732
11
352.3120794
21
-173.6088673
0
LINE
8
0
10
379.2218224
20
-172.3162996
11
388.6349577
21
-161.9532459
0
LINE
8
0
10
388.6349577
20
-161.9532459
11
378.271904
21
-152.5401106
0
LINE
8
0
10
378.271904
20
-152.5401106
11
368.8587687
21
-162.9031643
0
LINE
8
0
10
368.8587687
20
-162.9031643
11
379.2218224
21
-172.3162996
0
LINE
8
0
10
365.1206671
20
-159.5077119
11
374.5338024
21
-149.1446582
0
LINE
8
0
10
374.5338024
20
-149.1446582
11
364.1707487
21
-139.7315229
0
LINE
8
0
10
364.1707487
20
-139.7315229
11
354.7576134
21
-150.0945766
0
LINE
8
0
10
354.7576134
20
-150.0945766
11
365.1206671
21
-159.5077119
0
LINE
8
0
10
363.5878167
20
-129.3665999
11
377.5876834
21
-129.4276862
0
LINE
8
0
10
377.5876834
20
-129.4276862
11
377.6487697
21
-115.4278195
0
LINE
8
0
10
377.6487697
20
-115.4278195
11
363.648903
21
-115.3667332
0
LINE
8
0
10
363.648903
20
-115.3667332
11
363.5878167
21
-129.3665999
0
LINE
8
0
10
363.6709378
20
-110.3167813
11
377.6708045
21
-110.3778676
0
LINE
8
0
10
377.6708045
20
-110.3778676
11
377.7318908
21
-96.3780009
0
LINE
8
0
10
377.7318908
20
-96.3780009
11
363.7320241
21
-96.3169146
0
LINE
8
0
10
363.7320241
20
-96.3169146
11
363.6709378
21
-110.3167813
0
LINE
8
0
10
382.6376353
20
-129.449721
11
396.637502
21
-129.5108073
0
LINE
8
0
10
396.637502
20
-129.5108073
11
396.6985883
21
-115.5109406
0
LINE
8
0
10
396.6985883
20
-115.5109406
11
382.6987216
21
-115.4498543
0
LINE
8
0
10
382.6987216
20
-115.4498543
11
382.6376353
21
-129.449721
0
LINE
8
0
10
382.7207564
20
-110.3999023
11
396.7206231
21
-110.4609886
0
LINE
8
0
10
396.7206231
20
-110.4609886
11
396.7817094
21
-96.4611219
0
LINE
8
0
10
396.7817094
20
-96.4611219
11
382.7818427
21
-96.4000356
0
LINE
8
0
10
382.7818427
20
-96.4000356
11
382.7207564
21
-110.3999023
0
ENDSEC
0
EOF