0
SECTION
2
HEADER
9
$INSUNITS
70
4
0
ENDSEC
0
SECTION
2
TABLES
0
TABLE
2
LTYPE
0
LTYPE
72
65
70
64
2
CONTINUOUS
3
______
73
0
40
0
0
ENDTAB
0
TABLE
2
LAYER
0
ENDTAB
0
ENDSEC
0
SECTION
2
ENTITIES
0
LINE
8
0
10
29.7938462
20
-181.8717315
11
43.7937129
21
-181.8106452
0
LINE
8
0
10
43.7937129
20
-181.8106452
11
43.7326266
21
-167.8107785
0
LINE
8
0
10
43.7326266
20
-167.8107785
11
29.7327599
21
-167.8718648
0
LINE
8
0
10
29.7327599
20
-167.8718648
11
29.7938462
21
-181.8717315
0
LINE
8
0
10
24.4482753
20
-162.8448747
11
38.448142
21
-162.7837884
0
LINE
8
0
10
38.448142
20
-162.7837884
11
38.3870557
21
-148.7839217
0
LINE
8
0
10
38.3870557
20
-148.7839217
11
24.387189
21
-148.845008
0
LINE
8
0
10
24.387189
20
-148.845008
11
24.4482753
21
-162.8448747
0
LINE
8
0
10
24.3651542
20
-143.7950561
11
38.3650209
21
-143.7339698
0
LINE
8
0
10
38.3650209
20
-143.7339698
11
38.3039346
21
-129.7341031
0
LINE
8
0
10
38.3039346
20
-129.7341031
11
24.3040679
21
-129.7951894
0
LINE
8
0
10
24.3040679
20
-129.7951894
11
24.3651542
21
-143.7950561
0
LINE
8
0
10
24.2820332
20
-124.7452374
11
38.2818999
21
-124.6841511
0
LINE
8
0
10
38.2818999
20
-124.6841511
11
38.2208136
21
-110.6842844
0
LINE
8
0
10
38.2208136
20
-110.6842844
11
24.2209469
21
-110.7453707
0
LINE
8
0
10
24.2209469
20
-110.7453707
11
24.2820332
21
-124.7452374
0
LINE
8
0
10
29.4613621
20
-105.6724569
11
43.4612288
21
-105.6113706
0
LINE
8
0
10
43.4612288
20
-105.6113706
11
43.4001425
21
-91.6115039
0
LINE
8
0
10
43.4001425
20
-91.6115039
11
29.4002758
21
-91.6725902
0
LINE
8
0
10
29.4002758
20
-91.6725902
11
29.4613621
21
-105.6724569
0
LINE
8
0
10
29.378241
20
-86.6226382
11
43.3781077
21
-86.5615519
0
LINE
8
0
10
43.3781077
20
-86.5615519
11
43.3170214
21
-72.5616852
0
LINE
8
0
10
43.3170214
20
-72.5616852
11
29.3171547
21
-72.6227715
0
LINE
8
0
10
29.3171547
20
-72.6227715
11
29.378241
21
-86.6226382
0
LINE
8
0
10
48.8436649
20
-181.7886105
11
62.8435316
21
-181.7275242
0
LINE
8
0
10
62.8435316
20
-181.7275242
11
62.7824453
21
-167.7276575
0
LINE
8
0
10
62.7824453
20
-167.7276575
11
48.7825786
21
-167.7887438
0
LINE
8
0
10
48.7825786
20
-167.7887438
11
48.8436649
21
-181.7886105
0
LINE
8
0
10
48.7605438
20
-162.7387918
11
62.7604105
21
-162.6777055
0
LINE
8
0
10
62.7604105
20
-162.6777055
11
62.6993242
21
-148.6778388
0
LINE
8
0
10
62.6993242
20
-148.6778388
11
48.6994575
21
-148.7389251
0
LINE
8
0
10
48.6994575
20
-148.7389251
11
48.7605438
21
-162.7387918
0
LINE
8
0
10
48.6774228
20
-143.6889731
11
62.6772895
21
-143.6278868
0
LINE
8
0
10
62.6772895
20
-143.6278868
11
62.6162032
21
-129.6280201
0
LINE
8
0
10
62.6162032
20
-129.6280201
11
48.6163365
21
-129.6891064
0
LINE
8
0
10
48.6163365
20
-129.6891064
11
48.6774228
21
-143.6889731
0
LINE
8
0
10
48.5943018
20
-124.6391545
11
62.5941685
21
-124.5780682
0
LINE
8
0
10
62.5941685
20
-124.5780682
11
62.5330822
21
-110.5782015
0
LINE
8
0
10
62.5330822
20
-110.5782015
11
48.5332155
21
-110.6392878
0
LINE
8
0
10
48.5332155
20
-110.6392878
11
48.5943018
21
-124.6391545
0
LINE
8
0
10
48.5111807
20
-105.5893358
11
62.5110474
21
-105.5282495
0
LINE
8
0
10
62.5110474
20
-105.5282495
11
62.4499611
21
-91.5283828
0
LINE
8
0
10
62.4499611
20
-91.5283828
11
48.4500944
21
-91.5894691
0
LINE
8
0
10
48.4500944
20
-91.5894691
11
48.5111807
21
-105.5893358
0
LINE
8
0
10
67.9631025
20
-179.585423
11
81.9619031
21
-179.7686774
0
LINE
8
0
10
81.9619031
20
-179.7686774
11
82.1451575
21
-165.7698768
0
LINE
8
0
10
82.1451575
20
-165.7698768
11
68.1463569
21
-165.5866224
0
LINE
8
0
10
68.1463569
20
-165.5866224
11
67.9631025
21
-179.585423
0
LINE
8
0
10
68.2124592
20
-160.537055
11
82.2112598
21
-160.7203094
0
LINE
8
0
10
82.2112598
20
-160.7203094
11
82.3945142
21
-146.7215088
0
LINE
8
0
10
82.3945142
20
-146.7215088
11
68.3957136
21
-146.5382544
0
LINE
8
0
10
68.3957136
20
-146.5382544
11
68.2124592
21
-160.537055
0
LINE
8
0
10
68.6617988
20
-141.491305
11
82.6605994
21
-141.6745594
0
LINE
8
0
10
82.6605994
20
-141.6745594
11
82.8438538
21
-127.6757588
0
LINE
8
0
10
82.8438538
20
-127.6757588
11
68.8450532
21
-127.4925044
0
LINE
8
0
10
68.8450532
20
-127.4925044
11
68.6617988
21
-141.491305
0
LINE
8
0
10
69.1111384
20
-122.445555
11
83.109939
21
-122.6288094
0
LINE
8
0
10
83.109939
20
-122.6288094
11
83.2931934
21
-108.6300088
0
LINE
8
0
10
83.2931934
20
-108.6300088
11
69.2943928
21
-108.4467544
0
LINE
8
0
10
69.2943928
20
-108.4467544
11
69.1111384
21
-122.445555
0
LINE
8
0
10
69.3604951
20
-103.3971871
11
83.3592957
21
-103.5804415
0
LINE
8
0
10
83.3592957
20
-103.5804415
11
83.5425501
21
-89.5816409
0
LINE
8
0
10
83.5425501
20
-89.5816409
11
69.5437495
21
-89.3983865
0
LINE
8
0
10
69.5437495
20
-89.3983865
11
69.3604951
21
-103.3971871
0
LINE
8
0
10
69.8098347
20
-84.3514371
11
83.8086353
21
-84.5346915
0
LINE
8
0
10
83.8086353
20
-84.5346915
11
83.9918897
21
-70.5358909
0
LINE
8
0
10
83.9918897
20
-70.5358909
11
69.9930891
21
-70.3526365
0
LINE
8
0
10
69.9930891
20
-70.3526365
11
69.8098347
21
-84.3514371
0
LINE
8
0
10
87.1049134
20
-178.7196553
11
101.0983836
21
-179.1471945
0
LINE
8
0
10
101.0983836
20
-179.1471945
11
101.5259228
21
-165.1537243
0
LINE
8
0
10
101.5259228
20
-165.1537243
11
87.5324526
21
-164.7261851
0
LINE
8
0
10
87.5324526
20
-164.7261851
11
87.1049134
21
-178.7196553
0
LINE
8
0
10
87.686672
20
-159.6785403
11
101.6801422
21
-160.1060795
0
LINE
8
0
10
101.6801422
20
-160.1060795
11
102.1076814
21
-146.1126093
0
LINE
8
0
10
102.1076814
20
-146.1126093
11
88.1142112
21
-145.6850701
0
LINE
8
0
10
88.1142112
20
-145.6850701
11
87.686672
21
-159.6785403
0
LINE
8
0
10
88.6682441
20
-140.6496408
11
102.6617143
21
-141.07718
0
LINE
8
0
10
102.6617143
20
-141.07718
11
103.0892535
21
-127.0837098
0
LINE
8
0
10
103.0892535
20
-127.0837098
11
89.0957833
21
-126.6561706
0
LINE
8
0
10
89.0957833
20
-126.6561706
11
88.6682441
21
-140.6496408
0
LINE
8
0
10
89.6498162
20
-121.6207412
11
103.6432864
21
-122.0482804
0
LINE
8
0
10
103.6432864
20
-122.0482804
11
104.0708256
21
-108.0548102
0
LINE
8
0
10
104.0708256
20
-108.0548102
11
90.0773554
21
-107.627271
0
LINE
8
0
10
90.0773554
20
-107.627271
11
89.6498162
21
-121.6207412
0
LINE
8
0
10
90.2315748
20
-102.5796263
11
104.225045
21
-103.0071655
0
LINE
8
0
10
104.225045
20
-103.0071655
11
104.6525842
21
-89.0136953
0
LINE
8
0
10
104.6525842
20
-89.0136953
11
90.659114
21
-88.5861561
0
LINE
8
0
10
90.659114
20
-88.5861561
11
90.2315748
21
-102.5796263
0
LINE
8
0
10
91.2131469
20
-83.5507267
11
105.2066171
21
-83.9782659
0
LINE
8
0
10
105.2066171
20
-83.9782659
11
105.6341563
21
-69.9847957
0
LINE
8
0
10
105.6341563
20
-69.9847957
11
91.6406861
21
-69.5572565
0
LINE
8
0
10
91.6406861
20
-69.5572565
11
91.2131469
21
-83.5507267
0
LINE
8
0
10
106.9119182
20
-161.152988
11
120.8957956
21
-161.8246818
0
LINE
8
0
10
120.8957956
20
-161.8246818
11
121.5674894
21
-147.8408044
0
LINE
8
0
10
121.5674894
20
-147.8408044
11
107.583612
21
-147.1691106
0
LINE
8
0
10
107.583612
20
-147.1691106
11
106.9119182
21
-161.152988
0
LINE
8
0
10
108.0256713
20
-142.1345219
11
122.0095487
21
-142.8062157
0
LINE
8
0
10
122.0095487
20
-142.8062157
11
122.6812425
21
-128.8223383
0
LINE
8
0
10
122.6812425
20
-128.8223383
11
108.6973651
21
-128.1506445
0
LINE
8
0
10
108.6973651
20
-128.1506445
11
108.0256713
21
-142.1345219
0
LINE
8
0
10
109.1394243
20
-123.1160559
11
123.1233017
21
-123.7877497
0
LINE
8
0
10
123.1233017
20
-123.7877497
11
123.7949955
21
-109.8038723
0
LINE
8
0
10
123.7949955
20
-109.8038723
11
109.8111181
21
-109.1321785
0
LINE
8
0
10
109.8111181
20
-109.1321785
11
109.1394243
21
-123.1160559
0
LINE
8
0
10
110.0534077
20
-104.0879941
11
124.0372851
21
-104.7596879
0
LINE
8
0
10
124.0372851
20
-104.7596879
11
124.7089789
21
-90.7758105
0
LINE
8
0
10
124.7089789
20
-90.7758105
11
110.7251015
21
-90.1041167
0
LINE
8
0
10
110.7251015
20
-90.1041167
11
110.0534077
21
-104.0879941
0
LINE
8
0
10
111.1671608
20
-85.069528
11
125.1510382
21
-85.7412218
0
LINE
8
0
10
125.1510382
20
-85.7412218
11
125.822732
21
-71.7573444
0
LINE
8
0
10
125.822732
20
-71.7573444
11
111.8388546
21
-71.0856506
0
LINE
8
0
10
111.8388546
20
-71.0856506
11
111.1671608
21
-85.069528
0
LINE
8
0
10
125.2137718
20
-181.3543409
11
139.1976492
21
-182.0260347
0
LINE
8
0
10
139.1976492
20
-182.0260347
11
139.869343
21
-168.0421573
0
LINE
8
0
10
139.869343
20
-168.0421573
11
125.8854656
21
-167.3704635
0
LINE
8
0
10
125.8854656
20
-167.3704635
11
125.2137718
21
-181.3543409
0
LINE
8
0
10
126.1277552
20
-162.3262792
11
140.1116326
21
-162.997973
0
LINE
8
0
10
140.1116326
20
-162.997973
11
140.7833264
21
-149.0140956
0
LINE
8
0
10
140.7833264
20
-149.0140956
11
126.799449
21
-148.3424018
0
LINE
8
0
10
126.799449
20
-148.3424018
11
126.1277552
21
-162.3262792
0
LINE
8
0
10
127.0417386
20
-143.2982174
11
141.025616
21
-143.9699112
0
LINE
8
0
10
141.025616
20
-143.9699112
11
141.6973098
21
-129.9860338
0
LINE
8
0
10
141.6973098
20
-129.9860338
11
127.7134324
21
-129.31434
0
LINE
8
0
10
127.7134324
20
-129.31434
11
127.0417386
21
-143.2982174
0
LINE
8
0
10
127.9557219
20
-124.2701557
11
141.9395993
21
-124.9418495
0
LINE
8
0
10
141.9395993
20
-124.9418495
11
142.6112931
21
-110.9579721
0
LINE
8
0
10
142.6112931
20
-110.9579721
11
128.6274157
21
-110.2862783
0
LINE
8
0
10
128.6274157
20
-110.2862783
11
127.9557219
21
-124.2701557
0
LINE
8
0
10
128.8697053
20
-105.242094
11
142.8535827
21
-105.9137878
0
LINE
8
0
10
142.8535827
20
-105.9137878
11
143.5252765
21
-91.9299104
0
LINE
8
0
10
143.5252765
20
-91.9299104
11
129.5413991
21
-91.2582166
0
LINE
8
0
10
129.5413991
20
-91.2582166
11
128.8697053
21
-105.242094
0
LINE
8
0
10
129.7836887
20
-86.2140323
11
143.7675661
21
-86.8857261
0
LINE
8
0
10
143.7675661
20
-86.8857261
11
144.4392599
21
-72.9018487
0
LINE
8
0
10
144.4392599
20
-72.9018487
11
130.4553825
21
-72.2301549
0
LINE
8
0
10
130.4553825
20
-72.2301549
11
129.7836887
21
-86.2140323
0
LINE
8
0
10
184.4288607
20
-182.2321276
11
198.4180672
21
-181.6824901
0
LINE
8
0
10
198.4180672
20
-181.6824901
11
197.8684297
21
-167.6932836
0
LINE
8
0
10
197.8684297
20
-167.6932836
11
183.8792232
21
-168.2429211
0
LINE
8
0
10
183.8792232
20
-168.2429211
11
184.4288607
21
-182.2321276
0
LINE
8
0
10
184.2804986
20
-163.1732585
11
198.2697051
21
-162.623621
0
LINE
8
0
10
198.2697051
20
-162.623621
11
197.7200676
21
-148.6344145
0
LINE
8
0
10
197.7200676
20
-148.6344145
11
183.7308611
21
-149.184052
0
LINE
8
0
10
183.7308611
20
-149.184052
11
184.2804986
21
-163.1732585
0
LINE
8
0
10
183.5325992
20
-144.1379453
11
197.5218057
21
-143.5883078
0
LINE
8
0
10
197.5218057
20
-143.5883078
11
196.9721682
21
-129.5991013
0
LINE
8
0
10
196.9721682
20
-129.5991013
11
182.9829617
21
-130.1487388
0
LINE
8
0
10
182.9829617
20
-130.1487388
11
183.5325992
21
-144.1379453
0
LINE
8
0
10
182.7846997
20
-125.1026321
11
196.7739062
21
-124.5529946
0
LINE
8
0
10
196.7739062
20
-124.5529946
11
196.2242687
21
-110.5637881
0
LINE
8
0
10
196.2242687
20
-110.5637881
11
182.2350622
21
-111.1134256
0
LINE
8
0
10
182.2350622
20
-111.1134256
11
182.7846997
21
-125.1026321
0
LINE
8
0
10
182.0368002
20
-106.0673189
11
196.0260067
21
-105.5176814
0
LINE
8
0
10
196.0260067
20
-105.5176814
11
195.4763692
21
-91.5284749
0
LINE
8
0
10
195.4763692
20
-91.5284749
11
181.4871627
21
-92.0781124
0
LINE
8
0
10
181.4871627
20
-92.0781124
11
182.0368002
21
-106.0673189
0
LINE
8
0
10
181.2889007
20
-87.0320057
11
195.2781072
21
-86.4823682
0
LINE
8
0
10
195.2781072
20
-86.4823682
11
194.7284697
21
-72.4931617
0
LINE
8
0
10
194.7284697
20
-72.4931617
11
180.7392632
21
-73.0427992
0
LINE
8
0
10
180.7392632
20
-73.0427992
11
181.2889007
21
-87.0320057
0
LINE
8
0
10
203.3059968
20
-162.1755518
11
217.2952033
21
-161.6259143
0
LINE
8
0
10
217.2952033
20
-161.6259143
11
216.7455658
21
-147.6367078
0
LINE
8
0
10
216.7455658
20
-147.6367078
11
202.7563593
21
-148.1863453
0
LINE
8
0
10
202.7563593
20
-148.1863453
11
203.3059968
21
-162.1755518
0
LINE
8
0
10
202.5580974
20
-143.1402386
11
216.5473039
21
-142.5906011
0
LINE
8
0
10
216.5473039
20
-142.5906011
11
215.9976664
21
-128.6013946
0
LINE
8
0
10
215.9976664
20
-128.6013946
11
202.0084599
21
-129.1510321
0
LINE
8
0
10
202.0084599
20
-129.1510321
11
202.5580974
21
-143.1402386
0
LINE
8
0
10
201.8101979
20
-124.1049254
11
215.7994044
21
-123.5552879
0
LINE
8
0
10
215.7994044
20
-123.5552879
11
215.2497669
21
-109.5660814
0
LINE
8
0
10
215.2497669
20
-109.5660814
11
201.2605604
21
-110.1157189
0
LINE
8
0
10
201.2605604
20
-110.1157189
11
201.8101979
21
-124.1049254
0
LINE
8
0
10
201.0622984
20
-105.0696122
11
215.0515049
21
-104.5199747
0
LINE
8
0
10
215.0515049
20
-104.5199747
11
214.5018674
21
-90.5307682
0
LINE
8
0
10
214.5018674
20
-90.5307682
11
200.5126609
21
-91.0804057
0
LINE
8
0
10
200.5126609
20
-91.0804057
11
201.0622984
21
-105.0696122
0
LINE
8
0
10
200.3143989
20
-86.034299
11
214.3036054
21
-85.4846615
0
LINE
8
0
10
214.3036054
20
-85.4846615
11
213.7539679
21
-71.495455
0
LINE
8
0
10
213.7539679
20
-71.495455
11
199.7647614
21
-72.0450925
0
LINE
8
0
10
199.7647614
20
-72.0450925
11
200.3143989
21
-86.034299
0
LINE
8
0
10
223.1240565
20
-179.3409898
11
237.1207249
21
-179.0355814
0
LINE
8
0
10
237.1207249
20
-179.0355814
11
236.8153165
21
-165.038913
0
LINE
8
0
10
236.8153165
20
-165.038913
11
222.8186481
21
-165.3443214
0
LINE
8
0
10
222.8186481
20
-165.3443214
11
223.1240565
21
-179.3409898
0
LINE
8
0
10
222.9084353
20
-160.2911601
11
236.9051037
21
-159.9857517
0
LINE
8
0
10
236.9051037
20
-159.9857517
11
236.5996953
21
-145.9890833
0
LINE
8
0
10
236.5996953
20
-145.9890833
11
222.6030269
21
-146.2944917
0
LINE
8
0
10
222.6030269
20
-146.2944917
11
222.9084353
21
-160.2911601
0
LINE
8
0
10
222.6928142
20
-141.2413305
11
236.6894826
21
-140.9359221
0
LINE
8
0
10
236.6894826
20
-140.9359221
11
236.3840742
21
-126.9392537
0
LINE
8
0
10
236.3840742
20
-126.9392537
11
222.3874058
21
-127.2446621
0
LINE
8
0
10
222.3874058
20
-127.2446621
11
222.6928142
21
-141.2413305
0
LINE
8
0
10
222.477193
20
-122.1915009
11
236.4738614
21
-121.8860925
0
LINE
8
0
10
236.4738614
20
-121.8860925
11
236.168453
21
-107.8894241
0
LINE
8
0
10
236.168453
20
-107.8894241
11
222.1717846
21
-108.1948325
0
LINE
8
0
10
222.1717846
20
-108.1948325
11
222.477193
21
-122.1915009
0
LINE
8
0
10
222.2615719
20
-103.1416713
11
236.2582403
21
-102.8362629
0
LINE
8
0
10
236.2582403
20
-102.8362629
11
235.9528319
21
-88.8395945
0
LINE
8
0
10
235.9528319
20
-88.8395945
11
221.9561635
21
-89.1450029
0
LINE
8
0
10
221.9561635
20
-89.1450029
11
222.2615719
21
-103.1416713
0
LINE
8
0
10
222.0459507
20
-84.0918417
11
236.0426191
21
-83.7864333
0
LINE
8
0
10
236.0426191
20
-83.7864333
11
235.7372107
21
-69.7897649
0
LINE
8
0
10
235.7372107
20
-69.7897649
11
221.7405423
21
-70.0951733
0
LINE
8
0
10
221.7405423
20
-70.0951733
11
222.0459507
21
-84.0918417
0
LINE
8
0
10
242.0676235
20
-179.8081067
11
256.0674902
21
-179.7470204
0
LINE
8
0
10
256.0674902
20
-179.7470204
11
256.0064039
21
-165.7471537
0
LINE
8
0
10
256.0064039
20
-165.7471537
11
242.0065372
21
-165.80824
0
LINE
8
0
10
242.0065372
20
-165.80824
11
242.0676235
21
-179.8081067
0
LINE
8
0
10
242.1845005
20
-160.7574154
11
256.1843672
21
-160.6963291
0
LINE
8
0
10
256.1843672
20
-160.6963291
11
256.1232809
21
-146.6964624
0
LINE
8
0
10
256.1232809
20
-146.6964624
11
242.1234142
21
-146.7575487
0
LINE
8
0
10
242.1234142
20
-146.7575487
11
242.1845005
21
-160.7574154
0
LINE
8
0
10
242.3013776
20
-141.7067241
11
256.3012443
21
-141.6456378
0
LINE
8
0
10
256.3012443
20
-141.6456378
11
256.240158
21
-127.6457711
0
LINE
8
0
10
256.240158
20
-127.6457711
11
242.2402913
21
-127.7068574
0
LINE
8
0
10
242.2402913
20
-127.7068574
11
242.3013776
21
-141.7067241
0
LINE
8
0
10
242.4182547
20
-122.6560327
11
256.4181214
21
-122.5949464
0
LINE
8
0
10
256.4181214
20
-122.5949464
11
256.3570351
21
-108.5950797
0
LINE
8
0
10
256.3570351
20
-108.5950797
11
242.3571684
21
-108.656166
0
LINE
8
0
10
242.3571684
20
-108.656166
11
242.4182547
21
-122.6560327
0
LINE
8
0
10
242.5351317
20
-103.6053414
11
256.5349984
21
-103.5442551
0
LINE
8
0
10
256.5349984
20
-103.5442551
11
256.4739121
21
-89.5443884
0
LINE
8
0
10
256.4739121
20
-89.5443884
11
242.4740454
21
-89.6054747
0
LINE
8
0
10
242.4740454
20
-89.6054747
11
242.5351317
21
-103.6053414
0
LINE
8
0
10
242.6520088
20
-84.5546501
11
256.6518755
21
-84.4935638
0
LINE
8
0
10
256.6518755
20
-84.4935638
11
256.5907892
21
-70.4936971
0
LINE
8
0
10
256.5907892
20
-70.4936971
11
242.5909225
21
-70.5547834
0
LINE
8
0
10
242.5909225
20
-70.5547834
11
242.6520088
21
-84.5546501
0
LINE
8
0
10
261.0045162
20
-181.6057538
11
275.0033168
21
-181.7890082
0
LINE
8
0
10
275.0033168
20
-181.7890082
11
275.1865712
21
-167.7902076
0
LINE
8
0
10
275.1865712
20
-167.7902076
11
261.1877706
21
-167.6069532
0
LINE
8
0
10
261.1877706
20
-167.6069532
11
261.0045162
21
-181.6057538
0
LINE
8
0
10
261.4538558
20
-162.5600038
11
275.4526564
21
-162.7432582
0
LINE
8
0
10
275.4526564
20
-162.7432582
11
275.6359108
21
-148.7444576
0
LINE
8
0
10
275.6359108
20
-148.7444576
11
261.6371102
21
-148.5612032
0
LINE
8
0
10
261.6371102
20
-148.5612032
11
261.4538558
21
-162.5600038
0
LINE
8
0
10
261.9031954
20
-143.5142538
11
275.901996
21
-143.6975082
0
LINE
8
0
10
275.901996
20
-143.6975082
11
276.0852504
21
-129.6987076
0
LINE
8
0
10
276.0852504
20
-129.6987076
11
262.0864498
21
-129.5154532
0
LINE
8
0
10
262.0864498
20
-129.5154532
11
261.9031954
21
-143.5142538
0
LINE
8
0
10
262.3525349
20
-124.4685038
11
276.3513355
21
-124.6517582
0
LINE
8
0
10
276.3513355
20
-124.6517582
11
276.5345899
21
-110.6529576
0
LINE
8
0
10
276.5345899
20
-110.6529576
11
262.5357893
21
-110.4697032
0
LINE
8
0
10
262.5357893
20
-110.4697032
11
262.3525349
21
-124.4685038
0
LINE
8
0
10
262.8018745
20
-105.4227538
11
276.8006751
21
-105.6060082
0
LINE
8
0
10
276.8006751
20
-105.6060082
11
276.9839295
21
-91.6072076
0
LINE
8
0
10
276.9839295
20
-91.6072076
11
262.9851289
21
-91.4239532
0
LINE
8
0
10
262.9851289
20
-91.4239532
11
262.8018745
21
-105.4227538
0
LINE
8
0
10
279.7630889
20
-181.7590821
11
293.7582914
21
-182.1255594
0
LINE
8
0
10
293.7582914
20
-182.1255594
11
294.1247687
21
-168.1303569
0
LINE
8
0
10
294.1247687
20
-168.1303569
11
280.1295662
21
-167.7638796
0
LINE
8
0
10
280.1295662
20
-167.7638796
11
279.7630889
21
-181.7590821
0
LINE
8
0
10
285.6224222
20
-162.855984
11
299.6176247
21
-163.2224613
0
LINE
8
0
10
299.6176247
20
-163.2224613
11
299.984102
21
-149.2272588
0
LINE
8
0
10
299.984102
20
-149.2272588
11
285.9888995
21
-148.8607815
0
LINE
8
0
10
285.9888995
20
-148.8607815
11
285.6224222
21
-162.855984
0
LINE
8
0
10
280.7604307
20
-143.6721381
11
294.7556332
21
-144.0386154
0
LINE
8
0
10
294.7556332
20
-144.0386154
11
295.1221105
21
-130.0434129
0
LINE
8
0
10
295.1221105
20
-130.0434129
11
281.126908
21
-129.6769356
0
LINE
8
0
10
281.126908
20
-129.6769356
11
280.7604307
21
-143.6721381
0
LINE
8
0
10
281.2591016
20
-124.628666
11
295.2543041
21
-124.9951433
0
LINE
8
0
10
295.2543041
20
-124.9951433
11
295.6207814
21
-110.9999408
0
LINE
8
0
10
295.6207814
20
-110.9999408
11
281.6255789
21
-110.6334635
0
LINE
8
0
10
281.6255789
20
-110.6334635
11
281.2591016
21
-124.628666
0
LINE
8
0
10
281.7577725
20
-105.585194
11
295.752975
21
-105.9516713
0
LINE
8
0
10
295.752975
20
-105.9516713
11
296.1194523
21
-91.9564688
0
LINE
8
0
10
296.1194523
20
-91.9564688
11
282.1242498
21
-91.5899915
0
LINE
8
0
10
282.1242498
20
-91.5899915
11
281.7577725
21
-105.585194
0
LINE
8
0
10
282.2564434
20
-86.541722
11
296.2516459
21
-86.9081993
0
LINE
8
0
10
296.2516459
20
-86.9081993
11
296.6181232
21
-72.9129968
0
LINE
8
0
10
296.6181232
20
-72.9129968
11
282.6229207
21
-72.5465195
0
LINE
8
0
10
282.6229207
20
-72.5465195
11
282.2564434
21
-86.541722
0
LINE
8
0
10
305.1645652
20
-144.3111829
11
319.1597677
21
-144.6776602
0
LINE
8
0
10
319.1597677
20
-144.6776602
11
319.526245
21
-130.6824577
0
LINE
8
0
10
319.526245
20
-130.6824577
11
305.5310425
21
-130.3159804
0
LINE
8
0
10
305.5310425
20
-130.3159804
11
305.1645652
21
-144.3111829
0
LINE
8
0
10
300.3025736
20
-125.1273369
11
314.2977761
21
-125.4938142
0
LINE
8
0
10
314.2977761
20
-125.4938142
11
314.6642534
21
-111.4986117
0
LINE
8
0
10
314.6642534
20
-111.4986117
11
300.6690509
21
-111.1321344
0
LINE
8
0
10
300.6690509
20
-111.1321344
11
300.3025736
21
-125.1273369
0
LINE
8
0
10
300.8012445
20
-106.0838649
11
314.796447
21
-106.4503422
0
LINE
8
0
10
314.796447
20
-106.4503422
11
315.1629243
21
-92.4551397
0
LINE
8
0
10
315.1629243
20
-92.4551397
11
301.1677218
21
-92.0886624
0
LINE
8
0
10
301.1677218
20
-92.0886624
11
300.8012445
21
-106.0838649
0
LINE
8
0
10
301.2999154
20
-87.0403929
11
315.2951179
21
-87.4068702
0
LINE
8
0
10
315.2951179
20
-87.4068702
11
315.6615952
21
-73.4116677
0
LINE
8
0
10
315.6615952
20
-73.4116677
11
301.6663927
21
-73.0451904
0
LINE
8
0
10
301.6663927
20
-73.0451904
11
301.2999154
21
-87.0403929
0
LINE
8
0
10
319.3460457
20
-125.6260079
11
333.3412482
21
-125.9924852
0
LINE
8
0
10
333.3412482
20
-125.9924852
11
333.7077255
21
-111.9972827
0
LINE
8
0
10
333.7077255
20
-111.9972827
11
319.712523
21
-111.6308054
0
LINE
8
0
10
319.712523
20
-111.6308054
11
319.3460457
21
-125.6260079
0
LINE
8
0
10
325.205379
20
-106.7229098
11
339.2005815
21
-107.0893871
0
LINE
8
0
10
339.2005815
20
-107.0893871
11
339.5670588
21
-93.0941846
0
LINE
8
0
10
339.5670588
20
-93.0941846
11
325.5718563
21
-92.7277073
0
LINE
8
0
10
325.5718563
20
-92.7277073
11
325.205379
21
-106.7229098
0
LINE
8
0
10
320.3433874
20
-87.5390638
11
334.3385899
21
-87.9055411
0
LINE
8
0
10
334.3385899
20
-87.9055411
11
334.7050672
21
-73.9103386
0
LINE
8
0
10
334.7050672
20
-73.9103386
11
320.7098647
21
-73.5438613
0
LINE
8
0
10
320.7098647
20
-73.5438613
11
320.3433874
21
-87.5390638
0
LINE
8
0
10
339.3868596
20
-88.0377345
11
353.3820621
21
-88.4042118
0
LINE
8
0
10
353.3820621
20
-88.4042118
11
353.7485394
21
-74.4090093
0
LINE
8
0
10
353.7485394
20
-74.4090093
11
339.7533369
21
-74.042532
0
LINE
8
0
10
339.7533369
20
-74.042532
11
339.3868596
21
-88.0377345
0
LINE
8
0
10
337.7019605
20
-195.4118098
11
347.205171
21
-185.1312947
0
LINE
8
0
10
347.205171
20
-185.1312947
11
336.9246559
21
-175.6280842
0
LINE
8
0
10
336.9246559
20
-175.6280842
11
327.4214454
21
-185.9085993
0
LINE
8
0
10
327.4214454
20
-185.9085993
11
337.7019605
21
-195.4118098
0
LINE
8
0
10
323.7131167
20
-182.4806556
11
333.2163272
21
-172.2001405
0
LINE
8
0
10
333.2163272
20
-172.2001405
11
322.9358121
21
-162.69693
0
LINE
8
0
10
322.9358121
20
-162.69693
11
313.4326016
21
-172.9774451
0
LINE
8
0
10
313.4326016
20
-172.9774451
11
323.7131167
21
-182.4806556
0
LINE
8
0
10
350.6331147
20
-181.422966
11
360.1363252
21
-171.1424509
0
LINE
8
0
10
360.1363252
20
-171.1424509
11
349.8558101
21
-161.6392404
0
LINE
8
0
10
349.8558101
20
-161.6392404
11
340.3525996
21
-171.9197555
0
LINE
8
0
10
340.3525996
20
-171.9197555
11
350.6331147
21
-181.422966
0
LINE
8
0
10
336.6442709
20
-168.4918118
11
346.1474814
21
-158.2112967
0
LINE
8
0
10
346.1474814
20
-158.2112967
11
335.8669663
21
-148.7080862
0
LINE
8
0
10
335.8669663
20
-148.7080862
11
326.3637558
21
-158.9886013
0
LINE
8
0
10
326.3637558
20
-158.9886013
11
336.6442709
21
-168.4918118
0
LINE
8
0
10
366.7970574
20
-163.9369113
11
376.3002679
21
-153.6563962
0
LINE
8
0
10
376.3002679
20
-153.6563962
11
366.0197528
21
-144.1531857
0
LINE
8
0
10
366.0197528
20
-144.1531857
11
356.5165423
21
-154.4337008
0
LINE
8
0
10
356.5165423
20
-154.4337008
11
366.7970574
21
-163.9369113
0
LINE
8
0
10
352.8082136
20
-151.0057571
11
362.3114241
21
-140.725242
0
LINE
8
0
10
362.3114241
20
-140.725242
11
352.030909
21
-131.2220315
0
LINE
8
0
10
352.030909
20
-131.2220315
11
342.5276985
21
-141.5025466
0
LINE
8
0
10
342.5276985
20
-141.5025466
11
352.8082136
21
-151.0057571
0
LINE
8
0
10
379.7282117
20
-149.9480675
11
389.2314222
21
-139.6675524
0
LINE
8
0
10
389.2314222
20
-139.6675524
11
378.9509071
21
-130.1643419
0
LINE
8
0
10
378.9509071
20
-130.1643419
11
369.4476966
21
-140.444857
0
LINE
8
0
10
369.4476966
20
-140.444857
11
379.7282117
21
-149.9480675
0
LINE
8
0
10
365.7393679
20
-137.0169133
11
375.2425784
21
-126.7363982
0
LINE
8
0
10
375.2425784
20
-126.7363982
11
364.9620633
21
-117.2331877
0
LINE
8
0
10
364.9620633
20
-117.2331877
11
355.4588528
21
-127.5137028
0
LINE
8
0
10
355.4588528
20
-127.5137028
11
365.7393679
21
-137.0169133
0
LINE
8
0
10
367.4533968
20
-107.8292128
11
381.4485993
21
-108.1956901
0
LINE
8
0
10
381.4485993
20
-108.1956901
11
381.8150766
21
-94.2004876
0
LINE
8
0
10
381.8150766
20
-94.2004876
11
367.8198741
21
-93.8340103
0
LINE
8
0
10
367.8198741
20
-93.8340103
11
367.4533968
21
-107.8292128
0
LINE
8
0
10
367.9520677
20
-88.7857408
11
381.9472702
21
-89.1522181
0
LINE
8
0
10
381.9472702
20
-89.1522181
11
382.3137475
21
-75.1570156
0
LINE
8
0
10
382.3137475
20
-75.1570156
11
368.318545
21
-74.7905383
0
LINE
8
0
10
368.318545
20
-74.7905383
11
367.9520677
21
-88.7857408
0
LINE
8
0
10
386.4968688
20
-108.3278837
11
400.4920713
21
-108.694361
0
LINE
8
0
10
400.4920713
20
-108.694361
11
400.8585486
21
-94.6991585
0
LINE
8
0
10
400.8585486
20
-94.6991585
11
386.8633461
21
-94.3326812
0
LINE
8
0
10
386.8633461
20
-94.3326812
11
386.4968688
21
-108.3278837
0
LINE
8
0
10
386.9955397
20
-89.2844117
11
400.9907422
21
-89.650889
0
LINE
8
0
10
400.9907422
20
-89.650889
11
401.3572195
21
-75.6556865
0
LINE
8
0
10
401.3572195
20
-75.6556865
11
387.362017
21
-75.2892092
0
LINE
8
0
10
387.362017
20
-75.2892092
11
386.9955397
21
-89.2844117
0
ENDSEC
0
EOF