0
SECTION
2
HEADER
9
$INSUNITS
70
4
0
ENDSEC
0
SECTION
2
TABLES
0
TABLE
2
LTYPE
0
LTYPE
72
65
70
64
2
CONTINUOUS
3
______
73
0
40
0
0
ENDTAB
0
TABLE
2
LAYER
0
ENDTAB
0
ENDSEC
0
SECTION
2
ENTITIES
0
LINE
8
0
10
30.5871252
20
-181.7400005
11
44.5865921
21
-181.617829
0
LINE
8
0
10
44.5865921
20
-181.617829
11
44.4644206
21
-167.6183621
0
LINE
8
0
10
44.4644206
20
-167.6183621
11
30.4649537
21
-167.7405336
0
LINE
8
0
10
30.4649537
20
-167.7405336
11
30.5871252
21
-181.7400005
0
LINE
8
0
10
25.1585851
20
-162.7366492
11
39.158052
21
-162.6144777
0
LINE
8
0
10
39.158052
20
-162.6144777
11
39.0358805
21
-148.6150108
0
LINE
8
0
10
39.0358805
20
-148.6150108
11
25.0364136
21
-148.7371823
0
LINE
8
0
10
25.0364136
20
-148.7371823
11
25.1585851
21
-162.7366492
0
LINE
8
0
10
24.9923446
20
-143.6873746
11
38.9918115
21
-143.5652031
0
LINE
8
0
10
38.9918115
20
-143.5652031
11
38.86964
21
-129.5657362
0
LINE
8
0
10
38.86964
20
-129.5657362
11
24.8701731
21
-129.6879077
0
LINE
8
0
10
24.8701731
20
-129.6879077
11
24.9923446
21
-143.6873746
0
LINE
8
0
10
24.8261041
20
-124.6380999
11
38.825571
21
-124.5159284
0
LINE
8
0
10
38.825571
20
-124.5159284
11
38.7033995
21
-110.5164615
0
LINE
8
0
10
38.7033995
20
-110.5164615
11
24.7039326
21
-110.638633
0
LINE
8
0
10
24.7039326
20
-110.638633
11
24.8261041
21
-124.6380999
0
LINE
8
0
10
29.9221632
20
-105.5429019
11
43.9216301
21
-105.4207304
0
LINE
8
0
10
43.9216301
20
-105.4207304
11
43.7994586
21
-91.4212635
0
LINE
8
0
10
43.7994586
20
-91.4212635
11
29.7999917
21
-91.543435
0
LINE
8
0
10
29.7999917
20
-91.543435
11
29.9221632
21
-105.5429019
0
LINE
8
0
10
29.7559227
20
-86.4936273
11
43.7553896
21
-86.3714558
0
LINE
8
0
10
43.7553896
20
-86.3714558
11
43.6332181
21
-72.3719889
0
LINE
8
0
10
43.6332181
20
-72.3719889
11
29.6337512
21
-72.4941604
0
LINE
8
0
10
29.6337512
20
-72.4941604
11
29.7559227
21
-86.4936273
0
LINE
8
0
10
49.6363999
20
-181.57376
11
63.6358668
21
-181.4515885
0
LINE
8
0
10
63.6358668
20
-181.4515885
11
63.5136953
21
-167.4521216
0
LINE
8
0
10
63.5136953
20
-167.4521216
11
49.5142284
21
-167.5742931
0
LINE
8
0
10
49.5142284
20
-167.5742931
11
49.6363999
21
-181.57376
0
LINE
8
0
10
49.4701594
20
-162.5244853
11
63.4696263
21
-162.4023138
0
LINE
8
0
10
63.4696263
20
-162.4023138
11
63.3474548
21
-148.4028469
0
LINE
8
0
10
63.3474548
20
-148.4028469
11
49.3479879
21
-148.5250184
0
LINE
8
0
10
49.3479879
20
-148.5250184
11
49.4701594
21
-162.5244853
0
LINE
8
0
10
49.3039189
20
-143.4752107
11
63.3033858
21
-143.3530392
0
LINE
8
0
10
63.3033858
20
-143.3530392
11
63.1812143
21
-129.3535723
0
LINE
8
0
10
63.1812143
20
-129.3535723
11
49.1817474
21
-129.4757438
0
LINE
8
0
10
49.1817474
20
-129.4757438
11
49.3039189
21
-143.4752107
0
LINE
8
0
10
49.1376784
20
-124.4259361
11
63.1371453
21
-124.3037646
0
LINE
8
0
10
63.1371453
20
-124.3037646
11
63.0149738
21
-110.3042977
0
LINE
8
0
10
63.0149738
20
-110.3042977
11
49.0155069
21
-110.4264692
0
LINE
8
0
10
49.0155069
20
-110.4264692
11
49.1376784
21
-124.4259361
0
LINE
8
0
10
48.9714379
20
-105.3766614
11
62.9709048
21
-105.2544899
0
LINE
8
0
10
62.9709048
20
-105.2544899
11
62.8487333
21
-91.255023
0
LINE
8
0
10
62.8487333
20
-91.255023
11
48.8492664
21
-91.3771945
0
LINE
8
0
10
48.8492664
20
-91.3771945
11
48.9714379
21
-105.3766614
0
LINE
8
0
10
68.5460499
20
-179.2854241
11
82.5455168
21
-179.4075956
0
LINE
8
0
10
82.5455168
20
-179.4075956
11
82.6676883
21
-165.4081287
0
LINE
8
0
10
82.6676883
20
-165.4081287
11
68.6682214
21
-165.2859572
0
LINE
8
0
10
68.6682214
20
-165.2859572
11
68.5460499
21
-179.2854241
0
LINE
8
0
10
68.7122904
20
-160.2361495
11
82.7117573
21
-160.358321
0
LINE
8
0
10
82.7117573
20
-160.358321
11
82.8339288
21
-146.3588541
0
LINE
8
0
10
82.8339288
20
-146.3588541
11
68.8344619
21
-146.2366826
0
LINE
8
0
10
68.8344619
20
-146.2366826
11
68.7122904
21
-160.2361495
0
LINE
8
0
10
68.8785309
20
-141.1868748
11
82.8779978
21
-141.3090463
0
LINE
8
0
10
82.8779978
20
-141.3090463
11
83.0001693
21
-127.3095794
0
LINE
8
0
10
83.0001693
20
-127.3095794
11
69.0007024
21
-127.1874079
0
LINE
8
0
10
69.0007024
20
-127.1874079
11
68.8785309
21
-141.1868748
0
LINE
8
0
10
69.0447713
20
-122.1376002
11
83.0442382
21
-122.2597717
0
LINE
8
0
10
83.0442382
20
-122.2597717
11
83.1664097
21
-108.2603048
0
LINE
8
0
10
83.1664097
20
-108.2603048
11
69.1669428
21
-108.1381333
0
LINE
8
0
10
69.1669428
20
-108.1381333
11
69.0447713
21
-122.1376002
0
LINE
8
0
10
69.2110118
20
-103.0883255
11
83.2104787
21
-103.210497
0
LINE
8
0
10
83.2104787
20
-103.210497
11
83.3326502
21
-89.2110301
0
LINE
8
0
10
83.3326502
20
-89.2110301
11
69.3331833
21
-89.0888586
0
LINE
8
0
10
69.3331833
20
-89.0888586
11
69.2110118
21
-103.0883255
0
LINE
8
0
10
69.3772522
20
-84.0390509
11
83.3767191
21
-84.1612224
0
LINE
8
0
10
83.3767191
20
-84.1612224
11
83.4988906
21
-70.1617555
0
LINE
8
0
10
83.4988906
20
-70.1617555
11
69.4994237
21
-70.039584
0
LINE
8
0
10
69.4994237
20
-70.039584
11
69.3772522
21
-84.0390509
0
LINE
8
0
10
87.4840304
20
-178.3274175
11
101.4792329
21
-178.6938948
0
LINE
8
0
10
101.4792329
20
-178.6938948
11
101.8457102
21
-164.6986923
0
LINE
8
0
10
101.8457102
20
-164.6986923
11
87.8505077
21
-164.332215
0
LINE
8
0
10
87.8505077
20
-164.332215
11
87.4840304
21
-178.3274175
0
LINE
8
0
10
87.9827013
20
-159.2839455
11
101.9779038
21
-159.6504228
0
LINE
8
0
10
101.9779038
20
-159.6504228
11
102.3443811
21
-145.6552203
0
LINE
8
0
10
102.3443811
20
-145.6552203
11
88.3491786
21
-145.288743
0
LINE
8
0
10
88.3491786
20
-145.288743
11
87.9827013
21
-159.2839455
0
LINE
8
0
10
88.4813721
20
-140.2404734
11
102.4765746
21
-140.6069507
0
LINE
8
0
10
102.4765746
20
-140.6069507
11
102.8430519
21
-126.6117482
0
LINE
8
0
10
102.8430519
20
-126.6117482
11
88.8478494
21
-126.2452709
0
LINE
8
0
10
88.8478494
20
-126.2452709
11
88.4813721
21
-140.2404734
0
LINE
8
0
10
88.980043
20
-121.1970013
11
102.9752455
21
-121.5634786
0
LINE
8
0
10
102.9752455
20
-121.5634786
11
103.3417228
21
-107.5682761
0
LINE
8
0
10
103.3417228
20
-107.5682761
11
89.3465203
21
-107.2017988
0
LINE
8
0
10
89.3465203
20
-107.2017988
11
88.980043
21
-121.1970013
0
LINE
8
0
10
89.4787138
20
-102.1535292
11
103.4739163
21
-102.5200065
0
LINE
8
0
10
103.4739163
20
-102.5200065
11
103.8403936
21
-88.524804
0
LINE
8
0
10
103.8403936
20
-88.524804
11
89.8451911
21
-88.1583267
0
LINE
8
0
10
89.8451911
20
-88.1583267
11
89.4787138
21
-102.1535292
0
LINE
8
0
10
89.9773847
20
-83.1100571
11
103.9725872
21
-83.4765344
0
LINE
8
0
10
103.9725872
20
-83.4765344
11
104.3390645
21
-69.4813319
0
LINE
8
0
10
104.3390645
20
-69.4813319
11
90.343862
21
-69.1148546
0
LINE
8
0
10
90.343862
20
-69.1148546
11
89.9773847
21
-83.1100571
0
LINE
8
0
10
107.2144415
20
-160.6675164
11
121.2011166
21
-161.2781879
0
LINE
8
0
10
121.2011166
20
-161.2781879
11
121.8117881
21
-147.2915128
0
LINE
8
0
10
121.8117881
20
-147.2915128
11
107.825113
21
-146.6808413
0
LINE
8
0
10
107.825113
20
-146.6808413
11
107.2144415
21
-160.6675164
0
LINE
8
0
10
108.0453909
20
-141.6356478
11
122.032066
21
-142.2463193
0
LINE
8
0
10
122.032066
20
-142.2463193
11
122.6427375
21
-128.2596442
0
LINE
8
0
10
122.6427375
20
-128.2596442
11
108.6560624
21
-127.6489727
0
LINE
8
0
10
108.6560624
20
-127.6489727
11
108.0453909
21
-141.6356478
0
LINE
8
0
10
108.8763402
20
-122.6037792
11
122.8630153
21
-123.2144507
0
LINE
8
0
10
122.8630153
20
-123.2144507
11
123.4736868
21
-109.2277756
0
LINE
8
0
10
123.4736868
20
-109.2277756
11
109.4870117
21
-108.6171041
0
LINE
8
0
10
109.4870117
20
-108.6171041
11
108.8763402
21
-122.6037792
0
LINE
8
0
10
109.7072896
20
-103.5719107
11
123.6939647
21
-104.1825822
0
LINE
8
0
10
123.6939647
20
-104.1825822
11
124.3046362
21
-90.1959071
0
LINE
8
0
10
124.3046362
20
-90.1959071
11
110.3179611
21
-89.5852356
0
LINE
8
0
10
110.3179611
20
-89.5852356
11
109.7072896
21
-103.5719107
0
LINE
8
0
10
110.538239
20
-84.5400421
11
124.5249141
21
-85.1507136
0
LINE
8
0
10
124.5249141
20
-85.1507136
11
125.1355856
21
-71.1640385
0
LINE
8
0
10
125.1355856
20
-71.1640385
11
111.1489105
21
-70.553367
0
LINE
8
0
10
111.1489105
20
-70.553367
11
110.538239
21
-84.5400421
0
LINE
8
0
10
123.8770711
20
-180.6762192
11
137.8609485
21
-181.347913
0
LINE
8
0
10
137.8609485
20
-181.347913
11
138.5326423
21
-167.3640356
0
LINE
8
0
10
138.5326423
20
-167.3640356
11
124.5487649
21
-166.6923418
0
LINE
8
0
10
124.5487649
20
-166.6923418
11
123.8770711
21
-180.6762192
0
LINE
8
0
10
126.289327
20
-161.7201247
11
140.2732044
21
-162.3918185
0
LINE
8
0
10
140.2732044
20
-162.3918185
11
140.9448982
21
-148.4079411
0
LINE
8
0
10
140.9448982
20
-148.4079411
11
126.9610208
21
-147.7362473
0
LINE
8
0
10
126.9610208
20
-147.7362473
11
126.289327
21
-161.7201247
0
LINE
8
0
10
127.2033104
20
-142.6920629
11
141.1871878
21
-143.3637567
0
LINE
8
0
10
141.1871878
20
-143.3637567
11
141.8588816
21
-129.3798793
0
LINE
8
0
10
141.8588816
20
-129.3798793
11
127.8750042
21
-128.7081855
0
LINE
8
0
10
127.8750042
20
-128.7081855
11
127.2033104
21
-142.6920629
0
LINE
8
0
10
128.1172937
20
-123.6640012
11
142.1011711
21
-124.335695
0
LINE
8
0
10
142.1011711
20
-124.335695
11
142.7728649
21
-110.3518176
0
LINE
8
0
10
142.7728649
20
-110.3518176
11
128.7889875
21
-109.6801238
0
LINE
8
0
10
128.7889875
20
-109.6801238
11
128.1172937
21
-123.6640012
0
LINE
8
0
10
129.0312771
20
-104.6359395
11
143.0151545
21
-105.3076333
0
LINE
8
0
10
143.0151545
20
-105.3076333
11
143.6868483
21
-91.3237559
0
LINE
8
0
10
143.6868483
20
-91.3237559
11
129.7029709
21
-90.6520621
0
LINE
8
0
10
129.7029709
20
-90.6520621
11
129.0312771
21
-104.6359395
0
LINE
8
0
10
129.9452604
20
-85.6078777
11
143.9291378
21
-86.2795715
0
LINE
8
0
10
143.9291378
20
-86.2795715
11
144.6008316
21
-72.2956941
0
LINE
8
0
10
144.6008316
20
-72.2956941
11
130.6169542
21
-71.6240003
0
LINE
8
0
10
130.6169542
20
-71.6240003
11
129.9452604
21
-85.6078777
0
LINE
8
0
10
179.9936247
20
-181.3392752
11
193.9775021
21
-180.6675814
0
LINE
8
0
10
193.9775021
20
-180.6675814
11
193.3058083
21
-166.683704
0
LINE
8
0
10
193.3058083
20
-166.683704
11
179.3219309
21
-167.3553978
0
LINE
8
0
10
179.3219309
20
-167.3553978
11
179.9936247
21
-181.3392752
0
LINE
8
0
10
177.5813687
20
-162.3831807
11
191.5652461
21
-161.7114869
0
LINE
8
0
10
191.5652461
20
-161.7114869
11
190.8935523
21
-147.7276095
0
LINE
8
0
10
190.8935523
20
-147.7276095
11
176.9096749
21
-148.3993033
0
LINE
8
0
10
176.9096749
20
-148.3993033
11
177.5813687
21
-162.3831807
0
LINE
8
0
10
176.6673853
20
-143.355119
11
190.6512627
21
-142.6834252
0
LINE
8
0
10
190.6512627
20
-142.6834252
11
189.9795689
21
-128.6995478
0
LINE
8
0
10
189.9795689
20
-128.6995478
11
175.9956915
21
-129.3712416
0
LINE
8
0
10
175.9956915
20
-129.3712416
11
176.6673853
21
-143.355119
0
LINE
8
0
10
175.753402
20
-124.3270573
11
189.7372794
21
-123.6553635
0
LINE
8
0
10
189.7372794
20
-123.6553635
11
189.0655856
21
-109.6714861
0
LINE
8
0
10
189.0655856
20
-109.6714861
11
175.0817082
21
-110.3431799
0
LINE
8
0
10
175.0817082
20
-110.3431799
11
175.753402
21
-124.3270573
0
LINE
8
0
10
174.8394186
20
-105.2989955
11
188.823296
21
-104.6273017
0
LINE
8
0
10
188.823296
20
-104.6273017
11
188.1516022
21
-90.6434243
0
LINE
8
0
10
188.1516022
20
-90.6434243
11
174.1677248
21
-91.3151181
0
LINE
8
0
10
174.1677248
20
-91.3151181
11
174.8394186
21
-105.2989955
0
LINE
8
0
10
173.9254353
20
-86.2709338
11
187.9093127
21
-85.59924
0
LINE
8
0
10
187.9093127
20
-85.59924
11
187.2376189
21
-71.6153626
0
LINE
8
0
10
187.2376189
20
-71.6153626
11
173.2537415
21
-72.2870564
0
LINE
8
0
10
173.2537415
20
-72.2870564
11
173.9254353
21
-86.2709338
0
LINE
8
0
10
196.597436
20
-161.2194853
11
210.5813134
21
-160.5477915
0
LINE
8
0
10
210.5813134
20
-160.5477915
11
209.9096196
21
-146.5639141
0
LINE
8
0
10
209.9096196
20
-146.5639141
11
195.9257422
21
-147.2356079
0
LINE
8
0
10
195.9257422
20
-147.2356079
11
196.597436
21
-161.2194853
0
LINE
8
0
10
195.6834526
20
-142.1914236
11
209.66733
21
-141.5197298
0
LINE
8
0
10
209.66733
20
-141.5197298
11
208.9956362
21
-127.5358524
0
LINE
8
0
10
208.9956362
20
-127.5358524
11
195.0117588
21
-128.2075462
0
LINE
8
0
10
195.0117588
20
-128.2075462
11
195.6834526
21
-142.1914236
0
LINE
8
0
10
194.7694692
20
-123.1633619
11
208.7533466
21
-122.4916681
0
LINE
8
0
10
208.7533466
20
-122.4916681
11
208.0816528
21
-108.5077907
0
LINE
8
0
10
208.0816528
20
-108.5077907
11
194.0977754
21
-109.1794845
0
LINE
8
0
10
194.0977754
20
-109.1794845
11
194.7694692
21
-123.1633619
0
LINE
8
0
10
193.8554859
20
-104.1353001
11
207.8393633
21
-103.4636063
0
LINE
8
0
10
207.8393633
20
-103.4636063
11
207.1676695
21
-89.4797289
0
LINE
8
0
10
207.1676695
20
-89.4797289
11
193.1837921
21
-90.1514227
0
LINE
8
0
10
193.1837921
20
-90.1514227
11
193.8554859
21
-104.1353001
0
LINE
8
0
10
192.9415025
20
-85.1072384
11
206.9253799
21
-84.4355446
0
LINE
8
0
10
206.9253799
20
-84.4355446
11
206.2536861
21
-70.4516672
0
LINE
8
0
10
206.2536861
20
-70.4516672
11
192.2698087
21
-71.123361
0
LINE
8
0
10
192.2698087
20
-71.123361
11
192.9415025
21
-85.1072384
0
LINE
8
0
10
216.3646292
20
-178.2174343
11
230.3580994
21
-177.7898951
0
LINE
8
0
10
230.3580994
20
-177.7898951
11
229.9305602
21
-163.7964249
0
LINE
8
0
10
229.9305602
20
-163.7964249
11
215.93709
21
-164.2239641
0
LINE
8
0
10
215.93709
20
-164.2239641
11
216.3646292
21
-178.2174343
0
LINE
8
0
10
215.7828705
20
-159.1763194
11
229.7763407
21
-158.7487802
0
LINE
8
0
10
229.7763407
20
-158.7487802
11
229.3488015
21
-144.75531
0
LINE
8
0
10
229.3488015
20
-144.75531
11
215.3553313
21
-145.1828492
0
LINE
8
0
10
215.3553313
20
-145.1828492
11
215.7828705
21
-159.1763194
0
LINE
8
0
10
215.2011118
20
-140.1352045
11
229.194582
21
-139.7076653
0
LINE
8
0
10
229.194582
20
-139.7076653
11
228.7670428
21
-125.7141951
0
LINE
8
0
10
228.7670428
20
-125.7141951
11
214.7735726
21
-126.1417343
0
LINE
8
0
10
214.7735726
20
-126.1417343
11
215.2011118
21
-140.1352045
0
LINE
8
0
10
214.6193531
20
-121.0940896
11
228.6128233
21
-120.6665504
0
LINE
8
0
10
228.6128233
20
-120.6665504
11
228.1852841
21
-106.6730802
0
LINE
8
0
10
228.1852841
20
-106.6730802
11
214.1918139
21
-107.1006194
0
LINE
8
0
10
214.1918139
20
-107.1006194
11
214.6193531
21
-121.0940896
0
LINE
8
0
10
214.0375944
20
-102.0529748
11
228.0310646
21
-101.6254356
0
LINE
8
0
10
228.0310646
20
-101.6254356
11
227.6035254
21
-87.6319654
0
LINE
8
0
10
227.6035254
20
-87.6319654
11
213.6100552
21
-88.0595046
0
LINE
8
0
10
213.6100552
20
-88.0595046
11
214.0375944
21
-102.0529748
0
LINE
8
0
10
213.4558356
20
-83.0118599
11
227.4493058
21
-82.5843207
0
LINE
8
0
10
227.4493058
20
-82.5843207
11
227.0217666
21
-68.5908505
0
LINE
8
0
10
227.0217666
20
-68.5908505
11
213.0282964
21
-69.0183897
0
LINE
8
0
10
213.0282964
20
-69.0183897
11
213.4558356
21
-83.0118599
0
LINE
8
0
10
235.311475
20
-178.5157321
11
249.3102756
21
-178.3324777
0
LINE
8
0
10
249.3102756
20
-178.3324777
11
249.1270212
21
-164.3336771
0
LINE
8
0
10
249.1270212
20
-164.3336771
11
235.1282206
21
-164.5169315
0
LINE
8
0
10
235.1282206
20
-164.5169315
11
235.311475
21
-178.5157321
0
LINE
8
0
10
235.0621183
20
-159.4673641
11
249.0609189
21
-159.2841097
0
LINE
8
0
10
249.0609189
20
-159.2841097
11
248.8776645
21
-145.2853091
0
LINE
8
0
10
248.8776645
20
-145.2853091
11
234.8788639
21
-145.4685635
0
LINE
8
0
10
234.8788639
20
-145.4685635
11
235.0621183
21
-159.4673641
0
LINE
8
0
10
234.8127615
20
-140.4189961
11
248.8115621
21
-140.2357417
0
LINE
8
0
10
248.8115621
20
-140.2357417
11
248.6283077
21
-126.2369411
0
LINE
8
0
10
248.6283077
20
-126.2369411
11
234.6295071
21
-126.4201955
0
LINE
8
0
10
234.6295071
20
-126.4201955
11
234.8127615
21
-140.4189961
0
LINE
8
0
10
234.5634048
20
-121.3706281
11
248.5622054
21
-121.1873737
0
LINE
8
0
10
248.5622054
20
-121.1873737
11
248.378951
21
-107.1885731
0
LINE
8
0
10
248.378951
20
-107.1885731
11
234.3801504
21
-107.3718275
0
LINE
8
0
10
234.3801504
20
-107.3718275
11
234.5634048
21
-121.3706281
0
LINE
8
0
10
234.314048
20
-102.3222601
11
248.3128486
21
-102.1390057
0
LINE
8
0
10
248.3128486
20
-102.1390057
11
248.1295942
21
-88.1402051
0
LINE
8
0
10
248.1295942
20
-88.1402051
11
234.1307936
21
-88.3234595
0
LINE
8
0
10
234.1307936
20
-88.3234595
11
234.314048
21
-102.3222601
0
LINE
8
0
10
234.0646913
20
-83.2738921
11
248.0634919
21
-83.0906377
0
LINE
8
0
10
248.0634919
20
-83.0906377
11
247.8802375
21
-69.0918371
0
LINE
8
0
10
247.8802375
20
-69.0918371
11
233.8814369
21
-69.2750915
0
LINE
8
0
10
233.8814369
20
-69.2750915
11
234.0646913
21
-83.2738921
0
LINE
8
0
10
254.2633188
20
-180.1445666
11
268.2631855
21
-180.2056529
0
LINE
8
0
10
268.2631855
20
-180.2056529
11
268.3242718
21
-166.2057862
0
LINE
8
0
10
268.3242718
20
-166.2057862
11
254.3244051
21
-166.1446999
0
LINE
8
0
10
254.3244051
20
-166.1446999
11
254.2633188
21
-180.1445666
0
LINE
8
0
10
254.3464398
20
-161.094748
11
268.3463065
21
-161.1558343
0
LINE
8
0
10
268.3463065
20
-161.1558343
11
268.4073928
21
-147.1559676
0
LINE
8
0
10
268.4073928
20
-147.1559676
11
254.4075261
21
-147.0948813
0
LINE
8
0
10
254.4075261
20
-147.0948813
11
254.3464398
21
-161.094748
0
LINE
8
0
10
254.4295609
20
-142.0449294
11
268.4294276
21
-142.1060157
0
LINE
8
0
10
268.4294276
20
-142.1060157
11
268.4905139
21
-128.106149
0
LINE
8
0
10
268.4905139
20
-128.106149
11
254.4906472
21
-128.0450627
0
LINE
8
0
10
254.4906472
20
-128.0450627
11
254.4295609
21
-142.0449294
0
LINE
8
0
10
254.5126819
20
-122.9951107
11
268.5125486
21
-123.056197
0
LINE
8
0
10
268.5125486
20
-123.056197
11
268.5736349
21
-109.0563303
0
LINE
8
0
10
268.5736349
20
-109.0563303
11
254.5737682
21
-108.995244
0
LINE
8
0
10
254.5737682
20
-108.995244
11
254.5126819
21
-122.9951107
0
LINE
8
0
10
254.595803
20
-103.9452921
11
268.5956697
21
-104.0063784
0
LINE
8
0
10
268.5956697
20
-104.0063784
11
268.656756
21
-90.0065117
0
LINE
8
0
10
268.656756
20
-90.0065117
11
254.6568893
21
-89.9454254
0
LINE
8
0
10
254.6568893
20
-89.9454254
11
254.595803
21
-103.9452921
0
LINE
8
0
10
273.3131374
20
-180.2276876
11
287.3130041
21
-180.2887739
0
LINE
8
0
10
287.3130041
20
-180.2887739
11
287.3740904
21
-166.2889072
0
LINE
8
0
10
287.3740904
20
-166.2889072
11
273.3742237
21
-166.2278209
0
LINE
8
0
10
273.3742237
20
-166.2278209
11
273.3131374
21
-180.2276876
0
LINE
8
0
10
278.7587074
20
-161.2012673
11
292.7585741
21
-161.2623536
0
LINE
8
0
10
292.7585741
20
-161.2623536
11
292.8196604
21
-147.2624869
0
LINE
8
0
10
292.8196604
20
-147.2624869
11
278.8197937
21
-147.2014006
0
LINE
8
0
10
278.8197937
20
-147.2014006
11
278.7587074
21
-161.2012673
0
LINE
8
0
10
273.4793795
20
-142.1280504
11
287.4792462
21
-142.1891367
0
LINE
8
0
10
287.4792462
20
-142.1891367
11
287.5403325
21
-128.18927
0
LINE
8
0
10
287.5403325
20
-128.18927
11
273.5404658
21
-128.1281837
0
LINE
8
0
10
273.5404658
20
-128.1281837
11
273.4793795
21
-142.1280504
0
LINE
8
0
10
273.5625005
20
-123.0782318
11
287.5623672
21
-123.1393181
0
LINE
8
0
10
287.5623672
20
-123.1393181
11
287.6234535
21
-109.1394514
0
LINE
8
0
10
287.6234535
20
-109.1394514
11
273.6235868
21
-109.0783651
0
LINE
8
0
10
273.6235868
20
-109.0783651
11
273.5625005
21
-123.0782318
0
LINE
8
0
10
273.6456216
20
-104.0284132
11
287.6454883
21
-104.0894995
0
LINE
8
0
10
287.6454883
20
-104.0894995
11
287.7065746
21
-90.0896328
0
LINE
8
0
10
287.7065746
20
-90.0896328
11
273.7067079
21
-90.0285465
0
LINE
8
0
10
273.7067079
20
-90.0285465
11
273.6456216
21
-104.0284132
0
LINE
8
0
10
273.7287426
20
-84.9785946
11
287.7286093
21
-85.0396809
0
LINE
8
0
10
287.7286093
20
-85.0396809
11
287.7896956
21
-71.0398142
0
LINE
8
0
10
287.7896956
20
-71.0398142
11
273.7898289
21
-70.9787279
0
LINE
8
0
10
273.7898289
20
-70.9787279
11
273.7287426
21
-84.9785946
0
LINE
8
0
10
297.8916472
20
-142.2345698
11
311.8915139
21
-142.2956561
0
LINE
8
0
10
311.8915139
20
-142.2956561
11
311.9526002
21
-128.2957894
0
LINE
8
0
10
311.9526002
20
-128.2957894
11
297.9527335
21
-128.2347031
0
LINE
8
0
10
297.9527335
20
-128.2347031
11
297.8916472
21
-142.2345698
0
LINE
8
0
10
292.6123193
20
-123.1613529
11
306.612186
21
-123.2224392
0
LINE
8
0
10
306.612186
20
-123.2224392
11
306.6732723
21
-109.2225725
0
LINE
8
0
10
306.6732723
20
-109.2225725
11
292.6734056
21
-109.1614862
0
LINE
8
0
10
292.6734056
20
-109.1614862
11
292.6123193
21
-123.1613529
0
LINE
8
0
10
292.6954403
20
-104.1115343
11
306.695307
21
-104.1726206
0
LINE
8
0
10
306.695307
20
-104.1726206
11
306.7563933
21
-90.1727539
0
LINE
8
0
10
306.7563933
20
-90.1727539
11
292.7565266
21
-90.1116676
0
LINE
8
0
10
292.7565266
20
-90.1116676
11
292.6954403
21
-104.1115343
0
LINE
8
0
10
292.7785614
20
-85.0617157
11
306.7784281
21
-85.122802
0
LINE
8
0
10
306.7784281
20
-85.122802
11
306.8395144
21
-71.1229353
0
LINE
8
0
10
306.8395144
20
-71.1229353
11
292.8396477
21
-71.061849
0
LINE
8
0
10
292.8396477
20
-71.061849
11
292.7785614
21
-85.0617157
0
LINE
8
0
10
311.6621379
20
-123.2444739
11
325.6620046
21
-123.3055602
0
LINE
8
0
10
325.6620046
20
-123.3055602
11
325.7230909
21
-109.3056935
0
LINE
8
0
10
325.7230909
20
-109.3056935
11
311.7232242
21
-109.2446072
0
LINE
8
0
10
311.7232242
20
-109.2446072
11
311.6621379
21
-123.2444739
0
LINE
8
0
10
317.1077079
20
-104.2180536
11
331.1075746
21
-104.2791399
0
LINE
8
0
10
331.1075746
20
-104.2791399
11
331.1686609
21
-90.2792732
0
LINE
8
0
10
331.1686609
20
-90.2792732
11
317.1687942
21
-90.2181869
0
LINE
8
0
10
317.1687942
20
-90.2181869
11
317.1077079
21
-104.2180536
0
LINE
8
0
10
311.82838
20
-85.1448367
11
325.8282467
21
-85.205923
0
LINE
8
0
10
325.8282467
20
-85.205923
11
325.889333
21
-71.2060563
0
LINE
8
0
10
325.889333
20
-71.2060563
11
311.8894663
21
-71.14497
0
LINE
8
0
10
311.8894663
20
-71.14497
11
311.82838
21
-85.1448367
0
LINE
8
0
10
330.8781987
20
-85.2279578
11
344.8780654
21
-85.2890441
0
LINE
8
0
10
344.8780654
20
-85.2890441
11
344.9391517
21
-71.2891774
0
LINE
8
0
10
344.9391517
20
-71.2891774
11
330.939285
21
-71.2280911
0
LINE
8
0
10
330.939285
20
-71.2280911
11
330.8781987
21
-85.2279578
0
LINE
8
0
10
333.3759013
20
-193.1809125
11
342.7890366
21
-182.8178588
0
LINE
8
0
10
342.7890366
20
-182.8178588
11
332.4259829
21
-173.4047235
0
LINE
8
0
10
332.4259829
20
-173.4047235
11
323.0128476
21
-183.7677772
0
LINE
8
0
10
323.0128476
20
-183.7677772
11
333.3759013
21
-193.1809125
0
LINE
8
0
10
319.274746
20
-180.3723249
11
328.6878813
21
-170.0092712
0
LINE
8
0
10
328.6878813
20
-170.0092712
11
318.3248276
21
-160.5961359
0
LINE
8
0
10
318.3248276
20
-160.5961359
11
308.9116923
21
-170.9591896
0
LINE
8
0
10
308.9116923
20
-170.9591896
11
319.274746
21
-180.3723249
0
LINE
8
0
10
346.184489
20
-179.0797572
11
355.5976243
21
-168.7167035
0
LINE
8
0
10
355.5976243
20
-168.7167035
11
345.2345706
21
-159.3035682
0
LINE
8
0
10
345.2345706
20
-159.3035682
11
335.8214353
21
-169.6666219
0
LINE
8
0
10
335.8214353
20
-169.6666219
11
346.184489
21
-179.0797572
0
LINE
8
0
10
332.0833337
20
-166.2711695
11
341.496469
21
-155.9081158
0
LINE
8
0
10
341.496469
20
-155.9081158
11
331.1334153
21
-146.4949805
0
LINE
8
0
10
331.1334153
20
-146.4949805
11
321.72028
21
-156.8580342
0
LINE
8
0
10
321.72028
20
-156.8580342
11
332.0833337
21
-166.2711695
0
LINE
8
0
10
362.1952237
20
-161.453313
11
371.608359
21
-151.0902593
0
LINE
8
0
10
371.608359
20
-151.0902593
11
361.2453053
21
-141.677124
0
LINE
8
0
10
361.2453053
20
-141.677124
11
351.83217
21
-152.0401777
0
LINE
8
0
10
351.83217
20
-152.0401777
11
362.1952237
21
-161.453313
0
LINE
8
0
10
348.0940683
20
-148.6447253
11
357.5072036
21
-138.2816716
0
LINE
8
0
10
357.5072036
20
-138.2816716
11
347.1441499
21
-128.8685363
0
LINE
8
0
10
347.1441499
20
-128.8685363
11
337.7310146
21
-139.23159
0
LINE
8
0
10
337.7310146
20
-139.23159
11
348.0940683
21
-148.6447253
0
LINE
8
0
10
375.0038113
20
-147.3521577
11
384.4169466
21
-136.989104
0
LINE
8
0
10
384.4169466
20
-136.989104
11
374.0538929
21
-127.5759687
0
LINE
8
0
10
374.0538929
20
-127.5759687
11
364.6407576
21
-137.9390224
0
LINE
8
0
10
364.6407576
20
-137.9390224
11
375.0038113
21
-147.3521577
0
LINE
8
0
10
360.902656
20
-134.54357
11
370.3157913
21
-124.1805163
0
LINE
8
0
10
370.3157913
20
-124.1805163
11
359.9527376
21
-114.767381
0
LINE
8
0
10
359.9527376
20
-114.767381
11
350.5396023
21
-125.1304347
0
LINE
8
0
10
350.5396023
20
-125.1304347
11
360.902656
21
-134.54357
0
LINE
8
0
10
359.3698056
20
-104.402458
11
373.3696723
21
-104.4635443
0
LINE
8
0
10
373.3696723
20
-104.4635443
11
373.4307586
21
-90.4636776
0
LINE
8
0
10
373.4307586
20
-90.4636776
11
359.4308919
21
-90.4025913
0
LINE
8
0
10
359.4308919
20
-90.4025913
11
359.3698056
21
-104.402458
0
LINE
8
0
10
359.4529267
20
-85.3526394
11
373.4527934
21
-85.4137257
0
LINE
8
0
10
373.4527934
20
-85.4137257
11
373.5138797
21
-71.413859
0
LINE
8
0
10
373.5138797
20
-71.413859
11
359.514013
21
-71.3527727
0
LINE
8
0
10
359.514013
20
-71.3527727
11
359.4529267
21
-85.3526394
0
LINE
8
0
10
378.4196242
20
-104.485579
11
392.4194909
21
-104.5466653
0
LINE
8
0
10
392.4194909
20
-104.5466653
11
392.4805772
21
-90.5467986
0
LINE
8
0
10
392.4805772
20
-90.5467986
11
378.4807105
21
-90.4857123
0
LINE
8
0
10
378.4807105
20
-90.4857123
11
378.4196242
21
-104.485579
0
LINE
8
0
10
378.5027453
20
-85.4357604
11
392.502612
21
-85.4968467
0
LINE
8
0
10
392.502612
20
-85.4968467
11
392.5636983
21
-71.49698
0
LINE
8
0
10
392.5636983
20
-71.49698
11
378.5638316
21
-71.4358937
0
LINE
8
0
10
378.5638316
20
-71.4358937
11
378.5027453
21
-85.4357604
0
ENDSEC
0
EOF