<?xml version="1.0"?>
<svg
  xmlns="http://www.w3.org/2000/svg"
  xmlns:xlink="http://www.w3.org/1999/xlink" version="1.1"
  preserveAspectRatio="xMinYMin meet"
  viewBox="25.0243759 68.1112418 375.5513303 124.84353030000001"
  width="100%" height="100%"
>
  <g stroke="#000000" stroke-width="0.1%" fill="none" transform="matrix(1,0,0,-1,0,0)">
    <g stroke="rgb(0, 0, 0)"><path d="M31.1135417,-181.6506194L45.1125959,-181.4878886" /></g>
<g stroke="rgb(0, 0, 0)"><path d="M45.1125959,-181.4878886L44.9498651,-167.4888344" /></g>
<g stroke="rgb(0, 0, 0)"><path d="M44.9498651,-167.4888344L30.9508109,-167.6515652" /></g>
<g stroke="rgb(0, 0, 0)"><path d="M30.9508109,-167.6515652L31.1135417,-181.6506194" /></g>
<g stroke="rgb(0, 0, 0)"><path d="M25.629967,-162.6630757L39.6290212,-162.5003449" /></g>
<g stroke="rgb(0, 0, 0)"><path d="M39.6290212,-162.5003449L39.4662904,-148.5012907" /></g>
<g stroke="rgb(0, 0, 0)"><path d="M39.4662904,-148.5012907L25.4672362,-148.6640215" /></g>
<g stroke="rgb(0, 0, 0)"><path d="M25.4672362,-148.6640215L25.629967,-162.6630757" /></g>
<g stroke="rgb(0, 0, 0)"><path d="M25.4085369,-143.6143626L39.4075911,-143.4516318" /></g>
<g stroke="rgb(0, 0, 0)"><path d="M39.4075911,-143.4516318L39.2448603,-129.4525776" /></g>
<g stroke="rgb(0, 0, 0)"><path d="M39.2448603,-129.4525776L25.2458061,-129.6153084" /></g>
<g stroke="rgb(0, 0, 0)"><path d="M25.2458061,-129.6153084L25.4085369,-143.6143626" /></g>
<g stroke="rgb(0, 0, 0)"><path d="M25.1871067,-124.5656496L39.1861609,-124.4029188" /></g>
<g stroke="rgb(0, 0, 0)"><path d="M39.1861609,-124.4029188L39.0234301,-110.4038646" /></g>
<g stroke="rgb(0, 0, 0)"><path d="M39.0234301,-110.4038646L25.0243759,-110.5665954" /></g>
<g stroke="rgb(0, 0, 0)"><path d="M25.0243759,-110.5665954L25.1871067,-124.5656496" /></g>
<g stroke="rgb(0, 0, 0)"><path d="M30.227821,-105.4557672L44.2268752,-105.2930364" /></g>
<g stroke="rgb(0, 0, 0)"><path d="M44.2268752,-105.2930364L44.0641444,-91.2939822" /></g>
<g stroke="rgb(0, 0, 0)"><path d="M44.0641444,-91.2939822L30.0650902,-91.456713" /></g>
<g stroke="rgb(0, 0, 0)"><path d="M30.0650902,-91.456713L30.227821,-105.4557672" /></g>
<g stroke="rgb(0, 0, 0)"><path d="M30.0063908,-86.4070541L44.005445,-86.2443233" /></g>
<g stroke="rgb(0, 0, 0)"><path d="M44.005445,-86.2443233L43.8427142,-72.2452691" /></g>
<g stroke="rgb(0, 0, 0)"><path d="M43.8427142,-72.2452691L29.84366,-72.4079999" /></g>
<g stroke="rgb(0, 0, 0)"><path d="M29.84366,-72.4079999L30.0063908,-86.4070541" /></g>
<g stroke="rgb(0, 0, 0)"><path d="M50.1622547,-181.4291892L64.1613089,-181.2664584" /></g>
<g stroke="rgb(0, 0, 0)"><path d="M64.1613089,-181.2664584L63.9985781,-167.2674042" /></g>
<g stroke="rgb(0, 0, 0)"><path d="M63.9985781,-167.2674042L49.9995239,-167.430135" /></g>
<g stroke="rgb(0, 0, 0)"><path d="M49.9995239,-167.430135L50.1622547,-181.4291892" /></g>
<g stroke="rgb(0, 0, 0)"><path d="M49.9408246,-162.3804761L63.9398788,-162.2177453" /></g>
<g stroke="rgb(0, 0, 0)"><path d="M63.9398788,-162.2177453L63.777148,-148.2186911" /></g>
<g stroke="rgb(0, 0, 0)"><path d="M63.777148,-148.2186911L49.7780938,-148.3814219" /></g>
<g stroke="rgb(0, 0, 0)"><path d="M49.7780938,-148.3814219L49.9408246,-162.3804761" /></g>
<g stroke="rgb(0, 0, 0)"><path d="M49.7193944,-143.3317631L63.7184486,-143.1690323" /></g>
<g stroke="rgb(0, 0, 0)"><path d="M63.7184486,-143.1690323L63.5557178,-129.1699781" /></g>
<g stroke="rgb(0, 0, 0)"><path d="M63.5557178,-129.1699781L49.5566636,-129.3327089" /></g>
<g stroke="rgb(0, 0, 0)"><path d="M49.5566636,-129.3327089L49.7193944,-143.3317631" /></g>
<g stroke="rgb(0, 0, 0)"><path d="M49.4979642,-124.2830501L63.4970184,-124.1203193" /></g>
<g stroke="rgb(0, 0, 0)"><path d="M63.4970184,-124.1203193L63.3342876,-110.1212651" /></g>
<g stroke="rgb(0, 0, 0)"><path d="M63.3342876,-110.1212651L49.3352334,-110.2839959" /></g>
<g stroke="rgb(0, 0, 0)"><path d="M49.3352334,-110.2839959L49.4979642,-124.2830501" /></g>
<g stroke="rgb(0, 0, 0)"><path d="M49.2765341,-105.234337L63.2755883,-105.0716062" /></g>
<g stroke="rgb(0, 0, 0)"><path d="M63.2755883,-105.0716062L63.1128575,-91.072552" /></g>
<g stroke="rgb(0, 0, 0)"><path d="M63.1128575,-91.072552L49.1138033,-91.2352828" /></g>
<g stroke="rgb(0, 0, 0)"><path d="M49.1138033,-91.2352828L49.2765341,-105.234337" /></g>
<g stroke="rgb(0, 0, 0)"><path d="M69.0651956,-179.0860771L83.0649577,-179.1676882" /></g>
<g stroke="rgb(0, 0, 0)"><path d="M83.0649577,-179.1676882L83.1465688,-165.1679261" /></g>
<g stroke="rgb(0, 0, 0)"><path d="M83.1465688,-165.1679261L69.1468067,-165.086315" /></g>
<g stroke="rgb(0, 0, 0)"><path d="M69.1468067,-165.086315L69.0651956,-179.0860771" /></g>
<g stroke="rgb(0, 0, 0)"><path d="M69.176245,-160.0364008L83.1760071,-160.1180119" /></g>
<g stroke="rgb(0, 0, 0)"><path d="M83.1760071,-160.1180119L83.2576182,-146.1182498" /></g>
<g stroke="rgb(0, 0, 0)"><path d="M83.2576182,-146.1182498L69.2578561,-146.0366387" /></g>
<g stroke="rgb(0, 0, 0)"><path d="M69.2578561,-146.0366387L69.176245,-160.0364008" /></g>
<g stroke="rgb(0, 0, 0)"><path d="M69.2872944,-140.9867245L83.2870565,-141.0683356" /></g>
<g stroke="rgb(0, 0, 0)"><path d="M83.2870565,-141.0683356L83.3686676,-127.0685735" /></g>
<g stroke="rgb(0, 0, 0)"><path d="M83.3686676,-127.0685735L69.3689055,-126.9869624" /></g>
<g stroke="rgb(0, 0, 0)"><path d="M69.3689055,-126.9869624L69.2872944,-140.9867245" /></g>
<g stroke="rgb(0, 0, 0)"><path d="M69.3983438,-121.9370481L83.3981059,-122.0186592" /></g>
<g stroke="rgb(0, 0, 0)"><path d="M83.3981059,-122.0186592L83.479717,-108.0188971" /></g>
<g stroke="rgb(0, 0, 0)"><path d="M83.479717,-108.0188971L69.4799549,-107.937286" /></g>
<g stroke="rgb(0, 0, 0)"><path d="M69.4799549,-107.937286L69.3983438,-121.9370481" /></g>
<g stroke="rgb(0, 0, 0)"><path d="M69.5093932,-102.8873718L83.5091553,-102.9689829" /></g>
<g stroke="rgb(0, 0, 0)"><path d="M83.5091553,-102.9689829L83.5907664,-88.9692208" /></g>
<g stroke="rgb(0, 0, 0)"><path d="M83.5907664,-88.9692208L69.5910043,-88.8876097" /></g>
<g stroke="rgb(0, 0, 0)"><path d="M69.5910043,-88.8876097L69.5093932,-102.8873718" /></g>
<g stroke="rgb(0, 0, 0)"><path d="M69.6204426,-83.8376955L83.6202047,-83.9193066" /></g>
<g stroke="rgb(0, 0, 0)"><path d="M83.6202047,-83.9193066L83.7018158,-69.9195445" /></g>
<g stroke="rgb(0, 0, 0)"><path d="M83.7018158,-69.9195445L69.7020537,-69.8379334" /></g>
<g stroke="rgb(0, 0, 0)"><path d="M69.7020537,-69.8379334L69.6204426,-83.8376955" /></g>
<g stroke="rgb(0, 0, 0)"><path d="M88.000321,-178.0732067L101.9965266,-178.3991349" /></g>
<g stroke="rgb(0, 0, 0)"><path d="M101.9965266,-178.3991349L102.3224548,-164.4029293" /></g>
<g stroke="rgb(0, 0, 0)"><path d="M102.3224548,-164.4029293L88.3262492,-164.0770011" /></g>
<g stroke="rgb(0, 0, 0)"><path d="M88.3262492,-164.0770011L88.000321,-178.0732067" /></g>
<g stroke="rgb(0, 0, 0)"><path d="M88.4438162,-159.0283698L102.4400218,-159.354298" /></g>
<g stroke="rgb(0, 0, 0)"><path d="M102.4400218,-159.354298L102.76595,-145.3580924" /></g>
<g stroke="rgb(0, 0, 0)"><path d="M102.76595,-145.3580924L88.7697444,-145.0321642" /></g>
<g stroke="rgb(0, 0, 0)"><path d="M88.7697444,-145.0321642L88.4438162,-159.0283698" /></g>
<g stroke="rgb(0, 0, 0)"><path d="M88.8873114,-139.9835329L102.883517,-140.3094611" /></g>
<g stroke="rgb(0, 0, 0)"><path d="M102.883517,-140.3094611L103.2094452,-126.3132555" /></g>
<g stroke="rgb(0, 0, 0)"><path d="M103.2094452,-126.3132555L89.2132396,-125.9873273" /></g>
<g stroke="rgb(0, 0, 0)"><path d="M89.2132396,-125.9873273L88.8873114,-139.9835329" /></g>
<g stroke="rgb(0, 0, 0)"><path d="M89.3308066,-120.9386959L103.3270122,-121.2646241" /></g>
<g stroke="rgb(0, 0, 0)"><path d="M103.3270122,-121.2646241L103.6529404,-107.2684185" /></g>
<g stroke="rgb(0, 0, 0)"><path d="M103.6529404,-107.2684185L89.6567348,-106.9424903" /></g>
<g stroke="rgb(0, 0, 0)"><path d="M89.6567348,-106.9424903L89.3308066,-120.9386959" /></g>
<g stroke="rgb(0, 0, 0)"><path d="M89.7743018,-101.893859L103.7705074,-102.2197872" /></g>
<g stroke="rgb(0, 0, 0)"><path d="M103.7705074,-102.2197872L104.0964356,-88.2235816" /></g>
<g stroke="rgb(0, 0, 0)"><path d="M104.0964356,-88.2235816L90.10023,-87.8976534" /></g>
<g stroke="rgb(0, 0, 0)"><path d="M90.10023,-87.8976534L89.7743018,-101.893859" /></g>
<g stroke="rgb(0, 0, 0)"><path d="M90.217797,-82.8490221L104.2140026,-83.1749503" /></g>
<g stroke="rgb(0, 0, 0)"><path d="M104.2140026,-83.1749503L104.5399308,-69.1787447" /></g>
<g stroke="rgb(0, 0, 0)"><path d="M104.5399308,-69.1787447L90.5437252,-68.8528165" /></g>
<g stroke="rgb(0, 0, 0)"><path d="M90.5437252,-68.8528165L90.217797,-82.8490221" /></g>
<g stroke="rgb(0, 0, 0)"><path d="M107.6794843,-160.3562159L121.66787,-160.926362" /></g>
<g stroke="rgb(0, 0, 0)"><path d="M121.66787,-160.926362L122.2380161,-146.9379763" /></g>
<g stroke="rgb(0, 0, 0)"><path d="M122.2380161,-146.9379763L108.2496304,-146.3678302" /></g>
<g stroke="rgb(0, 0, 0)"><path d="M108.2496304,-146.3678302L107.6794843,-160.3562159" /></g>
<g stroke="rgb(0, 0, 0)"><path d="M108.4552902,-141.3220197L122.4436759,-141.8921658" /></g>
<g stroke="rgb(0, 0, 0)"><path d="M122.4436759,-141.8921658L123.013822,-127.9037801" /></g>
<g stroke="rgb(0, 0, 0)"><path d="M123.013822,-127.9037801L109.0254363,-127.333634" /></g>
<g stroke="rgb(0, 0, 0)"><path d="M109.0254363,-127.333634L108.4552902,-141.3220197" /></g>
<g stroke="rgb(0, 0, 0)"><path d="M109.2310962,-122.2878236L123.2194819,-122.8579697" /></g>
<g stroke="rgb(0, 0, 0)"><path d="M123.2194819,-122.8579697L123.789628,-108.869584" /></g>
<g stroke="rgb(0, 0, 0)"><path d="M123.789628,-108.869584L109.8012423,-108.2994379" /></g>
<g stroke="rgb(0, 0, 0)"><path d="M109.8012423,-108.2994379L109.2310962,-122.2878236" /></g>
<g stroke="rgb(0, 0, 0)"><path d="M110.0069021,-103.2536274L123.9952878,-103.8237735" /></g>
<g stroke="rgb(0, 0, 0)"><path d="M123.9952878,-103.8237735L124.5654339,-89.8353878" /></g>
<g stroke="rgb(0, 0, 0)"><path d="M124.5654339,-89.8353878L110.5770482,-89.2652417" /></g>
<g stroke="rgb(0, 0, 0)"><path d="M110.5770482,-89.2652417L110.0069021,-103.2536274" /></g>
<g stroke="rgb(0, 0, 0)"><path d="M110.782708,-84.2194312L124.7710937,-84.7895773" /></g>
<g stroke="rgb(0, 0, 0)"><path d="M124.7710937,-84.7895773L125.3412398,-70.8011916" /></g>
<g stroke="rgb(0, 0, 0)"><path d="M125.3412398,-70.8011916L111.3528541,-70.2310455" /></g>
<g stroke="rgb(0, 0, 0)"><path d="M111.3528541,-70.2310455L110.782708,-84.2194312" /></g>
<g stroke="rgb(0, 0, 0)"><path d="M126.5271957,-180.4404455L140.5155814,-181.0105916" /></g>
<g stroke="rgb(0, 0, 0)"><path d="M140.5155814,-181.0105916L141.0857275,-167.0222059" /></g>
<g stroke="rgb(0, 0, 0)"><path d="M141.0857275,-167.0222059L127.0973418,-166.4520598" /></g>
<g stroke="rgb(0, 0, 0)"><path d="M127.0973418,-166.4520598L126.5271957,-180.4404455" /></g>
<g stroke="rgb(0, 0, 0)"><path d="M127.3030016,-161.4062493L141.2913873,-161.9763954" /></g>
<g stroke="rgb(0, 0, 0)"><path d="M141.2913873,-161.9763954L141.8615334,-147.9880097" /></g>
<g stroke="rgb(0, 0, 0)"><path d="M141.8615334,-147.9880097L127.8731477,-147.4178636" /></g>
<g stroke="rgb(0, 0, 0)"><path d="M127.8731477,-147.4178636L127.3030016,-161.4062493" /></g>
<g stroke="rgb(0, 0, 0)"><path d="M128.0788075,-142.3720531L142.0671932,-142.9421992" /></g>
<g stroke="rgb(0, 0, 0)"><path d="M142.0671932,-142.9421992L142.6373393,-128.9538135" /></g>
<g stroke="rgb(0, 0, 0)"><path d="M142.6373393,-128.9538135L128.6489536,-128.3836674" /></g>
<g stroke="rgb(0, 0, 0)"><path d="M128.6489536,-128.3836674L128.0788075,-142.3720531" /></g>
<g stroke="rgb(0, 0, 0)"><path d="M128.8546135,-123.337857L142.8429992,-123.9080031" /></g>
<g stroke="rgb(0, 0, 0)"><path d="M142.8429992,-123.9080031L143.4131453,-109.9196174" /></g>
<g stroke="rgb(0, 0, 0)"><path d="M143.4131453,-109.9196174L129.4247596,-109.3494713" /></g>
<g stroke="rgb(0, 0, 0)"><path d="M129.4247596,-109.3494713L128.8546135,-123.337857" /></g>
<g stroke="rgb(0, 0, 0)"><path d="M129.6304194,-104.3036608L143.6188051,-104.8738069" /></g>
<g stroke="rgb(0, 0, 0)"><path d="M143.6188051,-104.8738069L144.1889512,-90.8854212" /></g>
<g stroke="rgb(0, 0, 0)"><path d="M144.1889512,-90.8854212L130.2005655,-90.3152751" /></g>
<g stroke="rgb(0, 0, 0)"><path d="M130.2005655,-90.3152751L129.6304194,-104.3036608" /></g>
<g stroke="rgb(0, 0, 0)"><path d="M130.4062253,-85.2694646L144.394611,-85.8396107" /></g>
<g stroke="rgb(0, 0, 0)"><path d="M144.394611,-85.8396107L144.9647571,-71.851225" /></g>
<g stroke="rgb(0, 0, 0)"><path d="M144.9647571,-71.851225L130.9763714,-71.2810789" /></g>
<g stroke="rgb(0, 0, 0)"><path d="M130.9763714,-71.2810789L130.4062253,-85.2694646" /></g>
<g stroke="rgb(0, 0, 0)"><path d="M185.747097,-180.8882775L199.7319441,-180.2370858" /></g>
<g stroke="rgb(0, 0, 0)"><path d="M199.7319441,-180.2370858L199.0807524,-166.2522387" /></g>
<g stroke="rgb(0, 0, 0)"><path d="M199.0807524,-166.2522387L185.0959053,-166.9034304" /></g>
<g stroke="rgb(0, 0, 0)"><path d="M185.0959053,-166.9034304L185.747097,-180.8882775" /></g>
<g stroke="rgb(0, 0, 0)"><path d="M185.4603618,-161.8309879L199.4452089,-161.1797962" /></g>
<g stroke="rgb(0, 0, 0)"><path d="M199.4452089,-161.1797962L198.7940172,-147.1949491" /></g>
<g stroke="rgb(0, 0, 0)"><path d="M198.7940172,-147.1949491L184.8091701,-147.8461408" /></g>
<g stroke="rgb(0, 0, 0)"><path d="M184.8091701,-147.8461408L185.4603618,-161.8309879" /></g>
<g stroke="rgb(0, 0, 0)"><path d="M184.574276,-142.8016066L198.5591231,-142.1504149" /></g>
<g stroke="rgb(0, 0, 0)"><path d="M198.5591231,-142.1504149L197.9079314,-128.1655678" /></g>
<g stroke="rgb(0, 0, 0)"><path d="M197.9079314,-128.1655678L183.9230843,-128.8167595" /></g>
<g stroke="rgb(0, 0, 0)"><path d="M183.9230843,-128.8167595L184.574276,-142.8016066" /></g>
<g stroke="rgb(0, 0, 0)"><path d="M183.6881903,-123.7722253L197.6730374,-123.1210336" /></g>
<g stroke="rgb(0, 0, 0)"><path d="M197.6730374,-123.1210336L197.0218457,-109.1361865" /></g>
<g stroke="rgb(0, 0, 0)"><path d="M197.0218457,-109.1361865L183.0369986,-109.7873782" /></g>
<g stroke="rgb(0, 0, 0)"><path d="M183.0369986,-109.7873782L183.6881903,-123.7722253" /></g>
<g stroke="rgb(0, 0, 0)"><path d="M182.8021045,-104.7428439L196.7869516,-104.0916522" /></g>
<g stroke="rgb(0, 0, 0)"><path d="M196.7869516,-104.0916522L196.1357599,-90.1068051" /></g>
<g stroke="rgb(0, 0, 0)"><path d="M196.1357599,-90.1068051L182.1509128,-90.7579968" /></g>
<g stroke="rgb(0, 0, 0)"><path d="M182.1509128,-90.7579968L182.8021045,-104.7428439" /></g>
<g stroke="rgb(0, 0, 0)"><path d="M181.9160187,-85.7134626L195.9008658,-85.0622709" /></g>
<g stroke="rgb(0, 0, 0)"><path d="M195.9008658,-85.0622709L195.2496741,-71.0774238" /></g>
<g stroke="rgb(0, 0, 0)"><path d="M195.2496741,-71.0774238L181.264827,-71.7286155" /></g>
<g stroke="rgb(0, 0, 0)"><path d="M181.264827,-71.7286155L181.9160187,-85.7134626" /></g>
<g stroke="rgb(0, 0, 0)"><path d="M204.4781147,-160.6951727L218.4629618,-160.043981" /></g>
<g stroke="rgb(0, 0, 0)"><path d="M218.4629618,-160.043981L217.8117701,-146.0591339" /></g>
<g stroke="rgb(0, 0, 0)"><path d="M217.8117701,-146.0591339L203.826923,-146.7103256" /></g>
<g stroke="rgb(0, 0, 0)"><path d="M203.826923,-146.7103256L204.4781147,-160.6951727" /></g>
<g stroke="rgb(0, 0, 0)"><path d="M203.5920289,-141.6657914L217.576876,-141.0145997" /></g>
<g stroke="rgb(0, 0, 0)"><path d="M217.576876,-141.0145997L216.9256843,-127.0297526" /></g>
<g stroke="rgb(0, 0, 0)"><path d="M216.9256843,-127.0297526L202.9408372,-127.6809443" /></g>
<g stroke="rgb(0, 0, 0)"><path d="M202.9408372,-127.6809443L203.5920289,-141.6657914" /></g>
<g stroke="rgb(0, 0, 0)"><path d="M202.7059432,-122.6364101L216.6907903,-121.9852184" /></g>
<g stroke="rgb(0, 0, 0)"><path d="M216.6907903,-121.9852184L216.0395986,-108.0003713" /></g>
<g stroke="rgb(0, 0, 0)"><path d="M216.0395986,-108.0003713L202.0547515,-108.651563" /></g>
<g stroke="rgb(0, 0, 0)"><path d="M202.0547515,-108.651563L202.7059432,-122.6364101" /></g>
<g stroke="rgb(0, 0, 0)"><path d="M201.8198574,-103.6070288L215.8047045,-102.9558371" /></g>
<g stroke="rgb(0, 0, 0)"><path d="M215.8047045,-102.9558371L215.1535128,-88.97099" /></g>
<g stroke="rgb(0, 0, 0)"><path d="M215.1535128,-88.97099L201.1686657,-89.6221817" /></g>
<g stroke="rgb(0, 0, 0)"><path d="M201.1686657,-89.6221817L201.8198574,-103.6070288" /></g>
<g stroke="rgb(0, 0, 0)"><path d="M200.9337716,-84.5776474L214.9186187,-83.9264557" /></g>
<g stroke="rgb(0, 0, 0)"><path d="M214.9186187,-83.9264557L214.267427,-69.9416086" /></g>
<g stroke="rgb(0, 0, 0)"><path d="M214.267427,-69.9416086L200.2825799,-70.5928003" /></g>
<g stroke="rgb(0, 0, 0)"><path d="M200.2825799,-70.5928003L200.9337716,-84.5776474" /></g>
<g stroke="rgb(0, 0, 0)"><path d="M224.2203663,-177.7220838L238.2144483,-177.3150606" /></g>
<g stroke="rgb(0, 0, 0)"><path d="M238.2144483,-177.3150606L237.8074251,-163.3209786" /></g>
<g stroke="rgb(0, 0, 0)"><path d="M237.8074251,-163.3209786L223.8133431,-163.7280018" /></g>
<g stroke="rgb(0, 0, 0)"><path d="M223.8133431,-163.7280018L224.2203663,-177.7220838" /></g>
<g stroke="rgb(0, 0, 0)"><path d="M223.666524,-158.6801364L237.660606,-158.2731132" /></g>
<g stroke="rgb(0, 0, 0)"><path d="M237.660606,-158.2731132L237.2535828,-144.2790312" /></g>
<g stroke="rgb(0, 0, 0)"><path d="M237.2535828,-144.2790312L223.2595008,-144.6860544" /></g>
<g stroke="rgb(0, 0, 0)"><path d="M223.2595008,-144.6860544L223.666524,-158.6801364" /></g>
<g stroke="rgb(0, 0, 0)"><path d="M223.1126817,-139.6381891L237.1067637,-139.2311659" /></g>
<g stroke="rgb(0, 0, 0)"><path d="M237.1067637,-139.2311659L236.6997405,-125.2370839" /></g>
<g stroke="rgb(0, 0, 0)"><path d="M236.6997405,-125.2370839L222.7056585,-125.6441071" /></g>
<g stroke="rgb(0, 0, 0)"><path d="M222.7056585,-125.6441071L223.1126817,-139.6381891" /></g>
<g stroke="rgb(0, 0, 0)"><path d="M222.5588394,-120.5962417L236.5529214,-120.1892185" /></g>
<g stroke="rgb(0, 0, 0)"><path d="M236.5529214,-120.1892185L236.1458982,-106.1951365" /></g>
<g stroke="rgb(0, 0, 0)"><path d="M236.1458982,-106.1951365L222.1518162,-106.6021597" /></g>
<g stroke="rgb(0, 0, 0)"><path d="M222.1518162,-106.6021597L222.5588394,-120.5962417" /></g>
<g stroke="rgb(0, 0, 0)"><path d="M222.0049972,-101.5542944L235.9990792,-101.1472712" /></g>
<g stroke="rgb(0, 0, 0)"><path d="M235.9990792,-101.1472712L235.592056,-87.1531892" /></g>
<g stroke="rgb(0, 0, 0)"><path d="M235.592056,-87.1531892L221.597974,-87.5602124" /></g>
<g stroke="rgb(0, 0, 0)"><path d="M221.597974,-87.5602124L222.0049972,-101.5542944" /></g>
<g stroke="rgb(0, 0, 0)"><path d="M221.4511549,-82.512347L235.4452369,-82.1053238" /></g>
<g stroke="rgb(0, 0, 0)"><path d="M235.4452369,-82.1053238L235.0382137,-68.1112418" /></g>
<g stroke="rgb(0, 0, 0)"><path d="M235.0382137,-68.1112418L221.0441317,-68.518265" /></g>
<g stroke="rgb(0, 0, 0)"><path d="M221.0441317,-68.518265L221.4511549,-82.512347" /></g>
<g stroke="rgb(0, 0, 0)"><path d="M243.1667544,-178.0481587L257.1658086,-177.8854279" /></g>
<g stroke="rgb(0, 0, 0)"><path d="M257.1658086,-177.8854279L257.0030778,-163.8863737" /></g>
<g stroke="rgb(0, 0, 0)"><path d="M257.0030778,-163.8863737L243.0040236,-164.0491045" /></g>
<g stroke="rgb(0, 0, 0)"><path d="M243.0040236,-164.0491045L243.1667544,-178.0481587" /></g>
<g stroke="rgb(0, 0, 0)"><path d="M242.9453243,-158.9994456L256.9443785,-158.8367148" /></g>
<g stroke="rgb(0, 0, 0)"><path d="M256.9443785,-158.8367148L256.7816477,-144.8376606" /></g>
<g stroke="rgb(0, 0, 0)"><path d="M256.7816477,-144.8376606L242.7825935,-145.0003914" /></g>
<g stroke="rgb(0, 0, 0)"><path d="M242.7825935,-145.0003914L242.9453243,-158.9994456" /></g>
<g stroke="rgb(0, 0, 0)"><path d="M242.7238941,-139.9507326L256.7229483,-139.7880018" /></g>
<g stroke="rgb(0, 0, 0)"><path d="M256.7229483,-139.7880018L256.5602175,-125.7889476" /></g>
<g stroke="rgb(0, 0, 0)"><path d="M256.5602175,-125.7889476L242.5611633,-125.9516784" /></g>
<g stroke="rgb(0, 0, 0)"><path d="M242.5611633,-125.9516784L242.7238941,-139.9507326" /></g>
<g stroke="rgb(0, 0, 0)"><path d="M242.5024639,-120.9020195L256.5015181,-120.7392887" /></g>
<g stroke="rgb(0, 0, 0)"><path d="M256.5015181,-120.7392887L256.3387873,-106.7402345" /></g>
<g stroke="rgb(0, 0, 0)"><path d="M256.3387873,-106.7402345L242.3397331,-106.9029653" /></g>
<g stroke="rgb(0, 0, 0)"><path d="M242.3397331,-106.9029653L242.5024639,-120.9020195" /></g>
<g stroke="rgb(0, 0, 0)"><path d="M242.2810337,-101.8533065L256.2800879,-101.6905757" /></g>
<g stroke="rgb(0, 0, 0)"><path d="M256.2800879,-101.6905757L256.1173571,-87.6915215" /></g>
<g stroke="rgb(0, 0, 0)"><path d="M256.1173571,-87.6915215L242.1183029,-87.8542523" /></g>
<g stroke="rgb(0, 0, 0)"><path d="M242.1183029,-87.8542523L242.2810337,-101.8533065" /></g>
<g stroke="rgb(0, 0, 0)"><path d="M242.0596036,-82.8045935L256.0586578,-82.6418627" /></g>
<g stroke="rgb(0, 0, 0)"><path d="M256.0586578,-82.6418627L255.895927,-68.6428085" /></g>
<g stroke="rgb(0, 0, 0)"><path d="M255.895927,-68.6428085L241.8968728,-68.8055393" /></g>
<g stroke="rgb(0, 0, 0)"><path d="M241.8968728,-68.8055393L242.0596036,-82.8045935" /></g>
<g stroke="rgb(0, 0, 0)"><path d="M262.1161898,-179.7047764L276.1159519,-179.7863875" /></g>
<g stroke="rgb(0, 0, 0)"><path d="M276.1159519,-179.7863875L276.197563,-165.7866254" /></g>
<g stroke="rgb(0, 0, 0)"><path d="M276.197563,-165.7866254L262.1978009,-165.7050143" /></g>
<g stroke="rgb(0, 0, 0)"><path d="M262.1978009,-165.7050143L262.1161898,-179.7047764" /></g>
<g stroke="rgb(0, 0, 0)"><path d="M262.2272392,-160.6551001L276.2270013,-160.7367112" /></g>
<g stroke="rgb(0, 0, 0)"><path d="M276.2270013,-160.7367112L276.3086124,-146.7369491" /></g>
<g stroke="rgb(0, 0, 0)"><path d="M276.3086124,-146.7369491L262.3088503,-146.655338" /></g>
<g stroke="rgb(0, 0, 0)"><path d="M262.3088503,-146.655338L262.2272392,-160.6551001" /></g>
<g stroke="rgb(0, 0, 0)"><path d="M262.3382886,-141.6054237L276.3380507,-141.6870348" /></g>
<g stroke="rgb(0, 0, 0)"><path d="M276.3380507,-141.6870348L276.4196618,-127.6872727" /></g>
<g stroke="rgb(0, 0, 0)"><path d="M276.4196618,-127.6872727L262.4198997,-127.6056616" /></g>
<g stroke="rgb(0, 0, 0)"><path d="M262.4198997,-127.6056616L262.3382886,-141.6054237" /></g>
<g stroke="rgb(0, 0, 0)"><path d="M262.449338,-122.5557474L276.4491001,-122.6373585" /></g>
<g stroke="rgb(0, 0, 0)"><path d="M276.4491001,-122.6373585L276.5307112,-108.6375964" /></g>
<g stroke="rgb(0, 0, 0)"><path d="M276.5307112,-108.6375964L262.5309491,-108.5559853" /></g>
<g stroke="rgb(0, 0, 0)"><path d="M262.5309491,-108.5559853L262.449338,-122.5557474" /></g>
<g stroke="rgb(0, 0, 0)"><path d="M262.5603874,-103.5060711L276.5601495,-103.5876822" /></g>
<g stroke="rgb(0, 0, 0)"><path d="M276.5601495,-103.5876822L276.6417606,-89.5879201" /></g>
<g stroke="rgb(0, 0, 0)"><path d="M276.6417606,-89.5879201L262.6419985,-89.506309" /></g>
<g stroke="rgb(0, 0, 0)"><path d="M262.6419985,-89.506309L262.5603874,-103.5060711" /></g>
<g stroke="rgb(0, 0, 0)"><path d="M281.1658662,-179.8158258L295.1656283,-179.8974369" /></g>
<g stroke="rgb(0, 0, 0)"><path d="M295.1656283,-179.8974369L295.2472394,-165.8976748" /></g>
<g stroke="rgb(0, 0, 0)"><path d="M295.2472394,-165.8976748L281.2474773,-165.8160637" /></g>
<g stroke="rgb(0, 0, 0)"><path d="M281.2474773,-165.8160637L281.1658662,-179.8158258" /></g>
<g stroke="rgb(0, 0, 0)"><path d="M286.6393245,-160.7974094L300.6390866,-160.8790205" /></g>
<g stroke="rgb(0, 0, 0)"><path d="M300.6390866,-160.8790205L300.7206977,-146.8792584" /></g>
<g stroke="rgb(0, 0, 0)"><path d="M300.7206977,-146.8792584L286.7209356,-146.7976473" /></g>
<g stroke="rgb(0, 0, 0)"><path d="M286.7209356,-146.7976473L286.6393245,-160.7974094" /></g>
<g stroke="rgb(0, 0, 0)"><path d="M281.387965,-141.7164731L295.3877271,-141.7980842" /></g>
<g stroke="rgb(0, 0, 0)"><path d="M295.3877271,-141.7980842L295.4693382,-127.7983221" /></g>
<g stroke="rgb(0, 0, 0)"><path d="M295.4693382,-127.7983221L281.4695761,-127.716711" /></g>
<g stroke="rgb(0, 0, 0)"><path d="M281.4695761,-127.716711L281.387965,-141.7164731" /></g>
<g stroke="rgb(0, 0, 0)"><path d="M281.4990143,-122.6667968L295.4987764,-122.7484079" /></g>
<g stroke="rgb(0, 0, 0)"><path d="M295.4987764,-122.7484079L295.5803875,-108.7486458" /></g>
<g stroke="rgb(0, 0, 0)"><path d="M295.5803875,-108.7486458L281.5806254,-108.6670347" /></g>
<g stroke="rgb(0, 0, 0)"><path d="M281.5806254,-108.6670347L281.4990143,-122.6667968" /></g>
<g stroke="rgb(0, 0, 0)"><path d="M281.6100637,-103.6171205L295.6098258,-103.6987316" /></g>
<g stroke="rgb(0, 0, 0)"><path d="M295.6098258,-103.6987316L295.6914369,-89.6989695" /></g>
<g stroke="rgb(0, 0, 0)"><path d="M295.6914369,-89.6989695L281.6916748,-89.6173584" /></g>
<g stroke="rgb(0, 0, 0)"><path d="M281.6916748,-89.6173584L281.6100637,-103.6171205" /></g>
<g stroke="rgb(0, 0, 0)"><path d="M281.7211131,-84.5674441L295.7208752,-84.6490552" /></g>
<g stroke="rgb(0, 0, 0)"><path d="M295.7208752,-84.6490552L295.8024863,-70.6492931" /></g>
<g stroke="rgb(0, 0, 0)"><path d="M295.8024863,-70.6492931L281.8027242,-70.567682" /></g>
<g stroke="rgb(0, 0, 0)"><path d="M281.8027242,-70.567682L281.7211131,-84.5674441" /></g>
<g stroke="rgb(0, 0, 0)"><path d="M305.8000502,-141.8587826L319.7998123,-141.9403937" /></g>
<g stroke="rgb(0, 0, 0)"><path d="M319.7998123,-141.9403937L319.8814234,-127.9406316" /></g>
<g stroke="rgb(0, 0, 0)"><path d="M319.8814234,-127.9406316L305.8816613,-127.8590205" /></g>
<g stroke="rgb(0, 0, 0)"><path d="M305.8816613,-127.8590205L305.8000502,-141.8587826" /></g>
<g stroke="rgb(0, 0, 0)"><path d="M300.5486907,-122.7778463L314.5484528,-122.8594574" /></g>
<g stroke="rgb(0, 0, 0)"><path d="M314.5484528,-122.8594574L314.6300639,-108.8596953" /></g>
<g stroke="rgb(0, 0, 0)"><path d="M314.6300639,-108.8596953L300.6303018,-108.7780842" /></g>
<g stroke="rgb(0, 0, 0)"><path d="M300.6303018,-108.7780842L300.5486907,-122.7778463" /></g>
<g stroke="rgb(0, 0, 0)"><path d="M300.6597401,-103.72817L314.6595022,-103.8097811" /></g>
<g stroke="rgb(0, 0, 0)"><path d="M314.6595022,-103.8097811L314.7411133,-89.810019" /></g>
<g stroke="rgb(0, 0, 0)"><path d="M314.7411133,-89.810019L300.7413512,-89.7284079" /></g>
<g stroke="rgb(0, 0, 0)"><path d="M300.7413512,-89.7284079L300.6597401,-103.72817" /></g>
<g stroke="rgb(0, 0, 0)"><path d="M300.7707895,-84.6784936L314.7705516,-84.7601047" /></g>
<g stroke="rgb(0, 0, 0)"><path d="M314.7705516,-84.7601047L314.8521627,-70.7603426" /></g>
<g stroke="rgb(0, 0, 0)"><path d="M314.8521627,-70.7603426L300.8524006,-70.6787315" /></g>
<g stroke="rgb(0, 0, 0)"><path d="M300.8524006,-70.6787315L300.7707895,-84.6784936" /></g>
<g stroke="rgb(0, 0, 0)"><path d="M319.598367,-122.8888958L333.5981291,-122.9705069" /></g>
<g stroke="rgb(0, 0, 0)"><path d="M333.5981291,-122.9705069L333.6797402,-108.9707448" /></g>
<g stroke="rgb(0, 0, 0)"><path d="M333.6797402,-108.9707448L319.6799781,-108.8891337" /></g>
<g stroke="rgb(0, 0, 0)"><path d="M319.6799781,-108.8891337L319.598367,-122.8888958" /></g>
<g stroke="rgb(0, 0, 0)"><path d="M325.0718253,-103.8704794L339.0715874,-103.9520905" /></g>
<g stroke="rgb(0, 0, 0)"><path d="M339.0715874,-103.9520905L339.1531985,-89.9523284" /></g>
<g stroke="rgb(0, 0, 0)"><path d="M339.1531985,-89.9523284L325.1534364,-89.8707173" /></g>
<g stroke="rgb(0, 0, 0)"><path d="M325.1534364,-89.8707173L325.0718253,-103.8704794" /></g>
<g stroke="rgb(0, 0, 0)"><path d="M319.8204658,-84.7895431L333.8202279,-84.8711542" /></g>
<g stroke="rgb(0, 0, 0)"><path d="M333.8202279,-84.8711542L333.901839,-70.8713921" /></g>
<g stroke="rgb(0, 0, 0)"><path d="M333.901839,-70.8713921L319.9020769,-70.789781" /></g>
<g stroke="rgb(0, 0, 0)"><path d="M319.9020769,-70.789781L319.8204658,-84.7895431" /></g>
<g stroke="rgb(0, 0, 0)"><path d="M338.8701422,-84.9005924L352.8699043,-84.9822035" /></g>
<g stroke="rgb(0, 0, 0)"><path d="M352.8699043,-84.9822035L352.9515154,-70.9824414" /></g>
<g stroke="rgb(0, 0, 0)"><path d="M352.9515154,-70.9824414L338.9517533,-70.9008303" /></g>
<g stroke="rgb(0, 0, 0)"><path d="M338.9517533,-70.9008303L338.8701422,-84.9005924" /></g>
<g stroke="rgb(0, 0, 0)"><path d="M339.111848,-192.9547721L348.5401662,-182.6055299" /></g>
<g stroke="rgb(0, 0, 0)"><path d="M348.5401662,-182.6055299L338.190924,-173.1772117" /></g>
<g stroke="rgb(0, 0, 0)"><path d="M338.190924,-173.1772117L328.7626058,-183.5264539" /></g>
<g stroke="rgb(0, 0, 0)"><path d="M328.7626058,-183.5264539L339.111848,-192.9547721" /></g>
<g stroke="rgb(0, 0, 0)"><path d="M325.0294862,-180.1255247L334.4578044,-169.7762825" /></g>
<g stroke="rgb(0, 0, 0)"><path d="M334.4578044,-169.7762825L324.1085622,-160.3479643" /></g>
<g stroke="rgb(0, 0, 0)"><path d="M324.1085622,-160.3479643L314.680244,-170.6972065" /></g>
<g stroke="rgb(0, 0, 0)"><path d="M314.680244,-170.6972065L325.0294862,-180.1255247" /></g>
<g stroke="rgb(0, 0, 0)"><path d="M351.9410953,-178.8724103L361.3694135,-168.5231681" /></g>
<g stroke="rgb(0, 0, 0)"><path d="M361.3694135,-168.5231681L351.0201713,-159.0948499" /></g>
<g stroke="rgb(0, 0, 0)"><path d="M351.0201713,-159.0948499L341.5918531,-169.4440921" /></g>
<g stroke="rgb(0, 0, 0)"><path d="M341.5918531,-169.4440921L351.9410953,-178.8724103" /></g>
<g stroke="rgb(0, 0, 0)"><path d="M337.8587335,-166.0431629L347.2870517,-155.6939207" /></g>
<g stroke="rgb(0, 0, 0)"><path d="M347.2870517,-155.6939207L336.9378095,-146.2656025" /></g>
<g stroke="rgb(0, 0, 0)"><path d="M336.9378095,-146.2656025L327.5094913,-156.6148447" /></g>
<g stroke="rgb(0, 0, 0)"><path d="M327.5094913,-156.6148447L337.8587335,-166.0431629" /></g>
<g stroke="rgb(0, 0, 0)"><path d="M367.9776544,-161.269458L377.4059726,-150.9202158" /></g>
<g stroke="rgb(0, 0, 0)"><path d="M377.4059726,-150.9202158L367.0567304,-141.4918976" /></g>
<g stroke="rgb(0, 0, 0)"><path d="M367.0567304,-141.4918976L357.6284122,-151.8411398" /></g>
<g stroke="rgb(0, 0, 0)"><path d="M357.6284122,-151.8411398L367.9776544,-161.269458" /></g>
<g stroke="rgb(0, 0, 0)"><path d="M353.8952926,-148.4402107L363.3236108,-138.0909685" /></g>
<g stroke="rgb(0, 0, 0)"><path d="M363.3236108,-138.0909685L352.9743686,-128.6626503" /></g>
<g stroke="rgb(0, 0, 0)"><path d="M352.9743686,-128.6626503L343.5460504,-139.0118925" /></g>
<g stroke="rgb(0, 0, 0)"><path d="M343.5460504,-139.0118925L353.8952926,-148.4402107" /></g>
<g stroke="rgb(0, 0, 0)"><path d="M380.8069017,-147.1870962L390.2352199,-136.837854" /></g>
<g stroke="rgb(0, 0, 0)"><path d="M390.2352199,-136.837854L379.8859777,-127.4095358" /></g>
<g stroke="rgb(0, 0, 0)"><path d="M379.8859777,-127.4095358L370.4576595,-137.758778" /></g>
<g stroke="rgb(0, 0, 0)"><path d="M370.4576595,-137.758778L380.8069017,-147.1870962" /></g>
<g stroke="rgb(0, 0, 0)"><path d="M366.7245399,-134.3578489L376.1528581,-124.0086067" /></g>
<g stroke="rgb(0, 0, 0)"><path d="M376.1528581,-124.0086067L365.8036159,-114.5802885" /></g>
<g stroke="rgb(0, 0, 0)"><path d="M365.8036159,-114.5802885L356.3752977,-124.9295307" /></g>
<g stroke="rgb(0, 0, 0)"><path d="M356.3752977,-124.9295307L366.7245399,-134.3578489" /></g>
<g stroke="rgb(0, 0, 0)"><path d="M367.3336072,-104.1168429L381.3333693,-104.198454" /></g>
<g stroke="rgb(0, 0, 0)"><path d="M381.3333693,-104.198454L381.4149804,-90.1986919" /></g>
<g stroke="rgb(0, 0, 0)"><path d="M381.4149804,-90.1986919L367.4152183,-90.1170808" /></g>
<g stroke="rgb(0, 0, 0)"><path d="M367.4152183,-90.1170808L367.3336072,-104.1168429" /></g>
<g stroke="rgb(0, 0, 0)"><path d="M367.4446566,-85.0671666L381.4444187,-85.1487777" /></g>
<g stroke="rgb(0, 0, 0)"><path d="M381.4444187,-85.1487777L381.5260298,-71.1490156" /></g>
<g stroke="rgb(0, 0, 0)"><path d="M381.5260298,-71.1490156L367.5262677,-71.0674045" /></g>
<g stroke="rgb(0, 0, 0)"><path d="M367.5262677,-71.0674045L367.4446566,-85.0671666" /></g>
<g stroke="rgb(0, 0, 0)"><path d="M386.3832836,-104.2278923L400.3830457,-104.3095034" /></g>
<g stroke="rgb(0, 0, 0)"><path d="M400.3830457,-104.3095034L400.4646568,-90.3097413" /></g>
<g stroke="rgb(0, 0, 0)"><path d="M400.4646568,-90.3097413L386.4648947,-90.2281302" /></g>
<g stroke="rgb(0, 0, 0)"><path d="M386.4648947,-90.2281302L386.3832836,-104.2278923" /></g>
<g stroke="rgb(0, 0, 0)"><path d="M386.494333,-85.1782159L400.4940951,-85.259827" /></g>
<g stroke="rgb(0, 0, 0)"><path d="M400.4940951,-85.259827L400.5757062,-71.2600649" /></g>
<g stroke="rgb(0, 0, 0)"><path d="M400.5757062,-71.2600649L386.5759441,-71.1784538" /></g>
<g stroke="rgb(0, 0, 0)"><path d="M386.5759441,-71.1784538L386.494333,-85.1782159" /></g>
  </g>
</svg>