<?xml version="1.0"?>
<svg
  xmlns="http://www.w3.org/2000/svg"
  xmlns:xlink="http://www.w3.org/1999/xlink" version="1.1"
  preserveAspectRatio="xMinYMin meet"
  viewBox="24.2209469 69.5572565 375.8268169 125.85455329999999"
  width="100%" height="100%"
>
  <g stroke="#000000" stroke-width="0.1%" fill="none" transform="matrix(1,0,0,-1,0,0)">
    <g stroke="rgb(0, 0, 0)"><path d="M29.7938462,-181.8717315L43.7937129,-181.8106452" /></g>
<g stroke="rgb(0, 0, 0)"><path d="M43.7937129,-181.8106452L43.7326266,-167.8107785" /></g>
<g stroke="rgb(0, 0, 0)"><path d="M43.7326266,-167.8107785L29.7327599,-167.8718648" /></g>
<g stroke="rgb(0, 0, 0)"><path d="M29.7327599,-167.8718648L29.7938462,-181.8717315" /></g>
<g stroke="rgb(0, 0, 0)"><path d="M24.4482753,-162.8448747L38.448142,-162.7837884" /></g>
<g stroke="rgb(0, 0, 0)"><path d="M38.448142,-162.7837884L38.3870557,-148.7839217" /></g>
<g stroke="rgb(0, 0, 0)"><path d="M38.3870557,-148.7839217L24.387189,-148.845008" /></g>
<g stroke="rgb(0, 0, 0)"><path d="M24.387189,-148.845008L24.4482753,-162.8448747" /></g>
<g stroke="rgb(0, 0, 0)"><path d="M24.3651542,-143.7950561L38.3650209,-143.7339698" /></g>
<g stroke="rgb(0, 0, 0)"><path d="M38.3650209,-143.7339698L38.3039346,-129.7341031" /></g>
<g stroke="rgb(0, 0, 0)"><path d="M38.3039346,-129.7341031L24.3040679,-129.7951894" /></g>
<g stroke="rgb(0, 0, 0)"><path d="M24.3040679,-129.7951894L24.3651542,-143.7950561" /></g>
<g stroke="rgb(0, 0, 0)"><path d="M24.2820332,-124.7452374L38.2818999,-124.6841511" /></g>
<g stroke="rgb(0, 0, 0)"><path d="M38.2818999,-124.6841511L38.2208136,-110.6842844" /></g>
<g stroke="rgb(0, 0, 0)"><path d="M38.2208136,-110.6842844L24.2209469,-110.7453707" /></g>
<g stroke="rgb(0, 0, 0)"><path d="M24.2209469,-110.7453707L24.2820332,-124.7452374" /></g>
<g stroke="rgb(0, 0, 0)"><path d="M29.4613621,-105.6724569L43.4612288,-105.6113706" /></g>
<g stroke="rgb(0, 0, 0)"><path d="M43.4612288,-105.6113706L43.4001425,-91.6115039" /></g>
<g stroke="rgb(0, 0, 0)"><path d="M43.4001425,-91.6115039L29.4002758,-91.6725902" /></g>
<g stroke="rgb(0, 0, 0)"><path d="M29.4002758,-91.6725902L29.4613621,-105.6724569" /></g>
<g stroke="rgb(0, 0, 0)"><path d="M29.378241,-86.6226382L43.3781077,-86.5615519" /></g>
<g stroke="rgb(0, 0, 0)"><path d="M43.3781077,-86.5615519L43.3170214,-72.5616852" /></g>
<g stroke="rgb(0, 0, 0)"><path d="M43.3170214,-72.5616852L29.3171547,-72.6227715" /></g>
<g stroke="rgb(0, 0, 0)"><path d="M29.3171547,-72.6227715L29.378241,-86.6226382" /></g>
<g stroke="rgb(0, 0, 0)"><path d="M48.8436649,-181.7886105L62.8435316,-181.7275242" /></g>
<g stroke="rgb(0, 0, 0)"><path d="M62.8435316,-181.7275242L62.7824453,-167.7276575" /></g>
<g stroke="rgb(0, 0, 0)"><path d="M62.7824453,-167.7276575L48.7825786,-167.7887438" /></g>
<g stroke="rgb(0, 0, 0)"><path d="M48.7825786,-167.7887438L48.8436649,-181.7886105" /></g>
<g stroke="rgb(0, 0, 0)"><path d="M48.7605438,-162.7387918L62.7604105,-162.6777055" /></g>
<g stroke="rgb(0, 0, 0)"><path d="M62.7604105,-162.6777055L62.6993242,-148.6778388" /></g>
<g stroke="rgb(0, 0, 0)"><path d="M62.6993242,-148.6778388L48.6994575,-148.7389251" /></g>
<g stroke="rgb(0, 0, 0)"><path d="M48.6994575,-148.7389251L48.7605438,-162.7387918" /></g>
<g stroke="rgb(0, 0, 0)"><path d="M48.6774228,-143.6889731L62.6772895,-143.6278868" /></g>
<g stroke="rgb(0, 0, 0)"><path d="M62.6772895,-143.6278868L62.6162032,-129.6280201" /></g>
<g stroke="rgb(0, 0, 0)"><path d="M62.6162032,-129.6280201L48.6163365,-129.6891064" /></g>
<g stroke="rgb(0, 0, 0)"><path d="M48.6163365,-129.6891064L48.6774228,-143.6889731" /></g>
<g stroke="rgb(0, 0, 0)"><path d="M48.5943018,-124.6391545L62.5941685,-124.5780682" /></g>
<g stroke="rgb(0, 0, 0)"><path d="M62.5941685,-124.5780682L62.5330822,-110.5782015" /></g>
<g stroke="rgb(0, 0, 0)"><path d="M62.5330822,-110.5782015L48.5332155,-110.6392878" /></g>
<g stroke="rgb(0, 0, 0)"><path d="M48.5332155,-110.6392878L48.5943018,-124.6391545" /></g>
<g stroke="rgb(0, 0, 0)"><path d="M48.5111807,-105.5893358L62.5110474,-105.5282495" /></g>
<g stroke="rgb(0, 0, 0)"><path d="M62.5110474,-105.5282495L62.4499611,-91.5283828" /></g>
<g stroke="rgb(0, 0, 0)"><path d="M62.4499611,-91.5283828L48.4500944,-91.5894691" /></g>
<g stroke="rgb(0, 0, 0)"><path d="M48.4500944,-91.5894691L48.5111807,-105.5893358" /></g>
<g stroke="rgb(0, 0, 0)"><path d="M67.9631025,-179.585423L81.9619031,-179.7686774" /></g>
<g stroke="rgb(0, 0, 0)"><path d="M81.9619031,-179.7686774L82.1451575,-165.7698768" /></g>
<g stroke="rgb(0, 0, 0)"><path d="M82.1451575,-165.7698768L68.1463569,-165.5866224" /></g>
<g stroke="rgb(0, 0, 0)"><path d="M68.1463569,-165.5866224L67.9631025,-179.585423" /></g>
<g stroke="rgb(0, 0, 0)"><path d="M68.2124592,-160.537055L82.2112598,-160.7203094" /></g>
<g stroke="rgb(0, 0, 0)"><path d="M82.2112598,-160.7203094L82.3945142,-146.7215088" /></g>
<g stroke="rgb(0, 0, 0)"><path d="M82.3945142,-146.7215088L68.3957136,-146.5382544" /></g>
<g stroke="rgb(0, 0, 0)"><path d="M68.3957136,-146.5382544L68.2124592,-160.537055" /></g>
<g stroke="rgb(0, 0, 0)"><path d="M68.6617988,-141.491305L82.6605994,-141.6745594" /></g>
<g stroke="rgb(0, 0, 0)"><path d="M82.6605994,-141.6745594L82.8438538,-127.6757588" /></g>
<g stroke="rgb(0, 0, 0)"><path d="M82.8438538,-127.6757588L68.8450532,-127.4925044" /></g>
<g stroke="rgb(0, 0, 0)"><path d="M68.8450532,-127.4925044L68.6617988,-141.491305" /></g>
<g stroke="rgb(0, 0, 0)"><path d="M69.1111384,-122.445555L83.109939,-122.6288094" /></g>
<g stroke="rgb(0, 0, 0)"><path d="M83.109939,-122.6288094L83.2931934,-108.6300088" /></g>
<g stroke="rgb(0, 0, 0)"><path d="M83.2931934,-108.6300088L69.2943928,-108.4467544" /></g>
<g stroke="rgb(0, 0, 0)"><path d="M69.2943928,-108.4467544L69.1111384,-122.445555" /></g>
<g stroke="rgb(0, 0, 0)"><path d="M69.3604951,-103.3971871L83.3592957,-103.5804415" /></g>
<g stroke="rgb(0, 0, 0)"><path d="M83.3592957,-103.5804415L83.5425501,-89.5816409" /></g>
<g stroke="rgb(0, 0, 0)"><path d="M83.5425501,-89.5816409L69.5437495,-89.3983865" /></g>
<g stroke="rgb(0, 0, 0)"><path d="M69.5437495,-89.3983865L69.3604951,-103.3971871" /></g>
<g stroke="rgb(0, 0, 0)"><path d="M69.8098347,-84.3514371L83.8086353,-84.5346915" /></g>
<g stroke="rgb(0, 0, 0)"><path d="M83.8086353,-84.5346915L83.9918897,-70.5358909" /></g>
<g stroke="rgb(0, 0, 0)"><path d="M83.9918897,-70.5358909L69.9930891,-70.3526365" /></g>
<g stroke="rgb(0, 0, 0)"><path d="M69.9930891,-70.3526365L69.8098347,-84.3514371" /></g>
<g stroke="rgb(0, 0, 0)"><path d="M87.1049134,-178.7196553L101.0983836,-179.1471945" /></g>
<g stroke="rgb(0, 0, 0)"><path d="M101.0983836,-179.1471945L101.5259228,-165.1537243" /></g>
<g stroke="rgb(0, 0, 0)"><path d="M101.5259228,-165.1537243L87.5324526,-164.7261851" /></g>
<g stroke="rgb(0, 0, 0)"><path d="M87.5324526,-164.7261851L87.1049134,-178.7196553" /></g>
<g stroke="rgb(0, 0, 0)"><path d="M87.686672,-159.6785403L101.6801422,-160.1060795" /></g>
<g stroke="rgb(0, 0, 0)"><path d="M101.6801422,-160.1060795L102.1076814,-146.1126093" /></g>
<g stroke="rgb(0, 0, 0)"><path d="M102.1076814,-146.1126093L88.1142112,-145.6850701" /></g>
<g stroke="rgb(0, 0, 0)"><path d="M88.1142112,-145.6850701L87.686672,-159.6785403" /></g>
<g stroke="rgb(0, 0, 0)"><path d="M88.6682441,-140.6496408L102.6617143,-141.07718" /></g>
<g stroke="rgb(0, 0, 0)"><path d="M102.6617143,-141.07718L103.0892535,-127.0837098" /></g>
<g stroke="rgb(0, 0, 0)"><path d="M103.0892535,-127.0837098L89.0957833,-126.6561706" /></g>
<g stroke="rgb(0, 0, 0)"><path d="M89.0957833,-126.6561706L88.6682441,-140.6496408" /></g>
<g stroke="rgb(0, 0, 0)"><path d="M89.6498162,-121.6207412L103.6432864,-122.0482804" /></g>
<g stroke="rgb(0, 0, 0)"><path d="M103.6432864,-122.0482804L104.0708256,-108.0548102" /></g>
<g stroke="rgb(0, 0, 0)"><path d="M104.0708256,-108.0548102L90.0773554,-107.627271" /></g>
<g stroke="rgb(0, 0, 0)"><path d="M90.0773554,-107.627271L89.6498162,-121.6207412" /></g>
<g stroke="rgb(0, 0, 0)"><path d="M90.2315748,-102.5796263L104.225045,-103.0071655" /></g>
<g stroke="rgb(0, 0, 0)"><path d="M104.225045,-103.0071655L104.6525842,-89.0136953" /></g>
<g stroke="rgb(0, 0, 0)"><path d="M104.6525842,-89.0136953L90.659114,-88.5861561" /></g>
<g stroke="rgb(0, 0, 0)"><path d="M90.659114,-88.5861561L90.2315748,-102.5796263" /></g>
<g stroke="rgb(0, 0, 0)"><path d="M91.2131469,-83.5507267L105.2066171,-83.9782659" /></g>
<g stroke="rgb(0, 0, 0)"><path d="M105.2066171,-83.9782659L105.6341563,-69.9847957" /></g>
<g stroke="rgb(0, 0, 0)"><path d="M105.6341563,-69.9847957L91.6406861,-69.5572565" /></g>
<g stroke="rgb(0, 0, 0)"><path d="M91.6406861,-69.5572565L91.2131469,-83.5507267" /></g>
<g stroke="rgb(0, 0, 0)"><path d="M106.9119182,-161.152988L120.8957956,-161.8246818" /></g>
<g stroke="rgb(0, 0, 0)"><path d="M120.8957956,-161.8246818L121.5674894,-147.8408044" /></g>
<g stroke="rgb(0, 0, 0)"><path d="M121.5674894,-147.8408044L107.583612,-147.1691106" /></g>
<g stroke="rgb(0, 0, 0)"><path d="M107.583612,-147.1691106L106.9119182,-161.152988" /></g>
<g stroke="rgb(0, 0, 0)"><path d="M108.0256713,-142.1345219L122.0095487,-142.8062157" /></g>
<g stroke="rgb(0, 0, 0)"><path d="M122.0095487,-142.8062157L122.6812425,-128.8223383" /></g>
<g stroke="rgb(0, 0, 0)"><path d="M122.6812425,-128.8223383L108.6973651,-128.1506445" /></g>
<g stroke="rgb(0, 0, 0)"><path d="M108.6973651,-128.1506445L108.0256713,-142.1345219" /></g>
<g stroke="rgb(0, 0, 0)"><path d="M109.1394243,-123.1160559L123.1233017,-123.7877497" /></g>
<g stroke="rgb(0, 0, 0)"><path d="M123.1233017,-123.7877497L123.7949955,-109.8038723" /></g>
<g stroke="rgb(0, 0, 0)"><path d="M123.7949955,-109.8038723L109.8111181,-109.1321785" /></g>
<g stroke="rgb(0, 0, 0)"><path d="M109.8111181,-109.1321785L109.1394243,-123.1160559" /></g>
<g stroke="rgb(0, 0, 0)"><path d="M110.0534077,-104.0879941L124.0372851,-104.7596879" /></g>
<g stroke="rgb(0, 0, 0)"><path d="M124.0372851,-104.7596879L124.7089789,-90.7758105" /></g>
<g stroke="rgb(0, 0, 0)"><path d="M124.7089789,-90.7758105L110.7251015,-90.1041167" /></g>
<g stroke="rgb(0, 0, 0)"><path d="M110.7251015,-90.1041167L110.0534077,-104.0879941" /></g>
<g stroke="rgb(0, 0, 0)"><path d="M111.1671608,-85.069528L125.1510382,-85.7412218" /></g>
<g stroke="rgb(0, 0, 0)"><path d="M125.1510382,-85.7412218L125.822732,-71.7573444" /></g>
<g stroke="rgb(0, 0, 0)"><path d="M125.822732,-71.7573444L111.8388546,-71.0856506" /></g>
<g stroke="rgb(0, 0, 0)"><path d="M111.8388546,-71.0856506L111.1671608,-85.069528" /></g>
<g stroke="rgb(0, 0, 0)"><path d="M125.2137718,-181.3543409L139.1976492,-182.0260347" /></g>
<g stroke="rgb(0, 0, 0)"><path d="M139.1976492,-182.0260347L139.869343,-168.0421573" /></g>
<g stroke="rgb(0, 0, 0)"><path d="M139.869343,-168.0421573L125.8854656,-167.3704635" /></g>
<g stroke="rgb(0, 0, 0)"><path d="M125.8854656,-167.3704635L125.2137718,-181.3543409" /></g>
<g stroke="rgb(0, 0, 0)"><path d="M126.1277552,-162.3262792L140.1116326,-162.997973" /></g>
<g stroke="rgb(0, 0, 0)"><path d="M140.1116326,-162.997973L140.7833264,-149.0140956" /></g>
<g stroke="rgb(0, 0, 0)"><path d="M140.7833264,-149.0140956L126.799449,-148.3424018" /></g>
<g stroke="rgb(0, 0, 0)"><path d="M126.799449,-148.3424018L126.1277552,-162.3262792" /></g>
<g stroke="rgb(0, 0, 0)"><path d="M127.0417386,-143.2982174L141.025616,-143.9699112" /></g>
<g stroke="rgb(0, 0, 0)"><path d="M141.025616,-143.9699112L141.6973098,-129.9860338" /></g>
<g stroke="rgb(0, 0, 0)"><path d="M141.6973098,-129.9860338L127.7134324,-129.31434" /></g>
<g stroke="rgb(0, 0, 0)"><path d="M127.7134324,-129.31434L127.0417386,-143.2982174" /></g>
<g stroke="rgb(0, 0, 0)"><path d="M127.9557219,-124.2701557L141.9395993,-124.9418495" /></g>
<g stroke="rgb(0, 0, 0)"><path d="M141.9395993,-124.9418495L142.6112931,-110.9579721" /></g>
<g stroke="rgb(0, 0, 0)"><path d="M142.6112931,-110.9579721L128.6274157,-110.2862783" /></g>
<g stroke="rgb(0, 0, 0)"><path d="M128.6274157,-110.2862783L127.9557219,-124.2701557" /></g>
<g stroke="rgb(0, 0, 0)"><path d="M128.8697053,-105.242094L142.8535827,-105.9137878" /></g>
<g stroke="rgb(0, 0, 0)"><path d="M142.8535827,-105.9137878L143.5252765,-91.9299104" /></g>
<g stroke="rgb(0, 0, 0)"><path d="M143.5252765,-91.9299104L129.5413991,-91.2582166" /></g>
<g stroke="rgb(0, 0, 0)"><path d="M129.5413991,-91.2582166L128.8697053,-105.242094" /></g>
<g stroke="rgb(0, 0, 0)"><path d="M129.7836887,-86.2140323L143.7675661,-86.8857261" /></g>
<g stroke="rgb(0, 0, 0)"><path d="M143.7675661,-86.8857261L144.4392599,-72.9018487" /></g>
<g stroke="rgb(0, 0, 0)"><path d="M144.4392599,-72.9018487L130.4553825,-72.2301549" /></g>
<g stroke="rgb(0, 0, 0)"><path d="M130.4553825,-72.2301549L129.7836887,-86.2140323" /></g>
<g stroke="rgb(0, 0, 0)"><path d="M184.4288607,-182.2321276L198.4180672,-181.6824901" /></g>
<g stroke="rgb(0, 0, 0)"><path d="M198.4180672,-181.6824901L197.8684297,-167.6932836" /></g>
<g stroke="rgb(0, 0, 0)"><path d="M197.8684297,-167.6932836L183.8792232,-168.2429211" /></g>
<g stroke="rgb(0, 0, 0)"><path d="M183.8792232,-168.2429211L184.4288607,-182.2321276" /></g>
<g stroke="rgb(0, 0, 0)"><path d="M184.2804986,-163.1732585L198.2697051,-162.623621" /></g>
<g stroke="rgb(0, 0, 0)"><path d="M198.2697051,-162.623621L197.7200676,-148.6344145" /></g>
<g stroke="rgb(0, 0, 0)"><path d="M197.7200676,-148.6344145L183.7308611,-149.184052" /></g>
<g stroke="rgb(0, 0, 0)"><path d="M183.7308611,-149.184052L184.2804986,-163.1732585" /></g>
<g stroke="rgb(0, 0, 0)"><path d="M183.5325992,-144.1379453L197.5218057,-143.5883078" /></g>
<g stroke="rgb(0, 0, 0)"><path d="M197.5218057,-143.5883078L196.9721682,-129.5991013" /></g>
<g stroke="rgb(0, 0, 0)"><path d="M196.9721682,-129.5991013L182.9829617,-130.1487388" /></g>
<g stroke="rgb(0, 0, 0)"><path d="M182.9829617,-130.1487388L183.5325992,-144.1379453" /></g>
<g stroke="rgb(0, 0, 0)"><path d="M182.7846997,-125.1026321L196.7739062,-124.5529946" /></g>
<g stroke="rgb(0, 0, 0)"><path d="M196.7739062,-124.5529946L196.2242687,-110.5637881" /></g>
<g stroke="rgb(0, 0, 0)"><path d="M196.2242687,-110.5637881L182.2350622,-111.1134256" /></g>
<g stroke="rgb(0, 0, 0)"><path d="M182.2350622,-111.1134256L182.7846997,-125.1026321" /></g>
<g stroke="rgb(0, 0, 0)"><path d="M182.0368002,-106.0673189L196.0260067,-105.5176814" /></g>
<g stroke="rgb(0, 0, 0)"><path d="M196.0260067,-105.5176814L195.4763692,-91.5284749" /></g>
<g stroke="rgb(0, 0, 0)"><path d="M195.4763692,-91.5284749L181.4871627,-92.0781124" /></g>
<g stroke="rgb(0, 0, 0)"><path d="M181.4871627,-92.0781124L182.0368002,-106.0673189" /></g>
<g stroke="rgb(0, 0, 0)"><path d="M181.2889007,-87.0320057L195.2781072,-86.4823682" /></g>
<g stroke="rgb(0, 0, 0)"><path d="M195.2781072,-86.4823682L194.7284697,-72.4931617" /></g>
<g stroke="rgb(0, 0, 0)"><path d="M194.7284697,-72.4931617L180.7392632,-73.0427992" /></g>
<g stroke="rgb(0, 0, 0)"><path d="M180.7392632,-73.0427992L181.2889007,-87.0320057" /></g>
<g stroke="rgb(0, 0, 0)"><path d="M203.3059968,-162.1755518L217.2952033,-161.6259143" /></g>
<g stroke="rgb(0, 0, 0)"><path d="M217.2952033,-161.6259143L216.7455658,-147.6367078" /></g>
<g stroke="rgb(0, 0, 0)"><path d="M216.7455658,-147.6367078L202.7563593,-148.1863453" /></g>
<g stroke="rgb(0, 0, 0)"><path d="M202.7563593,-148.1863453L203.3059968,-162.1755518" /></g>
<g stroke="rgb(0, 0, 0)"><path d="M202.5580974,-143.1402386L216.5473039,-142.5906011" /></g>
<g stroke="rgb(0, 0, 0)"><path d="M216.5473039,-142.5906011L215.9976664,-128.6013946" /></g>
<g stroke="rgb(0, 0, 0)"><path d="M215.9976664,-128.6013946L202.0084599,-129.1510321" /></g>
<g stroke="rgb(0, 0, 0)"><path d="M202.0084599,-129.1510321L202.5580974,-143.1402386" /></g>
<g stroke="rgb(0, 0, 0)"><path d="M201.8101979,-124.1049254L215.7994044,-123.5552879" /></g>
<g stroke="rgb(0, 0, 0)"><path d="M215.7994044,-123.5552879L215.2497669,-109.5660814" /></g>
<g stroke="rgb(0, 0, 0)"><path d="M215.2497669,-109.5660814L201.2605604,-110.1157189" /></g>
<g stroke="rgb(0, 0, 0)"><path d="M201.2605604,-110.1157189L201.8101979,-124.1049254" /></g>
<g stroke="rgb(0, 0, 0)"><path d="M201.0622984,-105.0696122L215.0515049,-104.5199747" /></g>
<g stroke="rgb(0, 0, 0)"><path d="M215.0515049,-104.5199747L214.5018674,-90.5307682" /></g>
<g stroke="rgb(0, 0, 0)"><path d="M214.5018674,-90.5307682L200.5126609,-91.0804057" /></g>
<g stroke="rgb(0, 0, 0)"><path d="M200.5126609,-91.0804057L201.0622984,-105.0696122" /></g>
<g stroke="rgb(0, 0, 0)"><path d="M200.3143989,-86.034299L214.3036054,-85.4846615" /></g>
<g stroke="rgb(0, 0, 0)"><path d="M214.3036054,-85.4846615L213.7539679,-71.495455" /></g>
<g stroke="rgb(0, 0, 0)"><path d="M213.7539679,-71.495455L199.7647614,-72.0450925" /></g>
<g stroke="rgb(0, 0, 0)"><path d="M199.7647614,-72.0450925L200.3143989,-86.034299" /></g>
<g stroke="rgb(0, 0, 0)"><path d="M223.1240565,-179.3409898L237.1207249,-179.0355814" /></g>
<g stroke="rgb(0, 0, 0)"><path d="M237.1207249,-179.0355814L236.8153165,-165.038913" /></g>
<g stroke="rgb(0, 0, 0)"><path d="M236.8153165,-165.038913L222.8186481,-165.3443214" /></g>
<g stroke="rgb(0, 0, 0)"><path d="M222.8186481,-165.3443214L223.1240565,-179.3409898" /></g>
<g stroke="rgb(0, 0, 0)"><path d="M222.9084353,-160.2911601L236.9051037,-159.9857517" /></g>
<g stroke="rgb(0, 0, 0)"><path d="M236.9051037,-159.9857517L236.5996953,-145.9890833" /></g>
<g stroke="rgb(0, 0, 0)"><path d="M236.5996953,-145.9890833L222.6030269,-146.2944917" /></g>
<g stroke="rgb(0, 0, 0)"><path d="M222.6030269,-146.2944917L222.9084353,-160.2911601" /></g>
<g stroke="rgb(0, 0, 0)"><path d="M222.6928142,-141.2413305L236.6894826,-140.9359221" /></g>
<g stroke="rgb(0, 0, 0)"><path d="M236.6894826,-140.9359221L236.3840742,-126.9392537" /></g>
<g stroke="rgb(0, 0, 0)"><path d="M236.3840742,-126.9392537L222.3874058,-127.2446621" /></g>
<g stroke="rgb(0, 0, 0)"><path d="M222.3874058,-127.2446621L222.6928142,-141.2413305" /></g>
<g stroke="rgb(0, 0, 0)"><path d="M222.477193,-122.1915009L236.4738614,-121.8860925" /></g>
<g stroke="rgb(0, 0, 0)"><path d="M236.4738614,-121.8860925L236.168453,-107.8894241" /></g>
<g stroke="rgb(0, 0, 0)"><path d="M236.168453,-107.8894241L222.1717846,-108.1948325" /></g>
<g stroke="rgb(0, 0, 0)"><path d="M222.1717846,-108.1948325L222.477193,-122.1915009" /></g>
<g stroke="rgb(0, 0, 0)"><path d="M222.2615719,-103.1416713L236.2582403,-102.8362629" /></g>
<g stroke="rgb(0, 0, 0)"><path d="M236.2582403,-102.8362629L235.9528319,-88.8395945" /></g>
<g stroke="rgb(0, 0, 0)"><path d="M235.9528319,-88.8395945L221.9561635,-89.1450029" /></g>
<g stroke="rgb(0, 0, 0)"><path d="M221.9561635,-89.1450029L222.2615719,-103.1416713" /></g>
<g stroke="rgb(0, 0, 0)"><path d="M222.0459507,-84.0918417L236.0426191,-83.7864333" /></g>
<g stroke="rgb(0, 0, 0)"><path d="M236.0426191,-83.7864333L235.7372107,-69.7897649" /></g>
<g stroke="rgb(0, 0, 0)"><path d="M235.7372107,-69.7897649L221.7405423,-70.0951733" /></g>
<g stroke="rgb(0, 0, 0)"><path d="M221.7405423,-70.0951733L222.0459507,-84.0918417" /></g>
<g stroke="rgb(0, 0, 0)"><path d="M242.0676235,-179.8081067L256.0674902,-179.7470204" /></g>
<g stroke="rgb(0, 0, 0)"><path d="M256.0674902,-179.7470204L256.0064039,-165.7471537" /></g>
<g stroke="rgb(0, 0, 0)"><path d="M256.0064039,-165.7471537L242.0065372,-165.80824" /></g>
<g stroke="rgb(0, 0, 0)"><path d="M242.0065372,-165.80824L242.0676235,-179.8081067" /></g>
<g stroke="rgb(0, 0, 0)"><path d="M242.1845005,-160.7574154L256.1843672,-160.6963291" /></g>
<g stroke="rgb(0, 0, 0)"><path d="M256.1843672,-160.6963291L256.1232809,-146.6964624" /></g>
<g stroke="rgb(0, 0, 0)"><path d="M256.1232809,-146.6964624L242.1234142,-146.7575487" /></g>
<g stroke="rgb(0, 0, 0)"><path d="M242.1234142,-146.7575487L242.1845005,-160.7574154" /></g>
<g stroke="rgb(0, 0, 0)"><path d="M242.3013776,-141.7067241L256.3012443,-141.6456378" /></g>
<g stroke="rgb(0, 0, 0)"><path d="M256.3012443,-141.6456378L256.240158,-127.6457711" /></g>
<g stroke="rgb(0, 0, 0)"><path d="M256.240158,-127.6457711L242.2402913,-127.7068574" /></g>
<g stroke="rgb(0, 0, 0)"><path d="M242.2402913,-127.7068574L242.3013776,-141.7067241" /></g>
<g stroke="rgb(0, 0, 0)"><path d="M242.4182547,-122.6560327L256.4181214,-122.5949464" /></g>
<g stroke="rgb(0, 0, 0)"><path d="M256.4181214,-122.5949464L256.3570351,-108.5950797" /></g>
<g stroke="rgb(0, 0, 0)"><path d="M256.3570351,-108.5950797L242.3571684,-108.656166" /></g>
<g stroke="rgb(0, 0, 0)"><path d="M242.3571684,-108.656166L242.4182547,-122.6560327" /></g>
<g stroke="rgb(0, 0, 0)"><path d="M242.5351317,-103.6053414L256.5349984,-103.5442551" /></g>
<g stroke="rgb(0, 0, 0)"><path d="M256.5349984,-103.5442551L256.4739121,-89.5443884" /></g>
<g stroke="rgb(0, 0, 0)"><path d="M256.4739121,-89.5443884L242.4740454,-89.6054747" /></g>
<g stroke="rgb(0, 0, 0)"><path d="M242.4740454,-89.6054747L242.5351317,-103.6053414" /></g>
<g stroke="rgb(0, 0, 0)"><path d="M242.6520088,-84.5546501L256.6518755,-84.4935638" /></g>
<g stroke="rgb(0, 0, 0)"><path d="M256.6518755,-84.4935638L256.5907892,-70.4936971" /></g>
<g stroke="rgb(0, 0, 0)"><path d="M256.5907892,-70.4936971L242.5909225,-70.5547834" /></g>
<g stroke="rgb(0, 0, 0)"><path d="M242.5909225,-70.5547834L242.6520088,-84.5546501" /></g>
<g stroke="rgb(0, 0, 0)"><path d="M261.0045162,-181.6057538L275.0033168,-181.7890082" /></g>
<g stroke="rgb(0, 0, 0)"><path d="M275.0033168,-181.7890082L275.1865712,-167.7902076" /></g>
<g stroke="rgb(0, 0, 0)"><path d="M275.1865712,-167.7902076L261.1877706,-167.6069532" /></g>
<g stroke="rgb(0, 0, 0)"><path d="M261.1877706,-167.6069532L261.0045162,-181.6057538" /></g>
<g stroke="rgb(0, 0, 0)"><path d="M261.4538558,-162.5600038L275.4526564,-162.7432582" /></g>
<g stroke="rgb(0, 0, 0)"><path d="M275.4526564,-162.7432582L275.6359108,-148.7444576" /></g>
<g stroke="rgb(0, 0, 0)"><path d="M275.6359108,-148.7444576L261.6371102,-148.5612032" /></g>
<g stroke="rgb(0, 0, 0)"><path d="M261.6371102,-148.5612032L261.4538558,-162.5600038" /></g>
<g stroke="rgb(0, 0, 0)"><path d="M261.9031954,-143.5142538L275.901996,-143.6975082" /></g>
<g stroke="rgb(0, 0, 0)"><path d="M275.901996,-143.6975082L276.0852504,-129.6987076" /></g>
<g stroke="rgb(0, 0, 0)"><path d="M276.0852504,-129.6987076L262.0864498,-129.5154532" /></g>
<g stroke="rgb(0, 0, 0)"><path d="M262.0864498,-129.5154532L261.9031954,-143.5142538" /></g>
<g stroke="rgb(0, 0, 0)"><path d="M262.3525349,-124.4685038L276.3513355,-124.6517582" /></g>
<g stroke="rgb(0, 0, 0)"><path d="M276.3513355,-124.6517582L276.5345899,-110.6529576" /></g>
<g stroke="rgb(0, 0, 0)"><path d="M276.5345899,-110.6529576L262.5357893,-110.4697032" /></g>
<g stroke="rgb(0, 0, 0)"><path d="M262.5357893,-110.4697032L262.3525349,-124.4685038" /></g>
<g stroke="rgb(0, 0, 0)"><path d="M262.8018745,-105.4227538L276.8006751,-105.6060082" /></g>
<g stroke="rgb(0, 0, 0)"><path d="M276.8006751,-105.6060082L276.9839295,-91.6072076" /></g>
<g stroke="rgb(0, 0, 0)"><path d="M276.9839295,-91.6072076L262.9851289,-91.4239532" /></g>
<g stroke="rgb(0, 0, 0)"><path d="M262.9851289,-91.4239532L262.8018745,-105.4227538" /></g>
<g stroke="rgb(0, 0, 0)"><path d="M279.8529013,-181.8524926L293.8517019,-182.035747" /></g>
<g stroke="rgb(0, 0, 0)"><path d="M293.8517019,-182.035747L294.0349563,-168.0369464" /></g>
<g stroke="rgb(0, 0, 0)"><path d="M294.0349563,-168.0369464L280.0361557,-167.853692" /></g>
<g stroke="rgb(0, 0, 0)"><path d="M280.0361557,-167.853692L279.8529013,-181.8524926" /></g>
<g stroke="rgb(0, 0, 0)"><path d="M285.4642987,-162.8743176L299.4630993,-163.057572" /></g>
<g stroke="rgb(0, 0, 0)"><path d="M299.4630993,-163.057572L299.6463537,-149.0587714" /></g>
<g stroke="rgb(0, 0, 0)"><path d="M299.6463537,-149.0587714L285.6475531,-148.875517" /></g>
<g stroke="rgb(0, 0, 0)"><path d="M285.6475531,-148.875517L285.4642987,-162.8743176" /></g>
<g stroke="rgb(0, 0, 0)"><path d="M280.3516148,-143.7557567L294.3504154,-143.9390111" /></g>
<g stroke="rgb(0, 0, 0)"><path d="M294.3504154,-143.9390111L294.5336698,-129.9402105" /></g>
<g stroke="rgb(0, 0, 0)"><path d="M294.5336698,-129.9402105L280.5348692,-129.7569561" /></g>
<g stroke="rgb(0, 0, 0)"><path d="M280.5348692,-129.7569561L280.3516148,-143.7557567" /></g>
<g stroke="rgb(0, 0, 0)"><path d="M280.6009716,-124.7073888L294.5997722,-124.8906432" /></g>
<g stroke="rgb(0, 0, 0)"><path d="M294.5997722,-124.8906432L294.7830266,-110.8918426" /></g>
<g stroke="rgb(0, 0, 0)"><path d="M294.7830266,-110.8918426L280.784226,-110.7085882" /></g>
<g stroke="rgb(0, 0, 0)"><path d="M280.784226,-110.7085882L280.6009716,-124.7073888" /></g>
<g stroke="rgb(0, 0, 0)"><path d="M280.8503283,-105.6590208L294.8491289,-105.8422752" /></g>
<g stroke="rgb(0, 0, 0)"><path d="M294.8491289,-105.8422752L295.0323833,-91.8434746" /></g>
<g stroke="rgb(0, 0, 0)"><path d="M295.0323833,-91.8434746L281.0335827,-91.6602202" /></g>
<g stroke="rgb(0, 0, 0)"><path d="M281.0335827,-91.6602202L280.8503283,-105.6590208" /></g>
<g stroke="rgb(0, 0, 0)"><path d="M281.0996851,-86.6106529L295.0984857,-86.7939073" /></g>
<g stroke="rgb(0, 0, 0)"><path d="M295.0984857,-86.7939073L295.2817401,-72.7951067" /></g>
<g stroke="rgb(0, 0, 0)"><path d="M295.2817401,-72.7951067L281.2829395,-72.6118523" /></g>
<g stroke="rgb(0, 0, 0)"><path d="M281.2829395,-72.6118523L281.0996851,-86.6106529" /></g>
<g stroke="rgb(0, 0, 0)"><path d="M304.7620234,-144.0753065L318.760824,-144.2585609" /></g>
<g stroke="rgb(0, 0, 0)"><path d="M318.760824,-144.2585609L318.9440784,-130.2597603" /></g>
<g stroke="rgb(0, 0, 0)"><path d="M318.9440784,-130.2597603L304.9452778,-130.0765059" /></g>
<g stroke="rgb(0, 0, 0)"><path d="M304.9452778,-130.0765059L304.7620234,-144.0753065" /></g>
<g stroke="rgb(0, 0, 0)"><path d="M299.6493395,-124.9567456L313.6481401,-125.14" /></g>
<g stroke="rgb(0, 0, 0)"><path d="M313.6481401,-125.14L313.8313945,-111.1411994" /></g>
<g stroke="rgb(0, 0, 0)"><path d="M313.8313945,-111.1411994L299.8325939,-110.957945" /></g>
<g stroke="rgb(0, 0, 0)"><path d="M299.8325939,-110.957945L299.6493395,-124.9567456" /></g>
<g stroke="rgb(0, 0, 0)"><path d="M299.8986963,-105.9083777L313.8974969,-106.0916321" /></g>
<g stroke="rgb(0, 0, 0)"><path d="M313.8974969,-106.0916321L314.0807513,-92.0928315" /></g>
<g stroke="rgb(0, 0, 0)"><path d="M314.0807513,-92.0928315L300.0819507,-91.9095771" /></g>
<g stroke="rgb(0, 0, 0)"><path d="M300.0819507,-91.9095771L299.8986963,-105.9083777" /></g>
<g stroke="rgb(0, 0, 0)"><path d="M300.148053,-86.8600098L314.1468536,-87.0432642" /></g>
<g stroke="rgb(0, 0, 0)"><path d="M314.1468536,-87.0432642L314.330108,-73.0444636" /></g>
<g stroke="rgb(0, 0, 0)"><path d="M314.330108,-73.0444636L300.3313074,-72.8612092" /></g>
<g stroke="rgb(0, 0, 0)"><path d="M300.3313074,-72.8612092L300.148053,-86.8600098" /></g>
<g stroke="rgb(0, 0, 0)"><path d="M318.6977075,-125.2061025L332.6965081,-125.3893569" /></g>
<g stroke="rgb(0, 0, 0)"><path d="M332.6965081,-125.3893569L332.8797625,-111.3905563" /></g>
<g stroke="rgb(0, 0, 0)"><path d="M332.8797625,-111.3905563L318.8809619,-111.2073019" /></g>
<g stroke="rgb(0, 0, 0)"><path d="M318.8809619,-111.2073019L318.6977075,-125.2061025" /></g>
<g stroke="rgb(0, 0, 0)"><path d="M324.3091048,-106.2279275L338.3079054,-106.4111819" /></g>
<g stroke="rgb(0, 0, 0)"><path d="M338.3079054,-106.4111819L338.4911598,-92.4123813" /></g>
<g stroke="rgb(0, 0, 0)"><path d="M338.4911598,-92.4123813L324.4923592,-92.2291269" /></g>
<g stroke="rgb(0, 0, 0)"><path d="M324.4923592,-92.2291269L324.3091048,-106.2279275" /></g>
<g stroke="rgb(0, 0, 0)"><path d="M319.196421,-87.1093666L333.1952216,-87.292621" /></g>
<g stroke="rgb(0, 0, 0)"><path d="M333.1952216,-87.292621L333.378476,-73.2938204" /></g>
<g stroke="rgb(0, 0, 0)"><path d="M333.378476,-73.2938204L319.3796754,-73.110566" /></g>
<g stroke="rgb(0, 0, 0)"><path d="M319.3796754,-73.110566L319.196421,-87.1093666" /></g>
<g stroke="rgb(0, 0, 0)"><path d="M338.244789,-87.3587233L352.2435896,-87.5419777" /></g>
<g stroke="rgb(0, 0, 0)"><path d="M352.2435896,-87.5419777L352.426844,-73.5431771" /></g>
<g stroke="rgb(0, 0, 0)"><path d="M352.426844,-73.5431771L338.4280434,-73.3599227" /></g>
<g stroke="rgb(0, 0, 0)"><path d="M338.4280434,-73.3599227L338.244789,-87.3587233" /></g>
<g stroke="rgb(0, 0, 0)"><path d="M337.7019605,-195.4118098L347.205171,-185.1312947" /></g>
<g stroke="rgb(0, 0, 0)"><path d="M347.205171,-185.1312947L336.9246559,-175.6280842" /></g>
<g stroke="rgb(0, 0, 0)"><path d="M336.9246559,-175.6280842L327.4214454,-185.9085993" /></g>
<g stroke="rgb(0, 0, 0)"><path d="M327.4214454,-185.9085993L337.7019605,-195.4118098" /></g>
<g stroke="rgb(0, 0, 0)"><path d="M323.7131167,-182.4806556L333.2163272,-172.2001405" /></g>
<g stroke="rgb(0, 0, 0)"><path d="M333.2163272,-172.2001405L322.9358121,-162.69693" /></g>
<g stroke="rgb(0, 0, 0)"><path d="M322.9358121,-162.69693L313.4326016,-172.9774451" /></g>
<g stroke="rgb(0, 0, 0)"><path d="M313.4326016,-172.9774451L323.7131167,-182.4806556" /></g>
<g stroke="rgb(0, 0, 0)"><path d="M350.6331147,-181.422966L360.1363252,-171.1424509" /></g>
<g stroke="rgb(0, 0, 0)"><path d="M360.1363252,-171.1424509L349.8558101,-161.6392404" /></g>
<g stroke="rgb(0, 0, 0)"><path d="M349.8558101,-161.6392404L340.3525996,-171.9197555" /></g>
<g stroke="rgb(0, 0, 0)"><path d="M340.3525996,-171.9197555L350.6331147,-181.422966" /></g>
<g stroke="rgb(0, 0, 0)"><path d="M336.6442709,-168.4918118L346.1474814,-158.2112967" /></g>
<g stroke="rgb(0, 0, 0)"><path d="M346.1474814,-158.2112967L335.8669663,-148.7080862" /></g>
<g stroke="rgb(0, 0, 0)"><path d="M335.8669663,-148.7080862L326.3637558,-158.9886013" /></g>
<g stroke="rgb(0, 0, 0)"><path d="M326.3637558,-158.9886013L336.6442709,-168.4918118" /></g>
<g stroke="rgb(0, 0, 0)"><path d="M366.7970574,-163.9369113L376.3002679,-153.6563962" /></g>
<g stroke="rgb(0, 0, 0)"><path d="M376.3002679,-153.6563962L366.0197528,-144.1531857" /></g>
<g stroke="rgb(0, 0, 0)"><path d="M366.0197528,-144.1531857L356.5165423,-154.4337008" /></g>
<g stroke="rgb(0, 0, 0)"><path d="M356.5165423,-154.4337008L366.7970574,-163.9369113" /></g>
<g stroke="rgb(0, 0, 0)"><path d="M352.8082136,-151.0057571L362.3114241,-140.725242" /></g>
<g stroke="rgb(0, 0, 0)"><path d="M362.3114241,-140.725242L352.030909,-131.2220315" /></g>
<g stroke="rgb(0, 0, 0)"><path d="M352.030909,-131.2220315L342.5276985,-141.5025466" /></g>
<g stroke="rgb(0, 0, 0)"><path d="M342.5276985,-141.5025466L352.8082136,-151.0057571" /></g>
<g stroke="rgb(0, 0, 0)"><path d="M379.7282117,-149.9480675L389.2314222,-139.6675524" /></g>
<g stroke="rgb(0, 0, 0)"><path d="M389.2314222,-139.6675524L378.9509071,-130.1643419" /></g>
<g stroke="rgb(0, 0, 0)"><path d="M378.9509071,-130.1643419L369.4476966,-140.444857" /></g>
<g stroke="rgb(0, 0, 0)"><path d="M369.4476966,-140.444857L379.7282117,-149.9480675" /></g>
<g stroke="rgb(0, 0, 0)"><path d="M365.7393679,-137.0169133L375.2425784,-126.7363982" /></g>
<g stroke="rgb(0, 0, 0)"><path d="M375.2425784,-126.7363982L364.9620633,-117.2331877" /></g>
<g stroke="rgb(0, 0, 0)"><path d="M364.9620633,-117.2331877L355.4588528,-127.5137028" /></g>
<g stroke="rgb(0, 0, 0)"><path d="M355.4588528,-127.5137028L365.7393679,-137.0169133" /></g>
<g stroke="rgb(0, 0, 0)"><path d="M366.5679841,-106.7811264L380.5667847,-106.9643808" /></g>
<g stroke="rgb(0, 0, 0)"><path d="M380.5667847,-106.9643808L380.7500391,-92.9655802" /></g>
<g stroke="rgb(0, 0, 0)"><path d="M380.7500391,-92.9655802L366.7512385,-92.7823258" /></g>
<g stroke="rgb(0, 0, 0)"><path d="M366.7512385,-92.7823258L366.5679841,-106.7811264" /></g>
<g stroke="rgb(0, 0, 0)"><path d="M366.8173408,-87.7327584L380.8161414,-87.9160128" /></g>
<g stroke="rgb(0, 0, 0)"><path d="M380.8161414,-87.9160128L380.9993958,-73.9172122" /></g>
<g stroke="rgb(0, 0, 0)"><path d="M380.9993958,-73.9172122L367.0005952,-73.7339578" /></g>
<g stroke="rgb(0, 0, 0)"><path d="M367.0005952,-73.7339578L366.8173408,-87.7327584" /></g>
<g stroke="rgb(0, 0, 0)"><path d="M385.616352,-107.0304831L399.6151526,-107.2137375" /></g>
<g stroke="rgb(0, 0, 0)"><path d="M399.6151526,-107.2137375L399.798407,-93.2149369" /></g>
<g stroke="rgb(0, 0, 0)"><path d="M399.798407,-93.2149369L385.7996064,-93.0316825" /></g>
<g stroke="rgb(0, 0, 0)"><path d="M385.7996064,-93.0316825L385.616352,-107.0304831" /></g>
<g stroke="rgb(0, 0, 0)"><path d="M385.8657088,-87.9821152L399.8645094,-88.1653696" /></g>
<g stroke="rgb(0, 0, 0)"><path d="M399.8645094,-88.1653696L400.0477638,-74.166569" /></g>
<g stroke="rgb(0, 0, 0)"><path d="M400.0477638,-74.166569L386.0489632,-73.9833146" /></g>
<g stroke="rgb(0, 0, 0)"><path d="M386.0489632,-73.9833146L385.8657088,-87.9821152" /></g>
  </g>
</svg>