0
SECTION
2
HEADER
9
$INSUNITS
70
4
0
ENDSEC
0
SECTION
2
TABLES
0
TABLE
2
LTYPE
0
LTYPE
72
65
70
64
2
CONTINUOUS
3
______
73
0
40
0
0
ENDTAB
0
TABLE
2
LAYER
0
ENDTAB
0
ENDSEC
0
SECTION
2
ENTITIES
0
LINE
8
0
10
33.5440965
20
-181.880265
11
52.0489097
21
-180.5862824
0
LINE
8
0
10
52.0489097
20
-180.5862824
11
50.7549271
21
-162.0814692
0
LINE
8
0
10
50.7549271
20
-162.0814692
11
32.2501139
21
-163.3754518
0
LINE
8
0
10
32.2501139
20
-163.3754518
11
33.5440965
21
-181.880265
0
LINE
8
0
10
26.9655548
20
-163.2437633
11
45.470368
21
-161.9497807
0
LINE
8
0
10
45.470368
20
-161.9497807
11
44.1763854
21
-143.4449675
0
LINE
8
0
10
44.1763854
20
-143.4449675
11
25.6715722
21
-144.7389501
0
LINE
8
0
10
25.6715722
20
-144.7389501
11
26.9655548
21
-163.2437633
0
LINE
8
0
10
25.636694
20
-144.2401681
11
44.1415072
21
-142.9461855
0
LINE
8
0
10
44.1415072
20
-142.9461855
11
42.8475246
21
-124.4413723
0
LINE
8
0
10
42.8475246
20
-124.4413723
11
24.3427114
21
-125.7353549
0
LINE
8
0
10
24.3427114
20
-125.7353549
11
25.636694
21
-144.2401681
0
LINE
8
0
10
24.3078331
20
-125.236573
11
42.8126463
21
-123.9425904
0
LINE
8
0
10
42.8126463
20
-123.9425904
11
41.5186637
21
-105.4377772
0
LINE
8
0
10
41.5186637
20
-105.4377772
11
23.0138505
21
-106.7317598
0
LINE
8
0
10
23.0138505
20
-106.7317598
11
24.3078331
21
-125.236573
0
LINE
8
0
10
28.2286531
20
-105.8658844
11
46.7334663
21
-104.5719018
0
LINE
8
0
10
46.7334663
20
-104.5719018
11
45.4394837
21
-86.0670886
0
LINE
8
0
10
45.4394837
20
-86.0670886
11
26.9346705
21
-87.3610712
0
LINE
8
0
10
26.9346705
20
-87.3610712
11
28.2286531
21
-105.8658844
0
LINE
8
0
10
26.8997922
20
-86.8622892
11
45.4046054
21
-85.5683066
0
LINE
8
0
10
45.4046054
20
-85.5683066
11
44.1106228
21
-67.0634934
0
LINE
8
0
10
44.1106228
20
-67.0634934
11
25.6058096
21
-68.357476
0
LINE
8
0
10
25.6058096
20
-68.357476
11
26.8997922
21
-86.8622892
0
LINE
8
0
10
52.3762341
20
-180.3997111
11
70.9008119
21
-179.4288791
0
LINE
8
0
10
70.9008119
20
-179.4288791
11
69.9299799
21
-160.9043013
0
LINE
8
0
10
69.9299799
20
-160.9043013
11
51.4054021
21
-161.8751333
0
LINE
8
0
10
51.4054021
20
-161.8751333
11
52.3762341
21
-180.3997111
0
LINE
8
0
10
51.3792341
20
-161.3758185
11
69.9038119
21
-160.4049865
0
LINE
8
0
10
69.9038119
20
-160.4049865
11
68.9329799
21
-141.8804087
0
LINE
8
0
10
68.9329799
20
-141.8804087
11
50.4084021
21
-142.8512407
0
LINE
8
0
10
50.4084021
20
-142.8512407
11
51.3792341
21
-161.3758185
0
LINE
8
0
10
50.3822341
20
-142.3519258
11
68.9068119
21
-141.3810938
0
LINE
8
0
10
68.9068119
20
-141.3810938
11
67.9359799
21
-122.856516
0
LINE
8
0
10
67.9359799
20
-122.856516
11
49.4114021
21
-123.827348
0
LINE
8
0
10
49.4114021
20
-123.827348
11
50.3822341
21
-142.3519258
0
LINE
8
0
10
49.3852341
20
-123.3280331
11
67.9098119
21
-122.3572011
0
LINE
8
0
10
67.9098119
20
-122.3572011
11
66.9389799
21
-103.8326233
0
LINE
8
0
10
66.9389799
20
-103.8326233
11
48.4144021
21
-104.8034553
0
LINE
8
0
10
48.4144021
20
-104.8034553
11
49.3852341
21
-123.3280331
0
LINE
8
0
10
48.3882342
20
-104.3041404
11
66.912812
21
-103.3333084
0
LINE
8
0
10
66.912812
20
-103.3333084
11
65.94198
21
-84.8087306
0
LINE
8
0
10
65.94198
20
-84.8087306
11
47.4174022
21
-85.7795626
0
LINE
8
0
10
47.4174022
20
-85.7795626
11
48.3882342
21
-104.3041404
0
LINE
8
0
10
71.1266706
20
-177.2507901
11
89.6653705
21
-176.6034044
0
LINE
8
0
10
89.6653705
20
-176.6034044
11
89.0179848
21
-158.0647045
0
LINE
8
0
10
89.0179848
20
-158.0647045
11
70.4792849
21
-158.7120902
0
LINE
8
0
10
70.4792849
20
-158.7120902
11
71.1266706
21
-177.2507901
0
LINE
8
0
10
70.4618352
20
-158.2123948
11
89.0005351
21
-157.5650091
0
LINE
8
0
10
89.0005351
20
-157.5650091
11
88.3531494
21
-139.0263092
0
LINE
8
0
10
88.3531494
20
-139.0263092
11
69.8144495
21
-139.6736949
0
LINE
8
0
10
69.8144495
20
-139.6736949
11
70.4618352
21
-158.2123948
0
LINE
8
0
10
69.7969998
20
-139.1739996
11
88.3356997
21
-138.5266139
0
LINE
8
0
10
88.3356997
20
-138.5266139
11
87.688314
21
-119.987914
0
LINE
8
0
10
87.688314
20
-119.987914
11
69.1496141
21
-120.6352997
0
LINE
8
0
10
69.1496141
20
-120.6352997
11
69.7969998
21
-139.1739996
0
LINE
8
0
10
69.1321644
20
-120.1356044
11
87.6708643
21
-119.4882187
0
LINE
8
0
10
87.6708643
20
-119.4882187
11
87.0234786
21
-100.9495188
0
LINE
8
0
10
87.0234786
20
-100.9495188
11
68.4847787
21
-101.5969045
0
LINE
8
0
10
68.4847787
20
-101.5969045
11
69.1321644
21
-120.1356044
0
LINE
8
0
10
68.4673291
20
-101.0972092
11
87.006029
21
-100.4498235
0
LINE
8
0
10
87.006029
20
-100.4498235
11
86.3586433
21
-81.9111236
0
LINE
8
0
10
86.3586433
20
-81.9111236
11
67.8199434
21
-82.5585093
0
LINE
8
0
10
67.8199434
20
-82.5585093
11
68.4673291
21
-101.0972092
0
LINE
8
0
10
67.8024937
20
-82.058814
11
86.3411936
21
-81.4114283
0
LINE
8
0
10
86.3411936
20
-81.4114283
11
85.6938079
21
-62.8727284
0
LINE
8
0
10
85.6938079
20
-62.8727284
11
67.155108
21
-63.5201141
0
LINE
8
0
10
67.155108
20
-63.5201141
11
67.8024937
21
-82.058814
0
LINE
8
0
10
89.9641071
20
-175.4289793
11
108.5112818
21
-175.1052372
0
LINE
8
0
10
108.5112818
20
-175.1052372
11
108.1875397
21
-156.5580625
0
LINE
8
0
10
108.1875397
20
-156.5580625
11
89.640365
21
-156.8818046
0
LINE
8
0
10
89.640365
20
-156.8818046
11
89.9641071
21
-175.4289793
0
LINE
8
0
10
89.6316388
20
-156.3818806
11
108.1788135
21
-156.0581385
0
LINE
8
0
10
108.1788135
20
-156.0581385
11
107.8550714
21
-137.5109638
0
LINE
8
0
10
107.8550714
20
-137.5109638
11
89.3078967
21
-137.8347059
0
LINE
8
0
10
89.3078967
20
-137.8347059
11
89.6316388
21
-156.3818806
0
LINE
8
0
10
89.2991704
20
-137.334782
11
107.8463451
21
-137.0110399
0
LINE
8
0
10
107.8463451
20
-137.0110399
11
107.522603
21
-118.4638652
0
LINE
8
0
10
107.522603
20
-118.4638652
11
88.9754283
21
-118.7876073
0
LINE
8
0
10
88.9754283
20
-118.7876073
11
89.2991704
21
-137.334782
0
LINE
8
0
10
88.966702
20
-118.2876834
11
107.5138767
21
-117.9639413
0
LINE
8
0
10
107.5138767
20
-117.9639413
11
107.1901346
21
-99.4167666
0
LINE
8
0
10
107.1901346
20
-99.4167666
11
88.6429599
21
-99.7405087
0
LINE
8
0
10
88.6429599
20
-99.7405087
11
88.966702
21
-118.2876834
0
LINE
8
0
10
88.6342336
20
-99.2405848
11
107.1814083
21
-98.9168427
0
LINE
8
0
10
107.1814083
20
-98.9168427
11
106.8576662
21
-80.369668
0
LINE
8
0
10
106.8576662
20
-80.369668
11
88.3104915
21
-80.6934101
0
LINE
8
0
10
88.3104915
20
-80.6934101
11
88.6342336
21
-99.2405848
0
LINE
8
0
10
88.3017653
20
-80.1934861
11
106.84894
21
-79.869744
0
LINE
8
0
10
106.84894
20
-79.869744
11
106.5251979
21
-61.3225693
0
LINE
8
0
10
106.5251979
20
-61.3225693
11
87.9780232
21
-61.6463114
0
LINE
8
0
10
87.9780232
20
-61.6463114
11
88.3017653
21
-80.1934861
0
LINE
8
0
10
108.8653746
20
-156.8859003
11
127.4153746
21
-156.8859003
0
LINE
8
0
10
127.4153746
20
-156.8859003
11
127.4153746
21
-138.3359003
0
LINE
8
0
10
127.4153746
20
-138.3359003
11
108.8653746
21
-138.3359003
0
LINE
8
0
10
108.8653746
20
-138.3359003
11
108.8653746
21
-156.8859003
0
LINE
8
0
10
108.8653746
20
-137.8359003
11
127.4153746
21
-137.8359003
0
LINE
8
0
10
127.4153746
20
-137.8359003
11
127.4153746
21
-119.2859003
0
LINE
8
0
10
127.4153746
20
-119.2859003
11
108.8653746
21
-119.2859003
0
LINE
8
0
10
108.8653746
20
-119.2859003
11
108.8653746
21
-137.8359003
0
LINE
8
0
10
108.8653746
20
-118.7859003
11
127.4153746
21
-118.7859003
0
LINE
8
0
10
127.4153746
20
-118.7859003
11
127.4153746
21
-100.2359003
0
LINE
8
0
10
127.4153746
20
-100.2359003
11
108.8653746
21
-100.2359003
0
LINE
8
0
10
108.8653746
20
-100.2359003
11
108.8653746
21
-118.7859003
0
LINE
8
0
10
108.8653746
20
-99.7359003
11
127.4153746
21
-99.7359003
0
LINE
8
0
10
127.4153746
20
-99.7359003
11
127.4153746
21
-81.1859003
0
LINE
8
0
10
127.4153746
20
-81.1859003
11
108.8653746
21
-81.1859003
0
LINE
8
0
10
108.8653746
20
-81.1859003
11
108.8653746
21
-99.7359003
0
LINE
8
0
10
108.8653746
20
-80.6859003
11
127.4153746
21
-80.6859003
0
LINE
8
0
10
127.4153746
20
-80.6859003
11
127.4153746
21
-62.1359003
0
LINE
8
0
10
127.4153746
20
-62.1359003
11
108.8653746
21
-62.1359003
0
LINE
8
0
10
108.8653746
20
-62.1359003
11
108.8653746
21
-80.6859003
0
LINE
8
0
10
128.3548247
20
-176.0330881
11
146.9019994
21
-176.3568302
0
LINE
8
0
10
146.9019994
20
-176.3568302
11
147.2257415
21
-157.8096555
0
LINE
8
0
10
147.2257415
20
-157.8096555
11
128.6785668
21
-157.4859134
0
LINE
8
0
10
128.6785668
20
-157.4859134
11
128.3548247
21
-176.0330881
0
LINE
8
0
10
128.687293
20
-156.9859895
11
147.2344677
21
-157.3097316
0
LINE
8
0
10
147.2344677
20
-157.3097316
11
147.5582098
21
-138.7625569
0
LINE
8
0
10
147.5582098
20
-138.7625569
11
129.0110351
21
-138.4388148
0
LINE
8
0
10
129.0110351
20
-138.4388148
11
128.687293
21
-156.9859895
0
LINE
8
0
10
129.0197613
20
-137.9388909
11
147.566936
21
-138.262633
0
LINE
8
0
10
147.566936
20
-138.262633
11
147.8906781
21
-119.7154583
0
LINE
8
0
10
147.8906781
20
-119.7154583
11
129.3435034
21
-119.3917162
0
LINE
8
0
10
129.3435034
20
-119.3917162
11
129.0197613
21
-137.9388909
0
LINE
8
0
10
129.3522296
20
-118.8917923
11
147.8994043
21
-119.2155344
0
LINE
8
0
10
147.8994043
20
-119.2155344
11
148.2231464
21
-100.6683597
0
LINE
8
0
10
148.2231464
20
-100.6683597
11
129.6759717
21
-100.3446176
0
LINE
8
0
10
129.6759717
20
-100.3446176
11
129.3522296
21
-118.8917923
0
LINE
8
0
10
129.6846979
20
-99.8446937
11
148.2318726
21
-100.1684358
0
LINE
8
0
10
148.2318726
20
-100.1684358
11
148.5556147
21
-81.6212611
0
LINE
8
0
10
148.5556147
20
-81.6212611
11
130.00844
21
-81.297519
0
LINE
8
0
10
130.00844
20
-81.297519
11
129.6846979
21
-99.8446937
0
LINE
8
0
10
130.0171663
20
-80.7975951
11
148.564341
21
-81.1213372
0
LINE
8
0
10
148.564341
20
-81.1213372
11
148.8880831
21
-62.5741625
0
LINE
8
0
10
148.8880831
20
-62.5741625
11
130.3409084
21
-62.2504204
0
LINE
8
0
10
130.3409084
20
-62.2504204
11
130.0171663
21
-80.7975951
0
LINE
8
0
10
187.5918736
20
-175.6331079
11
206.1164514
21
-174.6622759
0
LINE
8
0
10
206.1164514
20
-174.6622759
11
205.1456194
21
-156.1376981
0
LINE
8
0
10
205.1456194
20
-156.1376981
11
186.6210416
21
-157.1085301
0
LINE
8
0
10
186.6210416
20
-157.1085301
11
187.5918736
21
-175.6331079
0
LINE
8
0
10
187.1940513
20
-156.5778136
11
205.7186291
21
-155.6069816
0
LINE
8
0
10
205.7186291
20
-155.6069816
11
204.7477971
21
-137.0824038
0
LINE
8
0
10
204.7477971
20
-137.0824038
11
186.2232193
21
-138.0532358
0
LINE
8
0
10
186.2232193
20
-138.0532358
11
187.1940513
21
-156.5778136
0
LINE
8
0
10
186.1970513
20
-137.553921
11
204.7216291
21
-136.583089
0
LINE
8
0
10
204.7216291
20
-136.583089
11
203.7507971
21
-118.0585112
0
LINE
8
0
10
203.7507971
20
-118.0585112
11
185.2262193
21
-119.0293432
0
LINE
8
0
10
185.2262193
20
-119.0293432
11
186.1970513
21
-137.553921
0
LINE
8
0
10
185.2000514
20
-118.5300283
11
203.7246292
21
-117.5591963
0
LINE
8
0
10
203.7246292
20
-117.5591963
11
202.7537972
21
-99.0346185
0
LINE
8
0
10
202.7537972
20
-99.0346185
11
184.2292194
21
-100.0054505
0
LINE
8
0
10
184.2292194
20
-100.0054505
11
185.2000514
21
-118.5300283
0
LINE
8
0
10
184.2030514
20
-99.5061356
11
202.7276292
21
-98.5353036
0
LINE
8
0
10
202.7276292
20
-98.5353036
11
201.7567972
21
-80.0107258
0
LINE
8
0
10
201.7567972
20
-80.0107258
11
183.2322194
21
-80.9815578
0
LINE
8
0
10
183.2322194
20
-80.9815578
11
184.2030514
21
-99.5061356
0
LINE
8
0
10
183.2060514
20
-80.4822429
11
201.7306292
21
-79.5114109
0
LINE
8
0
10
201.7306292
20
-79.5114109
11
200.7597972
21
-60.9868331
0
LINE
8
0
10
200.7597972
20
-60.9868331
11
182.2352194
21
-61.9576651
0
LINE
8
0
10
182.2352194
20
-61.9576651
11
183.2060514
21
-80.4822429
0
LINE
8
0
10
206.3682403
20
-155.1619916
11
224.9069402
21
-154.5146059
0
LINE
8
0
10
224.9069402
20
-154.5146059
11
224.2595545
21
-135.975906
0
LINE
8
0
10
224.2595545
20
-135.975906
11
205.7208546
21
-136.6232917
0
LINE
8
0
10
205.7208546
20
-136.6232917
11
206.3682403
21
-155.1619916
0
LINE
8
0
10
205.703405
20
-136.1235964
11
224.2421049
21
-135.4762107
0
LINE
8
0
10
224.2421049
20
-135.4762107
11
223.5947192
21
-116.9375108
0
LINE
8
0
10
223.5947192
20
-116.9375108
11
205.0560193
21
-117.5848965
0
LINE
8
0
10
205.0560193
20
-117.5848965
11
205.703405
21
-136.1235964
0
LINE
8
0
10
205.0385696
20
-117.0852012
11
223.5772695
21
-116.4378155
0
LINE
8
0
10
223.5772695
20
-116.4378155
11
222.9298838
21
-97.8991156
0
LINE
8
0
10
222.9298838
20
-97.8991156
11
204.3911839
21
-98.5465013
0
LINE
8
0
10
204.3911839
20
-98.5465013
11
205.0385696
21
-117.0852012
0
LINE
8
0
10
204.3737342
20
-98.046806
11
222.9124341
21
-97.3994203
0
LINE
8
0
10
222.9124341
20
-97.3994203
11
222.2650484
21
-78.8607204
0
LINE
8
0
10
222.2650484
20
-78.8607204
11
203.7263485
21
-79.5081061
0
LINE
8
0
10
203.7263485
20
-79.5081061
11
204.3737342
21
-98.046806
0
LINE
8
0
10
203.7088988
20
-79.0084108
11
222.2475987
21
-78.3610251
0
LINE
8
0
10
222.2475987
20
-78.3610251
11
221.600213
21
-59.8223252
0
LINE
8
0
10
221.600213
20
-59.8223252
11
203.0615131
21
-60.4697109
0
LINE
8
0
10
203.0615131
20
-60.4697109
11
203.7088988
21
-79.0084108
0
LINE
8
0
10
225.8705123
20
-172.3785762
11
244.417687
21
-172.0548341
0
LINE
8
0
10
244.417687
20
-172.0548341
11
244.0939449
21
-153.5076594
0
LINE
8
0
10
244.0939449
20
-153.5076594
11
225.5467702
21
-153.8314015
0
LINE
8
0
10
225.5467702
20
-153.8314015
11
225.8705123
21
-172.3785762
0
LINE
8
0
10
225.5380439
20
-153.3314776
11
244.0852186
21
-153.0077355
0
LINE
8
0
10
244.0852186
20
-153.0077355
11
243.7614765
21
-134.4605608
0
LINE
8
0
10
243.7614765
20
-134.4605608
11
225.2143018
21
-134.7843029
0
LINE
8
0
10
225.2143018
20
-134.7843029
11
225.5380439
21
-153.3314776
0
LINE
8
0
10
225.2055755
20
-134.2843789
11
243.7527502
21
-133.9606368
0
LINE
8
0
10
243.7527502
20
-133.9606368
11
243.4290081
21
-115.4134621
0
LINE
8
0
10
243.4290081
20
-115.4134621
11
224.8818334
21
-115.7372042
0
LINE
8
0
10
224.8818334
20
-115.7372042
11
225.2055755
21
-134.2843789
0
LINE
8
0
10
224.8731072
20
-115.2372803
11
243.4202819
21
-114.9135382
0
LINE
8
0
10
243.4202819
20
-114.9135382
11
243.0965398
21
-96.3663635
0
LINE
8
0
10
243.0965398
20
-96.3663635
11
224.5493651
21
-96.6901056
0
LINE
8
0
10
224.5493651
20
-96.6901056
11
224.8731072
21
-115.2372803
0
LINE
8
0
10
224.5406388
20
-96.1901817
11
243.0878135
21
-95.8664396
0
LINE
8
0
10
243.0878135
20
-95.8664396
11
242.7640714
21
-77.3192649
0
LINE
8
0
10
242.7640714
20
-77.3192649
11
224.2168967
21
-77.643007
0
LINE
8
0
10
224.2168967
20
-77.643007
11
224.5406388
21
-96.1901817
0
LINE
8
0
10
224.2081704
20
-77.143083
11
242.7553451
21
-76.8193409
0
LINE
8
0
10
242.7553451
20
-76.8193409
11
242.431603
21
-58.2721662
0
LINE
8
0
10
242.431603
20
-58.2721662
11
223.8844283
21
-58.5959083
0
LINE
8
0
10
223.8844283
20
-58.5959083
11
224.2081704
21
-77.143083
0
LINE
8
0
10
244.7717797
20
-172.8854972
11
263.3217797
21
-172.8854972
0
LINE
8
0
10
263.3217797
20
-172.8854972
11
263.3217797
21
-154.3354972
0
LINE
8
0
10
263.3217797
20
-154.3354972
11
244.7717797
21
-154.3354972
0
LINE
8
0
10
244.7717797
20
-154.3354972
11
244.7717797
21
-172.8854972
0
LINE
8
0
10
244.7717797
20
-153.8354972
11
263.3217797
21
-153.8354972
0
LINE
8
0
10
263.3217797
20
-153.8354972
11
263.3217797
21
-135.2854972
0
LINE
8
0
10
263.3217797
20
-135.2854972
11
244.7717797
21
-135.2854972
0
LINE
8
0
10
244.7717797
20
-135.2854972
11
244.7717797
21
-153.8354972
0
LINE
8
0
10
244.7717797
20
-134.7854972
11
263.3217797
21
-134.7854972
0
LINE
8
0
10
263.3217797
20
-134.7854972
11
263.3217797
21
-116.2354972
0
LINE
8
0
10
263.3217797
20
-116.2354972
11
244.7717797
21
-116.2354972
0
LINE
8
0
10
244.7717797
20
-116.2354972
11
244.7717797
21
-134.7854972
0
LINE
8
0
10
244.7717797
20
-115.7354972
11
263.3217797
21
-115.7354972
0
LINE
8
0
10
263.3217797
20
-115.7354972
11
263.3217797
21
-97.1854972
0
LINE
8
0
10
263.3217797
20
-97.1854972
11
244.7717797
21
-97.1854972
0
LINE
8
0
10
244.7717797
20
-97.1854972
11
244.7717797
21
-115.7354972
0
LINE
8
0
10
244.7717797
20
-96.6854972
11
263.3217797
21
-96.6854972
0
LINE
8
0
10
263.3217797
20
-96.6854972
11
263.3217797
21
-78.1354972
0
LINE
8
0
10
263.3217797
20
-78.1354972
11
244.7717797
21
-78.1354972
0
LINE
8
0
10
244.7717797
20
-78.1354972
11
244.7717797
21
-96.6854972
0
LINE
8
0
10
244.7717797
20
-77.6354972
11
263.3217797
21
-77.6354972
0
LINE
8
0
10
263.3217797
20
-77.6354972
11
263.3217797
21
-59.0854972
0
LINE
8
0
10
263.3217797
20
-59.0854972
11
244.7717797
21
-59.0854972
0
LINE
8
0
10
244.7717797
20
-59.0854972
11
244.7717797
21
-77.6354972
0
LINE
8
0
10
263.6613212
20
-174.7222136
11
282.2084959
21
-175.0459557
0
LINE
8
0
10
282.2084959
20
-175.0459557
11
282.532238
21
-156.498781
0
LINE
8
0
10
282.532238
20
-156.498781
11
263.9850633
21
-156.1750389
0
LINE
8
0
10
263.9850633
20
-156.1750389
11
263.6613212
21
-174.7222136
0
LINE
8
0
10
263.9937895
20
-155.675115
11
282.5409642
21
-155.9988571
0
LINE
8
0
10
282.5409642
20
-155.9988571
11
282.8647063
21
-137.4516824
0
LINE
8
0
10
282.8647063
20
-137.4516824
11
264.3175316
21
-137.1279403
0
LINE
8
0
10
264.3175316
20
-137.1279403
11
263.9937895
21
-155.675115
0
LINE
8
0
10
264.3262578
20
-136.6280164
11
282.8734325
21
-136.9517585
0
LINE
8
0
10
282.8734325
20
-136.9517585
11
283.1971746
21
-118.4045838
0
LINE
8
0
10
283.1971746
20
-118.4045838
11
264.6499999
21
-118.0808417
0
LINE
8
0
10
264.6499999
20
-118.0808417
11
264.3262578
21
-136.6280164
0
LINE
8
0
10
264.6587261
20
-117.5809178
11
283.2059008
21
-117.9046599
0
LINE
8
0
10
283.2059008
20
-117.9046599
11
283.5296429
21
-99.3574852
0
LINE
8
0
10
283.5296429
20
-99.3574852
11
264.9824682
21
-99.0337431
0
LINE
8
0
10
264.9824682
20
-99.0337431
11
264.6587261
21
-117.5809178
0
LINE
8
0
10
264.9911945
20
-98.5338192
11
283.5383692
21
-98.8575613
0
LINE
8
0
10
283.5383692
20
-98.8575613
11
283.8621113
21
-80.3103866
0
LINE
8
0
10
283.8621113
20
-80.3103866
11
265.3149366
21
-79.9866445
0
LINE
8
0
10
265.3149366
20
-79.9866445
11
264.9911945
21
-98.5338192
0
LINE
8
0
10
282.5508354
20
-174.8886225
11
301.0895353
21
-175.5360082
0
LINE
8
0
10
301.0895353
20
-175.5360082
11
301.736921
21
-156.9973083
0
LINE
8
0
10
301.736921
20
-156.9973083
11
283.1982211
21
-156.3499226
0
LINE
8
0
10
283.1982211
20
-156.3499226
11
282.5508354
21
-174.8886225
0
LINE
8
0
10
288.5749041
20
-156.0373758
11
307.113604
21
-156.6847615
0
LINE
8
0
10
307.113604
20
-156.6847615
11
307.7609897
21
-138.1460616
0
LINE
8
0
10
307.7609897
20
-138.1460616
11
289.2222898
21
-137.4986759
0
LINE
8
0
10
289.2222898
20
-137.4986759
11
288.5749041
21
-156.0373758
0
LINE
8
0
10
283.8805062
20
-136.811832
11
302.4192061
21
-137.4592177
0
LINE
8
0
10
302.4192061
20
-137.4592177
11
303.0665918
21
-118.9205178
0
LINE
8
0
10
303.0665918
20
-118.9205178
11
284.5278919
21
-118.2731321
0
LINE
8
0
10
284.5278919
20
-118.2731321
11
283.8805062
21
-136.811832
0
LINE
8
0
10
284.5453416
20
-117.7734367
11
303.0840415
21
-118.4208224
0
LINE
8
0
10
303.0840415
20
-118.4208224
11
303.7314272
21
-99.8821225
0
LINE
8
0
10
303.7314272
20
-99.8821225
11
285.1927273
21
-99.2347368
0
LINE
8
0
10
285.1927273
20
-99.2347368
11
284.5453416
21
-117.7734367
0
LINE
8
0
10
285.210177
20
-98.7350414
11
303.7488769
21
-99.3824271
0
LINE
8
0
10
303.7488769
20
-99.3824271
11
304.3962626
21
-80.8437272
0
LINE
8
0
10
304.3962626
20
-80.8437272
11
285.8575627
21
-80.1963415
0
LINE
8
0
10
285.8575627
20
-80.1963415
11
285.210177
21
-98.7350414
0
LINE
8
0
10
285.8750125
20
-79.6966462
11
304.4137124
21
-80.3440319
0
LINE
8
0
10
304.4137124
20
-80.3440319
11
305.0610981
21
-61.805332
0
LINE
8
0
10
305.0610981
20
-61.805332
11
286.5223982
21
-61.1579463
0
LINE
8
0
10
286.5223982
20
-61.1579463
11
285.8750125
21
-79.6966462
0
LINE
8
0
10
308.7837194
20
-137.6175403
11
327.3082972
21
-138.5883723
0
LINE
8
0
10
327.3082972
20
-138.5883723
11
328.2791292
21
-120.0637945
0
LINE
8
0
10
328.2791292
20
-120.0637945
11
309.7545514
21
-119.0929625
0
LINE
8
0
10
309.7545514
20
-119.0929625
11
308.7837194
21
-137.6175403
0
LINE
8
0
10
304.4255685
20
-118.312996
11
322.9501463
21
-119.283828
0
LINE
8
0
10
322.9501463
20
-119.283828
11
323.9209783
21
-100.7592502
0
LINE
8
0
10
323.9209783
20
-100.7592502
11
305.3964005
21
-99.7884182
0
LINE
8
0
10
305.3964005
20
-99.7884182
11
304.4255685
21
-118.312996
0
LINE
8
0
10
305.4225685
20
-99.2891034
11
323.9471463
21
-100.2599354
0
LINE
8
0
10
323.9471463
20
-100.2599354
11
324.9179783
21
-81.7353576
0
LINE
8
0
10
324.9179783
20
-81.7353576
11
306.3934005
21
-80.7645256
0
LINE
8
0
10
306.3934005
20
-80.7645256
11
305.4225685
21
-99.2891034
0
LINE
8
0
10
306.4195685
20
-80.2652108
11
324.9441463
21
-81.2360428
0
LINE
8
0
10
324.9441463
20
-81.2360428
11
325.9149783
21
-62.711465
0
LINE
8
0
10
325.9149783
20
-62.711465
11
307.3904005
21
-61.740633
0
LINE
8
0
10
307.3904005
20
-61.740633
11
306.4195685
21
-80.2652108
0
LINE
8
0
10
324.2933507
20
-119.1994307
11
342.7981639
21
-120.4934133
0
LINE
8
0
10
342.7981639
20
-120.4934133
11
344.0921465
21
-101.9886001
0
LINE
8
0
10
344.0921465
20
-101.9886001
11
325.5873333
21
-100.6946175
0
LINE
8
0
10
325.5873333
20
-100.6946175
11
324.2933507
21
-119.1994307
0
LINE
8
0
10
330.9716487
20
-100.5699046
11
349.4764619
21
-101.8638872
0
LINE
8
0
10
349.4764619
20
-101.8638872
11
350.7704445
21
-83.359074
0
LINE
8
0
10
350.7704445
20
-83.359074
11
332.2656313
21
-82.0650914
0
LINE
8
0
10
332.2656313
20
-82.0650914
11
330.9716487
21
-100.5699046
0
LINE
8
0
10
326.9510724
20
-81.1922404
11
345.4558856
21
-82.486223
0
LINE
8
0
10
345.4558856
20
-82.486223
11
346.7498682
21
-63.9814098
0
LINE
8
0
10
346.7498682
20
-63.9814098
11
328.245055
21
-62.6874272
0
LINE
8
0
10
328.245055
20
-62.6874272
11
326.9510724
21
-81.1922404
0
LINE
8
0
10
347.4632705
20
-82.477453
11
365.9426821
21
-84.094192
0
LINE
8
0
10
365.9426821
20
-84.094192
11
367.5594211
21
-65.6147804
0
LINE
8
0
10
367.5594211
20
-65.6147804
11
349.0800095
21
-63.9980414
0
LINE
8
0
10
349.0800095
20
-63.9980414
11
347.4632705
21
-82.477453
0
LINE
8
0
10
349.7448694
20
-180.5202042
11
362.1572421
21
-166.7348677
0
LINE
8
0
10
362.1572421
20
-166.7348677
11
348.3719056
21
-154.322495
0
LINE
8
0
10
348.3719056
20
-154.322495
11
335.9595329
21
-168.1078315
0
LINE
8
0
10
335.9595329
20
-168.1078315
11
349.7448694
21
-180.5202042
0
LINE
8
0
10
335.5879605
20
-167.7732661
11
348.0003332
21
-153.9879296
0
LINE
8
0
10
348.0003332
20
-153.9879296
11
334.2149967
21
-141.5755569
0
LINE
8
0
10
334.2149967
20
-141.5755569
11
321.802624
21
-155.3608934
0
LINE
8
0
10
321.802624
20
-155.3608934
11
335.5879605
21
-167.7732661
0
LINE
8
0
10
362.4918075
20
-166.3632952
11
374.9041802
21
-152.5779587
0
LINE
8
0
10
374.9041802
20
-152.5779587
11
361.1188437
21
-140.165586
0
LINE
8
0
10
361.1188437
20
-140.165586
11
348.706471
21
-153.9509225
0
LINE
8
0
10
348.706471
20
-153.9509225
11
362.4918075
21
-166.3632952
0
LINE
8
0
10
348.3348985
20
-153.6163572
11
360.7472712
21
-139.8310207
0
LINE
8
0
10
360.7472712
20
-139.8310207
11
346.9619347
21
-127.418648
0
LINE
8
0
10
346.9619347
20
-127.418648
11
334.549562
21
-141.2039845
0
LINE
8
0
10
334.549562
20
-141.2039845
11
348.3348985
21
-153.6163572
0
LINE
8
0
10
392.582389
20
-161.4140971
11
404.9947617
21
-147.6287606
0
LINE
8
0
10
404.9947617
20
-147.6287606
11
391.2094252
21
-135.2163879
0
LINE
8
0
10
391.2094252
20
-135.2163879
11
378.7970525
21
-149.0017244
0
LINE
8
0
10
378.7970525
20
-149.0017244
11
392.582389
21
-161.4140971
0
LINE
8
0
10
378.42548
20
-148.6671591
11
390.8378527
21
-134.8818226
0
LINE
8
0
10
390.8378527
20
-134.8818226
11
377.0525162
21
-122.4694499
0
LINE
8
0
10
377.0525162
20
-122.4694499
11
364.6401435
21
-136.2547864
0
LINE
8
0
10
364.6401435
20
-136.2547864
11
378.42548
21
-148.6671591
0
LINE
8
0
10
405.329327
20
-147.2571882
11
417.7416997
21
-133.4718517
0
LINE
8
0
10
417.7416997
20
-133.4718517
11
403.9563632
21
-121.059479
0
LINE
8
0
10
403.9563632
20
-121.059479
11
391.5439905
21
-134.8448155
0
LINE
8
0
10
391.5439905
20
-134.8448155
11
405.329327
21
-147.2571882
0
LINE
8
0
10
391.172418
20
-134.5102501
11
403.5847907
21
-120.7249136
0
LINE
8
0
10
403.5847907
20
-120.7249136
11
389.7994542
21
-108.3125409
0
LINE
8
0
10
389.7994542
20
-108.3125409
11
377.3870815
21
-122.0978774
0
LINE
8
0
10
377.3870815
20
-122.0978774
11
391.172418
21
-134.5102501
0
LINE
8
0
10
374.2692172
20
-103.9454374
11
392.7486288
21
-105.5621764
0
LINE
8
0
10
392.7486288
20
-105.5621764
11
394.3653678
21
-87.0827648
0
LINE
8
0
10
394.3653678
20
-87.0827648
11
375.8859562
21
-85.4660258
0
LINE
8
0
10
375.8859562
20
-85.4660258
11
374.2692172
21
-103.9454374
0
LINE
8
0
10
375.9295341
20
-84.9679284
11
394.4089457
21
-86.5846674
0
LINE
8
0
10
394.4089457
20
-86.5846674
11
396.0256847
21
-68.1052558
0
LINE
8
0
10
396.0256847
20
-68.1052558
11
377.5462731
21
-66.4885168
0
LINE
8
0
10
377.5462731
20
-66.4885168
11
375.9295341
21
-84.9679284
0
LINE
8
0
10
393.2467262
20
-105.6057543
11
411.7261378
21
-107.2224933
0
LINE
8
0
10
411.7261378
20
-107.2224933
11
413.3428768
21
-88.7430817
0
LINE
8
0
10
413.3428768
20
-88.7430817
11
394.8634652
21
-87.1263427
0
LINE
8
0
10
394.8634652
20
-87.1263427
11
393.2467262
21
-105.6057543
0
LINE
8
0
10
394.9070431
20
-86.6282453
11
413.3864547
21
-88.2449843
0
LINE
8
0
10
413.3864547
20
-88.2449843
11
415.0031937
21
-69.7655727
0
LINE
8
0
10
415.0031937
20
-69.7655727
11
396.5237821
21
-68.1488337
0
LINE
8
0
10
396.5237821
20
-68.1488337
11
394.9070431
21
-86.6282453
0
LINE
8
0
10
412.2242352
20
-107.2660712
11
430.7036468
21
-108.8828102
0
LINE
8
0
10
430.7036468
20
-108.8828102
11
432.3203858
21
-90.4033986
0
LINE
8
0
10
432.3203858
20
-90.4033986
11
413.8409742
21
-88.7866596
0
LINE
8
0
10
413.8409742
20
-88.7866596
11
412.2242352
21
-107.2660712
0
LINE
8
0
10
413.8845521
20
-88.2885622
11
432.3639637
21
-89.9053012
0
LINE
8
0
10
432.3639637
20
-89.9053012
11
433.9807027
21
-71.4258896
0
LINE
8
0
10
433.9807027
20
-71.4258896
11
415.5012911
21
-69.8091506
0
LINE
8
0
10
415.5012911
20
-69.8091506
11
413.8845521
21
-88.2885622
0
ENDSEC
0
EOF