0
SECTION
2
HEADER
9
$INSUNITS
70
4
0
ENDSEC
0
SECTION
2
TABLES
0
TABLE
2
LTYPE
0
LTYPE
72
65
70
64
2
CONTINUOUS
3
______
73
0
40
0
0
ENDTAB
0
TABLE
2
LAYER
0
ENDTAB
0
ENDSEC
0
SECTION
2
ENTITIES
0
LINE
8
0
10
15.75
20
-159.25
11
34.25
21
-159.25
0
LINE
8
0
10
34.25
20
-159.25
11
34.25
21
-140.75
0
LINE
8
0
10
34.25
20
-140.75
11
15.75
21
-140.75
0
LINE
8
0
10
15.75
20
-140.75
11
15.75
21
-159.25
0
LINE
8
0
10
15.75
20
-140.25
11
34.25
21
-140.25
0
LINE
8
0
10
34.25
20
-140.25
11
34.25
21
-121.75
0
LINE
8
0
10
34.25
20
-121.75
11
15.75
21
-121.75
0
LINE
8
0
10
15.75
20
-121.75
11
15.75
21
-140.25
0
LINE
8
0
10
15.75
20
-121.25
11
34.25
21
-121.25
0
LINE
8
0
10
34.25
20
-121.25
11
34.25
21
-102.75
0
LINE
8
0
10
34.25
20
-102.75
11
15.75
21
-102.75
0
LINE
8
0
10
15.75
20
-102.75
11
15.75
21
-121.25
0
LINE
8
0
10
15.75
20
-102.25
11
34.25
21
-102.25
0
LINE
8
0
10
34.25
20
-102.25
11
34.25
21
-83.75
0
LINE
8
0
10
34.25
20
-83.75
11
15.75
21
-83.75
0
LINE
8
0
10
15.75
20
-83.75
11
15.75
21
-102.25
0
LINE
8
0
10
15.75
20
-83.25
11
34.25
21
-83.25
0
LINE
8
0
10
34.25
20
-83.25
11
34.25
21
-64.75
0
LINE
8
0
10
34.25
20
-64.75
11
15.75
21
-64.75
0
LINE
8
0
10
15.75
20
-64.75
11
15.75
21
-83.25
0
LINE
8
0
10
15.75
20
-64.25
11
34.25
21
-64.25
0
LINE
8
0
10
34.25
20
-64.25
11
34.25
21
-45.75
0
LINE
8
0
10
34.25
20
-45.75
11
15.75
21
-45.75
0
LINE
8
0
10
15.75
20
-45.75
11
15.75
21
-64.25
0
LINE
8
0
10
34.75
20
-159.25
11
53.25
21
-159.25
0
LINE
8
0
10
53.25
20
-159.25
11
53.25
21
-140.75
0
LINE
8
0
10
53.25
20
-140.75
11
34.75
21
-140.75
0
LINE
8
0
10
34.75
20
-140.75
11
34.75
21
-159.25
0
LINE
8
0
10
44.275
20
-140.25
11
62.775
21
-140.25
0
LINE
8
0
10
62.775
20
-140.25
11
62.775
21
-121.75
0
LINE
8
0
10
62.775
20
-121.75
11
44.275
21
-121.75
0
LINE
8
0
10
44.275
20
-121.75
11
44.275
21
-140.25
0
LINE
8
0
10
44.275
20
-121.25
11
62.775
21
-121.25
0
LINE
8
0
10
62.775
20
-121.25
11
62.775
21
-102.75
0
LINE
8
0
10
62.775
20
-102.75
11
44.275
21
-102.75
0
LINE
8
0
10
44.275
20
-102.75
11
44.275
21
-121.25
0
LINE
8
0
10
44.275
20
-102.25
11
62.775
21
-102.25
0
LINE
8
0
10
62.775
20
-102.25
11
62.775
21
-83.75
0
LINE
8
0
10
62.775
20
-83.75
11
44.275
21
-83.75
0
LINE
8
0
10
44.275
20
-83.75
11
44.275
21
-102.25
0
LINE
8
0
10
34.75
20
-83.25
11
53.25
21
-83.25
0
LINE
8
0
10
53.25
20
-83.25
11
53.25
21
-64.75
0
LINE
8
0
10
53.25
20
-64.75
11
34.75
21
-64.75
0
LINE
8
0
10
34.75
20
-64.75
11
34.75
21
-83.25
0
LINE
8
0
10
53.75
20
-159.25
11
72.25
21
-159.25
0
LINE
8
0
10
72.25
20
-159.25
11
72.25
21
-140.75
0
LINE
8
0
10
72.25
20
-140.75
11
53.75
21
-140.75
0
LINE
8
0
10
53.75
20
-140.75
11
53.75
21
-159.25
0
LINE
8
0
10
63.275
20
-140.25
11
81.775
21
-140.25
0
LINE
8
0
10
81.775
20
-140.25
11
81.775
21
-121.75
0
LINE
8
0
10
81.775
20
-121.75
11
63.275
21
-121.75
0
LINE
8
0
10
63.275
20
-121.75
11
63.275
21
-140.25
0
LINE
8
0
10
63.275
20
-121.25
11
81.775
21
-121.25
0
LINE
8
0
10
81.775
20
-121.25
11
81.775
21
-102.75
0
LINE
8
0
10
81.775
20
-102.75
11
63.275
21
-102.75
0
LINE
8
0
10
63.275
20
-102.75
11
63.275
21
-121.25
0
LINE
8
0
10
63.275
20
-102.25
11
81.775
21
-102.25
0
LINE
8
0
10
81.775
20
-102.25
11
81.775
21
-83.75
0
LINE
8
0
10
81.775
20
-83.75
11
63.275
21
-83.75
0
LINE
8
0
10
63.275
20
-83.75
11
63.275
21
-102.25
0
LINE
8
0
10
53.75
20
-83.25
11
72.25
21
-83.25
0
LINE
8
0
10
72.25
20
-83.25
11
72.25
21
-64.75
0
LINE
8
0
10
72.25
20
-64.75
11
53.75
21
-64.75
0
LINE
8
0
10
53.75
20
-64.75
11
53.75
21
-83.25
0
LINE
8
0
10
53.75
20
-64.25
11
72.25
21
-64.25
0
LINE
8
0
10
72.25
20
-64.25
11
72.25
21
-45.75
0
LINE
8
0
10
72.25
20
-45.75
11
53.75
21
-45.75
0
LINE
8
0
10
53.75
20
-45.75
11
53.75
21
-64.25
0
LINE
8
0
10
72.75
20
-159.25
11
91.25
21
-159.25
0
LINE
8
0
10
91.25
20
-159.25
11
91.25
21
-140.75
0
LINE
8
0
10
91.25
20
-140.75
11
72.75
21
-140.75
0
LINE
8
0
10
72.75
20
-140.75
11
72.75
21
-159.25
0
LINE
8
0
10
82.275
20
-140.25
11
100.775
21
-140.25
0
LINE
8
0
10
100.775
20
-140.25
11
100.775
21
-121.75
0
LINE
8
0
10
100.775
20
-121.75
11
82.275
21
-121.75
0
LINE
8
0
10
82.275
20
-121.75
11
82.275
21
-140.25
0
LINE
8
0
10
82.275
20
-121.25
11
100.775
21
-121.25
0
LINE
8
0
10
100.775
20
-121.25
11
100.775
21
-102.75
0
LINE
8
0
10
100.775
20
-102.75
11
82.275
21
-102.75
0
LINE
8
0
10
82.275
20
-102.75
11
82.275
21
-121.25
0
LINE
8
0
10
82.275
20
-102.25
11
100.775
21
-102.25
0
LINE
8
0
10
100.775
20
-102.25
11
100.775
21
-83.75
0
LINE
8
0
10
100.775
20
-83.75
11
82.275
21
-83.75
0
LINE
8
0
10
82.275
20
-83.75
11
82.275
21
-102.25
0
LINE
8
0
10
72.75
20
-83.25
11
91.25
21
-83.25
0
LINE
8
0
10
91.25
20
-83.25
11
91.25
21
-64.75
0
LINE
8
0
10
91.25
20
-64.75
11
72.75
21
-64.75
0
LINE
8
0
10
72.75
20
-64.75
11
72.75
21
-83.25
0
LINE
8
0
10
72.75
20
-64.25
11
91.25
21
-64.25
0
LINE
8
0
10
91.25
20
-64.25
11
91.25
21
-45.75
0
LINE
8
0
10
91.25
20
-45.75
11
72.75
21
-45.75
0
LINE
8
0
10
72.75
20
-45.75
11
72.75
21
-64.25
0
LINE
8
0
10
110.8
20
-159.25
11
129.3
21
-159.25
0
LINE
8
0
10
129.3
20
-159.25
11
129.3
21
-140.75
0
LINE
8
0
10
129.3
20
-140.75
11
110.8
21
-140.75
0
LINE
8
0
10
110.8
20
-140.75
11
110.8
21
-159.25
0
LINE
8
0
10
101.275
20
-140.25
11
119.775
21
-140.25
0
LINE
8
0
10
119.775
20
-140.25
11
119.775
21
-121.75
0
LINE
8
0
10
119.775
20
-121.75
11
101.275
21
-121.75
0
LINE
8
0
10
101.275
20
-121.75
11
101.275
21
-140.25
0
LINE
8
0
10
101.275
20
-121.25
11
119.775
21
-121.25
0
LINE
8
0
10
119.775
20
-121.25
11
119.775
21
-102.75
0
LINE
8
0
10
119.775
20
-102.75
11
101.275
21
-102.75
0
LINE
8
0
10
101.275
20
-102.75
11
101.275
21
-121.25
0
LINE
8
0
10
101.275
20
-102.25
11
119.775
21
-102.25
0
LINE
8
0
10
119.775
20
-102.25
11
119.775
21
-83.75
0
LINE
8
0
10
119.775
20
-83.75
11
101.275
21
-83.75
0
LINE
8
0
10
101.275
20
-83.75
11
101.275
21
-102.25
0
LINE
8
0
10
91.75
20
-83.25
11
110.25
21
-83.25
0
LINE
8
0
10
110.25
20
-83.25
11
110.25
21
-64.75
0
LINE
8
0
10
110.25
20
-64.75
11
91.75
21
-64.75
0
LINE
8
0
10
91.75
20
-64.75
11
91.75
21
-83.25
0
LINE
8
0
10
91.75
20
-64.25
11
110.25
21
-64.25
0
LINE
8
0
10
110.25
20
-64.25
11
110.25
21
-45.75
0
LINE
8
0
10
110.25
20
-45.75
11
91.75
21
-45.75
0
LINE
8
0
10
91.75
20
-45.75
11
91.75
21
-64.25
0
LINE
8
0
10
120.275
20
-140.25
11
138.775
21
-140.25
0
LINE
8
0
10
138.775
20
-140.25
11
138.775
21
-121.75
0
LINE
8
0
10
138.775
20
-121.75
11
120.275
21
-121.75
0
LINE
8
0
10
120.275
20
-121.75
11
120.275
21
-140.25
0
LINE
8
0
10
120.275
20
-121.25
11
138.775
21
-121.25
0
LINE
8
0
10
138.775
20
-121.25
11
138.775
21
-102.75
0
LINE
8
0
10
138.775
20
-102.75
11
120.275
21
-102.75
0
LINE
8
0
10
120.275
20
-102.75
11
120.275
21
-121.25
0
LINE
8
0
10
120.275
20
-102.25
11
138.775
21
-102.25
0
LINE
8
0
10
138.775
20
-102.25
11
138.775
21
-83.75
0
LINE
8
0
10
138.775
20
-83.75
11
120.275
21
-83.75
0
LINE
8
0
10
120.275
20
-83.75
11
120.275
21
-102.25
0
LINE
8
0
10
110.75
20
-83.25
11
129.25
21
-83.25
0
LINE
8
0
10
129.25
20
-83.25
11
129.25
21
-64.75
0
LINE
8
0
10
129.25
20
-64.75
11
110.75
21
-64.75
0
LINE
8
0
10
110.75
20
-64.75
11
110.75
21
-83.25
0
LINE
8
0
10
110.75
20
-64.25
11
129.25
21
-64.25
0
LINE
8
0
10
129.25
20
-64.25
11
129.25
21
-45.75
0
LINE
8
0
10
129.25
20
-45.75
11
110.75
21
-45.75
0
LINE
8
0
10
110.75
20
-45.75
11
110.75
21
-64.25
0
LINE
8
0
10
172.6625
20
-159.25
11
191.1625
21
-159.25
0
LINE
8
0
10
191.1625
20
-159.25
11
191.1625
21
-140.75
0
LINE
8
0
10
191.1625
20
-140.75
11
172.6625
21
-140.75
0
LINE
8
0
10
172.6625
20
-140.75
11
172.6625
21
-159.25
0
LINE
8
0
10
163.1375
20
-140.25
11
181.6375
21
-140.25
0
LINE
8
0
10
181.6375
20
-140.25
11
181.6375
21
-121.75
0
LINE
8
0
10
181.6375
20
-121.75
11
163.1375
21
-121.75
0
LINE
8
0
10
163.1375
20
-121.75
11
163.1375
21
-140.25
0
LINE
8
0
10
163.1375
20
-121.25
11
181.6375
21
-121.25
0
LINE
8
0
10
181.6375
20
-121.25
11
181.6375
21
-102.75
0
LINE
8
0
10
181.6375
20
-102.75
11
163.1375
21
-102.75
0
LINE
8
0
10
163.1375
20
-102.75
11
163.1375
21
-121.25
0
LINE
8
0
10
163.1375
20
-102.25
11
181.6375
21
-102.25
0
LINE
8
0
10
181.6375
20
-102.25
11
181.6375
21
-83.75
0
LINE
8
0
10
181.6375
20
-83.75
11
163.1375
21
-83.75
0
LINE
8
0
10
163.1375
20
-83.75
11
163.1375
21
-102.25
0
LINE
8
0
10
163.1375
20
-83.25
11
181.6375
21
-83.25
0
LINE
8
0
10
181.6375
20
-83.25
11
181.6375
21
-64.75
0
LINE
8
0
10
181.6375
20
-64.75
11
163.1375
21
-64.75
0
LINE
8
0
10
163.1375
20
-64.75
11
163.1375
21
-83.25
0
LINE
8
0
10
153.6125
20
-64.25
11
172.1125
21
-64.25
0
LINE
8
0
10
172.1125
20
-64.25
11
172.1125
21
-45.75
0
LINE
8
0
10
172.1125
20
-45.75
11
153.6125
21
-45.75
0
LINE
8
0
10
153.6125
20
-45.75
11
153.6125
21
-64.25
0
LINE
8
0
10
182.1375
20
-140.25
11
200.6375
21
-140.25
0
LINE
8
0
10
200.6375
20
-140.25
11
200.6375
21
-121.75
0
LINE
8
0
10
200.6375
20
-121.75
11
182.1375
21
-121.75
0
LINE
8
0
10
182.1375
20
-121.75
11
182.1375
21
-140.25
0
LINE
8
0
10
182.1375
20
-121.25
11
200.6375
21
-121.25
0
LINE
8
0
10
200.6375
20
-121.25
11
200.6375
21
-102.75
0
LINE
8
0
10
200.6375
20
-102.75
11
182.1375
21
-102.75
0
LINE
8
0
10
182.1375
20
-102.75
11
182.1375
21
-121.25
0
LINE
8
0
10
182.1375
20
-102.25
11
200.6375
21
-102.25
0
LINE
8
0
10
200.6375
20
-102.25
11
200.6375
21
-83.75
0
LINE
8
0
10
200.6375
20
-83.75
11
182.1375
21
-83.75
0
LINE
8
0
10
182.1375
20
-83.75
11
182.1375
21
-102.25
0
LINE
8
0
10
182.1375
20
-83.25
11
200.6375
21
-83.25
0
LINE
8
0
10
200.6375
20
-83.25
11
200.6375
21
-64.75
0
LINE
8
0
10
200.6375
20
-64.75
11
182.1375
21
-64.75
0
LINE
8
0
10
182.1375
20
-64.75
11
182.1375
21
-83.25
0
LINE
8
0
10
172.6125
20
-64.25
11
191.1125
21
-64.25
0
LINE
8
0
10
191.1125
20
-64.25
11
191.1125
21
-45.75
0
LINE
8
0
10
191.1125
20
-45.75
11
172.6125
21
-45.75
0
LINE
8
0
10
172.6125
20
-45.75
11
172.6125
21
-64.25
0
LINE
8
0
10
201.1375
20
-140.25
11
219.6375
21
-140.25
0
LINE
8
0
10
219.6375
20
-140.25
11
219.6375
21
-121.75
0
LINE
8
0
10
219.6375
20
-121.75
11
201.1375
21
-121.75
0
LINE
8
0
10
201.1375
20
-121.75
11
201.1375
21
-140.25
0
LINE
8
0
10
201.1375
20
-121.25
11
219.6375
21
-121.25
0
LINE
8
0
10
219.6375
20
-121.25
11
219.6375
21
-102.75
0
LINE
8
0
10
219.6375
20
-102.75
11
201.1375
21
-102.75
0
LINE
8
0
10
201.1375
20
-102.75
11
201.1375
21
-121.25
0
LINE
8
0
10
201.1375
20
-102.25
11
219.6375
21
-102.25
0
LINE
8
0
10
219.6375
20
-102.25
11
219.6375
21
-83.75
0
LINE
8
0
10
219.6375
20
-83.75
11
201.1375
21
-83.75
0
LINE
8
0
10
201.1375
20
-83.75
11
201.1375
21
-102.25
0
LINE
8
0
10
201.1375
20
-83.25
11
219.6375
21
-83.25
0
LINE
8
0
10
219.6375
20
-83.25
11
219.6375
21
-64.75
0
LINE
8
0
10
219.6375
20
-64.75
11
201.1375
21
-64.75
0
LINE
8
0
10
201.1375
20
-64.75
11
201.1375
21
-83.25
0
LINE
8
0
10
191.6125
20
-64.25
11
210.1125
21
-64.25
0
LINE
8
0
10
210.1125
20
-64.25
11
210.1125
21
-45.75
0
LINE
8
0
10
210.1125
20
-45.75
11
191.6125
21
-45.75
0
LINE
8
0
10
191.6125
20
-45.75
11
191.6125
21
-64.25
0
LINE
8
0
10
210.6125
20
-159.25
11
229.1125
21
-159.25
0
LINE
8
0
10
229.1125
20
-159.25
11
229.1125
21
-140.75
0
LINE
8
0
10
229.1125
20
-140.75
11
210.6125
21
-140.75
0
LINE
8
0
10
210.6125
20
-140.75
11
210.6125
21
-159.25
0
LINE
8
0
10
220.1375
20
-140.25
11
238.6375
21
-140.25
0
LINE
8
0
10
238.6375
20
-140.25
11
238.6375
21
-121.75
0
LINE
8
0
10
238.6375
20
-121.75
11
220.1375
21
-121.75
0
LINE
8
0
10
220.1375
20
-121.75
11
220.1375
21
-140.25
0
LINE
8
0
10
220.1375
20
-121.25
11
238.6375
21
-121.25
0
LINE
8
0
10
238.6375
20
-121.25
11
238.6375
21
-102.75
0
LINE
8
0
10
238.6375
20
-102.75
11
220.1375
21
-102.75
0
LINE
8
0
10
220.1375
20
-102.75
11
220.1375
21
-121.25
0
LINE
8
0
10
220.1375
20
-102.25
11
238.6375
21
-102.25
0
LINE
8
0
10
238.6375
20
-102.25
11
238.6375
21
-83.75
0
LINE
8
0
10
238.6375
20
-83.75
11
220.1375
21
-83.75
0
LINE
8
0
10
220.1375
20
-83.75
11
220.1375
21
-102.25
0
LINE
8
0
10
220.1375
20
-83.25
11
238.6375
21
-83.25
0
LINE
8
0
10
238.6375
20
-83.25
11
238.6375
21
-64.75
0
LINE
8
0
10
238.6375
20
-64.75
11
220.1375
21
-64.75
0
LINE
8
0
10
220.1375
20
-64.75
11
220.1375
21
-83.25
0
LINE
8
0
10
210.6125
20
-64.25
11
229.1125
21
-64.25
0
LINE
8
0
10
229.1125
20
-64.25
11
229.1125
21
-45.75
0
LINE
8
0
10
229.1125
20
-45.75
11
210.6125
21
-45.75
0
LINE
8
0
10
210.6125
20
-45.75
11
210.6125
21
-64.25
0
LINE
8
0
10
229.6125
20
-159.25
11
248.1125
21
-159.25
0
LINE
8
0
10
248.1125
20
-159.25
11
248.1125
21
-140.75
0
LINE
8
0
10
248.1125
20
-140.75
11
229.6125
21
-140.75
0
LINE
8
0
10
229.6125
20
-140.75
11
229.6125
21
-159.25
0
LINE
8
0
10
239.1375
20
-140.25
11
257.6375
21
-140.25
0
LINE
8
0
10
257.6375
20
-140.25
11
257.6375
21
-121.75
0
LINE
8
0
10
257.6375
20
-121.75
11
239.1375
21
-121.75
0
LINE
8
0
10
239.1375
20
-121.75
11
239.1375
21
-140.25
0
LINE
8
0
10
239.1375
20
-121.25
11
257.6375
21
-121.25
0
LINE
8
0
10
257.6375
20
-121.25
11
257.6375
21
-102.75
0
LINE
8
0
10
257.6375
20
-102.75
11
239.1375
21
-102.75
0
LINE
8
0
10
239.1375
20
-102.75
11
239.1375
21
-121.25
0
LINE
8
0
10
239.1375
20
-102.25
11
257.6375
21
-102.25
0
LINE
8
0
10
257.6375
20
-102.25
11
257.6375
21
-83.75
0
LINE
8
0
10
257.6375
20
-83.75
11
239.1375
21
-83.75
0
LINE
8
0
10
239.1375
20
-83.75
11
239.1375
21
-102.25
0
LINE
8
0
10
239.1375
20
-83.25
11
257.6375
21
-83.25
0
LINE
8
0
10
257.6375
20
-83.25
11
257.6375
21
-64.75
0
LINE
8
0
10
257.6375
20
-64.75
11
239.1375
21
-64.75
0
LINE
8
0
10
239.1375
20
-64.75
11
239.1375
21
-83.25
0
LINE
8
0
10
248.6125
20
-159.25
11
267.1125
21
-159.25
0
LINE
8
0
10
267.1125
20
-159.25
11
267.1125
21
-140.75
0
LINE
8
0
10
267.1125
20
-140.75
11
248.6125
21
-140.75
0
LINE
8
0
10
248.6125
20
-140.75
11
248.6125
21
-159.25
0
LINE
8
0
10
267.6625
20
-140.25
11
286.1625
21
-140.25
0
LINE
8
0
10
286.1625
20
-140.25
11
286.1625
21
-121.75
0
LINE
8
0
10
286.1625
20
-121.75
11
267.6625
21
-121.75
0
LINE
8
0
10
267.6625
20
-121.75
11
267.6625
21
-140.25
0
LINE
8
0
10
258.1375
20
-121.25
11
276.6375
21
-121.25
0
LINE
8
0
10
276.6375
20
-121.25
11
276.6375
21
-102.75
0
LINE
8
0
10
276.6375
20
-102.75
11
258.1375
21
-102.75
0
LINE
8
0
10
258.1375
20
-102.75
11
258.1375
21
-121.25
0
LINE
8
0
10
258.1375
20
-102.25
11
276.6375
21
-102.25
0
LINE
8
0
10
276.6375
20
-102.25
11
276.6375
21
-83.75
0
LINE
8
0
10
276.6375
20
-83.75
11
258.1375
21
-83.75
0
LINE
8
0
10
258.1375
20
-83.75
11
258.1375
21
-102.25
0
LINE
8
0
10
258.1375
20
-83.25
11
276.6375
21
-83.25
0
LINE
8
0
10
276.6375
20
-83.25
11
276.6375
21
-64.75
0
LINE
8
0
10
276.6375
20
-64.75
11
258.1375
21
-64.75
0
LINE
8
0
10
258.1375
20
-64.75
11
258.1375
21
-83.25
0
LINE
8
0
10
248.6125
20
-64.25
11
267.1125
21
-64.25
0
LINE
8
0
10
267.1125
20
-64.25
11
267.1125
21
-45.75
0
LINE
8
0
10
267.1125
20
-45.75
11
248.6125
21
-45.75
0
LINE
8
0
10
248.6125
20
-45.75
11
248.6125
21
-64.25
0
LINE
8
0
10
267.6125
20
-159.25
11
286.1125
21
-159.25
0
LINE
8
0
10
286.1125
20
-159.25
11
286.1125
21
-140.75
0
LINE
8
0
10
286.1125
20
-140.75
11
267.6125
21
-140.75
0
LINE
8
0
10
267.6125
20
-140.75
11
267.6125
21
-159.25
0
LINE
8
0
10
286.6625
20
-121.25
11
305.1625
21
-121.25
0
LINE
8
0
10
305.1625
20
-121.25
11
305.1625
21
-102.75
0
LINE
8
0
10
305.1625
20
-102.75
11
286.6625
21
-102.75
0
LINE
8
0
10
286.6625
20
-102.75
11
286.6625
21
-121.25
0
LINE
8
0
10
277.1375
20
-102.25
11
295.6375
21
-102.25
0
LINE
8
0
10
295.6375
20
-102.25
11
295.6375
21
-83.75
0
LINE
8
0
10
295.6375
20
-83.75
11
277.1375
21
-83.75
0
LINE
8
0
10
277.1375
20
-83.75
11
277.1375
21
-102.25
0
LINE
8
0
10
277.1375
20
-83.25
11
295.6375
21
-83.25
0
LINE
8
0
10
295.6375
20
-83.25
11
295.6375
21
-64.75
0
LINE
8
0
10
295.6375
20
-64.75
11
277.1375
21
-64.75
0
LINE
8
0
10
277.1375
20
-64.75
11
277.1375
21
-83.25
0
LINE
8
0
10
267.6125
20
-64.25
11
286.1125
21
-64.25
0
LINE
8
0
10
286.1125
20
-64.25
11
286.1125
21
-45.75
0
LINE
8
0
10
286.1125
20
-45.75
11
267.6125
21
-45.75
0
LINE
8
0
10
267.6125
20
-45.75
11
267.6125
21
-64.25
0
LINE
8
0
10
296.1375
20
-102.25
11
314.6375
21
-102.25
0
LINE
8
0
10
314.6375
20
-102.25
11
314.6375
21
-83.75
0
LINE
8
0
10
314.6375
20
-83.75
11
296.1375
21
-83.75
0
LINE
8
0
10
296.1375
20
-83.75
11
296.1375
21
-102.25
0
LINE
8
0
10
305.6625
20
-83.25
11
324.1625
21
-83.25
0
LINE
8
0
10
324.1625
20
-83.25
11
324.1625
21
-64.75
0
LINE
8
0
10
324.1625
20
-64.75
11
305.6625
21
-64.75
0
LINE
8
0
10
305.6625
20
-64.75
11
305.6625
21
-83.25
0
LINE
8
0
10
286.6125
20
-64.25
11
305.1125
21
-64.25
0
LINE
8
0
10
305.1125
20
-64.25
11
305.1125
21
-45.75
0
LINE
8
0
10
305.1125
20
-45.75
11
286.6125
21
-45.75
0
LINE
8
0
10
286.6125
20
-45.75
11
286.6125
21
-64.25
0
LINE
8
0
10
305.6125
20
-64.25
11
324.1125
21
-64.25
0
LINE
8
0
10
324.1125
20
-64.25
11
324.1125
21
-45.75
0
LINE
8
0
10
324.1125
20
-45.75
11
305.6125
21
-45.75
0
LINE
8
0
10
305.6125
20
-45.75
11
305.6125
21
-64.25
0
LINE
8
0
10
330.5025
20
-161.1764755
11
343.5839755
21
-148.095
0
LINE
8
0
10
343.5839755
20
-148.095
11
330.5025
21
-135.0135245
0
LINE
8
0
10
330.5025
20
-135.0135245
11
317.4210245
21
-148.095
0
LINE
8
0
10
317.4210245
20
-148.095
11
330.5025
21
-161.1764755
0
LINE
8
0
10
317.0674712
20
-147.7414467
11
330.1489467
21
-134.6599712
0
LINE
8
0
10
330.1489467
20
-134.6599712
11
317.0674712
21
-121.5784957
0
LINE
8
0
10
317.0674712
20
-121.5784957
11
303.9859957
21
-134.6599712
0
LINE
8
0
10
303.9859957
20
-134.6599712
11
317.0674712
21
-147.7414467
0
LINE
8
0
10
343.9375288
20
-147.7414467
11
357.0190043
21
-134.6599712
0
LINE
8
0
10
357.0190043
20
-134.6599712
11
343.9375288
21
-121.5784957
0
LINE
8
0
10
343.9375288
20
-121.5784957
11
330.8560533
21
-134.6599712
0
LINE
8
0
10
330.8560533
20
-134.6599712
11
343.9375288
21
-147.7414467
0
LINE
8
0
10
330.5025
20
-134.3064179
11
343.5839755
21
-121.2249424
0
LINE
8
0
10
343.5839755
20
-121.2249424
11
330.5025
21
-108.1434669
0
LINE
8
0
10
330.5025
20
-108.1434669
11
317.4210245
21
-121.2249424
0
LINE
8
0
10
317.4210245
20
-121.2249424
11
330.5025
21
-134.3064179
0
LINE
8
0
10
371.5518164
20
-138.985697
11
384.6332919
21
-125.9042215
0
LINE
8
0
10
384.6332919
20
-125.9042215
11
371.5518164
21
-112.822746
0
LINE
8
0
10
371.5518164
20
-112.822746
11
358.4703409
21
-125.9042215
0
LINE
8
0
10
358.4703409
20
-125.9042215
11
371.5518164
21
-138.985697
0
LINE
8
0
10
358.1167876
20
-125.5506682
11
371.1982631
21
-112.4691927
0
LINE
8
0
10
371.1982631
20
-112.4691927
11
358.1167876
21
-99.3877172
0
LINE
8
0
10
358.1167876
20
-99.3877172
11
345.0353121
21
-112.4691927
0
LINE
8
0
10
345.0353121
20
-112.4691927
11
358.1167876
21
-125.5506682
0
LINE
8
0
10
384.9868452
20
-125.5506682
11
398.0683207
21
-112.4691927
0
LINE
8
0
10
398.0683207
20
-112.4691927
11
384.9868452
21
-99.3877172
0
LINE
8
0
10
384.9868452
20
-99.3877172
11
371.9053697
21
-112.4691927
0
LINE
8
0
10
371.9053697
20
-112.4691927
11
384.9868452
21
-125.5506682
0
LINE
8
0
10
371.5518164
20
-112.1156394
11
384.6332919
21
-99.0341639
0
LINE
8
0
10
384.6332919
20
-99.0341639
11
371.5518164
21
-85.9526884
0
LINE
8
0
10
371.5518164
20
-85.9526884
11
358.4703409
21
-99.0341639
0
LINE
8
0
10
358.4703409
20
-99.0341639
11
371.5518164
21
-112.1156394
0
LINE
8
0
10
343.7125
20
-83.25
11
362.2125
21
-83.25
0
LINE
8
0
10
362.2125
20
-83.25
11
362.2125
21
-64.75
0
LINE
8
0
10
362.2125
20
-64.75
11
343.7125
21
-64.75
0
LINE
8
0
10
343.7125
20
-64.75
11
343.7125
21
-83.25
0
LINE
8
0
10
343.7125
20
-64.25
11
362.2125
21
-64.25
0
LINE
8
0
10
362.2125
20
-64.25
11
362.2125
21
-45.75
0
LINE
8
0
10
362.2125
20
-45.75
11
343.7125
21
-45.75
0
LINE
8
0
10
343.7125
20
-45.75
11
343.7125
21
-64.25
0
LINE
8
0
10
362.7125
20
-83.25
11
381.2125
21
-83.25
0
LINE
8
0
10
381.2125
20
-83.25
11
381.2125
21
-64.75
0
LINE
8
0
10
381.2125
20
-64.75
11
362.7125
21
-64.75
0
LINE
8
0
10
362.7125
20
-64.75
11
362.7125
21
-83.25
0
LINE
8
0
10
362.7125
20
-64.25
11
381.2125
21
-64.25
0
LINE
8
0
10
381.2125
20
-64.25
11
381.2125
21
-45.75
0
LINE
8
0
10
381.2125
20
-45.75
11
362.7125
21
-45.75
0
LINE
8
0
10
362.7125
20
-45.75
11
362.7125
21
-64.25
0
LINE
8
0
10
381.7125
20
-83.25
11
400.2125
21
-83.25
0
LINE
8
0
10
400.2125
20
-83.25
11
400.2125
21
-64.75
0
LINE
8
0
10
400.2125
20
-64.75
11
381.7125
21
-64.75
0
LINE
8
0
10
381.7125
20
-64.75
11
381.7125
21
-83.25
0
LINE
8
0
10
381.7125
20
-64.25
11
400.2125
21
-64.25
0
LINE
8
0
10
400.2125
20
-64.25
11
400.2125
21
-45.75
0
LINE
8
0
10
400.2125
20
-45.75
11
381.7125
21
-45.75
0
LINE
8
0
10
381.7125
20
-45.75
11
381.7125
21
-64.25
0
ENDSEC
0
EOF