0
SECTION
2
HEADER
9
$INSUNITS
70
4
0
ENDSEC
0
SECTION
2
TABLES
0
TABLE
2
LTYPE
0
LTYPE
72
65
70
64
2
CONTINUOUS
3
______
73
0
40
0
0
ENDTAB
0
TABLE
2
LAYER
0
ENDTAB
0
ENDSEC
0
SECTION
2
ENTITIES
0
LINE
8
0
10
28.3320647
20
-184.0347668
11
46.8813584
21
-183.8728895
0
LINE
8
0
10
46.8813584
20
-183.8728895
11
46.7194811
21
-165.3235958
0
LINE
8
0
10
46.7194811
20
-165.3235958
11
28.1701874
21
-165.4854731
0
LINE
8
0
10
28.1701874
20
-165.4854731
11
28.3320647
21
-184.0347668
0
LINE
8
0
10
22.9035246
20
-165.0314155
11
41.4528183
21
-164.8695382
0
LINE
8
0
10
41.4528183
20
-164.8695382
11
41.290941
21
-146.3202445
0
LINE
8
0
10
41.290941
20
-146.3202445
11
22.7416473
21
-146.4821218
0
LINE
8
0
10
22.7416473
20
-146.4821218
11
22.9035246
21
-165.0314155
0
LINE
8
0
10
22.7372841
20
-145.9821409
11
41.2865778
21
-145.8202636
0
LINE
8
0
10
41.2865778
20
-145.8202636
11
41.1247005
21
-127.2709699
0
LINE
8
0
10
41.1247005
20
-127.2709699
11
22.5754068
21
-127.4328472
0
LINE
8
0
10
22.5754068
20
-127.4328472
11
22.7372841
21
-145.9821409
0
LINE
8
0
10
22.5710436
20
-126.9328662
11
41.1203373
21
-126.7709889
0
LINE
8
0
10
41.1203373
20
-126.7709889
11
40.95846
21
-108.2216952
0
LINE
8
0
10
40.95846
20
-108.2216952
11
22.4091663
21
-108.3835725
0
LINE
8
0
10
22.4091663
20
-108.3835725
11
22.5710436
21
-126.9328662
0
LINE
8
0
10
27.6671027
20
-107.8376682
11
46.2163964
21
-107.6757909
0
LINE
8
0
10
46.2163964
20
-107.6757909
11
46.0545191
21
-89.1264972
0
LINE
8
0
10
46.0545191
20
-89.1264972
11
27.5052254
21
-89.2883745
0
LINE
8
0
10
27.5052254
20
-89.2883745
11
27.6671027
21
-107.8376682
0
LINE
8
0
10
27.5008622
20
-88.7883936
11
46.0501559
21
-88.6265163
0
LINE
8
0
10
46.0501559
20
-88.6265163
11
45.8882786
21
-70.0772226
0
LINE
8
0
10
45.8882786
20
-70.0772226
11
27.3389849
21
-70.2390999
0
LINE
8
0
10
27.3389849
20
-70.2390999
11
27.5008622
21
-88.7883936
0
LINE
8
0
10
47.3813394
20
-183.8685263
11
65.9306331
21
-183.706649
0
LINE
8
0
10
65.9306331
20
-183.706649
11
65.7687558
21
-165.1573553
0
LINE
8
0
10
65.7687558
20
-165.1573553
11
47.2194621
21
-165.3192326
0
LINE
8
0
10
47.2194621
20
-165.3192326
11
47.3813394
21
-183.8685263
0
LINE
8
0
10
47.2150989
20
-164.8192516
11
65.7643926
21
-164.6573743
0
LINE
8
0
10
65.7643926
20
-164.6573743
11
65.6025153
21
-146.1080806
0
LINE
8
0
10
65.6025153
20
-146.1080806
11
47.0532216
21
-146.2699579
0
LINE
8
0
10
47.0532216
20
-146.2699579
11
47.2150989
21
-164.8192516
0
LINE
8
0
10
47.0488584
20
-145.769977
11
65.5981521
21
-145.6080997
0
LINE
8
0
10
65.5981521
20
-145.6080997
11
65.4362748
21
-127.058806
0
LINE
8
0
10
65.4362748
20
-127.058806
11
46.8869811
21
-127.2206833
0
LINE
8
0
10
46.8869811
20
-127.2206833
11
47.0488584
21
-145.769977
0
LINE
8
0
10
46.8826179
20
-126.7207024
11
65.4319116
21
-126.5588251
0
LINE
8
0
10
65.4319116
20
-126.5588251
11
65.2700343
21
-108.0095314
0
LINE
8
0
10
65.2700343
20
-108.0095314
11
46.7207406
21
-108.1714087
0
LINE
8
0
10
46.7207406
20
-108.1714087
11
46.8826179
21
-126.7207024
0
LINE
8
0
10
46.7163774
20
-107.6714277
11
65.2656711
21
-107.5095504
0
LINE
8
0
10
65.2656711
20
-107.5095504
11
65.1037938
21
-88.9602567
0
LINE
8
0
10
65.1037938
20
-88.9602567
11
46.5545001
21
-89.122134
0
LINE
8
0
10
46.5545001
20
-89.122134
11
46.7163774
21
-107.6714277
0
LINE
8
0
10
66.2512836
20
-181.5404846
11
84.8005773
21
-181.7023619
0
LINE
8
0
10
84.8005773
20
-181.7023619
11
84.9624546
21
-163.1530682
0
LINE
8
0
10
84.9624546
20
-163.1530682
11
66.4131609
21
-162.9911909
0
LINE
8
0
10
66.4131609
20
-162.9911909
11
66.2512836
21
-181.5404846
0
LINE
8
0
10
66.4175241
20
-162.49121
11
84.9668178
21
-162.6530873
0
LINE
8
0
10
84.9668178
20
-162.6530873
11
85.1286951
21
-144.1037936
0
LINE
8
0
10
85.1286951
20
-144.1037936
11
66.5794014
21
-143.9419163
0
LINE
8
0
10
66.5794014
20
-143.9419163
11
66.4175241
21
-162.49121
0
LINE
8
0
10
66.5837646
20
-143.4419353
11
85.1330583
21
-143.6038126
0
LINE
8
0
10
85.1330583
20
-143.6038126
11
85.2949356
21
-125.0545189
0
LINE
8
0
10
85.2949356
20
-125.0545189
11
66.7456419
21
-124.8926416
0
LINE
8
0
10
66.7456419
20
-124.8926416
11
66.5837646
21
-143.4419353
0
LINE
8
0
10
66.750005
20
-124.3926607
11
85.2992987
21
-124.554538
0
LINE
8
0
10
85.2992987
20
-124.554538
11
85.461176
21
-106.0052443
0
LINE
8
0
10
85.461176
20
-106.0052443
11
66.9118823
21
-105.843367
0
LINE
8
0
10
66.9118823
20
-105.843367
11
66.750005
21
-124.3926607
0
LINE
8
0
10
66.9162455
20
-105.343386
11
85.4655392
21
-105.5052633
0
LINE
8
0
10
85.4655392
20
-105.5052633
11
85.6274165
21
-86.9559696
0
LINE
8
0
10
85.6274165
20
-86.9559696
11
67.0781228
21
-86.7940923
0
LINE
8
0
10
67.0781228
20
-86.7940923
11
66.9162455
21
-105.343386
0
LINE
8
0
10
67.0824859
20
-86.2941114
11
85.6317796
21
-86.4559887
0
LINE
8
0
10
85.6317796
20
-86.4559887
11
85.7936569
21
-67.906695
0
LINE
8
0
10
85.7936569
20
-67.906695
11
67.2443632
21
-67.7448177
0
LINE
8
0
10
67.2443632
20
-67.7448177
11
67.0824859
21
-86.2941114
0
LINE
8
0
10
85.1502574
20
-180.5420854
11
103.6939008
21
-181.0276678
0
LINE
8
0
10
103.6939008
20
-181.0276678
11
104.1794832
21
-162.4840244
0
LINE
8
0
10
104.1794832
20
-162.4840244
11
85.6358398
21
-161.998442
0
LINE
8
0
10
85.6358398
20
-161.998442
11
85.1502574
21
-180.5420854
0
LINE
8
0
10
85.6489283
20
-161.4986134
11
104.1925717
21
-161.9841958
0
LINE
8
0
10
104.1925717
20
-161.9841958
11
104.6781541
21
-143.4405524
0
LINE
8
0
10
104.6781541
20
-143.4405524
11
86.1345107
21
-142.95497
0
LINE
8
0
10
86.1345107
20
-142.95497
11
85.6489283
21
-161.4986134
0
LINE
8
0
10
86.1475991
20
-142.4551413
11
104.6912425
21
-142.9407237
0
LINE
8
0
10
104.6912425
20
-142.9407237
11
105.1768249
21
-124.3970803
0
LINE
8
0
10
105.1768249
20
-124.3970803
11
86.6331815
21
-123.9114979
0
LINE
8
0
10
86.6331815
20
-123.9114979
11
86.1475991
21
-142.4551413
0
LINE
8
0
10
86.64627
20
-123.4116692
11
105.1899134
21
-123.8972516
0
LINE
8
0
10
105.1899134
20
-123.8972516
11
105.6754958
21
-105.3536082
0
LINE
8
0
10
105.6754958
20
-105.3536082
11
87.1318524
21
-104.8680258
0
LINE
8
0
10
87.1318524
20
-104.8680258
11
86.64627
21
-123.4116692
0
LINE
8
0
10
87.1449408
20
-104.3681971
11
105.6885842
21
-104.8537795
0
LINE
8
0
10
105.6885842
20
-104.8537795
11
106.1741666
21
-86.3101361
0
LINE
8
0
10
106.1741666
20
-86.3101361
11
87.6305232
21
-85.8245537
0
LINE
8
0
10
87.6305232
20
-85.8245537
11
87.1449408
21
-104.3681971
0
LINE
8
0
10
87.6436117
20
-85.324725
11
106.1872551
21
-85.8103074
0
LINE
8
0
10
106.1872551
20
-85.8103074
11
106.6728375
21
-67.266664
0
LINE
8
0
10
106.6728375
20
-67.266664
11
88.1291941
21
-66.7810816
0
LINE
8
0
10
88.1291941
20
-66.7810816
11
87.6436117
21
-85.324725
0
LINE
8
0
10
104.8423727
20
-162.841117
11
123.3747172
21
-163.6502567
0
LINE
8
0
10
123.3747172
20
-163.6502567
11
124.1838569
21
-145.1179122
0
LINE
8
0
10
124.1838569
20
-145.1179122
11
105.6515124
21
-144.3087725
0
LINE
8
0
10
105.6515124
20
-144.3087725
11
104.8423727
21
-162.841117
0
LINE
8
0
10
105.6733221
20
-143.8092484
11
124.2056666
21
-144.6183881
0
LINE
8
0
10
124.2056666
20
-144.6183881
11
125.0148063
21
-126.0860436
0
LINE
8
0
10
125.0148063
20
-126.0860436
11
106.4824618
21
-125.2769039
0
LINE
8
0
10
106.4824618
20
-125.2769039
11
105.6733221
21
-143.8092484
0
LINE
8
0
10
106.5042714
20
-124.7773798
11
125.0366159
21
-125.5865195
0
LINE
8
0
10
125.0366159
20
-125.5865195
11
125.8457556
21
-107.054175
0
LINE
8
0
10
125.8457556
20
-107.054175
11
107.3134111
21
-106.2450353
0
LINE
8
0
10
107.3134111
20
-106.2450353
11
106.5042714
21
-124.7773798
0
LINE
8
0
10
107.3352208
20
-105.7455113
11
125.8675653
21
-106.554651
0
LINE
8
0
10
125.8675653
20
-106.554651
11
126.676705
21
-88.0223065
0
LINE
8
0
10
126.676705
20
-88.0223065
11
108.1443605
21
-87.2131668
0
LINE
8
0
10
108.1443605
20
-87.2131668
11
107.3352208
21
-105.7455113
0
LINE
8
0
10
108.1661702
20
-86.7136427
11
126.6985147
21
-87.5227824
0
LINE
8
0
10
126.6985147
20
-87.5227824
11
127.5076544
21
-68.9904379
0
LINE
8
0
10
127.5076544
20
-68.9904379
11
108.9753099
21
-68.1812982
0
LINE
8
0
10
108.9753099
20
-68.1812982
11
108.1661702
21
-86.7136427
0
LINE
8
0
10
121.4955408
20
-182.839449
11
140.0241783
21
-183.7294433
0
LINE
8
0
10
140.0241783
20
-183.7294433
11
140.9141726
21
-165.2008058
0
LINE
8
0
10
140.9141726
20
-165.2008058
11
122.3855351
21
-164.3108115
0
LINE
8
0
10
122.3855351
20
-164.3108115
11
121.4955408
21
-182.839449
0
LINE
8
0
10
123.9077967
20
-163.8833545
11
142.4364342
21
-164.7733488
0
LINE
8
0
10
142.4364342
20
-164.7733488
11
143.3264285
21
-146.2447113
0
LINE
8
0
10
143.3264285
20
-146.2447113
11
124.797791
21
-145.354717
0
LINE
8
0
10
124.797791
20
-145.354717
11
123.9077967
21
-163.8833545
0
LINE
8
0
10
124.8217801
20
-144.8552927
11
143.3504176
21
-145.745287
0
LINE
8
0
10
143.3504176
20
-145.745287
11
144.2404119
21
-127.2166495
0
LINE
8
0
10
144.2404119
20
-127.2166495
11
125.7117744
21
-126.3266552
0
LINE
8
0
10
125.7117744
20
-126.3266552
11
124.8217801
21
-144.8552927
0
LINE
8
0
10
125.7357634
20
-125.827231
11
144.2644009
21
-126.7172253
0
LINE
8
0
10
144.2644009
20
-126.7172253
11
145.1543952
21
-108.1885878
0
LINE
8
0
10
145.1543952
20
-108.1885878
11
126.6257577
21
-107.2985935
0
LINE
8
0
10
126.6257577
20
-107.2985935
11
125.7357634
21
-125.827231
0
LINE
8
0
10
126.6497468
20
-106.7991693
11
145.1783843
21
-107.6891636
0
LINE
8
0
10
145.1783843
20
-107.6891636
11
146.0683786
21
-89.1605261
0
LINE
8
0
10
146.0683786
20
-89.1605261
11
127.5397411
21
-88.2705318
0
LINE
8
0
10
127.5397411
20
-88.2705318
11
126.6497468
21
-106.7991693
0
LINE
8
0
10
127.5637301
20
-87.7711075
11
146.0923676
21
-88.6611018
0
LINE
8
0
10
146.0923676
20
-88.6611018
11
146.9823619
21
-70.1324643
0
LINE
8
0
10
146.9823619
20
-70.1324643
11
128.4537244
21
-69.24247
0
LINE
8
0
10
128.4537244
20
-69.24247
11
127.5637301
21
-87.7711075
0
LINE
8
0
10
177.8303949
20
-183.7208055
11
196.3590324
21
-182.8308112
0
LINE
8
0
10
196.3590324
20
-182.8308112
11
195.4690381
21
-164.3021737
0
LINE
8
0
10
195.4690381
20
-164.3021737
11
176.9404006
21
-165.192168
0
LINE
8
0
10
176.9404006
20
-165.192168
11
177.8303949
21
-183.7208055
0
LINE
8
0
10
175.4181389
20
-164.764711
11
193.9467764
21
-163.8747167
0
LINE
8
0
10
193.9467764
20
-163.8747167
11
193.0567821
21
-145.3460792
0
LINE
8
0
10
193.0567821
20
-145.3460792
11
174.5281446
21
-146.2360735
0
LINE
8
0
10
174.5281446
20
-146.2360735
11
175.4181389
21
-164.764711
0
LINE
8
0
10
174.5041555
20
-145.7366493
11
193.032793
21
-144.846655
0
LINE
8
0
10
193.032793
20
-144.846655
11
192.1427987
21
-126.3180175
0
LINE
8
0
10
192.1427987
20
-126.3180175
11
173.6141612
21
-127.2080118
0
LINE
8
0
10
173.6141612
20
-127.2080118
11
174.5041555
21
-145.7366493
0
LINE
8
0
10
173.5901722
20
-126.7085876
11
192.1188097
21
-125.8185933
0
LINE
8
0
10
192.1188097
20
-125.8185933
11
191.2288154
21
-107.2899558
0
LINE
8
0
10
191.2288154
20
-107.2899558
11
172.7001779
21
-108.1799501
0
LINE
8
0
10
172.7001779
20
-108.1799501
11
173.5901722
21
-126.7085876
0
LINE
8
0
10
172.6761888
20
-107.6805258
11
191.2048263
21
-106.7905315
0
LINE
8
0
10
191.2048263
20
-106.7905315
11
190.314832
21
-88.261894
0
LINE
8
0
10
190.314832
20
-88.261894
11
171.7861945
21
-89.1518883
0
LINE
8
0
10
171.7861945
20
-89.1518883
11
172.6761888
21
-107.6805258
0
LINE
8
0
10
171.7622055
20
-88.6524641
11
190.290843
21
-87.7624698
0
LINE
8
0
10
190.290843
20
-87.7624698
11
189.4008487
21
-69.2338323
0
LINE
8
0
10
189.4008487
20
-69.2338323
11
170.8722112
21
-70.1238266
0
LINE
8
0
10
170.8722112
20
-70.1238266
11
171.7622055
21
-88.6524641
0
LINE
8
0
10
194.4342062
20
-163.6010156
11
212.9628437
21
-162.7110213
0
LINE
8
0
10
212.9628437
20
-162.7110213
11
212.0728494
21
-144.1823838
0
LINE
8
0
10
212.0728494
20
-144.1823838
11
193.5442119
21
-145.0723781
0
LINE
8
0
10
193.5442119
20
-145.0723781
11
194.4342062
21
-163.6010156
0
LINE
8
0
10
193.5202228
20
-144.5729539
11
212.0488603
21
-143.6829596
0
LINE
8
0
10
212.0488603
20
-143.6829596
11
211.158866
21
-125.1543221
0
LINE
8
0
10
211.158866
20
-125.1543221
11
192.6302285
21
-126.0443164
0
LINE
8
0
10
192.6302285
20
-126.0443164
11
193.5202228
21
-144.5729539
0
LINE
8
0
10
192.6062394
20
-125.5448922
11
211.1348769
21
-124.6548979
0
LINE
8
0
10
211.1348769
20
-124.6548979
11
210.2448826
21
-106.1262604
0
LINE
8
0
10
210.2448826
20
-106.1262604
11
191.7162451
21
-107.0162547
0
LINE
8
0
10
191.7162451
20
-107.0162547
11
192.6062394
21
-125.5448922
0
LINE
8
0
10
191.6922561
20
-106.5168304
11
210.2208936
21
-105.6268361
0
LINE
8
0
10
210.2208936
20
-105.6268361
11
209.3308993
21
-87.0981986
0
LINE
8
0
10
209.3308993
20
-87.0981986
11
190.8022618
21
-87.9881929
0
LINE
8
0
10
190.8022618
20
-87.9881929
11
191.6922561
21
-106.5168304
0
LINE
8
0
10
190.7782727
20
-87.4887687
11
209.3069102
21
-86.5987744
0
LINE
8
0
10
209.3069102
20
-86.5987744
11
208.4169159
21
-68.0701369
0
LINE
8
0
10
208.4169159
20
-68.0701369
11
189.8882784
21
-68.9601312
0
LINE
8
0
10
189.8882784
20
-68.9601312
11
190.7782727
21
-87.4887687
0
LINE
8
0
10
214.1601654
20
-180.5608484
11
232.7015135
21
-179.9943589
0
LINE
8
0
10
232.7015135
20
-179.9943589
11
232.135024
21
-161.4530108
0
LINE
8
0
10
232.135024
20
-161.4530108
11
213.5936759
21
-162.0195003
0
LINE
8
0
10
213.5936759
20
-162.0195003
11
214.1601654
21
-180.5608484
0
LINE
8
0
10
213.5784067
20
-161.5197335
11
232.1197548
21
-160.953244
0
LINE
8
0
10
232.1197548
20
-160.953244
11
231.5532653
21
-142.4118959
0
LINE
8
0
10
231.5532653
20
-142.4118959
11
213.0119172
21
-142.9783854
0
LINE
8
0
10
213.0119172
20
-142.9783854
11
213.5784067
21
-161.5197335
0
LINE
8
0
10
212.996648
20
-142.4786186
11
231.5379961
21
-141.9121291
0
LINE
8
0
10
231.5379961
20
-141.9121291
11
230.9715066
21
-123.370781
0
LINE
8
0
10
230.9715066
20
-123.370781
11
212.4301585
21
-123.9372705
0
LINE
8
0
10
212.4301585
20
-123.9372705
11
212.996648
21
-142.4786186
0
LINE
8
0
10
212.4148893
20
-123.4375037
11
230.9562374
21
-122.8710142
0
LINE
8
0
10
230.9562374
20
-122.8710142
11
230.3897479
21
-104.3296661
0
LINE
8
0
10
230.3897479
20
-104.3296661
11
211.8483998
21
-104.8961556
0
LINE
8
0
10
211.8483998
20
-104.8961556
11
212.4148893
21
-123.4375037
0
LINE
8
0
10
211.8331306
20
-104.3963889
11
230.3744787
21
-103.8298994
0
LINE
8
0
10
230.3744787
20
-103.8298994
11
229.8079892
21
-85.2885513
0
LINE
8
0
10
229.8079892
20
-85.2885513
11
211.2666411
21
-85.8550408
0
LINE
8
0
10
211.2666411
20
-85.8550408
11
211.8331306
21
-104.3963889
0
LINE
8
0
10
211.2513718
20
-85.355274
11
229.7927199
21
-84.7887845
0
LINE
8
0
10
229.7927199
20
-84.7887845
11
229.2262304
21
-66.2474364
0
LINE
8
0
10
229.2262304
20
-66.2474364
11
210.6848823
21
-66.8139259
0
LINE
8
0
10
210.6848823
20
-66.8139259
11
211.2513718
21
-85.355274
0
LINE
8
0
10
233.0664487
20
-180.820316
11
251.6148595
21
-180.577504
0
LINE
8
0
10
251.6148595
20
-180.577504
11
251.3720475
21
-162.0290932
0
LINE
8
0
10
251.3720475
20
-162.0290932
11
232.8236367
21
-162.2719052
0
LINE
8
0
10
232.8236367
20
-162.2719052
11
233.0664487
21
-180.820316
0
LINE
8
0
10
232.817092
20
-161.771948
11
251.3655028
21
-161.529136
0
LINE
8
0
10
251.3655028
20
-161.529136
11
251.1226908
21
-142.9807252
0
LINE
8
0
10
251.1226908
20
-142.9807252
11
232.57428
21
-143.2235372
0
LINE
8
0
10
232.57428
20
-143.2235372
11
232.817092
21
-161.771948
0
LINE
8
0
10
232.5677352
20
-142.72358
11
251.116146
21
-142.480768
0
LINE
8
0
10
251.116146
20
-142.480768
11
250.873334
21
-123.9323572
0
LINE
8
0
10
250.873334
20
-123.9323572
11
232.3249232
21
-124.1751692
0
LINE
8
0
10
232.3249232
20
-124.1751692
11
232.5677352
21
-142.72358
0
LINE
8
0
10
232.3183785
20
-123.675212
11
250.8667893
21
-123.4324
0
LINE
8
0
10
250.8667893
20
-123.4324
11
250.6239773
21
-104.8839892
0
LINE
8
0
10
250.6239773
20
-104.8839892
11
232.0755665
21
-105.1268012
0
LINE
8
0
10
232.0755665
20
-105.1268012
11
232.3183785
21
-123.675212
0
LINE
8
0
10
232.0690217
20
-104.626844
11
250.6174325
21
-104.384032
0
LINE
8
0
10
250.6174325
20
-104.384032
11
250.3746205
21
-85.8356212
0
LINE
8
0
10
250.3746205
20
-85.8356212
11
231.8262097
21
-86.0784332
0
LINE
8
0
10
231.8262097
20
-86.0784332
11
232.0690217
21
-104.626844
0
LINE
8
0
10
231.819665
20
-85.578476
11
250.3680758
21
-85.335664
0
LINE
8
0
10
250.3680758
20
-85.335664
11
250.1252638
21
-66.7872532
0
LINE
8
0
10
250.1252638
20
-66.7872532
11
231.576853
21
-67.0300652
0
LINE
8
0
10
231.576853
20
-67.0300652
11
231.819665
21
-85.578476
0
LINE
8
0
10
251.9784139
20
-182.4096184
11
270.5282373
21
-182.4905578
0
LINE
8
0
10
270.5282373
20
-182.4905578
11
270.6091767
21
-163.9407344
0
LINE
8
0
10
270.6091767
20
-163.9407344
11
252.0593533
21
-163.859795
0
LINE
8
0
10
252.0593533
20
-163.859795
11
251.9784139
21
-182.4096184
0
LINE
8
0
10
252.0615349
20
-163.3597998
11
270.6113583
21
-163.4407392
0
LINE
8
0
10
270.6113583
20
-163.4407392
11
270.6922977
21
-144.8909158
0
LINE
8
0
10
270.6922977
20
-144.8909158
11
252.1424743
21
-144.8099764
0
LINE
8
0
10
252.1424743
20
-144.8099764
11
252.0615349
21
-163.3597998
0
LINE
8
0
10
252.144656
20
-144.3099812
11
270.6944794
21
-144.3909206
0
LINE
8
0
10
270.6944794
20
-144.3909206
11
270.7754188
21
-125.8410972
0
LINE
8
0
10
270.7754188
20
-125.8410972
11
252.2255954
21
-125.7601578
0
LINE
8
0
10
252.2255954
20
-125.7601578
11
252.144656
21
-144.3099812
0
LINE
8
0
10
252.227777
20
-125.2601625
11
270.7776004
21
-125.3411019
0
LINE
8
0
10
270.7776004
20
-125.3411019
11
270.8585398
21
-106.7912785
0
LINE
8
0
10
270.8585398
20
-106.7912785
11
252.3087164
21
-106.7103391
0
LINE
8
0
10
252.3087164
20
-106.7103391
11
252.227777
21
-125.2601625
0
LINE
8
0
10
252.3108981
20
-106.2103439
11
270.8607215
21
-106.2912833
0
LINE
8
0
10
270.8607215
20
-106.2912833
11
270.9416609
21
-87.7414599
0
LINE
8
0
10
270.9416609
20
-87.7414599
11
252.3918375
21
-87.6605205
0
LINE
8
0
10
252.3918375
20
-87.6605205
11
252.3108981
21
-106.2103439
0
LINE
8
0
10
271.0282325
20
-182.4927394
11
289.5780559
21
-182.5736788
0
LINE
8
0
10
289.5780559
20
-182.5736788
11
289.6589953
21
-164.0238554
0
LINE
8
0
10
289.6589953
20
-164.0238554
11
271.1091719
21
-163.942916
0
LINE
8
0
10
271.1091719
20
-163.942916
11
271.0282325
21
-182.4927394
0
LINE
8
0
10
276.4738025
20
-163.4663191
11
295.0236259
21
-163.5472585
0
LINE
8
0
10
295.0236259
20
-163.5472585
11
295.1045653
21
-144.9974351
0
LINE
8
0
10
295.1045653
20
-144.9974351
11
276.5547419
21
-144.9164957
0
LINE
8
0
10
276.5547419
20
-144.9164957
11
276.4738025
21
-163.4663191
0
LINE
8
0
10
271.1944746
20
-144.3931022
11
289.744298
21
-144.4740416
0
LINE
8
0
10
289.744298
20
-144.4740416
11
289.8252374
21
-125.9242182
0
LINE
8
0
10
289.8252374
20
-125.9242182
11
271.275414
21
-125.8432788
0
LINE
8
0
10
271.275414
20
-125.8432788
11
271.1944746
21
-144.3931022
0
LINE
8
0
10
271.2775956
20
-125.3432836
11
289.827419
21
-125.424223
0
LINE
8
0
10
289.827419
20
-125.424223
11
289.9083584
21
-106.8743996
0
LINE
8
0
10
289.9083584
20
-106.8743996
11
271.358535
21
-106.7934602
0
LINE
8
0
10
271.358535
20
-106.7934602
11
271.2775956
21
-125.3432836
0
LINE
8
0
10
271.3607167
20
-106.293465
11
289.9105401
21
-106.3744044
0
LINE
8
0
10
289.9105401
20
-106.3744044
11
289.9914795
21
-87.824581
0
LINE
8
0
10
289.9914795
20
-87.824581
11
271.4416561
21
-87.7436416
0
LINE
8
0
10
271.4416561
20
-87.7436416
11
271.3607167
21
-106.293465
0
LINE
8
0
10
271.4438377
20
-87.2436464
11
289.9936611
21
-87.3245858
0
LINE
8
0
10
289.9936611
20
-87.3245858
11
290.0746005
21
-68.7747624
0
LINE
8
0
10
290.0746005
20
-68.7747624
11
271.5247771
21
-68.693823
0
LINE
8
0
10
271.5247771
20
-68.693823
11
271.4438377
21
-87.2436464
0
LINE
8
0
10
295.6067423
20
-144.4996216
11
314.1565657
21
-144.580561
0
LINE
8
0
10
314.1565657
20
-144.580561
11
314.2375051
21
-126.0307376
0
LINE
8
0
10
314.2375051
20
-126.0307376
11
295.6876817
21
-125.9497982
0
LINE
8
0
10
295.6876817
20
-125.9497982
11
295.6067423
21
-144.4996216
0
LINE
8
0
10
290.3274144
20
-125.4264047
11
308.8772378
21
-125.5073441
0
LINE
8
0
10
308.8772378
20
-125.5073441
11
308.9581772
21
-106.9575207
0
LINE
8
0
10
308.9581772
20
-106.9575207
11
290.4083538
21
-106.8765813
0
LINE
8
0
10
290.4083538
20
-106.8765813
11
290.3274144
21
-125.4264047
0
LINE
8
0
10
290.4105354
20
-106.3765861
11
308.9603588
21
-106.4575255
0
LINE
8
0
10
308.9603588
20
-106.4575255
11
309.0412982
21
-87.9077021
0
LINE
8
0
10
309.0412982
20
-87.9077021
11
290.4914748
21
-87.8267627
0
LINE
8
0
10
290.4914748
20
-87.8267627
11
290.4105354
21
-106.3765861
0
LINE
8
0
10
290.4936565
20
-87.3267675
11
309.0434799
21
-87.4077069
0
LINE
8
0
10
309.0434799
20
-87.4077069
11
309.1244193
21
-68.8578835
0
LINE
8
0
10
309.1244193
20
-68.8578835
11
290.5745959
21
-68.7769441
0
LINE
8
0
10
290.5745959
20
-68.7769441
11
290.4936565
21
-87.3267675
0
LINE
8
0
10
309.377233
20
-125.5095257
11
327.9270564
21
-125.5904651
0
LINE
8
0
10
327.9270564
20
-125.5904651
11
328.0079958
21
-107.0406417
0
LINE
8
0
10
328.0079958
20
-107.0406417
11
309.4581724
21
-106.9597023
0
LINE
8
0
10
309.4581724
20
-106.9597023
11
309.377233
21
-125.5095257
0
LINE
8
0
10
314.822803
20
-106.4831054
11
333.3726264
21
-106.5640448
0
LINE
8
0
10
333.3726264
20
-106.5640448
11
333.4535658
21
-88.0142214
0
LINE
8
0
10
333.4535658
20
-88.0142214
11
314.9037424
21
-87.933282
0
LINE
8
0
10
314.9037424
20
-87.933282
11
314.822803
21
-106.4831054
0
LINE
8
0
10
309.5434751
20
-87.4098885
11
328.0932985
21
-87.4908279
0
LINE
8
0
10
328.0932985
20
-87.4908279
11
328.1742379
21
-68.9410045
0
LINE
8
0
10
328.1742379
20
-68.9410045
11
309.6244145
21
-68.8600651
0
LINE
8
0
10
309.6244145
20
-68.8600651
11
309.5434751
21
-87.4098885
0
LINE
8
0
10
328.5932938
20
-87.4930096
11
347.1431172
21
-87.573949
0
LINE
8
0
10
347.1431172
20
-87.573949
11
347.2240566
21
-69.0241256
0
LINE
8
0
10
347.2240566
20
-69.0241256
11
328.6742332
21
-68.9431862
0
LINE
8
0
10
328.6742332
20
-68.9431862
11
328.5932938
21
-87.4930096
0
LINE
8
0
10
333.5302631
20
-196.3945433
11
346.0026674
21
-182.663497
0
LINE
8
0
10
346.0026674
20
-182.663497
11
332.2716211
21
-170.1910927
0
LINE
8
0
10
332.2716211
20
-170.1910927
11
319.7992168
21
-183.922139
0
LINE
8
0
10
319.7992168
20
-183.922139
11
333.5302631
21
-196.3945433
0
LINE
8
0
10
319.4291078
20
-183.5859557
11
331.9015121
21
-169.8549094
0
LINE
8
0
10
331.9015121
20
-169.8549094
11
318.1704658
21
-157.3825051
0
LINE
8
0
10
318.1704658
20
-157.3825051
11
305.6980615
21
-171.1135514
0
LINE
8
0
10
305.6980615
20
-171.1135514
11
319.4291078
21
-183.5859557
0
LINE
8
0
10
346.3388508
20
-182.293388
11
358.8112551
21
-168.5623417
0
LINE
8
0
10
358.8112551
20
-168.5623417
11
345.0802088
21
-156.0899374
0
LINE
8
0
10
345.0802088
20
-156.0899374
11
332.6078045
21
-169.8209837
0
LINE
8
0
10
332.6078045
20
-169.8209837
11
346.3388508
21
-182.293388
0
LINE
8
0
10
332.2376955
20
-169.4848003
11
344.7100998
21
-155.753754
0
LINE
8
0
10
344.7100998
20
-155.753754
11
330.9790535
21
-143.2813497
0
LINE
8
0
10
330.9790535
20
-143.2813497
11
318.5066492
21
-157.012396
0
LINE
8
0
10
318.5066492
20
-157.012396
11
332.2376955
21
-169.4848003
0
LINE
8
0
10
362.3495855
20
-164.6669438
11
374.8219898
21
-150.9358975
0
LINE
8
0
10
374.8219898
20
-150.9358975
11
361.0909435
21
-138.4634932
0
LINE
8
0
10
361.0909435
20
-138.4634932
11
348.6185392
21
-152.1945395
0
LINE
8
0
10
348.6185392
20
-152.1945395
11
362.3495855
21
-164.6669438
0
LINE
8
0
10
348.2484301
20
-151.8583561
11
360.7208344
21
-138.1273098
0
LINE
8
0
10
360.7208344
20
-138.1273098
11
346.9897881
21
-125.6549055
0
LINE
8
0
10
346.9897881
20
-125.6549055
11
334.5173838
21
-139.3859518
0
LINE
8
0
10
334.5173838
20
-139.3859518
11
348.2484301
21
-151.8583561
0
LINE
8
0
10
375.1581731
20
-150.5657885
11
387.6305774
21
-136.8347422
0
LINE
8
0
10
387.6305774
20
-136.8347422
11
373.8995311
21
-124.3623379
0
LINE
8
0
10
373.8995311
20
-124.3623379
11
361.4271268
21
-138.0933842
0
LINE
8
0
10
361.4271268
20
-138.0933842
11
375.1581731
21
-150.5657885
0
LINE
8
0
10
361.0570178
20
-137.7572008
11
373.5294221
21
-124.0261545
0
LINE
8
0
10
373.5294221
20
-124.0261545
11
359.7983758
21
-111.5537502
0
LINE
8
0
10
359.7983758
20
-111.5537502
11
347.3259715
21
-125.2847965
0
LINE
8
0
10
347.3259715
20
-125.2847965
11
361.0570178
21
-137.7572008
0
LINE
8
0
10
357.0849007
20
-106.6675098
11
375.6347241
21
-106.7484492
0
LINE
8
0
10
375.6347241
20
-106.7484492
11
375.7156635
21
-88.1986258
0
LINE
8
0
10
375.7156635
20
-88.1986258
11
357.1658401
21
-88.1176864
0
LINE
8
0
10
357.1658401
20
-88.1176864
11
357.0849007
21
-106.6675098
0
LINE
8
0
10
357.1680218
20
-87.6176912
11
375.7178452
21
-87.6986306
0
LINE
8
0
10
375.7178452
20
-87.6986306
11
375.7987846
21
-69.1488072
0
LINE
8
0
10
375.7987846
20
-69.1488072
11
357.2489612
21
-69.0678678
0
LINE
8
0
10
357.2489612
20
-69.0678678
11
357.1680218
21
-87.6176912
0
LINE
8
0
10
376.1347193
20
-106.7506308
11
394.6845427
21
-106.8315702
0
LINE
8
0
10
394.6845427
20
-106.8315702
11
394.7654821
21
-88.2817468
0
LINE
8
0
10
394.7654821
20
-88.2817468
11
376.2156587
21
-88.2008074
0
LINE
8
0
10
376.2156587
20
-88.2008074
11
376.1347193
21
-106.7506308
0
LINE
8
0
10
376.2178404
20
-87.7008122
11
394.7676638
21
-87.7817516
0
LINE
8
0
10
394.7676638
20
-87.7817516
11
394.8486032
21
-69.2319282
0
LINE
8
0
10
394.8486032
20
-69.2319282
11
376.2987798
21
-69.1509888
0
LINE
8
0
10
376.2987798
20
-69.1509888
11
376.2178404
21
-87.7008122
0
ENDSEC
0
EOF