0
SECTION
2
HEADER
9
$INSUNITS
70
4
0
ENDSEC
0
SECTION
2
TABLES
0
TABLE
2
LTYPE
0
LTYPE
72
65
70
64
2
CONTINUOUS
3
______
73
0
40
0
0
ENDTAB
0
TABLE
2
LAYER
0
ENDTAB
0
ENDSEC
0
SECTION
2
ENTITIES
0
LINE
8
0
10
18.75
20
-184.25
11
37.25
21
-184.25
0
LINE
8
0
10
37.25
20
-184.25
11
37.25
21
-165.75
0
LINE
8
0
10
37.25
20
-165.75
11
18.75
21
-165.75
0
LINE
8
0
10
18.75
20
-165.75
11
18.75
21
-184.25
0
LINE
8
0
10
18.75
20
-165.25
11
37.25
21
-165.25
0
LINE
8
0
10
37.25
20
-165.25
11
37.25
21
-146.75
0
LINE
8
0
10
37.25
20
-146.75
11
18.75
21
-146.75
0
LINE
8
0
10
18.75
20
-146.75
11
18.75
21
-165.25
0
LINE
8
0
10
18.75
20
-146.25
11
37.25
21
-146.25
0
LINE
8
0
10
37.25
20
-146.25
11
37.25
21
-127.75
0
LINE
8
0
10
37.25
20
-127.75
11
18.75
21
-127.75
0
LINE
8
0
10
18.75
20
-127.75
11
18.75
21
-146.25
0
LINE
8
0
10
18.75
20
-127.25
11
37.25
21
-127.25
0
LINE
8
0
10
37.25
20
-127.25
11
37.25
21
-108.75
0
LINE
8
0
10
37.25
20
-108.75
11
18.75
21
-108.75
0
LINE
8
0
10
18.75
20
-108.75
11
18.75
21
-127.25
0
LINE
8
0
10
18.75
20
-108.25
11
37.25
21
-108.25
0
LINE
8
0
10
37.25
20
-108.25
11
37.25
21
-89.75
0
LINE
8
0
10
37.25
20
-89.75
11
18.75
21
-89.75
0
LINE
8
0
10
18.75
20
-89.75
11
18.75
21
-108.25
0
LINE
8
0
10
18.75
20
-89.25
11
37.25
21
-89.25
0
LINE
8
0
10
37.25
20
-89.25
11
37.25
21
-70.75
0
LINE
8
0
10
37.25
20
-70.75
11
18.75
21
-70.75
0
LINE
8
0
10
18.75
20
-70.75
11
18.75
21
-89.25
0
LINE
8
0
10
37.75
20
-184.25
11
56.25
21
-184.25
0
LINE
8
0
10
56.25
20
-184.25
11
56.25
21
-165.75
0
LINE
8
0
10
56.25
20
-165.75
11
37.75
21
-165.75
0
LINE
8
0
10
37.75
20
-165.75
11
37.75
21
-184.25
0
LINE
8
0
10
47.275
20
-165.25
11
65.775
21
-165.25
0
LINE
8
0
10
65.775
20
-165.25
11
65.775
21
-146.75
0
LINE
8
0
10
65.775
20
-146.75
11
47.275
21
-146.75
0
LINE
8
0
10
47.275
20
-146.75
11
47.275
21
-165.25
0
LINE
8
0
10
47.275
20
-146.25
11
65.775
21
-146.25
0
LINE
8
0
10
65.775
20
-146.25
11
65.775
21
-127.75
0
LINE
8
0
10
65.775
20
-127.75
11
47.275
21
-127.75
0
LINE
8
0
10
47.275
20
-127.75
11
47.275
21
-146.25
0
LINE
8
0
10
47.275
20
-127.25
11
65.775
21
-127.25
0
LINE
8
0
10
65.775
20
-127.25
11
65.775
21
-108.75
0
LINE
8
0
10
65.775
20
-108.75
11
47.275
21
-108.75
0
LINE
8
0
10
47.275
20
-108.75
11
47.275
21
-127.25
0
LINE
8
0
10
37.75
20
-108.25
11
56.25
21
-108.25
0
LINE
8
0
10
56.25
20
-108.25
11
56.25
21
-89.75
0
LINE
8
0
10
56.25
20
-89.75
11
37.75
21
-89.75
0
LINE
8
0
10
37.75
20
-89.75
11
37.75
21
-108.25
0
LINE
8
0
10
56.75
20
-184.25
11
75.25
21
-184.25
0
LINE
8
0
10
75.25
20
-184.25
11
75.25
21
-165.75
0
LINE
8
0
10
75.25
20
-165.75
11
56.75
21
-165.75
0
LINE
8
0
10
56.75
20
-165.75
11
56.75
21
-184.25
0
LINE
8
0
10
66.275
20
-165.25
11
84.775
21
-165.25
0
LINE
8
0
10
84.775
20
-165.25
11
84.775
21
-146.75
0
LINE
8
0
10
84.775
20
-146.75
11
66.275
21
-146.75
0
LINE
8
0
10
66.275
20
-146.75
11
66.275
21
-165.25
0
LINE
8
0
10
66.275
20
-146.25
11
84.775
21
-146.25
0
LINE
8
0
10
84.775
20
-146.25
11
84.775
21
-127.75
0
LINE
8
0
10
84.775
20
-127.75
11
66.275
21
-127.75
0
LINE
8
0
10
66.275
20
-127.75
11
66.275
21
-146.25
0
LINE
8
0
10
66.275
20
-127.25
11
84.775
21
-127.25
0
LINE
8
0
10
84.775
20
-127.25
11
84.775
21
-108.75
0
LINE
8
0
10
84.775
20
-108.75
11
66.275
21
-108.75
0
LINE
8
0
10
66.275
20
-108.75
11
66.275
21
-127.25
0
LINE
8
0
10
56.75
20
-108.25
11
75.25
21
-108.25
0
LINE
8
0
10
75.25
20
-108.25
11
75.25
21
-89.75
0
LINE
8
0
10
75.25
20
-89.75
11
56.75
21
-89.75
0
LINE
8
0
10
56.75
20
-89.75
11
56.75
21
-108.25
0
LINE
8
0
10
56.75
20
-89.25
11
75.25
21
-89.25
0
LINE
8
0
10
75.25
20
-89.25
11
75.25
21
-70.75
0
LINE
8
0
10
75.25
20
-70.75
11
56.75
21
-70.75
0
LINE
8
0
10
56.75
20
-70.75
11
56.75
21
-89.25
0
LINE
8
0
10
75.75
20
-184.25
11
94.25
21
-184.25
0
LINE
8
0
10
94.25
20
-184.25
11
94.25
21
-165.75
0
LINE
8
0
10
94.25
20
-165.75
11
75.75
21
-165.75
0
LINE
8
0
10
75.75
20
-165.75
11
75.75
21
-184.25
0
LINE
8
0
10
85.275
20
-165.25
11
103.775
21
-165.25
0
LINE
8
0
10
103.775
20
-165.25
11
103.775
21
-146.75
0
LINE
8
0
10
103.775
20
-146.75
11
85.275
21
-146.75
0
LINE
8
0
10
85.275
20
-146.75
11
85.275
21
-165.25
0
LINE
8
0
10
85.275
20
-146.25
11
103.775
21
-146.25
0
LINE
8
0
10
103.775
20
-146.25
11
103.775
21
-127.75
0
LINE
8
0
10
103.775
20
-127.75
11
85.275
21
-127.75
0
LINE
8
0
10
85.275
20
-127.75
11
85.275
21
-146.25
0
LINE
8
0
10
85.275
20
-127.25
11
103.775
21
-127.25
0
LINE
8
0
10
103.775
20
-127.25
11
103.775
21
-108.75
0
LINE
8
0
10
103.775
20
-108.75
11
85.275
21
-108.75
0
LINE
8
0
10
85.275
20
-108.75
11
85.275
21
-127.25
0
LINE
8
0
10
75.75
20
-108.25
11
94.25
21
-108.25
0
LINE
8
0
10
94.25
20
-108.25
11
94.25
21
-89.75
0
LINE
8
0
10
94.25
20
-89.75
11
75.75
21
-89.75
0
LINE
8
0
10
75.75
20
-89.75
11
75.75
21
-108.25
0
LINE
8
0
10
75.75
20
-89.25
11
94.25
21
-89.25
0
LINE
8
0
10
94.25
20
-89.25
11
94.25
21
-70.75
0
LINE
8
0
10
94.25
20
-70.75
11
75.75
21
-70.75
0
LINE
8
0
10
75.75
20
-70.75
11
75.75
21
-89.25
0
LINE
8
0
10
113.8
20
-184.25
11
132.3
21
-184.25
0
LINE
8
0
10
132.3
20
-184.25
11
132.3
21
-165.75
0
LINE
8
0
10
132.3
20
-165.75
11
113.8
21
-165.75
0
LINE
8
0
10
113.8
20
-165.75
11
113.8
21
-184.25
0
LINE
8
0
10
104.275
20
-165.25
11
122.775
21
-165.25
0
LINE
8
0
10
122.775
20
-165.25
11
122.775
21
-146.75
0
LINE
8
0
10
122.775
20
-146.75
11
104.275
21
-146.75
0
LINE
8
0
10
104.275
20
-146.75
11
104.275
21
-165.25
0
LINE
8
0
10
104.275
20
-146.25
11
122.775
21
-146.25
0
LINE
8
0
10
122.775
20
-146.25
11
122.775
21
-127.75
0
LINE
8
0
10
122.775
20
-127.75
11
104.275
21
-127.75
0
LINE
8
0
10
104.275
20
-127.75
11
104.275
21
-146.25
0
LINE
8
0
10
104.275
20
-127.25
11
122.775
21
-127.25
0
LINE
8
0
10
122.775
20
-127.25
11
122.775
21
-108.75
0
LINE
8
0
10
122.775
20
-108.75
11
104.275
21
-108.75
0
LINE
8
0
10
104.275
20
-108.75
11
104.275
21
-127.25
0
LINE
8
0
10
94.75
20
-108.25
11
113.25
21
-108.25
0
LINE
8
0
10
113.25
20
-108.25
11
113.25
21
-89.75
0
LINE
8
0
10
113.25
20
-89.75
11
94.75
21
-89.75
0
LINE
8
0
10
94.75
20
-89.75
11
94.75
21
-108.25
0
LINE
8
0
10
94.75
20
-89.25
11
113.25
21
-89.25
0
LINE
8
0
10
113.25
20
-89.25
11
113.25
21
-70.75
0
LINE
8
0
10
113.25
20
-70.75
11
94.75
21
-70.75
0
LINE
8
0
10
94.75
20
-70.75
11
94.75
21
-89.25
0
LINE
8
0
10
123.275
20
-165.25
11
141.775
21
-165.25
0
LINE
8
0
10
141.775
20
-165.25
11
141.775
21
-146.75
0
LINE
8
0
10
141.775
20
-146.75
11
123.275
21
-146.75
0
LINE
8
0
10
123.275
20
-146.75
11
123.275
21
-165.25
0
LINE
8
0
10
123.275
20
-146.25
11
141.775
21
-146.25
0
LINE
8
0
10
141.775
20
-146.25
11
141.775
21
-127.75
0
LINE
8
0
10
141.775
20
-127.75
11
123.275
21
-127.75
0
LINE
8
0
10
123.275
20
-127.75
11
123.275
21
-146.25
0
LINE
8
0
10
123.275
20
-127.25
11
141.775
21
-127.25
0
LINE
8
0
10
141.775
20
-127.25
11
141.775
21
-108.75
0
LINE
8
0
10
141.775
20
-108.75
11
123.275
21
-108.75
0
LINE
8
0
10
123.275
20
-108.75
11
123.275
21
-127.25
0
LINE
8
0
10
113.75
20
-108.25
11
132.25
21
-108.25
0
LINE
8
0
10
132.25
20
-108.25
11
132.25
21
-89.75
0
LINE
8
0
10
132.25
20
-89.75
11
113.75
21
-89.75
0
LINE
8
0
10
113.75
20
-89.75
11
113.75
21
-108.25
0
LINE
8
0
10
113.75
20
-89.25
11
132.25
21
-89.25
0
LINE
8
0
10
132.25
20
-89.25
11
132.25
21
-70.75
0
LINE
8
0
10
132.25
20
-70.75
11
113.75
21
-70.75
0
LINE
8
0
10
113.75
20
-70.75
11
113.75
21
-89.25
0
LINE
8
0
10
175.6625
20
-184.25
11
194.1625
21
-184.25
0
LINE
8
0
10
194.1625
20
-184.25
11
194.1625
21
-165.75
0
LINE
8
0
10
194.1625
20
-165.75
11
175.6625
21
-165.75
0
LINE
8
0
10
175.6625
20
-165.75
11
175.6625
21
-184.25
0
LINE
8
0
10
166.1375
20
-165.25
11
184.6375
21
-165.25
0
LINE
8
0
10
184.6375
20
-165.25
11
184.6375
21
-146.75
0
LINE
8
0
10
184.6375
20
-146.75
11
166.1375
21
-146.75
0
LINE
8
0
10
166.1375
20
-146.75
11
166.1375
21
-165.25
0
LINE
8
0
10
166.1375
20
-146.25
11
184.6375
21
-146.25
0
LINE
8
0
10
184.6375
20
-146.25
11
184.6375
21
-127.75
0
LINE
8
0
10
184.6375
20
-127.75
11
166.1375
21
-127.75
0
LINE
8
0
10
166.1375
20
-127.75
11
166.1375
21
-146.25
0
LINE
8
0
10
166.1375
20
-127.25
11
184.6375
21
-127.25
0
LINE
8
0
10
184.6375
20
-127.25
11
184.6375
21
-108.75
0
LINE
8
0
10
184.6375
20
-108.75
11
166.1375
21
-108.75
0
LINE
8
0
10
166.1375
20
-108.75
11
166.1375
21
-127.25
0
LINE
8
0
10
166.1375
20
-108.25
11
184.6375
21
-108.25
0
LINE
8
0
10
184.6375
20
-108.25
11
184.6375
21
-89.75
0
LINE
8
0
10
184.6375
20
-89.75
11
166.1375
21
-89.75
0
LINE
8
0
10
166.1375
20
-89.75
11
166.1375
21
-108.25
0
LINE
8
0
10
156.6125
20
-89.25
11
175.1125
21
-89.25
0
LINE
8
0
10
175.1125
20
-89.25
11
175.1125
21
-70.75
0
LINE
8
0
10
175.1125
20
-70.75
11
156.6125
21
-70.75
0
LINE
8
0
10
156.6125
20
-70.75
11
156.6125
21
-89.25
0
LINE
8
0
10
185.1375
20
-165.25
11
203.6375
21
-165.25
0
LINE
8
0
10
203.6375
20
-165.25
11
203.6375
21
-146.75
0
LINE
8
0
10
203.6375
20
-146.75
11
185.1375
21
-146.75
0
LINE
8
0
10
185.1375
20
-146.75
11
185.1375
21
-165.25
0
LINE
8
0
10
185.1375
20
-146.25
11
203.6375
21
-146.25
0
LINE
8
0
10
203.6375
20
-146.25
11
203.6375
21
-127.75
0
LINE
8
0
10
203.6375
20
-127.75
11
185.1375
21
-127.75
0
LINE
8
0
10
185.1375
20
-127.75
11
185.1375
21
-146.25
0
LINE
8
0
10
185.1375
20
-127.25
11
203.6375
21
-127.25
0
LINE
8
0
10
203.6375
20
-127.25
11
203.6375
21
-108.75
0
LINE
8
0
10
203.6375
20
-108.75
11
185.1375
21
-108.75
0
LINE
8
0
10
185.1375
20
-108.75
11
185.1375
21
-127.25
0
LINE
8
0
10
185.1375
20
-108.25
11
203.6375
21
-108.25
0
LINE
8
0
10
203.6375
20
-108.25
11
203.6375
21
-89.75
0
LINE
8
0
10
203.6375
20
-89.75
11
185.1375
21
-89.75
0
LINE
8
0
10
185.1375
20
-89.75
11
185.1375
21
-108.25
0
LINE
8
0
10
175.6125
20
-89.25
11
194.1125
21
-89.25
0
LINE
8
0
10
194.1125
20
-89.25
11
194.1125
21
-70.75
0
LINE
8
0
10
194.1125
20
-70.75
11
175.6125
21
-70.75
0
LINE
8
0
10
175.6125
20
-70.75
11
175.6125
21
-89.25
0
LINE
8
0
10
204.1375
20
-165.25
11
222.6375
21
-165.25
0
LINE
8
0
10
222.6375
20
-165.25
11
222.6375
21
-146.75
0
LINE
8
0
10
222.6375
20
-146.75
11
204.1375
21
-146.75
0
LINE
8
0
10
204.1375
20
-146.75
11
204.1375
21
-165.25
0
LINE
8
0
10
204.1375
20
-146.25
11
222.6375
21
-146.25
0
LINE
8
0
10
222.6375
20
-146.25
11
222.6375
21
-127.75
0
LINE
8
0
10
222.6375
20
-127.75
11
204.1375
21
-127.75
0
LINE
8
0
10
204.1375
20
-127.75
11
204.1375
21
-146.25
0
LINE
8
0
10
204.1375
20
-127.25
11
222.6375
21
-127.25
0
LINE
8
0
10
222.6375
20
-127.25
11
222.6375
21
-108.75
0
LINE
8
0
10
222.6375
20
-108.75
11
204.1375
21
-108.75
0
LINE
8
0
10
204.1375
20
-108.75
11
204.1375
21
-127.25
0
LINE
8
0
10
204.1375
20
-108.25
11
222.6375
21
-108.25
0
LINE
8
0
10
222.6375
20
-108.25
11
222.6375
21
-89.75
0
LINE
8
0
10
222.6375
20
-89.75
11
204.1375
21
-89.75
0
LINE
8
0
10
204.1375
20
-89.75
11
204.1375
21
-108.25
0
LINE
8
0
10
194.6125
20
-89.25
11
213.1125
21
-89.25
0
LINE
8
0
10
213.1125
20
-89.25
11
213.1125
21
-70.75
0
LINE
8
0
10
213.1125
20
-70.75
11
194.6125
21
-70.75
0
LINE
8
0
10
194.6125
20
-70.75
11
194.6125
21
-89.25
0
LINE
8
0
10
213.6125
20
-184.25
11
232.1125
21
-184.25
0
LINE
8
0
10
232.1125
20
-184.25
11
232.1125
21
-165.75
0
LINE
8
0
10
232.1125
20
-165.75
11
213.6125
21
-165.75
0
LINE
8
0
10
213.6125
20
-165.75
11
213.6125
21
-184.25
0
LINE
8
0
10
223.1375
20
-165.25
11
241.6375
21
-165.25
0
LINE
8
0
10
241.6375
20
-165.25
11
241.6375
21
-146.75
0
LINE
8
0
10
241.6375
20
-146.75
11
223.1375
21
-146.75
0
LINE
8
0
10
223.1375
20
-146.75
11
223.1375
21
-165.25
0
LINE
8
0
10
223.1375
20
-146.25
11
241.6375
21
-146.25
0
LINE
8
0
10
241.6375
20
-146.25
11
241.6375
21
-127.75
0
LINE
8
0
10
241.6375
20
-127.75
11
223.1375
21
-127.75
0
LINE
8
0
10
223.1375
20
-127.75
11
223.1375
21
-146.25
0
LINE
8
0
10
223.1375
20
-127.25
11
241.6375
21
-127.25
0
LINE
8
0
10
241.6375
20
-127.25
11
241.6375
21
-108.75
0
LINE
8
0
10
241.6375
20
-108.75
11
223.1375
21
-108.75
0
LINE
8
0
10
223.1375
20
-108.75
11
223.1375
21
-127.25
0
LINE
8
0
10
223.1375
20
-108.25
11
241.6375
21
-108.25
0
LINE
8
0
10
241.6375
20
-108.25
11
241.6375
21
-89.75
0
LINE
8
0
10
241.6375
20
-89.75
11
223.1375
21
-89.75
0
LINE
8
0
10
223.1375
20
-89.75
11
223.1375
21
-108.25
0
LINE
8
0
10
213.6125
20
-89.25
11
232.1125
21
-89.25
0
LINE
8
0
10
232.1125
20
-89.25
11
232.1125
21
-70.75
0
LINE
8
0
10
232.1125
20
-70.75
11
213.6125
21
-70.75
0
LINE
8
0
10
213.6125
20
-70.75
11
213.6125
21
-89.25
0
LINE
8
0
10
232.6125
20
-184.25
11
251.1125
21
-184.25
0
LINE
8
0
10
251.1125
20
-184.25
11
251.1125
21
-165.75
0
LINE
8
0
10
251.1125
20
-165.75
11
232.6125
21
-165.75
0
LINE
8
0
10
232.6125
20
-165.75
11
232.6125
21
-184.25
0
LINE
8
0
10
242.1375
20
-165.25
11
260.6375
21
-165.25
0
LINE
8
0
10
260.6375
20
-165.25
11
260.6375
21
-146.75
0
LINE
8
0
10
260.6375
20
-146.75
11
242.1375
21
-146.75
0
LINE
8
0
10
242.1375
20
-146.75
11
242.1375
21
-165.25
0
LINE
8
0
10
242.1375
20
-146.25
11
260.6375
21
-146.25
0
LINE
8
0
10
260.6375
20
-146.25
11
260.6375
21
-127.75
0
LINE
8
0
10
260.6375
20
-127.75
11
242.1375
21
-127.75
0
LINE
8
0
10
242.1375
20
-127.75
11
242.1375
21
-146.25
0
LINE
8
0
10
242.1375
20
-127.25
11
260.6375
21
-127.25
0
LINE
8
0
10
260.6375
20
-127.25
11
260.6375
21
-108.75
0
LINE
8
0
10
260.6375
20
-108.75
11
242.1375
21
-108.75
0
LINE
8
0
10
242.1375
20
-108.75
11
242.1375
21
-127.25
0
LINE
8
0
10
242.1375
20
-108.25
11
260.6375
21
-108.25
0
LINE
8
0
10
260.6375
20
-108.25
11
260.6375
21
-89.75
0
LINE
8
0
10
260.6375
20
-89.75
11
242.1375
21
-89.75
0
LINE
8
0
10
242.1375
20
-89.75
11
242.1375
21
-108.25
0
LINE
8
0
10
251.6125
20
-184.25
11
270.1125
21
-184.25
0
LINE
8
0
10
270.1125
20
-184.25
11
270.1125
21
-165.75
0
LINE
8
0
10
270.1125
20
-165.75
11
251.6125
21
-165.75
0
LINE
8
0
10
251.6125
20
-165.75
11
251.6125
21
-184.25
0
LINE
8
0
10
270.6625
20
-165.25
11
289.1625
21
-165.25
0
LINE
8
0
10
289.1625
20
-165.25
11
289.1625
21
-146.75
0
LINE
8
0
10
289.1625
20
-146.75
11
270.6625
21
-146.75
0
LINE
8
0
10
270.6625
20
-146.75
11
270.6625
21
-165.25
0
LINE
8
0
10
261.1375
20
-146.25
11
279.6375
21
-146.25
0
LINE
8
0
10
279.6375
20
-146.25
11
279.6375
21
-127.75
0
LINE
8
0
10
279.6375
20
-127.75
11
261.1375
21
-127.75
0
LINE
8
0
10
261.1375
20
-127.75
11
261.1375
21
-146.25
0
LINE
8
0
10
261.1375
20
-127.25
11
279.6375
21
-127.25
0
LINE
8
0
10
279.6375
20
-127.25
11
279.6375
21
-108.75
0
LINE
8
0
10
279.6375
20
-108.75
11
261.1375
21
-108.75
0
LINE
8
0
10
261.1375
20
-108.75
11
261.1375
21
-127.25
0
LINE
8
0
10
261.1375
20
-108.25
11
279.6375
21
-108.25
0
LINE
8
0
10
279.6375
20
-108.25
11
279.6375
21
-89.75
0
LINE
8
0
10
279.6375
20
-89.75
11
261.1375
21
-89.75
0
LINE
8
0
10
261.1375
20
-89.75
11
261.1375
21
-108.25
0
LINE
8
0
10
251.6125
20
-89.25
11
270.1125
21
-89.25
0
LINE
8
0
10
270.1125
20
-89.25
11
270.1125
21
-70.75
0
LINE
8
0
10
270.1125
20
-70.75
11
251.6125
21
-70.75
0
LINE
8
0
10
251.6125
20
-70.75
11
251.6125
21
-89.25
0
LINE
8
0
10
270.6125
20
-184.25
11
289.1125
21
-184.25
0
LINE
8
0
10
289.1125
20
-184.25
11
289.1125
21
-165.75
0
LINE
8
0
10
289.1125
20
-165.75
11
270.6125
21
-165.75
0
LINE
8
0
10
270.6125
20
-165.75
11
270.6125
21
-184.25
0
LINE
8
0
10
289.6625
20
-146.25
11
308.1625
21
-146.25
0
LINE
8
0
10
308.1625
20
-146.25
11
308.1625
21
-127.75
0
LINE
8
0
10
308.1625
20
-127.75
11
289.6625
21
-127.75
0
LINE
8
0
10
289.6625
20
-127.75
11
289.6625
21
-146.25
0
LINE
8
0
10
280.1375
20
-127.25
11
298.6375
21
-127.25
0
LINE
8
0
10
298.6375
20
-127.25
11
298.6375
21
-108.75
0
LINE
8
0
10
298.6375
20
-108.75
11
280.1375
21
-108.75
0
LINE
8
0
10
280.1375
20
-108.75
11
280.1375
21
-127.25
0
LINE
8
0
10
280.1375
20
-108.25
11
298.6375
21
-108.25
0
LINE
8
0
10
298.6375
20
-108.25
11
298.6375
21
-89.75
0
LINE
8
0
10
298.6375
20
-89.75
11
280.1375
21
-89.75
0
LINE
8
0
10
280.1375
20
-89.75
11
280.1375
21
-108.25
0
LINE
8
0
10
270.6125
20
-89.25
11
289.1125
21
-89.25
0
LINE
8
0
10
289.1125
20
-89.25
11
289.1125
21
-70.75
0
LINE
8
0
10
289.1125
20
-70.75
11
270.6125
21
-70.75
0
LINE
8
0
10
270.6125
20
-70.75
11
270.6125
21
-89.25
0
LINE
8
0
10
299.1375
20
-127.25
11
317.6375
21
-127.25
0
LINE
8
0
10
317.6375
20
-127.25
11
317.6375
21
-108.75
0
LINE
8
0
10
317.6375
20
-108.75
11
299.1375
21
-108.75
0
LINE
8
0
10
299.1375
20
-108.75
11
299.1375
21
-127.25
0
LINE
8
0
10
308.6625
20
-108.25
11
327.1625
21
-108.25
0
LINE
8
0
10
327.1625
20
-108.25
11
327.1625
21
-89.75
0
LINE
8
0
10
327.1625
20
-89.75
11
308.6625
21
-89.75
0
LINE
8
0
10
308.6625
20
-89.75
11
308.6625
21
-108.25
0
LINE
8
0
10
289.6125
20
-89.25
11
308.1125
21
-89.25
0
LINE
8
0
10
308.1125
20
-89.25
11
308.1125
21
-70.75
0
LINE
8
0
10
308.1125
20
-70.75
11
289.6125
21
-70.75
0
LINE
8
0
10
289.6125
20
-70.75
11
289.6125
21
-89.25
0
LINE
8
0
10
308.6125
20
-89.25
11
327.1125
21
-89.25
0
LINE
8
0
10
327.1125
20
-89.25
11
327.1125
21
-70.75
0
LINE
8
0
10
327.1125
20
-70.75
11
308.6125
21
-70.75
0
LINE
8
0
10
308.6125
20
-70.75
11
308.6125
21
-89.25
0
LINE
8
0
10
333.5025
20
-186.1764755
11
346.5839755
21
-173.095
0
LINE
8
0
10
346.5839755
20
-173.095
11
333.5025
21
-160.0135245
0
LINE
8
0
10
333.5025
20
-160.0135245
11
320.4210245
21
-173.095
0
LINE
8
0
10
320.4210245
20
-173.095
11
333.5025
21
-186.1764755
0
LINE
8
0
10
320.0674712
20
-172.7414467
11
333.1489467
21
-159.6599712
0
LINE
8
0
10
333.1489467
20
-159.6599712
11
320.0674712
21
-146.5784957
0
LINE
8
0
10
320.0674712
20
-146.5784957
11
306.9859957
21
-159.6599712
0
LINE
8
0
10
306.9859957
20
-159.6599712
11
320.0674712
21
-172.7414467
0
LINE
8
0
10
346.9375288
20
-172.7414467
11
360.0190043
21
-159.6599712
0
LINE
8
0
10
360.0190043
20
-159.6599712
11
346.9375288
21
-146.5784957
0
LINE
8
0
10
346.9375288
20
-146.5784957
11
333.8560533
21
-159.6599712
0
LINE
8
0
10
333.8560533
20
-159.6599712
11
346.9375288
21
-172.7414467
0
LINE
8
0
10
333.5025
20
-159.3064179
11
346.5839755
21
-146.2249424
0
LINE
8
0
10
346.5839755
20
-146.2249424
11
333.5025
21
-133.1434669
0
LINE
8
0
10
333.5025
20
-133.1434669
11
320.4210245
21
-146.2249424
0
LINE
8
0
10
320.4210245
20
-146.2249424
11
333.5025
21
-159.3064179
0
LINE
8
0
10
374.5518164
20
-163.985697
11
387.6332919
21
-150.9042215
0
LINE
8
0
10
387.6332919
20
-150.9042215
11
374.5518164
21
-137.822746
0
LINE
8
0
10
374.5518164
20
-137.822746
11
361.4703409
21
-150.9042215
0
LINE
8
0
10
361.4703409
20
-150.9042215
11
374.5518164
21
-163.985697
0
LINE
8
0
10
361.1167876
20
-150.5506682
11
374.1982631
21
-137.4691927
0
LINE
8
0
10
374.1982631
20
-137.4691927
11
361.1167876
21
-124.3877172
0
LINE
8
0
10
361.1167876
20
-124.3877172
11
348.0353121
21
-137.4691927
0
LINE
8
0
10
348.0353121
20
-137.4691927
11
361.1167876
21
-150.5506682
0
LINE
8
0
10
387.9868452
20
-150.5506682
11
401.0683207
21
-137.4691927
0
LINE
8
0
10
401.0683207
20
-137.4691927
11
387.9868452
21
-124.3877172
0
LINE
8
0
10
387.9868452
20
-124.3877172
11
374.9053697
21
-137.4691927
0
LINE
8
0
10
374.9053697
20
-137.4691927
11
387.9868452
21
-150.5506682
0
LINE
8
0
10
374.5518164
20
-137.1156394
11
387.6332919
21
-124.0341639
0
LINE
8
0
10
387.6332919
20
-124.0341639
11
374.5518164
21
-110.9526884
0
LINE
8
0
10
374.5518164
20
-110.9526884
11
361.4703409
21
-124.0341639
0
LINE
8
0
10
361.4703409
20
-124.0341639
11
374.5518164
21
-137.1156394
0
LINE
8
0
10
346.7125
20
-108.25
11
365.2125
21
-108.25
0
LINE
8
0
10
365.2125
20
-108.25
11
365.2125
21
-89.75
0
LINE
8
0
10
365.2125
20
-89.75
11
346.7125
21
-89.75
0
LINE
8
0
10
346.7125
20
-89.75
11
346.7125
21
-108.25
0
LINE
8
0
10
346.7125
20
-89.25
11
365.2125
21
-89.25
0
LINE
8
0
10
365.2125
20
-89.25
11
365.2125
21
-70.75
0
LINE
8
0
10
365.2125
20
-70.75
11
346.7125
21
-70.75
0
LINE
8
0
10
346.7125
20
-70.75
11
346.7125
21
-89.25
0
LINE
8
0
10
365.7125
20
-108.25
11
384.2125
21
-108.25
0
LINE
8
0
10
384.2125
20
-108.25
11
384.2125
21
-89.75
0
LINE
8
0
10
384.2125
20
-89.75
11
365.7125
21
-89.75
0
LINE
8
0
10
365.7125
20
-89.75
11
365.7125
21
-108.25
0
LINE
8
0
10
365.7125
20
-89.25
11
384.2125
21
-89.25
0
LINE
8
0
10
384.2125
20
-89.25
11
384.2125
21
-70.75
0
LINE
8
0
10
384.2125
20
-70.75
11
365.7125
21
-70.75
0
LINE
8
0
10
365.7125
20
-70.75
11
365.7125
21
-89.25
0
LINE
8
0
10
384.7125
20
-108.25
11
403.2125
21
-108.25
0
LINE
8
0
10
403.2125
20
-108.25
11
403.2125
21
-89.75
0
LINE
8
0
10
403.2125
20
-89.75
11
384.7125
21
-89.75
0
LINE
8
0
10
384.7125
20
-89.75
11
384.7125
21
-108.25
0
LINE
8
0
10
384.7125
20
-89.25
11
403.2125
21
-89.25
0
LINE
8
0
10
403.2125
20
-89.25
11
403.2125
21
-70.75
0
LINE
8
0
10
403.2125
20
-70.75
11
384.7125
21
-70.75
0
LINE
8
0
10
384.7125
20
-70.75
11
384.7125
21
-89.25
0
ENDSEC
0
EOF