0
SECTION
2
HEADER
9
$INSUNITS
70
4
0
ENDSEC
0
SECTION
2
TABLES
0
TABLE
2
LTYPE
0
LTYPE
72
65
70
64
2
CONTINUOUS
3
______
73
0
40
0
0
ENDTAB
0
TABLE
2
LAYER
0
ENDTAB
0
ENDSEC
0
SECTION
2
ENTITIES
0
LINE
8
0
10
-9.25
20
-9.25
11
9.25
21
-9.25
0
LINE
8
0
10
9.25
20
-9.25
11
9.25
21
9.25
0
LINE
8
0
10
9.25
20
9.25
11
-9.25
21
9.25
0
LINE
8
0
10
-9.25
20
9.25
11
-9.25
21
-9.25
0
LINE
8
0
10
-9.25
20
9.75
11
9.25
21
9.75
0
LINE
8
0
10
9.25
20
9.75
11
9.25
21
28.25
0
LINE
8
0
10
9.25
20
28.25
11
-9.25
21
28.25
0
LINE
8
0
10
-9.25
20
28.25
11
-9.25
21
9.75
0
LINE
8
0
10
-9.25
20
28.75
11
9.25
21
28.75
0
LINE
8
0
10
9.25
20
28.75
11
9.25
21
47.25
0
LINE
8
0
10
9.25
20
47.25
11
-9.25
21
47.25
0
LINE
8
0
10
-9.25
20
47.25
11
-9.25
21
28.75
0
LINE
8
0
10
-9.25
20
47.75
11
9.25
21
47.75
0
LINE
8
0
10
9.25
20
47.75
11
9.25
21
66.25
0
LINE
8
0
10
9.25
20
66.25
11
-9.25
21
66.25
0
LINE
8
0
10
-9.25
20
66.25
11
-9.25
21
47.75
0
LINE
8
0
10
-9.25
20
66.75
11
9.25
21
66.75
0
LINE
8
0
10
9.25
20
66.75
11
9.25
21
85.25
0
LINE
8
0
10
9.25
20
85.25
11
-9.25
21
85.25
0
LINE
8
0
10
-9.25
20
85.25
11
-9.25
21
66.75
0
LINE
8
0
10
-9.25
20
85.75
11
9.25
21
85.75
0
LINE
8
0
10
9.25
20
85.75
11
9.25
21
104.25
0
LINE
8
0
10
9.25
20
104.25
11
-9.25
21
104.25
0
LINE
8
0
10
-9.25
20
104.25
11
-9.25
21
85.75
0
LINE
8
0
10
9.75
20
-9.25
11
28.25
21
-9.25
0
LINE
8
0
10
28.25
20
-9.25
11
28.25
21
9.25
0
LINE
8
0
10
28.25
20
9.25
11
9.75
21
9.25
0
LINE
8
0
10
9.75
20
9.25
11
9.75
21
-9.25
0
LINE
8
0
10
19.275
20
9.75
11
37.775
21
9.75
0
LINE
8
0
10
37.775
20
9.75
11
37.775
21
28.25
0
LINE
8
0
10
37.775
20
28.25
11
19.275
21
28.25
0
LINE
8
0
10
19.275
20
28.25
11
19.275
21
9.75
0
LINE
8
0
10
19.275
20
28.75
11
37.775
21
28.75
0
LINE
8
0
10
37.775
20
28.75
11
37.775
21
47.25
0
LINE
8
0
10
37.775
20
47.25
11
19.275
21
47.25
0
LINE
8
0
10
19.275
20
47.25
11
19.275
21
28.75
0
LINE
8
0
10
19.275
20
47.75
11
37.775
21
47.75
0
LINE
8
0
10
37.775
20
47.75
11
37.775
21
66.25
0
LINE
8
0
10
37.775
20
66.25
11
19.275
21
66.25
0
LINE
8
0
10
19.275
20
66.25
11
19.275
21
47.75
0
LINE
8
0
10
9.75
20
66.75
11
28.25
21
66.75
0
LINE
8
0
10
28.25
20
66.75
11
28.25
21
85.25
0
LINE
8
0
10
28.25
20
85.25
11
9.75
21
85.25
0
LINE
8
0
10
9.75
20
85.25
11
9.75
21
66.75
0
LINE
8
0
10
28.75
20
-9.25
11
47.25
21
-9.25
0
LINE
8
0
10
47.25
20
-9.25
11
47.25
21
9.25
0
LINE
8
0
10
47.25
20
9.25
11
28.75
21
9.25
0
LINE
8
0
10
28.75
20
9.25
11
28.75
21
-9.25
0
LINE
8
0
10
38.275
20
9.75
11
56.775
21
9.75
0
LINE
8
0
10
56.775
20
9.75
11
56.775
21
28.25
0
LINE
8
0
10
56.775
20
28.25
11
38.275
21
28.25
0
LINE
8
0
10
38.275
20
28.25
11
38.275
21
9.75
0
LINE
8
0
10
38.275
20
28.75
11
56.775
21
28.75
0
LINE
8
0
10
56.775
20
28.75
11
56.775
21
47.25
0
LINE
8
0
10
56.775
20
47.25
11
38.275
21
47.25
0
LINE
8
0
10
38.275
20
47.25
11
38.275
21
28.75
0
LINE
8
0
10
38.275
20
47.75
11
56.775
21
47.75
0
LINE
8
0
10
56.775
20
47.75
11
56.775
21
66.25
0
LINE
8
0
10
56.775
20
66.25
11
38.275
21
66.25
0
LINE
8
0
10
38.275
20
66.25
11
38.275
21
47.75
0
LINE
8
0
10
28.75
20
66.75
11
47.25
21
66.75
0
LINE
8
0
10
47.25
20
66.75
11
47.25
21
85.25
0
LINE
8
0
10
47.25
20
85.25
11
28.75
21
85.25
0
LINE
8
0
10
28.75
20
85.25
11
28.75
21
66.75
0
LINE
8
0
10
28.75
20
85.75
11
47.25
21
85.75
0
LINE
8
0
10
47.25
20
85.75
11
47.25
21
104.25
0
LINE
8
0
10
47.25
20
104.25
11
28.75
21
104.25
0
LINE
8
0
10
28.75
20
104.25
11
28.75
21
85.75
0
LINE
8
0
10
47.75
20
-9.25
11
66.25
21
-9.25
0
LINE
8
0
10
66.25
20
-9.25
11
66.25
21
9.25
0
LINE
8
0
10
66.25
20
9.25
11
47.75
21
9.25
0
LINE
8
0
10
47.75
20
9.25
11
47.75
21
-9.25
0
LINE
8
0
10
57.275
20
9.75
11
75.775
21
9.75
0
LINE
8
0
10
75.775
20
9.75
11
75.775
21
28.25
0
LINE
8
0
10
75.775
20
28.25
11
57.275
21
28.25
0
LINE
8
0
10
57.275
20
28.25
11
57.275
21
9.75
0
LINE
8
0
10
57.275
20
28.75
11
75.775
21
28.75
0
LINE
8
0
10
75.775
20
28.75
11
75.775
21
47.25
0
LINE
8
0
10
75.775
20
47.25
11
57.275
21
47.25
0
LINE
8
0
10
57.275
20
47.25
11
57.275
21
28.75
0
LINE
8
0
10
57.275
20
47.75
11
75.775
21
47.75
0
LINE
8
0
10
75.775
20
47.75
11
75.775
21
66.25
0
LINE
8
0
10
75.775
20
66.25
11
57.275
21
66.25
0
LINE
8
0
10
57.275
20
66.25
11
57.275
21
47.75
0
LINE
8
0
10
47.75
20
66.75
11
66.25
21
66.75
0
LINE
8
0
10
66.25
20
66.75
11
66.25
21
85.25
0
LINE
8
0
10
66.25
20
85.25
11
47.75
21
85.25
0
LINE
8
0
10
47.75
20
85.25
11
47.75
21
66.75
0
LINE
8
0
10
47.75
20
85.75
11
66.25
21
85.75
0
LINE
8
0
10
66.25
20
85.75
11
66.25
21
104.25
0
LINE
8
0
10
66.25
20
104.25
11
47.75
21
104.25
0
LINE
8
0
10
47.75
20
104.25
11
47.75
21
85.75
0
LINE
8
0
10
85.8
20
-9.25
11
104.3
21
-9.25
0
LINE
8
0
10
104.3
20
-9.25
11
104.3
21
9.25
0
LINE
8
0
10
104.3
20
9.25
11
85.8
21
9.25
0
LINE
8
0
10
85.8
20
9.25
11
85.8
21
-9.25
0
LINE
8
0
10
76.275
20
9.75
11
94.775
21
9.75
0
LINE
8
0
10
94.775
20
9.75
11
94.775
21
28.25
0
LINE
8
0
10
94.775
20
28.25
11
76.275
21
28.25
0
LINE
8
0
10
76.275
20
28.25
11
76.275
21
9.75
0
LINE
8
0
10
76.275
20
28.75
11
94.775
21
28.75
0
LINE
8
0
10
94.775
20
28.75
11
94.775
21
47.25
0
LINE
8
0
10
94.775
20
47.25
11
76.275
21
47.25
0
LINE
8
0
10
76.275
20
47.25
11
76.275
21
28.75
0
LINE
8
0
10
76.275
20
47.75
11
94.775
21
47.75
0
LINE
8
0
10
94.775
20
47.75
11
94.775
21
66.25
0
LINE
8
0
10
94.775
20
66.25
11
76.275
21
66.25
0
LINE
8
0
10
76.275
20
66.25
11
76.275
21
47.75
0
LINE
8
0
10
66.75
20
66.75
11
85.25
21
66.75
0
LINE
8
0
10
85.25
20
66.75
11
85.25
21
85.25
0
LINE
8
0
10
85.25
20
85.25
11
66.75
21
85.25
0
LINE
8
0
10
66.75
20
85.25
11
66.75
21
66.75
0
LINE
8
0
10
66.75
20
85.75
11
85.25
21
85.75
0
LINE
8
0
10
85.25
20
85.75
11
85.25
21
104.25
0
LINE
8
0
10
85.25
20
104.25
11
66.75
21
104.25
0
LINE
8
0
10
66.75
20
104.25
11
66.75
21
85.75
0
LINE
8
0
10
95.275
20
9.75
11
113.775
21
9.75
0
LINE
8
0
10
113.775
20
9.75
11
113.775
21
28.25
0
LINE
8
0
10
113.775
20
28.25
11
95.275
21
28.25
0
LINE
8
0
10
95.275
20
28.25
11
95.275
21
9.75
0
LINE
8
0
10
95.275
20
28.75
11
113.775
21
28.75
0
LINE
8
0
10
113.775
20
28.75
11
113.775
21
47.25
0
LINE
8
0
10
113.775
20
47.25
11
95.275
21
47.25
0
LINE
8
0
10
95.275
20
47.25
11
95.275
21
28.75
0
LINE
8
0
10
95.275
20
47.75
11
113.775
21
47.75
0
LINE
8
0
10
113.775
20
47.75
11
113.775
21
66.25
0
LINE
8
0
10
113.775
20
66.25
11
95.275
21
66.25
0
LINE
8
0
10
95.275
20
66.25
11
95.275
21
47.75
0
LINE
8
0
10
85.75
20
66.75
11
104.25
21
66.75
0
LINE
8
0
10
104.25
20
66.75
11
104.25
21
85.25
0
LINE
8
0
10
104.25
20
85.25
11
85.75
21
85.25
0
LINE
8
0
10
85.75
20
85.25
11
85.75
21
66.75
0
LINE
8
0
10
85.75
20
85.75
11
104.25
21
85.75
0
LINE
8
0
10
104.25
20
85.75
11
104.25
21
104.25
0
LINE
8
0
10
104.25
20
104.25
11
85.75
21
104.25
0
LINE
8
0
10
85.75
20
104.25
11
85.75
21
85.75
0
LINE
8
0
10
161.95
20
-9.25
11
180.45
21
-9.25
0
LINE
8
0
10
180.45
20
-9.25
11
180.45
21
9.25
0
LINE
8
0
10
180.45
20
9.25
11
161.95
21
9.25
0
LINE
8
0
10
161.95
20
9.25
11
161.95
21
-9.25
0
LINE
8
0
10
152.425
20
9.75
11
170.925
21
9.75
0
LINE
8
0
10
170.925
20
9.75
11
170.925
21
28.25
0
LINE
8
0
10
170.925
20
28.25
11
152.425
21
28.25
0
LINE
8
0
10
152.425
20
28.25
11
152.425
21
9.75
0
LINE
8
0
10
152.425
20
28.75
11
170.925
21
28.75
0
LINE
8
0
10
170.925
20
28.75
11
170.925
21
47.25
0
LINE
8
0
10
170.925
20
47.25
11
152.425
21
47.25
0
LINE
8
0
10
152.425
20
47.25
11
152.425
21
28.75
0
LINE
8
0
10
152.425
20
47.75
11
170.925
21
47.75
0
LINE
8
0
10
170.925
20
47.75
11
170.925
21
66.25
0
LINE
8
0
10
170.925
20
66.25
11
152.425
21
66.25
0
LINE
8
0
10
152.425
20
66.25
11
152.425
21
47.75
0
LINE
8
0
10
152.425
20
66.75
11
170.925
21
66.75
0
LINE
8
0
10
170.925
20
66.75
11
170.925
21
85.25
0
LINE
8
0
10
170.925
20
85.25
11
152.425
21
85.25
0
LINE
8
0
10
152.425
20
85.25
11
152.425
21
66.75
0
LINE
8
0
10
142.9
20
85.75
11
161.4
21
85.75
0
LINE
8
0
10
161.4
20
85.75
11
161.4
21
104.25
0
LINE
8
0
10
161.4
20
104.25
11
142.9
21
104.25
0
LINE
8
0
10
142.9
20
104.25
11
142.9
21
85.75
0
LINE
8
0
10
171.425
20
9.75
11
189.925
21
9.75
0
LINE
8
0
10
189.925
20
9.75
11
189.925
21
28.25
0
LINE
8
0
10
189.925
20
28.25
11
171.425
21
28.25
0
LINE
8
0
10
171.425
20
28.25
11
171.425
21
9.75
0
LINE
8
0
10
171.425
20
28.75
11
189.925
21
28.75
0
LINE
8
0
10
189.925
20
28.75
11
189.925
21
47.25
0
LINE
8
0
10
189.925
20
47.25
11
171.425
21
47.25
0
LINE
8
0
10
171.425
20
47.25
11
171.425
21
28.75
0
LINE
8
0
10
171.425
20
47.75
11
189.925
21
47.75
0
LINE
8
0
10
189.925
20
47.75
11
189.925
21
66.25
0
LINE
8
0
10
189.925
20
66.25
11
171.425
21
66.25
0
LINE
8
0
10
171.425
20
66.25
11
171.425
21
47.75
0
LINE
8
0
10
171.425
20
66.75
11
189.925
21
66.75
0
LINE
8
0
10
189.925
20
66.75
11
189.925
21
85.25
0
LINE
8
0
10
189.925
20
85.25
11
171.425
21
85.25
0
LINE
8
0
10
171.425
20
85.25
11
171.425
21
66.75
0
LINE
8
0
10
161.9
20
85.75
11
180.4
21
85.75
0
LINE
8
0
10
180.4
20
85.75
11
180.4
21
104.25
0
LINE
8
0
10
180.4
20
104.25
11
161.9
21
104.25
0
LINE
8
0
10
161.9
20
104.25
11
161.9
21
85.75
0
LINE
8
0
10
190.425
20
9.75
11
208.925
21
9.75
0
LINE
8
0
10
208.925
20
9.75
11
208.925
21
28.25
0
LINE
8
0
10
208.925
20
28.25
11
190.425
21
28.25
0
LINE
8
0
10
190.425
20
28.25
11
190.425
21
9.75
0
LINE
8
0
10
190.425
20
28.75
11
208.925
21
28.75
0
LINE
8
0
10
208.925
20
28.75
11
208.925
21
47.25
0
LINE
8
0
10
208.925
20
47.25
11
190.425
21
47.25
0
LINE
8
0
10
190.425
20
47.25
11
190.425
21
28.75
0
LINE
8
0
10
190.425
20
47.75
11
208.925
21
47.75
0
LINE
8
0
10
208.925
20
47.75
11
208.925
21
66.25
0
LINE
8
0
10
208.925
20
66.25
11
190.425
21
66.25
0
LINE
8
0
10
190.425
20
66.25
11
190.425
21
47.75
0
LINE
8
0
10
190.425
20
66.75
11
208.925
21
66.75
0
LINE
8
0
10
208.925
20
66.75
11
208.925
21
85.25
0
LINE
8
0
10
208.925
20
85.25
11
190.425
21
85.25
0
LINE
8
0
10
190.425
20
85.25
11
190.425
21
66.75
0
LINE
8
0
10
180.9
20
85.75
11
199.4
21
85.75
0
LINE
8
0
10
199.4
20
85.75
11
199.4
21
104.25
0
LINE
8
0
10
199.4
20
104.25
11
180.9
21
104.25
0
LINE
8
0
10
180.9
20
104.25
11
180.9
21
85.75
0
LINE
8
0
10
199.9
20
-9.25
11
218.4
21
-9.25
0
LINE
8
0
10
218.4
20
-9.25
11
218.4
21
9.25
0
LINE
8
0
10
218.4
20
9.25
11
199.9
21
9.25
0
LINE
8
0
10
199.9
20
9.25
11
199.9
21
-9.25
0
LINE
8
0
10
209.425
20
9.75
11
227.925
21
9.75
0
LINE
8
0
10
227.925
20
9.75
11
227.925
21
28.25
0
LINE
8
0
10
227.925
20
28.25
11
209.425
21
28.25
0
LINE
8
0
10
209.425
20
28.25
11
209.425
21
9.75
0
LINE
8
0
10
209.425
20
28.75
11
227.925
21
28.75
0
LINE
8
0
10
227.925
20
28.75
11
227.925
21
47.25
0
LINE
8
0
10
227.925
20
47.25
11
209.425
21
47.25
0
LINE
8
0
10
209.425
20
47.25
11
209.425
21
28.75
0
LINE
8
0
10
209.425
20
47.75
11
227.925
21
47.75
0
LINE
8
0
10
227.925
20
47.75
11
227.925
21
66.25
0
LINE
8
0
10
227.925
20
66.25
11
209.425
21
66.25
0
LINE
8
0
10
209.425
20
66.25
11
209.425
21
47.75
0
LINE
8
0
10
209.425
20
66.75
11
227.925
21
66.75
0
LINE
8
0
10
227.925
20
66.75
11
227.925
21
85.25
0
LINE
8
0
10
227.925
20
85.25
11
209.425
21
85.25
0
LINE
8
0
10
209.425
20
85.25
11
209.425
21
66.75
0
LINE
8
0
10
199.9
20
85.75
11
218.4
21
85.75
0
LINE
8
0
10
218.4
20
85.75
11
218.4
21
104.25
0
LINE
8
0
10
218.4
20
104.25
11
199.9
21
104.25
0
LINE
8
0
10
199.9
20
104.25
11
199.9
21
85.75
0
LINE
8
0
10
218.9
20
-9.25
11
237.4
21
-9.25
0
LINE
8
0
10
237.4
20
-9.25
11
237.4
21
9.25
0
LINE
8
0
10
237.4
20
9.25
11
218.9
21
9.25
0
LINE
8
0
10
218.9
20
9.25
11
218.9
21
-9.25
0
LINE
8
0
10
228.425
20
9.75
11
246.925
21
9.75
0
LINE
8
0
10
246.925
20
9.75
11
246.925
21
28.25
0
LINE
8
0
10
246.925
20
28.25
11
228.425
21
28.25
0
LINE
8
0
10
228.425
20
28.25
11
228.425
21
9.75
0
LINE
8
0
10
228.425
20
28.75
11
246.925
21
28.75
0
LINE
8
0
10
246.925
20
28.75
11
246.925
21
47.25
0
LINE
8
0
10
246.925
20
47.25
11
228.425
21
47.25
0
LINE
8
0
10
228.425
20
47.25
11
228.425
21
28.75
0
LINE
8
0
10
228.425
20
47.75
11
246.925
21
47.75
0
LINE
8
0
10
246.925
20
47.75
11
246.925
21
66.25
0
LINE
8
0
10
246.925
20
66.25
11
228.425
21
66.25
0
LINE
8
0
10
228.425
20
66.25
11
228.425
21
47.75
0
LINE
8
0
10
228.425
20
66.75
11
246.925
21
66.75
0
LINE
8
0
10
246.925
20
66.75
11
246.925
21
85.25
0
LINE
8
0
10
246.925
20
85.25
11
228.425
21
85.25
0
LINE
8
0
10
228.425
20
85.25
11
228.425
21
66.75
0
LINE
8
0
10
237.9
20
-9.25
11
256.4
21
-9.25
0
LINE
8
0
10
256.4
20
-9.25
11
256.4
21
9.25
0
LINE
8
0
10
256.4
20
9.25
11
237.9
21
9.25
0
LINE
8
0
10
237.9
20
9.25
11
237.9
21
-9.25
0
LINE
8
0
10
256.95
20
9.75
11
275.45
21
9.75
0
LINE
8
0
10
275.45
20
9.75
11
275.45
21
28.25
0
LINE
8
0
10
275.45
20
28.25
11
256.95
21
28.25
0
LINE
8
0
10
256.95
20
28.25
11
256.95
21
9.75
0
LINE
8
0
10
247.425
20
28.75
11
265.925
21
28.75
0
LINE
8
0
10
265.925
20
28.75
11
265.925
21
47.25
0
LINE
8
0
10
265.925
20
47.25
11
247.425
21
47.25
0
LINE
8
0
10
247.425
20
47.25
11
247.425
21
28.75
0
LINE
8
0
10
247.425
20
47.75
11
265.925
21
47.75
0
LINE
8
0
10
265.925
20
47.75
11
265.925
21
66.25
0
LINE
8
0
10
265.925
20
66.25
11
247.425
21
66.25
0
LINE
8
0
10
247.425
20
66.25
11
247.425
21
47.75
0
LINE
8
0
10
247.425
20
66.75
11
265.925
21
66.75
0
LINE
8
0
10
265.925
20
66.75
11
265.925
21
85.25
0
LINE
8
0
10
265.925
20
85.25
11
247.425
21
85.25
0
LINE
8
0
10
247.425
20
85.25
11
247.425
21
66.75
0
LINE
8
0
10
237.9
20
85.75
11
256.4
21
85.75
0
LINE
8
0
10
256.4
20
85.75
11
256.4
21
104.25
0
LINE
8
0
10
256.4
20
104.25
11
237.9
21
104.25
0
LINE
8
0
10
237.9
20
104.25
11
237.9
21
85.75
0
LINE
8
0
10
256.9
20
-9.25
11
275.4
21
-9.25
0
LINE
8
0
10
275.4
20
-9.25
11
275.4
21
9.25
0
LINE
8
0
10
275.4
20
9.25
11
256.9
21
9.25
0
LINE
8
0
10
256.9
20
9.25
11
256.9
21
-9.25
0
LINE
8
0
10
275.95
20
28.75
11
294.45
21
28.75
0
LINE
8
0
10
294.45
20
28.75
11
294.45
21
47.25
0
LINE
8
0
10
294.45
20
47.25
11
275.95
21
47.25
0
LINE
8
0
10
275.95
20
47.25
11
275.95
21
28.75
0
LINE
8
0
10
266.425
20
47.75
11
284.925
21
47.75
0
LINE
8
0
10
284.925
20
47.75
11
284.925
21
66.25
0
LINE
8
0
10
284.925
20
66.25
11
266.425
21
66.25
0
LINE
8
0
10
266.425
20
66.25
11
266.425
21
47.75
0
LINE
8
0
10
266.425
20
66.75
11
284.925
21
66.75
0
LINE
8
0
10
284.925
20
66.75
11
284.925
21
85.25
0
LINE
8
0
10
284.925
20
85.25
11
266.425
21
85.25
0
LINE
8
0
10
266.425
20
85.25
11
266.425
21
66.75
0
LINE
8
0
10
256.9
20
85.75
11
275.4
21
85.75
0
LINE
8
0
10
275.4
20
85.75
11
275.4
21
104.25
0
LINE
8
0
10
275.4
20
104.25
11
256.9
21
104.25
0
LINE
8
0
10
256.9
20
104.25
11
256.9
21
85.75
0
LINE
8
0
10
285.425
20
47.75
11
303.925
21
47.75
0
LINE
8
0
10
303.925
20
47.75
11
303.925
21
66.25
0
LINE
8
0
10
303.925
20
66.25
11
285.425
21
66.25
0
LINE
8
0
10
285.425
20
66.25
11
285.425
21
47.75
0
LINE
8
0
10
294.95
20
66.75
11
313.45
21
66.75
0
LINE
8
0
10
313.45
20
66.75
11
313.45
21
85.25
0
LINE
8
0
10
313.45
20
85.25
11
294.95
21
85.25
0
LINE
8
0
10
294.95
20
85.25
11
294.95
21
66.75
0
LINE
8
0
10
275.9
20
85.75
11
294.4
21
85.75
0
LINE
8
0
10
294.4
20
85.75
11
294.4
21
104.25
0
LINE
8
0
10
294.4
20
104.25
11
275.9
21
104.25
0
LINE
8
0
10
275.9
20
104.25
11
275.9
21
85.75
0
LINE
8
0
10
294.9
20
85.75
11
313.4
21
85.75
0
LINE
8
0
10
313.4
20
85.75
11
313.4
21
104.25
0
LINE
8
0
10
313.4
20
104.25
11
294.9
21
104.25
0
LINE
8
0
10
294.9
20
104.25
11
294.9
21
85.75
0
LINE
8
0
10
323.6
20
-13.0814755
11
336.6814755
21
0
0
LINE
8
0
10
336.6814755
20
0
11
323.6
21
13.0814755
0
LINE
8
0
10
323.6
20
13.0814755
11
310.5185245
21
0
0
LINE
8
0
10
310.5185245
20
0
11
323.6
21
-13.0814755
0
LINE
8
0
10
310.1649712
20
0.3535533
11
323.2464467
21
13.4350288
0
LINE
8
0
10
323.2464467
20
13.4350288
11
310.1649712
21
26.5165043
0
LINE
8
0
10
310.1649712
20
26.5165043
11
297.0834957
21
13.4350288
0
LINE
8
0
10
297.0834957
20
13.4350288
11
310.1649712
21
0.3535533
0
LINE
8
0
10
337.0350288
20
0.3535533
11
350.1165043
21
13.4350288
0
LINE
8
0
10
350.1165043
20
13.4350288
11
337.0350288
21
26.5165043
0
LINE
8
0
10
337.0350288
20
26.5165043
11
323.9535533
21
13.4350288
0
LINE
8
0
10
323.9535533
20
13.4350288
11
337.0350288
21
0.3535533
0
LINE
8
0
10
323.6
20
13.7885821
11
336.6814755
21
26.8700576
0
LINE
8
0
10
336.6814755
20
26.8700576
11
323.6
21
39.9515331
0
LINE
8
0
10
323.6
20
39.9515331
11
310.5185245
21
26.8700576
0
LINE
8
0
10
310.5185245
20
26.8700576
11
323.6
21
13.7885821
0
LINE
8
0
10
367.3433932
20
10.4563414
11
380.4248687
21
23.5378169
0
LINE
8
0
10
380.4248687
20
23.5378169
11
367.3433932
21
36.6192924
0
LINE
8
0
10
367.3433932
20
36.6192924
11
354.2619177
21
23.5378169
0
LINE
8
0
10
354.2619177
20
23.5378169
11
367.3433932
21
10.4563414
0
LINE
8
0
10
353.9083644
20
23.8913702
11
366.9898399
21
36.9728457
0
LINE
8
0
10
366.9898399
20
36.9728457
11
353.9083644
21
50.0543212
0
LINE
8
0
10
353.9083644
20
50.0543212
11
340.8268889
21
36.9728457
0
LINE
8
0
10
340.8268889
20
36.9728457
11
353.9083644
21
23.8913702
0
LINE
8
0
10
380.778422
20
23.8913702
11
393.8598975
21
36.9728457
0
LINE
8
0
10
393.8598975
20
36.9728457
11
380.778422
21
50.0543212
0
LINE
8
0
10
380.778422
20
50.0543212
11
367.6969465
21
36.9728457
0
LINE
8
0
10
367.6969465
20
36.9728457
11
380.778422
21
23.8913702
0
LINE
8
0
10
367.3433932
20
37.326399
11
380.4248687
21
50.4078745
0
LINE
8
0
10
380.4248687
20
50.4078745
11
367.3433932
21
63.48935
0
LINE
8
0
10
367.3433932
20
63.48935
11
354.2619177
21
50.4078745
0
LINE
8
0
10
354.2619177
20
50.4078745
11
367.3433932
21
37.326399
0
LINE
8
0
10
333
20
66.75
11
351.5
21
66.75
0
LINE
8
0
10
351.5
20
66.75
11
351.5
21
85.25
0
LINE
8
0
10
351.5
20
85.25
11
333
21
85.25
0
LINE
8
0
10
333
20
85.25
11
333
21
66.75
0
LINE
8
0
10
333
20
85.75
11
351.5
21
85.75
0
LINE
8
0
10
351.5
20
85.75
11
351.5
21
104.25
0
LINE
8
0
10
351.5
20
104.25
11
333
21
104.25
0
LINE
8
0
10
333
20
104.25
11
333
21
85.75
0
LINE
8
0
10
352
20
66.75
11
370.5
21
66.75
0
LINE
8
0
10
370.5
20
66.75
11
370.5
21
85.25
0
LINE
8
0
10
370.5
20
85.25
11
352
21
85.25
0
LINE
8
0
10
352
20
85.25
11
352
21
66.75
0
LINE
8
0
10
352
20
85.75
11
370.5
21
85.75
0
LINE
8
0
10
370.5
20
85.75
11
370.5
21
104.25
0
LINE
8
0
10
370.5
20
104.25
11
352
21
104.25
0
LINE
8
0
10
352
20
104.25
11
352
21
85.75
0
LINE
8
0
10
371
20
66.75
11
389.5
21
66.75
0
LINE
8
0
10
389.5
20
66.75
11
389.5
21
85.25
0
LINE
8
0
10
389.5
20
85.25
11
371
21
85.25
0
LINE
8
0
10
371
20
85.25
11
371
21
66.75
0
LINE
8
0
10
371
20
85.75
11
389.5
21
85.75
0
LINE
8
0
10
389.5
20
85.75
11
389.5
21
104.25
0
LINE
8
0
10
389.5
20
104.25
11
371
21
104.25
0
LINE
8
0
10
371
20
104.25
11
371
21
85.75
0
ENDSEC
0
EOF