<?xml version="1.0"?>
<svg
  xmlns="http://www.w3.org/2000/svg"
  xmlns:xlink="http://www.w3.org/1999/xlink" version="1.1"
  preserveAspectRatio="xMinYMin meet"
  viewBox="22.4091663 66.2474364 372.43943690000003 130.1471069"
  width="100%" height="100%"
>
  <g stroke="#000000" stroke-width="0.1%" fill="none" transform="matrix(1,0,0,-1,0,0)">
    <g stroke="rgb(0, 0, 0)"><path d="M28.3320647,-184.0347668L46.8813584,-183.8728895" /></g>
<g stroke="rgb(0, 0, 0)"><path d="M46.8813584,-183.8728895L46.7194811,-165.3235958" /></g>
<g stroke="rgb(0, 0, 0)"><path d="M46.7194811,-165.3235958L28.1701874,-165.4854731" /></g>
<g stroke="rgb(0, 0, 0)"><path d="M28.1701874,-165.4854731L28.3320647,-184.0347668" /></g>
<g stroke="rgb(0, 0, 0)"><path d="M22.9035246,-165.0314155L41.4528183,-164.8695382" /></g>
<g stroke="rgb(0, 0, 0)"><path d="M41.4528183,-164.8695382L41.290941,-146.3202445" /></g>
<g stroke="rgb(0, 0, 0)"><path d="M41.290941,-146.3202445L22.7416473,-146.4821218" /></g>
<g stroke="rgb(0, 0, 0)"><path d="M22.7416473,-146.4821218L22.9035246,-165.0314155" /></g>
<g stroke="rgb(0, 0, 0)"><path d="M22.7372841,-145.9821409L41.2865778,-145.8202636" /></g>
<g stroke="rgb(0, 0, 0)"><path d="M41.2865778,-145.8202636L41.1247005,-127.2709699" /></g>
<g stroke="rgb(0, 0, 0)"><path d="M41.1247005,-127.2709699L22.5754068,-127.4328472" /></g>
<g stroke="rgb(0, 0, 0)"><path d="M22.5754068,-127.4328472L22.7372841,-145.9821409" /></g>
<g stroke="rgb(0, 0, 0)"><path d="M22.5710436,-126.9328662L41.1203373,-126.7709889" /></g>
<g stroke="rgb(0, 0, 0)"><path d="M41.1203373,-126.7709889L40.95846,-108.2216952" /></g>
<g stroke="rgb(0, 0, 0)"><path d="M40.95846,-108.2216952L22.4091663,-108.3835725" /></g>
<g stroke="rgb(0, 0, 0)"><path d="M22.4091663,-108.3835725L22.5710436,-126.9328662" /></g>
<g stroke="rgb(0, 0, 0)"><path d="M27.6671027,-107.8376682L46.2163964,-107.6757909" /></g>
<g stroke="rgb(0, 0, 0)"><path d="M46.2163964,-107.6757909L46.0545191,-89.1264972" /></g>
<g stroke="rgb(0, 0, 0)"><path d="M46.0545191,-89.1264972L27.5052254,-89.2883745" /></g>
<g stroke="rgb(0, 0, 0)"><path d="M27.5052254,-89.2883745L27.6671027,-107.8376682" /></g>
<g stroke="rgb(0, 0, 0)"><path d="M27.5008622,-88.7883936L46.0501559,-88.6265163" /></g>
<g stroke="rgb(0, 0, 0)"><path d="M46.0501559,-88.6265163L45.8882786,-70.0772226" /></g>
<g stroke="rgb(0, 0, 0)"><path d="M45.8882786,-70.0772226L27.3389849,-70.2390999" /></g>
<g stroke="rgb(0, 0, 0)"><path d="M27.3389849,-70.2390999L27.5008622,-88.7883936" /></g>
<g stroke="rgb(0, 0, 0)"><path d="M47.3813394,-183.8685263L65.9306331,-183.706649" /></g>
<g stroke="rgb(0, 0, 0)"><path d="M65.9306331,-183.706649L65.7687558,-165.1573553" /></g>
<g stroke="rgb(0, 0, 0)"><path d="M65.7687558,-165.1573553L47.2194621,-165.3192326" /></g>
<g stroke="rgb(0, 0, 0)"><path d="M47.2194621,-165.3192326L47.3813394,-183.8685263" /></g>
<g stroke="rgb(0, 0, 0)"><path d="M47.2150989,-164.8192516L65.7643926,-164.6573743" /></g>
<g stroke="rgb(0, 0, 0)"><path d="M65.7643926,-164.6573743L65.6025153,-146.1080806" /></g>
<g stroke="rgb(0, 0, 0)"><path d="M65.6025153,-146.1080806L47.0532216,-146.2699579" /></g>
<g stroke="rgb(0, 0, 0)"><path d="M47.0532216,-146.2699579L47.2150989,-164.8192516" /></g>
<g stroke="rgb(0, 0, 0)"><path d="M47.0488584,-145.769977L65.5981521,-145.6080997" /></g>
<g stroke="rgb(0, 0, 0)"><path d="M65.5981521,-145.6080997L65.4362748,-127.058806" /></g>
<g stroke="rgb(0, 0, 0)"><path d="M65.4362748,-127.058806L46.8869811,-127.2206833" /></g>
<g stroke="rgb(0, 0, 0)"><path d="M46.8869811,-127.2206833L47.0488584,-145.769977" /></g>
<g stroke="rgb(0, 0, 0)"><path d="M46.8826179,-126.7207024L65.4319116,-126.5588251" /></g>
<g stroke="rgb(0, 0, 0)"><path d="M65.4319116,-126.5588251L65.2700343,-108.0095314" /></g>
<g stroke="rgb(0, 0, 0)"><path d="M65.2700343,-108.0095314L46.7207406,-108.1714087" /></g>
<g stroke="rgb(0, 0, 0)"><path d="M46.7207406,-108.1714087L46.8826179,-126.7207024" /></g>
<g stroke="rgb(0, 0, 0)"><path d="M46.7163774,-107.6714277L65.2656711,-107.5095504" /></g>
<g stroke="rgb(0, 0, 0)"><path d="M65.2656711,-107.5095504L65.1037938,-88.9602567" /></g>
<g stroke="rgb(0, 0, 0)"><path d="M65.1037938,-88.9602567L46.5545001,-89.122134" /></g>
<g stroke="rgb(0, 0, 0)"><path d="M46.5545001,-89.122134L46.7163774,-107.6714277" /></g>
<g stroke="rgb(0, 0, 0)"><path d="M66.2512836,-181.5404846L84.8005773,-181.7023619" /></g>
<g stroke="rgb(0, 0, 0)"><path d="M84.8005773,-181.7023619L84.9624546,-163.1530682" /></g>
<g stroke="rgb(0, 0, 0)"><path d="M84.9624546,-163.1530682L66.4131609,-162.9911909" /></g>
<g stroke="rgb(0, 0, 0)"><path d="M66.4131609,-162.9911909L66.2512836,-181.5404846" /></g>
<g stroke="rgb(0, 0, 0)"><path d="M66.4175241,-162.49121L84.9668178,-162.6530873" /></g>
<g stroke="rgb(0, 0, 0)"><path d="M84.9668178,-162.6530873L85.1286951,-144.1037936" /></g>
<g stroke="rgb(0, 0, 0)"><path d="M85.1286951,-144.1037936L66.5794014,-143.9419163" /></g>
<g stroke="rgb(0, 0, 0)"><path d="M66.5794014,-143.9419163L66.4175241,-162.49121" /></g>
<g stroke="rgb(0, 0, 0)"><path d="M66.5837646,-143.4419353L85.1330583,-143.6038126" /></g>
<g stroke="rgb(0, 0, 0)"><path d="M85.1330583,-143.6038126L85.2949356,-125.0545189" /></g>
<g stroke="rgb(0, 0, 0)"><path d="M85.2949356,-125.0545189L66.7456419,-124.8926416" /></g>
<g stroke="rgb(0, 0, 0)"><path d="M66.7456419,-124.8926416L66.5837646,-143.4419353" /></g>
<g stroke="rgb(0, 0, 0)"><path d="M66.750005,-124.3926607L85.2992987,-124.554538" /></g>
<g stroke="rgb(0, 0, 0)"><path d="M85.2992987,-124.554538L85.461176,-106.0052443" /></g>
<g stroke="rgb(0, 0, 0)"><path d="M85.461176,-106.0052443L66.9118823,-105.843367" /></g>
<g stroke="rgb(0, 0, 0)"><path d="M66.9118823,-105.843367L66.750005,-124.3926607" /></g>
<g stroke="rgb(0, 0, 0)"><path d="M66.9162455,-105.343386L85.4655392,-105.5052633" /></g>
<g stroke="rgb(0, 0, 0)"><path d="M85.4655392,-105.5052633L85.6274165,-86.9559696" /></g>
<g stroke="rgb(0, 0, 0)"><path d="M85.6274165,-86.9559696L67.0781228,-86.7940923" /></g>
<g stroke="rgb(0, 0, 0)"><path d="M67.0781228,-86.7940923L66.9162455,-105.343386" /></g>
<g stroke="rgb(0, 0, 0)"><path d="M67.0824859,-86.2941114L85.6317796,-86.4559887" /></g>
<g stroke="rgb(0, 0, 0)"><path d="M85.6317796,-86.4559887L85.7936569,-67.906695" /></g>
<g stroke="rgb(0, 0, 0)"><path d="M85.7936569,-67.906695L67.2443632,-67.7448177" /></g>
<g stroke="rgb(0, 0, 0)"><path d="M67.2443632,-67.7448177L67.0824859,-86.2941114" /></g>
<g stroke="rgb(0, 0, 0)"><path d="M85.1502574,-180.5420854L103.6939008,-181.0276678" /></g>
<g stroke="rgb(0, 0, 0)"><path d="M103.6939008,-181.0276678L104.1794832,-162.4840244" /></g>
<g stroke="rgb(0, 0, 0)"><path d="M104.1794832,-162.4840244L85.6358398,-161.998442" /></g>
<g stroke="rgb(0, 0, 0)"><path d="M85.6358398,-161.998442L85.1502574,-180.5420854" /></g>
<g stroke="rgb(0, 0, 0)"><path d="M85.6489283,-161.4986134L104.1925717,-161.9841958" /></g>
<g stroke="rgb(0, 0, 0)"><path d="M104.1925717,-161.9841958L104.6781541,-143.4405524" /></g>
<g stroke="rgb(0, 0, 0)"><path d="M104.6781541,-143.4405524L86.1345107,-142.95497" /></g>
<g stroke="rgb(0, 0, 0)"><path d="M86.1345107,-142.95497L85.6489283,-161.4986134" /></g>
<g stroke="rgb(0, 0, 0)"><path d="M86.1475991,-142.4551413L104.6912425,-142.9407237" /></g>
<g stroke="rgb(0, 0, 0)"><path d="M104.6912425,-142.9407237L105.1768249,-124.3970803" /></g>
<g stroke="rgb(0, 0, 0)"><path d="M105.1768249,-124.3970803L86.6331815,-123.9114979" /></g>
<g stroke="rgb(0, 0, 0)"><path d="M86.6331815,-123.9114979L86.1475991,-142.4551413" /></g>
<g stroke="rgb(0, 0, 0)"><path d="M86.64627,-123.4116692L105.1899134,-123.8972516" /></g>
<g stroke="rgb(0, 0, 0)"><path d="M105.1899134,-123.8972516L105.6754958,-105.3536082" /></g>
<g stroke="rgb(0, 0, 0)"><path d="M105.6754958,-105.3536082L87.1318524,-104.8680258" /></g>
<g stroke="rgb(0, 0, 0)"><path d="M87.1318524,-104.8680258L86.64627,-123.4116692" /></g>
<g stroke="rgb(0, 0, 0)"><path d="M87.1449408,-104.3681971L105.6885842,-104.8537795" /></g>
<g stroke="rgb(0, 0, 0)"><path d="M105.6885842,-104.8537795L106.1741666,-86.3101361" /></g>
<g stroke="rgb(0, 0, 0)"><path d="M106.1741666,-86.3101361L87.6305232,-85.8245537" /></g>
<g stroke="rgb(0, 0, 0)"><path d="M87.6305232,-85.8245537L87.1449408,-104.3681971" /></g>
<g stroke="rgb(0, 0, 0)"><path d="M87.6436117,-85.324725L106.1872551,-85.8103074" /></g>
<g stroke="rgb(0, 0, 0)"><path d="M106.1872551,-85.8103074L106.6728375,-67.266664" /></g>
<g stroke="rgb(0, 0, 0)"><path d="M106.6728375,-67.266664L88.1291941,-66.7810816" /></g>
<g stroke="rgb(0, 0, 0)"><path d="M88.1291941,-66.7810816L87.6436117,-85.324725" /></g>
<g stroke="rgb(0, 0, 0)"><path d="M104.8423727,-162.841117L123.3747172,-163.6502567" /></g>
<g stroke="rgb(0, 0, 0)"><path d="M123.3747172,-163.6502567L124.1838569,-145.1179122" /></g>
<g stroke="rgb(0, 0, 0)"><path d="M124.1838569,-145.1179122L105.6515124,-144.3087725" /></g>
<g stroke="rgb(0, 0, 0)"><path d="M105.6515124,-144.3087725L104.8423727,-162.841117" /></g>
<g stroke="rgb(0, 0, 0)"><path d="M105.6733221,-143.8092484L124.2056666,-144.6183881" /></g>
<g stroke="rgb(0, 0, 0)"><path d="M124.2056666,-144.6183881L125.0148063,-126.0860436" /></g>
<g stroke="rgb(0, 0, 0)"><path d="M125.0148063,-126.0860436L106.4824618,-125.2769039" /></g>
<g stroke="rgb(0, 0, 0)"><path d="M106.4824618,-125.2769039L105.6733221,-143.8092484" /></g>
<g stroke="rgb(0, 0, 0)"><path d="M106.5042714,-124.7773798L125.0366159,-125.5865195" /></g>
<g stroke="rgb(0, 0, 0)"><path d="M125.0366159,-125.5865195L125.8457556,-107.054175" /></g>
<g stroke="rgb(0, 0, 0)"><path d="M125.8457556,-107.054175L107.3134111,-106.2450353" /></g>
<g stroke="rgb(0, 0, 0)"><path d="M107.3134111,-106.2450353L106.5042714,-124.7773798" /></g>
<g stroke="rgb(0, 0, 0)"><path d="M107.3352208,-105.7455113L125.8675653,-106.554651" /></g>
<g stroke="rgb(0, 0, 0)"><path d="M125.8675653,-106.554651L126.676705,-88.0223065" /></g>
<g stroke="rgb(0, 0, 0)"><path d="M126.676705,-88.0223065L108.1443605,-87.2131668" /></g>
<g stroke="rgb(0, 0, 0)"><path d="M108.1443605,-87.2131668L107.3352208,-105.7455113" /></g>
<g stroke="rgb(0, 0, 0)"><path d="M108.1661702,-86.7136427L126.6985147,-87.5227824" /></g>
<g stroke="rgb(0, 0, 0)"><path d="M126.6985147,-87.5227824L127.5076544,-68.9904379" /></g>
<g stroke="rgb(0, 0, 0)"><path d="M127.5076544,-68.9904379L108.9753099,-68.1812982" /></g>
<g stroke="rgb(0, 0, 0)"><path d="M108.9753099,-68.1812982L108.1661702,-86.7136427" /></g>
<g stroke="rgb(0, 0, 0)"><path d="M121.4955408,-182.839449L140.0241783,-183.7294433" /></g>
<g stroke="rgb(0, 0, 0)"><path d="M140.0241783,-183.7294433L140.9141726,-165.2008058" /></g>
<g stroke="rgb(0, 0, 0)"><path d="M140.9141726,-165.2008058L122.3855351,-164.3108115" /></g>
<g stroke="rgb(0, 0, 0)"><path d="M122.3855351,-164.3108115L121.4955408,-182.839449" /></g>
<g stroke="rgb(0, 0, 0)"><path d="M123.9077967,-163.8833545L142.4364342,-164.7733488" /></g>
<g stroke="rgb(0, 0, 0)"><path d="M142.4364342,-164.7733488L143.3264285,-146.2447113" /></g>
<g stroke="rgb(0, 0, 0)"><path d="M143.3264285,-146.2447113L124.797791,-145.354717" /></g>
<g stroke="rgb(0, 0, 0)"><path d="M124.797791,-145.354717L123.9077967,-163.8833545" /></g>
<g stroke="rgb(0, 0, 0)"><path d="M124.8217801,-144.8552927L143.3504176,-145.745287" /></g>
<g stroke="rgb(0, 0, 0)"><path d="M143.3504176,-145.745287L144.2404119,-127.2166495" /></g>
<g stroke="rgb(0, 0, 0)"><path d="M144.2404119,-127.2166495L125.7117744,-126.3266552" /></g>
<g stroke="rgb(0, 0, 0)"><path d="M125.7117744,-126.3266552L124.8217801,-144.8552927" /></g>
<g stroke="rgb(0, 0, 0)"><path d="M125.7357634,-125.827231L144.2644009,-126.7172253" /></g>
<g stroke="rgb(0, 0, 0)"><path d="M144.2644009,-126.7172253L145.1543952,-108.1885878" /></g>
<g stroke="rgb(0, 0, 0)"><path d="M145.1543952,-108.1885878L126.6257577,-107.2985935" /></g>
<g stroke="rgb(0, 0, 0)"><path d="M126.6257577,-107.2985935L125.7357634,-125.827231" /></g>
<g stroke="rgb(0, 0, 0)"><path d="M126.6497468,-106.7991693L145.1783843,-107.6891636" /></g>
<g stroke="rgb(0, 0, 0)"><path d="M145.1783843,-107.6891636L146.0683786,-89.1605261" /></g>
<g stroke="rgb(0, 0, 0)"><path d="M146.0683786,-89.1605261L127.5397411,-88.2705318" /></g>
<g stroke="rgb(0, 0, 0)"><path d="M127.5397411,-88.2705318L126.6497468,-106.7991693" /></g>
<g stroke="rgb(0, 0, 0)"><path d="M127.5637301,-87.7711075L146.0923676,-88.6611018" /></g>
<g stroke="rgb(0, 0, 0)"><path d="M146.0923676,-88.6611018L146.9823619,-70.1324643" /></g>
<g stroke="rgb(0, 0, 0)"><path d="M146.9823619,-70.1324643L128.4537244,-69.24247" /></g>
<g stroke="rgb(0, 0, 0)"><path d="M128.4537244,-69.24247L127.5637301,-87.7711075" /></g>
<g stroke="rgb(0, 0, 0)"><path d="M177.8303949,-183.7208055L196.3590324,-182.8308112" /></g>
<g stroke="rgb(0, 0, 0)"><path d="M196.3590324,-182.8308112L195.4690381,-164.3021737" /></g>
<g stroke="rgb(0, 0, 0)"><path d="M195.4690381,-164.3021737L176.9404006,-165.192168" /></g>
<g stroke="rgb(0, 0, 0)"><path d="M176.9404006,-165.192168L177.8303949,-183.7208055" /></g>
<g stroke="rgb(0, 0, 0)"><path d="M175.4181389,-164.764711L193.9467764,-163.8747167" /></g>
<g stroke="rgb(0, 0, 0)"><path d="M193.9467764,-163.8747167L193.0567821,-145.3460792" /></g>
<g stroke="rgb(0, 0, 0)"><path d="M193.0567821,-145.3460792L174.5281446,-146.2360735" /></g>
<g stroke="rgb(0, 0, 0)"><path d="M174.5281446,-146.2360735L175.4181389,-164.764711" /></g>
<g stroke="rgb(0, 0, 0)"><path d="M174.5041555,-145.7366493L193.032793,-144.846655" /></g>
<g stroke="rgb(0, 0, 0)"><path d="M193.032793,-144.846655L192.1427987,-126.3180175" /></g>
<g stroke="rgb(0, 0, 0)"><path d="M192.1427987,-126.3180175L173.6141612,-127.2080118" /></g>
<g stroke="rgb(0, 0, 0)"><path d="M173.6141612,-127.2080118L174.5041555,-145.7366493" /></g>
<g stroke="rgb(0, 0, 0)"><path d="M173.5901722,-126.7085876L192.1188097,-125.8185933" /></g>
<g stroke="rgb(0, 0, 0)"><path d="M192.1188097,-125.8185933L191.2288154,-107.2899558" /></g>
<g stroke="rgb(0, 0, 0)"><path d="M191.2288154,-107.2899558L172.7001779,-108.1799501" /></g>
<g stroke="rgb(0, 0, 0)"><path d="M172.7001779,-108.1799501L173.5901722,-126.7085876" /></g>
<g stroke="rgb(0, 0, 0)"><path d="M172.6761888,-107.6805258L191.2048263,-106.7905315" /></g>
<g stroke="rgb(0, 0, 0)"><path d="M191.2048263,-106.7905315L190.314832,-88.261894" /></g>
<g stroke="rgb(0, 0, 0)"><path d="M190.314832,-88.261894L171.7861945,-89.1518883" /></g>
<g stroke="rgb(0, 0, 0)"><path d="M171.7861945,-89.1518883L172.6761888,-107.6805258" /></g>
<g stroke="rgb(0, 0, 0)"><path d="M171.7622055,-88.6524641L190.290843,-87.7624698" /></g>
<g stroke="rgb(0, 0, 0)"><path d="M190.290843,-87.7624698L189.4008487,-69.2338323" /></g>
<g stroke="rgb(0, 0, 0)"><path d="M189.4008487,-69.2338323L170.8722112,-70.1238266" /></g>
<g stroke="rgb(0, 0, 0)"><path d="M170.8722112,-70.1238266L171.7622055,-88.6524641" /></g>
<g stroke="rgb(0, 0, 0)"><path d="M194.4342062,-163.6010156L212.9628437,-162.7110213" /></g>
<g stroke="rgb(0, 0, 0)"><path d="M212.9628437,-162.7110213L212.0728494,-144.1823838" /></g>
<g stroke="rgb(0, 0, 0)"><path d="M212.0728494,-144.1823838L193.5442119,-145.0723781" /></g>
<g stroke="rgb(0, 0, 0)"><path d="M193.5442119,-145.0723781L194.4342062,-163.6010156" /></g>
<g stroke="rgb(0, 0, 0)"><path d="M193.5202228,-144.5729539L212.0488603,-143.6829596" /></g>
<g stroke="rgb(0, 0, 0)"><path d="M212.0488603,-143.6829596L211.158866,-125.1543221" /></g>
<g stroke="rgb(0, 0, 0)"><path d="M211.158866,-125.1543221L192.6302285,-126.0443164" /></g>
<g stroke="rgb(0, 0, 0)"><path d="M192.6302285,-126.0443164L193.5202228,-144.5729539" /></g>
<g stroke="rgb(0, 0, 0)"><path d="M192.6062394,-125.5448922L211.1348769,-124.6548979" /></g>
<g stroke="rgb(0, 0, 0)"><path d="M211.1348769,-124.6548979L210.2448826,-106.1262604" /></g>
<g stroke="rgb(0, 0, 0)"><path d="M210.2448826,-106.1262604L191.7162451,-107.0162547" /></g>
<g stroke="rgb(0, 0, 0)"><path d="M191.7162451,-107.0162547L192.6062394,-125.5448922" /></g>
<g stroke="rgb(0, 0, 0)"><path d="M191.6922561,-106.5168304L210.2208936,-105.6268361" /></g>
<g stroke="rgb(0, 0, 0)"><path d="M210.2208936,-105.6268361L209.3308993,-87.0981986" /></g>
<g stroke="rgb(0, 0, 0)"><path d="M209.3308993,-87.0981986L190.8022618,-87.9881929" /></g>
<g stroke="rgb(0, 0, 0)"><path d="M190.8022618,-87.9881929L191.6922561,-106.5168304" /></g>
<g stroke="rgb(0, 0, 0)"><path d="M190.7782727,-87.4887687L209.3069102,-86.5987744" /></g>
<g stroke="rgb(0, 0, 0)"><path d="M209.3069102,-86.5987744L208.4169159,-68.0701369" /></g>
<g stroke="rgb(0, 0, 0)"><path d="M208.4169159,-68.0701369L189.8882784,-68.9601312" /></g>
<g stroke="rgb(0, 0, 0)"><path d="M189.8882784,-68.9601312L190.7782727,-87.4887687" /></g>
<g stroke="rgb(0, 0, 0)"><path d="M214.1601654,-180.5608484L232.7015135,-179.9943589" /></g>
<g stroke="rgb(0, 0, 0)"><path d="M232.7015135,-179.9943589L232.135024,-161.4530108" /></g>
<g stroke="rgb(0, 0, 0)"><path d="M232.135024,-161.4530108L213.5936759,-162.0195003" /></g>
<g stroke="rgb(0, 0, 0)"><path d="M213.5936759,-162.0195003L214.1601654,-180.5608484" /></g>
<g stroke="rgb(0, 0, 0)"><path d="M213.5784067,-161.5197335L232.1197548,-160.953244" /></g>
<g stroke="rgb(0, 0, 0)"><path d="M232.1197548,-160.953244L231.5532653,-142.4118959" /></g>
<g stroke="rgb(0, 0, 0)"><path d="M231.5532653,-142.4118959L213.0119172,-142.9783854" /></g>
<g stroke="rgb(0, 0, 0)"><path d="M213.0119172,-142.9783854L213.5784067,-161.5197335" /></g>
<g stroke="rgb(0, 0, 0)"><path d="M212.996648,-142.4786186L231.5379961,-141.9121291" /></g>
<g stroke="rgb(0, 0, 0)"><path d="M231.5379961,-141.9121291L230.9715066,-123.370781" /></g>
<g stroke="rgb(0, 0, 0)"><path d="M230.9715066,-123.370781L212.4301585,-123.9372705" /></g>
<g stroke="rgb(0, 0, 0)"><path d="M212.4301585,-123.9372705L212.996648,-142.4786186" /></g>
<g stroke="rgb(0, 0, 0)"><path d="M212.4148893,-123.4375037L230.9562374,-122.8710142" /></g>
<g stroke="rgb(0, 0, 0)"><path d="M230.9562374,-122.8710142L230.3897479,-104.3296661" /></g>
<g stroke="rgb(0, 0, 0)"><path d="M230.3897479,-104.3296661L211.8483998,-104.8961556" /></g>
<g stroke="rgb(0, 0, 0)"><path d="M211.8483998,-104.8961556L212.4148893,-123.4375037" /></g>
<g stroke="rgb(0, 0, 0)"><path d="M211.8331306,-104.3963889L230.3744787,-103.8298994" /></g>
<g stroke="rgb(0, 0, 0)"><path d="M230.3744787,-103.8298994L229.8079892,-85.2885513" /></g>
<g stroke="rgb(0, 0, 0)"><path d="M229.8079892,-85.2885513L211.2666411,-85.8550408" /></g>
<g stroke="rgb(0, 0, 0)"><path d="M211.2666411,-85.8550408L211.8331306,-104.3963889" /></g>
<g stroke="rgb(0, 0, 0)"><path d="M211.2513718,-85.355274L229.7927199,-84.7887845" /></g>
<g stroke="rgb(0, 0, 0)"><path d="M229.7927199,-84.7887845L229.2262304,-66.2474364" /></g>
<g stroke="rgb(0, 0, 0)"><path d="M229.2262304,-66.2474364L210.6848823,-66.8139259" /></g>
<g stroke="rgb(0, 0, 0)"><path d="M210.6848823,-66.8139259L211.2513718,-85.355274" /></g>
<g stroke="rgb(0, 0, 0)"><path d="M233.0664487,-180.820316L251.6148595,-180.577504" /></g>
<g stroke="rgb(0, 0, 0)"><path d="M251.6148595,-180.577504L251.3720475,-162.0290932" /></g>
<g stroke="rgb(0, 0, 0)"><path d="M251.3720475,-162.0290932L232.8236367,-162.2719052" /></g>
<g stroke="rgb(0, 0, 0)"><path d="M232.8236367,-162.2719052L233.0664487,-180.820316" /></g>
<g stroke="rgb(0, 0, 0)"><path d="M232.817092,-161.771948L251.3655028,-161.529136" /></g>
<g stroke="rgb(0, 0, 0)"><path d="M251.3655028,-161.529136L251.1226908,-142.9807252" /></g>
<g stroke="rgb(0, 0, 0)"><path d="M251.1226908,-142.9807252L232.57428,-143.2235372" /></g>
<g stroke="rgb(0, 0, 0)"><path d="M232.57428,-143.2235372L232.817092,-161.771948" /></g>
<g stroke="rgb(0, 0, 0)"><path d="M232.5677352,-142.72358L251.116146,-142.480768" /></g>
<g stroke="rgb(0, 0, 0)"><path d="M251.116146,-142.480768L250.873334,-123.9323572" /></g>
<g stroke="rgb(0, 0, 0)"><path d="M250.873334,-123.9323572L232.3249232,-124.1751692" /></g>
<g stroke="rgb(0, 0, 0)"><path d="M232.3249232,-124.1751692L232.5677352,-142.72358" /></g>
<g stroke="rgb(0, 0, 0)"><path d="M232.3183785,-123.675212L250.8667893,-123.4324" /></g>
<g stroke="rgb(0, 0, 0)"><path d="M250.8667893,-123.4324L250.6239773,-104.8839892" /></g>
<g stroke="rgb(0, 0, 0)"><path d="M250.6239773,-104.8839892L232.0755665,-105.1268012" /></g>
<g stroke="rgb(0, 0, 0)"><path d="M232.0755665,-105.1268012L232.3183785,-123.675212" /></g>
<g stroke="rgb(0, 0, 0)"><path d="M232.0690217,-104.626844L250.6174325,-104.384032" /></g>
<g stroke="rgb(0, 0, 0)"><path d="M250.6174325,-104.384032L250.3746205,-85.8356212" /></g>
<g stroke="rgb(0, 0, 0)"><path d="M250.3746205,-85.8356212L231.8262097,-86.0784332" /></g>
<g stroke="rgb(0, 0, 0)"><path d="M231.8262097,-86.0784332L232.0690217,-104.626844" /></g>
<g stroke="rgb(0, 0, 0)"><path d="M231.819665,-85.578476L250.3680758,-85.335664" /></g>
<g stroke="rgb(0, 0, 0)"><path d="M250.3680758,-85.335664L250.1252638,-66.7872532" /></g>
<g stroke="rgb(0, 0, 0)"><path d="M250.1252638,-66.7872532L231.576853,-67.0300652" /></g>
<g stroke="rgb(0, 0, 0)"><path d="M231.576853,-67.0300652L231.819665,-85.578476" /></g>
<g stroke="rgb(0, 0, 0)"><path d="M251.9784139,-182.4096184L270.5282373,-182.4905578" /></g>
<g stroke="rgb(0, 0, 0)"><path d="M270.5282373,-182.4905578L270.6091767,-163.9407344" /></g>
<g stroke="rgb(0, 0, 0)"><path d="M270.6091767,-163.9407344L252.0593533,-163.859795" /></g>
<g stroke="rgb(0, 0, 0)"><path d="M252.0593533,-163.859795L251.9784139,-182.4096184" /></g>
<g stroke="rgb(0, 0, 0)"><path d="M252.0615349,-163.3597998L270.6113583,-163.4407392" /></g>
<g stroke="rgb(0, 0, 0)"><path d="M270.6113583,-163.4407392L270.6922977,-144.8909158" /></g>
<g stroke="rgb(0, 0, 0)"><path d="M270.6922977,-144.8909158L252.1424743,-144.8099764" /></g>
<g stroke="rgb(0, 0, 0)"><path d="M252.1424743,-144.8099764L252.0615349,-163.3597998" /></g>
<g stroke="rgb(0, 0, 0)"><path d="M252.144656,-144.3099812L270.6944794,-144.3909206" /></g>
<g stroke="rgb(0, 0, 0)"><path d="M270.6944794,-144.3909206L270.7754188,-125.8410972" /></g>
<g stroke="rgb(0, 0, 0)"><path d="M270.7754188,-125.8410972L252.2255954,-125.7601578" /></g>
<g stroke="rgb(0, 0, 0)"><path d="M252.2255954,-125.7601578L252.144656,-144.3099812" /></g>
<g stroke="rgb(0, 0, 0)"><path d="M252.227777,-125.2601625L270.7776004,-125.3411019" /></g>
<g stroke="rgb(0, 0, 0)"><path d="M270.7776004,-125.3411019L270.8585398,-106.7912785" /></g>
<g stroke="rgb(0, 0, 0)"><path d="M270.8585398,-106.7912785L252.3087164,-106.7103391" /></g>
<g stroke="rgb(0, 0, 0)"><path d="M252.3087164,-106.7103391L252.227777,-125.2601625" /></g>
<g stroke="rgb(0, 0, 0)"><path d="M252.3108981,-106.2103439L270.8607215,-106.2912833" /></g>
<g stroke="rgb(0, 0, 0)"><path d="M270.8607215,-106.2912833L270.9416609,-87.7414599" /></g>
<g stroke="rgb(0, 0, 0)"><path d="M270.9416609,-87.7414599L252.3918375,-87.6605205" /></g>
<g stroke="rgb(0, 0, 0)"><path d="M252.3918375,-87.6605205L252.3108981,-106.2103439" /></g>
<g stroke="rgb(0, 0, 0)"><path d="M271.0282325,-182.4927394L289.5780559,-182.5736788" /></g>
<g stroke="rgb(0, 0, 0)"><path d="M289.5780559,-182.5736788L289.6589953,-164.0238554" /></g>
<g stroke="rgb(0, 0, 0)"><path d="M289.6589953,-164.0238554L271.1091719,-163.942916" /></g>
<g stroke="rgb(0, 0, 0)"><path d="M271.1091719,-163.942916L271.0282325,-182.4927394" /></g>
<g stroke="rgb(0, 0, 0)"><path d="M276.4738025,-163.4663191L295.0236259,-163.5472585" /></g>
<g stroke="rgb(0, 0, 0)"><path d="M295.0236259,-163.5472585L295.1045653,-144.9974351" /></g>
<g stroke="rgb(0, 0, 0)"><path d="M295.1045653,-144.9974351L276.5547419,-144.9164957" /></g>
<g stroke="rgb(0, 0, 0)"><path d="M276.5547419,-144.9164957L276.4738025,-163.4663191" /></g>
<g stroke="rgb(0, 0, 0)"><path d="M271.1944746,-144.3931022L289.744298,-144.4740416" /></g>
<g stroke="rgb(0, 0, 0)"><path d="M289.744298,-144.4740416L289.8252374,-125.9242182" /></g>
<g stroke="rgb(0, 0, 0)"><path d="M289.8252374,-125.9242182L271.275414,-125.8432788" /></g>
<g stroke="rgb(0, 0, 0)"><path d="M271.275414,-125.8432788L271.1944746,-144.3931022" /></g>
<g stroke="rgb(0, 0, 0)"><path d="M271.2775956,-125.3432836L289.827419,-125.424223" /></g>
<g stroke="rgb(0, 0, 0)"><path d="M289.827419,-125.424223L289.9083584,-106.8743996" /></g>
<g stroke="rgb(0, 0, 0)"><path d="M289.9083584,-106.8743996L271.358535,-106.7934602" /></g>
<g stroke="rgb(0, 0, 0)"><path d="M271.358535,-106.7934602L271.2775956,-125.3432836" /></g>
<g stroke="rgb(0, 0, 0)"><path d="M271.3607167,-106.293465L289.9105401,-106.3744044" /></g>
<g stroke="rgb(0, 0, 0)"><path d="M289.9105401,-106.3744044L289.9914795,-87.824581" /></g>
<g stroke="rgb(0, 0, 0)"><path d="M289.9914795,-87.824581L271.4416561,-87.7436416" /></g>
<g stroke="rgb(0, 0, 0)"><path d="M271.4416561,-87.7436416L271.3607167,-106.293465" /></g>
<g stroke="rgb(0, 0, 0)"><path d="M271.4438377,-87.2436464L289.9936611,-87.3245858" /></g>
<g stroke="rgb(0, 0, 0)"><path d="M289.9936611,-87.3245858L290.0746005,-68.7747624" /></g>
<g stroke="rgb(0, 0, 0)"><path d="M290.0746005,-68.7747624L271.5247771,-68.693823" /></g>
<g stroke="rgb(0, 0, 0)"><path d="M271.5247771,-68.693823L271.4438377,-87.2436464" /></g>
<g stroke="rgb(0, 0, 0)"><path d="M295.6067423,-144.4996216L314.1565657,-144.580561" /></g>
<g stroke="rgb(0, 0, 0)"><path d="M314.1565657,-144.580561L314.2375051,-126.0307376" /></g>
<g stroke="rgb(0, 0, 0)"><path d="M314.2375051,-126.0307376L295.6876817,-125.9497982" /></g>
<g stroke="rgb(0, 0, 0)"><path d="M295.6876817,-125.9497982L295.6067423,-144.4996216" /></g>
<g stroke="rgb(0, 0, 0)"><path d="M290.3274144,-125.4264047L308.8772378,-125.5073441" /></g>
<g stroke="rgb(0, 0, 0)"><path d="M308.8772378,-125.5073441L308.9581772,-106.9575207" /></g>
<g stroke="rgb(0, 0, 0)"><path d="M308.9581772,-106.9575207L290.4083538,-106.8765813" /></g>
<g stroke="rgb(0, 0, 0)"><path d="M290.4083538,-106.8765813L290.3274144,-125.4264047" /></g>
<g stroke="rgb(0, 0, 0)"><path d="M290.4105354,-106.3765861L308.9603588,-106.4575255" /></g>
<g stroke="rgb(0, 0, 0)"><path d="M308.9603588,-106.4575255L309.0412982,-87.9077021" /></g>
<g stroke="rgb(0, 0, 0)"><path d="M309.0412982,-87.9077021L290.4914748,-87.8267627" /></g>
<g stroke="rgb(0, 0, 0)"><path d="M290.4914748,-87.8267627L290.4105354,-106.3765861" /></g>
<g stroke="rgb(0, 0, 0)"><path d="M290.4936565,-87.3267675L309.0434799,-87.4077069" /></g>
<g stroke="rgb(0, 0, 0)"><path d="M309.0434799,-87.4077069L309.1244193,-68.8578835" /></g>
<g stroke="rgb(0, 0, 0)"><path d="M309.1244193,-68.8578835L290.5745959,-68.7769441" /></g>
<g stroke="rgb(0, 0, 0)"><path d="M290.5745959,-68.7769441L290.4936565,-87.3267675" /></g>
<g stroke="rgb(0, 0, 0)"><path d="M309.377233,-125.5095257L327.9270564,-125.5904651" /></g>
<g stroke="rgb(0, 0, 0)"><path d="M327.9270564,-125.5904651L328.0079958,-107.0406417" /></g>
<g stroke="rgb(0, 0, 0)"><path d="M328.0079958,-107.0406417L309.4581724,-106.9597023" /></g>
<g stroke="rgb(0, 0, 0)"><path d="M309.4581724,-106.9597023L309.377233,-125.5095257" /></g>
<g stroke="rgb(0, 0, 0)"><path d="M314.822803,-106.4831054L333.3726264,-106.5640448" /></g>
<g stroke="rgb(0, 0, 0)"><path d="M333.3726264,-106.5640448L333.4535658,-88.0142214" /></g>
<g stroke="rgb(0, 0, 0)"><path d="M333.4535658,-88.0142214L314.9037424,-87.933282" /></g>
<g stroke="rgb(0, 0, 0)"><path d="M314.9037424,-87.933282L314.822803,-106.4831054" /></g>
<g stroke="rgb(0, 0, 0)"><path d="M309.5434751,-87.4098885L328.0932985,-87.4908279" /></g>
<g stroke="rgb(0, 0, 0)"><path d="M328.0932985,-87.4908279L328.1742379,-68.9410045" /></g>
<g stroke="rgb(0, 0, 0)"><path d="M328.1742379,-68.9410045L309.6244145,-68.8600651" /></g>
<g stroke="rgb(0, 0, 0)"><path d="M309.6244145,-68.8600651L309.5434751,-87.4098885" /></g>
<g stroke="rgb(0, 0, 0)"><path d="M328.5932938,-87.4930096L347.1431172,-87.573949" /></g>
<g stroke="rgb(0, 0, 0)"><path d="M347.1431172,-87.573949L347.2240566,-69.0241256" /></g>
<g stroke="rgb(0, 0, 0)"><path d="M347.2240566,-69.0241256L328.6742332,-68.9431862" /></g>
<g stroke="rgb(0, 0, 0)"><path d="M328.6742332,-68.9431862L328.5932938,-87.4930096" /></g>
<g stroke="rgb(0, 0, 0)"><path d="M333.5302631,-196.3945433L346.0026674,-182.663497" /></g>
<g stroke="rgb(0, 0, 0)"><path d="M346.0026674,-182.663497L332.2716211,-170.1910927" /></g>
<g stroke="rgb(0, 0, 0)"><path d="M332.2716211,-170.1910927L319.7992168,-183.922139" /></g>
<g stroke="rgb(0, 0, 0)"><path d="M319.7992168,-183.922139L333.5302631,-196.3945433" /></g>
<g stroke="rgb(0, 0, 0)"><path d="M319.4291078,-183.5859557L331.9015121,-169.8549094" /></g>
<g stroke="rgb(0, 0, 0)"><path d="M331.9015121,-169.8549094L318.1704658,-157.3825051" /></g>
<g stroke="rgb(0, 0, 0)"><path d="M318.1704658,-157.3825051L305.6980615,-171.1135514" /></g>
<g stroke="rgb(0, 0, 0)"><path d="M305.6980615,-171.1135514L319.4291078,-183.5859557" /></g>
<g stroke="rgb(0, 0, 0)"><path d="M346.3388508,-182.293388L358.8112551,-168.5623417" /></g>
<g stroke="rgb(0, 0, 0)"><path d="M358.8112551,-168.5623417L345.0802088,-156.0899374" /></g>
<g stroke="rgb(0, 0, 0)"><path d="M345.0802088,-156.0899374L332.6078045,-169.8209837" /></g>
<g stroke="rgb(0, 0, 0)"><path d="M332.6078045,-169.8209837L346.3388508,-182.293388" /></g>
<g stroke="rgb(0, 0, 0)"><path d="M332.2376955,-169.4848003L344.7100998,-155.753754" /></g>
<g stroke="rgb(0, 0, 0)"><path d="M344.7100998,-155.753754L330.9790535,-143.2813497" /></g>
<g stroke="rgb(0, 0, 0)"><path d="M330.9790535,-143.2813497L318.5066492,-157.012396" /></g>
<g stroke="rgb(0, 0, 0)"><path d="M318.5066492,-157.012396L332.2376955,-169.4848003" /></g>
<g stroke="rgb(0, 0, 0)"><path d="M362.3495855,-164.6669438L374.8219898,-150.9358975" /></g>
<g stroke="rgb(0, 0, 0)"><path d="M374.8219898,-150.9358975L361.0909435,-138.4634932" /></g>
<g stroke="rgb(0, 0, 0)"><path d="M361.0909435,-138.4634932L348.6185392,-152.1945395" /></g>
<g stroke="rgb(0, 0, 0)"><path d="M348.6185392,-152.1945395L362.3495855,-164.6669438" /></g>
<g stroke="rgb(0, 0, 0)"><path d="M348.2484301,-151.8583561L360.7208344,-138.1273098" /></g>
<g stroke="rgb(0, 0, 0)"><path d="M360.7208344,-138.1273098L346.9897881,-125.6549055" /></g>
<g stroke="rgb(0, 0, 0)"><path d="M346.9897881,-125.6549055L334.5173838,-139.3859518" /></g>
<g stroke="rgb(0, 0, 0)"><path d="M334.5173838,-139.3859518L348.2484301,-151.8583561" /></g>
<g stroke="rgb(0, 0, 0)"><path d="M375.1581731,-150.5657885L387.6305774,-136.8347422" /></g>
<g stroke="rgb(0, 0, 0)"><path d="M387.6305774,-136.8347422L373.8995311,-124.3623379" /></g>
<g stroke="rgb(0, 0, 0)"><path d="M373.8995311,-124.3623379L361.4271268,-138.0933842" /></g>
<g stroke="rgb(0, 0, 0)"><path d="M361.4271268,-138.0933842L375.1581731,-150.5657885" /></g>
<g stroke="rgb(0, 0, 0)"><path d="M361.0570178,-137.7572008L373.5294221,-124.0261545" /></g>
<g stroke="rgb(0, 0, 0)"><path d="M373.5294221,-124.0261545L359.7983758,-111.5537502" /></g>
<g stroke="rgb(0, 0, 0)"><path d="M359.7983758,-111.5537502L347.3259715,-125.2847965" /></g>
<g stroke="rgb(0, 0, 0)"><path d="M347.3259715,-125.2847965L361.0570178,-137.7572008" /></g>
<g stroke="rgb(0, 0, 0)"><path d="M357.0849007,-106.6675098L375.6347241,-106.7484492" /></g>
<g stroke="rgb(0, 0, 0)"><path d="M375.6347241,-106.7484492L375.7156635,-88.1986258" /></g>
<g stroke="rgb(0, 0, 0)"><path d="M375.7156635,-88.1986258L357.1658401,-88.1176864" /></g>
<g stroke="rgb(0, 0, 0)"><path d="M357.1658401,-88.1176864L357.0849007,-106.6675098" /></g>
<g stroke="rgb(0, 0, 0)"><path d="M357.1680218,-87.6176912L375.7178452,-87.6986306" /></g>
<g stroke="rgb(0, 0, 0)"><path d="M375.7178452,-87.6986306L375.7987846,-69.1488072" /></g>
<g stroke="rgb(0, 0, 0)"><path d="M375.7987846,-69.1488072L357.2489612,-69.0678678" /></g>
<g stroke="rgb(0, 0, 0)"><path d="M357.2489612,-69.0678678L357.1680218,-87.6176912" /></g>
<g stroke="rgb(0, 0, 0)"><path d="M376.1347193,-106.7506308L394.6845427,-106.8315702" /></g>
<g stroke="rgb(0, 0, 0)"><path d="M394.6845427,-106.8315702L394.7654821,-88.2817468" /></g>
<g stroke="rgb(0, 0, 0)"><path d="M394.7654821,-88.2817468L376.2156587,-88.2008074" /></g>
<g stroke="rgb(0, 0, 0)"><path d="M376.2156587,-88.2008074L376.1347193,-106.7506308" /></g>
<g stroke="rgb(0, 0, 0)"><path d="M376.2178404,-87.7008122L394.7676638,-87.7817516" /></g>
<g stroke="rgb(0, 0, 0)"><path d="M394.7676638,-87.7817516L394.8486032,-69.2319282" /></g>
<g stroke="rgb(0, 0, 0)"><path d="M394.8486032,-69.2319282L376.2987798,-69.1509888" /></g>
<g stroke="rgb(0, 0, 0)"><path d="M376.2987798,-69.1509888L376.2178404,-87.7008122" /></g>
  </g>
</svg>