<?xml version="1.0"?>
<svg
  xmlns="http://www.w3.org/2000/svg"
  xmlns:xlink="http://www.w3.org/1999/xlink" version="1.1"
  preserveAspectRatio="xMinYMin meet"
  viewBox="26.6271774 91.2115783 372.43943690000003 130.147107"
  width="100%" height="100%"
>
  <g stroke="#000000" stroke-width="0.1%" fill="none" transform="matrix(1,0,0,-1,0,0)">
    <g stroke="rgb(0, 0, 0)"><path d="M32.5500758,-208.9989087L51.0993695,-208.8370314" /></g>
<g stroke="rgb(0, 0, 0)"><path d="M51.0993695,-208.8370314L50.9374922,-190.2877377" /></g>
<g stroke="rgb(0, 0, 0)"><path d="M50.9374922,-190.2877377L32.3881985,-190.449615" /></g>
<g stroke="rgb(0, 0, 0)"><path d="M32.3881985,-190.449615L32.5500758,-208.9989087" /></g>
<g stroke="rgb(0, 0, 0)"><path d="M27.1215357,-189.9955575L45.6708294,-189.8336802" /></g>
<g stroke="rgb(0, 0, 0)"><path d="M45.6708294,-189.8336802L45.5089521,-171.2843865" /></g>
<g stroke="rgb(0, 0, 0)"><path d="M45.5089521,-171.2843865L26.9596584,-171.4462638" /></g>
<g stroke="rgb(0, 0, 0)"><path d="M26.9596584,-171.4462638L27.1215357,-189.9955575" /></g>
<g stroke="rgb(0, 0, 0)"><path d="M26.9552952,-170.9462828L45.5045889,-170.7844055" /></g>
<g stroke="rgb(0, 0, 0)"><path d="M45.5045889,-170.7844055L45.3427116,-152.2351118" /></g>
<g stroke="rgb(0, 0, 0)"><path d="M45.3427116,-152.2351118L26.7934179,-152.3969891" /></g>
<g stroke="rgb(0, 0, 0)"><path d="M26.7934179,-152.3969891L26.9552952,-170.9462828" /></g>
<g stroke="rgb(0, 0, 0)"><path d="M26.7890547,-151.8970082L45.3383484,-151.7351309" /></g>
<g stroke="rgb(0, 0, 0)"><path d="M45.3383484,-151.7351309L45.1764711,-133.1858372" /></g>
<g stroke="rgb(0, 0, 0)"><path d="M45.1764711,-133.1858372L26.6271774,-133.3477145" /></g>
<g stroke="rgb(0, 0, 0)"><path d="M26.6271774,-133.3477145L26.7890547,-151.8970082" /></g>
<g stroke="rgb(0, 0, 0)"><path d="M31.8851138,-132.8018102L50.4344075,-132.6399329" /></g>
<g stroke="rgb(0, 0, 0)"><path d="M50.4344075,-132.6399329L50.2725302,-114.0906392" /></g>
<g stroke="rgb(0, 0, 0)"><path d="M50.2725302,-114.0906392L31.7232365,-114.2525165" /></g>
<g stroke="rgb(0, 0, 0)"><path d="M31.7232365,-114.2525165L31.8851138,-132.8018102" /></g>
<g stroke="rgb(0, 0, 0)"><path d="M31.7188733,-113.7525355L50.268167,-113.5906582" /></g>
<g stroke="rgb(0, 0, 0)"><path d="M50.268167,-113.5906582L50.1062897,-95.0413645" /></g>
<g stroke="rgb(0, 0, 0)"><path d="M50.1062897,-95.0413645L31.556996,-95.2032418" /></g>
<g stroke="rgb(0, 0, 0)"><path d="M31.556996,-95.2032418L31.7188733,-113.7525355" /></g>
<g stroke="rgb(0, 0, 0)"><path d="M51.5993505,-208.8326682L70.1486442,-208.6707909" /></g>
<g stroke="rgb(0, 0, 0)"><path d="M70.1486442,-208.6707909L69.9867669,-190.1214972" /></g>
<g stroke="rgb(0, 0, 0)"><path d="M69.9867669,-190.1214972L51.4374732,-190.2833745" /></g>
<g stroke="rgb(0, 0, 0)"><path d="M51.4374732,-190.2833745L51.5993505,-208.8326682" /></g>
<g stroke="rgb(0, 0, 0)"><path d="M51.43311,-189.7833936L69.9824037,-189.6215163" /></g>
<g stroke="rgb(0, 0, 0)"><path d="M69.9824037,-189.6215163L69.8205264,-171.0722226" /></g>
<g stroke="rgb(0, 0, 0)"><path d="M69.8205264,-171.0722226L51.2712327,-171.2340999" /></g>
<g stroke="rgb(0, 0, 0)"><path d="M51.2712327,-171.2340999L51.43311,-189.7833936" /></g>
<g stroke="rgb(0, 0, 0)"><path d="M51.2668695,-170.7341189L69.8161632,-170.5722416" /></g>
<g stroke="rgb(0, 0, 0)"><path d="M69.8161632,-170.5722416L69.6542859,-152.0229479" /></g>
<g stroke="rgb(0, 0, 0)"><path d="M69.6542859,-152.0229479L51.1049922,-152.1848252" /></g>
<g stroke="rgb(0, 0, 0)"><path d="M51.1049922,-152.1848252L51.2668695,-170.7341189" /></g>
<g stroke="rgb(0, 0, 0)"><path d="M51.100629,-151.6848443L69.6499227,-151.522967" /></g>
<g stroke="rgb(0, 0, 0)"><path d="M69.6499227,-151.522967L69.4880454,-132.9736733" /></g>
<g stroke="rgb(0, 0, 0)"><path d="M69.4880454,-132.9736733L50.9387517,-133.1355506" /></g>
<g stroke="rgb(0, 0, 0)"><path d="M50.9387517,-133.1355506L51.100629,-151.6848443" /></g>
<g stroke="rgb(0, 0, 0)"><path d="M50.9343885,-132.6355697L69.4836822,-132.4736924" /></g>
<g stroke="rgb(0, 0, 0)"><path d="M69.4836822,-132.4736924L69.3218049,-113.9243987" /></g>
<g stroke="rgb(0, 0, 0)"><path d="M69.3218049,-113.9243987L50.7725112,-114.086276" /></g>
<g stroke="rgb(0, 0, 0)"><path d="M50.7725112,-114.086276L50.9343885,-132.6355697" /></g>
<g stroke="rgb(0, 0, 0)"><path d="M70.4692947,-206.5046265L89.0185884,-206.6665038" /></g>
<g stroke="rgb(0, 0, 0)"><path d="M89.0185884,-206.6665038L89.1804657,-188.1172101" /></g>
<g stroke="rgb(0, 0, 0)"><path d="M89.1804657,-188.1172101L70.631172,-187.9553328" /></g>
<g stroke="rgb(0, 0, 0)"><path d="M70.631172,-187.9553328L70.4692947,-206.5046265" /></g>
<g stroke="rgb(0, 0, 0)"><path d="M70.6355352,-187.4553519L89.1848289,-187.6172292" /></g>
<g stroke="rgb(0, 0, 0)"><path d="M89.1848289,-187.6172292L89.3467062,-169.0679355" /></g>
<g stroke="rgb(0, 0, 0)"><path d="M89.3467062,-169.0679355L70.7974125,-168.9060582" /></g>
<g stroke="rgb(0, 0, 0)"><path d="M70.7974125,-168.9060582L70.6355352,-187.4553519" /></g>
<g stroke="rgb(0, 0, 0)"><path d="M70.8017756,-168.4060773L89.3510693,-168.5679546" /></g>
<g stroke="rgb(0, 0, 0)"><path d="M89.3510693,-168.5679546L89.5129466,-150.0186609" /></g>
<g stroke="rgb(0, 0, 0)"><path d="M89.5129466,-150.0186609L70.9636529,-149.8567836" /></g>
<g stroke="rgb(0, 0, 0)"><path d="M70.9636529,-149.8567836L70.8017756,-168.4060773" /></g>
<g stroke="rgb(0, 0, 0)"><path d="M70.9680161,-149.3568026L89.5173098,-149.5186799" /></g>
<g stroke="rgb(0, 0, 0)"><path d="M89.5173098,-149.5186799L89.6791871,-130.9693862" /></g>
<g stroke="rgb(0, 0, 0)"><path d="M89.6791871,-130.9693862L71.1298934,-130.8075089" /></g>
<g stroke="rgb(0, 0, 0)"><path d="M71.1298934,-130.8075089L70.9680161,-149.3568026" /></g>
<g stroke="rgb(0, 0, 0)"><path d="M71.1342566,-130.307528L89.6835503,-130.4694053" /></g>
<g stroke="rgb(0, 0, 0)"><path d="M89.6835503,-130.4694053L89.8454276,-111.9201116" /></g>
<g stroke="rgb(0, 0, 0)"><path d="M89.8454276,-111.9201116L71.2961339,-111.7582343" /></g>
<g stroke="rgb(0, 0, 0)"><path d="M71.2961339,-111.7582343L71.1342566,-130.307528" /></g>
<g stroke="rgb(0, 0, 0)"><path d="M71.300497,-111.2582533L89.8497907,-111.4201306" /></g>
<g stroke="rgb(0, 0, 0)"><path d="M89.8497907,-111.4201306L90.011668,-92.8708369" /></g>
<g stroke="rgb(0, 0, 0)"><path d="M90.011668,-92.8708369L71.4623743,-92.7089596" /></g>
<g stroke="rgb(0, 0, 0)"><path d="M71.4623743,-92.7089596L71.300497,-111.2582533" /></g>
<g stroke="rgb(0, 0, 0)"><path d="M89.3682685,-205.5062274L107.9119119,-205.9918098" /></g>
<g stroke="rgb(0, 0, 0)"><path d="M107.9119119,-205.9918098L108.3974943,-187.4481664" /></g>
<g stroke="rgb(0, 0, 0)"><path d="M108.3974943,-187.4481664L89.8538509,-186.962584" /></g>
<g stroke="rgb(0, 0, 0)"><path d="M89.8538509,-186.962584L89.3682685,-205.5062274" /></g>
<g stroke="rgb(0, 0, 0)"><path d="M89.8669393,-186.4627553L108.4105827,-186.9483377" /></g>
<g stroke="rgb(0, 0, 0)"><path d="M108.4105827,-186.9483377L108.8961651,-168.4046943" /></g>
<g stroke="rgb(0, 0, 0)"><path d="M108.8961651,-168.4046943L90.3525217,-167.9191119" /></g>
<g stroke="rgb(0, 0, 0)"><path d="M90.3525217,-167.9191119L89.8669393,-186.4627553" /></g>
<g stroke="rgb(0, 0, 0)"><path d="M90.3656102,-167.4192832L108.9092536,-167.9048656" /></g>
<g stroke="rgb(0, 0, 0)"><path d="M108.9092536,-167.9048656L109.394836,-149.3612222" /></g>
<g stroke="rgb(0, 0, 0)"><path d="M109.394836,-149.3612222L90.8511926,-148.8756398" /></g>
<g stroke="rgb(0, 0, 0)"><path d="M90.8511926,-148.8756398L90.3656102,-167.4192832" /></g>
<g stroke="rgb(0, 0, 0)"><path d="M90.864281,-148.3758111L109.4079244,-148.8613935" /></g>
<g stroke="rgb(0, 0, 0)"><path d="M109.4079244,-148.8613935L109.8935068,-130.3177501" /></g>
<g stroke="rgb(0, 0, 0)"><path d="M109.8935068,-130.3177501L91.3498634,-129.8321677" /></g>
<g stroke="rgb(0, 0, 0)"><path d="M91.3498634,-129.8321677L90.864281,-148.3758111" /></g>
<g stroke="rgb(0, 0, 0)"><path d="M91.3629519,-129.332339L109.9065953,-129.8179214" /></g>
<g stroke="rgb(0, 0, 0)"><path d="M109.9065953,-129.8179214L110.3921777,-111.274278" /></g>
<g stroke="rgb(0, 0, 0)"><path d="M110.3921777,-111.274278L91.8485343,-110.7886956" /></g>
<g stroke="rgb(0, 0, 0)"><path d="M91.8485343,-110.7886956L91.3629519,-129.332339" /></g>
<g stroke="rgb(0, 0, 0)"><path d="M91.8616228,-110.2888669L110.4052662,-110.7744493" /></g>
<g stroke="rgb(0, 0, 0)"><path d="M110.4052662,-110.7744493L110.8908486,-92.2308059" /></g>
<g stroke="rgb(0, 0, 0)"><path d="M110.8908486,-92.2308059L92.3472052,-91.7452235" /></g>
<g stroke="rgb(0, 0, 0)"><path d="M92.3472052,-91.7452235L91.8616228,-110.2888669" /></g>
<g stroke="rgb(0, 0, 0)"><path d="M109.0603838,-187.8052589L127.5927283,-188.6143986" /></g>
<g stroke="rgb(0, 0, 0)"><path d="M127.5927283,-188.6143986L128.401868,-170.0820541" /></g>
<g stroke="rgb(0, 0, 0)"><path d="M128.401868,-170.0820541L109.8695235,-169.2729144" /></g>
<g stroke="rgb(0, 0, 0)"><path d="M109.8695235,-169.2729144L109.0603838,-187.8052589" /></g>
<g stroke="rgb(0, 0, 0)"><path d="M109.8913332,-168.7733904L128.4236777,-169.5825301" /></g>
<g stroke="rgb(0, 0, 0)"><path d="M128.4236777,-169.5825301L129.2328174,-151.0501856" /></g>
<g stroke="rgb(0, 0, 0)"><path d="M129.2328174,-151.0501856L110.7004729,-150.2410459" /></g>
<g stroke="rgb(0, 0, 0)"><path d="M110.7004729,-150.2410459L109.8913332,-168.7733904" /></g>
<g stroke="rgb(0, 0, 0)"><path d="M110.7222825,-149.7415218L129.254627,-150.5506615" /></g>
<g stroke="rgb(0, 0, 0)"><path d="M129.254627,-150.5506615L130.0637667,-132.018317" /></g>
<g stroke="rgb(0, 0, 0)"><path d="M130.0637667,-132.018317L111.5314222,-131.2091773" /></g>
<g stroke="rgb(0, 0, 0)"><path d="M111.5314222,-131.2091773L110.7222825,-149.7415218" /></g>
<g stroke="rgb(0, 0, 0)"><path d="M111.5532319,-130.7096532L130.0855764,-131.5187929" /></g>
<g stroke="rgb(0, 0, 0)"><path d="M130.0855764,-131.5187929L130.8947161,-112.9864484" /></g>
<g stroke="rgb(0, 0, 0)"><path d="M130.8947161,-112.9864484L112.3623716,-112.1773087" /></g>
<g stroke="rgb(0, 0, 0)"><path d="M112.3623716,-112.1773087L111.5532319,-130.7096532" /></g>
<g stroke="rgb(0, 0, 0)"><path d="M112.3841812,-111.6777846L130.9165257,-112.4869243" /></g>
<g stroke="rgb(0, 0, 0)"><path d="M130.9165257,-112.4869243L131.7256654,-93.9545798" /></g>
<g stroke="rgb(0, 0, 0)"><path d="M131.7256654,-93.9545798L113.1933209,-93.1454401" /></g>
<g stroke="rgb(0, 0, 0)"><path d="M113.1933209,-93.1454401L112.3841812,-111.6777846" /></g>
<g stroke="rgb(0, 0, 0)"><path d="M125.7135519,-207.8035909L144.2421894,-208.6935852" /></g>
<g stroke="rgb(0, 0, 0)"><path d="M144.2421894,-208.6935852L145.1321837,-190.1649477" /></g>
<g stroke="rgb(0, 0, 0)"><path d="M145.1321837,-190.1649477L126.6035462,-189.2749534" /></g>
<g stroke="rgb(0, 0, 0)"><path d="M126.6035462,-189.2749534L125.7135519,-207.8035909" /></g>
<g stroke="rgb(0, 0, 0)"><path d="M128.1258078,-188.8474964L146.6544453,-189.7374907" /></g>
<g stroke="rgb(0, 0, 0)"><path d="M146.6544453,-189.7374907L147.5444396,-171.2088532" /></g>
<g stroke="rgb(0, 0, 0)"><path d="M147.5444396,-171.2088532L129.0158021,-170.3188589" /></g>
<g stroke="rgb(0, 0, 0)"><path d="M129.0158021,-170.3188589L128.1258078,-188.8474964" /></g>
<g stroke="rgb(0, 0, 0)"><path d="M129.0397911,-169.8194347L147.5684286,-170.709429" /></g>
<g stroke="rgb(0, 0, 0)"><path d="M147.5684286,-170.709429L148.4584229,-152.1807915" /></g>
<g stroke="rgb(0, 0, 0)"><path d="M148.4584229,-152.1807915L129.9297854,-151.2907972" /></g>
<g stroke="rgb(0, 0, 0)"><path d="M129.9297854,-151.2907972L129.0397911,-169.8194347" /></g>
<g stroke="rgb(0, 0, 0)"><path d="M129.9537745,-150.7913729L148.482412,-151.6813672" /></g>
<g stroke="rgb(0, 0, 0)"><path d="M148.482412,-151.6813672L149.3724063,-133.1527297" /></g>
<g stroke="rgb(0, 0, 0)"><path d="M149.3724063,-133.1527297L130.8437688,-132.2627354" /></g>
<g stroke="rgb(0, 0, 0)"><path d="M130.8437688,-132.2627354L129.9537745,-150.7913729" /></g>
<g stroke="rgb(0, 0, 0)"><path d="M130.8677578,-131.7633112L149.3963953,-132.6533055" /></g>
<g stroke="rgb(0, 0, 0)"><path d="M149.3963953,-132.6533055L150.2863896,-114.124668" /></g>
<g stroke="rgb(0, 0, 0)"><path d="M150.2863896,-114.124668L131.7577521,-113.2346737" /></g>
<g stroke="rgb(0, 0, 0)"><path d="M131.7577521,-113.2346737L130.8677578,-131.7633112" /></g>
<g stroke="rgb(0, 0, 0)"><path d="M131.7817412,-112.7352495L150.3103787,-113.6252438" /></g>
<g stroke="rgb(0, 0, 0)"><path d="M150.3103787,-113.6252438L151.200373,-95.0966063" /></g>
<g stroke="rgb(0, 0, 0)"><path d="M151.200373,-95.0966063L132.6717355,-94.206612" /></g>
<g stroke="rgb(0, 0, 0)"><path d="M132.6717355,-94.206612L131.7817412,-112.7352495" /></g>
<g stroke="rgb(0, 0, 0)"><path d="M182.048406,-208.6849475L200.5770435,-207.7949532" /></g>
<g stroke="rgb(0, 0, 0)"><path d="M200.5770435,-207.7949532L199.6870492,-189.2663157" /></g>
<g stroke="rgb(0, 0, 0)"><path d="M199.6870492,-189.2663157L181.1584117,-190.15631" /></g>
<g stroke="rgb(0, 0, 0)"><path d="M181.1584117,-190.15631L182.048406,-208.6849475" /></g>
<g stroke="rgb(0, 0, 0)"><path d="M179.63615,-189.7288529L198.1647875,-188.8388586" /></g>
<g stroke="rgb(0, 0, 0)"><path d="M198.1647875,-188.8388586L197.2747932,-170.3102211" /></g>
<g stroke="rgb(0, 0, 0)"><path d="M197.2747932,-170.3102211L178.7461557,-171.2002154" /></g>
<g stroke="rgb(0, 0, 0)"><path d="M178.7461557,-171.2002154L179.63615,-189.7288529" /></g>
<g stroke="rgb(0, 0, 0)"><path d="M178.7221666,-170.7007912L197.2508041,-169.8107969" /></g>
<g stroke="rgb(0, 0, 0)"><path d="M197.2508041,-169.8107969L196.3608098,-151.2821594" /></g>
<g stroke="rgb(0, 0, 0)"><path d="M196.3608098,-151.2821594L177.8321723,-152.1721537" /></g>
<g stroke="rgb(0, 0, 0)"><path d="M177.8321723,-152.1721537L178.7221666,-170.7007912" /></g>
<g stroke="rgb(0, 0, 0)"><path d="M177.8081833,-151.6727295L196.3368208,-150.7827352" /></g>
<g stroke="rgb(0, 0, 0)"><path d="M196.3368208,-150.7827352L195.4468265,-132.2540977" /></g>
<g stroke="rgb(0, 0, 0)"><path d="M195.4468265,-132.2540977L176.918189,-133.144092" /></g>
<g stroke="rgb(0, 0, 0)"><path d="M176.918189,-133.144092L177.8081833,-151.6727295" /></g>
<g stroke="rgb(0, 0, 0)"><path d="M176.8941999,-132.6446678L195.4228374,-131.7546735" /></g>
<g stroke="rgb(0, 0, 0)"><path d="M195.4228374,-131.7546735L194.5328431,-113.226036" /></g>
<g stroke="rgb(0, 0, 0)"><path d="M194.5328431,-113.226036L176.0042056,-114.1160303" /></g>
<g stroke="rgb(0, 0, 0)"><path d="M176.0042056,-114.1160303L176.8941999,-132.6446678" /></g>
<g stroke="rgb(0, 0, 0)"><path d="M175.9802166,-113.616606L194.5088541,-112.7266117" /></g>
<g stroke="rgb(0, 0, 0)"><path d="M194.5088541,-112.7266117L193.6188598,-94.1979742" /></g>
<g stroke="rgb(0, 0, 0)"><path d="M193.6188598,-94.1979742L175.0902223,-95.0879685" /></g>
<g stroke="rgb(0, 0, 0)"><path d="M175.0902223,-95.0879685L175.9802166,-113.616606" /></g>
<g stroke="rgb(0, 0, 0)"><path d="M198.6522172,-188.5651575L217.1808547,-187.6751632" /></g>
<g stroke="rgb(0, 0, 0)"><path d="M217.1808547,-187.6751632L216.2908604,-169.1465257" /></g>
<g stroke="rgb(0, 0, 0)"><path d="M216.2908604,-169.1465257L197.7622229,-170.03652" /></g>
<g stroke="rgb(0, 0, 0)"><path d="M197.7622229,-170.03652L198.6522172,-188.5651575" /></g>
<g stroke="rgb(0, 0, 0)"><path d="M197.7382339,-169.5370958L216.2668714,-168.6471015" /></g>
<g stroke="rgb(0, 0, 0)"><path d="M216.2668714,-168.6471015L215.3768771,-150.118464" /></g>
<g stroke="rgb(0, 0, 0)"><path d="M215.3768771,-150.118464L196.8482396,-151.0084583" /></g>
<g stroke="rgb(0, 0, 0)"><path d="M196.8482396,-151.0084583L197.7382339,-169.5370958" /></g>
<g stroke="rgb(0, 0, 0)"><path d="M196.8242505,-150.5090341L215.352888,-149.6190398" /></g>
<g stroke="rgb(0, 0, 0)"><path d="M215.352888,-149.6190398L214.4628937,-131.0904023" /></g>
<g stroke="rgb(0, 0, 0)"><path d="M214.4628937,-131.0904023L195.9342562,-131.9803966" /></g>
<g stroke="rgb(0, 0, 0)"><path d="M195.9342562,-131.9803966L196.8242505,-150.5090341" /></g>
<g stroke="rgb(0, 0, 0)"><path d="M195.9102672,-131.4809724L214.4389047,-130.5909781" /></g>
<g stroke="rgb(0, 0, 0)"><path d="M214.4389047,-130.5909781L213.5489104,-112.0623406" /></g>
<g stroke="rgb(0, 0, 0)"><path d="M213.5489104,-112.0623406L195.0202729,-112.9523349" /></g>
<g stroke="rgb(0, 0, 0)"><path d="M195.0202729,-112.9523349L195.9102672,-131.4809724" /></g>
<g stroke="rgb(0, 0, 0)"><path d="M194.9962838,-112.4529106L213.5249213,-111.5629163" /></g>
<g stroke="rgb(0, 0, 0)"><path d="M213.5249213,-111.5629163L212.634927,-93.0342788" /></g>
<g stroke="rgb(0, 0, 0)"><path d="M212.634927,-93.0342788L194.1062895,-93.9242731" /></g>
<g stroke="rgb(0, 0, 0)"><path d="M194.1062895,-93.9242731L194.9962838,-112.4529106" /></g>
<g stroke="rgb(0, 0, 0)"><path d="M218.3781765,-205.5249903L236.9195246,-204.9585008" /></g>
<g stroke="rgb(0, 0, 0)"><path d="M236.9195246,-204.9585008L236.3530351,-186.4171527" /></g>
<g stroke="rgb(0, 0, 0)"><path d="M236.3530351,-186.4171527L217.811687,-186.9836422" /></g>
<g stroke="rgb(0, 0, 0)"><path d="M217.811687,-186.9836422L218.3781765,-205.5249903" /></g>
<g stroke="rgb(0, 0, 0)"><path d="M217.7964178,-186.4838755L236.3377659,-185.917386" /></g>
<g stroke="rgb(0, 0, 0)"><path d="M236.3377659,-185.917386L235.7712764,-167.3760379" /></g>
<g stroke="rgb(0, 0, 0)"><path d="M235.7712764,-167.3760379L217.2299283,-167.9425274" /></g>
<g stroke="rgb(0, 0, 0)"><path d="M217.2299283,-167.9425274L217.7964178,-186.4838755" /></g>
<g stroke="rgb(0, 0, 0)"><path d="M217.2146591,-167.4427606L235.7560072,-166.8762711" /></g>
<g stroke="rgb(0, 0, 0)"><path d="M235.7560072,-166.8762711L235.1895177,-148.334923" /></g>
<g stroke="rgb(0, 0, 0)"><path d="M235.1895177,-148.334923L216.6481696,-148.9014125" /></g>
<g stroke="rgb(0, 0, 0)"><path d="M216.6481696,-148.9014125L217.2146591,-167.4427606" /></g>
<g stroke="rgb(0, 0, 0)"><path d="M216.6329003,-148.4016457L235.1742484,-147.8351562" /></g>
<g stroke="rgb(0, 0, 0)"><path d="M235.1742484,-147.8351562L234.6077589,-129.2938081" /></g>
<g stroke="rgb(0, 0, 0)"><path d="M234.6077589,-129.2938081L216.0664108,-129.8602976" /></g>
<g stroke="rgb(0, 0, 0)"><path d="M216.0664108,-129.8602976L216.6329003,-148.4016457" /></g>
<g stroke="rgb(0, 0, 0)"><path d="M216.0511416,-129.3605308L234.5924897,-128.7940413" /></g>
<g stroke="rgb(0, 0, 0)"><path d="M234.5924897,-128.7940413L234.0260002,-110.2526932" /></g>
<g stroke="rgb(0, 0, 0)"><path d="M234.0260002,-110.2526932L215.4846521,-110.8191827" /></g>
<g stroke="rgb(0, 0, 0)"><path d="M215.4846521,-110.8191827L216.0511416,-129.3605308" /></g>
<g stroke="rgb(0, 0, 0)"><path d="M215.4693829,-110.3194159L234.010731,-109.7529264" /></g>
<g stroke="rgb(0, 0, 0)"><path d="M234.010731,-109.7529264L233.4442415,-91.2115783" /></g>
<g stroke="rgb(0, 0, 0)"><path d="M233.4442415,-91.2115783L214.9028934,-91.7780678" /></g>
<g stroke="rgb(0, 0, 0)"><path d="M214.9028934,-91.7780678L215.4693829,-110.3194159" /></g>
<g stroke="rgb(0, 0, 0)"><path d="M237.2844598,-205.7844579L255.8328706,-205.5416459" /></g>
<g stroke="rgb(0, 0, 0)"><path d="M255.8328706,-205.5416459L255.5900586,-186.9932351" /></g>
<g stroke="rgb(0, 0, 0)"><path d="M255.5900586,-186.9932351L237.0416478,-187.2360471" /></g>
<g stroke="rgb(0, 0, 0)"><path d="M237.0416478,-187.2360471L237.2844598,-205.7844579" /></g>
<g stroke="rgb(0, 0, 0)"><path d="M237.0351031,-186.7360899L255.5835139,-186.4932779" /></g>
<g stroke="rgb(0, 0, 0)"><path d="M255.5835139,-186.4932779L255.3407019,-167.9448671" /></g>
<g stroke="rgb(0, 0, 0)"><path d="M255.3407019,-167.9448671L236.7922911,-168.1876791" /></g>
<g stroke="rgb(0, 0, 0)"><path d="M236.7922911,-168.1876791L237.0351031,-186.7360899" /></g>
<g stroke="rgb(0, 0, 0)"><path d="M236.7857463,-167.6877219L255.3341571,-167.4449099" /></g>
<g stroke="rgb(0, 0, 0)"><path d="M255.3341571,-167.4449099L255.0913451,-148.8964991" /></g>
<g stroke="rgb(0, 0, 0)"><path d="M255.0913451,-148.8964991L236.5429343,-149.1393111" /></g>
<g stroke="rgb(0, 0, 0)"><path d="M236.5429343,-149.1393111L236.7857463,-167.6877219" /></g>
<g stroke="rgb(0, 0, 0)"><path d="M236.5363896,-148.6393539L255.0848004,-148.3965419" /></g>
<g stroke="rgb(0, 0, 0)"><path d="M255.0848004,-148.3965419L254.8419884,-129.8481311" /></g>
<g stroke="rgb(0, 0, 0)"><path d="M254.8419884,-129.8481311L236.2935776,-130.0909431" /></g>
<g stroke="rgb(0, 0, 0)"><path d="M236.2935776,-130.0909431L236.5363896,-148.6393539" /></g>
<g stroke="rgb(0, 0, 0)"><path d="M236.2870328,-129.590986L254.8354436,-129.348174" /></g>
<g stroke="rgb(0, 0, 0)"><path d="M254.8354436,-129.348174L254.5926316,-110.7997632" /></g>
<g stroke="rgb(0, 0, 0)"><path d="M254.5926316,-110.7997632L236.0442208,-111.0425752" /></g>
<g stroke="rgb(0, 0, 0)"><path d="M236.0442208,-111.0425752L236.2870328,-129.590986" /></g>
<g stroke="rgb(0, 0, 0)"><path d="M236.037676,-110.542618L254.5860868,-110.299806" /></g>
<g stroke="rgb(0, 0, 0)"><path d="M254.5860868,-110.299806L254.3432748,-91.7513952" /></g>
<g stroke="rgb(0, 0, 0)"><path d="M254.3432748,-91.7513952L235.794864,-91.9942072" /></g>
<g stroke="rgb(0, 0, 0)"><path d="M235.794864,-91.9942072L236.037676,-110.542618" /></g>
<g stroke="rgb(0, 0, 0)"><path d="M256.196425,-207.3737603L274.7462484,-207.4546997" /></g>
<g stroke="rgb(0, 0, 0)"><path d="M274.7462484,-207.4546997L274.8271878,-188.9048763" /></g>
<g stroke="rgb(0, 0, 0)"><path d="M274.8271878,-188.9048763L256.2773644,-188.8239369" /></g>
<g stroke="rgb(0, 0, 0)"><path d="M256.2773644,-188.8239369L256.196425,-207.3737603" /></g>
<g stroke="rgb(0, 0, 0)"><path d="M256.279546,-188.3239417L274.8293694,-188.4048811" /></g>
<g stroke="rgb(0, 0, 0)"><path d="M274.8293694,-188.4048811L274.9103088,-169.8550577" /></g>
<g stroke="rgb(0, 0, 0)"><path d="M274.9103088,-169.8550577L256.3604854,-169.7741183" /></g>
<g stroke="rgb(0, 0, 0)"><path d="M256.3604854,-169.7741183L256.279546,-188.3239417" /></g>
<g stroke="rgb(0, 0, 0)"><path d="M256.3626671,-169.2741231L274.9124905,-169.3550625" /></g>
<g stroke="rgb(0, 0, 0)"><path d="M274.9124905,-169.3550625L274.9934299,-150.8052391" /></g>
<g stroke="rgb(0, 0, 0)"><path d="M274.9934299,-150.8052391L256.4436065,-150.7242997" /></g>
<g stroke="rgb(0, 0, 0)"><path d="M256.4436065,-150.7242997L256.3626671,-169.2741231" /></g>
<g stroke="rgb(0, 0, 0)"><path d="M256.4457881,-150.2243045L274.9956115,-150.3052439" /></g>
<g stroke="rgb(0, 0, 0)"><path d="M274.9956115,-150.3052439L275.0765509,-131.7554205" /></g>
<g stroke="rgb(0, 0, 0)"><path d="M275.0765509,-131.7554205L256.5267275,-131.6744811" /></g>
<g stroke="rgb(0, 0, 0)"><path d="M256.5267275,-131.6744811L256.4457881,-150.2243045" /></g>
<g stroke="rgb(0, 0, 0)"><path d="M256.5289092,-131.1744859L275.0787326,-131.2554253" /></g>
<g stroke="rgb(0, 0, 0)"><path d="M275.0787326,-131.2554253L275.159672,-112.7056019" /></g>
<g stroke="rgb(0, 0, 0)"><path d="M275.159672,-112.7056019L256.6098486,-112.6246625" /></g>
<g stroke="rgb(0, 0, 0)"><path d="M256.6098486,-112.6246625L256.5289092,-131.1744859" /></g>
<g stroke="rgb(0, 0, 0)"><path d="M275.2462436,-207.4568814L293.796067,-207.5378208" /></g>
<g stroke="rgb(0, 0, 0)"><path d="M293.796067,-207.5378208L293.8770064,-188.9879974" /></g>
<g stroke="rgb(0, 0, 0)"><path d="M293.8770064,-188.9879974L275.327183,-188.907058" /></g>
<g stroke="rgb(0, 0, 0)"><path d="M275.327183,-188.907058L275.2462436,-207.4568814" /></g>
<g stroke="rgb(0, 0, 0)"><path d="M280.6918136,-188.4304611L299.241637,-188.5114005" /></g>
<g stroke="rgb(0, 0, 0)"><path d="M299.241637,-188.5114005L299.3225764,-169.9615771" /></g>
<g stroke="rgb(0, 0, 0)"><path d="M299.3225764,-169.9615771L280.772753,-169.8806377" /></g>
<g stroke="rgb(0, 0, 0)"><path d="M280.772753,-169.8806377L280.6918136,-188.4304611" /></g>
<g stroke="rgb(0, 0, 0)"><path d="M275.4124857,-169.3572441L293.9623091,-169.4381835" /></g>
<g stroke="rgb(0, 0, 0)"><path d="M293.9623091,-169.4381835L294.0432485,-150.8883601" /></g>
<g stroke="rgb(0, 0, 0)"><path d="M294.0432485,-150.8883601L275.4934251,-150.8074207" /></g>
<g stroke="rgb(0, 0, 0)"><path d="M275.4934251,-150.8074207L275.4124857,-169.3572441" /></g>
<g stroke="rgb(0, 0, 0)"><path d="M275.4956067,-150.3074255L294.0454301,-150.3883649" /></g>
<g stroke="rgb(0, 0, 0)"><path d="M294.0454301,-150.3883649L294.1263695,-131.8385415" /></g>
<g stroke="rgb(0, 0, 0)"><path d="M294.1263695,-131.8385415L275.5765461,-131.7576021" /></g>
<g stroke="rgb(0, 0, 0)"><path d="M275.5765461,-131.7576021L275.4956067,-150.3074255" /></g>
<g stroke="rgb(0, 0, 0)"><path d="M275.5787278,-131.2576069L294.1285512,-131.3385463" /></g>
<g stroke="rgb(0, 0, 0)"><path d="M294.1285512,-131.3385463L294.2094906,-112.7887229" /></g>
<g stroke="rgb(0, 0, 0)"><path d="M294.2094906,-112.7887229L275.6596672,-112.7077835" /></g>
<g stroke="rgb(0, 0, 0)"><path d="M275.6596672,-112.7077835L275.5787278,-131.2576069" /></g>
<g stroke="rgb(0, 0, 0)"><path d="M275.6618488,-112.2077883L294.2116722,-112.2887277" /></g>
<g stroke="rgb(0, 0, 0)"><path d="M294.2116722,-112.2887277L294.2926116,-93.7389043" /></g>
<g stroke="rgb(0, 0, 0)"><path d="M294.2926116,-93.7389043L275.7427882,-93.6579649" /></g>
<g stroke="rgb(0, 0, 0)"><path d="M275.7427882,-93.6579649L275.6618488,-112.2077883" /></g>
<g stroke="rgb(0, 0, 0)"><path d="M299.8247534,-169.4637636L318.3745768,-169.544703" /></g>
<g stroke="rgb(0, 0, 0)"><path d="M318.3745768,-169.544703L318.4555162,-150.9948796" /></g>
<g stroke="rgb(0, 0, 0)"><path d="M318.4555162,-150.9948796L299.9056928,-150.9139402" /></g>
<g stroke="rgb(0, 0, 0)"><path d="M299.9056928,-150.9139402L299.8247534,-169.4637636" /></g>
<g stroke="rgb(0, 0, 0)"><path d="M294.5454254,-150.3905467L313.0952488,-150.4714861" /></g>
<g stroke="rgb(0, 0, 0)"><path d="M313.0952488,-150.4714861L313.1761882,-131.9216627" /></g>
<g stroke="rgb(0, 0, 0)"><path d="M313.1761882,-131.9216627L294.6263648,-131.8407233" /></g>
<g stroke="rgb(0, 0, 0)"><path d="M294.6263648,-131.8407233L294.5454254,-150.3905467" /></g>
<g stroke="rgb(0, 0, 0)"><path d="M294.6285465,-131.3407281L313.1783699,-131.4216675" /></g>
<g stroke="rgb(0, 0, 0)"><path d="M313.1783699,-131.4216675L313.2593093,-112.8718441" /></g>
<g stroke="rgb(0, 0, 0)"><path d="M313.2593093,-112.8718441L294.7094859,-112.7909047" /></g>
<g stroke="rgb(0, 0, 0)"><path d="M294.7094859,-112.7909047L294.6285465,-131.3407281" /></g>
<g stroke="rgb(0, 0, 0)"><path d="M294.7116675,-112.2909094L313.2614909,-112.3718488" /></g>
<g stroke="rgb(0, 0, 0)"><path d="M313.2614909,-112.3718488L313.3424303,-93.8220254" /></g>
<g stroke="rgb(0, 0, 0)"><path d="M313.3424303,-93.8220254L294.7926069,-93.741086" /></g>
<g stroke="rgb(0, 0, 0)"><path d="M294.7926069,-93.741086L294.7116675,-112.2909094" /></g>
<g stroke="rgb(0, 0, 0)"><path d="M313.5952441,-150.4736676L332.1450675,-150.554607" /></g>
<g stroke="rgb(0, 0, 0)"><path d="M332.1450675,-150.554607L332.2260069,-132.0047836" /></g>
<g stroke="rgb(0, 0, 0)"><path d="M332.2260069,-132.0047836L313.6761835,-131.9238442" /></g>
<g stroke="rgb(0, 0, 0)"><path d="M313.6761835,-131.9238442L313.5952441,-150.4736676" /></g>
<g stroke="rgb(0, 0, 0)"><path d="M319.0408141,-131.4472473L337.5906375,-131.5281867" /></g>
<g stroke="rgb(0, 0, 0)"><path d="M337.5906375,-131.5281867L337.6715769,-112.9783633" /></g>
<g stroke="rgb(0, 0, 0)"><path d="M337.6715769,-112.9783633L319.1217535,-112.8974239" /></g>
<g stroke="rgb(0, 0, 0)"><path d="M319.1217535,-112.8974239L319.0408141,-131.4472473" /></g>
<g stroke="rgb(0, 0, 0)"><path d="M313.7614862,-112.3740304L332.3113096,-112.4549698" /></g>
<g stroke="rgb(0, 0, 0)"><path d="M332.3113096,-112.4549698L332.392249,-93.9051464" /></g>
<g stroke="rgb(0, 0, 0)"><path d="M332.392249,-93.9051464L313.8424256,-93.824207" /></g>
<g stroke="rgb(0, 0, 0)"><path d="M313.8424256,-93.824207L313.7614862,-112.3740304" /></g>
<g stroke="rgb(0, 0, 0)"><path d="M332.8113049,-112.4571515L351.3611283,-112.5380909" /></g>
<g stroke="rgb(0, 0, 0)"><path d="M351.3611283,-112.5380909L351.4420677,-93.9882675" /></g>
<g stroke="rgb(0, 0, 0)"><path d="M351.4420677,-93.9882675L332.8922443,-93.9073281" /></g>
<g stroke="rgb(0, 0, 0)"><path d="M332.8922443,-93.9073281L332.8113049,-112.4571515" /></g>
<g stroke="rgb(0, 0, 0)"><path d="M337.7482742,-221.3586853L350.2206785,-207.627639" /></g>
<g stroke="rgb(0, 0, 0)"><path d="M350.2206785,-207.627639L336.4896322,-195.1552347" /></g>
<g stroke="rgb(0, 0, 0)"><path d="M336.4896322,-195.1552347L324.0172279,-208.886281" /></g>
<g stroke="rgb(0, 0, 0)"><path d="M324.0172279,-208.886281L337.7482742,-221.3586853" /></g>
<g stroke="rgb(0, 0, 0)"><path d="M323.6471189,-208.5500976L336.1195232,-194.8190513" /></g>
<g stroke="rgb(0, 0, 0)"><path d="M336.1195232,-194.8190513L322.3884769,-182.346647" /></g>
<g stroke="rgb(0, 0, 0)"><path d="M322.3884769,-182.346647L309.9160726,-196.0776933" /></g>
<g stroke="rgb(0, 0, 0)"><path d="M309.9160726,-196.0776933L323.6471189,-208.5500976" /></g>
<g stroke="rgb(0, 0, 0)"><path d="M350.5568619,-207.25753L363.0292662,-193.5264837" /></g>
<g stroke="rgb(0, 0, 0)"><path d="M363.0292662,-193.5264837L349.2982199,-181.0540794" /></g>
<g stroke="rgb(0, 0, 0)"><path d="M349.2982199,-181.0540794L336.8258156,-194.7851257" /></g>
<g stroke="rgb(0, 0, 0)"><path d="M336.8258156,-194.7851257L350.5568619,-207.25753" /></g>
<g stroke="rgb(0, 0, 0)"><path d="M336.4557066,-194.4489423L348.9281109,-180.717896" /></g>
<g stroke="rgb(0, 0, 0)"><path d="M348.9281109,-180.717896L335.1970646,-168.2454917" /></g>
<g stroke="rgb(0, 0, 0)"><path d="M335.1970646,-168.2454917L322.7246603,-181.976538" /></g>
<g stroke="rgb(0, 0, 0)"><path d="M322.7246603,-181.976538L336.4557066,-194.4489423" /></g>
<g stroke="rgb(0, 0, 0)"><path d="M366.5675965,-189.6310857L379.0400008,-175.9000394" /></g>
<g stroke="rgb(0, 0, 0)"><path d="M379.0400008,-175.9000394L365.3089545,-163.4276351" /></g>
<g stroke="rgb(0, 0, 0)"><path d="M365.3089545,-163.4276351L352.8365502,-177.1586814" /></g>
<g stroke="rgb(0, 0, 0)"><path d="M352.8365502,-177.1586814L366.5675965,-189.6310857" /></g>
<g stroke="rgb(0, 0, 0)"><path d="M352.4664412,-176.8224981L364.9388455,-163.0914518" /></g>
<g stroke="rgb(0, 0, 0)"><path d="M364.9388455,-163.0914518L351.2077992,-150.6190475" /></g>
<g stroke="rgb(0, 0, 0)"><path d="M351.2077992,-150.6190475L338.7353949,-164.3500938" /></g>
<g stroke="rgb(0, 0, 0)"><path d="M338.7353949,-164.3500938L352.4664412,-176.8224981" /></g>
<g stroke="rgb(0, 0, 0)"><path d="M379.3761842,-175.5299304L391.8485885,-161.7988841" /></g>
<g stroke="rgb(0, 0, 0)"><path d="M391.8485885,-161.7988841L378.1175422,-149.3264798" /></g>
<g stroke="rgb(0, 0, 0)"><path d="M378.1175422,-149.3264798L365.6451379,-163.0575261" /></g>
<g stroke="rgb(0, 0, 0)"><path d="M365.6451379,-163.0575261L379.3761842,-175.5299304" /></g>
<g stroke="rgb(0, 0, 0)"><path d="M365.2750289,-162.7213427L377.7474332,-148.9902964" /></g>
<g stroke="rgb(0, 0, 0)"><path d="M377.7474332,-148.9902964L364.0163869,-136.5178921" /></g>
<g stroke="rgb(0, 0, 0)"><path d="M364.0163869,-136.5178921L351.5439826,-150.2489384" /></g>
<g stroke="rgb(0, 0, 0)"><path d="M351.5439826,-150.2489384L365.2750289,-162.7213427" /></g>
<g stroke="rgb(0, 0, 0)"><path d="M361.3029118,-131.6316517L379.8527352,-131.7125911" /></g>
<g stroke="rgb(0, 0, 0)"><path d="M379.8527352,-131.7125911L379.9336746,-113.1627677" /></g>
<g stroke="rgb(0, 0, 0)"><path d="M379.9336746,-113.1627677L361.3838512,-113.0818283" /></g>
<g stroke="rgb(0, 0, 0)"><path d="M361.3838512,-113.0818283L361.3029118,-131.6316517" /></g>
<g stroke="rgb(0, 0, 0)"><path d="M361.3860329,-112.5818331L379.9358563,-112.6627725" /></g>
<g stroke="rgb(0, 0, 0)"><path d="M379.9358563,-112.6627725L380.0167957,-94.1129491" /></g>
<g stroke="rgb(0, 0, 0)"><path d="M380.0167957,-94.1129491L361.4669723,-94.0320097" /></g>
<g stroke="rgb(0, 0, 0)"><path d="M361.4669723,-94.0320097L361.3860329,-112.5818331" /></g>
<g stroke="rgb(0, 0, 0)"><path d="M380.3527304,-131.7147728L398.9025538,-131.7957122" /></g>
<g stroke="rgb(0, 0, 0)"><path d="M398.9025538,-131.7957122L398.9834932,-113.2458888" /></g>
<g stroke="rgb(0, 0, 0)"><path d="M398.9834932,-113.2458888L380.4336698,-113.1649494" /></g>
<g stroke="rgb(0, 0, 0)"><path d="M380.4336698,-113.1649494L380.3527304,-131.7147728" /></g>
<g stroke="rgb(0, 0, 0)"><path d="M380.4358515,-112.6649541L398.9856749,-112.7458935" /></g>
<g stroke="rgb(0, 0, 0)"><path d="M398.9856749,-112.7458935L399.0666143,-94.1960701" /></g>
<g stroke="rgb(0, 0, 0)"><path d="M399.0666143,-94.1960701L380.5167909,-94.1151307" /></g>
<g stroke="rgb(0, 0, 0)"><path d="M380.5167909,-94.1151307L380.4358515,-112.6649541" /></g>
  </g>
</svg>