0
SECTION
2
HEADER
9
$INSUNITS
70
4
0
ENDSEC
0
SECTION
2
TABLES
0
TABLE
2
LTYPE
0
LTYPE
72
65
70
64
2
CONTINUOUS
3
______
73
0
40
0
0
ENDTAB
0
TABLE
2
LAYER
0
ENDTAB
0
ENDSEC
0
SECTION
2
ENTITIES
0
LINE
8
0
10
17.75
20
-184.25
11
36.25
21
-184.25
0
LINE
8
0
10
36.25
20
-184.25
11
36.25
21
-165.75
0
LINE
8
0
10
36.25
20
-165.75
11
17.75
21
-165.75
0
LINE
8
0
10
17.75
20
-165.75
11
17.75
21
-184.25
0
LINE
8
0
10
17.75
20
-165.25
11
36.25
21
-165.25
0
LINE
8
0
10
36.25
20
-165.25
11
36.25
21
-146.75
0
LINE
8
0
10
36.25
20
-146.75
11
17.75
21
-146.75
0
LINE
8
0
10
17.75
20
-146.75
11
17.75
21
-165.25
0
LINE
8
0
10
17.75
20
-146.25
11
36.25
21
-146.25
0
LINE
8
0
10
36.25
20
-146.25
11
36.25
21
-127.75
0
LINE
8
0
10
36.25
20
-127.75
11
17.75
21
-127.75
0
LINE
8
0
10
17.75
20
-127.75
11
17.75
21
-146.25
0
LINE
8
0
10
17.75
20
-127.25
11
36.25
21
-127.25
0
LINE
8
0
10
36.25
20
-127.25
11
36.25
21
-108.75
0
LINE
8
0
10
36.25
20
-108.75
11
17.75
21
-108.75
0
LINE
8
0
10
17.75
20
-108.75
11
17.75
21
-127.25
0
LINE
8
0
10
17.75
20
-108.25
11
36.25
21
-108.25
0
LINE
8
0
10
36.25
20
-108.25
11
36.25
21
-89.75
0
LINE
8
0
10
36.25
20
-89.75
11
17.75
21
-89.75
0
LINE
8
0
10
17.75
20
-89.75
11
17.75
21
-108.25
0
LINE
8
0
10
17.75
20
-89.25
11
36.25
21
-89.25
0
LINE
8
0
10
36.25
20
-89.25
11
36.25
21
-70.75
0
LINE
8
0
10
36.25
20
-70.75
11
17.75
21
-70.75
0
LINE
8
0
10
17.75
20
-70.75
11
17.75
21
-89.25
0
LINE
8
0
10
36.75
20
-184.25
11
55.25
21
-184.25
0
LINE
8
0
10
55.25
20
-184.25
11
55.25
21
-165.75
0
LINE
8
0
10
55.25
20
-165.75
11
36.75
21
-165.75
0
LINE
8
0
10
36.75
20
-165.75
11
36.75
21
-184.25
0
LINE
8
0
10
46.275
20
-165.25
11
64.775
21
-165.25
0
LINE
8
0
10
64.775
20
-165.25
11
64.775
21
-146.75
0
LINE
8
0
10
64.775
20
-146.75
11
46.275
21
-146.75
0
LINE
8
0
10
46.275
20
-146.75
11
46.275
21
-165.25
0
LINE
8
0
10
46.275
20
-146.25
11
64.775
21
-146.25
0
LINE
8
0
10
64.775
20
-146.25
11
64.775
21
-127.75
0
LINE
8
0
10
64.775
20
-127.75
11
46.275
21
-127.75
0
LINE
8
0
10
46.275
20
-127.75
11
46.275
21
-146.25
0
LINE
8
0
10
46.275
20
-127.25
11
64.775
21
-127.25
0
LINE
8
0
10
64.775
20
-127.25
11
64.775
21
-108.75
0
LINE
8
0
10
64.775
20
-108.75
11
46.275
21
-108.75
0
LINE
8
0
10
46.275
20
-108.75
11
46.275
21
-127.25
0
LINE
8
0
10
36.75
20
-108.25
11
55.25
21
-108.25
0
LINE
8
0
10
55.25
20
-108.25
11
55.25
21
-89.75
0
LINE
8
0
10
55.25
20
-89.75
11
36.75
21
-89.75
0
LINE
8
0
10
36.75
20
-89.75
11
36.75
21
-108.25
0
LINE
8
0
10
55.75
20
-184.25
11
74.25
21
-184.25
0
LINE
8
0
10
74.25
20
-184.25
11
74.25
21
-165.75
0
LINE
8
0
10
74.25
20
-165.75
11
55.75
21
-165.75
0
LINE
8
0
10
55.75
20
-165.75
11
55.75
21
-184.25
0
LINE
8
0
10
65.275
20
-165.25
11
83.775
21
-165.25
0
LINE
8
0
10
83.775
20
-165.25
11
83.775
21
-146.75
0
LINE
8
0
10
83.775
20
-146.75
11
65.275
21
-146.75
0
LINE
8
0
10
65.275
20
-146.75
11
65.275
21
-165.25
0
LINE
8
0
10
65.275
20
-146.25
11
83.775
21
-146.25
0
LINE
8
0
10
83.775
20
-146.25
11
83.775
21
-127.75
0
LINE
8
0
10
83.775
20
-127.75
11
65.275
21
-127.75
0
LINE
8
0
10
65.275
20
-127.75
11
65.275
21
-146.25
0
LINE
8
0
10
65.275
20
-127.25
11
83.775
21
-127.25
0
LINE
8
0
10
83.775
20
-127.25
11
83.775
21
-108.75
0
LINE
8
0
10
83.775
20
-108.75
11
65.275
21
-108.75
0
LINE
8
0
10
65.275
20
-108.75
11
65.275
21
-127.25
0
LINE
8
0
10
55.75
20
-108.25
11
74.25
21
-108.25
0
LINE
8
0
10
74.25
20
-108.25
11
74.25
21
-89.75
0
LINE
8
0
10
74.25
20
-89.75
11
55.75
21
-89.75
0
LINE
8
0
10
55.75
20
-89.75
11
55.75
21
-108.25
0
LINE
8
0
10
55.75
20
-89.25
11
74.25
21
-89.25
0
LINE
8
0
10
74.25
20
-89.25
11
74.25
21
-70.75
0
LINE
8
0
10
74.25
20
-70.75
11
55.75
21
-70.75
0
LINE
8
0
10
55.75
20
-70.75
11
55.75
21
-89.25
0
LINE
8
0
10
74.75
20
-184.25
11
93.25
21
-184.25
0
LINE
8
0
10
93.25
20
-184.25
11
93.25
21
-165.75
0
LINE
8
0
10
93.25
20
-165.75
11
74.75
21
-165.75
0
LINE
8
0
10
74.75
20
-165.75
11
74.75
21
-184.25
0
LINE
8
0
10
84.275
20
-165.25
11
102.775
21
-165.25
0
LINE
8
0
10
102.775
20
-165.25
11
102.775
21
-146.75
0
LINE
8
0
10
102.775
20
-146.75
11
84.275
21
-146.75
0
LINE
8
0
10
84.275
20
-146.75
11
84.275
21
-165.25
0
LINE
8
0
10
84.275
20
-146.25
11
102.775
21
-146.25
0
LINE
8
0
10
102.775
20
-146.25
11
102.775
21
-127.75
0
LINE
8
0
10
102.775
20
-127.75
11
84.275
21
-127.75
0
LINE
8
0
10
84.275
20
-127.75
11
84.275
21
-146.25
0
LINE
8
0
10
84.275
20
-127.25
11
102.775
21
-127.25
0
LINE
8
0
10
102.775
20
-127.25
11
102.775
21
-108.75
0
LINE
8
0
10
102.775
20
-108.75
11
84.275
21
-108.75
0
LINE
8
0
10
84.275
20
-108.75
11
84.275
21
-127.25
0
LINE
8
0
10
74.75
20
-108.25
11
93.25
21
-108.25
0
LINE
8
0
10
93.25
20
-108.25
11
93.25
21
-89.75
0
LINE
8
0
10
93.25
20
-89.75
11
74.75
21
-89.75
0
LINE
8
0
10
74.75
20
-89.75
11
74.75
21
-108.25
0
LINE
8
0
10
74.75
20
-89.25
11
93.25
21
-89.25
0
LINE
8
0
10
93.25
20
-89.25
11
93.25
21
-70.75
0
LINE
8
0
10
93.25
20
-70.75
11
74.75
21
-70.75
0
LINE
8
0
10
74.75
20
-70.75
11
74.75
21
-89.25
0
LINE
8
0
10
112.8
20
-184.25
11
131.3
21
-184.25
0
LINE
8
0
10
131.3
20
-184.25
11
131.3
21
-165.75
0
LINE
8
0
10
131.3
20
-165.75
11
112.8
21
-165.75
0
LINE
8
0
10
112.8
20
-165.75
11
112.8
21
-184.25
0
LINE
8
0
10
103.275
20
-165.25
11
121.775
21
-165.25
0
LINE
8
0
10
121.775
20
-165.25
11
121.775
21
-146.75
0
LINE
8
0
10
121.775
20
-146.75
11
103.275
21
-146.75
0
LINE
8
0
10
103.275
20
-146.75
11
103.275
21
-165.25
0
LINE
8
0
10
103.275
20
-146.25
11
121.775
21
-146.25
0
LINE
8
0
10
121.775
20
-146.25
11
121.775
21
-127.75
0
LINE
8
0
10
121.775
20
-127.75
11
103.275
21
-127.75
0
LINE
8
0
10
103.275
20
-127.75
11
103.275
21
-146.25
0
LINE
8
0
10
103.275
20
-127.25
11
121.775
21
-127.25
0
LINE
8
0
10
121.775
20
-127.25
11
121.775
21
-108.75
0
LINE
8
0
10
121.775
20
-108.75
11
103.275
21
-108.75
0
LINE
8
0
10
103.275
20
-108.75
11
103.275
21
-127.25
0
LINE
8
0
10
93.75
20
-108.25
11
112.25
21
-108.25
0
LINE
8
0
10
112.25
20
-108.25
11
112.25
21
-89.75
0
LINE
8
0
10
112.25
20
-89.75
11
93.75
21
-89.75
0
LINE
8
0
10
93.75
20
-89.75
11
93.75
21
-108.25
0
LINE
8
0
10
93.75
20
-89.25
11
112.25
21
-89.25
0
LINE
8
0
10
112.25
20
-89.25
11
112.25
21
-70.75
0
LINE
8
0
10
112.25
20
-70.75
11
93.75
21
-70.75
0
LINE
8
0
10
93.75
20
-70.75
11
93.75
21
-89.25
0
LINE
8
0
10
122.275
20
-165.25
11
140.775
21
-165.25
0
LINE
8
0
10
140.775
20
-165.25
11
140.775
21
-146.75
0
LINE
8
0
10
140.775
20
-146.75
11
122.275
21
-146.75
0
LINE
8
0
10
122.275
20
-146.75
11
122.275
21
-165.25
0
LINE
8
0
10
122.275
20
-146.25
11
140.775
21
-146.25
0
LINE
8
0
10
140.775
20
-146.25
11
140.775
21
-127.75
0
LINE
8
0
10
140.775
20
-127.75
11
122.275
21
-127.75
0
LINE
8
0
10
122.275
20
-127.75
11
122.275
21
-146.25
0
LINE
8
0
10
122.275
20
-127.25
11
140.775
21
-127.25
0
LINE
8
0
10
140.775
20
-127.25
11
140.775
21
-108.75
0
LINE
8
0
10
140.775
20
-108.75
11
122.275
21
-108.75
0
LINE
8
0
10
122.275
20
-108.75
11
122.275
21
-127.25
0
LINE
8
0
10
112.75
20
-108.25
11
131.25
21
-108.25
0
LINE
8
0
10
131.25
20
-108.25
11
131.25
21
-89.75
0
LINE
8
0
10
131.25
20
-89.75
11
112.75
21
-89.75
0
LINE
8
0
10
112.75
20
-89.75
11
112.75
21
-108.25
0
LINE
8
0
10
112.75
20
-89.25
11
131.25
21
-89.25
0
LINE
8
0
10
131.25
20
-89.25
11
131.25
21
-70.75
0
LINE
8
0
10
131.25
20
-70.75
11
112.75
21
-70.75
0
LINE
8
0
10
112.75
20
-70.75
11
112.75
21
-89.25
0
LINE
8
0
10
174.6625
20
-184.25
11
193.1625
21
-184.25
0
LINE
8
0
10
193.1625
20
-184.25
11
193.1625
21
-165.75
0
LINE
8
0
10
193.1625
20
-165.75
11
174.6625
21
-165.75
0
LINE
8
0
10
174.6625
20
-165.75
11
174.6625
21
-184.25
0
LINE
8
0
10
165.1375
20
-165.25
11
183.6375
21
-165.25
0
LINE
8
0
10
183.6375
20
-165.25
11
183.6375
21
-146.75
0
LINE
8
0
10
183.6375
20
-146.75
11
165.1375
21
-146.75
0
LINE
8
0
10
165.1375
20
-146.75
11
165.1375
21
-165.25
0
LINE
8
0
10
165.1375
20
-146.25
11
183.6375
21
-146.25
0
LINE
8
0
10
183.6375
20
-146.25
11
183.6375
21
-127.75
0
LINE
8
0
10
183.6375
20
-127.75
11
165.1375
21
-127.75
0
LINE
8
0
10
165.1375
20
-127.75
11
165.1375
21
-146.25
0
LINE
8
0
10
165.1375
20
-127.25
11
183.6375
21
-127.25
0
LINE
8
0
10
183.6375
20
-127.25
11
183.6375
21
-108.75
0
LINE
8
0
10
183.6375
20
-108.75
11
165.1375
21
-108.75
0
LINE
8
0
10
165.1375
20
-108.75
11
165.1375
21
-127.25
0
LINE
8
0
10
165.1375
20
-108.25
11
183.6375
21
-108.25
0
LINE
8
0
10
183.6375
20
-108.25
11
183.6375
21
-89.75
0
LINE
8
0
10
183.6375
20
-89.75
11
165.1375
21
-89.75
0
LINE
8
0
10
165.1375
20
-89.75
11
165.1375
21
-108.25
0
LINE
8
0
10
155.6125
20
-89.25
11
174.1125
21
-89.25
0
LINE
8
0
10
174.1125
20
-89.25
11
174.1125
21
-70.75
0
LINE
8
0
10
174.1125
20
-70.75
11
155.6125
21
-70.75
0
LINE
8
0
10
155.6125
20
-70.75
11
155.6125
21
-89.25
0
LINE
8
0
10
184.1375
20
-165.25
11
202.6375
21
-165.25
0
LINE
8
0
10
202.6375
20
-165.25
11
202.6375
21
-146.75
0
LINE
8
0
10
202.6375
20
-146.75
11
184.1375
21
-146.75
0
LINE
8
0
10
184.1375
20
-146.75
11
184.1375
21
-165.25
0
LINE
8
0
10
184.1375
20
-146.25
11
202.6375
21
-146.25
0
LINE
8
0
10
202.6375
20
-146.25
11
202.6375
21
-127.75
0
LINE
8
0
10
202.6375
20
-127.75
11
184.1375
21
-127.75
0
LINE
8
0
10
184.1375
20
-127.75
11
184.1375
21
-146.25
0
LINE
8
0
10
184.1375
20
-127.25
11
202.6375
21
-127.25
0
LINE
8
0
10
202.6375
20
-127.25
11
202.6375
21
-108.75
0
LINE
8
0
10
202.6375
20
-108.75
11
184.1375
21
-108.75
0
LINE
8
0
10
184.1375
20
-108.75
11
184.1375
21
-127.25
0
LINE
8
0
10
184.1375
20
-108.25
11
202.6375
21
-108.25
0
LINE
8
0
10
202.6375
20
-108.25
11
202.6375
21
-89.75
0
LINE
8
0
10
202.6375
20
-89.75
11
184.1375
21
-89.75
0
LINE
8
0
10
184.1375
20
-89.75
11
184.1375
21
-108.25
0
LINE
8
0
10
174.6125
20
-89.25
11
193.1125
21
-89.25
0
LINE
8
0
10
193.1125
20
-89.25
11
193.1125
21
-70.75
0
LINE
8
0
10
193.1125
20
-70.75
11
174.6125
21
-70.75
0
LINE
8
0
10
174.6125
20
-70.75
11
174.6125
21
-89.25
0
LINE
8
0
10
203.1375
20
-165.25
11
221.6375
21
-165.25
0
LINE
8
0
10
221.6375
20
-165.25
11
221.6375
21
-146.75
0
LINE
8
0
10
221.6375
20
-146.75
11
203.1375
21
-146.75
0
LINE
8
0
10
203.1375
20
-146.75
11
203.1375
21
-165.25
0
LINE
8
0
10
203.1375
20
-146.25
11
221.6375
21
-146.25
0
LINE
8
0
10
221.6375
20
-146.25
11
221.6375
21
-127.75
0
LINE
8
0
10
221.6375
20
-127.75
11
203.1375
21
-127.75
0
LINE
8
0
10
203.1375
20
-127.75
11
203.1375
21
-146.25
0
LINE
8
0
10
203.1375
20
-127.25
11
221.6375
21
-127.25
0
LINE
8
0
10
221.6375
20
-127.25
11
221.6375
21
-108.75
0
LINE
8
0
10
221.6375
20
-108.75
11
203.1375
21
-108.75
0
LINE
8
0
10
203.1375
20
-108.75
11
203.1375
21
-127.25
0
LINE
8
0
10
203.1375
20
-108.25
11
221.6375
21
-108.25
0
LINE
8
0
10
221.6375
20
-108.25
11
221.6375
21
-89.75
0
LINE
8
0
10
221.6375
20
-89.75
11
203.1375
21
-89.75
0
LINE
8
0
10
203.1375
20
-89.75
11
203.1375
21
-108.25
0
LINE
8
0
10
193.6125
20
-89.25
11
212.1125
21
-89.25
0
LINE
8
0
10
212.1125
20
-89.25
11
212.1125
21
-70.75
0
LINE
8
0
10
212.1125
20
-70.75
11
193.6125
21
-70.75
0
LINE
8
0
10
193.6125
20
-70.75
11
193.6125
21
-89.25
0
LINE
8
0
10
212.6125
20
-184.25
11
231.1125
21
-184.25
0
LINE
8
0
10
231.1125
20
-184.25
11
231.1125
21
-165.75
0
LINE
8
0
10
231.1125
20
-165.75
11
212.6125
21
-165.75
0
LINE
8
0
10
212.6125
20
-165.75
11
212.6125
21
-184.25
0
LINE
8
0
10
222.1375
20
-165.25
11
240.6375
21
-165.25
0
LINE
8
0
10
240.6375
20
-165.25
11
240.6375
21
-146.75
0
LINE
8
0
10
240.6375
20
-146.75
11
222.1375
21
-146.75
0
LINE
8
0
10
222.1375
20
-146.75
11
222.1375
21
-165.25
0
LINE
8
0
10
222.1375
20
-146.25
11
240.6375
21
-146.25
0
LINE
8
0
10
240.6375
20
-146.25
11
240.6375
21
-127.75
0
LINE
8
0
10
240.6375
20
-127.75
11
222.1375
21
-127.75
0
LINE
8
0
10
222.1375
20
-127.75
11
222.1375
21
-146.25
0
LINE
8
0
10
222.1375
20
-127.25
11
240.6375
21
-127.25
0
LINE
8
0
10
240.6375
20
-127.25
11
240.6375
21
-108.75
0
LINE
8
0
10
240.6375
20
-108.75
11
222.1375
21
-108.75
0
LINE
8
0
10
222.1375
20
-108.75
11
222.1375
21
-127.25
0
LINE
8
0
10
222.1375
20
-108.25
11
240.6375
21
-108.25
0
LINE
8
0
10
240.6375
20
-108.25
11
240.6375
21
-89.75
0
LINE
8
0
10
240.6375
20
-89.75
11
222.1375
21
-89.75
0
LINE
8
0
10
222.1375
20
-89.75
11
222.1375
21
-108.25
0
LINE
8
0
10
212.6125
20
-89.25
11
231.1125
21
-89.25
0
LINE
8
0
10
231.1125
20
-89.25
11
231.1125
21
-70.75
0
LINE
8
0
10
231.1125
20
-70.75
11
212.6125
21
-70.75
0
LINE
8
0
10
212.6125
20
-70.75
11
212.6125
21
-89.25
0
LINE
8
0
10
231.6125
20
-184.25
11
250.1125
21
-184.25
0
LINE
8
0
10
250.1125
20
-184.25
11
250.1125
21
-165.75
0
LINE
8
0
10
250.1125
20
-165.75
11
231.6125
21
-165.75
0
LINE
8
0
10
231.6125
20
-165.75
11
231.6125
21
-184.25
0
LINE
8
0
10
241.1375
20
-165.25
11
259.6375
21
-165.25
0
LINE
8
0
10
259.6375
20
-165.25
11
259.6375
21
-146.75
0
LINE
8
0
10
259.6375
20
-146.75
11
241.1375
21
-146.75
0
LINE
8
0
10
241.1375
20
-146.75
11
241.1375
21
-165.25
0
LINE
8
0
10
241.1375
20
-146.25
11
259.6375
21
-146.25
0
LINE
8
0
10
259.6375
20
-146.25
11
259.6375
21
-127.75
0
LINE
8
0
10
259.6375
20
-127.75
11
241.1375
21
-127.75
0
LINE
8
0
10
241.1375
20
-127.75
11
241.1375
21
-146.25
0
LINE
8
0
10
241.1375
20
-127.25
11
259.6375
21
-127.25
0
LINE
8
0
10
259.6375
20
-127.25
11
259.6375
21
-108.75
0
LINE
8
0
10
259.6375
20
-108.75
11
241.1375
21
-108.75
0
LINE
8
0
10
241.1375
20
-108.75
11
241.1375
21
-127.25
0
LINE
8
0
10
241.1375
20
-108.25
11
259.6375
21
-108.25
0
LINE
8
0
10
259.6375
20
-108.25
11
259.6375
21
-89.75
0
LINE
8
0
10
259.6375
20
-89.75
11
241.1375
21
-89.75
0
LINE
8
0
10
241.1375
20
-89.75
11
241.1375
21
-108.25
0
LINE
8
0
10
250.6125
20
-184.25
11
269.1125
21
-184.25
0
LINE
8
0
10
269.1125
20
-184.25
11
269.1125
21
-165.75
0
LINE
8
0
10
269.1125
20
-165.75
11
250.6125
21
-165.75
0
LINE
8
0
10
250.6125
20
-165.75
11
250.6125
21
-184.25
0
LINE
8
0
10
269.6625
20
-165.25
11
288.1625
21
-165.25
0
LINE
8
0
10
288.1625
20
-165.25
11
288.1625
21
-146.75
0
LINE
8
0
10
288.1625
20
-146.75
11
269.6625
21
-146.75
0
LINE
8
0
10
269.6625
20
-146.75
11
269.6625
21
-165.25
0
LINE
8
0
10
260.1375
20
-146.25
11
278.6375
21
-146.25
0
LINE
8
0
10
278.6375
20
-146.25
11
278.6375
21
-127.75
0
LINE
8
0
10
278.6375
20
-127.75
11
260.1375
21
-127.75
0
LINE
8
0
10
260.1375
20
-127.75
11
260.1375
21
-146.25
0
LINE
8
0
10
260.1375
20
-127.25
11
278.6375
21
-127.25
0
LINE
8
0
10
278.6375
20
-127.25
11
278.6375
21
-108.75
0
LINE
8
0
10
278.6375
20
-108.75
11
260.1375
21
-108.75
0
LINE
8
0
10
260.1375
20
-108.75
11
260.1375
21
-127.25
0
LINE
8
0
10
260.1375
20
-108.25
11
278.6375
21
-108.25
0
LINE
8
0
10
278.6375
20
-108.25
11
278.6375
21
-89.75
0
LINE
8
0
10
278.6375
20
-89.75
11
260.1375
21
-89.75
0
LINE
8
0
10
260.1375
20
-89.75
11
260.1375
21
-108.25
0
LINE
8
0
10
250.6125
20
-89.25
11
269.1125
21
-89.25
0
LINE
8
0
10
269.1125
20
-89.25
11
269.1125
21
-70.75
0
LINE
8
0
10
269.1125
20
-70.75
11
250.6125
21
-70.75
0
LINE
8
0
10
250.6125
20
-70.75
11
250.6125
21
-89.25
0
LINE
8
0
10
269.6125
20
-184.25
11
288.1125
21
-184.25
0
LINE
8
0
10
288.1125
20
-184.25
11
288.1125
21
-165.75
0
LINE
8
0
10
288.1125
20
-165.75
11
269.6125
21
-165.75
0
LINE
8
0
10
269.6125
20
-165.75
11
269.6125
21
-184.25
0
LINE
8
0
10
288.6625
20
-146.25
11
307.1625
21
-146.25
0
LINE
8
0
10
307.1625
20
-146.25
11
307.1625
21
-127.75
0
LINE
8
0
10
307.1625
20
-127.75
11
288.6625
21
-127.75
0
LINE
8
0
10
288.6625
20
-127.75
11
288.6625
21
-146.25
0
LINE
8
0
10
279.1375
20
-127.25
11
297.6375
21
-127.25
0
LINE
8
0
10
297.6375
20
-127.25
11
297.6375
21
-108.75
0
LINE
8
0
10
297.6375
20
-108.75
11
279.1375
21
-108.75
0
LINE
8
0
10
279.1375
20
-108.75
11
279.1375
21
-127.25
0
LINE
8
0
10
279.1375
20
-108.25
11
297.6375
21
-108.25
0
LINE
8
0
10
297.6375
20
-108.25
11
297.6375
21
-89.75
0
LINE
8
0
10
297.6375
20
-89.75
11
279.1375
21
-89.75
0
LINE
8
0
10
279.1375
20
-89.75
11
279.1375
21
-108.25
0
LINE
8
0
10
269.6125
20
-89.25
11
288.1125
21
-89.25
0
LINE
8
0
10
288.1125
20
-89.25
11
288.1125
21
-70.75
0
LINE
8
0
10
288.1125
20
-70.75
11
269.6125
21
-70.75
0
LINE
8
0
10
269.6125
20
-70.75
11
269.6125
21
-89.25
0
LINE
8
0
10
298.1375
20
-127.25
11
316.6375
21
-127.25
0
LINE
8
0
10
316.6375
20
-127.25
11
316.6375
21
-108.75
0
LINE
8
0
10
316.6375
20
-108.75
11
298.1375
21
-108.75
0
LINE
8
0
10
298.1375
20
-108.75
11
298.1375
21
-127.25
0
LINE
8
0
10
307.6625
20
-108.25
11
326.1625
21
-108.25
0
LINE
8
0
10
326.1625
20
-108.25
11
326.1625
21
-89.75
0
LINE
8
0
10
326.1625
20
-89.75
11
307.6625
21
-89.75
0
LINE
8
0
10
307.6625
20
-89.75
11
307.6625
21
-108.25
0
LINE
8
0
10
288.6125
20
-89.25
11
307.1125
21
-89.25
0
LINE
8
0
10
307.1125
20
-89.25
11
307.1125
21
-70.75
0
LINE
8
0
10
307.1125
20
-70.75
11
288.6125
21
-70.75
0
LINE
8
0
10
288.6125
20
-70.75
11
288.6125
21
-89.25
0
LINE
8
0
10
307.6125
20
-89.25
11
326.1125
21
-89.25
0
LINE
8
0
10
326.1125
20
-89.25
11
326.1125
21
-70.75
0
LINE
8
0
10
326.1125
20
-70.75
11
307.6125
21
-70.75
0
LINE
8
0
10
307.6125
20
-70.75
11
307.6125
21
-89.25
0
LINE
8
0
10
332.5025
20
-186.1764755
11
345.5839755
21
-173.095
0
LINE
8
0
10
345.5839755
20
-173.095
11
332.5025
21
-160.0135245
0
LINE
8
0
10
332.5025
20
-160.0135245
11
319.4210245
21
-173.095
0
LINE
8
0
10
319.4210245
20
-173.095
11
332.5025
21
-186.1764755
0
LINE
8
0
10
319.0674712
20
-172.7414467
11
332.1489467
21
-159.6599712
0
LINE
8
0
10
332.1489467
20
-159.6599712
11
319.0674712
21
-146.5784957
0
LINE
8
0
10
319.0674712
20
-146.5784957
11
305.9859957
21
-159.6599712
0
LINE
8
0
10
305.9859957
20
-159.6599712
11
319.0674712
21
-172.7414467
0
LINE
8
0
10
345.9375288
20
-172.7414467
11
359.0190043
21
-159.6599712
0
LINE
8
0
10
359.0190043
20
-159.6599712
11
345.9375288
21
-146.5784957
0
LINE
8
0
10
345.9375288
20
-146.5784957
11
332.8560533
21
-159.6599712
0
LINE
8
0
10
332.8560533
20
-159.6599712
11
345.9375288
21
-172.7414467
0
LINE
8
0
10
332.5025
20
-159.3064179
11
345.5839755
21
-146.2249424
0
LINE
8
0
10
345.5839755
20
-146.2249424
11
332.5025
21
-133.1434669
0
LINE
8
0
10
332.5025
20
-133.1434669
11
319.4210245
21
-146.2249424
0
LINE
8
0
10
319.4210245
20
-146.2249424
11
332.5025
21
-159.3064179
0
LINE
8
0
10
373.5518164
20
-163.985697
11
386.6332919
21
-150.9042215
0
LINE
8
0
10
386.6332919
20
-150.9042215
11
373.5518164
21
-137.822746
0
LINE
8
0
10
373.5518164
20
-137.822746
11
360.4703409
21
-150.9042215
0
LINE
8
0
10
360.4703409
20
-150.9042215
11
373.5518164
21
-163.985697
0
LINE
8
0
10
360.1167876
20
-150.5506682
11
373.1982631
21
-137.4691927
0
LINE
8
0
10
373.1982631
20
-137.4691927
11
360.1167876
21
-124.3877172
0
LINE
8
0
10
360.1167876
20
-124.3877172
11
347.0353121
21
-137.4691927
0
LINE
8
0
10
347.0353121
20
-137.4691927
11
360.1167876
21
-150.5506682
0
LINE
8
0
10
386.9868452
20
-150.5506682
11
400.0683207
21
-137.4691927
0
LINE
8
0
10
400.0683207
20
-137.4691927
11
386.9868452
21
-124.3877172
0
LINE
8
0
10
386.9868452
20
-124.3877172
11
373.9053697
21
-137.4691927
0
LINE
8
0
10
373.9053697
20
-137.4691927
11
386.9868452
21
-150.5506682
0
LINE
8
0
10
373.5518164
20
-137.1156394
11
386.6332919
21
-124.0341639
0
LINE
8
0
10
386.6332919
20
-124.0341639
11
373.5518164
21
-110.9526884
0
LINE
8
0
10
373.5518164
20
-110.9526884
11
360.4703409
21
-124.0341639
0
LINE
8
0
10
360.4703409
20
-124.0341639
11
373.5518164
21
-137.1156394
0
LINE
8
0
10
345.7125
20
-108.25
11
364.2125
21
-108.25
0
LINE
8
0
10
364.2125
20
-108.25
11
364.2125
21
-89.75
0
LINE
8
0
10
364.2125
20
-89.75
11
345.7125
21
-89.75
0
LINE
8
0
10
345.7125
20
-89.75
11
345.7125
21
-108.25
0
LINE
8
0
10
345.7125
20
-89.25
11
364.2125
21
-89.25
0
LINE
8
0
10
364.2125
20
-89.25
11
364.2125
21
-70.75
0
LINE
8
0
10
364.2125
20
-70.75
11
345.7125
21
-70.75
0
LINE
8
0
10
345.7125
20
-70.75
11
345.7125
21
-89.25
0
LINE
8
0
10
364.7125
20
-108.25
11
383.2125
21
-108.25
0
LINE
8
0
10
383.2125
20
-108.25
11
383.2125
21
-89.75
0
LINE
8
0
10
383.2125
20
-89.75
11
364.7125
21
-89.75
0
LINE
8
0
10
364.7125
20
-89.75
11
364.7125
21
-108.25
0
LINE
8
0
10
364.7125
20
-89.25
11
383.2125
21
-89.25
0
LINE
8
0
10
383.2125
20
-89.25
11
383.2125
21
-70.75
0
LINE
8
0
10
383.2125
20
-70.75
11
364.7125
21
-70.75
0
LINE
8
0
10
364.7125
20
-70.75
11
364.7125
21
-89.25
0
LINE
8
0
10
383.7125
20
-108.25
11
402.2125
21
-108.25
0
LINE
8
0
10
402.2125
20
-108.25
11
402.2125
21
-89.75
0
LINE
8
0
10
402.2125
20
-89.75
11
383.7125
21
-89.75
0
LINE
8
0
10
383.7125
20
-89.75
11
383.7125
21
-108.25
0
LINE
8
0
10
383.7125
20
-89.25
11
402.2125
21
-89.25
0
LINE
8
0
10
402.2125
20
-89.25
11
402.2125
21
-70.75
0
LINE
8
0
10
402.2125
20
-70.75
11
383.7125
21
-70.75
0
LINE
8
0
10
383.7125
20
-70.75
11
383.7125
21
-89.25
0
ENDSEC
0
EOF