0
SECTION
2
HEADER
9
$INSUNITS
70
4
0
ENDSEC
0
SECTION
2
TABLES
0
TABLE
2
LTYPE
0
LTYPE
72
65
70
64
2
CONTINUOUS
3
______
73
0
40
0
0
ENDTAB
0
TABLE
2
LAYER
0
ENDTAB
0
ENDSEC
0
SECTION
2
ENTITIES
0
LINE
8
0
10
17.75
20
-184.25
11
36.25
21
-184.25
0
LINE
8
0
10
36.25
20
-184.25
11
36.25
21
-165.75
0
LINE
8
0
10
36.25
20
-165.75
11
17.75
21
-165.75
0
LINE
8
0
10
17.75
20
-165.75
11
17.75
21
-184.25
0
LINE
8
0
10
22.5125
20
-165.25
11
41.0125
21
-165.25
0
LINE
8
0
10
41.0125
20
-165.25
11
41.0125
21
-146.75
0
LINE
8
0
10
41.0125
20
-146.75
11
22.5125
21
-146.75
0
LINE
8
0
10
22.5125
20
-146.75
11
22.5125
21
-165.25
0
LINE
8
0
10
22.5125
20
-146.25
11
41.0125
21
-146.25
0
LINE
8
0
10
41.0125
20
-146.25
11
41.0125
21
-127.75
0
LINE
8
0
10
41.0125
20
-127.75
11
22.5125
21
-127.75
0
LINE
8
0
10
22.5125
20
-127.75
11
22.5125
21
-146.25
0
LINE
8
0
10
22.5125
20
-127.25
11
41.0125
21
-127.25
0
LINE
8
0
10
41.0125
20
-127.25
11
41.0125
21
-108.75
0
LINE
8
0
10
41.0125
20
-108.75
11
22.5125
21
-108.75
0
LINE
8
0
10
22.5125
20
-108.75
11
22.5125
21
-127.25
0
LINE
8
0
10
17.75
20
-108.25
11
36.25
21
-108.25
0
LINE
8
0
10
36.25
20
-108.25
11
36.25
21
-89.75
0
LINE
8
0
10
36.25
20
-89.75
11
17.75
21
-89.75
0
LINE
8
0
10
17.75
20
-89.75
11
17.75
21
-108.25
0
LINE
8
0
10
17.75
20
-89.25
11
36.25
21
-89.25
0
LINE
8
0
10
36.25
20
-89.25
11
36.25
21
-70.75
0
LINE
8
0
10
36.25
20
-70.75
11
17.75
21
-70.75
0
LINE
8
0
10
17.75
20
-70.75
11
17.75
21
-89.25
0
LINE
8
0
10
36.75
20
-184.25
11
55.25
21
-184.25
0
LINE
8
0
10
55.25
20
-184.25
11
55.25
21
-165.75
0
LINE
8
0
10
55.25
20
-165.75
11
36.75
21
-165.75
0
LINE
8
0
10
36.75
20
-165.75
11
36.75
21
-184.25
0
LINE
8
0
10
46.275
20
-165.25
11
64.775
21
-165.25
0
LINE
8
0
10
64.775
20
-165.25
11
64.775
21
-146.75
0
LINE
8
0
10
64.775
20
-146.75
11
46.275
21
-146.75
0
LINE
8
0
10
46.275
20
-146.75
11
46.275
21
-165.25
0
LINE
8
0
10
46.275
20
-146.25
11
64.775
21
-146.25
0
LINE
8
0
10
64.775
20
-146.25
11
64.775
21
-127.75
0
LINE
8
0
10
64.775
20
-127.75
11
46.275
21
-127.75
0
LINE
8
0
10
46.275
20
-127.75
11
46.275
21
-146.25
0
LINE
8
0
10
46.275
20
-127.25
11
64.775
21
-127.25
0
LINE
8
0
10
64.775
20
-127.25
11
64.775
21
-108.75
0
LINE
8
0
10
64.775
20
-108.75
11
46.275
21
-108.75
0
LINE
8
0
10
46.275
20
-108.75
11
46.275
21
-127.25
0
LINE
8
0
10
36.75
20
-108.25
11
55.25
21
-108.25
0
LINE
8
0
10
55.25
20
-108.25
11
55.25
21
-89.75
0
LINE
8
0
10
55.25
20
-89.75
11
36.75
21
-89.75
0
LINE
8
0
10
36.75
20
-89.75
11
36.75
21
-108.25
0
LINE
8
0
10
55.75
20
-184.25
11
74.25
21
-184.25
0
LINE
8
0
10
74.25
20
-184.25
11
74.25
21
-165.75
0
LINE
8
0
10
74.25
20
-165.75
11
55.75
21
-165.75
0
LINE
8
0
10
55.75
20
-165.75
11
55.75
21
-184.25
0
LINE
8
0
10
65.275
20
-165.25
11
83.775
21
-165.25
0
LINE
8
0
10
83.775
20
-165.25
11
83.775
21
-146.75
0
LINE
8
0
10
83.775
20
-146.75
11
65.275
21
-146.75
0
LINE
8
0
10
65.275
20
-146.75
11
65.275
21
-165.25
0
LINE
8
0
10
65.275
20
-146.25
11
83.775
21
-146.25
0
LINE
8
0
10
83.775
20
-146.25
11
83.775
21
-127.75
0
LINE
8
0
10
83.775
20
-127.75
11
65.275
21
-127.75
0
LINE
8
0
10
65.275
20
-127.75
11
65.275
21
-146.25
0
LINE
8
0
10
65.275
20
-127.25
11
83.775
21
-127.25
0
LINE
8
0
10
83.775
20
-127.25
11
83.775
21
-108.75
0
LINE
8
0
10
83.775
20
-108.75
11
65.275
21
-108.75
0
LINE
8
0
10
65.275
20
-108.75
11
65.275
21
-127.25
0
LINE
8
0
10
55.75
20
-108.25
11
74.25
21
-108.25
0
LINE
8
0
10
74.25
20
-108.25
11
74.25
21
-89.75
0
LINE
8
0
10
74.25
20
-89.75
11
55.75
21
-89.75
0
LINE
8
0
10
55.75
20
-89.75
11
55.75
21
-108.25
0
LINE
8
0
10
55.75
20
-89.25
11
74.25
21
-89.25
0
LINE
8
0
10
74.25
20
-89.25
11
74.25
21
-70.75
0
LINE
8
0
10
74.25
20
-70.75
11
55.75
21
-70.75
0
LINE
8
0
10
55.75
20
-70.75
11
55.75
21
-89.25
0
LINE
8
0
10
74.75
20
-184.25
11
93.25
21
-184.25
0
LINE
8
0
10
93.25
20
-184.25
11
93.25
21
-165.75
0
LINE
8
0
10
93.25
20
-165.75
11
74.75
21
-165.75
0
LINE
8
0
10
74.75
20
-165.75
11
74.75
21
-184.25
0
LINE
8
0
10
84.275
20
-165.25
11
102.775
21
-165.25
0
LINE
8
0
10
102.775
20
-165.25
11
102.775
21
-146.75
0
LINE
8
0
10
102.775
20
-146.75
11
84.275
21
-146.75
0
LINE
8
0
10
84.275
20
-146.75
11
84.275
21
-165.25
0
LINE
8
0
10
84.275
20
-146.25
11
102.775
21
-146.25
0
LINE
8
0
10
102.775
20
-146.25
11
102.775
21
-127.75
0
LINE
8
0
10
102.775
20
-127.75
11
84.275
21
-127.75
0
LINE
8
0
10
84.275
20
-127.75
11
84.275
21
-146.25
0
LINE
8
0
10
84.275
20
-127.25
11
102.775
21
-127.25
0
LINE
8
0
10
102.775
20
-127.25
11
102.775
21
-108.75
0
LINE
8
0
10
102.775
20
-108.75
11
84.275
21
-108.75
0
LINE
8
0
10
84.275
20
-108.75
11
84.275
21
-127.25
0
LINE
8
0
10
74.75
20
-108.25
11
93.25
21
-108.25
0
LINE
8
0
10
93.25
20
-108.25
11
93.25
21
-89.75
0
LINE
8
0
10
93.25
20
-89.75
11
74.75
21
-89.75
0
LINE
8
0
10
74.75
20
-89.75
11
74.75
21
-108.25
0
LINE
8
0
10
74.75
20
-89.25
11
93.25
21
-89.25
0
LINE
8
0
10
93.25
20
-89.25
11
93.25
21
-70.75
0
LINE
8
0
10
93.25
20
-70.75
11
74.75
21
-70.75
0
LINE
8
0
10
74.75
20
-70.75
11
74.75
21
-89.25
0
LINE
8
0
10
112.8
20
-184.25
11
131.3
21
-184.25
0
LINE
8
0
10
131.3
20
-184.25
11
131.3
21
-165.75
0
LINE
8
0
10
131.3
20
-165.75
11
112.8
21
-165.75
0
LINE
8
0
10
112.8
20
-165.75
11
112.8
21
-184.25
0
LINE
8
0
10
103.275
20
-165.25
11
121.775
21
-165.25
0
LINE
8
0
10
121.775
20
-165.25
11
121.775
21
-146.75
0
LINE
8
0
10
121.775
20
-146.75
11
103.275
21
-146.75
0
LINE
8
0
10
103.275
20
-146.75
11
103.275
21
-165.25
0
LINE
8
0
10
103.275
20
-146.25
11
121.775
21
-146.25
0
LINE
8
0
10
121.775
20
-146.25
11
121.775
21
-127.75
0
LINE
8
0
10
121.775
20
-127.75
11
103.275
21
-127.75
0
LINE
8
0
10
103.275
20
-127.75
11
103.275
21
-146.25
0
LINE
8
0
10
103.275
20
-127.25
11
121.775
21
-127.25
0
LINE
8
0
10
121.775
20
-127.25
11
121.775
21
-108.75
0
LINE
8
0
10
121.775
20
-108.75
11
103.275
21
-108.75
0
LINE
8
0
10
103.275
20
-108.75
11
103.275
21
-127.25
0
LINE
8
0
10
93.75
20
-108.25
11
112.25
21
-108.25
0
LINE
8
0
10
112.25
20
-108.25
11
112.25
21
-89.75
0
LINE
8
0
10
112.25
20
-89.75
11
93.75
21
-89.75
0
LINE
8
0
10
93.75
20
-89.75
11
93.75
21
-108.25
0
LINE
8
0
10
93.75
20
-89.25
11
112.25
21
-89.25
0
LINE
8
0
10
112.25
20
-89.25
11
112.25
21
-70.75
0
LINE
8
0
10
112.25
20
-70.75
11
93.75
21
-70.75
0
LINE
8
0
10
93.75
20
-70.75
11
93.75
21
-89.25
0
LINE
8
0
10
122.275
20
-165.25
11
140.775
21
-165.25
0
LINE
8
0
10
140.775
20
-165.25
11
140.775
21
-146.75
0
LINE
8
0
10
140.775
20
-146.75
11
122.275
21
-146.75
0
LINE
8
0
10
122.275
20
-146.75
11
122.275
21
-165.25
0
LINE
8
0
10
122.275
20
-146.25
11
140.775
21
-146.25
0
LINE
8
0
10
140.775
20
-146.25
11
140.775
21
-127.75
0
LINE
8
0
10
140.775
20
-127.75
11
122.275
21
-127.75
0
LINE
8
0
10
122.275
20
-127.75
11
122.275
21
-146.25
0
LINE
8
0
10
122.275
20
-127.25
11
140.775
21
-127.25
0
LINE
8
0
10
140.775
20
-127.25
11
140.775
21
-108.75
0
LINE
8
0
10
140.775
20
-108.75
11
122.275
21
-108.75
0
LINE
8
0
10
122.275
20
-108.75
11
122.275
21
-127.25
0
LINE
8
0
10
112.75
20
-108.25
11
131.25
21
-108.25
0
LINE
8
0
10
131.25
20
-108.25
11
131.25
21
-89.75
0
LINE
8
0
10
131.25
20
-89.75
11
112.75
21
-89.75
0
LINE
8
0
10
112.75
20
-89.75
11
112.75
21
-108.25
0
LINE
8
0
10
112.75
20
-89.25
11
131.25
21
-89.25
0
LINE
8
0
10
131.25
20
-89.25
11
131.25
21
-70.75
0
LINE
8
0
10
131.25
20
-70.75
11
112.75
21
-70.75
0
LINE
8
0
10
112.75
20
-70.75
11
112.75
21
-89.25
0
LINE
8
0
10
169.9
20
-184.25
11
188.4
21
-184.25
0
LINE
8
0
10
188.4
20
-184.25
11
188.4
21
-165.75
0
LINE
8
0
10
188.4
20
-165.75
11
169.9
21
-165.75
0
LINE
8
0
10
169.9
20
-165.75
11
169.9
21
-184.25
0
LINE
8
0
10
160.375
20
-165.25
11
178.875
21
-165.25
0
LINE
8
0
10
178.875
20
-165.25
11
178.875
21
-146.75
0
LINE
8
0
10
178.875
20
-146.75
11
160.375
21
-146.75
0
LINE
8
0
10
160.375
20
-146.75
11
160.375
21
-165.25
0
LINE
8
0
10
160.375
20
-146.25
11
178.875
21
-146.25
0
LINE
8
0
10
178.875
20
-146.25
11
178.875
21
-127.75
0
LINE
8
0
10
178.875
20
-127.75
11
160.375
21
-127.75
0
LINE
8
0
10
160.375
20
-127.75
11
160.375
21
-146.25
0
LINE
8
0
10
160.375
20
-127.25
11
178.875
21
-127.25
0
LINE
8
0
10
178.875
20
-127.25
11
178.875
21
-108.75
0
LINE
8
0
10
178.875
20
-108.75
11
160.375
21
-108.75
0
LINE
8
0
10
160.375
20
-108.75
11
160.375
21
-127.25
0
LINE
8
0
10
160.375
20
-108.25
11
178.875
21
-108.25
0
LINE
8
0
10
178.875
20
-108.25
11
178.875
21
-89.75
0
LINE
8
0
10
178.875
20
-89.75
11
160.375
21
-89.75
0
LINE
8
0
10
160.375
20
-89.75
11
160.375
21
-108.25
0
LINE
8
0
10
150.85
20
-89.25
11
169.35
21
-89.25
0
LINE
8
0
10
169.35
20
-89.25
11
169.35
21
-70.75
0
LINE
8
0
10
169.35
20
-70.75
11
150.85
21
-70.75
0
LINE
8
0
10
150.85
20
-70.75
11
150.85
21
-89.25
0
LINE
8
0
10
179.375
20
-165.25
11
197.875
21
-165.25
0
LINE
8
0
10
197.875
20
-165.25
11
197.875
21
-146.75
0
LINE
8
0
10
197.875
20
-146.75
11
179.375
21
-146.75
0
LINE
8
0
10
179.375
20
-146.75
11
179.375
21
-165.25
0
LINE
8
0
10
179.375
20
-146.25
11
197.875
21
-146.25
0
LINE
8
0
10
197.875
20
-146.25
11
197.875
21
-127.75
0
LINE
8
0
10
197.875
20
-127.75
11
179.375
21
-127.75
0
LINE
8
0
10
179.375
20
-127.75
11
179.375
21
-146.25
0
LINE
8
0
10
179.375
20
-127.25
11
197.875
21
-127.25
0
LINE
8
0
10
197.875
20
-127.25
11
197.875
21
-108.75
0
LINE
8
0
10
197.875
20
-108.75
11
179.375
21
-108.75
0
LINE
8
0
10
179.375
20
-108.75
11
179.375
21
-127.25
0
LINE
8
0
10
179.375
20
-108.25
11
197.875
21
-108.25
0
LINE
8
0
10
197.875
20
-108.25
11
197.875
21
-89.75
0
LINE
8
0
10
197.875
20
-89.75
11
179.375
21
-89.75
0
LINE
8
0
10
179.375
20
-89.75
11
179.375
21
-108.25
0
LINE
8
0
10
169.85
20
-89.25
11
188.35
21
-89.25
0
LINE
8
0
10
188.35
20
-89.25
11
188.35
21
-70.75
0
LINE
8
0
10
188.35
20
-70.75
11
169.85
21
-70.75
0
LINE
8
0
10
169.85
20
-70.75
11
169.85
21
-89.25
0
LINE
8
0
10
198.375
20
-165.25
11
216.875
21
-165.25
0
LINE
8
0
10
216.875
20
-165.25
11
216.875
21
-146.75
0
LINE
8
0
10
216.875
20
-146.75
11
198.375
21
-146.75
0
LINE
8
0
10
198.375
20
-146.75
11
198.375
21
-165.25
0
LINE
8
0
10
198.375
20
-146.25
11
216.875
21
-146.25
0
LINE
8
0
10
216.875
20
-146.25
11
216.875
21
-127.75
0
LINE
8
0
10
216.875
20
-127.75
11
198.375
21
-127.75
0
LINE
8
0
10
198.375
20
-127.75
11
198.375
21
-146.25
0
LINE
8
0
10
198.375
20
-127.25
11
216.875
21
-127.25
0
LINE
8
0
10
216.875
20
-127.25
11
216.875
21
-108.75
0
LINE
8
0
10
216.875
20
-108.75
11
198.375
21
-108.75
0
LINE
8
0
10
198.375
20
-108.75
11
198.375
21
-127.25
0
LINE
8
0
10
198.375
20
-108.25
11
216.875
21
-108.25
0
LINE
8
0
10
216.875
20
-108.25
11
216.875
21
-89.75
0
LINE
8
0
10
216.875
20
-89.75
11
198.375
21
-89.75
0
LINE
8
0
10
198.375
20
-89.75
11
198.375
21
-108.25
0
LINE
8
0
10
188.85
20
-89.25
11
207.35
21
-89.25
0
LINE
8
0
10
207.35
20
-89.25
11
207.35
21
-70.75
0
LINE
8
0
10
207.35
20
-70.75
11
188.85
21
-70.75
0
LINE
8
0
10
188.85
20
-70.75
11
188.85
21
-89.25
0
LINE
8
0
10
207.85
20
-184.25
11
226.35
21
-184.25
0
LINE
8
0
10
226.35
20
-184.25
11
226.35
21
-165.75
0
LINE
8
0
10
226.35
20
-165.75
11
207.85
21
-165.75
0
LINE
8
0
10
207.85
20
-165.75
11
207.85
21
-184.25
0
LINE
8
0
10
217.375
20
-165.25
11
235.875
21
-165.25
0
LINE
8
0
10
235.875
20
-165.25
11
235.875
21
-146.75
0
LINE
8
0
10
235.875
20
-146.75
11
217.375
21
-146.75
0
LINE
8
0
10
217.375
20
-146.75
11
217.375
21
-165.25
0
LINE
8
0
10
217.375
20
-146.25
11
235.875
21
-146.25
0
LINE
8
0
10
235.875
20
-146.25
11
235.875
21
-127.75
0
LINE
8
0
10
235.875
20
-127.75
11
217.375
21
-127.75
0
LINE
8
0
10
217.375
20
-127.75
11
217.375
21
-146.25
0
LINE
8
0
10
217.375
20
-127.25
11
235.875
21
-127.25
0
LINE
8
0
10
235.875
20
-127.25
11
235.875
21
-108.75
0
LINE
8
0
10
235.875
20
-108.75
11
217.375
21
-108.75
0
LINE
8
0
10
217.375
20
-108.75
11
217.375
21
-127.25
0
LINE
8
0
10
217.375
20
-108.25
11
235.875
21
-108.25
0
LINE
8
0
10
235.875
20
-108.25
11
235.875
21
-89.75
0
LINE
8
0
10
235.875
20
-89.75
11
217.375
21
-89.75
0
LINE
8
0
10
217.375
20
-89.75
11
217.375
21
-108.25
0
LINE
8
0
10
207.85
20
-89.25
11
226.35
21
-89.25
0
LINE
8
0
10
226.35
20
-89.25
11
226.35
21
-70.75
0
LINE
8
0
10
226.35
20
-70.75
11
207.85
21
-70.75
0
LINE
8
0
10
207.85
20
-70.75
11
207.85
21
-89.25
0
LINE
8
0
10
226.85
20
-184.25
11
245.35
21
-184.25
0
LINE
8
0
10
245.35
20
-184.25
11
245.35
21
-165.75
0
LINE
8
0
10
245.35
20
-165.75
11
226.85
21
-165.75
0
LINE
8
0
10
226.85
20
-165.75
11
226.85
21
-184.25
0
LINE
8
0
10
236.375
20
-165.25
11
254.875
21
-165.25
0
LINE
8
0
10
254.875
20
-165.25
11
254.875
21
-146.75
0
LINE
8
0
10
254.875
20
-146.75
11
236.375
21
-146.75
0
LINE
8
0
10
236.375
20
-146.75
11
236.375
21
-165.25
0
LINE
8
0
10
236.375
20
-146.25
11
254.875
21
-146.25
0
LINE
8
0
10
254.875
20
-146.25
11
254.875
21
-127.75
0
LINE
8
0
10
254.875
20
-127.75
11
236.375
21
-127.75
0
LINE
8
0
10
236.375
20
-127.75
11
236.375
21
-146.25
0
LINE
8
0
10
236.375
20
-127.25
11
254.875
21
-127.25
0
LINE
8
0
10
254.875
20
-127.25
11
254.875
21
-108.75
0
LINE
8
0
10
254.875
20
-108.75
11
236.375
21
-108.75
0
LINE
8
0
10
236.375
20
-108.75
11
236.375
21
-127.25
0
LINE
8
0
10
236.375
20
-108.25
11
254.875
21
-108.25
0
LINE
8
0
10
254.875
20
-108.25
11
254.875
21
-89.75
0
LINE
8
0
10
254.875
20
-89.75
11
236.375
21
-89.75
0
LINE
8
0
10
236.375
20
-89.75
11
236.375
21
-108.25
0
LINE
8
0
10
245.85
20
-184.25
11
264.35
21
-184.25
0
LINE
8
0
10
264.35
20
-184.25
11
264.35
21
-165.75
0
LINE
8
0
10
264.35
20
-165.75
11
245.85
21
-165.75
0
LINE
8
0
10
245.85
20
-165.75
11
245.85
21
-184.25
0
LINE
8
0
10
260.1375
20
-165.25
11
278.6375
21
-165.25
0
LINE
8
0
10
278.6375
20
-165.25
11
278.6375
21
-146.75
0
LINE
8
0
10
278.6375
20
-146.75
11
260.1375
21
-146.75
0
LINE
8
0
10
260.1375
20
-146.75
11
260.1375
21
-165.25
0
LINE
8
0
10
255.375
20
-146.25
11
273.875
21
-146.25
0
LINE
8
0
10
273.875
20
-146.25
11
273.875
21
-127.75
0
LINE
8
0
10
273.875
20
-127.75
11
255.375
21
-127.75
0
LINE
8
0
10
255.375
20
-127.75
11
255.375
21
-146.25
0
LINE
8
0
10
255.375
20
-127.25
11
273.875
21
-127.25
0
LINE
8
0
10
273.875
20
-127.25
11
273.875
21
-108.75
0
LINE
8
0
10
273.875
20
-108.75
11
255.375
21
-108.75
0
LINE
8
0
10
255.375
20
-108.75
11
255.375
21
-127.25
0
LINE
8
0
10
255.375
20
-108.25
11
273.875
21
-108.25
0
LINE
8
0
10
273.875
20
-108.25
11
273.875
21
-89.75
0
LINE
8
0
10
273.875
20
-89.75
11
255.375
21
-89.75
0
LINE
8
0
10
255.375
20
-89.75
11
255.375
21
-108.25
0
LINE
8
0
10
245.85
20
-89.25
11
264.35
21
-89.25
0
LINE
8
0
10
264.35
20
-89.25
11
264.35
21
-70.75
0
LINE
8
0
10
264.35
20
-70.75
11
245.85
21
-70.75
0
LINE
8
0
10
245.85
20
-70.75
11
245.85
21
-89.25
0
LINE
8
0
10
264.85
20
-184.25
11
283.35
21
-184.25
0
LINE
8
0
10
283.35
20
-184.25
11
283.35
21
-165.75
0
LINE
8
0
10
283.35
20
-165.75
11
264.85
21
-165.75
0
LINE
8
0
10
264.85
20
-165.75
11
264.85
21
-184.25
0
LINE
8
0
10
279.1375
20
-146.25
11
297.6375
21
-146.25
0
LINE
8
0
10
297.6375
20
-146.25
11
297.6375
21
-127.75
0
LINE
8
0
10
297.6375
20
-127.75
11
279.1375
21
-127.75
0
LINE
8
0
10
279.1375
20
-127.75
11
279.1375
21
-146.25
0
LINE
8
0
10
274.375
20
-127.25
11
292.875
21
-127.25
0
LINE
8
0
10
292.875
20
-127.25
11
292.875
21
-108.75
0
LINE
8
0
10
292.875
20
-108.75
11
274.375
21
-108.75
0
LINE
8
0
10
274.375
20
-108.75
11
274.375
21
-127.25
0
LINE
8
0
10
274.375
20
-108.25
11
292.875
21
-108.25
0
LINE
8
0
10
292.875
20
-108.25
11
292.875
21
-89.75
0
LINE
8
0
10
292.875
20
-89.75
11
274.375
21
-89.75
0
LINE
8
0
10
274.375
20
-89.75
11
274.375
21
-108.25
0
LINE
8
0
10
264.85
20
-89.25
11
283.35
21
-89.25
0
LINE
8
0
10
283.35
20
-89.25
11
283.35
21
-70.75
0
LINE
8
0
10
283.35
20
-70.75
11
264.85
21
-70.75
0
LINE
8
0
10
264.85
20
-70.75
11
264.85
21
-89.25
0
LINE
8
0
10
293.375
20
-127.25
11
311.875
21
-127.25
0
LINE
8
0
10
311.875
20
-127.25
11
311.875
21
-108.75
0
LINE
8
0
10
311.875
20
-108.75
11
293.375
21
-108.75
0
LINE
8
0
10
293.375
20
-108.75
11
293.375
21
-127.25
0
LINE
8
0
10
298.1375
20
-108.25
11
316.6375
21
-108.25
0
LINE
8
0
10
316.6375
20
-108.25
11
316.6375
21
-89.75
0
LINE
8
0
10
316.6375
20
-89.75
11
298.1375
21
-89.75
0
LINE
8
0
10
298.1375
20
-89.75
11
298.1375
21
-108.25
0
LINE
8
0
10
283.85
20
-89.25
11
302.35
21
-89.25
0
LINE
8
0
10
302.35
20
-89.25
11
302.35
21
-70.75
0
LINE
8
0
10
302.35
20
-70.75
11
283.85
21
-70.75
0
LINE
8
0
10
283.85
20
-70.75
11
283.85
21
-89.25
0
LINE
8
0
10
302.85
20
-89.25
11
321.35
21
-89.25
0
LINE
8
0
10
321.35
20
-89.25
11
321.35
21
-70.75
0
LINE
8
0
10
321.35
20
-70.75
11
302.85
21
-70.75
0
LINE
8
0
10
302.85
20
-70.75
11
302.85
21
-89.25
0
LINE
8
0
10
322.025
20
-186.1764755
11
335.1064755
21
-173.095
0
LINE
8
0
10
335.1064755
20
-173.095
11
322.025
21
-160.0135245
0
LINE
8
0
10
322.025
20
-160.0135245
11
308.9435245
21
-173.095
0
LINE
8
0
10
308.9435245
20
-173.095
11
322.025
21
-186.1764755
0
LINE
8
0
10
308.5899712
20
-172.7414467
11
321.6714467
21
-159.6599712
0
LINE
8
0
10
321.6714467
20
-159.6599712
11
308.5899712
21
-146.5784957
0
LINE
8
0
10
308.5899712
20
-146.5784957
11
295.5084957
21
-159.6599712
0
LINE
8
0
10
295.5084957
20
-159.6599712
11
308.5899712
21
-172.7414467
0
LINE
8
0
10
335.4600288
20
-172.7414467
11
348.5415043
21
-159.6599712
0
LINE
8
0
10
348.5415043
20
-159.6599712
11
335.4600288
21
-146.5784957
0
LINE
8
0
10
335.4600288
20
-146.5784957
11
322.3785533
21
-159.6599712
0
LINE
8
0
10
322.3785533
20
-159.6599712
11
335.4600288
21
-172.7414467
0
LINE
8
0
10
322.025
20
-159.3064179
11
335.1064755
21
-146.2249424
0
LINE
8
0
10
335.1064755
20
-146.2249424
11
322.025
21
-133.1434669
0
LINE
8
0
10
322.025
20
-133.1434669
11
308.9435245
21
-146.2249424
0
LINE
8
0
10
308.9435245
20
-146.2249424
11
322.025
21
-159.3064179
0
LINE
8
0
10
363.0743164
20
-163.985697
11
376.1557919
21
-150.9042215
0
LINE
8
0
10
376.1557919
20
-150.9042215
11
363.0743164
21
-137.822746
0
LINE
8
0
10
363.0743164
20
-137.822746
11
349.9928409
21
-150.9042215
0
LINE
8
0
10
349.9928409
20
-150.9042215
11
363.0743164
21
-163.985697
0
LINE
8
0
10
349.6392876
20
-150.5506682
11
362.7207631
21
-137.4691927
0
LINE
8
0
10
362.7207631
20
-137.4691927
11
349.6392876
21
-124.3877172
0
LINE
8
0
10
349.6392876
20
-124.3877172
11
336.5578121
21
-137.4691927
0
LINE
8
0
10
336.5578121
20
-137.4691927
11
349.6392876
21
-150.5506682
0
LINE
8
0
10
376.5093452
20
-150.5506682
11
389.5908207
21
-137.4691927
0
LINE
8
0
10
389.5908207
20
-137.4691927
11
376.5093452
21
-124.3877172
0
LINE
8
0
10
376.5093452
20
-124.3877172
11
363.4278697
21
-137.4691927
0
LINE
8
0
10
363.4278697
20
-137.4691927
11
376.5093452
21
-150.5506682
0
LINE
8
0
10
363.0743164
20
-137.1156394
11
376.1557919
21
-124.0341639
0
LINE
8
0
10
376.1557919
20
-124.0341639
11
363.0743164
21
-110.9526884
0
LINE
8
0
10
363.0743164
20
-110.9526884
11
349.9928409
21
-124.0341639
0
LINE
8
0
10
349.9928409
20
-124.0341639
11
363.0743164
21
-137.1156394
0
LINE
8
0
10
331.425
20
-108.25
11
349.925
21
-108.25
0
LINE
8
0
10
349.925
20
-108.25
11
349.925
21
-89.75
0
LINE
8
0
10
349.925
20
-89.75
11
331.425
21
-89.75
0
LINE
8
0
10
331.425
20
-89.75
11
331.425
21
-108.25
0
LINE
8
0
10
331.425
20
-89.25
11
349.925
21
-89.25
0
LINE
8
0
10
349.925
20
-89.25
11
349.925
21
-70.75
0
LINE
8
0
10
349.925
20
-70.75
11
331.425
21
-70.75
0
LINE
8
0
10
331.425
20
-70.75
11
331.425
21
-89.25
0
LINE
8
0
10
350.425
20
-108.25
11
368.925
21
-108.25
0
LINE
8
0
10
368.925
20
-108.25
11
368.925
21
-89.75
0
LINE
8
0
10
368.925
20
-89.75
11
350.425
21
-89.75
0
LINE
8
0
10
350.425
20
-89.75
11
350.425
21
-108.25
0
LINE
8
0
10
350.425
20
-89.25
11
368.925
21
-89.25
0
LINE
8
0
10
368.925
20
-89.25
11
368.925
21
-70.75
0
LINE
8
0
10
368.925
20
-70.75
11
350.425
21
-70.75
0
LINE
8
0
10
350.425
20
-70.75
11
350.425
21
-89.25
0
LINE
8
0
10
369.425
20
-108.25
11
387.925
21
-108.25
0
LINE
8
0
10
387.925
20
-108.25
11
387.925
21
-89.75
0
LINE
8
0
10
387.925
20
-89.75
11
369.425
21
-89.75
0
LINE
8
0
10
369.425
20
-89.75
11
369.425
21
-108.25
0
LINE
8
0
10
369.425
20
-89.25
11
387.925
21
-89.25
0
LINE
8
0
10
387.925
20
-89.25
11
387.925
21
-70.75
0
LINE
8
0
10
387.925
20
-70.75
11
369.425
21
-70.75
0
LINE
8
0
10
369.425
20
-70.75
11
369.425
21
-89.25
0
ENDSEC
0
EOF