0
SECTION
2
HEADER
9
$INSUNITS
70
4
0
ENDSEC
0
SECTION
2
TABLES
0
TABLE
2
LTYPE
0
LTYPE
72
65
70
64
2
CONTINUOUS
3
______
73
0
40
0
0
ENDTAB
0
TABLE
2
LAYER
0
ENDTAB
0
ENDSEC
0
SECTION
2
ENTITIES
0
LINE
8
0
10
27.5287944
20
-184.1566364
11
46.0786178
21
-184.075697
0
LINE
8
0
10
46.0786178
20
-184.075697
11
45.9976784
21
-165.5258736
0
LINE
8
0
10
45.9976784
20
-165.5258736
11
27.447855
21
-165.606813
0
LINE
8
0
10
27.447855
20
-165.606813
11
27.5287944
21
-184.1566364
0
LINE
8
0
10
22.1832235
20
-165.1297796
11
40.7330469
21
-165.0488402
0
LINE
8
0
10
40.7330469
20
-165.0488402
11
40.6521075
21
-146.4990168
0
LINE
8
0
10
40.6521075
20
-146.4990168
11
22.1022841
21
-146.5799562
0
LINE
8
0
10
22.1022841
20
-146.5799562
11
22.1832235
21
-165.1297796
0
LINE
8
0
10
22.1001024
20
-146.079961
11
40.6499258
21
-145.9990216
0
LINE
8
0
10
40.6499258
20
-145.9990216
11
40.5689864
21
-127.4491982
0
LINE
8
0
10
40.5689864
20
-127.4491982
11
22.019163
21
-127.5301376
0
LINE
8
0
10
22.019163
20
-127.5301376
11
22.1001024
21
-146.079961
0
LINE
8
0
10
22.0169814
20
-127.0301423
11
40.5668048
21
-126.9492029
0
LINE
8
0
10
40.5668048
20
-126.9492029
11
40.4858654
21
-108.3993795
0
LINE
8
0
10
40.4858654
20
-108.3993795
11
21.936042
21
-108.4803189
0
LINE
8
0
10
21.936042
20
-108.4803189
11
22.0169814
21
-127.0301423
0
LINE
8
0
10
27.1963103
20
-107.9573618
11
45.7461337
21
-107.8764224
0
LINE
8
0
10
45.7461337
20
-107.8764224
11
45.6651943
21
-89.326599
0
LINE
8
0
10
45.6651943
20
-89.326599
11
27.1153709
21
-89.4075384
0
LINE
8
0
10
27.1153709
20
-89.4075384
11
27.1963103
21
-107.9573618
0
LINE
8
0
10
27.1131892
20
-88.9075431
11
45.6630126
21
-88.8266037
0
LINE
8
0
10
45.6630126
20
-88.8266037
11
45.5820732
21
-70.2767803
0
LINE
8
0
10
45.5820732
20
-70.2767803
11
27.0322498
21
-70.3577197
0
LINE
8
0
10
27.0322498
20
-70.3577197
11
27.1131892
21
-88.9075431
0
LINE
8
0
10
46.5786131
20
-184.0735154
11
65.1284365
21
-183.992576
0
LINE
8
0
10
65.1284365
20
-183.992576
11
65.0474971
21
-165.4427526
0
LINE
8
0
10
65.0474971
20
-165.4427526
11
46.4976737
21
-165.523692
0
LINE
8
0
10
46.4976737
20
-165.523692
11
46.5786131
21
-184.0735154
0
LINE
8
0
10
46.495492
20
-165.0236967
11
65.0453154
21
-164.9427573
0
LINE
8
0
10
65.0453154
20
-164.9427573
11
64.964376
21
-146.3929339
0
LINE
8
0
10
64.964376
20
-146.3929339
11
46.4145526
21
-146.4738733
0
LINE
8
0
10
46.4145526
20
-146.4738733
11
46.495492
21
-165.0236967
0
LINE
8
0
10
46.412371
20
-145.973878
11
64.9621944
21
-145.8929386
0
LINE
8
0
10
64.9621944
20
-145.8929386
11
64.881255
21
-127.3431152
0
LINE
8
0
10
64.881255
20
-127.3431152
11
46.3314316
21
-127.4240546
0
LINE
8
0
10
46.3314316
20
-127.4240546
11
46.412371
21
-145.973878
0
LINE
8
0
10
46.32925
20
-126.9240594
11
64.8790734
21
-126.84312
0
LINE
8
0
10
64.8790734
20
-126.84312
11
64.798134
21
-108.2932966
0
LINE
8
0
10
64.798134
20
-108.2932966
11
46.2483106
21
-108.374236
0
LINE
8
0
10
46.2483106
20
-108.374236
11
46.32925
21
-126.9240594
0
LINE
8
0
10
46.2461289
20
-107.8742407
11
64.7959523
21
-107.7933013
0
LINE
8
0
10
64.7959523
20
-107.7933013
11
64.7150129
21
-89.2434779
0
LINE
8
0
10
64.7150129
20
-89.2434779
11
46.1651895
21
-89.3244173
0
LINE
8
0
10
46.1651895
20
-89.3244173
11
46.2461289
21
-107.8742407
0
LINE
8
0
10
65.6585186
20
-181.8304493
11
84.2069294
21
-182.0732613
0
LINE
8
0
10
84.2069294
20
-182.0732613
11
84.4497414
21
-163.5248505
0
LINE
8
0
10
84.4497414
20
-163.5248505
11
65.9013306
21
-163.2820385
0
LINE
8
0
10
65.9013306
20
-163.2820385
11
65.6585186
21
-181.8304493
0
LINE
8
0
10
65.9078753
20
-162.7820813
11
84.4562861
21
-163.0248933
0
LINE
8
0
10
84.4562861
20
-163.0248933
11
84.6990981
21
-144.4764825
0
LINE
8
0
10
84.6990981
20
-144.4764825
11
66.1506873
21
-144.2336705
0
LINE
8
0
10
66.1506873
20
-144.2336705
11
65.9078753
21
-162.7820813
0
LINE
8
0
10
66.3572149
20
-143.7363313
11
84.9056257
21
-143.9791433
0
LINE
8
0
10
84.9056257
20
-143.9791433
11
85.1484377
21
-125.4307325
0
LINE
8
0
10
85.1484377
20
-125.4307325
11
66.6000269
21
-125.1879205
0
LINE
8
0
10
66.6000269
20
-125.1879205
11
66.3572149
21
-143.7363313
0
LINE
8
0
10
66.8065545
20
-124.6905813
11
85.3549653
21
-124.9333933
0
LINE
8
0
10
85.3549653
20
-124.9333933
11
85.5977773
21
-106.3849825
0
LINE
8
0
10
85.5977773
20
-106.3849825
11
67.0493665
21
-106.1421705
0
LINE
8
0
10
67.0493665
20
-106.1421705
11
66.8065545
21
-124.6905813
0
LINE
8
0
10
67.0559112
20
-105.6422134
11
85.604322
21
-105.8850254
0
LINE
8
0
10
85.604322
20
-105.8850254
11
85.847134
21
-87.3366146
0
LINE
8
0
10
85.847134
20
-87.3366146
11
67.2987232
21
-87.0938026
0
LINE
8
0
10
67.2987232
20
-87.0938026
11
67.0559112
21
-105.6422134
0
LINE
8
0
10
67.5052508
20
-86.5964634
11
86.0536616
21
-86.8392754
0
LINE
8
0
10
86.0536616
20
-86.8392754
11
86.2964736
21
-68.2908646
0
LINE
8
0
10
86.2964736
20
-68.2908646
11
67.7480628
21
-68.0480526
0
LINE
8
0
10
67.7480628
20
-68.0480526
11
67.5052508
21
-86.5964634
0
LINE
8
0
10
84.7614993
20
-180.9241191
11
103.3028474
21
-181.4906086
0
LINE
8
0
10
103.3028474
20
-181.4906086
11
103.8693369
21
-162.9492605
0
LINE
8
0
10
103.8693369
20
-162.9492605
11
85.3279888
21
-162.382771
0
LINE
8
0
10
85.3279888
20
-162.382771
11
84.7614993
21
-180.9241191
0
LINE
8
0
10
85.3432579
20
-161.8830041
11
103.884606
21
-162.4494936
0
LINE
8
0
10
103.884606
20
-162.4494936
11
104.4510955
21
-143.9081455
0
LINE
8
0
10
104.4510955
20
-143.9081455
11
85.9097474
21
-143.341656
0
LINE
8
0
10
85.9097474
20
-143.341656
11
85.3432579
21
-161.8830041
0
LINE
8
0
10
86.32483
20
-142.8541046
11
104.8661781
21
-143.4205941
0
LINE
8
0
10
104.8661781
20
-143.4205941
11
105.4326676
21
-124.879246
0
LINE
8
0
10
105.4326676
20
-124.879246
11
86.8913195
21
-124.3127565
0
LINE
8
0
10
86.8913195
20
-124.3127565
11
86.32483
21
-142.8541046
0
LINE
8
0
10
87.3064021
20
-123.825205
11
105.8477502
21
-124.3916945
0
LINE
8
0
10
105.8477502
20
-124.3916945
11
106.4142397
21
-105.8503464
0
LINE
8
0
10
106.4142397
20
-105.8503464
11
87.8728916
21
-105.2838569
0
LINE
8
0
10
87.8728916
20
-105.2838569
11
87.3064021
21
-123.825205
0
LINE
8
0
10
87.8881607
20
-104.7840901
11
106.4295088
21
-105.3505796
0
LINE
8
0
10
106.4295088
20
-105.3505796
11
106.9959983
21
-86.8092315
0
LINE
8
0
10
106.9959983
20
-86.8092315
11
88.4546502
21
-86.242742
0
LINE
8
0
10
88.4546502
20
-86.242742
11
87.8881607
21
-104.7840901
0
LINE
8
0
10
88.8697328
20
-85.7551905
11
107.4110809
21
-86.32168
0
LINE
8
0
10
107.4110809
20
-86.32168
11
107.9775704
21
-67.7803319
0
LINE
8
0
10
107.9775704
20
-67.7803319
11
89.4362223
21
-67.2138424
0
LINE
8
0
10
89.4362223
20
-67.2138424
11
88.8697328
21
-85.7551905
0
LINE
8
0
10
104.5303879
20
-163.3162178
11
123.0590254
21
-164.2062121
0
LINE
8
0
10
123.0590254
20
-164.2062121
11
123.9490197
21
-145.6775746
0
LINE
8
0
10
123.9490197
20
-145.6775746
11
105.4203822
21
-144.7875803
0
LINE
8
0
10
105.4203822
20
-144.7875803
11
104.5303879
21
-163.3162178
0
LINE
8
0
10
105.644141
20
-144.2977517
11
124.1727785
21
-145.187746
0
LINE
8
0
10
124.1727785
20
-145.187746
11
125.0627728
21
-126.6591085
0
LINE
8
0
10
125.0627728
20
-126.6591085
11
106.5341353
21
-125.7691142
0
LINE
8
0
10
106.5341353
20
-125.7691142
11
105.644141
21
-144.2977517
0
LINE
8
0
10
106.757894
20
-125.2792857
11
125.2865315
21
-126.16928
0
LINE
8
0
10
125.2865315
20
-126.16928
11
126.1765258
21
-107.6406425
0
LINE
8
0
10
126.1765258
20
-107.6406425
11
107.6478883
21
-106.7506482
0
LINE
8
0
10
107.6478883
20
-106.7506482
11
106.757894
21
-125.2792857
0
LINE
8
0
10
107.6718774
20
-106.2512239
11
126.2005149
21
-107.1412182
0
LINE
8
0
10
126.2005149
20
-107.1412182
11
127.0905092
21
-88.6125807
0
LINE
8
0
10
127.0905092
20
-88.6125807
11
108.5618717
21
-87.7225864
0
LINE
8
0
10
108.5618717
20
-87.7225864
11
107.6718774
21
-106.2512239
0
LINE
8
0
10
108.7856305
20
-87.2327578
11
127.314268
21
-88.1227521
0
LINE
8
0
10
127.314268
20
-88.1227521
11
128.2042623
21
-69.5941146
0
LINE
8
0
10
128.2042623
20
-69.5941146
11
109.6756248
21
-68.7041203
0
LINE
8
0
10
109.6756248
20
-68.7041203
11
108.7856305
21
-87.2327578
0
LINE
8
0
10
122.8322415
20
-183.5175707
11
141.360879
21
-184.407565
0
LINE
8
0
10
141.360879
20
-184.407565
11
142.2508733
21
-165.8789275
0
LINE
8
0
10
142.2508733
20
-165.8789275
11
123.7222358
21
-164.9889332
0
LINE
8
0
10
123.7222358
20
-164.9889332
11
122.8322415
21
-183.5175707
0
LINE
8
0
10
123.7462249
20
-164.489509
11
142.2748624
21
-165.3795033
0
LINE
8
0
10
142.2748624
20
-165.3795033
11
143.1648567
21
-146.8508658
0
LINE
8
0
10
143.1648567
20
-146.8508658
11
124.6362192
21
-145.9608715
0
LINE
8
0
10
124.6362192
20
-145.9608715
11
123.7462249
21
-164.489509
0
LINE
8
0
10
124.6602083
20
-145.4614472
11
143.1888458
21
-146.3514415
0
LINE
8
0
10
143.1888458
20
-146.3514415
11
144.0788401
21
-127.822804
0
LINE
8
0
10
144.0788401
20
-127.822804
11
125.5502026
21
-126.9328097
0
LINE
8
0
10
125.5502026
20
-126.9328097
11
124.6602083
21
-145.4614472
0
LINE
8
0
10
125.5741916
20
-126.4333855
11
144.1028291
21
-127.3233798
0
LINE
8
0
10
144.1028291
20
-127.3233798
11
144.9928234
21
-108.7947423
0
LINE
8
0
10
144.9928234
20
-108.7947423
11
126.4641859
21
-107.904748
0
LINE
8
0
10
126.4641859
20
-107.904748
11
125.5741916
21
-126.4333855
0
LINE
8
0
10
126.488175
20
-107.4053238
11
145.0168125
21
-108.2953181
0
LINE
8
0
10
145.0168125
20
-108.2953181
11
145.9068068
21
-89.7666806
0
LINE
8
0
10
145.9068068
20
-89.7666806
11
127.3781693
21
-88.8766863
0
LINE
8
0
10
127.3781693
20
-88.8766863
11
126.488175
21
-107.4053238
0
LINE
8
0
10
127.4021584
20
-88.3772621
11
145.9307959
21
-89.2672564
0
LINE
8
0
10
145.9307959
20
-89.2672564
11
146.8207902
21
-70.7386189
0
LINE
8
0
10
146.8207902
20
-70.7386189
11
128.2921527
21
-69.8486246
0
LINE
8
0
10
128.2921527
20
-69.8486246
11
127.4021584
21
-88.3772621
0
LINE
8
0
10
182.2449307
20
-184.5946897
11
200.7806293
21
-183.8664201
0
LINE
8
0
10
200.7806293
20
-183.8664201
11
200.0523597
21
-165.3307215
0
LINE
8
0
10
200.0523597
20
-165.3307215
11
181.5166611
21
-166.0589911
0
LINE
8
0
10
181.5166611
20
-166.0589911
11
182.2449307
21
-184.5946897
0
LINE
8
0
10
182.0965686
20
-165.5358206
11
200.6322672
21
-164.807551
0
LINE
8
0
10
200.6322672
20
-164.807551
11
199.9039976
21
-146.2718524
0
LINE
8
0
10
199.9039976
20
-146.2718524
11
181.368299
21
-147.000122
0
LINE
8
0
10
181.368299
20
-147.000122
11
182.0965686
21
-165.5358206
0
LINE
8
0
10
181.3486692
20
-146.5005074
11
199.8843678
21
-145.7722378
0
LINE
8
0
10
199.8843678
20
-145.7722378
11
199.1560982
21
-127.2365392
0
LINE
8
0
10
199.1560982
20
-127.2365392
11
180.6203996
21
-127.9648088
0
LINE
8
0
10
180.6203996
20
-127.9648088
11
181.3486692
21
-146.5005074
0
LINE
8
0
10
180.6007697
20
-127.4651942
11
199.1364683
21
-126.7369246
0
LINE
8
0
10
199.1364683
20
-126.7369246
11
198.4081987
21
-108.201226
0
LINE
8
0
10
198.4081987
20
-108.201226
11
179.8725001
21
-108.9294956
0
LINE
8
0
10
179.8725001
20
-108.9294956
11
180.6007697
21
-127.4651942
0
LINE
8
0
10
179.8528702
20
-108.429881
11
198.3885688
21
-107.7016114
0
LINE
8
0
10
198.3885688
20
-107.7016114
11
197.6602992
21
-89.1659128
0
LINE
8
0
10
197.6602992
20
-89.1659128
11
179.1246006
21
-89.8941824
0
LINE
8
0
10
179.1246006
20
-89.8941824
11
179.8528702
21
-108.429881
0
LINE
8
0
10
179.1049707
20
-89.3945678
11
197.6406693
21
-88.6662982
0
LINE
8
0
10
197.6406693
20
-88.6662982
11
196.9123997
21
-70.1305996
0
LINE
8
0
10
196.9123997
20
-70.1305996
11
178.3767011
21
-70.8588692
0
LINE
8
0
10
178.3767011
20
-70.8588692
11
179.1049707
21
-89.3945678
0
LINE
8
0
10
201.1220668
20
-164.5381139
11
219.6577654
21
-163.8098443
0
LINE
8
0
10
219.6577654
20
-163.8098443
11
218.9294958
21
-145.2741457
0
LINE
8
0
10
218.9294958
20
-145.2741457
11
200.3937972
21
-146.0024153
0
LINE
8
0
10
200.3937972
20
-146.0024153
11
201.1220668
21
-164.5381139
0
LINE
8
0
10
200.3741674
20
-145.5028007
11
218.909866
21
-144.7745311
0
LINE
8
0
10
218.909866
20
-144.7745311
11
218.1815964
21
-126.2388325
0
LINE
8
0
10
218.1815964
20
-126.2388325
11
199.6458978
21
-126.9671021
0
LINE
8
0
10
199.6458978
20
-126.9671021
11
200.3741674
21
-145.5028007
0
LINE
8
0
10
199.6262679
20
-126.4674875
11
218.1619665
21
-125.7392179
0
LINE
8
0
10
218.1619665
20
-125.7392179
11
217.4336969
21
-107.2035193
0
LINE
8
0
10
217.4336969
20
-107.2035193
11
198.8979983
21
-107.9317889
0
LINE
8
0
10
198.8979983
20
-107.9317889
11
199.6262679
21
-126.4674875
0
LINE
8
0
10
198.8783684
20
-107.4321743
11
217.414067
21
-106.7039047
0
LINE
8
0
10
217.414067
20
-106.7039047
11
216.6857974
21
-88.1682061
0
LINE
8
0
10
216.6857974
20
-88.1682061
11
198.1500988
21
-88.8964757
0
LINE
8
0
10
198.1500988
20
-88.8964757
11
198.8783684
21
-107.4321743
0
LINE
8
0
10
198.1304689
20
-88.3968611
11
216.6661675
21
-87.6685915
0
LINE
8
0
10
216.6661675
20
-87.6685915
11
215.9378979
21
-69.1328929
0
LINE
8
0
10
215.9378979
20
-69.1328929
11
197.4021993
21
-69.8611625
0
LINE
8
0
10
197.4021993
20
-69.8611625
11
198.1304689
21
-88.3968611
0
LINE
8
0
10
220.8992268
20
-181.6650773
11
239.4448124
21
-181.2604111
0
LINE
8
0
10
239.4448124
20
-181.2604111
11
239.0401462
21
-162.7148255
0
LINE
8
0
10
239.0401462
20
-162.7148255
11
220.4945606
21
-163.1194917
0
LINE
8
0
10
220.4945606
20
-163.1194917
11
220.8992268
21
-181.6650773
0
LINE
8
0
10
220.6836056
20
-162.6152476
11
239.2291912
21
-162.2105814
0
LINE
8
0
10
239.2291912
20
-162.2105814
11
238.824525
21
-143.6649958
0
LINE
8
0
10
238.824525
20
-143.6649958
11
220.2789394
21
-144.069662
0
LINE
8
0
10
220.2789394
20
-144.069662
11
220.6836056
21
-162.6152476
0
LINE
8
0
10
220.4679845
20
-143.565418
11
239.0135701
21
-143.1607518
0
LINE
8
0
10
239.0135701
20
-143.1607518
11
238.6089039
21
-124.6151662
0
LINE
8
0
10
238.6089039
20
-124.6151662
11
220.0633183
21
-125.0198324
0
LINE
8
0
10
220.0633183
20
-125.0198324
11
220.4679845
21
-143.565418
0
LINE
8
0
10
220.2523633
20
-124.5155884
11
238.7979489
21
-124.1109222
0
LINE
8
0
10
238.7979489
20
-124.1109222
11
238.3932827
21
-105.5653366
0
LINE
8
0
10
238.3932827
20
-105.5653366
11
219.8476971
21
-105.9700028
0
LINE
8
0
10
219.8476971
20
-105.9700028
11
220.2523633
21
-124.5155884
0
LINE
8
0
10
220.0367422
20
-105.4657588
11
238.5823278
21
-105.0610926
0
LINE
8
0
10
238.5823278
20
-105.0610926
11
238.1776616
21
-86.515507
0
LINE
8
0
10
238.1776616
20
-86.515507
11
219.632076
21
-86.9201732
0
LINE
8
0
10
219.632076
20
-86.9201732
11
220.0367422
21
-105.4657588
0
LINE
8
0
10
219.821121
20
-86.4159292
11
238.3667066
21
-86.011263
0
LINE
8
0
10
238.3667066
20
-86.011263
11
237.9620404
21
-67.4656774
0
LINE
8
0
10
237.9620404
20
-67.4656774
11
219.4164548
21
-67.8703436
0
LINE
8
0
10
219.4164548
20
-67.8703436
11
219.821121
21
-86.4159292
0
LINE
8
0
10
239.8025717
20
-182.0930116
11
258.3523951
21
-182.0120722
0
LINE
8
0
10
258.3523951
20
-182.0120722
11
258.2714557
21
-163.4622488
0
LINE
8
0
10
258.2714557
20
-163.4622488
11
239.7216323
21
-163.5431882
0
LINE
8
0
10
239.7216323
20
-163.5431882
11
239.8025717
21
-182.0930116
0
LINE
8
0
10
239.9194487
20
-163.0423203
11
258.4692721
21
-162.9613809
0
LINE
8
0
10
258.4692721
20
-162.9613809
11
258.3883327
21
-144.4115575
0
LINE
8
0
10
258.3883327
20
-144.4115575
11
239.8385093
21
-144.4924969
0
LINE
8
0
10
239.8385093
20
-144.4924969
11
239.9194487
21
-163.0423203
0
LINE
8
0
10
240.0363258
20
-143.991629
11
258.5861492
21
-143.9106896
0
LINE
8
0
10
258.5861492
20
-143.9106896
11
258.5052098
21
-125.3608662
0
LINE
8
0
10
258.5052098
20
-125.3608662
11
239.9553864
21
-125.4418056
0
LINE
8
0
10
239.9553864
20
-125.4418056
11
240.0363258
21
-143.991629
0
LINE
8
0
10
240.1532029
20
-124.9409376
11
258.7030263
21
-124.8599982
0
LINE
8
0
10
258.7030263
20
-124.8599982
11
258.6220869
21
-106.3101748
0
LINE
8
0
10
258.6220869
20
-106.3101748
11
240.0722635
21
-106.3911142
0
LINE
8
0
10
240.0722635
20
-106.3911142
11
240.1532029
21
-124.9409376
0
LINE
8
0
10
240.2700799
20
-105.8902463
11
258.8199033
21
-105.8093069
0
LINE
8
0
10
258.8199033
20
-105.8093069
11
258.7389639
21
-87.2594835
0
LINE
8
0
10
258.7389639
20
-87.2594835
11
240.1891405
21
-87.3404229
0
LINE
8
0
10
240.1891405
20
-87.3404229
11
240.2700799
21
-105.8902463
0
LINE
8
0
10
240.386957
20
-86.839555
11
258.9367804
21
-86.7586156
0
LINE
8
0
10
258.9367804
20
-86.7586156
11
258.855841
21
-68.2087922
0
LINE
8
0
10
258.855841
20
-68.2087922
11
240.3060176
21
-68.2897316
0
LINE
8
0
10
240.3060176
20
-68.2897316
11
240.386957
21
-86.839555
0
LINE
8
0
10
258.6999323
20
-183.8507801
11
277.2483431
21
-184.0935921
0
LINE
8
0
10
277.2483431
20
-184.0935921
11
277.4911551
21
-165.5451813
0
LINE
8
0
10
277.4911551
20
-165.5451813
11
258.9427443
21
-165.3023693
0
LINE
8
0
10
258.9427443
20
-165.3023693
11
258.6999323
21
-183.8507801
0
LINE
8
0
10
259.1492719
20
-164.8050301
11
277.6976827
21
-165.0478421
0
LINE
8
0
10
277.6976827
20
-165.0478421
11
277.9404947
21
-146.4994313
0
LINE
8
0
10
277.9404947
20
-146.4994313
11
259.3920839
21
-146.2566193
0
LINE
8
0
10
259.3920839
20
-146.2566193
11
259.1492719
21
-164.8050301
0
LINE
8
0
10
259.5986115
20
-145.7592801
11
278.1470223
21
-146.0020921
0
LINE
8
0
10
278.1470223
20
-146.0020921
11
278.3898343
21
-127.4536813
0
LINE
8
0
10
278.3898343
20
-127.4536813
11
259.8414235
21
-127.2108693
0
LINE
8
0
10
259.8414235
20
-127.2108693
11
259.5986115
21
-145.7592801
0
LINE
8
0
10
260.047951
20
-126.7135301
11
278.5963618
21
-126.9563421
0
LINE
8
0
10
278.5963618
20
-126.9563421
11
278.8391738
21
-108.4079313
0
LINE
8
0
10
278.8391738
20
-108.4079313
11
260.290763
21
-108.1651193
0
LINE
8
0
10
260.290763
20
-108.1651193
11
260.047951
21
-126.7135301
0
LINE
8
0
10
260.4972906
20
-107.6677801
11
279.0457014
21
-107.9105921
0
LINE
8
0
10
279.0457014
20
-107.9105921
11
279.2885134
21
-89.3621813
0
LINE
8
0
10
279.2885134
20
-89.3621813
11
260.7401026
21
-89.1193693
0
LINE
8
0
10
260.7401026
20
-89.1193693
11
260.4972906
21
-107.6677801
0
LINE
8
0
10
277.4293159
20
-183.97375
11
295.9729593
21
-184.4593324
0
LINE
8
0
10
295.9729593
20
-184.4593324
11
296.4585417
21
-165.915689
0
LINE
8
0
10
296.4585417
20
-165.915689
11
277.9148983
21
-165.4301066
0
LINE
8
0
10
277.9148983
20
-165.4301066
11
277.4293159
21
-183.97375
0
LINE
8
0
10
283.2886492
20
-165.0706519
11
301.8322926
21
-165.5562343
0
LINE
8
0
10
301.8322926
20
-165.5562343
11
302.317875
21
-147.0125909
0
LINE
8
0
10
302.317875
20
-147.0125909
11
283.7742316
21
-146.5270085
0
LINE
8
0
10
283.7742316
20
-146.5270085
11
283.2886492
21
-165.0706519
0
LINE
8
0
10
278.4266577
20
-145.886806
11
296.9703011
21
-146.3723884
0
LINE
8
0
10
296.9703011
20
-146.3723884
11
297.4558835
21
-127.828745
0
LINE
8
0
10
297.4558835
20
-127.828745
11
278.9122401
21
-127.3431626
0
LINE
8
0
10
278.9122401
20
-127.3431626
11
278.4266577
21
-145.886806
0
LINE
8
0
10
278.9253286
20
-126.8433339
11
297.468972
21
-127.3289163
0
LINE
8
0
10
297.468972
20
-127.3289163
11
297.9545544
21
-108.7852729
0
LINE
8
0
10
297.9545544
20
-108.7852729
11
279.410911
21
-108.2996905
0
LINE
8
0
10
279.410911
20
-108.2996905
11
278.9253286
21
-126.8433339
0
LINE
8
0
10
279.4239995
20
-107.7998619
11
297.9676429
21
-108.2854443
0
LINE
8
0
10
297.9676429
20
-108.2854443
11
298.4532253
21
-89.7418009
0
LINE
8
0
10
298.4532253
20
-89.7418009
11
279.9095819
21
-89.2562185
0
LINE
8
0
10
279.9095819
20
-89.2562185
11
279.4239995
21
-107.7998619
0
LINE
8
0
10
279.9226704
20
-88.7563899
11
298.4663138
21
-89.2419723
0
LINE
8
0
10
298.4663138
20
-89.2419723
11
298.9518962
21
-70.6983289
0
LINE
8
0
10
298.9518962
20
-70.6983289
11
280.4082528
21
-70.2127465
0
LINE
8
0
10
280.4082528
20
-70.2127465
11
279.9226704
21
-88.7563899
0
LINE
8
0
10
302.8307922
20
-146.5258508
11
321.3744356
21
-147.0114332
0
LINE
8
0
10
321.3744356
20
-147.0114332
11
321.860018
21
-128.4677898
0
LINE
8
0
10
321.860018
20
-128.4677898
11
303.3163746
21
-127.9822074
0
LINE
8
0
10
303.3163746
20
-127.9822074
11
302.8307922
21
-146.5258508
0
LINE
8
0
10
297.9688006
20
-127.3420048
11
316.512444
21
-127.8275872
0
LINE
8
0
10
316.512444
20
-127.8275872
11
316.9980264
21
-109.2839438
0
LINE
8
0
10
316.9980264
20
-109.2839438
11
298.454383
21
-108.7983614
0
LINE
8
0
10
298.454383
20
-108.7983614
11
297.9688006
21
-127.3420048
0
LINE
8
0
10
298.4674715
20
-108.2985328
11
317.0111149
21
-108.7841152
0
LINE
8
0
10
317.0111149
20
-108.7841152
11
317.4966973
21
-90.2404718
0
LINE
8
0
10
317.4966973
20
-90.2404718
11
298.9530539
21
-89.7548894
0
LINE
8
0
10
298.9530539
20
-89.7548894
11
298.4674715
21
-108.2985328
0
LINE
8
0
10
298.9661424
20
-89.2550608
11
317.5097858
21
-89.7406432
0
LINE
8
0
10
317.5097858
20
-89.7406432
11
317.9953682
21
-71.1969998
0
LINE
8
0
10
317.9953682
20
-71.1969998
11
299.4517248
21
-70.7114174
0
LINE
8
0
10
299.4517248
20
-70.7114174
11
298.9661424
21
-89.2550608
0
LINE
8
0
10
317.0122727
20
-127.8406758
11
335.5559161
21
-128.3262582
0
LINE
8
0
10
335.5559161
20
-128.3262582
11
336.0414985
21
-109.7826148
0
LINE
8
0
10
336.0414985
20
-109.7826148
11
317.4978551
21
-109.2970324
0
LINE
8
0
10
317.4978551
20
-109.2970324
11
317.0122727
21
-127.8406758
0
LINE
8
0
10
322.871606
20
-108.9375777
11
341.4152494
21
-109.4231601
0
LINE
8
0
10
341.4152494
20
-109.4231601
11
341.9008318
21
-90.8795167
0
LINE
8
0
10
341.9008318
20
-90.8795167
11
323.3571884
21
-90.3939343
0
LINE
8
0
10
323.3571884
20
-90.3939343
11
322.871606
21
-108.9375777
0
LINE
8
0
10
318.0096144
20
-89.7537317
11
336.5532578
21
-90.2393141
0
LINE
8
0
10
336.5532578
20
-90.2393141
11
337.0388402
21
-71.6956707
0
LINE
8
0
10
337.0388402
20
-71.6956707
11
318.4951968
21
-71.2100883
0
LINE
8
0
10
318.4951968
20
-71.2100883
11
318.0096144
21
-89.7537317
0
LINE
8
0
10
337.0530866
20
-90.2524024
11
355.59673
21
-90.7379848
0
LINE
8
0
10
355.59673
20
-90.7379848
11
356.0823124
21
-72.1943414
0
LINE
8
0
10
356.0823124
20
-72.1943414
11
337.538669
21
-71.708759
0
LINE
8
0
10
337.538669
20
-71.708759
11
337.0530866
21
-90.2524024
0
LINE
8
0
10
337.8282726
20
-198.6266652
11
350.4200264
21
-185.0049826
0
LINE
8
0
10
350.4200264
20
-185.0049826
11
336.7983438
21
-172.4132288
0
LINE
8
0
10
336.7983438
20
-172.4132288
11
324.20659
21
-186.0349114
0
LINE
8
0
10
324.20659
20
-186.0349114
11
337.8282726
21
-198.6266652
0
LINE
8
0
10
323.8394288
20
-185.695511
11
336.4311826
21
-172.0738284
0
LINE
8
0
10
336.4311826
20
-172.0738284
11
322.8095
21
-159.4820746
0
LINE
8
0
10
322.8095
20
-159.4820746
11
310.2177462
21
-173.1037572
0
LINE
8
0
10
310.2177462
20
-173.1037572
11
323.8394288
21
-185.695511
0
LINE
8
0
10
350.7594268
20
-184.6378214
11
363.3511806
21
-171.0161388
0
LINE
8
0
10
363.3511806
20
-171.0161388
11
349.729498
21
-158.424385
0
LINE
8
0
10
349.729498
20
-158.424385
11
337.1377442
21
-172.0460676
0
LINE
8
0
10
337.1377442
20
-172.0460676
11
350.7594268
21
-184.6378214
0
LINE
8
0
10
336.770583
20
-171.7066672
11
349.3623368
21
-158.0849846
0
LINE
8
0
10
349.3623368
20
-158.0849846
11
335.7406542
21
-145.4932308
0
LINE
8
0
10
335.7406542
20
-145.4932308
11
323.1489004
21
-159.1149134
0
LINE
8
0
10
323.1489004
20
-159.1149134
11
336.770583
21
-171.7066672
0
LINE
8
0
10
366.9233695
20
-167.1517667
11
379.5151233
21
-153.5300841
0
LINE
8
0
10
379.5151233
20
-153.5300841
11
365.8934407
21
-140.9383303
0
LINE
8
0
10
365.8934407
20
-140.9383303
11
353.3016869
21
-154.5600129
0
LINE
8
0
10
353.3016869
20
-154.5600129
11
366.9233695
21
-167.1517667
0
LINE
8
0
10
352.9345257
20
-154.2206125
11
365.5262795
21
-140.5989299
0
LINE
8
0
10
365.5262795
20
-140.5989299
11
351.9045969
21
-128.0071761
0
LINE
8
0
10
351.9045969
20
-128.0071761
11
339.3128431
21
-141.6288587
0
LINE
8
0
10
339.3128431
20
-141.6288587
11
352.9345257
21
-154.2206125
0
LINE
8
0
10
379.8545238
20
-153.1629229
11
392.4462776
21
-139.5412403
0
LINE
8
0
10
392.4462776
20
-139.5412403
11
378.824595
21
-126.9494865
0
LINE
8
0
10
378.824595
20
-126.9494865
11
366.2328412
21
-140.5711691
0
LINE
8
0
10
366.2328412
20
-140.5711691
11
379.8545238
21
-153.1629229
0
LINE
8
0
10
365.86568
20
-140.2317687
11
378.4574338
21
-126.6100861
0
LINE
8
0
10
378.4574338
20
-126.6100861
11
364.8357512
21
-114.0183323
0
LINE
8
0
10
364.8357512
20
-114.0183323
11
352.2439974
21
-127.6400149
0
LINE
8
0
10
352.2439974
20
-127.6400149
11
365.86568
21
-140.2317687
0
LINE
8
0
10
365.1196238
20
-110.0438807
11
383.6632672
21
-110.5294631
0
LINE
8
0
10
383.6632672
20
-110.5294631
11
384.1488496
21
-91.9858197
0
LINE
8
0
10
384.1488496
20
-91.9858197
11
365.6052062
21
-91.5002373
0
LINE
8
0
10
365.6052062
20
-91.5002373
11
365.1196238
21
-110.0438807
0
LINE
8
0
10
365.6182947
20
-91.0004087
11
384.1619381
21
-91.4859911
0
LINE
8
0
10
384.1619381
20
-91.4859911
11
384.6475205
21
-72.9423477
0
LINE
8
0
10
384.6475205
20
-72.9423477
11
366.1038771
21
-72.4567653
0
LINE
8
0
10
366.1038771
20
-72.4567653
11
365.6182947
21
-91.0004087
0
LINE
8
0
10
384.1630958
20
-110.5425516
11
402.7067392
21
-111.028134
0
LINE
8
0
10
402.7067392
20
-111.028134
11
403.1923216
21
-92.4844906
0
LINE
8
0
10
403.1923216
20
-92.4844906
11
384.6486782
21
-91.9989082
0
LINE
8
0
10
384.6486782
20
-91.9989082
11
384.1630958
21
-110.5425516
0
LINE
8
0
10
384.6617667
20
-91.4990796
11
403.2054101
21
-91.984662
0
LINE
8
0
10
403.2054101
20
-91.984662
11
403.6909925
21
-73.4410186
0
LINE
8
0
10
403.6909925
20
-73.4410186
11
385.1473491
21
-72.9554362
0
LINE
8
0
10
385.1473491
20
-72.9554362
11
384.6617667
21
-91.4990796
0
ENDSEC
0
EOF