<?xml version="1.0"?>
<svg
  xmlns="http://www.w3.org/2000/svg"
  xmlns:xlink="http://www.w3.org/1999/xlink" version="1.1"
  preserveAspectRatio="xMinYMin meet"
  viewBox="21.936042 67.2138424 381.7549505 131.4128228"
  width="100%" height="100%"
>
  <g stroke="#000000" stroke-width="0.1%" fill="none" transform="matrix(1,0,0,-1,0,0)">
    <g stroke="rgb(0, 0, 0)"><path d="M27.5287944,-184.1566364L46.0786178,-184.075697" /></g>
<g stroke="rgb(0, 0, 0)"><path d="M46.0786178,-184.075697L45.9976784,-165.5258736" /></g>
<g stroke="rgb(0, 0, 0)"><path d="M45.9976784,-165.5258736L27.447855,-165.606813" /></g>
<g stroke="rgb(0, 0, 0)"><path d="M27.447855,-165.606813L27.5287944,-184.1566364" /></g>
<g stroke="rgb(0, 0, 0)"><path d="M22.1832235,-165.1297796L40.7330469,-165.0488402" /></g>
<g stroke="rgb(0, 0, 0)"><path d="M40.7330469,-165.0488402L40.6521075,-146.4990168" /></g>
<g stroke="rgb(0, 0, 0)"><path d="M40.6521075,-146.4990168L22.1022841,-146.5799562" /></g>
<g stroke="rgb(0, 0, 0)"><path d="M22.1022841,-146.5799562L22.1832235,-165.1297796" /></g>
<g stroke="rgb(0, 0, 0)"><path d="M22.1001024,-146.079961L40.6499258,-145.9990216" /></g>
<g stroke="rgb(0, 0, 0)"><path d="M40.6499258,-145.9990216L40.5689864,-127.4491982" /></g>
<g stroke="rgb(0, 0, 0)"><path d="M40.5689864,-127.4491982L22.019163,-127.5301376" /></g>
<g stroke="rgb(0, 0, 0)"><path d="M22.019163,-127.5301376L22.1001024,-146.079961" /></g>
<g stroke="rgb(0, 0, 0)"><path d="M22.0169814,-127.0301423L40.5668048,-126.9492029" /></g>
<g stroke="rgb(0, 0, 0)"><path d="M40.5668048,-126.9492029L40.4858654,-108.3993795" /></g>
<g stroke="rgb(0, 0, 0)"><path d="M40.4858654,-108.3993795L21.936042,-108.4803189" /></g>
<g stroke="rgb(0, 0, 0)"><path d="M21.936042,-108.4803189L22.0169814,-127.0301423" /></g>
<g stroke="rgb(0, 0, 0)"><path d="M27.1963103,-107.9573618L45.7461337,-107.8764224" /></g>
<g stroke="rgb(0, 0, 0)"><path d="M45.7461337,-107.8764224L45.6651943,-89.326599" /></g>
<g stroke="rgb(0, 0, 0)"><path d="M45.6651943,-89.326599L27.1153709,-89.4075384" /></g>
<g stroke="rgb(0, 0, 0)"><path d="M27.1153709,-89.4075384L27.1963103,-107.9573618" /></g>
<g stroke="rgb(0, 0, 0)"><path d="M27.1131892,-88.9075431L45.6630126,-88.8266037" /></g>
<g stroke="rgb(0, 0, 0)"><path d="M45.6630126,-88.8266037L45.5820732,-70.2767803" /></g>
<g stroke="rgb(0, 0, 0)"><path d="M45.5820732,-70.2767803L27.0322498,-70.3577197" /></g>
<g stroke="rgb(0, 0, 0)"><path d="M27.0322498,-70.3577197L27.1131892,-88.9075431" /></g>
<g stroke="rgb(0, 0, 0)"><path d="M46.5786131,-184.0735154L65.1284365,-183.992576" /></g>
<g stroke="rgb(0, 0, 0)"><path d="M65.1284365,-183.992576L65.0474971,-165.4427526" /></g>
<g stroke="rgb(0, 0, 0)"><path d="M65.0474971,-165.4427526L46.4976737,-165.523692" /></g>
<g stroke="rgb(0, 0, 0)"><path d="M46.4976737,-165.523692L46.5786131,-184.0735154" /></g>
<g stroke="rgb(0, 0, 0)"><path d="M46.495492,-165.0236967L65.0453154,-164.9427573" /></g>
<g stroke="rgb(0, 0, 0)"><path d="M65.0453154,-164.9427573L64.964376,-146.3929339" /></g>
<g stroke="rgb(0, 0, 0)"><path d="M64.964376,-146.3929339L46.4145526,-146.4738733" /></g>
<g stroke="rgb(0, 0, 0)"><path d="M46.4145526,-146.4738733L46.495492,-165.0236967" /></g>
<g stroke="rgb(0, 0, 0)"><path d="M46.412371,-145.973878L64.9621944,-145.8929386" /></g>
<g stroke="rgb(0, 0, 0)"><path d="M64.9621944,-145.8929386L64.881255,-127.3431152" /></g>
<g stroke="rgb(0, 0, 0)"><path d="M64.881255,-127.3431152L46.3314316,-127.4240546" /></g>
<g stroke="rgb(0, 0, 0)"><path d="M46.3314316,-127.4240546L46.412371,-145.973878" /></g>
<g stroke="rgb(0, 0, 0)"><path d="M46.32925,-126.9240594L64.8790734,-126.84312" /></g>
<g stroke="rgb(0, 0, 0)"><path d="M64.8790734,-126.84312L64.798134,-108.2932966" /></g>
<g stroke="rgb(0, 0, 0)"><path d="M64.798134,-108.2932966L46.2483106,-108.374236" /></g>
<g stroke="rgb(0, 0, 0)"><path d="M46.2483106,-108.374236L46.32925,-126.9240594" /></g>
<g stroke="rgb(0, 0, 0)"><path d="M46.2461289,-107.8742407L64.7959523,-107.7933013" /></g>
<g stroke="rgb(0, 0, 0)"><path d="M64.7959523,-107.7933013L64.7150129,-89.2434779" /></g>
<g stroke="rgb(0, 0, 0)"><path d="M64.7150129,-89.2434779L46.1651895,-89.3244173" /></g>
<g stroke="rgb(0, 0, 0)"><path d="M46.1651895,-89.3244173L46.2461289,-107.8742407" /></g>
<g stroke="rgb(0, 0, 0)"><path d="M65.6585186,-181.8304493L84.2069294,-182.0732613" /></g>
<g stroke="rgb(0, 0, 0)"><path d="M84.2069294,-182.0732613L84.4497414,-163.5248505" /></g>
<g stroke="rgb(0, 0, 0)"><path d="M84.4497414,-163.5248505L65.9013306,-163.2820385" /></g>
<g stroke="rgb(0, 0, 0)"><path d="M65.9013306,-163.2820385L65.6585186,-181.8304493" /></g>
<g stroke="rgb(0, 0, 0)"><path d="M65.9078753,-162.7820813L84.4562861,-163.0248933" /></g>
<g stroke="rgb(0, 0, 0)"><path d="M84.4562861,-163.0248933L84.6990981,-144.4764825" /></g>
<g stroke="rgb(0, 0, 0)"><path d="M84.6990981,-144.4764825L66.1506873,-144.2336705" /></g>
<g stroke="rgb(0, 0, 0)"><path d="M66.1506873,-144.2336705L65.9078753,-162.7820813" /></g>
<g stroke="rgb(0, 0, 0)"><path d="M66.3572149,-143.7363313L84.9056257,-143.9791433" /></g>
<g stroke="rgb(0, 0, 0)"><path d="M84.9056257,-143.9791433L85.1484377,-125.4307325" /></g>
<g stroke="rgb(0, 0, 0)"><path d="M85.1484377,-125.4307325L66.6000269,-125.1879205" /></g>
<g stroke="rgb(0, 0, 0)"><path d="M66.6000269,-125.1879205L66.3572149,-143.7363313" /></g>
<g stroke="rgb(0, 0, 0)"><path d="M66.8065545,-124.6905813L85.3549653,-124.9333933" /></g>
<g stroke="rgb(0, 0, 0)"><path d="M85.3549653,-124.9333933L85.5977773,-106.3849825" /></g>
<g stroke="rgb(0, 0, 0)"><path d="M85.5977773,-106.3849825L67.0493665,-106.1421705" /></g>
<g stroke="rgb(0, 0, 0)"><path d="M67.0493665,-106.1421705L66.8065545,-124.6905813" /></g>
<g stroke="rgb(0, 0, 0)"><path d="M67.0559112,-105.6422134L85.604322,-105.8850254" /></g>
<g stroke="rgb(0, 0, 0)"><path d="M85.604322,-105.8850254L85.847134,-87.3366146" /></g>
<g stroke="rgb(0, 0, 0)"><path d="M85.847134,-87.3366146L67.2987232,-87.0938026" /></g>
<g stroke="rgb(0, 0, 0)"><path d="M67.2987232,-87.0938026L67.0559112,-105.6422134" /></g>
<g stroke="rgb(0, 0, 0)"><path d="M67.5052508,-86.5964634L86.0536616,-86.8392754" /></g>
<g stroke="rgb(0, 0, 0)"><path d="M86.0536616,-86.8392754L86.2964736,-68.2908646" /></g>
<g stroke="rgb(0, 0, 0)"><path d="M86.2964736,-68.2908646L67.7480628,-68.0480526" /></g>
<g stroke="rgb(0, 0, 0)"><path d="M67.7480628,-68.0480526L67.5052508,-86.5964634" /></g>
<g stroke="rgb(0, 0, 0)"><path d="M84.7614993,-180.9241191L103.3028474,-181.4906086" /></g>
<g stroke="rgb(0, 0, 0)"><path d="M103.3028474,-181.4906086L103.8693369,-162.9492605" /></g>
<g stroke="rgb(0, 0, 0)"><path d="M103.8693369,-162.9492605L85.3279888,-162.382771" /></g>
<g stroke="rgb(0, 0, 0)"><path d="M85.3279888,-162.382771L84.7614993,-180.9241191" /></g>
<g stroke="rgb(0, 0, 0)"><path d="M85.3432579,-161.8830041L103.884606,-162.4494936" /></g>
<g stroke="rgb(0, 0, 0)"><path d="M103.884606,-162.4494936L104.4510955,-143.9081455" /></g>
<g stroke="rgb(0, 0, 0)"><path d="M104.4510955,-143.9081455L85.9097474,-143.341656" /></g>
<g stroke="rgb(0, 0, 0)"><path d="M85.9097474,-143.341656L85.3432579,-161.8830041" /></g>
<g stroke="rgb(0, 0, 0)"><path d="M86.32483,-142.8541046L104.8661781,-143.4205941" /></g>
<g stroke="rgb(0, 0, 0)"><path d="M104.8661781,-143.4205941L105.4326676,-124.879246" /></g>
<g stroke="rgb(0, 0, 0)"><path d="M105.4326676,-124.879246L86.8913195,-124.3127565" /></g>
<g stroke="rgb(0, 0, 0)"><path d="M86.8913195,-124.3127565L86.32483,-142.8541046" /></g>
<g stroke="rgb(0, 0, 0)"><path d="M87.3064021,-123.825205L105.8477502,-124.3916945" /></g>
<g stroke="rgb(0, 0, 0)"><path d="M105.8477502,-124.3916945L106.4142397,-105.8503464" /></g>
<g stroke="rgb(0, 0, 0)"><path d="M106.4142397,-105.8503464L87.8728916,-105.2838569" /></g>
<g stroke="rgb(0, 0, 0)"><path d="M87.8728916,-105.2838569L87.3064021,-123.825205" /></g>
<g stroke="rgb(0, 0, 0)"><path d="M87.8881607,-104.7840901L106.4295088,-105.3505796" /></g>
<g stroke="rgb(0, 0, 0)"><path d="M106.4295088,-105.3505796L106.9959983,-86.8092315" /></g>
<g stroke="rgb(0, 0, 0)"><path d="M106.9959983,-86.8092315L88.4546502,-86.242742" /></g>
<g stroke="rgb(0, 0, 0)"><path d="M88.4546502,-86.242742L87.8881607,-104.7840901" /></g>
<g stroke="rgb(0, 0, 0)"><path d="M88.8697328,-85.7551905L107.4110809,-86.32168" /></g>
<g stroke="rgb(0, 0, 0)"><path d="M107.4110809,-86.32168L107.9775704,-67.7803319" /></g>
<g stroke="rgb(0, 0, 0)"><path d="M107.9775704,-67.7803319L89.4362223,-67.2138424" /></g>
<g stroke="rgb(0, 0, 0)"><path d="M89.4362223,-67.2138424L88.8697328,-85.7551905" /></g>
<g stroke="rgb(0, 0, 0)"><path d="M104.5303879,-163.3162178L123.0590254,-164.2062121" /></g>
<g stroke="rgb(0, 0, 0)"><path d="M123.0590254,-164.2062121L123.9490197,-145.6775746" /></g>
<g stroke="rgb(0, 0, 0)"><path d="M123.9490197,-145.6775746L105.4203822,-144.7875803" /></g>
<g stroke="rgb(0, 0, 0)"><path d="M105.4203822,-144.7875803L104.5303879,-163.3162178" /></g>
<g stroke="rgb(0, 0, 0)"><path d="M105.644141,-144.2977517L124.1727785,-145.187746" /></g>
<g stroke="rgb(0, 0, 0)"><path d="M124.1727785,-145.187746L125.0627728,-126.6591085" /></g>
<g stroke="rgb(0, 0, 0)"><path d="M125.0627728,-126.6591085L106.5341353,-125.7691142" /></g>
<g stroke="rgb(0, 0, 0)"><path d="M106.5341353,-125.7691142L105.644141,-144.2977517" /></g>
<g stroke="rgb(0, 0, 0)"><path d="M106.757894,-125.2792857L125.2865315,-126.16928" /></g>
<g stroke="rgb(0, 0, 0)"><path d="M125.2865315,-126.16928L126.1765258,-107.6406425" /></g>
<g stroke="rgb(0, 0, 0)"><path d="M126.1765258,-107.6406425L107.6478883,-106.7506482" /></g>
<g stroke="rgb(0, 0, 0)"><path d="M107.6478883,-106.7506482L106.757894,-125.2792857" /></g>
<g stroke="rgb(0, 0, 0)"><path d="M107.6718774,-106.2512239L126.2005149,-107.1412182" /></g>
<g stroke="rgb(0, 0, 0)"><path d="M126.2005149,-107.1412182L127.0905092,-88.6125807" /></g>
<g stroke="rgb(0, 0, 0)"><path d="M127.0905092,-88.6125807L108.5618717,-87.7225864" /></g>
<g stroke="rgb(0, 0, 0)"><path d="M108.5618717,-87.7225864L107.6718774,-106.2512239" /></g>
<g stroke="rgb(0, 0, 0)"><path d="M108.7856305,-87.2327578L127.314268,-88.1227521" /></g>
<g stroke="rgb(0, 0, 0)"><path d="M127.314268,-88.1227521L128.2042623,-69.5941146" /></g>
<g stroke="rgb(0, 0, 0)"><path d="M128.2042623,-69.5941146L109.6756248,-68.7041203" /></g>
<g stroke="rgb(0, 0, 0)"><path d="M109.6756248,-68.7041203L108.7856305,-87.2327578" /></g>
<g stroke="rgb(0, 0, 0)"><path d="M122.8322415,-183.5175707L141.360879,-184.407565" /></g>
<g stroke="rgb(0, 0, 0)"><path d="M141.360879,-184.407565L142.2508733,-165.8789275" /></g>
<g stroke="rgb(0, 0, 0)"><path d="M142.2508733,-165.8789275L123.7222358,-164.9889332" /></g>
<g stroke="rgb(0, 0, 0)"><path d="M123.7222358,-164.9889332L122.8322415,-183.5175707" /></g>
<g stroke="rgb(0, 0, 0)"><path d="M123.7462249,-164.489509L142.2748624,-165.3795033" /></g>
<g stroke="rgb(0, 0, 0)"><path d="M142.2748624,-165.3795033L143.1648567,-146.8508658" /></g>
<g stroke="rgb(0, 0, 0)"><path d="M143.1648567,-146.8508658L124.6362192,-145.9608715" /></g>
<g stroke="rgb(0, 0, 0)"><path d="M124.6362192,-145.9608715L123.7462249,-164.489509" /></g>
<g stroke="rgb(0, 0, 0)"><path d="M124.6602083,-145.4614472L143.1888458,-146.3514415" /></g>
<g stroke="rgb(0, 0, 0)"><path d="M143.1888458,-146.3514415L144.0788401,-127.822804" /></g>
<g stroke="rgb(0, 0, 0)"><path d="M144.0788401,-127.822804L125.5502026,-126.9328097" /></g>
<g stroke="rgb(0, 0, 0)"><path d="M125.5502026,-126.9328097L124.6602083,-145.4614472" /></g>
<g stroke="rgb(0, 0, 0)"><path d="M125.5741916,-126.4333855L144.1028291,-127.3233798" /></g>
<g stroke="rgb(0, 0, 0)"><path d="M144.1028291,-127.3233798L144.9928234,-108.7947423" /></g>
<g stroke="rgb(0, 0, 0)"><path d="M144.9928234,-108.7947423L126.4641859,-107.904748" /></g>
<g stroke="rgb(0, 0, 0)"><path d="M126.4641859,-107.904748L125.5741916,-126.4333855" /></g>
<g stroke="rgb(0, 0, 0)"><path d="M126.488175,-107.4053238L145.0168125,-108.2953181" /></g>
<g stroke="rgb(0, 0, 0)"><path d="M145.0168125,-108.2953181L145.9068068,-89.7666806" /></g>
<g stroke="rgb(0, 0, 0)"><path d="M145.9068068,-89.7666806L127.3781693,-88.8766863" /></g>
<g stroke="rgb(0, 0, 0)"><path d="M127.3781693,-88.8766863L126.488175,-107.4053238" /></g>
<g stroke="rgb(0, 0, 0)"><path d="M127.4021584,-88.3772621L145.9307959,-89.2672564" /></g>
<g stroke="rgb(0, 0, 0)"><path d="M145.9307959,-89.2672564L146.8207902,-70.7386189" /></g>
<g stroke="rgb(0, 0, 0)"><path d="M146.8207902,-70.7386189L128.2921527,-69.8486246" /></g>
<g stroke="rgb(0, 0, 0)"><path d="M128.2921527,-69.8486246L127.4021584,-88.3772621" /></g>
<g stroke="rgb(0, 0, 0)"><path d="M182.2449307,-184.5946897L200.7806293,-183.8664201" /></g>
<g stroke="rgb(0, 0, 0)"><path d="M200.7806293,-183.8664201L200.0523597,-165.3307215" /></g>
<g stroke="rgb(0, 0, 0)"><path d="M200.0523597,-165.3307215L181.5166611,-166.0589911" /></g>
<g stroke="rgb(0, 0, 0)"><path d="M181.5166611,-166.0589911L182.2449307,-184.5946897" /></g>
<g stroke="rgb(0, 0, 0)"><path d="M182.0965686,-165.5358206L200.6322672,-164.807551" /></g>
<g stroke="rgb(0, 0, 0)"><path d="M200.6322672,-164.807551L199.9039976,-146.2718524" /></g>
<g stroke="rgb(0, 0, 0)"><path d="M199.9039976,-146.2718524L181.368299,-147.000122" /></g>
<g stroke="rgb(0, 0, 0)"><path d="M181.368299,-147.000122L182.0965686,-165.5358206" /></g>
<g stroke="rgb(0, 0, 0)"><path d="M181.3486692,-146.5005074L199.8843678,-145.7722378" /></g>
<g stroke="rgb(0, 0, 0)"><path d="M199.8843678,-145.7722378L199.1560982,-127.2365392" /></g>
<g stroke="rgb(0, 0, 0)"><path d="M199.1560982,-127.2365392L180.6203996,-127.9648088" /></g>
<g stroke="rgb(0, 0, 0)"><path d="M180.6203996,-127.9648088L181.3486692,-146.5005074" /></g>
<g stroke="rgb(0, 0, 0)"><path d="M180.6007697,-127.4651942L199.1364683,-126.7369246" /></g>
<g stroke="rgb(0, 0, 0)"><path d="M199.1364683,-126.7369246L198.4081987,-108.201226" /></g>
<g stroke="rgb(0, 0, 0)"><path d="M198.4081987,-108.201226L179.8725001,-108.9294956" /></g>
<g stroke="rgb(0, 0, 0)"><path d="M179.8725001,-108.9294956L180.6007697,-127.4651942" /></g>
<g stroke="rgb(0, 0, 0)"><path d="M179.8528702,-108.429881L198.3885688,-107.7016114" /></g>
<g stroke="rgb(0, 0, 0)"><path d="M198.3885688,-107.7016114L197.6602992,-89.1659128" /></g>
<g stroke="rgb(0, 0, 0)"><path d="M197.6602992,-89.1659128L179.1246006,-89.8941824" /></g>
<g stroke="rgb(0, 0, 0)"><path d="M179.1246006,-89.8941824L179.8528702,-108.429881" /></g>
<g stroke="rgb(0, 0, 0)"><path d="M179.1049707,-89.3945678L197.6406693,-88.6662982" /></g>
<g stroke="rgb(0, 0, 0)"><path d="M197.6406693,-88.6662982L196.9123997,-70.1305996" /></g>
<g stroke="rgb(0, 0, 0)"><path d="M196.9123997,-70.1305996L178.3767011,-70.8588692" /></g>
<g stroke="rgb(0, 0, 0)"><path d="M178.3767011,-70.8588692L179.1049707,-89.3945678" /></g>
<g stroke="rgb(0, 0, 0)"><path d="M201.1220668,-164.5381139L219.6577654,-163.8098443" /></g>
<g stroke="rgb(0, 0, 0)"><path d="M219.6577654,-163.8098443L218.9294958,-145.2741457" /></g>
<g stroke="rgb(0, 0, 0)"><path d="M218.9294958,-145.2741457L200.3937972,-146.0024153" /></g>
<g stroke="rgb(0, 0, 0)"><path d="M200.3937972,-146.0024153L201.1220668,-164.5381139" /></g>
<g stroke="rgb(0, 0, 0)"><path d="M200.3741674,-145.5028007L218.909866,-144.7745311" /></g>
<g stroke="rgb(0, 0, 0)"><path d="M218.909866,-144.7745311L218.1815964,-126.2388325" /></g>
<g stroke="rgb(0, 0, 0)"><path d="M218.1815964,-126.2388325L199.6458978,-126.9671021" /></g>
<g stroke="rgb(0, 0, 0)"><path d="M199.6458978,-126.9671021L200.3741674,-145.5028007" /></g>
<g stroke="rgb(0, 0, 0)"><path d="M199.6262679,-126.4674875L218.1619665,-125.7392179" /></g>
<g stroke="rgb(0, 0, 0)"><path d="M218.1619665,-125.7392179L217.4336969,-107.2035193" /></g>
<g stroke="rgb(0, 0, 0)"><path d="M217.4336969,-107.2035193L198.8979983,-107.9317889" /></g>
<g stroke="rgb(0, 0, 0)"><path d="M198.8979983,-107.9317889L199.6262679,-126.4674875" /></g>
<g stroke="rgb(0, 0, 0)"><path d="M198.8783684,-107.4321743L217.414067,-106.7039047" /></g>
<g stroke="rgb(0, 0, 0)"><path d="M217.414067,-106.7039047L216.6857974,-88.1682061" /></g>
<g stroke="rgb(0, 0, 0)"><path d="M216.6857974,-88.1682061L198.1500988,-88.8964757" /></g>
<g stroke="rgb(0, 0, 0)"><path d="M198.1500988,-88.8964757L198.8783684,-107.4321743" /></g>
<g stroke="rgb(0, 0, 0)"><path d="M198.1304689,-88.3968611L216.6661675,-87.6685915" /></g>
<g stroke="rgb(0, 0, 0)"><path d="M216.6661675,-87.6685915L215.9378979,-69.1328929" /></g>
<g stroke="rgb(0, 0, 0)"><path d="M215.9378979,-69.1328929L197.4021993,-69.8611625" /></g>
<g stroke="rgb(0, 0, 0)"><path d="M197.4021993,-69.8611625L198.1304689,-88.3968611" /></g>
<g stroke="rgb(0, 0, 0)"><path d="M220.8992268,-181.6650773L239.4448124,-181.2604111" /></g>
<g stroke="rgb(0, 0, 0)"><path d="M239.4448124,-181.2604111L239.0401462,-162.7148255" /></g>
<g stroke="rgb(0, 0, 0)"><path d="M239.0401462,-162.7148255L220.4945606,-163.1194917" /></g>
<g stroke="rgb(0, 0, 0)"><path d="M220.4945606,-163.1194917L220.8992268,-181.6650773" /></g>
<g stroke="rgb(0, 0, 0)"><path d="M220.6836056,-162.6152476L239.2291912,-162.2105814" /></g>
<g stroke="rgb(0, 0, 0)"><path d="M239.2291912,-162.2105814L238.824525,-143.6649958" /></g>
<g stroke="rgb(0, 0, 0)"><path d="M238.824525,-143.6649958L220.2789394,-144.069662" /></g>
<g stroke="rgb(0, 0, 0)"><path d="M220.2789394,-144.069662L220.6836056,-162.6152476" /></g>
<g stroke="rgb(0, 0, 0)"><path d="M220.4679845,-143.565418L239.0135701,-143.1607518" /></g>
<g stroke="rgb(0, 0, 0)"><path d="M239.0135701,-143.1607518L238.6089039,-124.6151662" /></g>
<g stroke="rgb(0, 0, 0)"><path d="M238.6089039,-124.6151662L220.0633183,-125.0198324" /></g>
<g stroke="rgb(0, 0, 0)"><path d="M220.0633183,-125.0198324L220.4679845,-143.565418" /></g>
<g stroke="rgb(0, 0, 0)"><path d="M220.2523633,-124.5155884L238.7979489,-124.1109222" /></g>
<g stroke="rgb(0, 0, 0)"><path d="M238.7979489,-124.1109222L238.3932827,-105.5653366" /></g>
<g stroke="rgb(0, 0, 0)"><path d="M238.3932827,-105.5653366L219.8476971,-105.9700028" /></g>
<g stroke="rgb(0, 0, 0)"><path d="M219.8476971,-105.9700028L220.2523633,-124.5155884" /></g>
<g stroke="rgb(0, 0, 0)"><path d="M220.0367422,-105.4657588L238.5823278,-105.0610926" /></g>
<g stroke="rgb(0, 0, 0)"><path d="M238.5823278,-105.0610926L238.1776616,-86.515507" /></g>
<g stroke="rgb(0, 0, 0)"><path d="M238.1776616,-86.515507L219.632076,-86.9201732" /></g>
<g stroke="rgb(0, 0, 0)"><path d="M219.632076,-86.9201732L220.0367422,-105.4657588" /></g>
<g stroke="rgb(0, 0, 0)"><path d="M219.821121,-86.4159292L238.3667066,-86.011263" /></g>
<g stroke="rgb(0, 0, 0)"><path d="M238.3667066,-86.011263L237.9620404,-67.4656774" /></g>
<g stroke="rgb(0, 0, 0)"><path d="M237.9620404,-67.4656774L219.4164548,-67.8703436" /></g>
<g stroke="rgb(0, 0, 0)"><path d="M219.4164548,-67.8703436L219.821121,-86.4159292" /></g>
<g stroke="rgb(0, 0, 0)"><path d="M239.8025717,-182.0930116L258.3523951,-182.0120722" /></g>
<g stroke="rgb(0, 0, 0)"><path d="M258.3523951,-182.0120722L258.2714557,-163.4622488" /></g>
<g stroke="rgb(0, 0, 0)"><path d="M258.2714557,-163.4622488L239.7216323,-163.5431882" /></g>
<g stroke="rgb(0, 0, 0)"><path d="M239.7216323,-163.5431882L239.8025717,-182.0930116" /></g>
<g stroke="rgb(0, 0, 0)"><path d="M239.9194487,-163.0423203L258.4692721,-162.9613809" /></g>
<g stroke="rgb(0, 0, 0)"><path d="M258.4692721,-162.9613809L258.3883327,-144.4115575" /></g>
<g stroke="rgb(0, 0, 0)"><path d="M258.3883327,-144.4115575L239.8385093,-144.4924969" /></g>
<g stroke="rgb(0, 0, 0)"><path d="M239.8385093,-144.4924969L239.9194487,-163.0423203" /></g>
<g stroke="rgb(0, 0, 0)"><path d="M240.0363258,-143.991629L258.5861492,-143.9106896" /></g>
<g stroke="rgb(0, 0, 0)"><path d="M258.5861492,-143.9106896L258.5052098,-125.3608662" /></g>
<g stroke="rgb(0, 0, 0)"><path d="M258.5052098,-125.3608662L239.9553864,-125.4418056" /></g>
<g stroke="rgb(0, 0, 0)"><path d="M239.9553864,-125.4418056L240.0363258,-143.991629" /></g>
<g stroke="rgb(0, 0, 0)"><path d="M240.1532029,-124.9409376L258.7030263,-124.8599982" /></g>
<g stroke="rgb(0, 0, 0)"><path d="M258.7030263,-124.8599982L258.6220869,-106.3101748" /></g>
<g stroke="rgb(0, 0, 0)"><path d="M258.6220869,-106.3101748L240.0722635,-106.3911142" /></g>
<g stroke="rgb(0, 0, 0)"><path d="M240.0722635,-106.3911142L240.1532029,-124.9409376" /></g>
<g stroke="rgb(0, 0, 0)"><path d="M240.2700799,-105.8902463L258.8199033,-105.8093069" /></g>
<g stroke="rgb(0, 0, 0)"><path d="M258.8199033,-105.8093069L258.7389639,-87.2594835" /></g>
<g stroke="rgb(0, 0, 0)"><path d="M258.7389639,-87.2594835L240.1891405,-87.3404229" /></g>
<g stroke="rgb(0, 0, 0)"><path d="M240.1891405,-87.3404229L240.2700799,-105.8902463" /></g>
<g stroke="rgb(0, 0, 0)"><path d="M240.386957,-86.839555L258.9367804,-86.7586156" /></g>
<g stroke="rgb(0, 0, 0)"><path d="M258.9367804,-86.7586156L258.855841,-68.2087922" /></g>
<g stroke="rgb(0, 0, 0)"><path d="M258.855841,-68.2087922L240.3060176,-68.2897316" /></g>
<g stroke="rgb(0, 0, 0)"><path d="M240.3060176,-68.2897316L240.386957,-86.839555" /></g>
<g stroke="rgb(0, 0, 0)"><path d="M258.6999323,-183.8507801L277.2483431,-184.0935921" /></g>
<g stroke="rgb(0, 0, 0)"><path d="M277.2483431,-184.0935921L277.4911551,-165.5451813" /></g>
<g stroke="rgb(0, 0, 0)"><path d="M277.4911551,-165.5451813L258.9427443,-165.3023693" /></g>
<g stroke="rgb(0, 0, 0)"><path d="M258.9427443,-165.3023693L258.6999323,-183.8507801" /></g>
<g stroke="rgb(0, 0, 0)"><path d="M259.1492719,-164.8050301L277.6976827,-165.0478421" /></g>
<g stroke="rgb(0, 0, 0)"><path d="M277.6976827,-165.0478421L277.9404947,-146.4994313" /></g>
<g stroke="rgb(0, 0, 0)"><path d="M277.9404947,-146.4994313L259.3920839,-146.2566193" /></g>
<g stroke="rgb(0, 0, 0)"><path d="M259.3920839,-146.2566193L259.1492719,-164.8050301" /></g>
<g stroke="rgb(0, 0, 0)"><path d="M259.5986115,-145.7592801L278.1470223,-146.0020921" /></g>
<g stroke="rgb(0, 0, 0)"><path d="M278.1470223,-146.0020921L278.3898343,-127.4536813" /></g>
<g stroke="rgb(0, 0, 0)"><path d="M278.3898343,-127.4536813L259.8414235,-127.2108693" /></g>
<g stroke="rgb(0, 0, 0)"><path d="M259.8414235,-127.2108693L259.5986115,-145.7592801" /></g>
<g stroke="rgb(0, 0, 0)"><path d="M260.047951,-126.7135301L278.5963618,-126.9563421" /></g>
<g stroke="rgb(0, 0, 0)"><path d="M278.5963618,-126.9563421L278.8391738,-108.4079313" /></g>
<g stroke="rgb(0, 0, 0)"><path d="M278.8391738,-108.4079313L260.290763,-108.1651193" /></g>
<g stroke="rgb(0, 0, 0)"><path d="M260.290763,-108.1651193L260.047951,-126.7135301" /></g>
<g stroke="rgb(0, 0, 0)"><path d="M260.4972906,-107.6677801L279.0457014,-107.9105921" /></g>
<g stroke="rgb(0, 0, 0)"><path d="M279.0457014,-107.9105921L279.2885134,-89.3621813" /></g>
<g stroke="rgb(0, 0, 0)"><path d="M279.2885134,-89.3621813L260.7401026,-89.1193693" /></g>
<g stroke="rgb(0, 0, 0)"><path d="M260.7401026,-89.1193693L260.4972906,-107.6677801" /></g>
<g stroke="rgb(0, 0, 0)"><path d="M277.4293159,-183.97375L295.9729593,-184.4593324" /></g>
<g stroke="rgb(0, 0, 0)"><path d="M295.9729593,-184.4593324L296.4585417,-165.915689" /></g>
<g stroke="rgb(0, 0, 0)"><path d="M296.4585417,-165.915689L277.9148983,-165.4301066" /></g>
<g stroke="rgb(0, 0, 0)"><path d="M277.9148983,-165.4301066L277.4293159,-183.97375" /></g>
<g stroke="rgb(0, 0, 0)"><path d="M283.2886492,-165.0706519L301.8322926,-165.5562343" /></g>
<g stroke="rgb(0, 0, 0)"><path d="M301.8322926,-165.5562343L302.317875,-147.0125909" /></g>
<g stroke="rgb(0, 0, 0)"><path d="M302.317875,-147.0125909L283.7742316,-146.5270085" /></g>
<g stroke="rgb(0, 0, 0)"><path d="M283.7742316,-146.5270085L283.2886492,-165.0706519" /></g>
<g stroke="rgb(0, 0, 0)"><path d="M278.4266577,-145.886806L296.9703011,-146.3723884" /></g>
<g stroke="rgb(0, 0, 0)"><path d="M296.9703011,-146.3723884L297.4558835,-127.828745" /></g>
<g stroke="rgb(0, 0, 0)"><path d="M297.4558835,-127.828745L278.9122401,-127.3431626" /></g>
<g stroke="rgb(0, 0, 0)"><path d="M278.9122401,-127.3431626L278.4266577,-145.886806" /></g>
<g stroke="rgb(0, 0, 0)"><path d="M278.9253286,-126.8433339L297.468972,-127.3289163" /></g>
<g stroke="rgb(0, 0, 0)"><path d="M297.468972,-127.3289163L297.9545544,-108.7852729" /></g>
<g stroke="rgb(0, 0, 0)"><path d="M297.9545544,-108.7852729L279.410911,-108.2996905" /></g>
<g stroke="rgb(0, 0, 0)"><path d="M279.410911,-108.2996905L278.9253286,-126.8433339" /></g>
<g stroke="rgb(0, 0, 0)"><path d="M279.4239995,-107.7998619L297.9676429,-108.2854443" /></g>
<g stroke="rgb(0, 0, 0)"><path d="M297.9676429,-108.2854443L298.4532253,-89.7418009" /></g>
<g stroke="rgb(0, 0, 0)"><path d="M298.4532253,-89.7418009L279.9095819,-89.2562185" /></g>
<g stroke="rgb(0, 0, 0)"><path d="M279.9095819,-89.2562185L279.4239995,-107.7998619" /></g>
<g stroke="rgb(0, 0, 0)"><path d="M279.9226704,-88.7563899L298.4663138,-89.2419723" /></g>
<g stroke="rgb(0, 0, 0)"><path d="M298.4663138,-89.2419723L298.9518962,-70.6983289" /></g>
<g stroke="rgb(0, 0, 0)"><path d="M298.9518962,-70.6983289L280.4082528,-70.2127465" /></g>
<g stroke="rgb(0, 0, 0)"><path d="M280.4082528,-70.2127465L279.9226704,-88.7563899" /></g>
<g stroke="rgb(0, 0, 0)"><path d="M302.8307922,-146.5258508L321.3744356,-147.0114332" /></g>
<g stroke="rgb(0, 0, 0)"><path d="M321.3744356,-147.0114332L321.860018,-128.4677898" /></g>
<g stroke="rgb(0, 0, 0)"><path d="M321.860018,-128.4677898L303.3163746,-127.9822074" /></g>
<g stroke="rgb(0, 0, 0)"><path d="M303.3163746,-127.9822074L302.8307922,-146.5258508" /></g>
<g stroke="rgb(0, 0, 0)"><path d="M297.9688006,-127.3420048L316.512444,-127.8275872" /></g>
<g stroke="rgb(0, 0, 0)"><path d="M316.512444,-127.8275872L316.9980264,-109.2839438" /></g>
<g stroke="rgb(0, 0, 0)"><path d="M316.9980264,-109.2839438L298.454383,-108.7983614" /></g>
<g stroke="rgb(0, 0, 0)"><path d="M298.454383,-108.7983614L297.9688006,-127.3420048" /></g>
<g stroke="rgb(0, 0, 0)"><path d="M298.4674715,-108.2985328L317.0111149,-108.7841152" /></g>
<g stroke="rgb(0, 0, 0)"><path d="M317.0111149,-108.7841152L317.4966973,-90.2404718" /></g>
<g stroke="rgb(0, 0, 0)"><path d="M317.4966973,-90.2404718L298.9530539,-89.7548894" /></g>
<g stroke="rgb(0, 0, 0)"><path d="M298.9530539,-89.7548894L298.4674715,-108.2985328" /></g>
<g stroke="rgb(0, 0, 0)"><path d="M298.9661424,-89.2550608L317.5097858,-89.7406432" /></g>
<g stroke="rgb(0, 0, 0)"><path d="M317.5097858,-89.7406432L317.9953682,-71.1969998" /></g>
<g stroke="rgb(0, 0, 0)"><path d="M317.9953682,-71.1969998L299.4517248,-70.7114174" /></g>
<g stroke="rgb(0, 0, 0)"><path d="M299.4517248,-70.7114174L298.9661424,-89.2550608" /></g>
<g stroke="rgb(0, 0, 0)"><path d="M317.0122727,-127.8406758L335.5559161,-128.3262582" /></g>
<g stroke="rgb(0, 0, 0)"><path d="M335.5559161,-128.3262582L336.0414985,-109.7826148" /></g>
<g stroke="rgb(0, 0, 0)"><path d="M336.0414985,-109.7826148L317.4978551,-109.2970324" /></g>
<g stroke="rgb(0, 0, 0)"><path d="M317.4978551,-109.2970324L317.0122727,-127.8406758" /></g>
<g stroke="rgb(0, 0, 0)"><path d="M322.871606,-108.9375777L341.4152494,-109.4231601" /></g>
<g stroke="rgb(0, 0, 0)"><path d="M341.4152494,-109.4231601L341.9008318,-90.8795167" /></g>
<g stroke="rgb(0, 0, 0)"><path d="M341.9008318,-90.8795167L323.3571884,-90.3939343" /></g>
<g stroke="rgb(0, 0, 0)"><path d="M323.3571884,-90.3939343L322.871606,-108.9375777" /></g>
<g stroke="rgb(0, 0, 0)"><path d="M318.0096144,-89.7537317L336.5532578,-90.2393141" /></g>
<g stroke="rgb(0, 0, 0)"><path d="M336.5532578,-90.2393141L337.0388402,-71.6956707" /></g>
<g stroke="rgb(0, 0, 0)"><path d="M337.0388402,-71.6956707L318.4951968,-71.2100883" /></g>
<g stroke="rgb(0, 0, 0)"><path d="M318.4951968,-71.2100883L318.0096144,-89.7537317" /></g>
<g stroke="rgb(0, 0, 0)"><path d="M337.0530866,-90.2524024L355.59673,-90.7379848" /></g>
<g stroke="rgb(0, 0, 0)"><path d="M355.59673,-90.7379848L356.0823124,-72.1943414" /></g>
<g stroke="rgb(0, 0, 0)"><path d="M356.0823124,-72.1943414L337.538669,-71.708759" /></g>
<g stroke="rgb(0, 0, 0)"><path d="M337.538669,-71.708759L337.0530866,-90.2524024" /></g>
<g stroke="rgb(0, 0, 0)"><path d="M337.8282726,-198.6266652L350.4200264,-185.0049826" /></g>
<g stroke="rgb(0, 0, 0)"><path d="M350.4200264,-185.0049826L336.7983438,-172.4132288" /></g>
<g stroke="rgb(0, 0, 0)"><path d="M336.7983438,-172.4132288L324.20659,-186.0349114" /></g>
<g stroke="rgb(0, 0, 0)"><path d="M324.20659,-186.0349114L337.8282726,-198.6266652" /></g>
<g stroke="rgb(0, 0, 0)"><path d="M323.8394288,-185.695511L336.4311826,-172.0738284" /></g>
<g stroke="rgb(0, 0, 0)"><path d="M336.4311826,-172.0738284L322.8095,-159.4820746" /></g>
<g stroke="rgb(0, 0, 0)"><path d="M322.8095,-159.4820746L310.2177462,-173.1037572" /></g>
<g stroke="rgb(0, 0, 0)"><path d="M310.2177462,-173.1037572L323.8394288,-185.695511" /></g>
<g stroke="rgb(0, 0, 0)"><path d="M350.7594268,-184.6378214L363.3511806,-171.0161388" /></g>
<g stroke="rgb(0, 0, 0)"><path d="M363.3511806,-171.0161388L349.729498,-158.424385" /></g>
<g stroke="rgb(0, 0, 0)"><path d="M349.729498,-158.424385L337.1377442,-172.0460676" /></g>
<g stroke="rgb(0, 0, 0)"><path d="M337.1377442,-172.0460676L350.7594268,-184.6378214" /></g>
<g stroke="rgb(0, 0, 0)"><path d="M336.770583,-171.7066672L349.3623368,-158.0849846" /></g>
<g stroke="rgb(0, 0, 0)"><path d="M349.3623368,-158.0849846L335.7406542,-145.4932308" /></g>
<g stroke="rgb(0, 0, 0)"><path d="M335.7406542,-145.4932308L323.1489004,-159.1149134" /></g>
<g stroke="rgb(0, 0, 0)"><path d="M323.1489004,-159.1149134L336.770583,-171.7066672" /></g>
<g stroke="rgb(0, 0, 0)"><path d="M366.9233695,-167.1517667L379.5151233,-153.5300841" /></g>
<g stroke="rgb(0, 0, 0)"><path d="M379.5151233,-153.5300841L365.8934407,-140.9383303" /></g>
<g stroke="rgb(0, 0, 0)"><path d="M365.8934407,-140.9383303L353.3016869,-154.5600129" /></g>
<g stroke="rgb(0, 0, 0)"><path d="M353.3016869,-154.5600129L366.9233695,-167.1517667" /></g>
<g stroke="rgb(0, 0, 0)"><path d="M352.9345257,-154.2206125L365.5262795,-140.5989299" /></g>
<g stroke="rgb(0, 0, 0)"><path d="M365.5262795,-140.5989299L351.9045969,-128.0071761" /></g>
<g stroke="rgb(0, 0, 0)"><path d="M351.9045969,-128.0071761L339.3128431,-141.6288587" /></g>
<g stroke="rgb(0, 0, 0)"><path d="M339.3128431,-141.6288587L352.9345257,-154.2206125" /></g>
<g stroke="rgb(0, 0, 0)"><path d="M379.8545238,-153.1629229L392.4462776,-139.5412403" /></g>
<g stroke="rgb(0, 0, 0)"><path d="M392.4462776,-139.5412403L378.824595,-126.9494865" /></g>
<g stroke="rgb(0, 0, 0)"><path d="M378.824595,-126.9494865L366.2328412,-140.5711691" /></g>
<g stroke="rgb(0, 0, 0)"><path d="M366.2328412,-140.5711691L379.8545238,-153.1629229" /></g>
<g stroke="rgb(0, 0, 0)"><path d="M365.86568,-140.2317687L378.4574338,-126.6100861" /></g>
<g stroke="rgb(0, 0, 0)"><path d="M378.4574338,-126.6100861L364.8357512,-114.0183323" /></g>
<g stroke="rgb(0, 0, 0)"><path d="M364.8357512,-114.0183323L352.2439974,-127.6400149" /></g>
<g stroke="rgb(0, 0, 0)"><path d="M352.2439974,-127.6400149L365.86568,-140.2317687" /></g>
<g stroke="rgb(0, 0, 0)"><path d="M365.1196238,-110.0438807L383.6632672,-110.5294631" /></g>
<g stroke="rgb(0, 0, 0)"><path d="M383.6632672,-110.5294631L384.1488496,-91.9858197" /></g>
<g stroke="rgb(0, 0, 0)"><path d="M384.1488496,-91.9858197L365.6052062,-91.5002373" /></g>
<g stroke="rgb(0, 0, 0)"><path d="M365.6052062,-91.5002373L365.1196238,-110.0438807" /></g>
<g stroke="rgb(0, 0, 0)"><path d="M365.6182947,-91.0004087L384.1619381,-91.4859911" /></g>
<g stroke="rgb(0, 0, 0)"><path d="M384.1619381,-91.4859911L384.6475205,-72.9423477" /></g>
<g stroke="rgb(0, 0, 0)"><path d="M384.6475205,-72.9423477L366.1038771,-72.4567653" /></g>
<g stroke="rgb(0, 0, 0)"><path d="M366.1038771,-72.4567653L365.6182947,-91.0004087" /></g>
<g stroke="rgb(0, 0, 0)"><path d="M384.1630958,-110.5425516L402.7067392,-111.028134" /></g>
<g stroke="rgb(0, 0, 0)"><path d="M402.7067392,-111.028134L403.1923216,-92.4844906" /></g>
<g stroke="rgb(0, 0, 0)"><path d="M403.1923216,-92.4844906L384.6486782,-91.9989082" /></g>
<g stroke="rgb(0, 0, 0)"><path d="M384.6486782,-91.9989082L384.1630958,-110.5425516" /></g>
<g stroke="rgb(0, 0, 0)"><path d="M384.6617667,-91.4990796L403.2054101,-91.984662" /></g>
<g stroke="rgb(0, 0, 0)"><path d="M403.2054101,-91.984662L403.6909925,-73.4410186" /></g>
<g stroke="rgb(0, 0, 0)"><path d="M403.6909925,-73.4410186L385.1473491,-72.9554362" /></g>
<g stroke="rgb(0, 0, 0)"><path d="M385.1473491,-72.9554362L384.6617667,-91.4990796" /></g>
  </g>
</svg>