<?xml version="1.0"?>
<svg
  xmlns="http://www.w3.org/2000/svg"
  xmlns:xlink="http://www.w3.org/1999/xlink" version="1.1"
  preserveAspectRatio="xMinYMin meet"
  viewBox="17.0887748 80.776505 385.2658975 144.82005800000002"
  width="100%" height="100%"
>
  <g stroke="#000000" stroke-width="0.1%" fill="none" transform="matrix(1,0,0,-1,0,0)">
    <g stroke="rgb(0, 0, 0)"><path d="M17.1456057,-129.9389626L27.84495,-86.0199604" /></g>
<g stroke="rgb(0, 0, 0)"><path d="M29.7706661,-84.4934225L40.6886578,-84.3981425" /></g>
<g stroke="rgb(0, 0, 0)"><path d="M40.7873594,-84.3948429L80.8104237,-82.0664811" /></g>
<g stroke="rgb(0, 0, 0)"><path d="M80.8508237,-82.0645405L101.7873952,-81.2709496" /></g>
<g stroke="rgb(0, 0, 0)"><path d="M102.0119244,-81.2750556L122.907326,-82.833727" /></g>
<g stroke="rgb(0, 0, 0)"><path d="M122.9473184,-82.8363076L148.0136669,-84.2017156" /></g>
<g stroke="rgb(0, 0, 0)"><path d="M149.226303,-84.697471L154.1542664,-89.0350253" /></g>
<g stroke="rgb(0, 0, 0)"><path d="M155.4767101,-89.5337409L170.8150567,-89.5258771" /></g>
<g stroke="rgb(0, 0, 0)"><path d="M172.1354496,-89.0271614L177.0671955,-84.6862779" /></g>
<g stroke="rgb(0, 0, 0)"><path d="M178.2729327,-84.1909102L202.819364,-82.7687521" /></g>
<g stroke="rgb(0, 0, 0)"><path d="M202.89262,-82.7631561L223.7340837,-80.7854493" /></g>
<g stroke="rgb(0, 0, 0)"><path d="M223.9584845,-80.7768194L244.9009871,-81.1482288" /></g>
<g stroke="rgb(0, 0, 0)"><path d="M244.9563615,-81.1499784L285.0234598,-82.9716709" /></g>
<g stroke="rgb(0, 0, 0)"><path d="M285.1055714,-82.9737159L400.3633989,-83.4766263" /></g>
<g stroke="rgb(0, 0, 0)"><path d="M402.3546533,-85.4853339L402.1392499,-134.8518003" /></g>
<g stroke="rgb(0, 0, 0)"><path d="M402.0946269,-135.2632821L396.5525618,-161.0522072" /></g>
<g stroke="rgb(0, 0, 0)"><path d="M338.8846568,-224.9412967L396.0776401,-161.9767324" /></g>
<g stroke="rgb(0, 0, 0)"><path d="M336.6951267,-225.4666395L298.370275,-210.9346591" /></g>
<g stroke="rgb(0, 0, 0)"><path d="M265.5454676,-210.6645844L297.6699077,-210.8047546" /></g>
<g stroke="rgb(0, 0, 0)"><path d="M265.3692214,-210.6560313L246.6922207,-208.9212273" /></g>
<g stroke="rgb(0, 0, 0)"><path d="M246.5098011,-208.9126568L215.4077184,-208.8729528" /></g>
<g stroke="rgb(0, 0, 0)"><path d="M215.0529598,-208.9042076L204.0801399,-210.8672289" /></g>
<g stroke="rgb(0, 0, 0)"><path d="M203.8770036,-210.8929222L166.5686221,-213.6814413" /></g>
<g stroke="rgb(0, 0, 0)"><path d="M166.4221312,-213.6870027L159.8710458,-213.6954479" /></g>
<g stroke="rgb(0, 0, 0)"><path d="M159.7193986,-213.6898865L122.3752781,-210.8986963" /></g>
<g stroke="rgb(0, 0, 0)"><path d="M122.2478887,-210.8850599L111.2294674,-209.3472291" /></g>
<g stroke="rgb(0, 0, 0)"><path d="M110.920509,-209.3282938L79.8140316,-209.8338414" /></g>
<g stroke="rgb(0, 0, 0)"><path d="M79.617762,-209.8467043L61.0076709,-211.9894801" /></g>
<g stroke="rgb(0, 0, 0)"><path d="M30.4560719,-212.2673065L60.7963543,-212.0025309" /></g>
<g stroke="rgb(0, 0, 0)"><path d="M28.7365087,-211.3175355L17.9307041,-193.8032564" /></g>
<g stroke="rgb(0, 0, 0)"><path d="M17.6328905,-192.7705566L17.088851,-130.4298014" /></g>
<g stroke="rgb(0, 0, 0)"><path d="M 29.770666098813763 -84.49342245326243 A 2 2 0 0 1 27.844950070575806 -86.01996049213643" /></g>
<g stroke="rgb(0, 0, 0)"><path d="M 40.68865780118623 -84.39814254673757 A 2 2 0 0 1 40.78735939782673 -84.3948428783079" /></g>
<g stroke="rgb(0, 0, 0)"><path d="M 80.85082369979905 -82.06454050481612 A 2 2 0 0 1 80.81042370217327 -82.0664811216921" /></g>
<g stroke="rgb(0, 0, 0)"><path d="M 102.01192440556632 -81.27505554689257 A 2 2 0 0 1 101.78739519979905 -81.27094960481612" /></g>
<g stroke="rgb(0, 0, 0)"><path d="M 122.90732599443368 -82.83372705310744 A 2 2 0 0 1 122.94731840004692 -82.83630761698039" /></g>
<g stroke="rgb(0, 0, 0)"><path d="M 149.22630294895222 -84.6974709458197 A 2 2 0 0 1 148.01366689995308 -84.20171558301962" /></g>
<g stroke="rgb(0, 0, 0)"><path d="M 154.15426645104776 -89.0350252541803 A 2 2 0 0 1 155.47671009834391 -89.53374093713954" /></g>
<g stroke="rgb(0, 0, 0)"><path d="M 170.81505669834394 -89.52587713713955 A 2 2 0 0 1 172.13544954895224 -89.0271614541803" /></g>
<g stroke="rgb(0, 0, 0)"><path d="M 178.27293269566937 -84.19091022651335 A 2 2 0 0 1 177.06719545104778 -84.6862778458197" /></g>
<g stroke="rgb(0, 0, 0)"><path d="M 202.81936400433065 -82.76875207348665 A 2 2 0 0 1 202.89262000943756 -82.76315610149727" /></g>
<g stroke="rgb(0, 0, 0)"><path d="M 223.95848450069178 -80.7768194450088 A 2 2 0 0 1 223.73408369056244 -80.78544929850273" /></g>
<g stroke="rgb(0, 0, 0)"><path d="M 244.95636150033192 -81.14997835964225 A 2 2 0 0 1 244.9009871006918 -81.1482288450088" /></g>
<g stroke="rgb(0, 0, 0)"><path d="M 285.0234597996681 -82.97167094035775 A 2 2 0 0 1 285.1055713988836 -82.97371586151762" /></g>
<g stroke="rgb(0, 0, 0)"><path d="M 402.3546532615176 -85.48533390111636 A 2 2 0 0 1 400.3633989011164 -83.47662633848238" /></g>
<g stroke="rgb(0, 0, 0)"><path d="M 402.0946268980494 -135.26328210004016 A 2 2 0 0 1 402.1392498615176 -134.85180030111636" /></g>
<g stroke="rgb(0, 0, 0)"><path d="M 396.07764003854464 -161.97673243295628 A 2 2 0 0 1 396.5525617980494 -161.05220720004016" /></g>
<g stroke="rgb(0, 0, 0)"><path d="M 336.69512678009227 -225.46663945687783 A 2 2 0 0 1 338.88465683854463 -224.94129663295627" /></g>
<g stroke="rgb(0, 0, 0)"><path d="M 298.3702749199077 -210.93465914312216 A 2 2 0 0 1 297.6699077011164 -210.80475463848236" /></g>
<g stroke="rgb(0, 0, 0)"><path d="M 265.3692213894814 -210.65603129459444 A 2 2 0 0 1 265.5454675988836 -210.66458436151763" /></g>
<g stroke="rgb(0, 0, 0)"><path d="M 246.6922207105186 -208.92122730540555 A 2 2 0 0 1 246.50980109958135 -208.9126568297077" /></g>
<g stroke="rgb(0, 0, 0)"><path d="M 215.40771839958134 -208.87295282970769 A 2 2 0 0 1 215.0529598004823 -208.90420760152136" /></g>
<g stroke="rgb(0, 0, 0)"><path d="M 203.87700360497098 -210.89292217083772 A 2 2 0 0 1 204.08013999951768 -210.86722889847863" /></g>
<g stroke="rgb(0, 0, 0)"><path d="M 166.42213119965697 -213.68700273822094 A 2 2 0 0 1 166.568622004971 -213.68144127083772" /></g>
<g stroke="rgb(0, 0, 0)"><path d="M 159.71939859502902 -213.6898864708377 A 2 2 0 0 1 159.87104579965697 -213.69544793822092" /></g>
<g stroke="rgb(0, 0, 0)"><path d="M 122.24788870752529 -210.88505993443812 A 2 2 0 0 1 122.37527809502902 -210.89869627083772" /></g>
<g stroke="rgb(0, 0, 0)"><path d="M 111.2294673924747 -209.34722916556188 A 2 2 0 0 1 110.92050899993502 -209.32829377993562" /></g>
<g stroke="rgb(0, 0, 0)"><path d="M 79.81403159993503 -209.83384137993562 A 2 2 0 0 1 79.61776199436154 -209.84670426240146" /></g>
<g stroke="rgb(0, 0, 0)"><path d="M 60.796354301186234 -212.00253094673758 A 2 2 0 0 1 61.00767090563846 -211.98948013759855" /></g>
<g stroke="rgb(0, 0, 0)"><path d="M 28.736508706884493 -211.3175354938792 A 2 2 0 0 1 30.456071901186238 -212.2673065467376" /></g>
<g stroke="rgb(0, 0, 0)"><path d="M 17.63289045326243 -192.77055660118623 A 2 2 0 0 1 17.93070410688449 -193.8032563938792" /></g>
<g stroke="rgb(0, 0, 0)"><path d="M 17.145605770575806 -129.93896259213645 A 2 2 0 0 1 17.08885095326243 -130.42980140118624" /></g>
<g stroke="rgb(0, 0, 0)"><path d="M34.8051363,-206.7041424L48.8046032,-206.5819709" /></g>
<g stroke="rgb(0, 0, 0)"><path d="M48.8046032,-206.5819709L48.6824317,-192.582504" /></g>
<g stroke="rgb(0, 0, 0)"><path d="M48.6824317,-192.582504L34.6829648,-192.7046755" /></g>
<g stroke="rgb(0, 0, 0)"><path d="M34.6829648,-192.7046755L34.8051363,-206.7041424" /></g>
<g stroke="rgb(0, 0, 0)"><path d="M29.3765962,-187.7007912L43.3760631,-187.5786197" /></g>
<g stroke="rgb(0, 0, 0)"><path d="M43.3760631,-187.5786197L43.2538916,-173.5791528" /></g>
<g stroke="rgb(0, 0, 0)"><path d="M43.2538916,-173.5791528L29.2544247,-173.7013243" /></g>
<g stroke="rgb(0, 0, 0)"><path d="M29.2544247,-173.7013243L29.3765962,-187.7007912" /></g>
<g stroke="rgb(0, 0, 0)"><path d="M29.2103557,-168.6515165L43.2098226,-168.529345" /></g>
<g stroke="rgb(0, 0, 0)"><path d="M43.2098226,-168.529345L43.0876511,-154.5298781" /></g>
<g stroke="rgb(0, 0, 0)"><path d="M43.0876511,-154.5298781L29.0881842,-154.6520496" /></g>
<g stroke="rgb(0, 0, 0)"><path d="M29.0881842,-154.6520496L29.2103557,-168.6515165" /></g>
<g stroke="rgb(0, 0, 0)"><path d="M29.0441152,-149.6022419L43.0435821,-149.4800704" /></g>
<g stroke="rgb(0, 0, 0)"><path d="M43.0435821,-149.4800704L42.9214106,-135.4806035" /></g>
<g stroke="rgb(0, 0, 0)"><path d="M42.9214106,-135.4806035L28.9219437,-135.602775" /></g>
<g stroke="rgb(0, 0, 0)"><path d="M28.9219437,-135.602775L29.0441152,-149.6022419" /></g>
<g stroke="rgb(0, 0, 0)"><path d="M34.1401743,-130.5070439L48.1396412,-130.3848724" /></g>
<g stroke="rgb(0, 0, 0)"><path d="M48.1396412,-130.3848724L48.0174697,-116.3854055" /></g>
<g stroke="rgb(0, 0, 0)"><path d="M48.0174697,-116.3854055L34.0180028,-116.507577" /></g>
<g stroke="rgb(0, 0, 0)"><path d="M34.0180028,-116.507577L34.1401743,-130.5070439" /></g>
<g stroke="rgb(0, 0, 0)"><path d="M33.9739338,-111.4577692L47.9734007,-111.3355977" /></g>
<g stroke="rgb(0, 0, 0)"><path d="M47.9734007,-111.3355977L47.8512292,-97.3361308" /></g>
<g stroke="rgb(0, 0, 0)"><path d="M47.8512292,-97.3361308L33.8517623,-97.4583023" /></g>
<g stroke="rgb(0, 0, 0)"><path d="M33.8517623,-97.4583023L33.9739338,-111.4577692" /></g>
<g stroke="rgb(0, 0, 0)"><path d="M53.854411,-206.5379019L67.8538779,-206.4157304" /></g>
<g stroke="rgb(0, 0, 0)"><path d="M67.8538779,-206.4157304L67.7317064,-192.4162635" /></g>
<g stroke="rgb(0, 0, 0)"><path d="M67.7317064,-192.4162635L53.7322395,-192.538435" /></g>
<g stroke="rgb(0, 0, 0)"><path d="M53.7322395,-192.538435L53.854411,-206.5379019" /></g>
<g stroke="rgb(0, 0, 0)"><path d="M53.6881705,-187.4886273L67.6876374,-187.3664558" /></g>
<g stroke="rgb(0, 0, 0)"><path d="M67.6876374,-187.3664558L67.5654659,-173.3669889" /></g>
<g stroke="rgb(0, 0, 0)"><path d="M67.5654659,-173.3669889L53.565999,-173.4891604" /></g>
<g stroke="rgb(0, 0, 0)"><path d="M53.565999,-173.4891604L53.6881705,-187.4886273" /></g>
<g stroke="rgb(0, 0, 0)"><path d="M53.52193,-168.4393526L67.5213969,-168.3171811" /></g>
<g stroke="rgb(0, 0, 0)"><path d="M67.5213969,-168.3171811L67.3992254,-154.3177142" /></g>
<g stroke="rgb(0, 0, 0)"><path d="M67.3992254,-154.3177142L53.3997585,-154.4398857" /></g>
<g stroke="rgb(0, 0, 0)"><path d="M53.3997585,-154.4398857L53.52193,-168.4393526" /></g>
<g stroke="rgb(0, 0, 0)"><path d="M53.3556895,-149.390078L67.3551564,-149.2679065" /></g>
<g stroke="rgb(0, 0, 0)"><path d="M67.3551564,-149.2679065L67.2329849,-135.2684396" /></g>
<g stroke="rgb(0, 0, 0)"><path d="M67.2329849,-135.2684396L53.233518,-135.3906111" /></g>
<g stroke="rgb(0, 0, 0)"><path d="M53.233518,-135.3906111L53.3556895,-149.390078" /></g>
<g stroke="rgb(0, 0, 0)"><path d="M53.189449,-130.3408034L67.1889159,-130.2186319" /></g>
<g stroke="rgb(0, 0, 0)"><path d="M67.1889159,-130.2186319L67.0667444,-116.219165" /></g>
<g stroke="rgb(0, 0, 0)"><path d="M67.0667444,-116.219165L53.0672775,-116.3413365" /></g>
<g stroke="rgb(0, 0, 0)"><path d="M53.0672775,-116.3413365L53.189449,-130.3408034" /></g>
<g stroke="rgb(0, 0, 0)"><path d="M72.764061,-204.249566L86.7635279,-204.3717375" /></g>
<g stroke="rgb(0, 0, 0)"><path d="M86.7635279,-204.3717375L86.8856994,-190.3722706" /></g>
<g stroke="rgb(0, 0, 0)"><path d="M86.8856994,-190.3722706L72.8862325,-190.2500991" /></g>
<g stroke="rgb(0, 0, 0)"><path d="M72.8862325,-190.2500991L72.764061,-204.249566" /></g>
<g stroke="rgb(0, 0, 0)"><path d="M72.9303015,-185.2002914L86.9297684,-185.3224629" /></g>
<g stroke="rgb(0, 0, 0)"><path d="M86.9297684,-185.3224629L87.0519399,-171.322996" /></g>
<g stroke="rgb(0, 0, 0)"><path d="M87.0519399,-171.322996L73.052473,-171.2008245" /></g>
<g stroke="rgb(0, 0, 0)"><path d="M73.052473,-171.2008245L72.9303015,-185.2002914" /></g>
<g stroke="rgb(0, 0, 0)"><path d="M73.0965419,-166.1510168L87.0960088,-166.2731883" /></g>
<g stroke="rgb(0, 0, 0)"><path d="M87.0960088,-166.2731883L87.2181803,-152.2737214" /></g>
<g stroke="rgb(0, 0, 0)"><path d="M87.2181803,-152.2737214L73.2187134,-152.1515499" /></g>
<g stroke="rgb(0, 0, 0)"><path d="M73.2187134,-152.1515499L73.0965419,-166.1510168" /></g>
<g stroke="rgb(0, 0, 0)"><path d="M73.2627824,-147.1017421L87.2622493,-147.2239136" /></g>
<g stroke="rgb(0, 0, 0)"><path d="M87.2622493,-147.2239136L87.3844208,-133.2244467" /></g>
<g stroke="rgb(0, 0, 0)"><path d="M87.3844208,-133.2244467L73.3849539,-133.1022752" /></g>
<g stroke="rgb(0, 0, 0)"><path d="M73.3849539,-133.1022752L73.2627824,-147.1017421" /></g>
<g stroke="rgb(0, 0, 0)"><path d="M73.4290229,-128.0524675L87.4284898,-128.174639" /></g>
<g stroke="rgb(0, 0, 0)"><path d="M87.4284898,-128.174639L87.5506613,-114.1751721" /></g>
<g stroke="rgb(0, 0, 0)"><path d="M87.5506613,-114.1751721L73.5511944,-114.0530006" /></g>
<g stroke="rgb(0, 0, 0)"><path d="M73.5511944,-114.0530006L73.4290229,-128.0524675" /></g>
<g stroke="rgb(0, 0, 0)"><path d="M73.5952633,-109.0031928L87.5947302,-109.1253643" /></g>
<g stroke="rgb(0, 0, 0)"><path d="M87.5947302,-109.1253643L87.7169017,-95.1258974" /></g>
<g stroke="rgb(0, 0, 0)"><path d="M87.7169017,-95.1258974L73.7174348,-95.0037259" /></g>
<g stroke="rgb(0, 0, 0)"><path d="M73.7174348,-95.0037259L73.5952633,-109.0031928" /></g>
<g stroke="rgb(0, 0, 0)"><path d="M91.7020415,-203.2915595L105.697244,-203.6580368" /></g>
<g stroke="rgb(0, 0, 0)"><path d="M105.697244,-203.6580368L106.0637213,-189.6628343" /></g>
<g stroke="rgb(0, 0, 0)"><path d="M106.0637213,-189.6628343L92.0685188,-189.296357" /></g>
<g stroke="rgb(0, 0, 0)"><path d="M92.0685188,-189.296357L91.7020415,-203.2915595" /></g>
<g stroke="rgb(0, 0, 0)"><path d="M92.2007123,-184.2480874L106.1959148,-184.6145647" /></g>
<g stroke="rgb(0, 0, 0)"><path d="M106.1959148,-184.6145647L106.5623921,-170.6193622" /></g>
<g stroke="rgb(0, 0, 0)"><path d="M106.5623921,-170.6193622L92.5671896,-170.2528849" /></g>
<g stroke="rgb(0, 0, 0)"><path d="M92.5671896,-170.2528849L92.2007123,-184.2480874" /></g>
<g stroke="rgb(0, 0, 0)"><path d="M92.6993832,-165.2046153L106.6945857,-165.5710926" /></g>
<g stroke="rgb(0, 0, 0)"><path d="M106.6945857,-165.5710926L107.061063,-151.5758901" /></g>
<g stroke="rgb(0, 0, 0)"><path d="M107.061063,-151.5758901L93.0658605,-151.2094128" /></g>
<g stroke="rgb(0, 0, 0)"><path d="M93.0658605,-151.2094128L92.6993832,-165.2046153" /></g>
<g stroke="rgb(0, 0, 0)"><path d="M93.198054,-146.1611432L107.1932565,-146.5276205" /></g>
<g stroke="rgb(0, 0, 0)"><path d="M107.1932565,-146.5276205L107.5597338,-132.532418" /></g>
<g stroke="rgb(0, 0, 0)"><path d="M107.5597338,-132.532418L93.5645313,-132.1659407" /></g>
<g stroke="rgb(0, 0, 0)"><path d="M93.5645313,-132.1659407L93.198054,-146.1611432" /></g>
<g stroke="rgb(0, 0, 0)"><path d="M93.6967249,-127.1176711L107.6919274,-127.4841484" /></g>
<g stroke="rgb(0, 0, 0)"><path d="M107.6919274,-127.4841484L108.0584047,-113.4889459" /></g>
<g stroke="rgb(0, 0, 0)"><path d="M108.0584047,-113.4889459L94.0632022,-113.1224686" /></g>
<g stroke="rgb(0, 0, 0)"><path d="M94.0632022,-113.1224686L93.6967249,-127.1176711" /></g>
<g stroke="rgb(0, 0, 0)"><path d="M94.1953958,-108.074199L108.1905983,-108.4406763" /></g>
<g stroke="rgb(0, 0, 0)"><path d="M108.1905983,-108.4406763L108.5570756,-94.4454738" /></g>
<g stroke="rgb(0, 0, 0)"><path d="M108.5570756,-94.4454738L94.5618731,-94.0789965" /></g>
<g stroke="rgb(0, 0, 0)"><path d="M94.5618731,-94.0789965L94.1953958,-108.074199" /></g>
<g stroke="rgb(0, 0, 0)"><path d="M111.4324526,-185.6316583L125.4191277,-186.2423298" /></g>
<g stroke="rgb(0, 0, 0)"><path d="M125.4191277,-186.2423298L126.0297992,-172.2556547" /></g>
<g stroke="rgb(0, 0, 0)"><path d="M126.0297992,-172.2556547L112.0431241,-171.6449832" /></g>
<g stroke="rgb(0, 0, 0)"><path d="M112.0431241,-171.6449832L111.4324526,-185.6316583" /></g>
<g stroke="rgb(0, 0, 0)"><path d="M112.263402,-166.5997898L126.2500771,-167.2104613" /></g>
<g stroke="rgb(0, 0, 0)"><path d="M126.2500771,-167.2104613L126.8607486,-153.2237862" /></g>
<g stroke="rgb(0, 0, 0)"><path d="M126.8607486,-153.2237862L112.8740735,-152.6131147" /></g>
<g stroke="rgb(0, 0, 0)"><path d="M112.8740735,-152.6131147L112.263402,-166.5997898" /></g>
<g stroke="rgb(0, 0, 0)"><path d="M113.0943513,-147.5679212L127.0810264,-148.1785927" /></g>
<g stroke="rgb(0, 0, 0)"><path d="M127.0810264,-148.1785927L127.6916979,-134.1919176" /></g>
<g stroke="rgb(0, 0, 0)"><path d="M127.6916979,-134.1919176L113.7050228,-133.5812461" /></g>
<g stroke="rgb(0, 0, 0)"><path d="M113.7050228,-133.5812461L113.0943513,-147.5679212" /></g>
<g stroke="rgb(0, 0, 0)"><path d="M113.9253007,-128.5360526L127.9119758,-129.1467241" /></g>
<g stroke="rgb(0, 0, 0)"><path d="M127.9119758,-129.1467241L128.5226473,-115.160049" /></g>
<g stroke="rgb(0, 0, 0)"><path d="M128.5226473,-115.160049L114.5359722,-114.5493775" /></g>
<g stroke="rgb(0, 0, 0)"><path d="M114.5359722,-114.5493775L113.9253007,-128.5360526" /></g>
<g stroke="rgb(0, 0, 0)"><path d="M114.75625,-109.504184L128.7429251,-110.1148555" /></g>
<g stroke="rgb(0, 0, 0)"><path d="M128.7429251,-110.1148555L129.3535966,-96.1281804" /></g>
<g stroke="rgb(0, 0, 0)"><path d="M129.3535966,-96.1281804L115.3669215,-95.5175089" /></g>
<g stroke="rgb(0, 0, 0)"><path d="M115.3669215,-95.5175089L114.75625,-109.504184" /></g>
<g stroke="rgb(0, 0, 0)"><path d="M128.0950822,-205.6403611L142.0789596,-206.3120549" /></g>
<g stroke="rgb(0, 0, 0)"><path d="M142.0789596,-206.3120549L142.7506534,-192.3281775" /></g>
<g stroke="rgb(0, 0, 0)"><path d="M142.7506534,-192.3281775L128.766776,-191.6564837" /></g>
<g stroke="rgb(0, 0, 0)"><path d="M128.766776,-191.6564837L128.0950822,-205.6403611" /></g>
<g stroke="rgb(0, 0, 0)"><path d="M130.5073381,-186.6842666L144.4912155,-187.3559604" /></g>
<g stroke="rgb(0, 0, 0)"><path d="M144.4912155,-187.3559604L145.1629093,-173.372083" /></g>
<g stroke="rgb(0, 0, 0)"><path d="M145.1629093,-173.372083L131.1790319,-172.7003892" /></g>
<g stroke="rgb(0, 0, 0)"><path d="M131.1790319,-172.7003892L130.5073381,-186.6842666" /></g>
<g stroke="rgb(0, 0, 0)"><path d="M131.4213214,-167.6562049L145.4051988,-168.3278987" /></g>
<g stroke="rgb(0, 0, 0)"><path d="M145.4051988,-168.3278987L146.0768926,-154.3440213" /></g>
<g stroke="rgb(0, 0, 0)"><path d="M146.0768926,-154.3440213L132.0930152,-153.6723275" /></g>
<g stroke="rgb(0, 0, 0)"><path d="M132.0930152,-153.6723275L131.4213214,-167.6562049" /></g>
<g stroke="rgb(0, 0, 0)"><path d="M132.3353048,-148.6281431L146.3191822,-149.2998369" /></g>
<g stroke="rgb(0, 0, 0)"><path d="M146.3191822,-149.2998369L146.990876,-135.3159595" /></g>
<g stroke="rgb(0, 0, 0)"><path d="M146.990876,-135.3159595L133.0069986,-134.6442657" /></g>
<g stroke="rgb(0, 0, 0)"><path d="M133.0069986,-134.6442657L132.3353048,-148.6281431" /></g>
<g stroke="rgb(0, 0, 0)"><path d="M133.2492881,-129.6000814L147.2331655,-130.2717752" /></g>
<g stroke="rgb(0, 0, 0)"><path d="M147.2331655,-130.2717752L147.9048593,-116.2878978" /></g>
<g stroke="rgb(0, 0, 0)"><path d="M147.9048593,-116.2878978L133.9209819,-115.616204" /></g>
<g stroke="rgb(0, 0, 0)"><path d="M133.9209819,-115.616204L133.2492881,-129.6000814" /></g>
<g stroke="rgb(0, 0, 0)"><path d="M134.1632715,-110.5720197L148.1471489,-111.2437135" /></g>
<g stroke="rgb(0, 0, 0)"><path d="M148.1471489,-111.2437135L148.8188427,-97.2598361" /></g>
<g stroke="rgb(0, 0, 0)"><path d="M148.8188427,-97.2598361L134.8349653,-96.5881423" /></g>
<g stroke="rgb(0, 0, 0)"><path d="M134.8349653,-96.5881423L134.1632715,-110.5720197" /></g>
<g stroke="rgb(0, 0, 0)"><path d="M184.2116358,-206.3034172L198.1955132,-205.6317234" /></g>
<g stroke="rgb(0, 0, 0)"><path d="M198.1955132,-205.6317234L197.5238194,-191.647846" /></g>
<g stroke="rgb(0, 0, 0)"><path d="M197.5238194,-191.647846L183.539942,-192.3195398" /></g>
<g stroke="rgb(0, 0, 0)"><path d="M183.539942,-192.3195398L184.2116358,-206.3034172" /></g>
<g stroke="rgb(0, 0, 0)"><path d="M181.7993798,-187.3473226L195.7832572,-186.6756288" /></g>
<g stroke="rgb(0, 0, 0)"><path d="M195.7832572,-186.6756288L195.1115634,-172.6917514" /></g>
<g stroke="rgb(0, 0, 0)"><path d="M195.1115634,-172.6917514L181.127686,-173.3634452" /></g>
<g stroke="rgb(0, 0, 0)"><path d="M181.127686,-173.3634452L181.7993798,-187.3473226" /></g>
<g stroke="rgb(0, 0, 0)"><path d="M180.8853964,-168.3192609L194.8692738,-167.6475671" /></g>
<g stroke="rgb(0, 0, 0)"><path d="M194.8692738,-167.6475671L194.19758,-153.6636897" /></g>
<g stroke="rgb(0, 0, 0)"><path d="M194.19758,-153.6636897L180.2137026,-154.3353835" /></g>
<g stroke="rgb(0, 0, 0)"><path d="M180.2137026,-154.3353835L180.8853964,-168.3192609" /></g>
<g stroke="rgb(0, 0, 0)"><path d="M179.9714131,-149.2911992L193.9552905,-148.6195054" /></g>
<g stroke="rgb(0, 0, 0)"><path d="M193.9552905,-148.6195054L193.2835967,-134.635628" /></g>
<g stroke="rgb(0, 0, 0)"><path d="M193.2835967,-134.635628L179.2997193,-135.3073218" /></g>
<g stroke="rgb(0, 0, 0)"><path d="M179.2997193,-135.3073218L179.9714131,-149.2911992" /></g>
<g stroke="rgb(0, 0, 0)"><path d="M179.0574297,-130.2631375L193.0413071,-129.5914437" /></g>
<g stroke="rgb(0, 0, 0)"><path d="M193.0413071,-129.5914437L192.3696133,-115.6075663" /></g>
<g stroke="rgb(0, 0, 0)"><path d="M192.3696133,-115.6075663L178.3857359,-116.2792601" /></g>
<g stroke="rgb(0, 0, 0)"><path d="M178.3857359,-116.2792601L179.0574297,-130.2631375" /></g>
<g stroke="rgb(0, 0, 0)"><path d="M178.1434464,-111.2350757L192.1273238,-110.5633819" /></g>
<g stroke="rgb(0, 0, 0)"><path d="M192.1273238,-110.5633819L191.45563,-96.5795045" /></g>
<g stroke="rgb(0, 0, 0)"><path d="M191.45563,-96.5795045L177.4717526,-97.2511983" /></g>
<g stroke="rgb(0, 0, 0)"><path d="M177.4717526,-97.2511983L178.1434464,-111.2350757" /></g>
<g stroke="rgb(0, 0, 0)"><path d="M200.815447,-186.1836272L214.7993244,-185.5119334" /></g>
<g stroke="rgb(0, 0, 0)"><path d="M214.7993244,-185.5119334L214.1276306,-171.528056" /></g>
<g stroke="rgb(0, 0, 0)"><path d="M214.1276306,-171.528056L200.1437532,-172.1997498" /></g>
<g stroke="rgb(0, 0, 0)"><path d="M200.1437532,-172.1997498L200.815447,-186.1836272" /></g>
<g stroke="rgb(0, 0, 0)"><path d="M199.9014637,-167.1555655L213.8853411,-166.4838717" /></g>
<g stroke="rgb(0, 0, 0)"><path d="M213.8853411,-166.4838717L213.2136473,-152.4999943" /></g>
<g stroke="rgb(0, 0, 0)"><path d="M213.2136473,-152.4999943L199.2297699,-153.1716881" /></g>
<g stroke="rgb(0, 0, 0)"><path d="M199.2297699,-153.1716881L199.9014637,-167.1555655" /></g>
<g stroke="rgb(0, 0, 0)"><path d="M198.9874803,-148.1275038L212.9713577,-147.45581" /></g>
<g stroke="rgb(0, 0, 0)"><path d="M212.9713577,-147.45581L212.2996639,-133.4719326" /></g>
<g stroke="rgb(0, 0, 0)"><path d="M212.2996639,-133.4719326L198.3157865,-134.1436264" /></g>
<g stroke="rgb(0, 0, 0)"><path d="M198.3157865,-134.1436264L198.9874803,-148.1275038" /></g>
<g stroke="rgb(0, 0, 0)"><path d="M198.073497,-129.0994421L212.0573744,-128.4277483" /></g>
<g stroke="rgb(0, 0, 0)"><path d="M212.0573744,-128.4277483L211.3856806,-114.4438709" /></g>
<g stroke="rgb(0, 0, 0)"><path d="M211.3856806,-114.4438709L197.4018032,-115.1155647" /></g>
<g stroke="rgb(0, 0, 0)"><path d="M197.4018032,-115.1155647L198.073497,-129.0994421" /></g>
<g stroke="rgb(0, 0, 0)"><path d="M197.1595136,-110.0713803L211.143391,-109.3996865" /></g>
<g stroke="rgb(0, 0, 0)"><path d="M211.143391,-109.3996865L210.4716972,-95.4158091" /></g>
<g stroke="rgb(0, 0, 0)"><path d="M210.4716972,-95.4158091L196.4878198,-96.0875029" /></g>
<g stroke="rgb(0, 0, 0)"><path d="M196.4878198,-96.0875029L197.1595136,-110.0713803" /></g>
<g stroke="rgb(0, 0, 0)"><path d="M220.5826403,-203.1815762L234.5761105,-202.754037" /></g>
<g stroke="rgb(0, 0, 0)"><path d="M234.5761105,-202.754037L234.1485713,-188.7605668" /></g>
<g stroke="rgb(0, 0, 0)"><path d="M234.1485713,-188.7605668L220.1551011,-189.188106" /></g>
<g stroke="rgb(0, 0, 0)"><path d="M220.1551011,-189.188106L220.5826403,-203.1815762" /></g>
<g stroke="rgb(0, 0, 0)"><path d="M220.0008816,-184.1404614L233.9943518,-183.7129222" /></g>
<g stroke="rgb(0, 0, 0)"><path d="M233.9943518,-183.7129222L233.5668126,-169.719452" /></g>
<g stroke="rgb(0, 0, 0)"><path d="M233.5668126,-169.719452L219.5733424,-170.1469912" /></g>
<g stroke="rgb(0, 0, 0)"><path d="M219.5733424,-170.1469912L220.0008816,-184.1404614" /></g>
<g stroke="rgb(0, 0, 0)"><path d="M219.4191229,-165.0993465L233.4125931,-164.6718073" /></g>
<g stroke="rgb(0, 0, 0)"><path d="M233.4125931,-164.6718073L232.9850539,-150.6783371" /></g>
<g stroke="rgb(0, 0, 0)"><path d="M232.9850539,-150.6783371L218.9915837,-151.1058763" /></g>
<g stroke="rgb(0, 0, 0)"><path d="M218.9915837,-151.1058763L219.4191229,-165.0993465" /></g>
<g stroke="rgb(0, 0, 0)"><path d="M218.8373641,-146.0582316L232.8308343,-145.6306924" /></g>
<g stroke="rgb(0, 0, 0)"><path d="M232.8308343,-145.6306924L232.4032951,-131.6372222" /></g>
<g stroke="rgb(0, 0, 0)"><path d="M232.4032951,-131.6372222L218.4098249,-132.0647614" /></g>
<g stroke="rgb(0, 0, 0)"><path d="M218.4098249,-132.0647614L218.8373641,-146.0582316" /></g>
<g stroke="rgb(0, 0, 0)"><path d="M218.2556054,-127.0171167L232.2490756,-126.5895775" /></g>
<g stroke="rgb(0, 0, 0)"><path d="M232.2490756,-126.5895775L231.8215364,-112.5961073" /></g>
<g stroke="rgb(0, 0, 0)"><path d="M231.8215364,-112.5961073L217.8280662,-113.0236465" /></g>
<g stroke="rgb(0, 0, 0)"><path d="M217.8280662,-113.0236465L218.2556054,-127.0171167" /></g>
<g stroke="rgb(0, 0, 0)"><path d="M217.6738467,-107.9760018L231.6673169,-107.5484626" /></g>
<g stroke="rgb(0, 0, 0)"><path d="M231.6673169,-107.5484626L231.2397777,-93.5549924" /></g>
<g stroke="rgb(0, 0, 0)"><path d="M231.2397777,-93.5549924L217.2463075,-93.9825316" /></g>
<g stroke="rgb(0, 0, 0)"><path d="M217.2463075,-93.9825316L217.6738467,-107.9760018" /></g>
<g stroke="rgb(0, 0, 0)"><path d="M239.5294861,-203.479874L253.5282867,-203.2966196" /></g>
<g stroke="rgb(0, 0, 0)"><path d="M253.5282867,-203.2966196L253.3450323,-189.297819" /></g>
<g stroke="rgb(0, 0, 0)"><path d="M253.3450323,-189.297819L239.3462317,-189.4810734" /></g>
<g stroke="rgb(0, 0, 0)"><path d="M239.3462317,-189.4810734L239.5294861,-203.479874" /></g>
<g stroke="rgb(0, 0, 0)"><path d="M239.2801294,-184.431506L253.27893,-184.2482516" /></g>
<g stroke="rgb(0, 0, 0)"><path d="M253.27893,-184.2482516L253.0956756,-170.249451" /></g>
<g stroke="rgb(0, 0, 0)"><path d="M253.0956756,-170.249451L239.096875,-170.4327054" /></g>
<g stroke="rgb(0, 0, 0)"><path d="M239.096875,-170.4327054L239.2801294,-184.431506" /></g>
<g stroke="rgb(0, 0, 0)"><path d="M239.0307726,-165.383138L253.0295732,-165.1998836" /></g>
<g stroke="rgb(0, 0, 0)"><path d="M253.0295732,-165.1998836L252.8463188,-151.201083" /></g>
<g stroke="rgb(0, 0, 0)"><path d="M252.8463188,-151.201083L238.8475182,-151.3843374" /></g>
<g stroke="rgb(0, 0, 0)"><path d="M238.8475182,-151.3843374L239.0307726,-165.383138" /></g>
<g stroke="rgb(0, 0, 0)"><path d="M238.7814159,-146.33477L252.7802165,-146.1515156" /></g>
<g stroke="rgb(0, 0, 0)"><path d="M252.7802165,-146.1515156L252.5969621,-132.152715" /></g>
<g stroke="rgb(0, 0, 0)"><path d="M252.5969621,-132.152715L238.5981615,-132.3359694" /></g>
<g stroke="rgb(0, 0, 0)"><path d="M238.5981615,-132.3359694L238.7814159,-146.33477" /></g>
<g stroke="rgb(0, 0, 0)"><path d="M238.5320591,-127.2864021L252.5308597,-127.1031477" /></g>
<g stroke="rgb(0, 0, 0)"><path d="M252.5308597,-127.1031477L252.3476053,-113.1043471" /></g>
<g stroke="rgb(0, 0, 0)"><path d="M252.3476053,-113.1043471L238.3488047,-113.2876015" /></g>
<g stroke="rgb(0, 0, 0)"><path d="M238.3488047,-113.2876015L238.5320591,-127.2864021" /></g>
<g stroke="rgb(0, 0, 0)"><path d="M238.2827023,-108.2380341L252.2815029,-108.0547797" /></g>
<g stroke="rgb(0, 0, 0)"><path d="M252.2815029,-108.0547797L252.0982485,-94.0559791" /></g>
<g stroke="rgb(0, 0, 0)"><path d="M252.0982485,-94.0559791L238.0994479,-94.2392335" /></g>
<g stroke="rgb(0, 0, 0)"><path d="M238.0994479,-94.2392335L238.2827023,-108.2380341" /></g>
<g stroke="rgb(0, 0, 0)"><path d="M258.4813299,-205.1087085L272.4811966,-205.1697948" /></g>
<g stroke="rgb(0, 0, 0)"><path d="M272.4811966,-205.1697948L272.5422829,-191.1699281" /></g>
<g stroke="rgb(0, 0, 0)"><path d="M272.5422829,-191.1699281L258.5424162,-191.1088418" /></g>
<g stroke="rgb(0, 0, 0)"><path d="M258.5424162,-191.1088418L258.4813299,-205.1087085" /></g>
<g stroke="rgb(0, 0, 0)"><path d="M258.5644509,-186.0588899L272.5643176,-186.1199762" /></g>
<g stroke="rgb(0, 0, 0)"><path d="M272.5643176,-186.1199762L272.6254039,-172.1201095" /></g>
<g stroke="rgb(0, 0, 0)"><path d="M272.6254039,-172.1201095L258.6255372,-172.0590232" /></g>
<g stroke="rgb(0, 0, 0)"><path d="M258.6255372,-172.0590232L258.5644509,-186.0588899" /></g>
<g stroke="rgb(0, 0, 0)"><path d="M258.647572,-167.0090713L272.6474387,-167.0701576" /></g>
<g stroke="rgb(0, 0, 0)"><path d="M272.6474387,-167.0701576L272.708525,-153.0702909" /></g>
<g stroke="rgb(0, 0, 0)"><path d="M272.708525,-153.0702909L258.7086583,-153.0092046" /></g>
<g stroke="rgb(0, 0, 0)"><path d="M258.7086583,-153.0092046L258.647572,-167.0090713" /></g>
<g stroke="rgb(0, 0, 0)"><path d="M258.730693,-147.9592527L272.7305597,-148.020339" /></g>
<g stroke="rgb(0, 0, 0)"><path d="M272.7305597,-148.020339L272.791646,-134.0204723" /></g>
<g stroke="rgb(0, 0, 0)"><path d="M272.791646,-134.0204723L258.7917793,-133.959386" /></g>
<g stroke="rgb(0, 0, 0)"><path d="M258.7917793,-133.959386L258.730693,-147.9592527" /></g>
<g stroke="rgb(0, 0, 0)"><path d="M258.8138141,-128.9094341L272.8136808,-128.9705204" /></g>
<g stroke="rgb(0, 0, 0)"><path d="M272.8136808,-128.9705204L272.8747671,-114.9706537" /></g>
<g stroke="rgb(0, 0, 0)"><path d="M272.8747671,-114.9706537L258.8749004,-114.9095674" /></g>
<g stroke="rgb(0, 0, 0)"><path d="M258.8749004,-114.9095674L258.8138141,-128.9094341" /></g>
<g stroke="rgb(0, 0, 0)"><path d="M277.5311485,-205.1918296L291.5310152,-205.2529159" /></g>
<g stroke="rgb(0, 0, 0)"><path d="M291.5310152,-205.2529159L291.5921015,-191.2530492" /></g>
<g stroke="rgb(0, 0, 0)"><path d="M291.5921015,-191.2530492L277.5922348,-191.1919629" /></g>
<g stroke="rgb(0, 0, 0)"><path d="M277.5922348,-191.1919629L277.5311485,-205.1918296" /></g>
<g stroke="rgb(0, 0, 0)"><path d="M282.9767185,-186.1654093L296.9765852,-186.2264956" /></g>
<g stroke="rgb(0, 0, 0)"><path d="M296.9765852,-186.2264956L297.0376715,-172.2266289" /></g>
<g stroke="rgb(0, 0, 0)"><path d="M297.0376715,-172.2266289L283.0378048,-172.1655426" /></g>
<g stroke="rgb(0, 0, 0)"><path d="M283.0378048,-172.1655426L282.9767185,-186.1654093" /></g>
<g stroke="rgb(0, 0, 0)"><path d="M277.6973906,-167.0921923L291.6972573,-167.1532786" /></g>
<g stroke="rgb(0, 0, 0)"><path d="M291.6972573,-167.1532786L291.7583436,-153.1534119" /></g>
<g stroke="rgb(0, 0, 0)"><path d="M291.7583436,-153.1534119L277.7584769,-153.0923256" /></g>
<g stroke="rgb(0, 0, 0)"><path d="M277.7584769,-153.0923256L277.6973906,-167.0921923" /></g>
<g stroke="rgb(0, 0, 0)"><path d="M277.7805116,-148.0423737L291.7803783,-148.10346" /></g>
<g stroke="rgb(0, 0, 0)"><path d="M291.7803783,-148.10346L291.8414646,-134.1035933" /></g>
<g stroke="rgb(0, 0, 0)"><path d="M291.8414646,-134.1035933L277.8415979,-134.042507" /></g>
<g stroke="rgb(0, 0, 0)"><path d="M277.8415979,-134.042507L277.7805116,-148.0423737" /></g>
<g stroke="rgb(0, 0, 0)"><path d="M277.8636327,-128.9925551L291.8634994,-129.0536414" /></g>
<g stroke="rgb(0, 0, 0)"><path d="M291.8634994,-129.0536414L291.9245857,-115.0537747" /></g>
<g stroke="rgb(0, 0, 0)"><path d="M291.9245857,-115.0537747L277.924719,-114.9926884" /></g>
<g stroke="rgb(0, 0, 0)"><path d="M277.924719,-114.9926884L277.8636327,-128.9925551" /></g>
<g stroke="rgb(0, 0, 0)"><path d="M277.9467537,-109.9427365L291.9466204,-110.0038228" /></g>
<g stroke="rgb(0, 0, 0)"><path d="M291.9466204,-110.0038228L292.0077067,-96.0039561" /></g>
<g stroke="rgb(0, 0, 0)"><path d="M292.0077067,-96.0039561L278.00784,-95.9428698" /></g>
<g stroke="rgb(0, 0, 0)"><path d="M278.00784,-95.9428698L277.9467537,-109.9427365" /></g>
<g stroke="rgb(0, 0, 0)"><path d="M302.1096583,-167.1987118L316.109525,-167.2597981" /></g>
<g stroke="rgb(0, 0, 0)"><path d="M316.109525,-167.2597981L316.1706113,-153.2599314" /></g>
<g stroke="rgb(0, 0, 0)"><path d="M316.1706113,-153.2599314L302.1707446,-153.1988451" /></g>
<g stroke="rgb(0, 0, 0)"><path d="M302.1707446,-153.1988451L302.1096583,-167.1987118" /></g>
<g stroke="rgb(0, 0, 0)"><path d="M296.8303303,-148.1254949L310.830197,-148.1865812" /></g>
<g stroke="rgb(0, 0, 0)"><path d="M310.830197,-148.1865812L310.8912833,-134.1867145" /></g>
<g stroke="rgb(0, 0, 0)"><path d="M310.8912833,-134.1867145L296.8914166,-134.1256282" /></g>
<g stroke="rgb(0, 0, 0)"><path d="M296.8914166,-134.1256282L296.8303303,-148.1254949" /></g>
<g stroke="rgb(0, 0, 0)"><path d="M296.9134514,-129.0756763L310.9133181,-129.1367626" /></g>
<g stroke="rgb(0, 0, 0)"><path d="M310.9133181,-129.1367626L310.9744044,-115.1368959" /></g>
<g stroke="rgb(0, 0, 0)"><path d="M310.9744044,-115.1368959L296.9745377,-115.0758096" /></g>
<g stroke="rgb(0, 0, 0)"><path d="M296.9745377,-115.0758096L296.9134514,-129.0756763" /></g>
<g stroke="rgb(0, 0, 0)"><path d="M296.9965724,-110.0258576L310.9964391,-110.0869439" /></g>
<g stroke="rgb(0, 0, 0)"><path d="M310.9964391,-110.0869439L311.0575254,-96.0870772" /></g>
<g stroke="rgb(0, 0, 0)"><path d="M311.0575254,-96.0870772L297.0576587,-96.0259909" /></g>
<g stroke="rgb(0, 0, 0)"><path d="M297.0576587,-96.0259909L296.9965724,-110.0258576" /></g>
<g stroke="rgb(0, 0, 0)"><path d="M315.880149,-148.2086158L329.8800157,-148.2697021" /></g>
<g stroke="rgb(0, 0, 0)"><path d="M329.8800157,-148.2697021L329.941102,-134.2698354" /></g>
<g stroke="rgb(0, 0, 0)"><path d="M329.941102,-134.2698354L315.9412353,-134.2087491" /></g>
<g stroke="rgb(0, 0, 0)"><path d="M315.9412353,-134.2087491L315.880149,-148.2086158" /></g>
<g stroke="rgb(0, 0, 0)"><path d="M321.325719,-129.1821955L335.3255857,-129.2432818" /></g>
<g stroke="rgb(0, 0, 0)"><path d="M335.3255857,-129.2432818L335.386672,-115.2434151" /></g>
<g stroke="rgb(0, 0, 0)"><path d="M335.386672,-115.2434151L321.3868053,-115.1823288" /></g>
<g stroke="rgb(0, 0, 0)"><path d="M321.3868053,-115.1823288L321.325719,-129.1821955" /></g>
<g stroke="rgb(0, 0, 0)"><path d="M316.0463911,-110.1089786L330.0462578,-110.1700649" /></g>
<g stroke="rgb(0, 0, 0)"><path d="M330.0462578,-110.1700649L330.1073441,-96.1701982" /></g>
<g stroke="rgb(0, 0, 0)"><path d="M330.1073441,-96.1701982L316.1074774,-96.1091119" /></g>
<g stroke="rgb(0, 0, 0)"><path d="M316.1074774,-96.1091119L316.0463911,-110.1089786" /></g>
<g stroke="rgb(0, 0, 0)"><path d="M335.0962098,-110.1920997L349.0960765,-110.253186" /></g>
<g stroke="rgb(0, 0, 0)"><path d="M349.0960765,-110.253186L349.1571628,-96.2533193" /></g>
<g stroke="rgb(0, 0, 0)"><path d="M349.1571628,-96.2533193L335.1572961,-96.192233" /></g>
<g stroke="rgb(0, 0, 0)"><path d="M335.1572961,-96.192233L335.0962098,-110.1920997" /></g>
<g stroke="rgb(0, 0, 0)"><path d="M337.5939124,-218.1450545L347.0070477,-207.7820008" /></g>
<g stroke="rgb(0, 0, 0)"><path d="M347.0070477,-207.7820008L336.643994,-198.3688655" /></g>
<g stroke="rgb(0, 0, 0)"><path d="M336.643994,-198.3688655L327.2308587,-208.7319192" /></g>
<g stroke="rgb(0, 0, 0)"><path d="M327.2308587,-208.7319192L337.5939124,-218.1450545" /></g>
<g stroke="rgb(0, 0, 0)"><path d="M323.4927571,-205.3364668L332.9058924,-194.9734131" /></g>
<g stroke="rgb(0, 0, 0)"><path d="M332.9058924,-194.9734131L322.5428387,-185.5602778" /></g>
<g stroke="rgb(0, 0, 0)"><path d="M322.5428387,-185.5602778L313.1297034,-195.9233315" /></g>
<g stroke="rgb(0, 0, 0)"><path d="M313.1297034,-195.9233315L323.4927571,-205.3364668" /></g>
<g stroke="rgb(0, 0, 0)"><path d="M350.4025001,-204.0438992L359.8156354,-193.6808455" /></g>
<g stroke="rgb(0, 0, 0)"><path d="M359.8156354,-193.6808455L349.4525817,-184.2677102" /></g>
<g stroke="rgb(0, 0, 0)"><path d="M349.4525817,-184.2677102L340.0394464,-194.6307639" /></g>
<g stroke="rgb(0, 0, 0)"><path d="M340.0394464,-194.6307639L350.4025001,-204.0438992" /></g>
<g stroke="rgb(0, 0, 0)"><path d="M336.3013448,-191.2353115L345.7144801,-180.8722578" /></g>
<g stroke="rgb(0, 0, 0)"><path d="M345.7144801,-180.8722578L335.3514264,-171.4591225" /></g>
<g stroke="rgb(0, 0, 0)"><path d="M335.3514264,-171.4591225L325.9382911,-181.8221762" /></g>
<g stroke="rgb(0, 0, 0)"><path d="M325.9382911,-181.8221762L336.3013448,-191.2353115" /></g>
<g stroke="rgb(0, 0, 0)"><path d="M366.4132347,-186.4174549L375.82637,-176.0544012" /></g>
<g stroke="rgb(0, 0, 0)"><path d="M375.82637,-176.0544012L365.4633163,-166.6412659" /></g>
<g stroke="rgb(0, 0, 0)"><path d="M365.4633163,-166.6412659L356.050181,-177.0043196" /></g>
<g stroke="rgb(0, 0, 0)"><path d="M356.050181,-177.0043196L366.4132347,-186.4174549" /></g>
<g stroke="rgb(0, 0, 0)"><path d="M352.3120794,-173.6088673L361.7252147,-163.2458136" /></g>
<g stroke="rgb(0, 0, 0)"><path d="M361.7252147,-163.2458136L351.362161,-153.8326783" /></g>
<g stroke="rgb(0, 0, 0)"><path d="M351.362161,-153.8326783L341.9490257,-164.195732" /></g>
<g stroke="rgb(0, 0, 0)"><path d="M341.9490257,-164.195732L352.3120794,-173.6088673" /></g>
<g stroke="rgb(0, 0, 0)"><path d="M379.2218224,-172.3162996L388.6349577,-161.9532459" /></g>
<g stroke="rgb(0, 0, 0)"><path d="M388.6349577,-161.9532459L378.271904,-152.5401106" /></g>
<g stroke="rgb(0, 0, 0)"><path d="M378.271904,-152.5401106L368.8587687,-162.9031643" /></g>
<g stroke="rgb(0, 0, 0)"><path d="M368.8587687,-162.9031643L379.2218224,-172.3162996" /></g>
<g stroke="rgb(0, 0, 0)"><path d="M365.1206671,-159.5077119L374.5338024,-149.1446582" /></g>
<g stroke="rgb(0, 0, 0)"><path d="M374.5338024,-149.1446582L364.1707487,-139.7315229" /></g>
<g stroke="rgb(0, 0, 0)"><path d="M364.1707487,-139.7315229L354.7576134,-150.0945766" /></g>
<g stroke="rgb(0, 0, 0)"><path d="M354.7576134,-150.0945766L365.1206671,-159.5077119" /></g>
<g stroke="rgb(0, 0, 0)"><path d="M363.5878167,-129.3665999L377.5876834,-129.4276862" /></g>
<g stroke="rgb(0, 0, 0)"><path d="M377.5876834,-129.4276862L377.6487697,-115.4278195" /></g>
<g stroke="rgb(0, 0, 0)"><path d="M377.6487697,-115.4278195L363.648903,-115.3667332" /></g>
<g stroke="rgb(0, 0, 0)"><path d="M363.648903,-115.3667332L363.5878167,-129.3665999" /></g>
<g stroke="rgb(0, 0, 0)"><path d="M363.6709378,-110.3167813L377.6708045,-110.3778676" /></g>
<g stroke="rgb(0, 0, 0)"><path d="M377.6708045,-110.3778676L377.7318908,-96.3780009" /></g>
<g stroke="rgb(0, 0, 0)"><path d="M377.7318908,-96.3780009L363.7320241,-96.3169146" /></g>
<g stroke="rgb(0, 0, 0)"><path d="M363.7320241,-96.3169146L363.6709378,-110.3167813" /></g>
<g stroke="rgb(0, 0, 0)"><path d="M382.6376353,-129.449721L396.637502,-129.5108073" /></g>
<g stroke="rgb(0, 0, 0)"><path d="M396.637502,-129.5108073L396.6985883,-115.5109406" /></g>
<g stroke="rgb(0, 0, 0)"><path d="M396.6985883,-115.5109406L382.6987216,-115.4498543" /></g>
<g stroke="rgb(0, 0, 0)"><path d="M382.6987216,-115.4498543L382.6376353,-129.449721" /></g>
<g stroke="rgb(0, 0, 0)"><path d="M382.7207564,-110.3999023L396.7206231,-110.4609886" /></g>
<g stroke="rgb(0, 0, 0)"><path d="M396.7206231,-110.4609886L396.7817094,-96.4611219" /></g>
<g stroke="rgb(0, 0, 0)"><path d="M396.7817094,-96.4611219L382.7818427,-96.4000356" /></g>
<g stroke="rgb(0, 0, 0)"><path d="M382.7818427,-96.4000356L382.7207564,-110.3999023" /></g>
<g stroke="rgb(0, 0, 0)"><circle cx="33.2698416" cy="-90.9381322" r="1.5" /></g>
<g stroke="rgb(0, 0, 0)"><circle cx="153.2624482" cy="-123.5533118" r="1.5" /></g>
<g stroke="rgb(0, 0, 0)"><circle cx="173.028147" cy="-123.5446741" r="1.5" /></g>
<g stroke="rgb(0, 0, 0)"><circle cx="150.5204982" cy="-180.637497" r="1.5" /></g>
<g stroke="rgb(0, 0, 0)"><circle cx="175.7700971" cy="-180.6288592" r="1.5" /></g>
<g stroke="rgb(0, 0, 0)"><circle cx="397.335175" cy="-89.9384748" r="1.5" /></g>
<g stroke="rgb(0, 0, 0)"><circle cx="391.7401899" cy="-145.3835758" r="1.5" /></g>
<g stroke="rgb(0, 0, 0)"><circle cx="314.6764513" cy="-211.9580415" r="1.5" /></g>
<g stroke="rgb(0, 0, 0)"><circle cx="29.2192609" cy="-199.7526231" r="1.5" /></g>
  </g>
</svg>