0
SECTION
2
HEADER
9
$INSUNITS
70
4
0
ENDSEC
0
SECTION
2
TABLES
0
TABLE
2
LTYPE
0
LTYPE
72
65
70
64
2
CONTINUOUS
3
______
73
0
40
0
0
ENDTAB
0
TABLE
2
LAYER
0
ENDTAB
0
ENDSEC
0
SECTION
2
ENTITIES
0
LINE
8
0
10
11.0966369
20
-104.0525185
11
19.8843399
21
-60.632456
0
LINE
8
0
10
22.6807895
20
-58.2310094
11
32.801519
21
-57.7448759
0
LINE
8
0
10
32.9148593
20
-57.7372786
11
74.8481627
21
-54.1278572
0
LINE
8
0
10
74.9264345
20
-54.1221502
11
95.7655968
21
-52.8765089
0
LINE
8
0
10
96.1024452
20
-52.8753192
11
116.9663257
21
-53.9745985
0
LINE
8
0
10
117.0151657
20
-53.9767729
11
150.1012236
21
-55.1797544
0
LINE
8
0
10
151.9546185
20
-55.9086361
11
156.3748773
21
-59.7313739
0
LINE
8
0
10
158.3315946
20
-60.4622312
11
170.0517149
21
-60.4844344
0
LINE
8
0
10
171.999922
20
-59.7706159
11
176.4724175
21
-55.9704142
0
LINE
8
0
10
178.3025758
20
-55.2586953
11
210.7945327
21
-54.0408466
0
LINE
8
0
10
210.8611699
20
-54.0376066
11
231.7062041
21
-52.7916144
0
LINE
8
0
10
232.0430525
20
-52.7904247
11
252.8921573
21
-53.8889253
0
LINE
8
0
10
252.9704654
20
-53.8940791
11
294.9564078
21
-57.2094122
0
LINE
8
0
10
295.0199868
20
-57.2137536
11
315.9885571
21
-58.4219686
0
LINE
8
0
10
316.0408012
20
-58.4254366
11
336.9907576
21
-59.9998448
0
LINE
8
0
10
337.0429333
20
-60.004224
11
357.9634772
21
-61.9441363
0
LINE
8
0
10
358.0130834
20
-61.9491524
11
414.7986176
21
-68.1681798
0
LINE
8
0
10
417.4541859
20
-71.4769495
11
412.2610213
21
-118.8953975
0
LINE
8
0
10
411.6201119
20
-120.4445642
11
398.970873
21
-136.2328497
0
LINE
8
0
10
340.6638392
20
-198.2288449
11
398.8147263
21
-136.4126313
0
LINE
8
0
10
337.4553507
20
-198.9933495
11
300.6629081
21
-185.6416584
0
LINE
8
0
10
299.809611
20
-185.466537
11
287.7705417
21
-184.7829091
0
LINE
8
0
10
287.7179391
20
-184.7803851
11
269.0598072
21
-184.0491983
0
LINE
8
0
10
268.795743
20
-184.0271383
11
250.279943
21
-181.6530205
0
LINE
8
0
10
250.0069289
20
-181.6306231
11
219.0465588
21
-180.5098901
0
LINE
8
0
10
218.5399104
20
-180.5344608
11
205.7178704
21
-182.2512256
0
LINE
8
0
10
205.4911058
20
-182.2728621
11
168.167975
21
-184.4082201
0
LINE
8
0
10
167.9877998
20
-184.413105
11
158.7102594
21
-184.3858369
0
LINE
8
0
10
158.5215885
20
-184.3793426
11
121.1478949
21
-181.9137054
0
LINE
8
0
10
121.0702843
20
-181.9075729
11
108.095643
21
-180.7127701
0
LINE
8
0
10
107.7063696
20
-180.7023037
11
76.7073741
21
-181.8829239
0
LINE
8
0
10
76.4134608
20
-181.9086361
11
57.9296814
21
-184.4465618
0
LINE
8
0
10
57.6658314
20
-184.470978
11
38.9888798
21
-185.3699927
0
LINE
8
0
10
38.9885762
20
-185.3700073
11
28.1674717
21
-185.8897823
0
LINE
8
0
10
25.5341839
20
-184.5674888
11
14.519418
21
-168.1902324
0
LINE
8
0
10
14.0122263
20
-166.659915
11
11.0404756
21
-104.7915513
0
ARC
8
0
10
22.8247238
20
-61.2275546
40
3
50
92.7499983
51
168.5585652
0
ARC
8
0
10
32.6575847
20
-54.7483307
40
3
50
272.7499983
51
274.9196256
0
ARC
8
0
10
75.1054373
20
-57.1168051
40
3
50
93.4207335
51
94.9196256
0
ARC
8
0
10
95.9445996
20
-55.8711638
40
3
50
86.9839786
51
93.4207335
0
ARC
8
0
10
117.1241713
20
-50.9787539
40
3
50
266.9839786
51
267.9176881
0
ARC
8
0
10
149.992218
20
-58.1777734
40
3
50
49.1460195
51
87.9176881
0
ARC
8
0
10
158.3372778
20
-57.4622366
40
3
50
229.1460195
51
269.8914588
0
ARC
8
0
10
170.0573981
20
-57.4844398
40
3
50
269.8914588
51
310.3539764
0
ARC
8
0
10
178.4149414
20
-58.2565902
40
3
50
92.146527
51
130.3539764
0
ARC
8
0
10
210.6821671
20
-51.0429517
40
3
50
272.146527
51
273.4207335
0
ARC
8
0
10
231.8852069
20
-55.7862693
40
3
50
86.9839786
51
93.4207335
0
ARC
8
0
10
252.7343117
20
-56.8847699
40
3
50
85.4851255
51
86.9839786
0
ARC
8
0
10
295.1925615
20
-54.2187214
40
3
50
265.4851255
51
266.7022456
0
ARC
8
0
10
315.8159824
20
-61.4170008
40
3
50
85.7022482
51
86.7022456
0
ARC
8
0
10
336.7659388
20
-62.991409
40
3
50
84.702249
51
85.7022482
0
ARC
8
0
10
357.6864827
20
-64.9313214
40
3
50
83.7499983
51
84.702249
0
ARC
8
0
10
414.4720169
20
-71.1503488
40
3
50
353.7499983
51
83.7499983
0
ARC
8
0
10
409.2788523
20
-118.5687968
40
3
50
321.2990359
51
353.7499983
0
ARC
8
0
10
396.6296133
20
-134.3570824
40
3
50
316.7500008
51
321.2990359
0
ARC
8
0
10
338.4787262
20
-196.1732959
40
3
50
250.0545584
51
316.7500008
0
ARC
8
0
10
299.6395326
20
-188.461712
40
3
50
70.0545584
51
86.7499994
0
ARC
8
0
10
287.6004633
20
-187.7780841
40
3
50
86.7499994
51
87.7558037
0
ARC
8
0
10
269.177283
20
-181.0514993
40
3
50
262.6933348
51
267.7558037
0
ARC
8
0
10
249.898403
20
-184.6286595
40
3
50
82.6933348
51
87.9268557
0
ARC
8
0
10
218.9380329
20
-183.5079265
40
3
50
87.9268557
51
97.6260769
0
ARC
8
0
10
205.3197479
20
-179.27776
40
3
50
273.2744769
51
277.6260769
0
ARC
8
0
10
167.9966171
20
-181.413118
40
3
50
269.8316017
51
273.2744769
0
ARC
8
0
10
158.7190767
20
-181.3858499
40
3
50
266.2255238
51
269.8316017
0
ARC
8
0
10
121.3453831
20
-178.9202127
40
3
50
264.7386085
51
266.2255238
0
ARC
8
0
10
107.8205442
20
-183.7001303
40
3
50
84.7386085
51
92.181101
0
ARC
8
0
10
76.8215487
20
-184.8807505
40
3
50
92.181101
51
97.8181436
0
ARC
8
0
10
57.5215935
20
-181.4744474
40
3
50
272.7558035
51
277.8181436
0
ARC
8
0
10
38.8446419
20
-182.3734621
40
3
50
272.7499983
51
272.7558035
0
ARC
8
0
10
28.0235374
20
-182.8932371
40
3
50
213.9233908
51
272.7499983
0
ARC
8
0
10
17.0087715
20
-166.5159807
40
3
50
182.7499983
51
213.9233908
0
ARC
8
0
10
14.0370208
20
-104.647617
40
3
50
168.5585652
51
182.7499983
0
LINE
8
0
10
29.5684169
20
-182.568743
11
48.0970544
21
-181.6787487
0
LINE
8
0
10
48.0970544
20
-181.6787487
11
47.2070601
21
-163.1501112
0
LINE
8
0
10
47.2070601
20
-163.1501112
11
28.6784226
21
-164.0401055
0
LINE
8
0
10
28.6784226
20
-164.0401055
11
29.5684169
21
-182.568743
0
LINE
8
0
10
23.3979939
20
-163.7931661
11
41.9266314
21
-162.9031718
0
LINE
8
0
10
41.9266314
20
-162.9031718
11
41.0366371
21
-144.3745343
0
LINE
8
0
10
41.0366371
20
-144.3745343
11
22.5079996
21
-145.2645286
0
LINE
8
0
10
22.5079996
20
-145.2645286
11
23.3979939
21
-163.7931661
0
LINE
8
0
10
22.4840105
20
-144.7651043
11
41.012648
21
-143.87511
0
LINE
8
0
10
41.012648
20
-143.87511
11
40.1226537
21
-125.3464725
0
LINE
8
0
10
40.1226537
20
-125.3464725
11
21.5940162
21
-126.2364668
0
LINE
8
0
10
21.5940162
20
-126.2364668
11
22.4840105
21
-144.7651043
0
LINE
8
0
10
21.5700271
20
-125.7370426
11
40.0986646
21
-124.8470483
0
LINE
8
0
10
40.0986646
20
-124.8470483
11
39.2086703
21
-106.3184108
0
LINE
8
0
10
39.2086703
20
-106.3184108
11
20.6800328
21
-107.2084051
0
LINE
8
0
10
20.6800328
20
-107.2084051
11
21.5700271
21
-125.7370426
0
LINE
8
0
10
25.9124834
20
-106.4564959
11
44.4411209
21
-105.5665016
0
LINE
8
0
10
44.4411209
20
-105.5665016
11
43.5511266
21
-87.0378641
0
LINE
8
0
10
43.5511266
20
-87.0378641
11
25.0224891
21
-87.9278584
0
LINE
8
0
10
25.0224891
20
-87.9278584
11
25.9124834
21
-106.4564959
0
LINE
8
0
10
24.9985
20
-87.4284341
11
43.5271375
21
-86.5384398
0
LINE
8
0
10
43.5271375
20
-86.5384398
11
42.6371432
21
-68.0098023
0
LINE
8
0
10
42.6371432
20
-68.0098023
11
24.1085057
21
-68.8997966
0
LINE
8
0
10
24.1085057
20
-68.8997966
11
24.9985
21
-87.4284341
0
LINE
8
0
10
48.428371
20
-181.4993625
11
66.9697191
21
-180.932873
0
LINE
8
0
10
66.9697191
20
-180.932873
11
66.4032296
21
-162.3915249
0
LINE
8
0
10
66.4032296
20
-162.3915249
11
47.8618815
21
-162.9580144
0
LINE
8
0
10
47.8618815
20
-162.9580144
11
48.428371
21
-181.4993625
0
LINE
8
0
10
47.8466123
20
-162.4582475
11
66.3879604
21
-161.891758
0
LINE
8
0
10
66.3879604
20
-161.891758
11
65.8214709
21
-143.3504099
0
LINE
8
0
10
65.8214709
20
-143.3504099
11
47.2801228
21
-143.9168994
0
LINE
8
0
10
47.2801228
20
-143.9168994
11
47.8466123
21
-162.4582475
0
LINE
8
0
10
47.2648536
20
-143.4171326
11
65.8062017
21
-142.8506431
0
LINE
8
0
10
65.8062017
20
-142.8506431
11
65.2397122
21
-124.309295
0
LINE
8
0
10
65.2397122
20
-124.309295
11
46.6983641
21
-124.8757845
0
LINE
8
0
10
46.6983641
20
-124.8757845
11
47.2648536
21
-143.4171326
0
LINE
8
0
10
46.6830949
20
-124.3760176
11
65.224443
21
-123.8095281
0
LINE
8
0
10
65.224443
20
-123.8095281
11
64.6579535
21
-105.26818
0
LINE
8
0
10
64.6579535
20
-105.26818
11
46.1166054
21
-105.8346695
0
LINE
8
0
10
46.1166054
20
-105.8346695
11
46.6830949
21
-124.3760176
0
LINE
8
0
10
46.1013362
20
-105.3349027
11
64.6426843
21
-104.7684132
0
LINE
8
0
10
64.6426843
20
-104.7684132
11
64.0761948
21
-86.2270651
0
LINE
8
0
10
64.0761948
20
-86.2270651
11
45.5348467
21
-86.7935546
0
LINE
8
0
10
45.5348467
20
-86.7935546
11
46.1013362
21
-105.3349027
0
LINE
8
0
10
67.2430387
20
-178.7602293
11
85.7914495
21
-178.5174173
0
LINE
8
0
10
85.7914495
20
-178.5174173
11
85.5486375
21
-159.9690065
0
LINE
8
0
10
85.5486375
20
-159.9690065
11
67.0002267
21
-160.2118185
0
LINE
8
0
10
67.0002267
20
-160.2118185
11
67.2430387
21
-178.7602293
0
LINE
8
0
10
66.993682
20
-159.7118614
11
85.5420928
21
-159.4690494
0
LINE
8
0
10
85.5420928
20
-159.4690494
11
85.2992808
21
-140.9206386
0
LINE
8
0
10
85.2992808
20
-140.9206386
11
66.75087
21
-141.1634506
0
LINE
8
0
10
66.75087
20
-141.1634506
11
66.993682
21
-159.7118614
0
LINE
8
0
10
66.7443252
20
-140.6634935
11
85.292736
21
-140.4206815
0
LINE
8
0
10
85.292736
20
-140.4206815
11
85.049924
21
-121.8722707
0
LINE
8
0
10
85.049924
20
-121.8722707
11
66.5015132
21
-122.1150827
0
LINE
8
0
10
66.5015132
20
-122.1150827
11
66.7443252
21
-140.6634935
0
LINE
8
0
10
66.4949685
20
-121.6151256
11
85.0433793
21
-121.3723136
0
LINE
8
0
10
85.0433793
20
-121.3723136
11
84.8005673
21
-102.8239028
0
LINE
8
0
10
84.8005673
20
-102.8239028
11
66.2521565
21
-103.0667148
0
LINE
8
0
10
66.2521565
20
-103.0667148
11
66.4949685
21
-121.6151256
0
LINE
8
0
10
66.2456117
20
-102.5667577
11
84.7940225
21
-102.3239457
0
LINE
8
0
10
84.7940225
20
-102.3239457
11
84.5512105
21
-83.7755349
0
LINE
8
0
10
84.5512105
20
-83.7755349
11
66.0027997
21
-84.0183469
0
LINE
8
0
10
66.0027997
20
-84.0183469
11
66.2456117
21
-102.5667577
0
LINE
8
0
10
65.9962549
20
-83.5183897
11
84.5446657
21
-83.2755777
0
LINE
8
0
10
84.5446657
20
-83.2755777
11
84.3018537
21
-64.7271669
0
LINE
8
0
10
84.3018537
20
-64.7271669
11
65.7534429
21
-64.9699789
0
LINE
8
0
10
65.7534429
20
-64.9699789
11
65.9962549
21
-83.5183897
0
LINE
8
0
10
86.1157351
20
-177.3497886
11
104.6655585
21
-177.430728
0
LINE
8
0
10
104.6655585
20
-177.430728
11
104.7464979
21
-158.8809046
0
LINE
8
0
10
104.7464979
20
-158.8809046
11
86.1966745
21
-158.7999652
0
LINE
8
0
10
86.1966745
20
-158.7999652
11
86.1157351
21
-177.3497886
0
LINE
8
0
10
86.1988561
20
-158.2999699
11
104.7486795
21
-158.3809093
0
LINE
8
0
10
104.7486795
20
-158.3809093
11
104.8296189
21
-139.8310859
0
LINE
8
0
10
104.8296189
20
-139.8310859
11
86.2797955
21
-139.7501465
0
LINE
8
0
10
86.2797955
20
-139.7501465
11
86.1988561
21
-158.2999699
0
LINE
8
0
10
86.2819771
20
-139.2501512
11
104.8318005
21
-139.3310906
0
LINE
8
0
10
104.8318005
20
-139.3310906
11
104.9127399
21
-120.7812672
0
LINE
8
0
10
104.9127399
20
-120.7812672
11
86.3629165
21
-120.7003278
0
LINE
8
0
10
86.3629165
20
-120.7003278
11
86.2819771
21
-139.2501512
0
LINE
8
0
10
86.3650981
20
-120.2003325
11
104.9149215
21
-120.2812719
0
LINE
8
0
10
104.9149215
20
-120.2812719
11
104.9958609
21
-101.7314485
0
LINE
8
0
10
104.9958609
20
-101.7314485
11
86.4460375
21
-101.6505091
0
LINE
8
0
10
86.4460375
20
-101.6505091
11
86.3650981
21
-120.2003325
0
LINE
8
0
10
86.4482191
20
-101.1505138
11
104.9980425
21
-101.2314532
0
LINE
8
0
10
104.9980425
20
-101.2314532
11
105.0789819
21
-82.6816298
0
LINE
8
0
10
105.0789819
20
-82.6816298
11
86.5291585
21
-82.6006904
0
LINE
8
0
10
86.5291585
20
-82.6006904
11
86.4482191
21
-101.1505138
0
LINE
8
0
10
86.5313402
20
-82.1006951
11
105.0811636
21
-82.1816345
0
LINE
8
0
10
105.0811636
20
-82.1816345
11
105.162103
21
-63.6318111
0
LINE
8
0
10
105.162103
20
-63.6318111
11
86.6122796
21
-63.5508717
0
LINE
8
0
10
86.6122796
20
-63.5508717
11
86.5313402
21
-82.1006951
0
LINE
8
0
10
105.4170196
20
-159.2234513
11
123.9626052
21
-159.6281175
0
LINE
8
0
10
123.9626052
20
-159.6281175
11
124.3672714
21
-141.0825319
0
LINE
8
0
10
124.3672714
20
-141.0825319
11
105.8216858
21
-140.6778657
0
LINE
8
0
10
105.8216858
20
-140.6778657
11
105.4170196
21
-159.2234513
0
LINE
8
0
10
105.8325932
20
-140.1779847
11
124.3781788
21
-140.5826509
0
LINE
8
0
10
124.3781788
20
-140.5826509
11
124.782845
21
-122.0370653
0
LINE
8
0
10
124.782845
20
-122.0370653
11
106.2372594
21
-121.6323991
0
LINE
8
0
10
106.2372594
20
-121.6323991
11
105.8325932
21
-140.1779847
0
LINE
8
0
10
106.2481667
20
-121.1325181
11
124.7937523
21
-121.5371843
0
LINE
8
0
10
124.7937523
20
-121.5371843
11
125.1984185
21
-102.9915987
0
LINE
8
0
10
125.1984185
20
-102.9915987
11
106.6528329
21
-102.5869325
0
LINE
8
0
10
106.6528329
20
-102.5869325
11
106.2481667
21
-121.1325181
0
LINE
8
0
10
106.6637403
20
-102.0870515
11
125.2093259
21
-102.4917177
0
LINE
8
0
10
125.2093259
20
-102.4917177
11
125.6139921
21
-83.9461321
0
LINE
8
0
10
125.6139921
20
-83.9461321
11
107.0684065
21
-83.5414659
0
LINE
8
0
10
107.0684065
20
-83.5414659
11
106.6637403
21
-102.0870515
0
LINE
8
0
10
107.0793139
20
-83.0415849
11
125.6248995
21
-83.4462511
0
LINE
8
0
10
125.6248995
20
-83.4462511
11
126.0295657
21
-64.9006655
0
LINE
8
0
10
126.0295657
20
-64.9006655
11
107.4839801
21
-64.4959993
0
LINE
8
0
10
107.4839801
20
-64.4959993
11
107.0793139
21
-83.0415849
0
LINE
8
0
10
124.4841381
20
-178.7912427
11
143.0198367
21
-179.5195123
0
LINE
8
0
10
143.0198367
20
-179.5195123
11
143.7481063
21
-160.9838137
0
LINE
8
0
10
143.7481063
20
-160.9838137
11
125.2124077
21
-160.2555441
0
LINE
8
0
10
125.2124077
20
-160.2555441
11
124.4841381
21
-178.7912427
0
LINE
8
0
10
125.2320375
20
-159.7559295
11
143.7677361
21
-160.4841991
0
LINE
8
0
10
143.7677361
20
-160.4841991
11
144.4960057
21
-141.9485005
0
LINE
8
0
10
144.4960057
20
-141.9485005
11
125.9603071
21
-141.2202309
0
LINE
8
0
10
125.9603071
20
-141.2202309
11
125.2320375
21
-159.7559295
0
LINE
8
0
10
125.979937
20
-140.7206164
11
144.5156356
21
-141.448886
0
LINE
8
0
10
144.5156356
20
-141.448886
11
145.2439052
21
-122.9131874
0
LINE
8
0
10
145.2439052
20
-122.9131874
11
126.7082066
21
-122.1849178
0
LINE
8
0
10
126.7082066
20
-122.1849178
11
125.979937
21
-140.7206164
0
LINE
8
0
10
126.7278365
20
-121.6853033
11
145.2635351
21
-122.4135729
0
LINE
8
0
10
145.2635351
20
-122.4135729
11
145.9918047
21
-103.8778743
0
LINE
8
0
10
145.9918047
20
-103.8778743
11
127.4561061
21
-103.1496047
0
LINE
8
0
10
127.4561061
20
-103.1496047
11
126.7278365
21
-121.6853033
0
LINE
8
0
10
127.4757359
20
-102.6499901
11
146.0114345
21
-103.3782597
0
LINE
8
0
10
146.0114345
20
-103.3782597
11
146.7397041
21
-84.8425611
0
LINE
8
0
10
146.7397041
20
-84.8425611
11
128.2040055
21
-84.1142915
0
LINE
8
0
10
128.2040055
20
-84.1142915
11
127.4757359
21
-102.6499901
0
LINE
8
0
10
128.2236354
20
-83.614677
11
146.759334
21
-84.3429466
0
LINE
8
0
10
146.759334
20
-84.3429466
11
147.4876036
21
-65.807248
0
LINE
8
0
10
147.4876036
20
-65.807248
11
128.951905
21
-65.0789784
0
LINE
8
0
10
128.951905
20
-65.0789784
11
128.2236354
21
-83.614677
0
LINE
8
0
10
183.7158157
20
-179.6836072
11
202.2571638
21
-179.1171177
0
LINE
8
0
10
202.2571638
20
-179.1171177
11
201.6906743
21
-160.5757696
0
LINE
8
0
10
201.6906743
20
-160.5757696
11
183.1493262
21
-161.1422591
0
LINE
8
0
10
183.1493262
20
-161.1422591
11
183.7158157
21
-179.6836072
0
LINE
8
0
10
183.7337772
20
-160.6241691
11
202.2751253
21
-160.0576796
0
LINE
8
0
10
202.2751253
20
-160.0576796
11
201.7086358
21
-141.5163315
0
LINE
8
0
10
201.7086358
20
-141.5163315
11
183.1672877
21
-142.082821
0
LINE
8
0
10
183.1672877
20
-142.082821
11
183.7337772
21
-160.6241691
0
LINE
8
0
10
183.1520185
20
-141.5830542
11
201.6933666
21
-141.0165647
0
LINE
8
0
10
201.6933666
20
-141.0165647
11
201.1268771
21
-122.4752166
0
LINE
8
0
10
201.1268771
20
-122.4752166
11
182.585529
21
-123.0417061
0
LINE
8
0
10
182.585529
20
-123.0417061
11
183.1520185
21
-141.5830542
0
LINE
8
0
10
182.5702598
20
-122.5419392
11
201.1116079
21
-121.9754497
0
LINE
8
0
10
201.1116079
20
-121.9754497
11
200.5451184
21
-103.4341016
0
LINE
8
0
10
200.5451184
20
-103.4341016
11
182.0037703
21
-104.0005911
0
LINE
8
0
10
182.0037703
20
-104.0005911
11
182.5702598
21
-122.5419392
0
LINE
8
0
10
181.9885011
20
-103.5008243
11
200.5298492
21
-102.9343348
0
LINE
8
0
10
200.5298492
20
-102.9343348
11
199.9633597
21
-84.3929867
0
LINE
8
0
10
199.9633597
20
-84.3929867
11
181.4220116
21
-84.9594762
0
LINE
8
0
10
181.4220116
20
-84.9594762
11
181.9885011
21
-103.5008243
0
LINE
8
0
10
181.4067424
20
-84.4597093
11
199.9480905
21
-83.8932198
0
LINE
8
0
10
199.9480905
20
-83.8932198
11
199.381601
21
-65.3518717
0
LINE
8
0
10
199.381601
20
-65.3518717
11
180.8402529
21
-65.9183612
0
LINE
8
0
10
180.8402529
20
-65.9183612
11
181.4067424
21
-84.4597093
0
LINE
8
0
10
202.9342893
20
-159.6269667
11
221.4827001
21
-159.3841547
0
LINE
8
0
10
221.4827001
20
-159.3841547
11
221.2398881
21
-140.8357439
0
LINE
8
0
10
221.2398881
20
-140.8357439
11
202.6914773
21
-141.0785559
0
LINE
8
0
10
202.6914773
20
-141.0785559
11
202.9342893
21
-159.6269667
0
LINE
8
0
10
202.6849325
20
-140.5785988
11
221.2333433
21
-140.3357868
0
LINE
8
0
10
221.2333433
20
-140.3357868
11
220.9905313
21
-121.787376
0
LINE
8
0
10
220.9905313
20
-121.787376
11
202.4421205
21
-122.030188
0
LINE
8
0
10
202.4421205
20
-122.030188
11
202.6849325
21
-140.5785988
0
LINE
8
0
10
202.4355758
20
-121.5302309
11
220.9839866
21
-121.2874189
0
LINE
8
0
10
220.9839866
20
-121.2874189
11
220.7411746
21
-102.7390081
0
LINE
8
0
10
220.7411746
20
-102.7390081
11
202.1927638
21
-102.9818201
0
LINE
8
0
10
202.1927638
20
-102.9818201
11
202.4355758
21
-121.5302309
0
LINE
8
0
10
202.186219
20
-102.481863
11
220.7346298
21
-102.239051
0
LINE
8
0
10
220.7346298
20
-102.239051
11
220.4918178
21
-83.6906402
0
LINE
8
0
10
220.4918178
20
-83.6906402
11
201.943407
21
-83.9334522
0
LINE
8
0
10
201.943407
20
-83.9334522
11
202.186219
21
-102.481863
0
LINE
8
0
10
201.9368622
20
-83.4334951
11
220.485273
21
-83.1906831
0
LINE
8
0
10
220.485273
20
-83.1906831
11
220.242461
21
-64.6422723
0
LINE
8
0
10
220.242461
20
-64.6422723
11
201.6940502
21
-64.8850843
0
LINE
8
0
10
201.6940502
20
-64.8850843
11
201.9368622
21
-83.4334951
0
LINE
8
0
10
222.0563424
20
-177.264894
11
240.6061658
21
-177.3458334
0
LINE
8
0
10
240.6061658
20
-177.3458334
11
240.6871052
21
-158.79601
0
LINE
8
0
10
240.6871052
20
-158.79601
11
222.1372818
21
-158.7150706
0
LINE
8
0
10
222.1372818
20
-158.7150706
11
222.0563424
21
-177.264894
0
LINE
8
0
10
222.1394634
20
-158.2150753
11
240.6892868
21
-158.2960147
0
LINE
8
0
10
240.6892868
20
-158.2960147
11
240.7702262
21
-139.7461913
0
LINE
8
0
10
240.7702262
20
-139.7461913
11
222.2204028
21
-139.6652519
0
LINE
8
0
10
222.2204028
20
-139.6652519
11
222.1394634
21
-158.2150753
0
LINE
8
0
10
222.2225844
20
-139.1652566
11
240.7724078
21
-139.246196
0
LINE
8
0
10
240.7724078
20
-139.246196
11
240.8533472
21
-120.6963726
0
LINE
8
0
10
240.8533472
20
-120.6963726
11
222.3035238
21
-120.6154332
0
LINE
8
0
10
222.3035238
20
-120.6154332
11
222.2225844
21
-139.1652566
0
LINE
8
0
10
222.3057054
20
-120.1154379
11
240.8555288
21
-120.1963773
0
LINE
8
0
10
240.8555288
20
-120.1963773
11
240.9364682
21
-101.6465539
0
LINE
8
0
10
240.9364682
20
-101.6465539
11
222.3866448
21
-101.5656145
0
LINE
8
0
10
222.3866448
20
-101.5656145
11
222.3057054
21
-120.1154379
0
LINE
8
0
10
222.3888264
20
-101.0656193
11
240.9386498
21
-101.1465587
0
LINE
8
0
10
240.9386498
20
-101.1465587
11
241.0195892
21
-82.5967353
0
LINE
8
0
10
241.0195892
20
-82.5967353
11
222.4697658
21
-82.5157959
0
LINE
8
0
10
222.4697658
20
-82.5157959
11
222.3888264
21
-101.0656193
0
LINE
8
0
10
222.4719475
20
-82.0158006
11
241.0217709
21
-82.09674
0
LINE
8
0
10
241.0217709
20
-82.09674
11
241.1027103
21
-63.5469166
0
LINE
8
0
10
241.1027103
20
-63.5469166
11
222.5528869
21
-63.4659772
0
LINE
8
0
10
222.5528869
20
-63.4659772
11
222.4719475
21
-82.0158006
0
LINE
8
0
10
240.9420534
20
-178.1840233
11
259.487639
21
-178.5886895
0
LINE
8
0
10
259.487639
20
-178.5886895
11
259.8923052
21
-160.0431039
0
LINE
8
0
10
259.8923052
20
-160.0431039
11
241.3467196
21
-159.6384377
0
LINE
8
0
10
241.3467196
20
-159.6384377
11
240.9420534
21
-178.1840233
0
LINE
8
0
10
241.3576269
20
-159.1385567
11
259.9032125
21
-159.5432229
0
LINE
8
0
10
259.9032125
20
-159.5432229
11
260.3078787
21
-140.9976373
0
LINE
8
0
10
260.3078787
20
-140.9976373
11
241.7622931
21
-140.5929711
0
LINE
8
0
10
241.7622931
20
-140.5929711
11
241.3576269
21
-159.1385567
0
LINE
8
0
10
241.7732005
20
-140.0930901
11
260.3187861
21
-140.4977563
0
LINE
8
0
10
260.3187861
20
-140.4977563
11
260.7234523
21
-121.9521707
0
LINE
8
0
10
260.7234523
20
-121.9521707
11
242.1778667
21
-121.5475045
0
LINE
8
0
10
242.1778667
20
-121.5475045
11
241.7732005
21
-140.0930901
0
LINE
8
0
10
242.188774
20
-121.0476234
11
260.7343596
21
-121.4522896
0
LINE
8
0
10
260.7343596
20
-121.4522896
11
261.1390258
21
-102.906704
0
LINE
8
0
10
261.1390258
20
-102.906704
11
242.5934402
21
-102.5020378
0
LINE
8
0
10
242.5934402
20
-102.5020378
11
242.188774
21
-121.0476234
0
LINE
8
0
10
242.6043476
20
-102.0021568
11
261.1499332
21
-102.406823
0
LINE
8
0
10
261.1499332
20
-102.406823
11
261.5545994
21
-83.8612374
0
LINE
8
0
10
261.5545994
20
-83.8612374
11
243.0090138
21
-83.4565712
0
LINE
8
0
10
243.0090138
20
-83.4565712
11
242.6043476
21
-102.0021568
0
LINE
8
0
10
243.0199212
20
-82.9566902
11
261.5655068
21
-83.3613564
0
LINE
8
0
10
261.5655068
20
-83.3613564
11
261.970173
21
-64.8157708
0
LINE
8
0
10
261.970173
20
-64.8157708
11
243.4245874
21
-64.4111046
0
LINE
8
0
10
243.4245874
20
-64.4111046
11
243.0199212
21
-82.9566902
0
LINE
8
0
10
259.7870319
20
-180.4323758
11
278.3227305
21
-181.1606454
0
LINE
8
0
10
278.3227305
20
-181.1606454
11
279.0510001
21
-162.6249468
0
LINE
8
0
10
279.0510001
20
-162.6249468
11
260.5153015
21
-161.8966772
0
LINE
8
0
10
260.5153015
20
-161.8966772
11
259.7870319
21
-180.4323758
0
LINE
8
0
10
260.5349314
20
-161.3970627
11
279.07063
21
-162.1253323
0
LINE
8
0
10
279.07063
20
-162.1253323
11
279.7988996
21
-143.5896337
0
LINE
8
0
10
279.7988996
20
-143.5896337
11
261.263201
21
-142.8613641
0
LINE
8
0
10
261.263201
20
-142.8613641
11
260.5349314
21
-161.3970627
0
LINE
8
0
10
261.2828308
20
-142.3617495
11
279.8185294
21
-143.0900191
0
LINE
8
0
10
279.8185294
20
-143.0900191
11
280.546799
21
-124.5543205
0
LINE
8
0
10
280.546799
20
-124.5543205
11
262.0111004
21
-123.8260509
0
LINE
8
0
10
262.0111004
20
-123.8260509
11
261.2828308
21
-142.3617495
0
LINE
8
0
10
262.0307303
20
-123.3264364
11
280.5664289
21
-124.054706
0
LINE
8
0
10
280.5664289
20
-124.054706
11
281.2946985
21
-105.5190074
0
LINE
8
0
10
281.2946985
20
-105.5190074
11
262.7589999
21
-104.7907378
0
LINE
8
0
10
262.7589999
20
-104.7907378
11
262.0307303
21
-123.3264364
0
LINE
8
0
10
262.7786298
20
-104.2911233
11
281.3143284
21
-105.0193929
0
LINE
8
0
10
281.3143284
20
-105.0193929
11
282.042598
21
-86.4836943
0
LINE
8
0
10
282.042598
20
-86.4836943
11
263.5068994
21
-85.7554247
0
LINE
8
0
10
263.5068994
20
-85.7554247
11
262.7786298
21
-104.2911233
0
LINE
8
0
10
278.6684208
20
-181.0108177
11
297.1885862
21
-182.0624689
0
LINE
8
0
10
297.1885862
20
-182.0624689
11
298.2402374
21
-163.5423035
0
LINE
8
0
10
298.2402374
20
-163.5423035
11
279.720072
21
-162.4906523
0
LINE
8
0
10
279.720072
20
-162.4906523
11
278.6684208
21
-181.0108177
0
LINE
8
0
10
285.1022937
20
-162.2954715
11
303.6224591
21
-163.3471227
0
LINE
8
0
10
303.6224591
20
-163.3471227
11
304.6741103
21
-144.8269573
0
LINE
8
0
10
304.6741103
20
-144.8269573
11
286.1539449
21
-143.7753061
0
LINE
8
0
10
286.1539449
20
-143.7753061
11
285.1022937
21
-162.2954715
0
LINE
8
0
10
280.828416
20
-142.972095
11
299.3485814
21
-144.0237462
0
LINE
8
0
10
299.3485814
20
-144.0237462
11
300.4002326
21
-125.5035808
0
LINE
8
0
10
300.4002326
20
-125.5035808
11
281.8800672
21
-124.4519296
0
LINE
8
0
10
281.8800672
20
-124.4519296
11
280.828416
21
-142.972095
0
LINE
8
0
10
281.9084136
20
-123.9527337
11
300.428579
21
-125.0043849
0
LINE
8
0
10
300.428579
20
-125.0043849
11
301.4802302
21
-106.4842195
0
LINE
8
0
10
301.4802302
20
-106.4842195
11
282.9600648
21
-105.4325683
0
LINE
8
0
10
282.9600648
20
-105.4325683
11
281.9084136
21
-123.9527337
0
LINE
8
0
10
282.9884113
20
-104.9333723
11
301.5085767
21
-105.9850235
0
LINE
8
0
10
301.5085767
20
-105.9850235
11
302.5602279
21
-87.4648581
0
LINE
8
0
10
302.5602279
20
-87.4648581
11
284.0400625
21
-86.4132069
0
LINE
8
0
10
284.0400625
20
-86.4132069
11
282.9884113
21
-104.9333723
0
LINE
8
0
10
284.0684089
20
-85.914011
11
302.5885743
21
-86.9656622
0
LINE
8
0
10
302.5885743
20
-86.9656622
11
303.6402255
21
-68.4454968
0
LINE
8
0
10
303.6402255
20
-68.4454968
11
285.1200601
21
-67.3938456
0
LINE
8
0
10
285.1200601
20
-67.3938456
11
284.0684089
21
-85.914011
0
LINE
8
0
10
305.7081264
20
-144.3208724
11
324.2071173
21
-145.6955849
0
LINE
8
0
10
324.2071173
20
-145.6955849
11
325.5818298
21
-127.196594
0
LINE
8
0
10
325.5818298
20
-127.196594
11
307.0828389
21
-125.8218815
0
LINE
8
0
10
307.0828389
20
-125.8218815
11
305.7081264
21
-144.3208724
0
LINE
8
0
10
301.7721391
20
-124.9258495
11
320.27113
21
-126.300562
0
LINE
8
0
10
320.27113
20
-126.300562
11
321.6458425
21
-107.8015711
0
LINE
8
0
10
321.6458425
20
-107.8015711
11
303.1468516
21
-106.4268586
0
LINE
8
0
10
303.1468516
20
-106.4268586
11
301.7721391
21
-124.9258495
0
LINE
8
0
10
303.1839058
20
-105.9282335
11
321.6828967
21
-107.302946
0
LINE
8
0
10
321.6828967
20
-107.302946
11
323.0576092
21
-88.8039551
0
LINE
8
0
10
323.0576092
20
-88.8039551
11
304.5586183
21
-87.4292426
0
LINE
8
0
10
304.5586183
20
-87.4292426
11
303.1839058
21
-105.9282335
0
LINE
8
0
10
304.5956726
20
-86.9306175
11
323.0946635
21
-88.30533
0
LINE
8
0
10
323.0946635
20
-88.30533
11
324.469376
21
-69.8063391
0
LINE
8
0
10
324.469376
20
-69.8063391
11
305.9703851
21
-68.4316266
0
LINE
8
0
10
305.9703851
20
-68.4316266
11
304.5956726
21
-86.9306175
0
LINE
8
0
10
321.6158558
20
-126.2454866
11
340.0880372
21
-127.9428416
0
LINE
8
0
10
340.0880372
20
-127.9428416
11
341.7853922
21
-109.4706602
0
LINE
8
0
10
341.7853922
20
-109.4706602
11
323.3132108
21
-107.7733052
0
LINE
8
0
10
323.3132108
20
-107.7733052
11
321.6158558
21
-126.2454866
0
LINE
8
0
10
328.6989656
20
-107.7660801
11
347.171147
21
-109.4634351
0
LINE
8
0
10
347.171147
20
-109.4634351
11
348.868502
21
-90.9912537
0
LINE
8
0
10
348.868502
20
-90.9912537
11
330.3963206
21
-89.2938987
0
LINE
8
0
10
330.3963206
20
-89.2938987
11
328.6989656
21
-107.7660801
0
LINE
8
0
10
325.1020676
20
-88.3053188
11
343.574249
21
-90.0026738
0
LINE
8
0
10
343.574249
20
-90.0026738
11
345.271604
21
-71.5304924
0
LINE
8
0
10
345.271604
20
-71.5304924
11
326.7994226
21
-69.8331374
0
LINE
8
0
10
326.7994226
20
-69.8331374
11
325.1020676
21
-88.3053188
0
LINE
8
0
10
345.5813475
20
-90.037697
11
364.0210926
21
-92.0571775
0
LINE
8
0
10
364.0210926
20
-92.0571775
11
366.0405731
21
-73.6174324
0
LINE
8
0
10
366.0405731
20
-73.6174324
11
347.600828
21
-71.5979519
0
LINE
8
0
10
347.600828
20
-71.5979519
11
345.5813475
21
-90.037697
0
LINE
8
0
10
339.1707829
20
-195.072752
11
351.8809274
21
-181.5614705
0
LINE
8
0
10
351.8809274
20
-181.5614705
11
338.3696459
21
-168.851326
0
LINE
8
0
10
338.3696459
20
-168.851326
11
325.6595014
21
-182.3626075
0
LINE
8
0
10
325.6595014
20
-182.3626075
11
339.1707829
21
-195.072752
0
LINE
8
0
10
325.2953159
20
-182.020016
11
338.0054604
21
-168.5087345
0
LINE
8
0
10
338.0054604
20
-168.5087345
11
324.4941789
21
-155.79859
0
LINE
8
0
10
324.4941789
20
-155.79859
11
311.7840344
21
-169.3098715
0
LINE
8
0
10
311.7840344
20
-169.3098715
11
325.2953159
21
-182.020016
0
LINE
8
0
10
352.2235188
20
-181.197285
11
364.9336633
21
-167.6860035
0
LINE
8
0
10
364.9336633
20
-167.6860035
11
351.4223818
21
-154.975859
0
LINE
8
0
10
351.4223818
20
-154.975859
11
338.7122373
21
-168.4871405
0
LINE
8
0
10
338.7122373
20
-168.4871405
11
352.2235188
21
-181.197285
0
LINE
8
0
10
338.3480518
20
-168.144549
11
351.0581963
21
-154.6332675
0
LINE
8
0
10
351.0581963
20
-154.6332675
11
337.5469148
21
-141.923123
0
LINE
8
0
10
337.5469148
20
-141.923123
11
324.8367703
21
-155.4344045
0
LINE
8
0
10
324.8367703
20
-155.4344045
11
338.3480518
21
-168.144549
0
LINE
8
0
10
368.5394388
20
-163.8529513
11
381.2495833
21
-150.3416698
0
LINE
8
0
10
381.2495833
20
-150.3416698
11
367.7383018
21
-137.6315253
0
LINE
8
0
10
367.7383018
20
-137.6315253
11
355.0281573
21
-151.1428068
0
LINE
8
0
10
355.0281573
20
-151.1428068
11
368.5394388
21
-163.8529513
0
LINE
8
0
10
354.6639718
20
-150.8002153
11
367.3741163
21
-137.2889338
0
LINE
8
0
10
367.3741163
20
-137.2889338
11
353.8628348
21
-124.5787893
0
LINE
8
0
10
353.8628348
20
-124.5787893
11
341.1526903
21
-138.0900708
0
LINE
8
0
10
341.1526903
20
-138.0900708
11
354.6639718
21
-150.8002153
0
LINE
8
0
10
381.5921747
20
-149.9774843
11
394.3023192
21
-136.4662028
0
LINE
8
0
10
394.3023192
20
-136.4662028
11
380.7910377
21
-123.7560583
0
LINE
8
0
10
380.7910377
20
-123.7560583
11
368.0808932
21
-137.2673398
0
LINE
8
0
10
368.0808932
20
-137.2673398
11
381.5921747
21
-149.9774843
0
LINE
8
0
10
367.7167077
20
-136.9247483
11
380.4268522
21
-123.4134668
0
LINE
8
0
10
380.4268522
20
-123.4134668
11
366.9155707
21
-110.7033223
0
LINE
8
0
10
366.9155707
20
-110.7033223
11
354.2054262
21
-124.2146038
0
LINE
8
0
10
354.2054262
20
-124.2146038
11
367.7167077
21
-136.9247483
0
LINE
8
0
10
371.9125934
20
-112.0853412
11
390.3523385
21
-114.1048217
0
LINE
8
0
10
390.3523385
20
-114.1048217
11
392.371819
21
-95.6650766
0
LINE
8
0
10
392.371819
20
-95.6650766
11
373.9320739
21
-93.6455961
0
LINE
8
0
10
373.9320739
20
-93.6455961
11
371.9125934
21
-112.0853412
0
LINE
8
0
10
373.9865074
20
-93.1485679
11
392.4262525
21
-95.1680484
0
LINE
8
0
10
392.4262525
20
-95.1680484
11
394.445733
21
-76.7283033
0
LINE
8
0
10
394.445733
20
-76.7283033
11
376.0059879
21
-74.7088228
0
LINE
8
0
10
376.0059879
20
-74.7088228
11
373.9865074
21
-93.1485679
0
LINE
8
0
10
390.8493667
20
-114.1592552
11
409.2891118
21
-116.1787357
0
LINE
8
0
10
409.2891118
20
-116.1787357
11
411.3085923
21
-97.7389906
0
LINE
8
0
10
411.3085923
20
-97.7389906
11
392.8688472
21
-95.7195101
0
LINE
8
0
10
392.8688472
20
-95.7195101
11
390.8493667
21
-114.1592552
0
LINE
8
0
10
392.9232806
20
-95.2224819
11
411.3630257
21
-97.2419624
0
LINE
8
0
10
411.3630257
20
-97.2419624
11
413.3825062
21
-78.8022173
0
LINE
8
0
10
413.3825062
20
-78.8022173
11
394.9427611
21
-76.7827368
0
LINE
8
0
10
394.9427611
20
-76.7827368
11
392.9232806
21
-95.2224819
0
CIRCLE
8
0
10
25.6525833
20
-64.5707292
40
1.5
0
CIRCLE
8
0
10
149.7979288
20
-94.2448753
40
1.5
0
CIRCLE
8
0
10
178.2818538
20
-94.3347446
40
1.5
0
CIRCLE
8
0
10
147.5542304
20
-151.3508147
40
1.5
0
CIRCLE
8
0
10
180.0271299
20
-151.4580894
40
1.5
0
CIRCLE
8
0
10
412.1055918
20
-74.3869609
40
1.5
0
CIRCLE
8
0
10
398.4751154
20
-124.7916516
40
1.5
0
CIRCLE
8
0
10
317.1418314
20
-185.9662108
40
1.5
0
CIRCLE
8
0
10
25.8771625
20
-173.4603532
40
1.5
0
ENDSEC
0
EOF