<?xml version="1.0"?>
<svg
  xmlns="http://www.w3.org/2000/svg"
  xmlns:xlink="http://www.w3.org/1999/xlink" version="1.1"
  preserveAspectRatio="xMinYMin meet"
  viewBox="12.8707637 55.8123631 385.2658975 144.8200579"
  width="100%" height="100%"
>
  <g stroke="#000000" stroke-width="0.1%" fill="none" transform="matrix(1,0,0,-1,0,0)">
    <g stroke="rgb(0, 0, 0)"><path d="M12.9275946,-104.9748206L23.6269389,-61.0558185" /></g>
<g stroke="rgb(0, 0, 0)"><path d="M25.552655,-59.5292806L36.4706467,-59.4340006" /></g>
<g stroke="rgb(0, 0, 0)"><path d="M36.5693483,-59.430701L76.5924126,-57.1023392" /></g>
<g stroke="rgb(0, 0, 0)"><path d="M76.6328126,-57.1003986L97.5693841,-56.3068077" /></g>
<g stroke="rgb(0, 0, 0)"><path d="M97.7939133,-56.3109137L118.6880646,-57.8694919" /></g>
<g stroke="rgb(0, 0, 0)"><path d="M118.7305606,-57.8722073L150.0494945,-59.5388298" /></g>
<g stroke="rgb(0, 0, 0)"><path d="M151.2646342,-60.03472L156.1902746,-64.3702295" /></g>
<g stroke="rgb(0, 0, 0)"><path d="M157.5156756,-64.8689415L160.3434475,-64.8633101" /></g>
<g stroke="rgb(0, 0, 0)"><path d="M161.6608829,-64.3645982L166.5922509,-60.0240473" /></g>
<g stroke="rgb(0, 0, 0)"><path d="M167.8018993,-59.528457L198.5993909,-57.8046479" /></g>
<g stroke="rgb(0, 0, 0)"><path d="M198.6765581,-57.7988292L219.5160726,-55.8213074" /></g>
<g stroke="rgb(0, 0, 0)"><path d="M219.7404734,-55.8126775L240.682976,-56.1840868" /></g>
<g stroke="rgb(0, 0, 0)"><path d="M240.7383504,-56.1858364L280.8054487,-58.007529" /></g>
<g stroke="rgb(0, 0, 0)"><path d="M280.8875603,-58.009574L396.1453878,-58.5124844" /></g>
<g stroke="rgb(0, 0, 0)"><path d="M398.1366422,-60.521192L397.9212388,-109.8876583" /></g>
<g stroke="rgb(0, 0, 0)"><path d="M397.8766158,-110.2991401L392.3345507,-136.0880653" /></g>
<g stroke="rgb(0, 0, 0)"><path d="M334.6666457,-199.9771547L391.859629,-137.0125905" /></g>
<g stroke="rgb(0, 0, 0)"><path d="M332.4771156,-200.5024975L294.1522639,-185.9705171" /></g>
<g stroke="rgb(0, 0, 0)"><path d="M261.3274564,-185.7004425L293.4518966,-185.8406126" /></g>
<g stroke="rgb(0, 0, 0)"><path d="M261.1512102,-185.6918894L242.4742096,-183.9570854" /></g>
<g stroke="rgb(0, 0, 0)"><path d="M242.29179,-183.9485149L211.1897073,-183.9088109" /></g>
<g stroke="rgb(0, 0, 0)"><path d="M210.8349487,-183.9400657L199.8621289,-185.9030869" /></g>
<g stroke="rgb(0, 0, 0)"><path d="M199.6589925,-185.9287802L162.3506109,-188.7172993" /></g>
<g stroke="rgb(0, 0, 0)"><path d="M162.2041203,-188.7228607L155.6530349,-188.731306" /></g>
<g stroke="rgb(0, 0, 0)"><path d="M155.5013875,-188.7257446L118.157267,-185.9345544" /></g>
<g stroke="rgb(0, 0, 0)"><path d="M118.0298776,-185.920918L107.0114563,-184.3830871" /></g>
<g stroke="rgb(0, 0, 0)"><path d="M106.7024979,-184.3641518L75.5960205,-184.8696995" /></g>
<g stroke="rgb(0, 0, 0)"><path d="M75.3997509,-184.8825624L56.7896598,-187.0253382" /></g>
<g stroke="rgb(0, 0, 0)"><path d="M26.2380608,-187.3031646L56.5783432,-187.038389" /></g>
<g stroke="rgb(0, 0, 0)"><path d="M24.5184976,-186.3533936L13.712693,-168.8391144" /></g>
<g stroke="rgb(0, 0, 0)"><path d="M13.4148794,-167.8064146L12.8708399,-105.4656594" /></g>
<g stroke="rgb(0, 0, 0)"><path d="M 25.552654998813765 -59.52928055326243 A 2 2 0 0 1 23.626938970575807 -61.055818592136426" /></g>
<g stroke="rgb(0, 0, 0)"><path d="M 36.47064670118623 -59.434000646737566 A 2 2 0 0 1 36.56934829782673 -59.430700978307904" /></g>
<g stroke="rgb(0, 0, 0)"><path d="M 76.63281259979905 -57.10039860481612 A 2 2 0 0 1 76.59241260217327 -57.1023392216921" /></g>
<g stroke="rgb(0, 0, 0)"><path d="M 97.79391330556632 -56.31091364689257 A 2 2 0 0 1 97.56938409979905 -56.306807704816116" /></g>
<g stroke="rgb(0, 0, 0)"><path d="M 118.68806459443368 -57.86949195310743 A 2 2 0 0 1 118.73056059825728 -57.872207318442555" /></g>
<g stroke="rgb(0, 0, 0)"><path d="M 151.26463414895224 -60.034719945819695 A 2 2 0 0 1 150.04949450174274 -59.538829781557446" /></g>
<g stroke="rgb(0, 0, 0)"><path d="M 156.19027455104776 -64.37022955418031 A 2 2 0 0 1 157.5156756003234 -64.86894153432146" /></g>
<g stroke="rgb(0, 0, 0)"><path d="M 160.3434475003234 -64.86331013432147 A 2 2 0 0 1 161.66088294895223 -64.3645981541803" /></g>
<g stroke="rgb(0, 0, 0)"><path d="M 167.80189929809004 -59.528456964443016 A 2 2 0 0 1 166.59225085104777 -60.024047345819696" /></g>
<g stroke="rgb(0, 0, 0)"><path d="M 198.59939090190997 -57.804647935556986 A 2 2 0 0 1 198.67655810943756 -57.79882920149728" /></g>
<g stroke="rgb(0, 0, 0)"><path d="M 219.7404734006918 -55.81267754500879 A 2 2 0 0 1 219.51607259056246 -55.821307398502725" /></g>
<g stroke="rgb(0, 0, 0)"><path d="M 240.7383504003319 -56.18583635964224 A 2 2 0 0 1 240.68297600069178 -56.18408684500879" /></g>
<g stroke="rgb(0, 0, 0)"><path d="M 280.8054486996681 -58.00752904035777 A 2 2 0 0 1 280.8875602988836 -58.009573961517624" /></g>
<g stroke="rgb(0, 0, 0)"><path d="M 398.1366421615176 -60.52119200111637 A 2 2 0 0 1 396.1453878011164 -58.51248443848238" /></g>
<g stroke="rgb(0, 0, 0)"><path d="M 397.8766157980494 -110.29914010004016 A 2 2 0 0 1 397.9212387615176 -109.88765830111636" /></g>
<g stroke="rgb(0, 0, 0)"><path d="M 391.85962893854463 -137.01259053295627 A 2 2 0 0 1 392.3345506980494 -136.08806530004017" /></g>
<g stroke="rgb(0, 0, 0)"><path d="M 332.4771156800923 -200.50249745687782 A 2 2 0 0 1 334.6666457385447 -199.97715463295629" /></g>
<g stroke="rgb(0, 0, 0)"><path d="M 294.15226381990766 -185.97051714312218 A 2 2 0 0 1 293.4518966011164 -185.84061263848238" /></g>
<g stroke="rgb(0, 0, 0)"><path d="M 261.15121018948145 -185.69188939459443 A 2 2 0 0 1 261.3274563988836 -185.7004424615176" /></g>
<g stroke="rgb(0, 0, 0)"><path d="M 242.47420961051859 -183.95708540540556 A 2 2 0 0 1 242.29178999958134 -183.9485149297077" /></g>
<g stroke="rgb(0, 0, 0)"><path d="M 211.18970729958133 -183.9088109297077 A 2 2 0 0 1 210.8349487004823 -183.94006570152138" /></g>
<g stroke="rgb(0, 0, 0)"><path d="M 199.658992504971 -185.9287801708377 A 2 2 0 0 1 199.8621288995177 -185.90308689847862" /></g>
<g stroke="rgb(0, 0, 0)"><path d="M 162.20412029862433 -188.72286073796445 A 2 2 0 0 1 162.35061090497098 -188.7172992708377" /></g>
<g stroke="rgb(0, 0, 0)"><path d="M 155.501387495029 -188.72574457083772 A 2 2 0 0 1 155.65303489862433 -188.73130603796446" /></g>
<g stroke="rgb(0, 0, 0)"><path d="M 118.0298776075253 -185.92091803443813 A 2 2 0 0 1 118.15726699502902 -185.93455437083773" /></g>
<g stroke="rgb(0, 0, 0)"><path d="M 107.0114562924747 -184.38308716556188 A 2 2 0 0 1 106.70249789993503 -184.3641517799356" /></g>
<g stroke="rgb(0, 0, 0)"><path d="M 75.59602049993502 -184.8696994799356 A 2 2 0 0 1 75.39975089436153 -184.88256236240144" /></g>
<g stroke="rgb(0, 0, 0)"><path d="M 56.578343201186236 -187.03838904673756 A 2 2 0 0 1 56.789659805638465 -187.02533823759853" /></g>
<g stroke="rgb(0, 0, 0)"><path d="M 24.51849760688449 -186.3533935938792 A 2 2 0 0 1 26.238060801186236 -187.30316464673757" /></g>
<g stroke="rgb(0, 0, 0)"><path d="M 13.414879353262432 -167.80641460118622 A 2 2 0 0 1 13.712693006884493 -168.83911439387919" /></g>
<g stroke="rgb(0, 0, 0)"><path d="M 12.927594670575807 -104.97482059213644 A 2 2 0 0 1 12.870839853262432 -105.46565940118624" /></g>
<g stroke="rgb(0, 0, 0)"><path d="M30.5871252,-181.7400005L44.5865921,-181.617829" /></g>
<g stroke="rgb(0, 0, 0)"><path d="M44.5865921,-181.617829L44.4644206,-167.6183621" /></g>
<g stroke="rgb(0, 0, 0)"><path d="M44.4644206,-167.6183621L30.4649537,-167.7405336" /></g>
<g stroke="rgb(0, 0, 0)"><path d="M30.4649537,-167.7405336L30.5871252,-181.7400005" /></g>
<g stroke="rgb(0, 0, 0)"><path d="M25.1585851,-162.7366492L39.158052,-162.6144777" /></g>
<g stroke="rgb(0, 0, 0)"><path d="M39.158052,-162.6144777L39.0358805,-148.6150108" /></g>
<g stroke="rgb(0, 0, 0)"><path d="M39.0358805,-148.6150108L25.0364136,-148.7371823" /></g>
<g stroke="rgb(0, 0, 0)"><path d="M25.0364136,-148.7371823L25.1585851,-162.7366492" /></g>
<g stroke="rgb(0, 0, 0)"><path d="M24.9923446,-143.6873746L38.9918115,-143.5652031" /></g>
<g stroke="rgb(0, 0, 0)"><path d="M38.9918115,-143.5652031L38.86964,-129.5657362" /></g>
<g stroke="rgb(0, 0, 0)"><path d="M38.86964,-129.5657362L24.8701731,-129.6879077" /></g>
<g stroke="rgb(0, 0, 0)"><path d="M24.8701731,-129.6879077L24.9923446,-143.6873746" /></g>
<g stroke="rgb(0, 0, 0)"><path d="M24.8261041,-124.6380999L38.825571,-124.5159284" /></g>
<g stroke="rgb(0, 0, 0)"><path d="M38.825571,-124.5159284L38.7033995,-110.5164615" /></g>
<g stroke="rgb(0, 0, 0)"><path d="M38.7033995,-110.5164615L24.7039326,-110.638633" /></g>
<g stroke="rgb(0, 0, 0)"><path d="M24.7039326,-110.638633L24.8261041,-124.6380999" /></g>
<g stroke="rgb(0, 0, 0)"><path d="M29.9221632,-105.5429019L43.9216301,-105.4207304" /></g>
<g stroke="rgb(0, 0, 0)"><path d="M43.9216301,-105.4207304L43.7994586,-91.4212635" /></g>
<g stroke="rgb(0, 0, 0)"><path d="M43.7994586,-91.4212635L29.7999917,-91.543435" /></g>
<g stroke="rgb(0, 0, 0)"><path d="M29.7999917,-91.543435L29.9221632,-105.5429019" /></g>
<g stroke="rgb(0, 0, 0)"><path d="M29.7559227,-86.4936273L43.7553896,-86.3714558" /></g>
<g stroke="rgb(0, 0, 0)"><path d="M43.7553896,-86.3714558L43.6332181,-72.3719889" /></g>
<g stroke="rgb(0, 0, 0)"><path d="M43.6332181,-72.3719889L29.6337512,-72.4941604" /></g>
<g stroke="rgb(0, 0, 0)"><path d="M29.6337512,-72.4941604L29.7559227,-86.4936273" /></g>
<g stroke="rgb(0, 0, 0)"><path d="M49.6363999,-181.57376L63.6358668,-181.4515885" /></g>
<g stroke="rgb(0, 0, 0)"><path d="M63.6358668,-181.4515885L63.5136953,-167.4521216" /></g>
<g stroke="rgb(0, 0, 0)"><path d="M63.5136953,-167.4521216L49.5142284,-167.5742931" /></g>
<g stroke="rgb(0, 0, 0)"><path d="M49.5142284,-167.5742931L49.6363999,-181.57376" /></g>
<g stroke="rgb(0, 0, 0)"><path d="M49.4701594,-162.5244853L63.4696263,-162.4023138" /></g>
<g stroke="rgb(0, 0, 0)"><path d="M63.4696263,-162.4023138L63.3474548,-148.4028469" /></g>
<g stroke="rgb(0, 0, 0)"><path d="M63.3474548,-148.4028469L49.3479879,-148.5250184" /></g>
<g stroke="rgb(0, 0, 0)"><path d="M49.3479879,-148.5250184L49.4701594,-162.5244853" /></g>
<g stroke="rgb(0, 0, 0)"><path d="M49.3039189,-143.4752107L63.3033858,-143.3530392" /></g>
<g stroke="rgb(0, 0, 0)"><path d="M63.3033858,-143.3530392L63.1812143,-129.3535723" /></g>
<g stroke="rgb(0, 0, 0)"><path d="M63.1812143,-129.3535723L49.1817474,-129.4757438" /></g>
<g stroke="rgb(0, 0, 0)"><path d="M49.1817474,-129.4757438L49.3039189,-143.4752107" /></g>
<g stroke="rgb(0, 0, 0)"><path d="M49.1376784,-124.4259361L63.1371453,-124.3037646" /></g>
<g stroke="rgb(0, 0, 0)"><path d="M63.1371453,-124.3037646L63.0149738,-110.3042977" /></g>
<g stroke="rgb(0, 0, 0)"><path d="M63.0149738,-110.3042977L49.0155069,-110.4264692" /></g>
<g stroke="rgb(0, 0, 0)"><path d="M49.0155069,-110.4264692L49.1376784,-124.4259361" /></g>
<g stroke="rgb(0, 0, 0)"><path d="M48.9714379,-105.3766614L62.9709048,-105.2544899" /></g>
<g stroke="rgb(0, 0, 0)"><path d="M62.9709048,-105.2544899L62.8487333,-91.255023" /></g>
<g stroke="rgb(0, 0, 0)"><path d="M62.8487333,-91.255023L48.8492664,-91.3771945" /></g>
<g stroke="rgb(0, 0, 0)"><path d="M48.8492664,-91.3771945L48.9714379,-105.3766614" /></g>
<g stroke="rgb(0, 0, 0)"><path d="M68.5460499,-179.2854241L82.5455168,-179.4075956" /></g>
<g stroke="rgb(0, 0, 0)"><path d="M82.5455168,-179.4075956L82.6676883,-165.4081287" /></g>
<g stroke="rgb(0, 0, 0)"><path d="M82.6676883,-165.4081287L68.6682214,-165.2859572" /></g>
<g stroke="rgb(0, 0, 0)"><path d="M68.6682214,-165.2859572L68.5460499,-179.2854241" /></g>
<g stroke="rgb(0, 0, 0)"><path d="M68.7122904,-160.2361495L82.7117573,-160.358321" /></g>
<g stroke="rgb(0, 0, 0)"><path d="M82.7117573,-160.358321L82.8339288,-146.3588541" /></g>
<g stroke="rgb(0, 0, 0)"><path d="M82.8339288,-146.3588541L68.8344619,-146.2366826" /></g>
<g stroke="rgb(0, 0, 0)"><path d="M68.8344619,-146.2366826L68.7122904,-160.2361495" /></g>
<g stroke="rgb(0, 0, 0)"><path d="M68.8785309,-141.1868748L82.8779978,-141.3090463" /></g>
<g stroke="rgb(0, 0, 0)"><path d="M82.8779978,-141.3090463L83.0001693,-127.3095794" /></g>
<g stroke="rgb(0, 0, 0)"><path d="M83.0001693,-127.3095794L69.0007024,-127.1874079" /></g>
<g stroke="rgb(0, 0, 0)"><path d="M69.0007024,-127.1874079L68.8785309,-141.1868748" /></g>
<g stroke="rgb(0, 0, 0)"><path d="M69.0447713,-122.1376002L83.0442382,-122.2597717" /></g>
<g stroke="rgb(0, 0, 0)"><path d="M83.0442382,-122.2597717L83.1664097,-108.2603048" /></g>
<g stroke="rgb(0, 0, 0)"><path d="M83.1664097,-108.2603048L69.1669428,-108.1381333" /></g>
<g stroke="rgb(0, 0, 0)"><path d="M69.1669428,-108.1381333L69.0447713,-122.1376002" /></g>
<g stroke="rgb(0, 0, 0)"><path d="M69.2110118,-103.0883255L83.2104787,-103.210497" /></g>
<g stroke="rgb(0, 0, 0)"><path d="M83.2104787,-103.210497L83.3326502,-89.2110301" /></g>
<g stroke="rgb(0, 0, 0)"><path d="M83.3326502,-89.2110301L69.3331833,-89.0888586" /></g>
<g stroke="rgb(0, 0, 0)"><path d="M69.3331833,-89.0888586L69.2110118,-103.0883255" /></g>
<g stroke="rgb(0, 0, 0)"><path d="M69.3772522,-84.0390509L83.3767191,-84.1612224" /></g>
<g stroke="rgb(0, 0, 0)"><path d="M83.3767191,-84.1612224L83.4988906,-70.1617555" /></g>
<g stroke="rgb(0, 0, 0)"><path d="M83.4988906,-70.1617555L69.4994237,-70.039584" /></g>
<g stroke="rgb(0, 0, 0)"><path d="M69.4994237,-70.039584L69.3772522,-84.0390509" /></g>
<g stroke="rgb(0, 0, 0)"><path d="M87.4840304,-178.3274175L101.4792329,-178.6938948" /></g>
<g stroke="rgb(0, 0, 0)"><path d="M101.4792329,-178.6938948L101.8457102,-164.6986923" /></g>
<g stroke="rgb(0, 0, 0)"><path d="M101.8457102,-164.6986923L87.8505077,-164.332215" /></g>
<g stroke="rgb(0, 0, 0)"><path d="M87.8505077,-164.332215L87.4840304,-178.3274175" /></g>
<g stroke="rgb(0, 0, 0)"><path d="M87.9827013,-159.2839455L101.9779038,-159.6504228" /></g>
<g stroke="rgb(0, 0, 0)"><path d="M101.9779038,-159.6504228L102.3443811,-145.6552203" /></g>
<g stroke="rgb(0, 0, 0)"><path d="M102.3443811,-145.6552203L88.3491786,-145.288743" /></g>
<g stroke="rgb(0, 0, 0)"><path d="M88.3491786,-145.288743L87.9827013,-159.2839455" /></g>
<g stroke="rgb(0, 0, 0)"><path d="M88.4813721,-140.2404734L102.4765746,-140.6069507" /></g>
<g stroke="rgb(0, 0, 0)"><path d="M102.4765746,-140.6069507L102.8430519,-126.6117482" /></g>
<g stroke="rgb(0, 0, 0)"><path d="M102.8430519,-126.6117482L88.8478494,-126.2452709" /></g>
<g stroke="rgb(0, 0, 0)"><path d="M88.8478494,-126.2452709L88.4813721,-140.2404734" /></g>
<g stroke="rgb(0, 0, 0)"><path d="M88.980043,-121.1970013L102.9752455,-121.5634786" /></g>
<g stroke="rgb(0, 0, 0)"><path d="M102.9752455,-121.5634786L103.3417228,-107.5682761" /></g>
<g stroke="rgb(0, 0, 0)"><path d="M103.3417228,-107.5682761L89.3465203,-107.2017988" /></g>
<g stroke="rgb(0, 0, 0)"><path d="M89.3465203,-107.2017988L88.980043,-121.1970013" /></g>
<g stroke="rgb(0, 0, 0)"><path d="M89.4787138,-102.1535292L103.4739163,-102.5200065" /></g>
<g stroke="rgb(0, 0, 0)"><path d="M103.4739163,-102.5200065L103.8403936,-88.524804" /></g>
<g stroke="rgb(0, 0, 0)"><path d="M103.8403936,-88.524804L89.8451911,-88.1583267" /></g>
<g stroke="rgb(0, 0, 0)"><path d="M89.8451911,-88.1583267L89.4787138,-102.1535292" /></g>
<g stroke="rgb(0, 0, 0)"><path d="M89.9773847,-83.1100571L103.9725872,-83.4765344" /></g>
<g stroke="rgb(0, 0, 0)"><path d="M103.9725872,-83.4765344L104.3390645,-69.4813319" /></g>
<g stroke="rgb(0, 0, 0)"><path d="M104.3390645,-69.4813319L90.343862,-69.1148546" /></g>
<g stroke="rgb(0, 0, 0)"><path d="M90.343862,-69.1148546L89.9773847,-83.1100571" /></g>
<g stroke="rgb(0, 0, 0)"><path d="M107.2144415,-160.6675164L121.2011166,-161.2781879" /></g>
<g stroke="rgb(0, 0, 0)"><path d="M121.2011166,-161.2781879L121.8117881,-147.2915128" /></g>
<g stroke="rgb(0, 0, 0)"><path d="M121.8117881,-147.2915128L107.825113,-146.6808413" /></g>
<g stroke="rgb(0, 0, 0)"><path d="M107.825113,-146.6808413L107.2144415,-160.6675164" /></g>
<g stroke="rgb(0, 0, 0)"><path d="M108.0453909,-141.6356478L122.032066,-142.2463193" /></g>
<g stroke="rgb(0, 0, 0)"><path d="M122.032066,-142.2463193L122.6427375,-128.2596442" /></g>
<g stroke="rgb(0, 0, 0)"><path d="M122.6427375,-128.2596442L108.6560624,-127.6489727" /></g>
<g stroke="rgb(0, 0, 0)"><path d="M108.6560624,-127.6489727L108.0453909,-141.6356478" /></g>
<g stroke="rgb(0, 0, 0)"><path d="M108.8763402,-122.6037792L122.8630153,-123.2144507" /></g>
<g stroke="rgb(0, 0, 0)"><path d="M122.8630153,-123.2144507L123.4736868,-109.2277756" /></g>
<g stroke="rgb(0, 0, 0)"><path d="M123.4736868,-109.2277756L109.4870117,-108.6171041" /></g>
<g stroke="rgb(0, 0, 0)"><path d="M109.4870117,-108.6171041L108.8763402,-122.6037792" /></g>
<g stroke="rgb(0, 0, 0)"><path d="M109.7072896,-103.5719107L123.6939647,-104.1825822" /></g>
<g stroke="rgb(0, 0, 0)"><path d="M123.6939647,-104.1825822L124.3046362,-90.1959071" /></g>
<g stroke="rgb(0, 0, 0)"><path d="M124.3046362,-90.1959071L110.3179611,-89.5852356" /></g>
<g stroke="rgb(0, 0, 0)"><path d="M110.3179611,-89.5852356L109.7072896,-103.5719107" /></g>
<g stroke="rgb(0, 0, 0)"><path d="M110.538239,-84.5400421L124.5249141,-85.1507136" /></g>
<g stroke="rgb(0, 0, 0)"><path d="M124.5249141,-85.1507136L125.1355856,-71.1640385" /></g>
<g stroke="rgb(0, 0, 0)"><path d="M125.1355856,-71.1640385L111.1489105,-70.553367" /></g>
<g stroke="rgb(0, 0, 0)"><path d="M111.1489105,-70.553367L110.538239,-84.5400421" /></g>
<g stroke="rgb(0, 0, 0)"><path d="M123.8770711,-180.6762192L137.8609485,-181.347913" /></g>
<g stroke="rgb(0, 0, 0)"><path d="M137.8609485,-181.347913L138.5326423,-167.3640356" /></g>
<g stroke="rgb(0, 0, 0)"><path d="M138.5326423,-167.3640356L124.5487649,-166.6923418" /></g>
<g stroke="rgb(0, 0, 0)"><path d="M124.5487649,-166.6923418L123.8770711,-180.6762192" /></g>
<g stroke="rgb(0, 0, 0)"><path d="M126.289327,-161.7201247L140.2732044,-162.3918185" /></g>
<g stroke="rgb(0, 0, 0)"><path d="M140.2732044,-162.3918185L140.9448982,-148.4079411" /></g>
<g stroke="rgb(0, 0, 0)"><path d="M140.9448982,-148.4079411L126.9610208,-147.7362473" /></g>
<g stroke="rgb(0, 0, 0)"><path d="M126.9610208,-147.7362473L126.289327,-161.7201247" /></g>
<g stroke="rgb(0, 0, 0)"><path d="M127.2033104,-142.6920629L141.1871878,-143.3637567" /></g>
<g stroke="rgb(0, 0, 0)"><path d="M141.1871878,-143.3637567L141.8588816,-129.3798793" /></g>
<g stroke="rgb(0, 0, 0)"><path d="M141.8588816,-129.3798793L127.8750042,-128.7081855" /></g>
<g stroke="rgb(0, 0, 0)"><path d="M127.8750042,-128.7081855L127.2033104,-142.6920629" /></g>
<g stroke="rgb(0, 0, 0)"><path d="M128.1172937,-123.6640012L142.1011711,-124.335695" /></g>
<g stroke="rgb(0, 0, 0)"><path d="M142.1011711,-124.335695L142.7728649,-110.3518176" /></g>
<g stroke="rgb(0, 0, 0)"><path d="M142.7728649,-110.3518176L128.7889875,-109.6801238" /></g>
<g stroke="rgb(0, 0, 0)"><path d="M128.7889875,-109.6801238L128.1172937,-123.6640012" /></g>
<g stroke="rgb(0, 0, 0)"><path d="M129.0312771,-104.6359395L143.0151545,-105.3076333" /></g>
<g stroke="rgb(0, 0, 0)"><path d="M143.0151545,-105.3076333L143.6868483,-91.3237559" /></g>
<g stroke="rgb(0, 0, 0)"><path d="M143.6868483,-91.3237559L129.7029709,-90.6520621" /></g>
<g stroke="rgb(0, 0, 0)"><path d="M129.7029709,-90.6520621L129.0312771,-104.6359395" /></g>
<g stroke="rgb(0, 0, 0)"><path d="M129.9452604,-85.6078777L143.9291378,-86.2795715" /></g>
<g stroke="rgb(0, 0, 0)"><path d="M143.9291378,-86.2795715L144.6008316,-72.2956941" /></g>
<g stroke="rgb(0, 0, 0)"><path d="M144.6008316,-72.2956941L130.6169542,-71.6240003" /></g>
<g stroke="rgb(0, 0, 0)"><path d="M130.6169542,-71.6240003L129.9452604,-85.6078777" /></g>
<g stroke="rgb(0, 0, 0)"><path d="M179.9936247,-181.3392752L193.9775021,-180.6675814" /></g>
<g stroke="rgb(0, 0, 0)"><path d="M193.9775021,-180.6675814L193.3058083,-166.683704" /></g>
<g stroke="rgb(0, 0, 0)"><path d="M193.3058083,-166.683704L179.3219309,-167.3553978" /></g>
<g stroke="rgb(0, 0, 0)"><path d="M179.3219309,-167.3553978L179.9936247,-181.3392752" /></g>
<g stroke="rgb(0, 0, 0)"><path d="M177.5813687,-162.3831807L191.5652461,-161.7114869" /></g>
<g stroke="rgb(0, 0, 0)"><path d="M191.5652461,-161.7114869L190.8935523,-147.7276095" /></g>
<g stroke="rgb(0, 0, 0)"><path d="M190.8935523,-147.7276095L176.9096749,-148.3993033" /></g>
<g stroke="rgb(0, 0, 0)"><path d="M176.9096749,-148.3993033L177.5813687,-162.3831807" /></g>
<g stroke="rgb(0, 0, 0)"><path d="M176.6673853,-143.355119L190.6512627,-142.6834252" /></g>
<g stroke="rgb(0, 0, 0)"><path d="M190.6512627,-142.6834252L189.9795689,-128.6995478" /></g>
<g stroke="rgb(0, 0, 0)"><path d="M189.9795689,-128.6995478L175.9956915,-129.3712416" /></g>
<g stroke="rgb(0, 0, 0)"><path d="M175.9956915,-129.3712416L176.6673853,-143.355119" /></g>
<g stroke="rgb(0, 0, 0)"><path d="M175.753402,-124.3270573L189.7372794,-123.6553635" /></g>
<g stroke="rgb(0, 0, 0)"><path d="M189.7372794,-123.6553635L189.0655856,-109.6714861" /></g>
<g stroke="rgb(0, 0, 0)"><path d="M189.0655856,-109.6714861L175.0817082,-110.3431799" /></g>
<g stroke="rgb(0, 0, 0)"><path d="M175.0817082,-110.3431799L175.753402,-124.3270573" /></g>
<g stroke="rgb(0, 0, 0)"><path d="M174.8394186,-105.2989955L188.823296,-104.6273017" /></g>
<g stroke="rgb(0, 0, 0)"><path d="M188.823296,-104.6273017L188.1516022,-90.6434243" /></g>
<g stroke="rgb(0, 0, 0)"><path d="M188.1516022,-90.6434243L174.1677248,-91.3151181" /></g>
<g stroke="rgb(0, 0, 0)"><path d="M174.1677248,-91.3151181L174.8394186,-105.2989955" /></g>
<g stroke="rgb(0, 0, 0)"><path d="M173.9254353,-86.2709338L187.9093127,-85.59924" /></g>
<g stroke="rgb(0, 0, 0)"><path d="M187.9093127,-85.59924L187.2376189,-71.6153626" /></g>
<g stroke="rgb(0, 0, 0)"><path d="M187.2376189,-71.6153626L173.2537415,-72.2870564" /></g>
<g stroke="rgb(0, 0, 0)"><path d="M173.2537415,-72.2870564L173.9254353,-86.2709338" /></g>
<g stroke="rgb(0, 0, 0)"><path d="M196.597436,-161.2194853L210.5813134,-160.5477915" /></g>
<g stroke="rgb(0, 0, 0)"><path d="M210.5813134,-160.5477915L209.9096196,-146.5639141" /></g>
<g stroke="rgb(0, 0, 0)"><path d="M209.9096196,-146.5639141L195.9257422,-147.2356079" /></g>
<g stroke="rgb(0, 0, 0)"><path d="M195.9257422,-147.2356079L196.597436,-161.2194853" /></g>
<g stroke="rgb(0, 0, 0)"><path d="M195.6834526,-142.1914236L209.66733,-141.5197298" /></g>
<g stroke="rgb(0, 0, 0)"><path d="M209.66733,-141.5197298L208.9956362,-127.5358524" /></g>
<g stroke="rgb(0, 0, 0)"><path d="M208.9956362,-127.5358524L195.0117588,-128.2075462" /></g>
<g stroke="rgb(0, 0, 0)"><path d="M195.0117588,-128.2075462L195.6834526,-142.1914236" /></g>
<g stroke="rgb(0, 0, 0)"><path d="M194.7694692,-123.1633619L208.7533466,-122.4916681" /></g>
<g stroke="rgb(0, 0, 0)"><path d="M208.7533466,-122.4916681L208.0816528,-108.5077907" /></g>
<g stroke="rgb(0, 0, 0)"><path d="M208.0816528,-108.5077907L194.0977754,-109.1794845" /></g>
<g stroke="rgb(0, 0, 0)"><path d="M194.0977754,-109.1794845L194.7694692,-123.1633619" /></g>
<g stroke="rgb(0, 0, 0)"><path d="M193.8554859,-104.1353001L207.8393633,-103.4636063" /></g>
<g stroke="rgb(0, 0, 0)"><path d="M207.8393633,-103.4636063L207.1676695,-89.4797289" /></g>
<g stroke="rgb(0, 0, 0)"><path d="M207.1676695,-89.4797289L193.1837921,-90.1514227" /></g>
<g stroke="rgb(0, 0, 0)"><path d="M193.1837921,-90.1514227L193.8554859,-104.1353001" /></g>
<g stroke="rgb(0, 0, 0)"><path d="M192.9415025,-85.1072384L206.9253799,-84.4355446" /></g>
<g stroke="rgb(0, 0, 0)"><path d="M206.9253799,-84.4355446L206.2536861,-70.4516672" /></g>
<g stroke="rgb(0, 0, 0)"><path d="M206.2536861,-70.4516672L192.2698087,-71.123361" /></g>
<g stroke="rgb(0, 0, 0)"><path d="M192.2698087,-71.123361L192.9415025,-85.1072384" /></g>
<g stroke="rgb(0, 0, 0)"><path d="M216.3646292,-178.2174343L230.3580994,-177.7898951" /></g>
<g stroke="rgb(0, 0, 0)"><path d="M230.3580994,-177.7898951L229.9305602,-163.7964249" /></g>
<g stroke="rgb(0, 0, 0)"><path d="M229.9305602,-163.7964249L215.93709,-164.2239641" /></g>
<g stroke="rgb(0, 0, 0)"><path d="M215.93709,-164.2239641L216.3646292,-178.2174343" /></g>
<g stroke="rgb(0, 0, 0)"><path d="M215.7828705,-159.1763194L229.7763407,-158.7487802" /></g>
<g stroke="rgb(0, 0, 0)"><path d="M229.7763407,-158.7487802L229.3488015,-144.75531" /></g>
<g stroke="rgb(0, 0, 0)"><path d="M229.3488015,-144.75531L215.3553313,-145.1828492" /></g>
<g stroke="rgb(0, 0, 0)"><path d="M215.3553313,-145.1828492L215.7828705,-159.1763194" /></g>
<g stroke="rgb(0, 0, 0)"><path d="M215.2011118,-140.1352045L229.194582,-139.7076653" /></g>
<g stroke="rgb(0, 0, 0)"><path d="M229.194582,-139.7076653L228.7670428,-125.7141951" /></g>
<g stroke="rgb(0, 0, 0)"><path d="M228.7670428,-125.7141951L214.7735726,-126.1417343" /></g>
<g stroke="rgb(0, 0, 0)"><path d="M214.7735726,-126.1417343L215.2011118,-140.1352045" /></g>
<g stroke="rgb(0, 0, 0)"><path d="M214.6193531,-121.0940896L228.6128233,-120.6665504" /></g>
<g stroke="rgb(0, 0, 0)"><path d="M228.6128233,-120.6665504L228.1852841,-106.6730802" /></g>
<g stroke="rgb(0, 0, 0)"><path d="M228.1852841,-106.6730802L214.1918139,-107.1006194" /></g>
<g stroke="rgb(0, 0, 0)"><path d="M214.1918139,-107.1006194L214.6193531,-121.0940896" /></g>
<g stroke="rgb(0, 0, 0)"><path d="M214.0375944,-102.0529748L228.0310646,-101.6254356" /></g>
<g stroke="rgb(0, 0, 0)"><path d="M228.0310646,-101.6254356L227.6035254,-87.6319654" /></g>
<g stroke="rgb(0, 0, 0)"><path d="M227.6035254,-87.6319654L213.6100552,-88.0595046" /></g>
<g stroke="rgb(0, 0, 0)"><path d="M213.6100552,-88.0595046L214.0375944,-102.0529748" /></g>
<g stroke="rgb(0, 0, 0)"><path d="M213.4558356,-83.0118599L227.4493058,-82.5843207" /></g>
<g stroke="rgb(0, 0, 0)"><path d="M227.4493058,-82.5843207L227.0217666,-68.5908505" /></g>
<g stroke="rgb(0, 0, 0)"><path d="M227.0217666,-68.5908505L213.0282964,-69.0183897" /></g>
<g stroke="rgb(0, 0, 0)"><path d="M213.0282964,-69.0183897L213.4558356,-83.0118599" /></g>
<g stroke="rgb(0, 0, 0)"><path d="M235.311475,-178.5157321L249.3102756,-178.3324777" /></g>
<g stroke="rgb(0, 0, 0)"><path d="M249.3102756,-178.3324777L249.1270212,-164.3336771" /></g>
<g stroke="rgb(0, 0, 0)"><path d="M249.1270212,-164.3336771L235.1282206,-164.5169315" /></g>
<g stroke="rgb(0, 0, 0)"><path d="M235.1282206,-164.5169315L235.311475,-178.5157321" /></g>
<g stroke="rgb(0, 0, 0)"><path d="M235.0621183,-159.4673641L249.0609189,-159.2841097" /></g>
<g stroke="rgb(0, 0, 0)"><path d="M249.0609189,-159.2841097L248.8776645,-145.2853091" /></g>
<g stroke="rgb(0, 0, 0)"><path d="M248.8776645,-145.2853091L234.8788639,-145.4685635" /></g>
<g stroke="rgb(0, 0, 0)"><path d="M234.8788639,-145.4685635L235.0621183,-159.4673641" /></g>
<g stroke="rgb(0, 0, 0)"><path d="M234.8127615,-140.4189961L248.8115621,-140.2357417" /></g>
<g stroke="rgb(0, 0, 0)"><path d="M248.8115621,-140.2357417L248.6283077,-126.2369411" /></g>
<g stroke="rgb(0, 0, 0)"><path d="M248.6283077,-126.2369411L234.6295071,-126.4201955" /></g>
<g stroke="rgb(0, 0, 0)"><path d="M234.6295071,-126.4201955L234.8127615,-140.4189961" /></g>
<g stroke="rgb(0, 0, 0)"><path d="M234.5634048,-121.3706281L248.5622054,-121.1873737" /></g>
<g stroke="rgb(0, 0, 0)"><path d="M248.5622054,-121.1873737L248.378951,-107.1885731" /></g>
<g stroke="rgb(0, 0, 0)"><path d="M248.378951,-107.1885731L234.3801504,-107.3718275" /></g>
<g stroke="rgb(0, 0, 0)"><path d="M234.3801504,-107.3718275L234.5634048,-121.3706281" /></g>
<g stroke="rgb(0, 0, 0)"><path d="M234.314048,-102.3222601L248.3128486,-102.1390057" /></g>
<g stroke="rgb(0, 0, 0)"><path d="M248.3128486,-102.1390057L248.1295942,-88.1402051" /></g>
<g stroke="rgb(0, 0, 0)"><path d="M248.1295942,-88.1402051L234.1307936,-88.3234595" /></g>
<g stroke="rgb(0, 0, 0)"><path d="M234.1307936,-88.3234595L234.314048,-102.3222601" /></g>
<g stroke="rgb(0, 0, 0)"><path d="M234.0646913,-83.2738921L248.0634919,-83.0906377" /></g>
<g stroke="rgb(0, 0, 0)"><path d="M248.0634919,-83.0906377L247.8802375,-69.0918371" /></g>
<g stroke="rgb(0, 0, 0)"><path d="M247.8802375,-69.0918371L233.8814369,-69.2750915" /></g>
<g stroke="rgb(0, 0, 0)"><path d="M233.8814369,-69.2750915L234.0646913,-83.2738921" /></g>
<g stroke="rgb(0, 0, 0)"><path d="M254.2633188,-180.1445666L268.2631855,-180.2056529" /></g>
<g stroke="rgb(0, 0, 0)"><path d="M268.2631855,-180.2056529L268.3242718,-166.2057862" /></g>
<g stroke="rgb(0, 0, 0)"><path d="M268.3242718,-166.2057862L254.3244051,-166.1446999" /></g>
<g stroke="rgb(0, 0, 0)"><path d="M254.3244051,-166.1446999L254.2633188,-180.1445666" /></g>
<g stroke="rgb(0, 0, 0)"><path d="M254.3464398,-161.094748L268.3463065,-161.1558343" /></g>
<g stroke="rgb(0, 0, 0)"><path d="M268.3463065,-161.1558343L268.4073928,-147.1559676" /></g>
<g stroke="rgb(0, 0, 0)"><path d="M268.4073928,-147.1559676L254.4075261,-147.0948813" /></g>
<g stroke="rgb(0, 0, 0)"><path d="M254.4075261,-147.0948813L254.3464398,-161.094748" /></g>
<g stroke="rgb(0, 0, 0)"><path d="M254.4295609,-142.0449294L268.4294276,-142.1060157" /></g>
<g stroke="rgb(0, 0, 0)"><path d="M268.4294276,-142.1060157L268.4905139,-128.106149" /></g>
<g stroke="rgb(0, 0, 0)"><path d="M268.4905139,-128.106149L254.4906472,-128.0450627" /></g>
<g stroke="rgb(0, 0, 0)"><path d="M254.4906472,-128.0450627L254.4295609,-142.0449294" /></g>
<g stroke="rgb(0, 0, 0)"><path d="M254.5126819,-122.9951107L268.5125486,-123.056197" /></g>
<g stroke="rgb(0, 0, 0)"><path d="M268.5125486,-123.056197L268.5736349,-109.0563303" /></g>
<g stroke="rgb(0, 0, 0)"><path d="M268.5736349,-109.0563303L254.5737682,-108.995244" /></g>
<g stroke="rgb(0, 0, 0)"><path d="M254.5737682,-108.995244L254.5126819,-122.9951107" /></g>
<g stroke="rgb(0, 0, 0)"><path d="M254.595803,-103.9452921L268.5956697,-104.0063784" /></g>
<g stroke="rgb(0, 0, 0)"><path d="M268.5956697,-104.0063784L268.656756,-90.0065117" /></g>
<g stroke="rgb(0, 0, 0)"><path d="M268.656756,-90.0065117L254.6568893,-89.9454254" /></g>
<g stroke="rgb(0, 0, 0)"><path d="M254.6568893,-89.9454254L254.595803,-103.9452921" /></g>
<g stroke="rgb(0, 0, 0)"><path d="M273.3131374,-180.2276876L287.3130041,-180.2887739" /></g>
<g stroke="rgb(0, 0, 0)"><path d="M287.3130041,-180.2887739L287.3740904,-166.2889072" /></g>
<g stroke="rgb(0, 0, 0)"><path d="M287.3740904,-166.2889072L273.3742237,-166.2278209" /></g>
<g stroke="rgb(0, 0, 0)"><path d="M273.3742237,-166.2278209L273.3131374,-180.2276876" /></g>
<g stroke="rgb(0, 0, 0)"><path d="M278.7587074,-161.2012673L292.7585741,-161.2623536" /></g>
<g stroke="rgb(0, 0, 0)"><path d="M292.7585741,-161.2623536L292.8196604,-147.2624869" /></g>
<g stroke="rgb(0, 0, 0)"><path d="M292.8196604,-147.2624869L278.8197937,-147.2014006" /></g>
<g stroke="rgb(0, 0, 0)"><path d="M278.8197937,-147.2014006L278.7587074,-161.2012673" /></g>
<g stroke="rgb(0, 0, 0)"><path d="M273.4793795,-142.1280504L287.4792462,-142.1891367" /></g>
<g stroke="rgb(0, 0, 0)"><path d="M287.4792462,-142.1891367L287.5403325,-128.18927" /></g>
<g stroke="rgb(0, 0, 0)"><path d="M287.5403325,-128.18927L273.5404658,-128.1281837" /></g>
<g stroke="rgb(0, 0, 0)"><path d="M273.5404658,-128.1281837L273.4793795,-142.1280504" /></g>
<g stroke="rgb(0, 0, 0)"><path d="M273.5625005,-123.0782318L287.5623672,-123.1393181" /></g>
<g stroke="rgb(0, 0, 0)"><path d="M287.5623672,-123.1393181L287.6234535,-109.1394514" /></g>
<g stroke="rgb(0, 0, 0)"><path d="M287.6234535,-109.1394514L273.6235868,-109.0783651" /></g>
<g stroke="rgb(0, 0, 0)"><path d="M273.6235868,-109.0783651L273.5625005,-123.0782318" /></g>
<g stroke="rgb(0, 0, 0)"><path d="M273.6456216,-104.0284132L287.6454883,-104.0894995" /></g>
<g stroke="rgb(0, 0, 0)"><path d="M287.6454883,-104.0894995L287.7065746,-90.0896328" /></g>
<g stroke="rgb(0, 0, 0)"><path d="M287.7065746,-90.0896328L273.7067079,-90.0285465" /></g>
<g stroke="rgb(0, 0, 0)"><path d="M273.7067079,-90.0285465L273.6456216,-104.0284132" /></g>
<g stroke="rgb(0, 0, 0)"><path d="M273.7287426,-84.9785946L287.7286093,-85.0396809" /></g>
<g stroke="rgb(0, 0, 0)"><path d="M287.7286093,-85.0396809L287.7896956,-71.0398142" /></g>
<g stroke="rgb(0, 0, 0)"><path d="M287.7896956,-71.0398142L273.7898289,-70.9787279" /></g>
<g stroke="rgb(0, 0, 0)"><path d="M273.7898289,-70.9787279L273.7287426,-84.9785946" /></g>
<g stroke="rgb(0, 0, 0)"><path d="M297.8916472,-142.2345698L311.8915139,-142.2956561" /></g>
<g stroke="rgb(0, 0, 0)"><path d="M311.8915139,-142.2956561L311.9526002,-128.2957894" /></g>
<g stroke="rgb(0, 0, 0)"><path d="M311.9526002,-128.2957894L297.9527335,-128.2347031" /></g>
<g stroke="rgb(0, 0, 0)"><path d="M297.9527335,-128.2347031L297.8916472,-142.2345698" /></g>
<g stroke="rgb(0, 0, 0)"><path d="M292.6123193,-123.1613529L306.612186,-123.2224392" /></g>
<g stroke="rgb(0, 0, 0)"><path d="M306.612186,-123.2224392L306.6732723,-109.2225725" /></g>
<g stroke="rgb(0, 0, 0)"><path d="M306.6732723,-109.2225725L292.6734056,-109.1614862" /></g>
<g stroke="rgb(0, 0, 0)"><path d="M292.6734056,-109.1614862L292.6123193,-123.1613529" /></g>
<g stroke="rgb(0, 0, 0)"><path d="M292.6954403,-104.1115343L306.695307,-104.1726206" /></g>
<g stroke="rgb(0, 0, 0)"><path d="M306.695307,-104.1726206L306.7563933,-90.1727539" /></g>
<g stroke="rgb(0, 0, 0)"><path d="M306.7563933,-90.1727539L292.7565266,-90.1116676" /></g>
<g stroke="rgb(0, 0, 0)"><path d="M292.7565266,-90.1116676L292.6954403,-104.1115343" /></g>
<g stroke="rgb(0, 0, 0)"><path d="M292.7785614,-85.0617157L306.7784281,-85.122802" /></g>
<g stroke="rgb(0, 0, 0)"><path d="M306.7784281,-85.122802L306.8395144,-71.1229353" /></g>
<g stroke="rgb(0, 0, 0)"><path d="M306.8395144,-71.1229353L292.8396477,-71.061849" /></g>
<g stroke="rgb(0, 0, 0)"><path d="M292.8396477,-71.061849L292.7785614,-85.0617157" /></g>
<g stroke="rgb(0, 0, 0)"><path d="M311.6621379,-123.2444739L325.6620046,-123.3055602" /></g>
<g stroke="rgb(0, 0, 0)"><path d="M325.6620046,-123.3055602L325.7230909,-109.3056935" /></g>
<g stroke="rgb(0, 0, 0)"><path d="M325.7230909,-109.3056935L311.7232242,-109.2446072" /></g>
<g stroke="rgb(0, 0, 0)"><path d="M311.7232242,-109.2446072L311.6621379,-123.2444739" /></g>
<g stroke="rgb(0, 0, 0)"><path d="M317.1077079,-104.2180536L331.1075746,-104.2791399" /></g>
<g stroke="rgb(0, 0, 0)"><path d="M331.1075746,-104.2791399L331.1686609,-90.2792732" /></g>
<g stroke="rgb(0, 0, 0)"><path d="M331.1686609,-90.2792732L317.1687942,-90.2181869" /></g>
<g stroke="rgb(0, 0, 0)"><path d="M317.1687942,-90.2181869L317.1077079,-104.2180536" /></g>
<g stroke="rgb(0, 0, 0)"><path d="M311.82838,-85.1448367L325.8282467,-85.205923" /></g>
<g stroke="rgb(0, 0, 0)"><path d="M325.8282467,-85.205923L325.889333,-71.2060563" /></g>
<g stroke="rgb(0, 0, 0)"><path d="M325.889333,-71.2060563L311.8894663,-71.14497" /></g>
<g stroke="rgb(0, 0, 0)"><path d="M311.8894663,-71.14497L311.82838,-85.1448367" /></g>
<g stroke="rgb(0, 0, 0)"><path d="M330.8781987,-85.2279578L344.8780654,-85.2890441" /></g>
<g stroke="rgb(0, 0, 0)"><path d="M344.8780654,-85.2890441L344.9391517,-71.2891774" /></g>
<g stroke="rgb(0, 0, 0)"><path d="M344.9391517,-71.2891774L330.939285,-71.2280911" /></g>
<g stroke="rgb(0, 0, 0)"><path d="M330.939285,-71.2280911L330.8781987,-85.2279578" /></g>
<g stroke="rgb(0, 0, 0)"><path d="M333.3759013,-193.1809125L342.7890366,-182.8178588" /></g>
<g stroke="rgb(0, 0, 0)"><path d="M342.7890366,-182.8178588L332.4259829,-173.4047235" /></g>
<g stroke="rgb(0, 0, 0)"><path d="M332.4259829,-173.4047235L323.0128476,-183.7677772" /></g>
<g stroke="rgb(0, 0, 0)"><path d="M323.0128476,-183.7677772L333.3759013,-193.1809125" /></g>
<g stroke="rgb(0, 0, 0)"><path d="M319.274746,-180.3723249L328.6878813,-170.0092712" /></g>
<g stroke="rgb(0, 0, 0)"><path d="M328.6878813,-170.0092712L318.3248276,-160.5961359" /></g>
<g stroke="rgb(0, 0, 0)"><path d="M318.3248276,-160.5961359L308.9116923,-170.9591896" /></g>
<g stroke="rgb(0, 0, 0)"><path d="M308.9116923,-170.9591896L319.274746,-180.3723249" /></g>
<g stroke="rgb(0, 0, 0)"><path d="M346.184489,-179.0797572L355.5976243,-168.7167035" /></g>
<g stroke="rgb(0, 0, 0)"><path d="M355.5976243,-168.7167035L345.2345706,-159.3035682" /></g>
<g stroke="rgb(0, 0, 0)"><path d="M345.2345706,-159.3035682L335.8214353,-169.6666219" /></g>
<g stroke="rgb(0, 0, 0)"><path d="M335.8214353,-169.6666219L346.184489,-179.0797572" /></g>
<g stroke="rgb(0, 0, 0)"><path d="M332.0833337,-166.2711695L341.496469,-155.9081158" /></g>
<g stroke="rgb(0, 0, 0)"><path d="M341.496469,-155.9081158L331.1334153,-146.4949805" /></g>
<g stroke="rgb(0, 0, 0)"><path d="M331.1334153,-146.4949805L321.72028,-156.8580342" /></g>
<g stroke="rgb(0, 0, 0)"><path d="M321.72028,-156.8580342L332.0833337,-166.2711695" /></g>
<g stroke="rgb(0, 0, 0)"><path d="M362.1952237,-161.453313L371.608359,-151.0902593" /></g>
<g stroke="rgb(0, 0, 0)"><path d="M371.608359,-151.0902593L361.2453053,-141.677124" /></g>
<g stroke="rgb(0, 0, 0)"><path d="M361.2453053,-141.677124L351.83217,-152.0401777" /></g>
<g stroke="rgb(0, 0, 0)"><path d="M351.83217,-152.0401777L362.1952237,-161.453313" /></g>
<g stroke="rgb(0, 0, 0)"><path d="M348.0940683,-148.6447253L357.5072036,-138.2816716" /></g>
<g stroke="rgb(0, 0, 0)"><path d="M357.5072036,-138.2816716L347.1441499,-128.8685363" /></g>
<g stroke="rgb(0, 0, 0)"><path d="M347.1441499,-128.8685363L337.7310146,-139.23159" /></g>
<g stroke="rgb(0, 0, 0)"><path d="M337.7310146,-139.23159L348.0940683,-148.6447253" /></g>
<g stroke="rgb(0, 0, 0)"><path d="M375.0038113,-147.3521577L384.4169466,-136.989104" /></g>
<g stroke="rgb(0, 0, 0)"><path d="M384.4169466,-136.989104L374.0538929,-127.5759687" /></g>
<g stroke="rgb(0, 0, 0)"><path d="M374.0538929,-127.5759687L364.6407576,-137.9390224" /></g>
<g stroke="rgb(0, 0, 0)"><path d="M364.6407576,-137.9390224L375.0038113,-147.3521577" /></g>
<g stroke="rgb(0, 0, 0)"><path d="M360.902656,-134.54357L370.3157913,-124.1805163" /></g>
<g stroke="rgb(0, 0, 0)"><path d="M370.3157913,-124.1805163L359.9527376,-114.767381" /></g>
<g stroke="rgb(0, 0, 0)"><path d="M359.9527376,-114.767381L350.5396023,-125.1304347" /></g>
<g stroke="rgb(0, 0, 0)"><path d="M350.5396023,-125.1304347L360.902656,-134.54357" /></g>
<g stroke="rgb(0, 0, 0)"><path d="M359.3698056,-104.402458L373.3696723,-104.4635443" /></g>
<g stroke="rgb(0, 0, 0)"><path d="M373.3696723,-104.4635443L373.4307586,-90.4636776" /></g>
<g stroke="rgb(0, 0, 0)"><path d="M373.4307586,-90.4636776L359.4308919,-90.4025913" /></g>
<g stroke="rgb(0, 0, 0)"><path d="M359.4308919,-90.4025913L359.3698056,-104.402458" /></g>
<g stroke="rgb(0, 0, 0)"><path d="M359.4529267,-85.3526394L373.4527934,-85.4137257" /></g>
<g stroke="rgb(0, 0, 0)"><path d="M373.4527934,-85.4137257L373.5138797,-71.413859" /></g>
<g stroke="rgb(0, 0, 0)"><path d="M373.5138797,-71.413859L359.514013,-71.3527727" /></g>
<g stroke="rgb(0, 0, 0)"><path d="M359.514013,-71.3527727L359.4529267,-85.3526394" /></g>
<g stroke="rgb(0, 0, 0)"><path d="M378.4196242,-104.485579L392.4194909,-104.5466653" /></g>
<g stroke="rgb(0, 0, 0)"><path d="M392.4194909,-104.5466653L392.4805772,-90.5467986" /></g>
<g stroke="rgb(0, 0, 0)"><path d="M392.4805772,-90.5467986L378.4807105,-90.4857123" /></g>
<g stroke="rgb(0, 0, 0)"><path d="M378.4807105,-90.4857123L378.4196242,-104.485579" /></g>
<g stroke="rgb(0, 0, 0)"><path d="M378.5027453,-85.4357604L392.502612,-85.4968467" /></g>
<g stroke="rgb(0, 0, 0)"><path d="M392.502612,-85.4968467L392.5636983,-71.49698" /></g>
<g stroke="rgb(0, 0, 0)"><path d="M392.5636983,-71.49698L378.5638316,-71.4358937" /></g>
<g stroke="rgb(0, 0, 0)"><path d="M378.5638316,-71.4358937L378.5027453,-85.4357604" /></g>
<g stroke="rgb(0, 0, 0)"><circle cx="29.0518305" cy="-65.9739903" r="1.5" /></g>
<g stroke="rgb(0, 0, 0)"><circle cx="149.0444372" cy="-98.5891699" r="1.5" /></g>
<g stroke="rgb(0, 0, 0)"><circle cx="168.8101359" cy="-98.5805321" r="1.5" /></g>
<g stroke="rgb(0, 0, 0)"><circle cx="146.3024871" cy="-155.6733551" r="1.5" /></g>
<g stroke="rgb(0, 0, 0)"><circle cx="171.552086" cy="-155.6647173" r="1.5" /></g>
<g stroke="rgb(0, 0, 0)"><circle cx="393.1171639" cy="-64.9743329" r="1.5" /></g>
<g stroke="rgb(0, 0, 0)"><circle cx="387.5221788" cy="-120.4194338" r="1.5" /></g>
<g stroke="rgb(0, 0, 0)"><circle cx="310.4584402" cy="-186.9938995" r="1.5" /></g>
<g stroke="rgb(0, 0, 0)"><circle cx="25.0012498" cy="-174.7884812" r="1.5" /></g>
  </g>
</svg>