0
SECTION
2
HEADER
9
$INSUNITS
70
4
0
ENDSEC
0
SECTION
2
TABLES
0
TABLE
2
LTYPE
0
LTYPE
72
65
70
64
2
CONTINUOUS
3
______
73
0
40
0
0
ENDTAB
0
TABLE
2
LAYER
0
ENDTAB
0
ENDSEC
0
SECTION
2
ENTITIES
0
LINE
8
0
10
13.2316779
20
-104.9369255
11
23.8037333
21
-60.9871093
0
LINE
8
0
10
25.7250185
20
-59.4549984
11
36.6426895
21
-59.3280868
0
LINE
8
0
10
36.7413811
20
-59.3245012
11
76.7575324
21
-56.8801927
0
LINE
8
0
10
76.7979267
20
-56.8781351
11
97.7321084
21
-56.0238893
0
LINE
8
0
10
97.9566486
20
-56.0273447
11
118.8534746
21
-57.5252551
0
LINE
8
0
10
118.8994966
20
-57.5280212
11
150.3236516
21
-59.0534727
0
LINE
8
0
10
151.5371614
20
-59.5402817
11
156.5005862
21
-63.8454971
0
LINE
8
0
10
157.8197586
20
-64.3346396
11
168.3697945
21
-64.2888048
0
LINE
8
0
10
169.6803213
20
-63.7920435
11
174.621322
21
-59.4558534
0
LINE
8
0
10
175.8316956
20
-58.962037
11
206.6316826
21
-57.283381
0
LINE
8
0
10
206.7088582
20
-57.2776754
11
227.5512497
21
-55.3307084
0
LINE
8
0
10
227.7756631
20
-55.3224076
11
248.7175943
21
-55.7245203
0
LINE
8
0
10
248.7729659
20
-55.726351
11
288.8373551
21
-57.6067826
0
LINE
8
0
10
288.9194635
20
-57.6089479
11
404.1764282
21
-58.2808343
0
LINE
8
0
10
406.1647354
20
-60.2924591
11
405.8773909
21
-109.5842116
0
LINE
8
0
10
405.7959679
20
-110.1375244
11
398.1703394
21
-136.0328031
0
LINE
8
0
10
340.4130207
20
-199.7305138
11
397.7302596
21
-136.8147341
0
LINE
8
0
10
338.1844838
20
-200.2376311
11
302.013536
21
-185.604092
0
LINE
8
0
10
269.1721753
20
-185.2710029
11
301.2751212
21
-185.4581459
0
LINE
8
0
10
268.9959419
20
-185.2621915
11
250.3215035
21
-183.5000073
0
LINE
8
0
10
250.1390965
20
-183.4911694
11
219.0169665
21
-183.4058123
0
LINE
8
0
10
218.7016089
20
-183.4299559
11
205.5894291
21
-185.4863397
0
LINE
8
0
10
205.4257017
20
-185.5051441
11
168.091112
21
-188.2405869
0
LINE
8
0
10
167.9489674
20
-188.2459296
11
158.3542492
21
-188.2651208
0
LINE
8
0
10
158.2156642
20
-188.2605914
11
120.8394668
21
-185.7397489
0
LINE
8
0
10
120.7244064
20
-185.7286405
11
107.5348212
21
-184.0693055
0
LINE
8
0
10
107.2468826
20
-184.0540303
11
76.1313155
21
-184.6499035
0
LINE
8
0
10
75.9350839
20
-184.663335
11
57.3312794
21
-186.8600198
0
LINE
8
0
10
26.7806134
20
-187.2263604
11
57.1200014
21
-186.8736828
0
LINE
8
0
10
25.0583057
20
-186.2815754
11
14.2018033
21
-168.7986769
0
LINE
8
0
10
13.900999
20
-167.7668442
11
13.1763454
21
-105.4279267
0
ARC
8
0
10
25.7482657
20
-61.4548633
40
2
50
90.6659982
51
166.4745651
0
ARC
8
0
10
36.6194423
20
-57.3282219
40
2
50
270.6659982
51
273.4954573
0
ARC
8
0
10
76.8794713
20
-58.876472
40
2
50
92.3367284
51
93.4954573
0
ARC
8
0
10
97.813653
20
-58.0222262
40
2
50
85.8999797
51
92.3367284
0
ARC
8
0
10
118.9964702
20
-55.5303736
40
2
50
265.8999797
51
267.2208212
0
ARC
8
0
10
150.226678
20
-61.0511203
40
2
50
49.0620206
51
87.2208212
0
ARC
8
0
10
157.8110696
20
-62.3346585
40
2
50
229.0620206
51
270.2489223
0
ARC
8
0
10
168.3611055
20
-62.2888237
40
2
50
270.2489223
51
311.2699753
0
ARC
8
0
10
175.9405378
20
-60.9590731
40
2
50
93.1196404
51
131.2699753
0
ARC
8
0
10
206.5228404
20
-55.2863448
40
2
50
273.1196404
51
275.3367306
0
ARC
8
0
10
227.7372675
20
-57.322039
40
2
50
88.8999795
51
95.3367306
0
ARC
8
0
10
248.6791987
20
-57.7241517
40
2
50
87.3127826
51
88.8999795
0
ARC
8
0
10
288.9311223
20
-55.6089819
40
2
50
267.3127826
51
269.6659981
0
ARC
8
0
10
404.1647694
20
-60.2808003
40
2
50
359.6659981
51
89.6659981
0
ARC
8
0
10
403.8774249
20
-109.5725528
40
2
50
343.5913791
51
359.6659981
0
ARC
8
0
10
396.2517964
20
-135.4678315
40
2
50
317.6660004
51
343.5913791
0
ARC
8
0
10
338.9345575
20
-198.3836112
40
2
50
247.9734122
51
317.6660004
0
ARC
8
0
10
301.2634624
20
-187.4581119
40
2
50
67.9734122
51
89.6659981
0
ARC
8
0
10
269.1838341
20
-183.2710369
40
2
50
264.6093356
51
269.6659981
0
ARC
8
0
10
250.1336113
20
-185.4911619
40
2
50
84.6093356
51
89.8428604
0
ARC
8
0
10
219.0114813
20
-185.4058048
40
2
50
89.8428604
51
98.9130959
0
ARC
8
0
10
205.2795567
20
-183.5104908
40
2
50
274.1904809
51
278.9130959
0
ARC
8
0
10
167.944967
20
-186.2459336
40
2
50
270.1146031
51
274.1904809
0
ARC
8
0
10
158.3502488
20
-186.2651248
40
2
50
266.1415194
51
270.1146031
0
ARC
8
0
10
120.9740514
20
-183.7442823
40
2
50
262.8294946
51
266.1415194
0
ARC
8
0
10
107.2851762
20
-186.0536637
40
2
50
82.8294946
51
91.0970979
0
ARC
8
0
10
76.1696091
20
-186.6495369
40
2
50
91.0970979
51
96.7341459
0
ARC
8
0
10
57.0967542
20
-184.8738179
40
2
50
270.6659982
51
276.7341459
0
ARC
8
0
10
26.7573662
20
-185.2264955
40
2
50
211.8393876
51
270.6659982
0
ARC
8
0
10
15.9008639
20
-167.743597
40
2
50
180.6659982
51
211.8393876
0
ARC
8
0
10
15.1762103
20
-105.4046795
40
2
50
166.4745651
51
180.6659982
0
LINE
8
0
10
31.1135417
20
-181.6506194
11
45.1125959
21
-181.4878886
0
LINE
8
0
10
45.1125959
20
-181.4878886
11
44.9498651
21
-167.4888344
0
LINE
8
0
10
44.9498651
20
-167.4888344
11
30.9508109
21
-167.6515652
0
LINE
8
0
10
30.9508109
20
-167.6515652
11
31.1135417
21
-181.6506194
0
LINE
8
0
10
25.629967
20
-162.6630757
11
39.6290212
21
-162.5003449
0
LINE
8
0
10
39.6290212
20
-162.5003449
11
39.4662904
21
-148.5012907
0
LINE
8
0
10
39.4662904
20
-148.5012907
11
25.4672362
21
-148.6640215
0
LINE
8
0
10
25.4672362
20
-148.6640215
11
25.629967
21
-162.6630757
0
LINE
8
0
10
25.4085369
20
-143.6143626
11
39.4075911
21
-143.4516318
0
LINE
8
0
10
39.4075911
20
-143.4516318
11
39.2448603
21
-129.4525776
0
LINE
8
0
10
39.2448603
20
-129.4525776
11
25.2458061
21
-129.6153084
0
LINE
8
0
10
25.2458061
20
-129.6153084
11
25.4085369
21
-143.6143626
0
LINE
8
0
10
25.1871067
20
-124.5656496
11
39.1861609
21
-124.4029188
0
LINE
8
0
10
39.1861609
20
-124.4029188
11
39.0234301
21
-110.4038646
0
LINE
8
0
10
39.0234301
20
-110.4038646
11
25.0243759
21
-110.5665954
0
LINE
8
0
10
25.0243759
20
-110.5665954
11
25.1871067
21
-124.5656496
0
LINE
8
0
10
30.227821
20
-105.4557672
11
44.2268752
21
-105.2930364
0
LINE
8
0
10
44.2268752
20
-105.2930364
11
44.0641444
21
-91.2939822
0
LINE
8
0
10
44.0641444
20
-91.2939822
11
30.0650902
21
-91.456713
0
LINE
8
0
10
30.0650902
20
-91.456713
11
30.227821
21
-105.4557672
0
LINE
8
0
10
30.0063908
20
-86.4070541
11
44.005445
21
-86.2443233
0
LINE
8
0
10
44.005445
20
-86.2443233
11
43.8427142
21
-72.2452691
0
LINE
8
0
10
43.8427142
20
-72.2452691
11
29.84366
21
-72.4079999
0
LINE
8
0
10
29.84366
20
-72.4079999
11
30.0063908
21
-86.4070541
0
LINE
8
0
10
50.1622547
20
-181.4291892
11
64.1613089
21
-181.2664584
0
LINE
8
0
10
64.1613089
20
-181.2664584
11
63.9985781
21
-167.2674042
0
LINE
8
0
10
63.9985781
20
-167.2674042
11
49.9995239
21
-167.430135
0
LINE
8
0
10
49.9995239
20
-167.430135
11
50.1622547
21
-181.4291892
0
LINE
8
0
10
49.9408246
20
-162.3804761
11
63.9398788
21
-162.2177453
0
LINE
8
0
10
63.9398788
20
-162.2177453
11
63.777148
21
-148.2186911
0
LINE
8
0
10
63.777148
20
-148.2186911
11
49.7780938
21
-148.3814219
0
LINE
8
0
10
49.7780938
20
-148.3814219
11
49.9408246
21
-162.3804761
0
LINE
8
0
10
49.7193944
20
-143.3317631
11
63.7184486
21
-143.1690323
0
LINE
8
0
10
63.7184486
20
-143.1690323
11
63.5557178
21
-129.1699781
0
LINE
8
0
10
63.5557178
20
-129.1699781
11
49.5566636
21
-129.3327089
0
LINE
8
0
10
49.5566636
20
-129.3327089
11
49.7193944
21
-143.3317631
0
LINE
8
0
10
49.4979642
20
-124.2830501
11
63.4970184
21
-124.1203193
0
LINE
8
0
10
63.4970184
20
-124.1203193
11
63.3342876
21
-110.1212651
0
LINE
8
0
10
63.3342876
20
-110.1212651
11
49.3352334
21
-110.2839959
0
LINE
8
0
10
49.3352334
20
-110.2839959
11
49.4979642
21
-124.2830501
0
LINE
8
0
10
49.2765341
20
-105.234337
11
63.2755883
21
-105.0716062
0
LINE
8
0
10
63.2755883
20
-105.0716062
11
63.1128575
21
-91.072552
0
LINE
8
0
10
63.1128575
20
-91.072552
11
49.1138033
21
-91.2352828
0
LINE
8
0
10
49.1138033
20
-91.2352828
11
49.2765341
21
-105.234337
0
LINE
8
0
10
69.0651956
20
-179.0860771
11
83.0649577
21
-179.1676882
0
LINE
8
0
10
83.0649577
20
-179.1676882
11
83.1465688
21
-165.1679261
0
LINE
8
0
10
83.1465688
20
-165.1679261
11
69.1468067
21
-165.086315
0
LINE
8
0
10
69.1468067
20
-165.086315
11
69.0651956
21
-179.0860771
0
LINE
8
0
10
69.176245
20
-160.0364008
11
83.1760071
21
-160.1180119
0
LINE
8
0
10
83.1760071
20
-160.1180119
11
83.2576182
21
-146.1182498
0
LINE
8
0
10
83.2576182
20
-146.1182498
11
69.2578561
21
-146.0366387
0
LINE
8
0
10
69.2578561
20
-146.0366387
11
69.176245
21
-160.0364008
0
LINE
8
0
10
69.2872944
20
-140.9867245
11
83.2870565
21
-141.0683356
0
LINE
8
0
10
83.2870565
20
-141.0683356
11
83.3686676
21
-127.0685735
0
LINE
8
0
10
83.3686676
20
-127.0685735
11
69.3689055
21
-126.9869624
0
LINE
8
0
10
69.3689055
20
-126.9869624
11
69.2872944
21
-140.9867245
0
LINE
8
0
10
69.3983438
20
-121.9370481
11
83.3981059
21
-122.0186592
0
LINE
8
0
10
83.3981059
20
-122.0186592
11
83.479717
21
-108.0188971
0
LINE
8
0
10
83.479717
20
-108.0188971
11
69.4799549
21
-107.937286
0
LINE
8
0
10
69.4799549
20
-107.937286
11
69.3983438
21
-121.9370481
0
LINE
8
0
10
69.5093932
20
-102.8873718
11
83.5091553
21
-102.9689829
0
LINE
8
0
10
83.5091553
20
-102.9689829
11
83.5907664
21
-88.9692208
0
LINE
8
0
10
83.5907664
20
-88.9692208
11
69.5910043
21
-88.8876097
0
LINE
8
0
10
69.5910043
20
-88.8876097
11
69.5093932
21
-102.8873718
0
LINE
8
0
10
69.6204426
20
-83.8376955
11
83.6202047
21
-83.9193066
0
LINE
8
0
10
83.6202047
20
-83.9193066
11
83.7018158
21
-69.9195445
0
LINE
8
0
10
83.7018158
20
-69.9195445
11
69.7020537
21
-69.8379334
0
LINE
8
0
10
69.7020537
20
-69.8379334
11
69.6204426
21
-83.8376955
0
LINE
8
0
10
88.000321
20
-178.0732067
11
101.9965266
21
-178.3991349
0
LINE
8
0
10
101.9965266
20
-178.3991349
11
102.3224548
21
-164.4029293
0
LINE
8
0
10
102.3224548
20
-164.4029293
11
88.3262492
21
-164.0770011
0
LINE
8
0
10
88.3262492
20
-164.0770011
11
88.000321
21
-178.0732067
0
LINE
8
0
10
88.4438162
20
-159.0283698
11
102.4400218
21
-159.354298
0
LINE
8
0
10
102.4400218
20
-159.354298
11
102.76595
21
-145.3580924
0
LINE
8
0
10
102.76595
20
-145.3580924
11
88.7697444
21
-145.0321642
0
LINE
8
0
10
88.7697444
20
-145.0321642
11
88.4438162
21
-159.0283698
0
LINE
8
0
10
88.8873114
20
-139.9835329
11
102.883517
21
-140.3094611
0
LINE
8
0
10
102.883517
20
-140.3094611
11
103.2094452
21
-126.3132555
0
LINE
8
0
10
103.2094452
20
-126.3132555
11
89.2132396
21
-125.9873273
0
LINE
8
0
10
89.2132396
20
-125.9873273
11
88.8873114
21
-139.9835329
0
LINE
8
0
10
89.3308066
20
-120.9386959
11
103.3270122
21
-121.2646241
0
LINE
8
0
10
103.3270122
20
-121.2646241
11
103.6529404
21
-107.2684185
0
LINE
8
0
10
103.6529404
20
-107.2684185
11
89.6567348
21
-106.9424903
0
LINE
8
0
10
89.6567348
20
-106.9424903
11
89.3308066
21
-120.9386959
0
LINE
8
0
10
89.7743018
20
-101.893859
11
103.7705074
21
-102.2197872
0
LINE
8
0
10
103.7705074
20
-102.2197872
11
104.0964356
21
-88.2235816
0
LINE
8
0
10
104.0964356
20
-88.2235816
11
90.10023
21
-87.8976534
0
LINE
8
0
10
90.10023
20
-87.8976534
11
89.7743018
21
-101.893859
0
LINE
8
0
10
90.217797
20
-82.8490221
11
104.2140026
21
-83.1749503
0
LINE
8
0
10
104.2140026
20
-83.1749503
11
104.5399308
21
-69.1787447
0
LINE
8
0
10
104.5399308
20
-69.1787447
11
90.5437252
21
-68.8528165
0
LINE
8
0
10
90.5437252
20
-68.8528165
11
90.217797
21
-82.8490221
0
LINE
8
0
10
107.6794843
20
-160.3562159
11
121.66787
21
-160.926362
0
LINE
8
0
10
121.66787
20
-160.926362
11
122.2380161
21
-146.9379763
0
LINE
8
0
10
122.2380161
20
-146.9379763
11
108.2496304
21
-146.3678302
0
LINE
8
0
10
108.2496304
20
-146.3678302
11
107.6794843
21
-160.3562159
0
LINE
8
0
10
108.4552902
20
-141.3220197
11
122.4436759
21
-141.8921658
0
LINE
8
0
10
122.4436759
20
-141.8921658
11
123.013822
21
-127.9037801
0
LINE
8
0
10
123.013822
20
-127.9037801
11
109.0254363
21
-127.333634
0
LINE
8
0
10
109.0254363
20
-127.333634
11
108.4552902
21
-141.3220197
0
LINE
8
0
10
109.2310962
20
-122.2878236
11
123.2194819
21
-122.8579697
0
LINE
8
0
10
123.2194819
20
-122.8579697
11
123.789628
21
-108.869584
0
LINE
8
0
10
123.789628
20
-108.869584
11
109.8012423
21
-108.2994379
0
LINE
8
0
10
109.8012423
20
-108.2994379
11
109.2310962
21
-122.2878236
0
LINE
8
0
10
110.0069021
20
-103.2536274
11
123.9952878
21
-103.8237735
0
LINE
8
0
10
123.9952878
20
-103.8237735
11
124.5654339
21
-89.8353878
0
LINE
8
0
10
124.5654339
20
-89.8353878
11
110.5770482
21
-89.2652417
0
LINE
8
0
10
110.5770482
20
-89.2652417
11
110.0069021
21
-103.2536274
0
LINE
8
0
10
110.782708
20
-84.2194312
11
124.7710937
21
-84.7895773
0
LINE
8
0
10
124.7710937
20
-84.7895773
11
125.3412398
21
-70.8011916
0
LINE
8
0
10
125.3412398
20
-70.8011916
11
111.3528541
21
-70.2310455
0
LINE
8
0
10
111.3528541
20
-70.2310455
11
110.782708
21
-84.2194312
0
LINE
8
0
10
126.5271957
20
-180.4404455
11
140.5155814
21
-181.0105916
0
LINE
8
0
10
140.5155814
20
-181.0105916
11
141.0857275
21
-167.0222059
0
LINE
8
0
10
141.0857275
20
-167.0222059
11
127.0973418
21
-166.4520598
0
LINE
8
0
10
127.0973418
20
-166.4520598
11
126.5271957
21
-180.4404455
0
LINE
8
0
10
127.3030016
20
-161.4062493
11
141.2913873
21
-161.9763954
0
LINE
8
0
10
141.2913873
20
-161.9763954
11
141.8615334
21
-147.9880097
0
LINE
8
0
10
141.8615334
20
-147.9880097
11
127.8731477
21
-147.4178636
0
LINE
8
0
10
127.8731477
20
-147.4178636
11
127.3030016
21
-161.4062493
0
LINE
8
0
10
128.0788075
20
-142.3720531
11
142.0671932
21
-142.9421992
0
LINE
8
0
10
142.0671932
20
-142.9421992
11
142.6373393
21
-128.9538135
0
LINE
8
0
10
142.6373393
20
-128.9538135
11
128.6489536
21
-128.3836674
0
LINE
8
0
10
128.6489536
20
-128.3836674
11
128.0788075
21
-142.3720531
0
LINE
8
0
10
128.8546135
20
-123.337857
11
142.8429992
21
-123.9080031
0
LINE
8
0
10
142.8429992
20
-123.9080031
11
143.4131453
21
-109.9196174
0
LINE
8
0
10
143.4131453
20
-109.9196174
11
129.4247596
21
-109.3494713
0
LINE
8
0
10
129.4247596
20
-109.3494713
11
128.8546135
21
-123.337857
0
LINE
8
0
10
129.6304194
20
-104.3036608
11
143.6188051
21
-104.8738069
0
LINE
8
0
10
143.6188051
20
-104.8738069
11
144.1889512
21
-90.8854212
0
LINE
8
0
10
144.1889512
20
-90.8854212
11
130.2005655
21
-90.3152751
0
LINE
8
0
10
130.2005655
20
-90.3152751
11
129.6304194
21
-104.3036608
0
LINE
8
0
10
130.4062253
20
-85.2694646
11
144.394611
21
-85.8396107
0
LINE
8
0
10
144.394611
20
-85.8396107
11
144.9647571
21
-71.851225
0
LINE
8
0
10
144.9647571
20
-71.851225
11
130.9763714
21
-71.2810789
0
LINE
8
0
10
130.9763714
20
-71.2810789
11
130.4062253
21
-85.2694646
0
LINE
8
0
10
185.747097
20
-180.8882775
11
199.7319441
21
-180.2370858
0
LINE
8
0
10
199.7319441
20
-180.2370858
11
199.0807524
21
-166.2522387
0
LINE
8
0
10
199.0807524
20
-166.2522387
11
185.0959053
21
-166.9034304
0
LINE
8
0
10
185.0959053
20
-166.9034304
11
185.747097
21
-180.8882775
0
LINE
8
0
10
185.4603618
20
-161.8309879
11
199.4452089
21
-161.1797962
0
LINE
8
0
10
199.4452089
20
-161.1797962
11
198.7940172
21
-147.1949491
0
LINE
8
0
10
198.7940172
20
-147.1949491
11
184.8091701
21
-147.8461408
0
LINE
8
0
10
184.8091701
20
-147.8461408
11
185.4603618
21
-161.8309879
0
LINE
8
0
10
184.574276
20
-142.8016066
11
198.5591231
21
-142.1504149
0
LINE
8
0
10
198.5591231
20
-142.1504149
11
197.9079314
21
-128.1655678
0
LINE
8
0
10
197.9079314
20
-128.1655678
11
183.9230843
21
-128.8167595
0
LINE
8
0
10
183.9230843
20
-128.8167595
11
184.574276
21
-142.8016066
0
LINE
8
0
10
183.6881903
20
-123.7722253
11
197.6730374
21
-123.1210336
0
LINE
8
0
10
197.6730374
20
-123.1210336
11
197.0218457
21
-109.1361865
0
LINE
8
0
10
197.0218457
20
-109.1361865
11
183.0369986
21
-109.7873782
0
LINE
8
0
10
183.0369986
20
-109.7873782
11
183.6881903
21
-123.7722253
0
LINE
8
0
10
182.8021045
20
-104.7428439
11
196.7869516
21
-104.0916522
0
LINE
8
0
10
196.7869516
20
-104.0916522
11
196.1357599
21
-90.1068051
0
LINE
8
0
10
196.1357599
20
-90.1068051
11
182.1509128
21
-90.7579968
0
LINE
8
0
10
182.1509128
20
-90.7579968
11
182.8021045
21
-104.7428439
0
LINE
8
0
10
181.9160187
20
-85.7134626
11
195.9008658
21
-85.0622709
0
LINE
8
0
10
195.9008658
20
-85.0622709
11
195.2496741
21
-71.0774238
0
LINE
8
0
10
195.2496741
20
-71.0774238
11
181.264827
21
-71.7286155
0
LINE
8
0
10
181.264827
20
-71.7286155
11
181.9160187
21
-85.7134626
0
LINE
8
0
10
204.4781147
20
-160.6951727
11
218.4629618
21
-160.043981
0
LINE
8
0
10
218.4629618
20
-160.043981
11
217.8117701
21
-146.0591339
0
LINE
8
0
10
217.8117701
20
-146.0591339
11
203.826923
21
-146.7103256
0
LINE
8
0
10
203.826923
20
-146.7103256
11
204.4781147
21
-160.6951727
0
LINE
8
0
10
203.5920289
20
-141.6657914
11
217.576876
21
-141.0145997
0
LINE
8
0
10
217.576876
20
-141.0145997
11
216.9256843
21
-127.0297526
0
LINE
8
0
10
216.9256843
20
-127.0297526
11
202.9408372
21
-127.6809443
0
LINE
8
0
10
202.9408372
20
-127.6809443
11
203.5920289
21
-141.6657914
0
LINE
8
0
10
202.7059432
20
-122.6364101
11
216.6907903
21
-121.9852184
0
LINE
8
0
10
216.6907903
20
-121.9852184
11
216.0395986
21
-108.0003713
0
LINE
8
0
10
216.0395986
20
-108.0003713
11
202.0547515
21
-108.651563
0
LINE
8
0
10
202.0547515
20
-108.651563
11
202.7059432
21
-122.6364101
0
LINE
8
0
10
201.8198574
20
-103.6070288
11
215.8047045
21
-102.9558371
0
LINE
8
0
10
215.8047045
20
-102.9558371
11
215.1535128
21
-88.97099
0
LINE
8
0
10
215.1535128
20
-88.97099
11
201.1686657
21
-89.6221817
0
LINE
8
0
10
201.1686657
20
-89.6221817
11
201.8198574
21
-103.6070288
0
LINE
8
0
10
200.9337716
20
-84.5776474
11
214.9186187
21
-83.9264557
0
LINE
8
0
10
214.9186187
20
-83.9264557
11
214.267427
21
-69.9416086
0
LINE
8
0
10
214.267427
20
-69.9416086
11
200.2825799
21
-70.5928003
0
LINE
8
0
10
200.2825799
20
-70.5928003
11
200.9337716
21
-84.5776474
0
LINE
8
0
10
224.2203663
20
-177.7220838
11
238.2144483
21
-177.3150606
0
LINE
8
0
10
238.2144483
20
-177.3150606
11
237.8074251
21
-163.3209786
0
LINE
8
0
10
237.8074251
20
-163.3209786
11
223.8133431
21
-163.7280018
0
LINE
8
0
10
223.8133431
20
-163.7280018
11
224.2203663
21
-177.7220838
0
LINE
8
0
10
223.666524
20
-158.6801364
11
237.660606
21
-158.2731132
0
LINE
8
0
10
237.660606
20
-158.2731132
11
237.2535828
21
-144.2790312
0
LINE
8
0
10
237.2535828
20
-144.2790312
11
223.2595008
21
-144.6860544
0
LINE
8
0
10
223.2595008
20
-144.6860544
11
223.666524
21
-158.6801364
0
LINE
8
0
10
223.1126817
20
-139.6381891
11
237.1067637
21
-139.2311659
0
LINE
8
0
10
237.1067637
20
-139.2311659
11
236.6997405
21
-125.2370839
0
LINE
8
0
10
236.6997405
20
-125.2370839
11
222.7056585
21
-125.6441071
0
LINE
8
0
10
222.7056585
20
-125.6441071
11
223.1126817
21
-139.6381891
0
LINE
8
0
10
222.5588394
20
-120.5962417
11
236.5529214
21
-120.1892185
0
LINE
8
0
10
236.5529214
20
-120.1892185
11
236.1458982
21
-106.1951365
0
LINE
8
0
10
236.1458982
20
-106.1951365
11
222.1518162
21
-106.6021597
0
LINE
8
0
10
222.1518162
20
-106.6021597
11
222.5588394
21
-120.5962417
0
LINE
8
0
10
222.0049972
20
-101.5542944
11
235.9990792
21
-101.1472712
0
LINE
8
0
10
235.9990792
20
-101.1472712
11
235.592056
21
-87.1531892
0
LINE
8
0
10
235.592056
20
-87.1531892
11
221.597974
21
-87.5602124
0
LINE
8
0
10
221.597974
20
-87.5602124
11
222.0049972
21
-101.5542944
0
LINE
8
0
10
221.4511549
20
-82.512347
11
235.4452369
21
-82.1053238
0
LINE
8
0
10
235.4452369
20
-82.1053238
11
235.0382137
21
-68.1112418
0
LINE
8
0
10
235.0382137
20
-68.1112418
11
221.0441317
21
-68.518265
0
LINE
8
0
10
221.0441317
20
-68.518265
11
221.4511549
21
-82.512347
0
LINE
8
0
10
243.1667544
20
-178.0481587
11
257.1658086
21
-177.8854279
0
LINE
8
0
10
257.1658086
20
-177.8854279
11
257.0030778
21
-163.8863737
0
LINE
8
0
10
257.0030778
20
-163.8863737
11
243.0040236
21
-164.0491045
0
LINE
8
0
10
243.0040236
20
-164.0491045
11
243.1667544
21
-178.0481587
0
LINE
8
0
10
242.9453243
20
-158.9994456
11
256.9443785
21
-158.8367148
0
LINE
8
0
10
256.9443785
20
-158.8367148
11
256.7816477
21
-144.8376606
0
LINE
8
0
10
256.7816477
20
-144.8376606
11
242.7825935
21
-145.0003914
0
LINE
8
0
10
242.7825935
20
-145.0003914
11
242.9453243
21
-158.9994456
0
LINE
8
0
10
242.7238941
20
-139.9507326
11
256.7229483
21
-139.7880018
0
LINE
8
0
10
256.7229483
20
-139.7880018
11
256.5602175
21
-125.7889476
0
LINE
8
0
10
256.5602175
20
-125.7889476
11
242.5611633
21
-125.9516784
0
LINE
8
0
10
242.5611633
20
-125.9516784
11
242.7238941
21
-139.9507326
0
LINE
8
0
10
242.5024639
20
-120.9020195
11
256.5015181
21
-120.7392887
0
LINE
8
0
10
256.5015181
20
-120.7392887
11
256.3387873
21
-106.7402345
0
LINE
8
0
10
256.3387873
20
-106.7402345
11
242.3397331
21
-106.9029653
0
LINE
8
0
10
242.3397331
20
-106.9029653
11
242.5024639
21
-120.9020195
0
LINE
8
0
10
242.2810337
20
-101.8533065
11
256.2800879
21
-101.6905757
0
LINE
8
0
10
256.2800879
20
-101.6905757
11
256.1173571
21
-87.6915215
0
LINE
8
0
10
256.1173571
20
-87.6915215
11
242.1183029
21
-87.8542523
0
LINE
8
0
10
242.1183029
20
-87.8542523
11
242.2810337
21
-101.8533065
0
LINE
8
0
10
242.0596036
20
-82.8045935
11
256.0586578
21
-82.6418627
0
LINE
8
0
10
256.0586578
20
-82.6418627
11
255.895927
21
-68.6428085
0
LINE
8
0
10
255.895927
20
-68.6428085
11
241.8968728
21
-68.8055393
0
LINE
8
0
10
241.8968728
20
-68.8055393
11
242.0596036
21
-82.8045935
0
LINE
8
0
10
262.1161898
20
-179.7047764
11
276.1159519
21
-179.7863875
0
LINE
8
0
10
276.1159519
20
-179.7863875
11
276.197563
21
-165.7866254
0
LINE
8
0
10
276.197563
20
-165.7866254
11
262.1978009
21
-165.7050143
0
LINE
8
0
10
262.1978009
20
-165.7050143
11
262.1161898
21
-179.7047764
0
LINE
8
0
10
262.2272392
20
-160.6551001
11
276.2270013
21
-160.7367112
0
LINE
8
0
10
276.2270013
20
-160.7367112
11
276.3086124
21
-146.7369491
0
LINE
8
0
10
276.3086124
20
-146.7369491
11
262.3088503
21
-146.655338
0
LINE
8
0
10
262.3088503
20
-146.655338
11
262.2272392
21
-160.6551001
0
LINE
8
0
10
262.3382886
20
-141.6054237
11
276.3380507
21
-141.6870348
0
LINE
8
0
10
276.3380507
20
-141.6870348
11
276.4196618
21
-127.6872727
0
LINE
8
0
10
276.4196618
20
-127.6872727
11
262.4198997
21
-127.6056616
0
LINE
8
0
10
262.4198997
20
-127.6056616
11
262.3382886
21
-141.6054237
0
LINE
8
0
10
262.449338
20
-122.5557474
11
276.4491001
21
-122.6373585
0
LINE
8
0
10
276.4491001
20
-122.6373585
11
276.5307112
21
-108.6375964
0
LINE
8
0
10
276.5307112
20
-108.6375964
11
262.5309491
21
-108.5559853
0
LINE
8
0
10
262.5309491
20
-108.5559853
11
262.449338
21
-122.5557474
0
LINE
8
0
10
262.5603874
20
-103.5060711
11
276.5601495
21
-103.5876822
0
LINE
8
0
10
276.5601495
20
-103.5876822
11
276.6417606
21
-89.5879201
0
LINE
8
0
10
276.6417606
20
-89.5879201
11
262.6419985
21
-89.506309
0
LINE
8
0
10
262.6419985
20
-89.506309
11
262.5603874
21
-103.5060711
0
LINE
8
0
10
281.1658662
20
-179.8158258
11
295.1656283
21
-179.8974369
0
LINE
8
0
10
295.1656283
20
-179.8974369
11
295.2472394
21
-165.8976748
0
LINE
8
0
10
295.2472394
20
-165.8976748
11
281.2474773
21
-165.8160637
0
LINE
8
0
10
281.2474773
20
-165.8160637
11
281.1658662
21
-179.8158258
0
LINE
8
0
10
286.6393245
20
-160.7974094
11
300.6390866
21
-160.8790205
0
LINE
8
0
10
300.6390866
20
-160.8790205
11
300.7206977
21
-146.8792584
0
LINE
8
0
10
300.7206977
20
-146.8792584
11
286.7209356
21
-146.7976473
0
LINE
8
0
10
286.7209356
20
-146.7976473
11
286.6393245
21
-160.7974094
0
LINE
8
0
10
281.387965
20
-141.7164731
11
295.3877271
21
-141.7980842
0
LINE
8
0
10
295.3877271
20
-141.7980842
11
295.4693382
21
-127.7983221
0
LINE
8
0
10
295.4693382
20
-127.7983221
11
281.4695761
21
-127.716711
0
LINE
8
0
10
281.4695761
20
-127.716711
11
281.387965
21
-141.7164731
0
LINE
8
0
10
281.4990143
20
-122.6667968
11
295.4987764
21
-122.7484079
0
LINE
8
0
10
295.4987764
20
-122.7484079
11
295.5803875
21
-108.7486458
0
LINE
8
0
10
295.5803875
20
-108.7486458
11
281.5806254
21
-108.6670347
0
LINE
8
0
10
281.5806254
20
-108.6670347
11
281.4990143
21
-122.6667968
0
LINE
8
0
10
281.6100637
20
-103.6171205
11
295.6098258
21
-103.6987316
0
LINE
8
0
10
295.6098258
20
-103.6987316
11
295.6914369
21
-89.6989695
0
LINE
8
0
10
295.6914369
20
-89.6989695
11
281.6916748
21
-89.6173584
0
LINE
8
0
10
281.6916748
20
-89.6173584
11
281.6100637
21
-103.6171205
0
LINE
8
0
10
281.7211131
20
-84.5674441
11
295.7208752
21
-84.6490552
0
LINE
8
0
10
295.7208752
20
-84.6490552
11
295.8024863
21
-70.6492931
0
LINE
8
0
10
295.8024863
20
-70.6492931
11
281.8027242
21
-70.567682
0
LINE
8
0
10
281.8027242
20
-70.567682
11
281.7211131
21
-84.5674441
0
LINE
8
0
10
305.8000502
20
-141.8587826
11
319.7998123
21
-141.9403937
0
LINE
8
0
10
319.7998123
20
-141.9403937
11
319.8814234
21
-127.9406316
0
LINE
8
0
10
319.8814234
20
-127.9406316
11
305.8816613
21
-127.8590205
0
LINE
8
0
10
305.8816613
20
-127.8590205
11
305.8000502
21
-141.8587826
0
LINE
8
0
10
300.5486907
20
-122.7778463
11
314.5484528
21
-122.8594574
0
LINE
8
0
10
314.5484528
20
-122.8594574
11
314.6300639
21
-108.8596953
0
LINE
8
0
10
314.6300639
20
-108.8596953
11
300.6303018
21
-108.7780842
0
LINE
8
0
10
300.6303018
20
-108.7780842
11
300.5486907
21
-122.7778463
0
LINE
8
0
10
300.6597401
20
-103.72817
11
314.6595022
21
-103.8097811
0
LINE
8
0
10
314.6595022
20
-103.8097811
11
314.7411133
21
-89.810019
0
LINE
8
0
10
314.7411133
20
-89.810019
11
300.7413512
21
-89.7284079
0
LINE
8
0
10
300.7413512
20
-89.7284079
11
300.6597401
21
-103.72817
0
LINE
8
0
10
300.7707895
20
-84.6784936
11
314.7705516
21
-84.7601047
0
LINE
8
0
10
314.7705516
20
-84.7601047
11
314.8521627
21
-70.7603426
0
LINE
8
0
10
314.8521627
20
-70.7603426
11
300.8524006
21
-70.6787315
0
LINE
8
0
10
300.8524006
20
-70.6787315
11
300.7707895
21
-84.6784936
0
LINE
8
0
10
319.598367
20
-122.8888958
11
333.5981291
21
-122.9705069
0
LINE
8
0
10
333.5981291
20
-122.9705069
11
333.6797402
21
-108.9707448
0
LINE
8
0
10
333.6797402
20
-108.9707448
11
319.6799781
21
-108.8891337
0
LINE
8
0
10
319.6799781
20
-108.8891337
11
319.598367
21
-122.8888958
0
LINE
8
0
10
325.0718253
20
-103.8704794
11
352.7588549
21
-104.0318798
0
LINE
8
0
10
325.1534364
20
-89.8707173
11
352.840466
21
-90.0321177
0
LINE
8
0
10
325.1534364
20
-89.8707173
11
325.0718253
21
-103.8704794
0
LINE
8
0
10
319.8204658
20
-84.7895431
11
333.8202279
21
-84.8711542
0
LINE
8
0
10
333.8202279
20
-84.8711542
11
333.901839
21
-70.8713921
0
LINE
8
0
10
333.901839
20
-70.8713921
11
319.9020769
21
-70.789781
0
LINE
8
0
10
319.9020769
20
-70.789781
11
319.8204658
21
-84.7895431
0
LINE
8
0
10
345.8921487
20
-180.1931454
11
352.3146574
21
-180.2305852
0
LINE
8
0
10
352.3146574
20
-180.2305852
11
352.3250316
21
-178.4509725
0
LINE
8
0
10
344.5608024
20
-166.1851465
11
338.3965064
21
-166.149212
0
LINE
8
0
10
338.3965064
20
-166.149212
11
338.3546673
21
-173.3263844
0
LINE
8
0
10
342.341874
20
-161.1221255
11
349.137204
21
-161.1617386
0
LINE
8
0
10
352.4303782
20
-160.37957
11
352.5073179
21
-147.1811467
0
LINE
8
0
10
352.5073179
20
-147.1811467
11
338.5075558
21
-147.0995356
0
LINE
8
0
10
338.5075558
20
-147.0995356
11
338.504099
21
-147.6925163
0
LINE
8
0
10
338.536994
20
-142.0496214
11
346.9342264
21
-142.0985728
0
LINE
8
0
10
352.6129581
20
-129.0593621
11
352.6183672
21
-128.1314704
0
LINE
8
0
10
352.6183672
20
-128.1314704
11
338.6186051
21
-128.0498593
0
LINE
8
0
10
338.6186051
20
-128.0498593
11
338.536994
21
-142.0496214
0
LINE
8
0
10
338.6480434
20
-122.9999451
11
352.6478055
21
-123.0815562
0
LINE
8
0
10
352.6478055
20
-123.0815562
11
352.7294166
21
-109.0817941
0
LINE
8
0
10
352.7294166
20
-109.0817941
11
338.7296545
21
-109.000183
0
LINE
8
0
10
338.7296545
20
-109.000183
11
338.6480434
21
-122.9999451
0
LINE
8
0
10
352.7588549
20
-104.0318798
11
352.840466
21
-90.0321177
0
LINE
8
0
10
338.8701422
20
-84.9005924
11
352.8699043
21
-84.9822035
0
LINE
8
0
10
352.8699043
20
-84.9822035
11
352.9515154
21
-70.9824414
0
LINE
8
0
10
352.9515154
20
-70.9824414
11
338.9517533
21
-70.9008303
0
LINE
8
0
10
338.9517533
20
-70.9008303
11
338.8701422
21
-84.9005924
0
LINE
8
0
10
339.111848
20
-192.9547721
11
348.5401662
21
-182.6055299
0
LINE
8
0
10
348.5401662
20
-182.6055299
11
345.8921487
21
-180.1931454
0
LINE
8
0
10
338.3546673
20
-173.3263844
11
338.190924
21
-173.1772117
0
LINE
8
0
10
338.190924
20
-173.1772117
11
328.7626058
21
-183.5264539
0
LINE
8
0
10
328.7626058
20
-183.5264539
11
339.111848
21
-192.9547721
0
LINE
8
0
10
325.0294862
20
-180.1255247
11
334.4578044
21
-169.7762825
0
LINE
8
0
10
334.4578044
20
-169.7762825
11
324.1085622
21
-160.3479643
0
LINE
8
0
10
324.1085622
20
-160.3479643
11
314.680244
21
-170.6972065
0
LINE
8
0
10
314.680244
20
-170.6972065
11
325.0294862
21
-180.1255247
0
LINE
8
0
10
352.3250316
20
-178.4509725
11
361.3694135
21
-168.5231681
0
LINE
8
0
10
361.3694135
20
-168.5231681
11
352.4303782
21
-160.37957
0
LINE
8
0
10
349.137204
20
-161.1617386
11
344.5608024
21
-166.1851465
0
LINE
8
0
10
337.8587335
20
-166.0431629
11
342.341874
21
-161.1221255
0
LINE
8
0
10
338.504099
20
-147.6925163
11
336.9378095
21
-146.2656025
0
LINE
8
0
10
336.9378095
20
-146.2656025
11
327.5094913
21
-156.6148447
0
LINE
8
0
10
327.5094913
20
-156.6148447
11
337.8587335
21
-166.0431629
0
LINE
8
0
10
367.9776544
20
-161.269458
11
377.4059726
21
-150.9202158
0
LINE
8
0
10
377.4059726
20
-150.9202158
11
367.0567304
21
-141.4918976
0
LINE
8
0
10
367.0567304
20
-141.4918976
11
357.6284122
21
-151.8411398
0
LINE
8
0
10
357.6284122
20
-151.8411398
11
367.9776544
21
-161.269458
0
LINE
8
0
10
353.8952926
20
-148.4402107
11
363.3236108
21
-138.0909685
0
LINE
8
0
10
363.3236108
20
-138.0909685
11
352.9743686
21
-128.6626503
0
LINE
8
0
10
352.9743686
20
-128.6626503
11
352.6129581
21
-129.0593621
0
LINE
8
0
10
346.9342264
20
-142.0985728
11
353.8952926
21
-148.4402107
0
LINE
8
0
10
380.8069017
20
-147.1870962
11
390.2352199
21
-136.837854
0
LINE
8
0
10
390.2352199
20
-136.837854
11
379.8859777
21
-127.4095358
0
LINE
8
0
10
379.8859777
20
-127.4095358
11
370.4576595
21
-137.758778
0
LINE
8
0
10
370.4576595
20
-137.758778
11
380.8069017
21
-147.1870962
0
LINE
8
0
10
366.7245399
20
-134.3578489
11
376.1528581
21
-124.0086067
0
LINE
8
0
10
376.1528581
20
-124.0086067
11
365.8036159
21
-114.5802885
0
LINE
8
0
10
365.8036159
20
-114.5802885
11
356.3752977
21
-124.9295307
0
LINE
8
0
10
356.3752977
20
-124.9295307
11
366.7245399
21
-134.3578489
0
LINE
8
0
10
367.3336072
20
-104.1168429
11
381.3333693
21
-104.198454
0
LINE
8
0
10
381.3333693
20
-104.198454
11
381.4149804
21
-90.1986919
0
LINE
8
0
10
381.4149804
20
-90.1986919
11
367.4152183
21
-90.1170808
0
LINE
8
0
10
367.4152183
20
-90.1170808
11
367.3336072
21
-104.1168429
0
LINE
8
0
10
367.4446566
20
-85.0671666
11
381.4444187
21
-85.1487777
0
LINE
8
0
10
381.4444187
20
-85.1487777
11
381.5260298
21
-71.1490156
0
LINE
8
0
10
381.5260298
20
-71.1490156
11
367.5262677
21
-71.0674045
0
LINE
8
0
10
367.5262677
20
-71.0674045
11
367.4446566
21
-85.0671666
0
LINE
8
0
10
386.3832836
20
-104.2278923
11
400.3830457
21
-104.3095034
0
LINE
8
0
10
400.3830457
20
-104.3095034
11
400.4646568
21
-90.3097413
0
LINE
8
0
10
400.4646568
20
-90.3097413
11
386.4648947
21
-90.2281302
0
LINE
8
0
10
386.4648947
20
-90.2281302
11
386.3832836
21
-104.2278923
0
LINE
8
0
10
386.494333
20
-85.1782159
11
400.4940951
21
-85.259827
0
LINE
8
0
10
400.4940951
20
-85.259827
11
400.5757062
21
-71.2600649
0
LINE
8
0
10
400.5757062
20
-71.2600649
11
386.5759441
21
-71.1784538
0
LINE
8
0
10
386.5759441
20
-71.1784538
11
386.494333
21
-85.1782159
0
CIRCLE
8
0
10
29.2428513
20
-65.8895431
40
1.5
0
CIRCLE
8
0
10
149.5991494
20
-98.1117449
40
1.5
0
CIRCLE
8
0
10
176.782678
20
-98.0155484
40
1.5
0
CIRCLE
8
0
10
147.2717316
20
-155.2143334
40
1.5
0
CIRCLE
8
0
10
179.4409353
20
-155.1036924
40
1.5
0
CIRCLE
8
0
10
401.1387339
20
-64.7382362
40
1.5
0
CIRCLE
8
0
10
394.4136048
20
-120.2239145
40
1.5
0
CIRCLE
8
0
10
317.2523457
20
-186.6853277
40
1.5
0
CIRCLE
8
0
10
25.5075495
20
-174.7153129
40
1.5
0
ENDSEC
0
EOF