<?xml version="1.0"?>
<svg
  xmlns="http://www.w3.org/2000/svg"
  xmlns:xlink="http://www.w3.org/1999/xlink" version="1.1"
  preserveAspectRatio="xMinYMin meet"
  viewBox="21.5809794 67.0749492 373.6339477 130.85953009999997"
  width="100%" height="100%"
>
  <g stroke="#000000" stroke-width="0.1%" fill="none" transform="matrix(1,0,0,-1,0,0)">
    <g stroke="rgb(0, 0, 0)"><path d="M21.7852647,-135.1809085L21.8024096,-136.6558088" /></g>
<g stroke="rgb(0, 0, 0)"><path d="M21.6800709,-126.1315199L21.7033182,-128.1313848" /></g>
<g stroke="rgb(0, 0, 0)"><path d="M21.7033182,-128.1313848L21.7852647,-135.1809085" /></g>
<g stroke="rgb(0, 0, 0)"><path d="M21.6516283,-123.6847238L21.6800709,-126.1315199" /></g>
<g stroke="rgb(0, 0, 0)"><path d="M21.5809794,-117.6070958L21.6516283,-123.6847238" /></g>
<g stroke="rgb(0, 0, 0)"><path d="M26.4694103,-85.3969038L26.499355,-87.9729245" /></g>
<g stroke="rgb(0, 0, 0)"><path d="M26.4002635,-79.4485003L26.4694103,-85.3969038" /></g>
<g stroke="rgb(0, 0, 0)"><path d="M36.318228,-154.0632583L36.3353729,-155.5381586" /></g>
<g stroke="rgb(0, 0, 0)"><path d="M36.318228,-154.0632583L36.1310875,-137.964346" /></g>
<g stroke="rgb(0, 0, 0)"><path d="M36.0967979,-135.0145452L36.1310875,-137.964346" /></g>
<g stroke="rgb(0, 0, 0)"><path d="M36.0967979,-135.0145452L35.9096574,-118.9156329" /></g>
<g stroke="rgb(0, 0, 0)"><path d="M35.9096574,-118.9156329L35.8925125,-117.4407326" /></g>
<g stroke="rgb(0, 0, 0)"><path d="M35.8777583,-116.1714897L35.8925125,-117.4407326" /></g>
<g stroke="rgb(0, 0, 0)"><path d="M55.5726326,-173.4823288L55.5812309,-172.0073538" /></g>
<g stroke="rgb(0, 0, 0)"><path d="M55.5812309,-172.0073538L55.5961278,-169.4519023" /></g>
<g stroke="rgb(0, 0, 0)"><path d="M66.0252586,-95.8669422L66.0297958,-95.0886279" /></g>
<g stroke="rgb(0, 0, 0)"><path d="M66.0166603,-97.3419172L66.0252586,-95.8669422" /></g>
<g stroke="rgb(0, 0, 0)"><path d="M75.9724364,-113.6257231L76.0067753,-112.151123" /></g>
<g stroke="rgb(0, 0, 0)"><path d="M95.2265835,-133.777025L95.2866525,-132.3032487" /></g>
<g stroke="rgb(0, 0, 0)"><path d="M146.5900789,-118.5311412L147.3658848,-99.496945" /></g>
<g stroke="rgb(0, 0, 0)"><path d="M147.3658848,-99.496945L147.4259538,-98.0231687" /></g>
<g stroke="rgb(0, 0, 0)"><path d="M147.4259538,-98.0231687L147.773132,-89.505241" /></g>
<g stroke="rgb(0, 0, 0)"><path d="M147.773132,-89.505241L147.8545815,-87.5069002" /></g>
<g stroke="rgb(0, 0, 0)"><path d="M148.2618287,-77.5151961L148.2017597,-78.9889725" /></g>
<g stroke="rgb(0, 0, 0)"><path d="M148.2017597,-78.9889725L147.8545815,-87.5069002" /></g>
<g stroke="rgb(0, 0, 0)"><path d="M115.5658379,-117.2666387L146.5900789,-118.5311412" /></g>
<g stroke="rgb(0, 0, 0)"><path d="M115.5658379,-117.2666387L116.3416438,-98.2324425" /></g>
<g stroke="rgb(0, 0, 0)"><path d="M116.3416438,-98.2324425L116.4017127,-96.7586661" /></g>
<g stroke="rgb(0, 0, 0)"><path d="M116.4017127,-96.7586661L117.1775186,-77.7244699" /></g>
<g stroke="rgb(0, 0, 0)"><path d="M117.1775186,-77.7244699L117.2375876,-76.2506936" /></g>
<g stroke="rgb(0, 0, 0)"><path d="M148.2618287,-77.5151961L148.6303874,-68.472704" /></g>
<g stroke="rgb(0, 0, 0)"><path d="M117.6061463,-67.2082014L148.6303874,-68.472704" /></g>
<g stroke="rgb(0, 0, 0)"><path d="M117.2375876,-76.2506936L117.6061463,-67.2082014" /></g>
<g stroke="rgb(0, 0, 0)"><path d="M179.7728019,-115.470359L179.8414097,-116.9437625" /></g>
<g stroke="rgb(0, 0, 0)"><path d="M188.8013783,-114.7996807L188.8699861,-116.2730842" /></g>
<g stroke="rgb(0, 0, 0)"><path d="M208.3642479,-97.7713086L208.836045,-113.9924142" /></g>
<g stroke="rgb(0, 0, 0)"><path d="M229.1184424,-133.1084151L229.1355872,-134.5833154" /></g>
<g stroke="rgb(0, 0, 0)"><path d="M248.9653733,-115.4770241L248.9802702,-112.9215823" /></g>
<g stroke="rgb(0, 0, 0)"><path d="M287.064726,-115.699123L287.0796229,-113.143678" /></g>
<g stroke="rgb(0, 0, 0)"><path d="M287.3481789,-67.0749492L356.4970041,-67.4780498" /></g>
<g stroke="rgb(0, 0, 0)"><path d="M306.2168535,-98.2354711L287.1671771,-98.1244216" /></g>
<g stroke="rgb(0, 0, 0)"><path d="M287.1671771,-98.1244216L287.2868248,-77.5997703" /></g>
<g stroke="rgb(0, 0, 0)"><path d="M287.2868248,-77.5997703L287.3481789,-67.0749492" /></g>
<g stroke="rgb(0, 0, 0)"><path d="M306.0530483,-126.3349937L337.1025207,-126.5159956" /></g>
<g stroke="rgb(0, 0, 0)"><path d="M337.1025207,-126.5159956L337.1552765,-117.4661493" /></g>
<g stroke="rgb(0, 0, 0)"><path d="M306.0530483,-126.3349937L306.1144023,-115.8101725" /></g>
<g stroke="rgb(0, 0, 0)"><path d="M306.1144023,-115.8101725L306.2168535,-98.2354711" /></g>
<g stroke="rgb(0, 0, 0)"><path d="M342.575979,-107.4975792L342.6870285,-88.4479027" /></g>
<g stroke="rgb(0, 0, 0)"><path d="M342.575979,-107.4975792L342.5176853,-117.4974092" /></g>
<g stroke="rgb(0, 0, 0)"><path d="M342.5176853,-117.4974092L337.1552765,-117.4661493" /></g>
<g stroke="rgb(0, 0, 0)"><path d="M342.6870285,-88.4479027L356.3742959,-88.5276922" /></g>
<g stroke="rgb(0, 0, 0)"><path d="M356.3742959,-88.5276922L356.4970041,-67.4780498" /></g>
<g stroke="rgb(0, 0, 0)"><path d="M339.3437236,-197.9344793L366.3491207,-168.2912925" /></g>
<g stroke="rgb(0, 0, 0)"><path d="M309.7005368,-170.9290821L339.3437236,-197.9344793" /></g>
<g stroke="rgb(0, 0, 0)"><path d="M309.7005368,-170.9290821L336.7059339,-141.2858953" /></g>
<g stroke="rgb(0, 0, 0)"><path d="M336.7059339,-141.2858953L366.3491207,-168.2912925" /></g>
<g stroke="rgb(0, 0, 0)"><path d="M368.20953,-166.2491652L395.2149271,-136.6059784" /></g>
<g stroke="rgb(0, 0, 0)"><path d="M338.5663432,-139.2437681L368.20953,-166.2491652" /></g>
<g stroke="rgb(0, 0, 0)"><path d="M338.5663432,-139.2437681L365.5717403,-109.6005813" /></g>
<g stroke="rgb(0, 0, 0)"><path d="M365.5717403,-109.6005813L395.2149271,-136.6059784" /></g>
<g stroke="rgb(0, 0, 0)"><path d="M363.8494726,-97.0964133L363.8540098,-96.3180989" /></g>
  </g>
</svg>