0
SECTION
2
HEADER
9
$INSUNITS
70
4
0
ENDSEC
0
SECTION
2
TABLES
0
TABLE
2
LTYPE
0
LTYPE
72
65
70
64
2
CONTINUOUS
3
______
73
0
40
0
0
ENDTAB
0
TABLE
2
LAYER
0
ENDTAB
0
ENDSEC
0
SECTION
2
ENTITIES
0
LINE
8
0
10
23.6398568
20
-133.6035502
11
23.655323
21
-133.8247275
0
LINE
8
0
10
58.8435188
20
-147.8615627
11
58.8949956
21
-149.3356642
0
LINE
8
0
10
184.4633483
20
-128.357052
11
184.5405439
21
-129.8300305
0
LINE
8
0
10
184.3861528
20
-126.8840734
11
184.4633483
21
-128.357052
0
LINE
8
0
10
194.0850885
20
-125.7727642
11
194.1171921
21
-126.6920889
0
LINE
8
0
10
213.8049452
20
-125.752948
11
213.8211602
21
-126.6819065
0
LINE
8
0
10
213.5122515
20
-108.9845392
11
213.8049452
21
-125.752948
0
LINE
8
0
10
296.2033312
20
-60.24525
11
285.316784
21
-59.8650834
0
LINE
8
0
10
284.2331547
20
-90.8961686
11
285.316784
21
-59.8650834
0
LINE
8
0
10
294.5780522
20
-91.2574204
11
284.2331547
21
-90.8961686
0
LINE
8
0
10
297.4837172
20
-138.2770478
11
328.4911642
21
-139.9020792
0
LINE
8
0
10
328.4911642
20
-139.9020792
11
328.9648047
21
-130.8644818
0
LINE
8
0
10
297.4837172
20
-138.2770478
11
297.9573576
21
-129.2394504
0
LINE
8
0
10
334.1183329
20
-121.1395127
11
333.5959491
21
-131.1071898
0
LINE
8
0
10
333.5959491
20
-131.1071898
11
328.9648047
21
-130.8644818
0
LINE
8
0
10
297.9573576
20
-129.2394504
11
292.6022067
21
-128.9587988
0
LINE
8
0
10
292.6022067
20
-128.9587988
11
293.5992067
21
-109.9349062
0
LINE
8
0
10
293.5992067
20
-109.9349062
11
293.6764022
21
-108.4619276
0
LINE
8
0
10
293.6764022
20
-108.4619276
11
294.5780522
21
-91.2574204
0
LINE
8
0
10
296.2212381
20
-59.9035665
11
317.0857877
21
-60.9970312
0
LINE
8
0
10
296.2033312
20
-60.24525
11
296.2212381
21
-59.9035665
0
LINE
8
0
10
334.1183329
20
-121.1395127
11
343.9579233
21
-121.8275639
0
LINE
8
0
10
343.9579233
20
-121.8275639
11
344.5892194
21
-112.7996092
0
LINE
8
0
10
349.9386566
20
-113.1736783
11
351.9698331
21
-84.126501
0
LINE
8
0
10
349.9386566
20
-113.1736783
11
344.5892194
21
-112.7996092
0
LINE
8
0
10
317.1096551
20
-60.6557118
11
337.9519432
21
-62.1131466
0
LINE
8
0
10
317.0857877
20
-60.9970312
11
317.1096551
21
-60.6557118
0
LINE
8
0
10
351.9698331
20
-84.126501
11
367.0789808
21
-85.4483801
0
LINE
8
0
10
367.0789808
20
-85.4483801
11
368.9136092
21
-64.4784817
0
LINE
8
0
10
337.9817638
20
-61.7722959
11
368.9136092
21
-64.4784817
0
LINE
8
0
10
337.9519432
20
-62.1131466
11
337.9817638
21
-61.7722959
0
LINE
8
0
10
349.8373872
20
-182.2855485
11
376.6695245
21
-152.4854409
0
LINE
8
0
10
320.0372797
20
-155.4534112
11
349.8373872
21
-182.2855485
0
LINE
8
0
10
320.0372797
20
-155.4534112
11
346.8694169
21
-125.6533037
0
LINE
8
0
10
346.8694169
20
-125.6533037
11
376.6695245
21
-152.4854409
0
LINE
8
0
10
392.6749068
20
-163.1794414
11
419.507044
21
-133.3793339
0
LINE
8
0
10
362.8747992
20
-136.3473042
11
392.6749068
21
-163.1794414
0
LINE
8
0
10
362.8747992
20
-136.3473042
11
389.7038974
21
-106.5505718
0
LINE
8
0
10
389.7114154
20
-106.5512295
11
419.507044
21
-133.3793339
0
LINE
8
0
10
372.9150291
20
-105.0817361
11
389.7038974
21
-106.5505718
0
LINE
8
0
10
389.7114154
20
-106.5512295
11
431.8399455
21
-110.2369983
0
LINE
8
0
10
372.9150291
20
-105.0817361
11
376.4099744
21
-65.1343287
0
LINE
8
0
10
376.4099744
20
-65.1343287
11
435.3348908
21
-70.2895909
0
LINE
8
0
10
431.8399455
20
-110.2369983
11
435.3348908
21
-70.2895909
0
ENDSEC
0
EOF