0
SECTION
2
HEADER
9
$INSUNITS
70
4
0
ENDSEC
0
SECTION
2
TABLES
0
TABLE
2
LTYPE
0
LTYPE
72
65
70
64
2
CONTINUOUS
3
______
73
0
40
0
0
ENDTAB
0
TABLE
2
LAYER
0
ENDTAB
0
ENDSEC
0
SECTION
2
ENTITIES
0
LINE
8
0
10
-10.525
20
-10.525
11
67.525
21
-10.525
0
LINE
8
0
10
-10.525
20
-10.525
11
-10.525
21
105.525
0
LINE
8
0
10
10.525
20
10.525
11
10.525
21
65.475
0
LINE
8
0
10
10.525
20
86.525
11
10.525
21
105.525
0
LINE
8
0
10
10.525
20
105.525
11
-10.525
21
105.525
0
LINE
8
0
10
18
20
10.525
11
10.525
21
10.525
0
LINE
8
0
10
18
20
10.525
11
18
21
65.475
0
LINE
8
0
10
10.525
20
65.475
11
18
21
65.475
0
LINE
8
0
10
27.475
20
86.525
11
10.525
21
86.525
0
LINE
8
0
10
27.475
20
105.525
11
105.525
21
105.525
0
LINE
8
0
10
27.475
20
105.525
11
27.475
21
86.525
0
LINE
8
0
10
67.525
20
-10.525
11
67.525
21
8.475
0
LINE
8
0
10
67.525
20
8.475
11
84.525
21
8.475
0
LINE
8
0
10
84.525
20
-10.525
11
105.575
21
-10.525
0
LINE
8
0
10
105.575
20
-10.525
11
105.575
21
8.475
0
LINE
8
0
10
84.525
20
8.475
11
84.525
21
-10.525
0
LINE
8
0
10
105.575
20
8.475
11
115.05
21
8.475
0
LINE
8
0
10
115.05
20
8.475
11
115.05
21
67.525
0
LINE
8
0
10
115.05
20
67.525
11
105.525
21
67.525
0
LINE
8
0
10
105.525
20
67.525
11
105.525
21
105.525
0
LINE
8
0
10
160.675
20
-10.525
11
181.725
21
-10.525
0
LINE
8
0
10
181.725
20
-10.525
11
181.725
21
8.475
0
LINE
8
0
10
160.675
20
8.475
11
160.675
21
-10.525
0
LINE
8
0
10
151.15
20
8.475
11
160.675
21
8.475
0
LINE
8
0
10
151.15
20
8.475
11
151.15
21
84.475
0
LINE
8
0
10
141.625
20
84.475
11
151.15
21
84.475
0
LINE
8
0
10
141.625
20
105.525
11
219.675
21
105.525
0
LINE
8
0
10
141.625
20
105.525
11
141.625
21
84.475
0
LINE
8
0
10
181.725
20
8.475
11
198.625
21
8.475
0
LINE
8
0
10
198.625
20
-10.525
11
276.675
21
-10.525
0
LINE
8
0
10
198.625
20
8.475
11
198.625
21
-10.525
0
LINE
8
0
10
219.675
20
86.525
11
236.625
21
86.525
0
LINE
8
0
10
219.675
20
86.525
11
219.675
21
105.525
0
LINE
8
0
10
248.2
20
10.525
11
248.2
21
27.475
0
LINE
8
0
10
248.2
20
10.525
11
255.675
21
10.525
0
LINE
8
0
10
276.675
20
8.475
11
276.725
21
8.475
0
LINE
8
0
10
276.725
20
8.475
11
276.725
21
27.475
0
LINE
8
0
10
274.675
20
29.525
11
267.2
21
29.525
0
LINE
8
0
10
255.675
20
27.475
11
255.675
21
10.525
0
LINE
8
0
10
248.2
20
27.475
11
255.675
21
27.475
0
LINE
8
0
10
267.2
20
29.525
11
267.2
21
46.475
0
LINE
8
0
10
236.625
20
105.525
11
314.675
21
105.525
0
LINE
8
0
10
236.625
20
105.525
11
236.625
21
86.525
0
LINE
8
0
10
276.675
20
-10.525
11
276.675
21
8.475
0
LINE
8
0
10
276.725
20
27.475
11
295.725
21
27.475
0
LINE
8
0
10
295.725
20
27.475
11
295.725
21
46.475
0
LINE
8
0
10
274.675
20
46.475
11
274.675
21
29.525
0
LINE
8
0
10
267.2
20
46.475
11
274.675
21
46.475
0
LINE
8
0
10
286.2
20
67.525
11
286.2
21
84.475
0
LINE
8
0
10
295.725
20
46.475
11
305.2
21
46.475
0
LINE
8
0
10
305.2
20
46.475
11
305.2
21
65.475
0
LINE
8
0
10
293.675
20
67.525
11
286.2
21
67.525
0
LINE
8
0
10
305.2
20
65.475
11
314.725
21
65.475
0
LINE
8
0
10
314.725
20
65.475
11
314.725
21
86.525
0
LINE
8
0
10
314.725
20
86.525
11
314.675
21
86.525
0
LINE
8
0
10
293.675
20
84.475
11
293.675
21
67.525
0
LINE
8
0
10
286.2
20
84.475
11
293.675
21
84.475
0
LINE
8
0
10
314.675
20
86.525
11
314.675
21
105.525
0
LINE
8
0
10
323.6
20
-14.8845977
11
351.9196265
21
13.4350288
0
LINE
8
0
10
295.2803735
20
13.4350288
11
323.6
21
-14.8845977
0
LINE
8
0
10
295.2803735
20
13.4350288
11
323.6
21
41.7546553
0
LINE
8
0
10
323.6
20
41.7546553
11
351.9196265
21
13.4350288
0
LINE
8
0
10
367.3433932
20
8.6532192
11
395.6630197
21
36.9728457
0
LINE
8
0
10
339.0237667
20
36.9728457
11
367.3433932
21
8.6532192
0
LINE
8
0
10
339.0237667
20
36.9728457
11
367.3433932
21
65.2924722
0
LINE
8
0
10
367.3433932
20
65.2924722
11
395.6630197
21
36.9728457
0
LINE
8
0
10
331.725
20
65.475
11
390.775
21
65.475
0
LINE
8
0
10
331.725
20
65.475
11
331.725
21
105.525
0
LINE
8
0
10
331.725
20
105.525
11
390.775
21
105.525
0
LINE
8
0
10
390.775
20
65.475
11
390.775
21
105.525
0
ENDSEC
0
EOF