0
SECTION
2
HEADER
9
$INSUNITS
70
4
0
ENDSEC
0
SECTION
2
TABLES
0
TABLE
2
LTYPE
0
LTYPE
72
65
70
64
2
CONTINUOUS
3
______
73
0
40
0
0
ENDTAB
0
TABLE
2
LAYER
0
ENDTAB
0
ENDSEC
0
SECTION
2
ENTITIES
0
LINE
8
0
10
64.762724
20
-84.7846446
11
64.7649598
21
-84.9554382
0
LINE
8
0
10
64.7190417
20
-81.4477497
11
64.7365448
21
-82.784816
0
LINE
8
0
10
64.624956
20
-74.2605463
11
64.7190417
21
-81.4477497
0
LINE
8
0
10
74.9894329
20
-148.975971
11
74.9958688
21
-147.5009851
0
LINE
8
0
10
74.9958688
20
-147.5009851
11
75.066118
21
-131.4011382
0
LINE
8
0
10
116.598544
20
-92.9404679
11
116.6564523
21
-91.4666051
0
LINE
8
0
10
117.3464435
20
-73.9051548
11
117.4043517
21
-72.4312919
0
LINE
8
0
10
181.8796976
20
-140.8715771
11
181.9407746
21
-142.8706443
0
LINE
8
0
10
180.7161802
20
-102.7893472
11
180.7772572
21
-104.7884144
0
LINE
8
0
10
191.5638471
20
-150.5000192
11
191.5831543
21
-151.9748929
0
LINE
8
0
10
191.5638471
20
-150.5000192
11
191.4494443
21
-141.7607892
0
LINE
8
0
10
191.4494443
20
-141.7607892
11
191.3144903
21
-131.4516513
0
LINE
8
0
10
191.5638471
20
-150.5000192
11
191.3144903
21
-131.4516513
0
LINE
8
0
10
211.0195971
20
-128.3662718
11
211.0898463
21
-112.266425
0
LINE
8
0
10
211.0962822
20
-110.791439
11
211.1027181
21
-109.3164531
0
LINE
8
0
10
211.0898463
20
-112.266425
11
211.0962822
21
-110.791439
0
LINE
8
0
10
250.4056389
20
-132.6522273
11
250.4635472
21
-131.1783645
0
LINE
8
0
10
294.8185997
20
-66.6925549
11
283.9429365
21
-66.07499
0
LINE
8
0
10
282.1826254
20
-97.0750513
11
283.9429365
21
-66.07499
0
LINE
8
0
10
292.5171805
20
-97.6618899
11
282.1826254
21
-97.0750513
0
LINE
8
0
10
294.3964262
20
-144.7337146
11
325.3610444
21
-147.0347833
0
LINE
8
0
10
325.3610444
20
-147.0347833
11
326.0317263
21
-138.009669
0
LINE
8
0
10
294.3964262
20
-144.7337146
11
295.0671081
21
-135.7086004
0
LINE
8
0
10
331.3961773
20
-128.3994379
11
330.6564741
21
-138.3533471
0
LINE
8
0
10
330.6564741
20
-138.3533471
11
326.0317263
21
-138.009669
0
LINE
8
0
10
295.0671081
20
-135.7086004
11
289.719354
21
-135.3111936
0
LINE
8
0
10
289.719354
20
-135.3111936
11
291.1311207
21
-116.3135776
0
LINE
8
0
10
291.1311207
20
-116.3135776
11
291.2404308
21
-114.8426335
0
LINE
8
0
10
291.2404308
20
-114.8426335
11
292.5171805
21
-97.6618899
0
LINE
8
0
10
294.8439561
20
-66.3513433
11
315.6796867
21
-67.8997056
0
LINE
8
0
10
294.8185997
20
-66.6925549
11
294.8439561
21
-66.3513433
0
LINE
8
0
10
331.3961773
20
-128.3994379
11
341.2184163
21
-129.3019748
0
LINE
8
0
10
341.2184163
20
-129.3019748
11
342.046506
21
-120.2899401
0
LINE
8
0
10
347.3865099
20
-120.7806176
11
350.0508639
21
-91.7846627
0
LINE
8
0
10
347.3865099
20
-120.7806176
11
342.046506
21
-120.2899401
0
LINE
8
0
10
315.7109942
20
-67.558988
11
336.5165287
21
-69.470748
0
LINE
8
0
10
315.6796867
20
-67.8997056
11
315.7109942
21
-67.558988
0
LINE
8
0
10
350.0508639
20
-91.7846627
11
365.1275794
21
-93.4358315
0
LINE
8
0
10
365.1275794
20
-93.4358315
11
367.4192271
21
-72.5109456
0
LINE
8
0
10
336.5537778
20
-69.1306291
11
367.4192271
21
-72.5109456
0
LINE
8
0
10
336.5165287
20
-69.470748
11
336.5537778
21
-69.1306291
0
LINE
8
0
10
339.2247679
20
-196.8396944
11
366.7006057
21
-167.6320185
0
LINE
8
0
10
310.017092
20
-169.3638565
11
339.2247679
21
-196.8396944
0
LINE
8
0
10
310.017092
20
-169.3638565
11
337.4929298
21
-140.1561806
0
LINE
8
0
10
337.4929298
20
-140.1561806
11
366.7006057
21
-167.6320185
0
LINE
8
0
10
368.5934238
20
-165.6198937
11
396.0692616
21
-136.4122178
0
LINE
8
0
10
339.3857479
20
-138.1440558
11
368.5934238
21
-165.6198937
0
LINE
8
0
10
339.3857479
20
-138.1440558
11
366.8615857
21
-108.9363799
0
LINE
8
0
10
371.4974307
20
-113.2973475
11
396.0692616
21
-136.4122178
0
LINE
8
0
10
370.613454
20
-112.4657852
11
366.8615857
21
-108.9363799
0
LINE
8
0
10
371.4974307
20
-113.2973475
11
410.3955986
21
-117.5573897
0
LINE
8
0
10
370.613454
20
-112.4657852
11
374.8995011
21
-73.3301688
0
LINE
8
0
10
374.8995011
20
-73.3301688
11
414.7611602
21
-77.6957305
0
LINE
8
0
10
410.3955986
20
-117.5573897
11
414.7611602
21
-77.6957305
0
ENDSEC
0
EOF