0
SECTION
2
HEADER
9
$INSUNITS
70
4
0
ENDSEC
0
SECTION
2
TABLES
0
TABLE
2
LTYPE
0
LTYPE
72
65
70
64
2
CONTINUOUS
3
______
73
0
40
0
0
ENDTAB
0
TABLE
2
LAYER
0
ENDTAB
0
ENDSEC
0
SECTION
2
ENTITIES
0
LINE
8
0
10
23.6398568
20
-133.6035502
11
23.655323
21
-133.8247275
0
LINE
8
0
10
58.8435188
20
-147.8615627
11
58.8949956
21
-149.3356642
0
LINE
8
0
10
303.72544
20
-60.4765641
11
292.8388927
21
-60.0963975
0
LINE
8
0
10
291.7552634
20
-91.1274827
11
292.8388927
21
-60.0963975
0
LINE
8
0
10
302.100161
20
-91.4887345
11
291.7552634
21
-91.1274827
0
LINE
8
0
10
305.0058259
20
-138.5083619
11
336.0132729
21
-140.1333933
0
LINE
8
0
10
336.0132729
20
-140.1333933
11
336.4869134
21
-131.095796
0
LINE
8
0
10
305.0058259
20
-138.5083619
11
305.4794663
21
-129.4707646
0
LINE
8
0
10
341.6404417
20
-121.3708268
11
341.1180579
21
-131.338504
0
LINE
8
0
10
341.1180579
20
-131.338504
11
336.4869134
21
-131.095796
0
LINE
8
0
10
305.4794663
20
-129.4707646
11
300.1243155
21
-129.190113
0
LINE
8
0
10
300.1243155
20
-129.190113
11
301.1213155
21
-110.1662203
0
LINE
8
0
10
301.1213155
20
-110.1662203
11
301.198511
21
-108.6932418
0
LINE
8
0
10
301.198511
20
-108.6932418
11
302.100161
21
-91.4887345
0
LINE
8
0
10
303.7433469
20
-60.1348806
11
324.6078964
21
-61.2283453
0
LINE
8
0
10
303.72544
20
-60.4765641
11
303.7433469
21
-60.1348806
0
LINE
8
0
10
341.6404417
20
-121.3708268
11
351.480032
21
-122.058878
0
LINE
8
0
10
351.480032
20
-122.058878
11
352.1113281
21
-113.0309233
0
LINE
8
0
10
357.4607654
20
-113.4049924
11
359.4919419
21
-84.3578151
0
LINE
8
0
10
357.4607654
20
-113.4049924
11
352.1113281
21
-113.0309233
0
LINE
8
0
10
324.6317638
20
-60.8870259
11
345.474052
21
-62.3444607
0
LINE
8
0
10
324.6078964
20
-61.2283453
11
324.6317638
21
-60.8870259
0
LINE
8
0
10
359.4919419
20
-84.3578151
11
374.6010896
21
-85.6796943
0
LINE
8
0
10
374.6010896
20
-85.6796943
11
376.435718
21
-64.7097959
0
LINE
8
0
10
345.5038726
20
-62.0036101
11
376.435718
21
-64.7097959
0
LINE
8
0
10
345.474052
20
-62.3444607
11
345.5038726
21
-62.0036101
0
LINE
8
0
10
357.359496
20
-182.5168626
11
384.1916332
21
-152.716755
0
LINE
8
0
10
327.5593884
20
-155.6847254
11
357.359496
21
-182.5168626
0
LINE
8
0
10
327.5593884
20
-155.6847254
11
354.3915256
21
-125.8846178
0
LINE
8
0
10
354.3915256
20
-125.8846178
11
384.1916332
21
-152.716755
0
LINE
8
0
10
400.1970155
20
-163.4107556
11
427.0291527
21
-133.610648
0
LINE
8
0
10
370.396908
20
-136.5786183
11
400.1970155
21
-163.4107556
0
LINE
8
0
10
370.396908
20
-136.5786183
11
397.2260062
21
-106.781886
0
LINE
8
0
10
397.2335242
20
-106.7825437
11
427.0291527
21
-133.610648
0
LINE
8
0
10
380.4371378
20
-105.3130503
11
397.2260062
21
-106.781886
0
LINE
8
0
10
397.2335242
20
-106.7825437
11
439.3620542
21
-110.4683125
0
LINE
8
0
10
380.4371378
20
-105.3130503
11
383.9320831
21
-65.3656429
0
LINE
8
0
10
383.9320831
20
-65.3656429
11
442.8569995
21
-70.5209051
0
LINE
8
0
10
439.3620542
20
-110.4683125
11
442.8569995
21
-70.5209051
0
ENDSEC
0
EOF