0
SECTION
2
HEADER
9
$INSUNITS
70
4
0
ENDSEC
0
SECTION
2
TABLES
0
TABLE
2
LTYPE
0
LTYPE
72
65
70
64
2
CONTINUOUS
3
______
73
0
40
0
0
ENDTAB
0
TABLE
2
LAYER
0
ENDTAB
0
ENDSEC
0
SECTION
2
ENTITIES
0
LINE
8
0
10
16.475
20
-185.525
11
132.575
21
-185.525
0
LINE
8
0
10
16.475
20
-185.525
11
16.475
21
-69.475
0
LINE
8
0
10
37.525
20
-78.475
11
54.475
21
-78.475
0
LINE
8
0
10
37.525
20
-78.475
11
37.525
21
-69.475
0
LINE
8
0
10
37.525
20
-69.475
11
16.475
21
-69.475
0
LINE
8
0
10
54.475
20
-69.475
11
132.525
21
-69.475
0
LINE
8
0
10
54.475
20
-69.475
11
54.475
21
-78.475
0
LINE
8
0
10
132.575
20
-185.525
11
132.575
21
-176.525
0
LINE
8
0
10
133.05
20
-166.525
11
133.05
21
-176.525
0
LINE
8
0
10
133.05
20
-176.525
11
132.575
21
-176.525
0
LINE
8
0
10
132.525
20
-97.475
11
142.05
21
-97.475
0
LINE
8
0
10
133.05
20
-166.525
11
142.05
21
-166.525
0
LINE
8
0
10
142.05
20
-166.525
11
142.05
21
-97.475
0
LINE
8
0
10
132.525
20
-97.475
11
132.525
21
-69.475
0
LINE
8
0
10
173.3875
20
-185.525
11
194.4375
21
-185.525
0
LINE
8
0
10
194.4375
20
-185.525
11
194.4375
21
-176.525
0
LINE
8
0
10
173.3875
20
-176.525
11
173.3875
21
-185.525
0
LINE
8
0
10
163.8625
20
-176.525
11
163.8625
21
-100.525
0
LINE
8
0
10
194.9125
20
-166.525
11
194.9125
21
-176.525
0
LINE
8
0
10
194.9125
20
-176.525
11
194.4375
21
-176.525
0
LINE
8
0
10
173.3875
20
-176.525
11
163.8625
21
-176.525
0
LINE
8
0
10
154.3375
20
-69.475
11
232.3875
21
-69.475
0
LINE
8
0
10
154.3375
20
-100.525
11
154.3375
21
-69.475
0
LINE
8
0
10
154.3375
20
-100.525
11
163.8625
21
-100.525
0
LINE
8
0
10
194.9125
20
-166.525
11
210.8625
21
-166.525
0
LINE
8
0
10
232.3875
20
-78.475
11
249.3375
21
-78.475
0
LINE
8
0
10
211.3375
20
-185.525
11
289.3875
21
-185.525
0
LINE
8
0
10
211.3375
20
-176.525
11
211.3375
21
-185.525
0
LINE
8
0
10
211.3375
20
-176.525
11
210.8625
21
-176.525
0
LINE
8
0
10
210.8625
20
-176.525
11
210.8625
21
-166.525
0
LINE
8
0
10
232.3875
20
-78.475
11
232.3875
21
-69.475
0
LINE
8
0
10
299.4375
20
-157.525
11
299.4375
21
-176.525
0
LINE
8
0
10
299.4375
20
-176.525
11
289.3875
21
-176.525
0
LINE
8
0
10
249.3375
20
-69.475
11
327.3875
21
-69.475
0
LINE
8
0
10
249.3375
20
-69.475
11
249.3375
21
-78.475
0
LINE
8
0
10
289.3875
20
-185.525
11
289.3875
21
-176.525
0
LINE
8
0
10
308.4375
20
-155.4053446
11
308.4375
21
-138.525
0
LINE
8
0
10
306.3178447
20
-157.525
11
299.4375
21
-157.525
0
LINE
8
0
10
308.9125
20
-128.525
11
308.9125
21
-138.525
0
LINE
8
0
10
308.9125
20
-138.525
11
308.4375
21
-138.525
0
LINE
8
0
10
308.9125
20
-128.525
11
317.9125
21
-128.525
0
LINE
8
0
10
317.9125
20
-128.525
11
317.9125
21
-119.525
0
LINE
8
0
10
327.4375
20
-119.525
11
327.4375
21
-78.475
0
LINE
8
0
10
327.3875
20
-78.475
11
327.4375
21
-78.475
0
LINE
8
0
10
327.4375
20
-119.525
11
317.9125
21
-119.525
0
LINE
8
0
10
327.3875
20
-78.475
11
327.3875
21
-69.475
0
LINE
8
0
10
332.5025
20
-187.9795977
11
360.8221265
21
-159.6599712
0
LINE
8
0
10
304.1828735
20
-159.6599712
11
332.5025
21
-187.9795977
0
LINE
8
0
10
308.4375
20
-155.4053446
11
332.5025
21
-131.3403447
0
LINE
8
0
10
306.3178447
20
-157.525
11
304.1828735
21
-159.6599712
0
LINE
8
0
10
332.5025
20
-131.3403447
11
360.8221265
21
-159.6599712
0
LINE
8
0
10
373.5518164
20
-165.7888192
11
401.8714429
21
-137.4691927
0
LINE
8
0
10
345.2321899
20
-137.4691927
11
373.5518164
21
-165.7888192
0
LINE
8
0
10
345.2321899
20
-137.4691927
11
373.1763826
21
-109.525
0
LINE
8
0
10
373.9272502
20
-109.525
11
401.8714429
21
-137.4691927
0
LINE
8
0
10
344.4375
20
-109.525
11
373.1763826
21
-109.525
0
LINE
8
0
10
344.4375
20
-109.525
11
344.4375
21
-69.475
0
LINE
8
0
10
373.9272502
20
-109.525
11
403.4875
21
-109.525
0
LINE
8
0
10
344.4375
20
-69.475
11
403.4875
21
-69.475
0
LINE
8
0
10
403.4875
20
-109.525
11
403.4875
21
-69.475
0
ENDSEC
0
EOF