0
SECTION
2
HEADER
9
$INSUNITS
70
4
0
ENDSEC
0
SECTION
2
TABLES
0
TABLE
2
LTYPE
0
LTYPE
72
65
70
64
2
CONTINUOUS
3
______
73
0
40
0
0
ENDTAB
0
TABLE
2
LAYER
0
ENDTAB
0
ENDSEC
0
SECTION
2
ENTITIES
0
LINE
8
0
10
21.7852647
20
-135.1809085
11
21.8024096
21
-136.6558088
0
LINE
8
0
10
21.6800709
20
-126.1315199
11
21.7033182
21
-128.1313848
0
LINE
8
0
10
21.7033182
20
-128.1313848
11
21.7852647
21
-135.1809085
0
LINE
8
0
10
21.6516283
20
-123.6847238
11
21.6800709
21
-126.1315199
0
LINE
8
0
10
21.5809794
20
-117.6070958
11
21.6516283
21
-123.6847238
0
LINE
8
0
10
26.4694103
20
-85.3969038
11
26.499355
21
-87.9729245
0
LINE
8
0
10
26.4002635
20
-79.4485003
11
26.4694103
21
-85.3969038
0
LINE
8
0
10
36.318228
20
-154.0632583
11
36.3353729
21
-155.5381586
0
LINE
8
0
10
36.318228
20
-154.0632583
11
36.1310875
21
-137.964346
0
LINE
8
0
10
36.0967979
20
-135.0145452
11
36.1310875
21
-137.964346
0
LINE
8
0
10
36.0967979
20
-135.0145452
11
35.9096574
21
-118.9156329
0
LINE
8
0
10
35.9096574
20
-118.9156329
11
35.8925125
21
-117.4407326
0
LINE
8
0
10
35.8777583
20
-116.1714897
11
35.8925125
21
-117.4407326
0
LINE
8
0
10
55.5726326
20
-173.4823288
11
55.5812309
21
-172.0073538
0
LINE
8
0
10
55.5812309
20
-172.0073538
11
55.5961278
21
-169.4519023
0
LINE
8
0
10
66.0252586
20
-95.8669422
11
66.0297958
21
-95.0886279
0
LINE
8
0
10
66.0166603
20
-97.3419172
11
66.0252586
21
-95.8669422
0
LINE
8
0
10
75.9724364
20
-113.6257231
11
76.0067753
21
-112.151123
0
LINE
8
0
10
95.2265835
20
-133.777025
11
95.2866525
21
-132.3032487
0
LINE
8
0
10
146.5900789
20
-118.5311412
11
147.3658848
21
-99.496945
0
LINE
8
0
10
147.3658848
20
-99.496945
11
147.4259538
21
-98.0231687
0
LINE
8
0
10
147.4259538
20
-98.0231687
11
147.773132
21
-89.505241
0
LINE
8
0
10
147.773132
20
-89.505241
11
147.8545815
21
-87.5069002
0
LINE
8
0
10
148.2618287
20
-77.5151961
11
148.2017597
21
-78.9889725
0
LINE
8
0
10
148.2017597
20
-78.9889725
11
147.8545815
21
-87.5069002
0
LINE
8
0
10
115.5658379
20
-117.2666387
11
146.5900789
21
-118.5311412
0
LINE
8
0
10
115.5658379
20
-117.2666387
11
116.3416438
21
-98.2324425
0
LINE
8
0
10
116.3416438
20
-98.2324425
11
116.4017127
21
-96.7586661
0
LINE
8
0
10
116.4017127
20
-96.7586661
11
117.1775186
21
-77.7244699
0
LINE
8
0
10
117.1775186
20
-77.7244699
11
117.2375876
21
-76.2506936
0
LINE
8
0
10
148.2618287
20
-77.5151961
11
148.6303874
21
-68.472704
0
LINE
8
0
10
117.6061463
20
-67.2082014
11
148.6303874
21
-68.472704
0
LINE
8
0
10
117.2375876
20
-76.2506936
11
117.6061463
21
-67.2082014
0
LINE
8
0
10
179.7728019
20
-115.470359
11
179.8414097
21
-116.9437625
0
LINE
8
0
10
188.8013783
20
-114.7996807
11
188.8699861
21
-116.2730842
0
LINE
8
0
10
208.3642479
20
-97.7713086
11
208.836045
21
-113.9924142
0
LINE
8
0
10
229.1184424
20
-133.1084151
11
229.1355872
21
-134.5833154
0
LINE
8
0
10
248.9653733
20
-115.4770241
11
248.9802702
21
-112.9215823
0
LINE
8
0
10
287.064726
20
-115.699123
11
287.0796229
21
-113.143678
0
LINE
8
0
10
287.3481789
20
-67.0749492
11
356.4970041
21
-67.4780498
0
LINE
8
0
10
306.2168535
20
-98.2354711
11
287.1671771
21
-98.1244216
0
LINE
8
0
10
287.1671771
20
-98.1244216
11
287.2868248
21
-77.5997703
0
LINE
8
0
10
287.2868248
20
-77.5997703
11
287.3481789
21
-67.0749492
0
LINE
8
0
10
306.0530483
20
-126.3349937
11
337.1025207
21
-126.5159956
0
LINE
8
0
10
337.1025207
20
-126.5159956
11
337.1552765
21
-117.4661493
0
LINE
8
0
10
306.0530483
20
-126.3349937
11
306.1144023
21
-115.8101725
0
LINE
8
0
10
306.1144023
20
-115.8101725
11
306.2168535
21
-98.2354711
0
LINE
8
0
10
342.575979
20
-107.4975792
11
342.6870285
21
-88.4479027
0
LINE
8
0
10
342.575979
20
-107.4975792
11
342.5176853
21
-117.4974092
0
LINE
8
0
10
342.5176853
20
-117.4974092
11
337.1552765
21
-117.4661493
0
LINE
8
0
10
342.6870285
20
-88.4479027
11
356.3742959
21
-88.5276922
0
LINE
8
0
10
356.3742959
20
-88.5276922
11
356.4970041
21
-67.4780498
0
LINE
8
0
10
339.3437236
20
-197.9344793
11
366.3491207
21
-168.2912925
0
LINE
8
0
10
309.7005368
20
-170.9290821
11
339.3437236
21
-197.9344793
0
LINE
8
0
10
309.7005368
20
-170.9290821
11
336.7059339
21
-141.2858953
0
LINE
8
0
10
336.7059339
20
-141.2858953
11
366.3491207
21
-168.2912925
0
LINE
8
0
10
368.20953
20
-166.2491652
11
395.2149271
21
-136.6059784
0
LINE
8
0
10
338.5663432
20
-139.2437681
11
368.20953
21
-166.2491652
0
LINE
8
0
10
338.5663432
20
-139.2437681
11
365.5717403
21
-109.6005813
0
LINE
8
0
10
365.5717403
20
-109.6005813
11
395.2149271
21
-136.6059784
0
LINE
8
0
10
363.8494726
20
-97.0964133
11
363.8540098
21
-96.3180989
0
ENDSEC
0
EOF