0
SECTION
2
HEADER
9
$INSUNITS
70
4
0
ENDSEC
0
SECTION
2
TABLES
0
TABLE
2
LTYPE
0
LTYPE
72
65
70
64
2
CONTINUOUS
3
______
73
0
40
0
0
ENDTAB
0
TABLE
2
LAYER
0
ENDTAB
0
ENDSEC
0
SECTION
2
ENTITIES
0
LINE
8
0
10
16.475
20
-185.525
11
133.375
21
-185.525
0
LINE
8
0
10
16.475
20
-176.475
11
16.475
21
-185.525
0
LINE
8
0
10
11.2125
20
-176.475
11
11.2125
21
-97.325
0
LINE
8
0
10
16.475
20
-176.475
11
11.2125
21
-176.475
0
LINE
8
0
10
11.2125
20
-97.325
11
16.475
21
-97.325
0
LINE
8
0
10
16.475
20
-97.325
11
16.475
21
-69.225
0
LINE
8
0
10
37.525
20
-78.275
11
54.575
21
-78.275
0
LINE
8
0
10
37.525
20
-78.275
11
37.525
21
-69.225
0
LINE
8
0
10
37.525
20
-69.225
11
16.475
21
-69.225
0
LINE
8
0
10
54.575
20
-69.225
11
132.775
21
-69.225
0
LINE
8
0
10
54.575
20
-69.225
11
54.575
21
-78.275
0
LINE
8
0
10
133.375
20
-185.525
11
133.375
21
-154.475
0
LINE
8
0
10
132.775
20
-154.475
11
133.375
21
-154.475
0
LINE
8
0
10
132.775
20
-154.475
11
132.775
21
-69.225
0
LINE
8
0
10
170.475
20
-185.525
11
191.525
21
-185.525
0
LINE
8
0
10
191.525
20
-185.525
11
191.525
21
-176.475
0
LINE
8
0
10
170.475
20
-185.525
11
170.475
21
-154.475
0
LINE
8
0
10
170.475
20
-154.475
11
171.075
21
-154.475
0
LINE
8
0
10
171.075
20
-154.475
11
171.075
21
-69.225
0
LINE
8
0
10
191.525
20
-176.475
11
209.175
21
-176.475
0
LINE
8
0
10
171.075
20
-69.225
11
249.275
21
-69.225
0
LINE
8
0
10
209.175
20
-185.525
11
287.375
21
-185.525
0
LINE
8
0
10
209.175
20
-176.475
11
209.175
21
-185.525
0
LINE
8
0
10
249.275
20
-78.275
11
266.325
21
-78.275
0
LINE
8
0
10
249.275
20
-78.275
11
249.275
21
-69.225
0
LINE
8
0
10
287.375
20
-185.525
11
287.375
21
-176.475
0
LINE
8
0
10
292.7375
20
-176.475
11
292.7375
21
-157.425
0
LINE
8
0
10
292.7375
20
-176.475
11
287.375
21
-176.475
0
LINE
8
0
10
297.375
20
-147.425
11
297.375
21
-157.425
0
LINE
8
0
10
297.375
20
-157.425
11
292.7375
21
-157.425
0
LINE
8
0
10
266.325
20
-69.225
11
344.525
21
-69.225
0
LINE
8
0
10
266.325
20
-69.225
11
266.325
21
-78.275
0
LINE
8
0
10
297.375
20
-147.425
11
311.7875
21
-147.425
0
LINE
8
0
10
311.7875
20
-147.425
11
311.7875
21
-138.375
0
LINE
8
0
10
316.425
20
-128.375
11
316.425
21
-138.375
0
LINE
8
0
10
316.425
20
-138.375
11
311.7875
21
-138.375
0
LINE
8
0
10
316.425
20
-128.375
11
325.475
21
-128.375
0
LINE
8
0
10
325.475
20
-128.375
11
325.475
21
-119.325
0
LINE
8
0
10
330.8375
20
-119.325
11
330.8375
21
-100.275
0
LINE
8
0
10
330.8375
20
-119.325
11
325.475
21
-119.325
0
LINE
8
0
10
335.475
20
-90.275
11
335.475
21
-100.275
0
LINE
8
0
10
335.475
20
-100.275
11
330.8375
21
-100.275
0
LINE
8
0
10
335.475
20
-90.275
11
344.525
21
-90.275
0
LINE
8
0
10
344.525
20
-90.275
11
344.525
21
-69.225
0
LINE
8
0
10
333.4
20
-187.9795977
11
361.7549819
21
-159.6246158
0
LINE
8
0
10
305.0450181
20
-159.6246158
11
333.4
21
-187.9795977
0
LINE
8
0
10
305.0450181
20
-159.6246158
11
333.4
21
-131.2696339
0
LINE
8
0
10
333.4
20
-131.2696339
11
361.7549819
21
-159.6246158
0
LINE
8
0
10
374.4846718
20
-165.7534638
11
402.8396537
21
-137.3984819
0
LINE
8
0
10
346.1296899
20
-137.3984819
11
374.4846718
21
-165.7534638
0
LINE
8
0
10
346.1296899
20
-137.3984819
11
374.2031718
21
-109.325
0
LINE
8
0
10
374.7661718
20
-109.325
11
402.8396537
21
-137.3984819
0
LINE
8
0
10
352.05
20
-109.325
11
374.2031718
21
-109.325
0
LINE
8
0
10
352.05
20
-109.325
11
352.05
21
-69.225
0
LINE
8
0
10
374.7661718
20
-109.325
11
411.2
21
-109.325
0
LINE
8
0
10
352.05
20
-69.225
11
411.2
21
-69.225
0
LINE
8
0
10
411.2
20
-109.325
11
411.2
21
-69.225
0
ENDSEC
0
EOF