0
SECTION
2
HEADER
9
$INSUNITS
70
4
0
ENDSEC
0
SECTION
2
TABLES
0
TABLE
2
LTYPE
0
LTYPE
72
65
70
64
2
CONTINUOUS
3
______
73
0
40
0
0
ENDTAB
0
TABLE
2
LAYER
0
ENDTAB
0
ENDSEC
0
SECTION
2
ENTITIES
0
LINE
8
0
10
89.475
20
-110.525
11
205.575
21
-110.525
0
LINE
8
0
10
89.475
20
-110.525
11
89.475
21
5.525
0
LINE
8
0
10
110.525
20
-3.475
11
127.475
21
-3.475
0
LINE
8
0
10
110.525
20
-3.475
11
110.525
21
5.525
0
LINE
8
0
10
110.525
20
5.525
11
89.475
21
5.525
0
LINE
8
0
10
127.475
20
5.525
11
205.525
21
5.525
0
LINE
8
0
10
127.475
20
5.525
11
127.475
21
-3.475
0
LINE
8
0
10
205.575
20
-110.525
11
205.575
21
-101.525
0
LINE
8
0
10
206.05
20
-91.525
11
206.05
21
-101.525
0
LINE
8
0
10
206.05
20
-101.525
11
205.575
21
-101.525
0
LINE
8
0
10
205.525
20
-22.475
11
215.05
21
-22.475
0
LINE
8
0
10
206.05
20
-91.525
11
215.05
21
-91.525
0
LINE
8
0
10
215.05
20
-91.525
11
215.05
21
-22.475
0
LINE
8
0
10
205.525
20
-22.475
11
205.525
21
5.525
0
LINE
8
0
10
251.15
20
-110.525
11
272.2
21
-110.525
0
LINE
8
0
10
272.2
20
-110.525
11
272.2
21
-101.525
0
LINE
8
0
10
251.15
20
-101.525
11
251.15
21
-110.525
0
LINE
8
0
10
241.625
20
-101.525
11
241.625
21
-25.525
0
LINE
8
0
10
272.675
20
-91.525
11
272.675
21
-101.525
0
LINE
8
0
10
272.675
20
-101.525
11
272.2
21
-101.525
0
LINE
8
0
10
251.15
20
-101.525
11
241.625
21
-101.525
0
LINE
8
0
10
232.1
20
5.525
11
310.15
21
5.525
0
LINE
8
0
10
232.1
20
-25.525
11
232.1
21
5.525
0
LINE
8
0
10
232.1
20
-25.525
11
241.625
21
-25.525
0
LINE
8
0
10
272.675
20
-91.525
11
288.625
21
-91.525
0
LINE
8
0
10
310.15
20
-3.475
11
327.1
21
-3.475
0
LINE
8
0
10
289.1
20
-110.525
11
367.15
21
-110.525
0
LINE
8
0
10
289.1
20
-101.525
11
289.1
21
-110.525
0
LINE
8
0
10
289.1
20
-101.525
11
288.625
21
-101.525
0
LINE
8
0
10
288.625
20
-101.525
11
288.625
21
-91.525
0
LINE
8
0
10
310.15
20
-3.475
11
310.15
21
5.525
0
LINE
8
0
10
377.2
20
-82.525
11
377.2
21
-101.525
0
LINE
8
0
10
377.2
20
-101.525
11
367.15
21
-101.525
0
LINE
8
0
10
327.1
20
5.525
11
405.15
21
5.525
0
LINE
8
0
10
327.1
20
5.525
11
327.1
21
-3.475
0
LINE
8
0
10
367.15
20
-110.525
11
367.15
21
-101.525
0
LINE
8
0
10
386.2
20
-82.525
11
386.2
21
-63.525
0
LINE
8
0
10
386.2
20
-82.525
11
377.2
21
-82.525
0
LINE
8
0
10
386.675
20
-53.525
11
386.675
21
-63.525
0
LINE
8
0
10
386.675
20
-63.525
11
386.2
21
-63.525
0
LINE
8
0
10
386.675
20
-53.525
11
395.675
21
-53.525
0
LINE
8
0
10
395.675
20
-53.525
11
395.675
21
-44.525
0
LINE
8
0
10
405.2
20
-44.525
11
405.2
21
-3.475
0
LINE
8
0
10
405.15
20
-3.475
11
405.2
21
-3.475
0
LINE
8
0
10
405.2
20
-44.525
11
395.675
21
-44.525
0
LINE
8
0
10
405.15
20
-3.475
11
405.15
21
5.525
0
LINE
8
0
10
414.075
20
-114.8845977
11
442.3946265
21
-86.5649712
0
LINE
8
0
10
385.7553735
20
-86.5649712
11
414.075
21
-114.8845977
0
LINE
8
0
10
385.7553735
20
-86.5649712
11
414.075
21
-58.2453447
0
LINE
8
0
10
414.075
20
-58.2453447
11
442.3946265
21
-86.5649712
0
LINE
8
0
10
457.8183932
20
-91.3467808
11
486.1380197
21
-63.0271543
0
LINE
8
0
10
429.4987667
20
-63.0271543
11
457.8183932
21
-91.3467808
0
LINE
8
0
10
429.4987667
20
-63.0271543
11
457.8183932
21
-34.7075278
0
LINE
8
0
10
457.8183932
20
-34.7075278
11
486.1380197
21
-63.0271543
0
LINE
8
0
10
422.2
20
-34.525
11
481.25
21
-34.525
0
LINE
8
0
10
422.2
20
-34.525
11
422.2
21
5.525
0
LINE
8
0
10
422.2
20
5.525
11
481.25
21
5.525
0
LINE
8
0
10
481.25
20
-34.525
11
481.25
21
5.525
0
ENDSEC
0
EOF