0
SECTION
2
HEADER
9
$INSUNITS
70
4
0
ENDSEC
0
SECTION
2
TABLES
0
TABLE
2
LTYPE
0
LTYPE
72
65
70
64
2
CONTINUOUS
3
______
73
0
40
0
0
ENDTAB
0
TABLE
2
LAYER
0
ENDTAB
0
ENDSEC
0
SECTION
2
ENTITIES
0
LINE
8
0
10
12.8721644
20
-142.708825
11
12.9021091
21
-145.2848457
0
LINE
8
0
10
12.8201625
20
-138.2353219
11
12.8721644
21
-142.708825
0
LINE
8
0
10
12.8030176
20
-136.7604215
11
12.8201625
21
-138.2353219
0
LINE
8
0
10
17.499963
20
-88.0775372
11
17.5232103
21
-90.077402
0
LINE
8
0
10
17.4700183
20
-85.501516
11
17.499963
21
-88.0775372
0
LINE
8
0
10
17.4008715
20
-79.553113
11
17.4700183
21
-85.501516
0
LINE
8
0
10
27.1145507
20
-136.5940583
11
27.1316955
21
-138.0689586
0
LINE
8
0
10
26.8759757
20
-116.0704449
11
26.8931205
21
-117.5453452
0
LINE
8
0
10
27.1145507
20
-136.5940583
11
27.0974059
21
-135.1191579
0
LINE
8
0
10
27.0974059
20
-135.1191579
11
26.9102654
21
-119.0202456
0
LINE
8
0
10
26.9102654
20
-119.0202456
11
26.8931205
21
-117.5453452
0
LINE
8
0
10
46.5732406
20
-173.5869415
11
46.5818389
21
-172.1119665
0
LINE
8
0
10
46.5818389
20
-172.1119665
11
46.5967358
21
-169.5565167
0
LINE
8
0
10
66.5295492
20
-132.7751727
11
66.5638881
21
-131.3005726
0
LINE
8
0
10
86.2271915
20
-133.8816377
11
86.2872605
21
-132.4078614
0
LINE
8
0
10
137.5906869
20
-118.6357539
11
138.3664928
21
-99.6015577
0
LINE
8
0
10
138.3664928
20
-99.6015577
11
138.4265618
21
-98.1277814
0
LINE
8
0
10
138.4265618
20
-98.1277814
11
138.77374
21
-89.6098537
0
LINE
8
0
10
138.77374
20
-89.6098537
11
138.8551895
21
-87.6115129
0
LINE
8
0
10
139.2624367
20
-77.6198088
11
139.2023677
21
-79.0935852
0
LINE
8
0
10
139.2023677
20
-79.0935852
11
138.8551895
21
-87.6115129
0
LINE
8
0
10
106.5664459
20
-117.3712514
11
137.5906869
21
-118.6357539
0
LINE
8
0
10
106.5664459
20
-117.3712514
11
107.3422518
21
-98.3370552
0
LINE
8
0
10
107.3422518
20
-98.3370552
11
107.4023207
21
-96.8632788
0
LINE
8
0
10
107.4023207
20
-96.8632788
11
108.1781266
21
-77.8290826
0
LINE
8
0
10
108.1781266
20
-77.8290826
11
108.2381956
21
-76.3553063
0
LINE
8
0
10
139.2624367
20
-77.6198088
11
139.6309954
21
-68.5773167
0
LINE
8
0
10
108.6067543
20
-67.3128141
11
139.6309954
21
-68.5773167
0
LINE
8
0
10
108.2381956
20
-76.3553063
11
108.6067543
21
-67.3128141
0
LINE
8
0
10
171.6594957
20
-134.604353
11
171.7281035
21
-136.0777565
0
LINE
8
0
10
199.3648559
20
-97.8759213
11
199.836653
21
-114.0970269
0
LINE
8
0
10
220.1190504
20
-133.2130278
11
220.1361952
21
-134.6879281
0
LINE
8
0
10
219.8804754
20
-112.6894144
11
219.8976202
21
-114.1643147
0
LINE
8
0
10
220.1190504
20
-133.2130278
11
220.1019056
21
-131.7381274
0
LINE
8
0
10
220.1019056
20
-131.7381274
11
219.9147651
21
-115.6392151
0
LINE
8
0
10
219.8976202
20
-114.1643147
11
219.9147651
21
-115.6392151
0
LINE
8
0
10
239.9659813
20
-115.5816368
11
239.9808781
21
-113.0262019
0
LINE
8
0
10
278.065334
20
-115.8037357
11
278.0795374
21
-113.3672482
0
LINE
8
0
10
278.3487869
20
-67.1795619
11
347.4976121
21
-67.5826625
0
LINE
8
0
10
297.2174615
20
-98.3400838
11
278.1677851
21
-98.2290343
0
LINE
8
0
10
278.1677851
20
-98.2290343
11
278.2874328
21
-77.704383
0
LINE
8
0
10
278.2874328
20
-77.704383
11
278.3487869
21
-67.1795619
0
LINE
8
0
10
297.0536563
20
-126.4396064
11
328.1031287
21
-126.6206083
0
LINE
8
0
10
328.1031287
20
-126.6206083
11
328.1558845
21
-117.570762
0
LINE
8
0
10
297.0536563
20
-126.4396064
11
297.1150103
21
-115.9147852
0
LINE
8
0
10
297.1150103
20
-115.9147852
11
297.2174615
21
-98.3400838
0
LINE
8
0
10
333.576587
20
-107.6021919
11
333.6876365
21
-88.5525154
0
LINE
8
0
10
333.576587
20
-107.6021919
11
333.5182933
21
-117.6020219
0
LINE
8
0
10
333.5182933
20
-117.6020219
11
328.1558845
21
-117.570762
0
LINE
8
0
10
333.6876365
20
-88.5525154
11
347.3749039
21
-88.6323049
0
LINE
8
0
10
347.3749039
20
-88.6323049
11
347.4976121
21
-67.5826625
0
LINE
8
0
10
330.3443316
20
-198.0390919
11
357.3497287
21
-168.3959051
0
LINE
8
0
10
300.7011448
20
-171.0336948
11
330.3443316
21
-198.0390919
0
LINE
8
0
10
300.7011448
20
-171.0336948
11
327.706542
21
-141.390508
0
LINE
8
0
10
327.706542
20
-141.390508
11
357.3497287
21
-168.3959051
0
LINE
8
0
10
359.210138
20
-166.3537779
11
386.2155351
21
-136.7105911
0
LINE
8
0
10
329.5669512
20
-139.3483808
11
359.210138
21
-166.3537779
0
LINE
8
0
10
329.5669512
20
-139.3483808
11
356.5723483
21
-109.705194
0
LINE
8
0
10
356.5723483
20
-109.705194
11
386.2155351
21
-136.7105911
0
LINE
8
0
10
354.8500806
20
-97.201026
11
354.8542013
21
-96.4941483
0
ENDSEC
0
EOF