0
SECTION
2
HEADER
9
$INSUNITS
70
4
0
ENDSEC
0
SECTION
2
TABLES
0
TABLE
2
LTYPE
0
LTYPE
72
65
70
64
2
CONTINUOUS
3
______
73
0
40
0
0
ENDTAB
0
TABLE
2
LAYER
0
ENDTAB
0
ENDSEC
0
SECTION
2
ENTITIES
0
LINE
8
0
10
16.475
20
-185.525
11
132.575
21
-185.525
0
LINE
8
0
10
16.475
20
-185.525
11
16.475
21
-154.475
0
LINE
8
0
10
16.475
20
-154.475
11
21.2375
21
-154.475
0
LINE
8
0
10
21.2375
20
-154.475
11
21.2375
21
-119.525
0
LINE
8
0
10
16.475
20
-119.525
11
16.475
21
-69.475
0
LINE
8
0
10
37.525
20
-78.475
11
54.475
21
-78.475
0
LINE
8
0
10
21.2375
20
-119.525
11
16.475
21
-119.525
0
LINE
8
0
10
37.525
20
-78.475
11
37.525
21
-69.475
0
LINE
8
0
10
37.525
20
-69.475
11
16.475
21
-69.475
0
LINE
8
0
10
54.475
20
-69.475
11
132.525
21
-69.475
0
LINE
8
0
10
54.475
20
-69.475
11
54.475
21
-78.475
0
LINE
8
0
10
132.575
20
-185.525
11
132.575
21
-176.525
0
LINE
8
0
10
133.05
20
-166.525
11
133.05
21
-176.525
0
LINE
8
0
10
133.05
20
-176.525
11
132.575
21
-176.525
0
LINE
8
0
10
132.525
20
-97.475
11
142.05
21
-97.475
0
LINE
8
0
10
133.05
20
-166.525
11
142.05
21
-166.525
0
LINE
8
0
10
142.05
20
-166.525
11
142.05
21
-97.475
0
LINE
8
0
10
132.525
20
-97.475
11
132.525
21
-69.475
0
LINE
8
0
10
168.625
20
-185.525
11
189.675
21
-185.525
0
LINE
8
0
10
189.675
20
-185.525
11
189.675
21
-176.525
0
LINE
8
0
10
168.625
20
-176.525
11
168.625
21
-185.525
0
LINE
8
0
10
159.1
20
-176.525
11
159.1
21
-100.525
0
LINE
8
0
10
190.15
20
-166.525
11
190.15
21
-176.525
0
LINE
8
0
10
190.15
20
-176.525
11
189.675
21
-176.525
0
LINE
8
0
10
168.625
20
-176.525
11
159.1
21
-176.525
0
LINE
8
0
10
149.575
20
-69.475
11
227.625
21
-69.475
0
LINE
8
0
10
149.575
20
-100.525
11
149.575
21
-69.475
0
LINE
8
0
10
149.575
20
-100.525
11
159.1
21
-100.525
0
LINE
8
0
10
190.15
20
-166.525
11
206.1
21
-166.525
0
LINE
8
0
10
227.625
20
-78.475
11
244.575
21
-78.475
0
LINE
8
0
10
206.575
20
-185.525
11
284.625
21
-185.525
0
LINE
8
0
10
206.575
20
-176.525
11
206.575
21
-185.525
0
LINE
8
0
10
206.575
20
-176.525
11
206.1
21
-176.525
0
LINE
8
0
10
206.1
20
-176.525
11
206.1
21
-166.525
0
LINE
8
0
10
227.625
20
-78.475
11
227.625
21
-69.475
0
LINE
8
0
10
289.9125
20
-157.525
11
289.9125
21
-176.525
0
LINE
8
0
10
289.9125
20
-176.525
11
284.625
21
-176.525
0
LINE
8
0
10
244.575
20
-69.475
11
322.625
21
-69.475
0
LINE
8
0
10
244.575
20
-69.475
11
244.575
21
-78.475
0
LINE
8
0
10
284.625
20
-185.525
11
284.625
21
-176.525
0
LINE
8
0
10
298.9125
20
-154.4528446
11
298.9125
21
-138.525
0
LINE
8
0
10
295.8403447
20
-157.525
11
289.9125
21
-157.525
0
LINE
8
0
10
304.15
20
-128.525
11
304.15
21
-138.525
0
LINE
8
0
10
304.15
20
-138.525
11
298.9125
21
-138.525
0
LINE
8
0
10
304.15
20
-128.525
11
313.15
21
-128.525
0
LINE
8
0
10
313.15
20
-128.525
11
313.15
21
-119.525
0
LINE
8
0
10
317.9125
20
-119.525
11
317.9125
21
-90.525
0
LINE
8
0
10
317.9125
20
-119.525
11
313.15
21
-119.525
0
LINE
8
0
10
317.9125
20
-90.525
11
322.625
21
-90.525
0
LINE
8
0
10
322.625
20
-90.525
11
322.625
21
-69.475
0
LINE
8
0
10
322.025
20
-187.9795977
11
350.3446265
21
-159.6599712
0
LINE
8
0
10
293.7053735
20
-159.6599712
11
322.025
21
-187.9795977
0
LINE
8
0
10
298.9125
20
-154.4528446
11
322.025
21
-131.3403447
0
LINE
8
0
10
295.8403447
20
-157.525
11
293.7053735
21
-159.6599712
0
LINE
8
0
10
322.025
20
-131.3403447
11
350.3446265
21
-159.6599712
0
LINE
8
0
10
363.0743164
20
-165.7888192
11
391.3939429
21
-137.4691927
0
LINE
8
0
10
334.7546899
20
-137.4691927
11
363.0743164
21
-165.7888192
0
LINE
8
0
10
334.7546899
20
-137.4691927
11
362.6988826
21
-109.525
0
LINE
8
0
10
363.4497502
20
-109.525
11
391.3939429
21
-137.4691927
0
LINE
8
0
10
330.15
20
-109.525
11
362.6988826
21
-109.525
0
LINE
8
0
10
330.15
20
-109.525
11
330.15
21
-69.475
0
LINE
8
0
10
330.15
20
-69.475
11
389.2
21
-69.475
0
LINE
8
0
10
363.4497502
20
-109.525
11
389.2
21
-109.525
0
LINE
8
0
10
389.2
20
-109.525
11
389.2
21
-69.475
0
ENDSEC
0
EOF