0
SECTION
2
HEADER
9
$INSUNITS
70
4
0
ENDSEC
0
SECTION
2
TABLES
0
TABLE
2
LTYPE
0
LTYPE
72
65
70
64
2
CONTINUOUS
3
______
73
0
40
0
0
ENDTAB
0
TABLE
2
LAYER
0
ENDTAB
0
ENDSEC
0
SECTION
2
ENTITIES
0
LINE
8
0
10
19.475
20
-210.525
11
135.575
21
-210.525
0
LINE
8
0
10
19.475
20
-210.525
11
19.475
21
-94.475
0
LINE
8
0
10
40.525
20
-103.475
11
57.475
21
-103.475
0
LINE
8
0
10
40.525
20
-103.475
11
40.525
21
-94.475
0
LINE
8
0
10
40.525
20
-94.475
11
19.475
21
-94.475
0
LINE
8
0
10
57.475
20
-94.475
11
135.525
21
-94.475
0
LINE
8
0
10
57.475
20
-94.475
11
57.475
21
-103.475
0
LINE
8
0
10
135.575
20
-210.525
11
135.575
21
-201.525
0
LINE
8
0
10
136.05
20
-191.525
11
136.05
21
-201.525
0
LINE
8
0
10
136.05
20
-201.525
11
135.575
21
-201.525
0
LINE
8
0
10
135.525
20
-122.475
11
145.05
21
-122.475
0
LINE
8
0
10
136.05
20
-191.525
11
145.05
21
-191.525
0
LINE
8
0
10
145.05
20
-191.525
11
145.05
21
-122.475
0
LINE
8
0
10
135.525
20
-122.475
11
135.525
21
-94.475
0
LINE
8
0
10
171.625
20
-210.525
11
192.675
21
-210.525
0
LINE
8
0
10
192.675
20
-210.525
11
192.675
21
-201.525
0
LINE
8
0
10
171.625
20
-201.525
11
171.625
21
-210.525
0
LINE
8
0
10
162.1
20
-201.525
11
162.1
21
-125.525
0
LINE
8
0
10
193.15
20
-191.525
11
193.15
21
-201.525
0
LINE
8
0
10
193.15
20
-201.525
11
192.675
21
-201.525
0
LINE
8
0
10
171.625
20
-201.525
11
162.1
21
-201.525
0
LINE
8
0
10
152.575
20
-94.475
11
230.625
21
-94.475
0
LINE
8
0
10
152.575
20
-125.525
11
152.575
21
-94.475
0
LINE
8
0
10
152.575
20
-125.525
11
162.1
21
-125.525
0
LINE
8
0
10
193.15
20
-191.525
11
209.1
21
-191.525
0
LINE
8
0
10
230.625
20
-103.475
11
247.575
21
-103.475
0
LINE
8
0
10
209.575
20
-210.525
11
287.625
21
-210.525
0
LINE
8
0
10
209.575
20
-201.525
11
209.575
21
-210.525
0
LINE
8
0
10
209.575
20
-201.525
11
209.1
21
-201.525
0
LINE
8
0
10
209.1
20
-201.525
11
209.1
21
-191.525
0
LINE
8
0
10
230.625
20
-103.475
11
230.625
21
-94.475
0
LINE
8
0
10
297.675
20
-182.525
11
297.675
21
-201.525
0
LINE
8
0
10
297.675
20
-201.525
11
287.625
21
-201.525
0
LINE
8
0
10
247.575
20
-94.475
11
325.625
21
-94.475
0
LINE
8
0
10
247.575
20
-94.475
11
247.575
21
-103.475
0
LINE
8
0
10
287.625
20
-210.525
11
287.625
21
-201.525
0
LINE
8
0
10
306.675
20
-180.4053446
11
306.675
21
-163.525
0
LINE
8
0
10
304.5553447
20
-182.525
11
297.675
21
-182.525
0
LINE
8
0
10
307.15
20
-153.525
11
307.15
21
-163.525
0
LINE
8
0
10
307.15
20
-163.525
11
306.675
21
-163.525
0
LINE
8
0
10
307.15
20
-153.525
11
316.15
21
-153.525
0
LINE
8
0
10
316.15
20
-153.525
11
316.15
21
-144.525
0
LINE
8
0
10
325.675
20
-144.525
11
325.675
21
-103.475
0
LINE
8
0
10
325.625
20
-103.475
11
325.675
21
-103.475
0
LINE
8
0
10
325.675
20
-144.525
11
316.15
21
-144.525
0
LINE
8
0
10
325.625
20
-103.475
11
325.625
21
-94.475
0
LINE
8
0
10
330.74
20
-212.9795977
11
359.0596265
21
-184.6599712
0
LINE
8
0
10
302.4203735
20
-184.6599712
11
330.74
21
-212.9795977
0
LINE
8
0
10
306.675
20
-180.4053446
11
330.74
21
-156.3403447
0
LINE
8
0
10
304.5553447
20
-182.525
11
302.4203735
21
-184.6599712
0
LINE
8
0
10
330.74
20
-156.3403447
11
359.0596265
21
-184.6599712
0
LINE
8
0
10
371.7893164
20
-190.7888192
11
400.1089429
21
-162.4691927
0
LINE
8
0
10
343.4696899
20
-162.4691927
11
371.7893164
21
-190.7888192
0
LINE
8
0
10
343.4696899
20
-162.4691927
11
371.4138826
21
-134.525
0
LINE
8
0
10
372.1647502
20
-134.525
11
400.1089429
21
-162.4691927
0
LINE
8
0
10
342.675
20
-134.525
11
371.4138826
21
-134.525
0
LINE
8
0
10
342.675
20
-134.525
11
342.675
21
-94.475
0
LINE
8
0
10
372.1647502
20
-134.525
11
401.725
21
-134.525
0
LINE
8
0
10
342.675
20
-94.475
11
401.725
21
-94.475
0
LINE
8
0
10
401.725
20
-134.525
11
401.725
21
-94.475
0
ENDSEC
0
EOF