0
SECTION
2
HEADER
9
$INSUNITS
70
4
0
ENDSEC
0
SECTION
2
TABLES
0
TABLE
2
LTYPE
0
LTYPE
72
65
70
64
2
CONTINUOUS
3
______
73
0
40
0
0
ENDTAB
0
TABLE
2
LAYER
0
ENDTAB
0
ENDSEC
0
SECTION
2
ENTITIES
0
LINE
8
0
10
14.475
20
-160.525
11
130.575
21
-160.525
0
LINE
8
0
10
14.475
20
-160.525
11
14.475
21
-44.475
0
LINE
8
0
10
35.525
20
-53.475
11
52.475
21
-53.475
0
LINE
8
0
10
35.525
20
-53.475
11
35.525
21
-44.475
0
LINE
8
0
10
35.525
20
-44.475
11
14.475
21
-44.475
0
LINE
8
0
10
52.475
20
-44.475
11
130.525
21
-44.475
0
LINE
8
0
10
52.475
20
-44.475
11
52.475
21
-53.475
0
LINE
8
0
10
130.575
20
-160.525
11
130.575
21
-151.525
0
LINE
8
0
10
131.05
20
-141.525
11
131.05
21
-151.525
0
LINE
8
0
10
131.05
20
-151.525
11
130.575
21
-151.525
0
LINE
8
0
10
130.525
20
-72.475
11
140.05
21
-72.475
0
LINE
8
0
10
131.05
20
-141.525
11
140.05
21
-141.525
0
LINE
8
0
10
140.05
20
-141.525
11
140.05
21
-72.475
0
LINE
8
0
10
130.525
20
-72.475
11
130.525
21
-44.475
0
LINE
8
0
10
171.3875
20
-160.525
11
192.4375
21
-160.525
0
LINE
8
0
10
192.4375
20
-160.525
11
192.4375
21
-151.525
0
LINE
8
0
10
171.3875
20
-151.525
11
171.3875
21
-160.525
0
LINE
8
0
10
161.8625
20
-151.525
11
161.8625
21
-75.525
0
LINE
8
0
10
192.9125
20
-141.525
11
192.9125
21
-151.525
0
LINE
8
0
10
192.9125
20
-151.525
11
192.4375
21
-151.525
0
LINE
8
0
10
171.3875
20
-151.525
11
161.8625
21
-151.525
0
LINE
8
0
10
152.3375
20
-44.475
11
230.3875
21
-44.475
0
LINE
8
0
10
152.3375
20
-75.525
11
152.3375
21
-44.475
0
LINE
8
0
10
152.3375
20
-75.525
11
161.8625
21
-75.525
0
LINE
8
0
10
192.9125
20
-141.525
11
208.8625
21
-141.525
0
LINE
8
0
10
230.3875
20
-53.475
11
247.3375
21
-53.475
0
LINE
8
0
10
209.3375
20
-160.525
11
287.3875
21
-160.525
0
LINE
8
0
10
209.3375
20
-151.525
11
209.3375
21
-160.525
0
LINE
8
0
10
209.3375
20
-151.525
11
208.8625
21
-151.525
0
LINE
8
0
10
208.8625
20
-151.525
11
208.8625
21
-141.525
0
LINE
8
0
10
230.3875
20
-53.475
11
230.3875
21
-44.475
0
LINE
8
0
10
297.4375
20
-132.525
11
297.4375
21
-151.525
0
LINE
8
0
10
297.4375
20
-151.525
11
287.3875
21
-151.525
0
LINE
8
0
10
247.3375
20
-44.475
11
325.3875
21
-44.475
0
LINE
8
0
10
247.3375
20
-44.475
11
247.3375
21
-53.475
0
LINE
8
0
10
287.3875
20
-160.525
11
287.3875
21
-151.525
0
LINE
8
0
10
306.4375
20
-130.4053446
11
306.4375
21
-113.525
0
LINE
8
0
10
304.3178447
20
-132.525
11
297.4375
21
-132.525
0
LINE
8
0
10
306.9125
20
-103.525
11
306.9125
21
-113.525
0
LINE
8
0
10
306.9125
20
-113.525
11
306.4375
21
-113.525
0
LINE
8
0
10
306.9125
20
-103.525
11
315.9125
21
-103.525
0
LINE
8
0
10
315.9125
20
-103.525
11
315.9125
21
-94.525
0
LINE
8
0
10
325.4375
20
-94.525
11
325.4375
21
-53.475
0
LINE
8
0
10
325.3875
20
-53.475
11
325.4375
21
-53.475
0
LINE
8
0
10
325.4375
20
-94.525
11
315.9125
21
-94.525
0
LINE
8
0
10
325.3875
20
-53.475
11
325.3875
21
-44.475
0
LINE
8
0
10
330.5025
20
-162.9795977
11
358.8221265
21
-134.6599712
0
LINE
8
0
10
302.1828735
20
-134.6599712
11
330.5025
21
-162.9795977
0
LINE
8
0
10
306.4375
20
-130.4053446
11
330.5025
21
-106.3403447
0
LINE
8
0
10
304.3178447
20
-132.525
11
302.1828735
21
-134.6599712
0
LINE
8
0
10
330.5025
20
-106.3403447
11
358.8221265
21
-134.6599712
0
LINE
8
0
10
371.5518164
20
-140.7888192
11
399.8714429
21
-112.4691927
0
LINE
8
0
10
343.2321899
20
-112.4691927
11
371.5518164
21
-140.7888192
0
LINE
8
0
10
343.2321899
20
-112.4691927
11
371.1763826
21
-84.525
0
LINE
8
0
10
371.9272502
20
-84.525
11
399.8714429
21
-112.4691927
0
LINE
8
0
10
342.4375
20
-84.525
11
371.1763826
21
-84.525
0
LINE
8
0
10
342.4375
20
-84.525
11
342.4375
21
-44.475
0
LINE
8
0
10
371.9272502
20
-84.525
11
401.4875
21
-84.525
0
LINE
8
0
10
342.4375
20
-44.475
11
401.4875
21
-44.475
0
LINE
8
0
10
401.4875
20
-84.525
11
401.4875
21
-44.475
0
ENDSEC
0
EOF