0
SECTION
2
HEADER
9
$INSUNITS
70
4
0
ENDSEC
0
SECTION
2
TABLES
0
TABLE
2
LTYPE
0
LTYPE
72
65
70
64
2
CONTINUOUS
3
______
73
0
40
0
0
ENDTAB
0
TABLE
2
LAYER
0
ENDTAB
0
ENDSEC
0
SECTION
2
ENTITIES
0
LINE
8
0
10
-10.525
20
-10.525
11
105.575
21
-10.525
0
LINE
8
0
10
-10.525
20
-10.525
11
-10.525
21
105.525
0
LINE
8
0
10
10.525
20
96.525
11
27.475
21
96.525
0
LINE
8
0
10
10.525
20
96.525
11
10.525
21
105.525
0
LINE
8
0
10
10.525
20
105.525
11
-10.525
21
105.525
0
LINE
8
0
10
27.475
20
105.525
11
105.525
21
105.525
0
LINE
8
0
10
27.475
20
105.525
11
27.475
21
96.525
0
LINE
8
0
10
105.575
20
-10.525
11
105.575
21
-1.525
0
LINE
8
0
10
106.05
20
8.475
11
106.05
21
-1.525
0
LINE
8
0
10
106.05
20
-1.525
11
105.575
21
-1.525
0
LINE
8
0
10
105.525
20
77.525
11
115.05
21
77.525
0
LINE
8
0
10
106.05
20
8.475
11
115.05
21
8.475
0
LINE
8
0
10
115.05
20
8.475
11
115.05
21
77.525
0
LINE
8
0
10
105.525
20
77.525
11
105.525
21
105.525
0
LINE
8
0
10
151.15
20
-10.525
11
172.2
21
-10.525
0
LINE
8
0
10
172.2
20
-10.525
11
172.2
21
-1.525
0
LINE
8
0
10
151.15
20
-1.525
11
151.15
21
-10.525
0
LINE
8
0
10
141.625
20
-1.525
11
141.625
21
74.475
0
LINE
8
0
10
172.675
20
8.475
11
172.675
21
-1.525
0
LINE
8
0
10
172.675
20
-1.525
11
172.2
21
-1.525
0
LINE
8
0
10
151.15
20
-1.525
11
141.625
21
-1.525
0
LINE
8
0
10
132.1
20
105.525
11
210.15
21
105.525
0
LINE
8
0
10
132.1
20
74.475
11
132.1
21
105.525
0
LINE
8
0
10
132.1
20
74.475
11
141.625
21
74.475
0
LINE
8
0
10
172.675
20
8.475
11
188.625
21
8.475
0
LINE
8
0
10
210.15
20
96.525
11
227.1
21
96.525
0
LINE
8
0
10
189.1
20
-10.525
11
267.15
21
-10.525
0
LINE
8
0
10
189.1
20
-1.525
11
189.1
21
-10.525
0
LINE
8
0
10
189.1
20
-1.525
11
188.625
21
-1.525
0
LINE
8
0
10
188.625
20
-1.525
11
188.625
21
8.475
0
LINE
8
0
10
210.15
20
96.525
11
210.15
21
105.525
0
LINE
8
0
10
277.2
20
17.475
11
277.2
21
-1.525
0
LINE
8
0
10
277.2
20
-1.525
11
267.15
21
-1.525
0
LINE
8
0
10
227.1
20
105.525
11
305.15
21
105.525
0
LINE
8
0
10
227.1
20
105.525
11
227.1
21
96.525
0
LINE
8
0
10
267.15
20
-10.525
11
267.15
21
-1.525
0
LINE
8
0
10
286.2
20
17.475
11
286.2
21
36.475
0
LINE
8
0
10
286.2
20
17.475
11
277.2
21
17.475
0
LINE
8
0
10
286.675
20
46.475
11
286.675
21
36.475
0
LINE
8
0
10
286.675
20
36.475
11
286.2
21
36.475
0
LINE
8
0
10
286.675
20
46.475
11
295.675
21
46.475
0
LINE
8
0
10
295.675
20
46.475
11
295.675
21
55.475
0
LINE
8
0
10
305.2
20
55.475
11
305.2
21
96.525
0
LINE
8
0
10
305.15
20
96.525
11
305.2
21
96.525
0
LINE
8
0
10
305.2
20
55.475
11
295.675
21
55.475
0
LINE
8
0
10
305.15
20
96.525
11
305.15
21
105.525
0
LINE
8
0
10
314.075
20
-14.8845977
11
342.3946265
21
13.4350288
0
LINE
8
0
10
285.7553735
20
13.4350288
11
314.075
21
-14.8845977
0
LINE
8
0
10
285.7553735
20
13.4350288
11
314.075
21
41.7546553
0
LINE
8
0
10
314.075
20
41.7546553
11
342.3946265
21
13.4350288
0
LINE
8
0
10
357.8183932
20
8.6532192
11
386.1380197
21
36.9728457
0
LINE
8
0
10
329.4987667
20
36.9728457
11
357.8183932
21
8.6532192
0
LINE
8
0
10
329.4987667
20
36.9728457
11
357.8183932
21
65.2924722
0
LINE
8
0
10
357.8183932
20
65.2924722
11
386.1380197
21
36.9728457
0
LINE
8
0
10
322.2
20
65.475
11
381.25
21
65.475
0
LINE
8
0
10
322.2
20
65.475
11
322.2
21
105.525
0
LINE
8
0
10
322.2
20
105.525
11
381.25
21
105.525
0
LINE
8
0
10
381.25
20
65.475
11
381.25
21
105.525
0
ENDSEC
0
EOF