0
SECTION
2
HEADER
9
$INSUNITS
70
4
0
ENDSEC
0
SECTION
2
TABLES
0
TABLE
2
LTYPE
0
LTYPE
72
65
70
64
2
CONTINUOUS
3
______
73
0
40
0
0
ENDTAB
0
TABLE
2
LAYER
0
ENDTAB
0
ENDSEC
0
SECTION
2
ENTITIES
0
LINE
8
0
10
17.475
20
-185.525
11
133.575
21
-185.525
0
LINE
8
0
10
17.475
20
-185.525
11
17.475
21
-69.475
0
LINE
8
0
10
38.525
20
-78.475
11
55.475
21
-78.475
0
LINE
8
0
10
38.525
20
-78.475
11
38.525
21
-69.475
0
LINE
8
0
10
38.525
20
-69.475
11
17.475
21
-69.475
0
LINE
8
0
10
55.475
20
-69.475
11
133.525
21
-69.475
0
LINE
8
0
10
55.475
20
-69.475
11
55.475
21
-78.475
0
LINE
8
0
10
133.575
20
-185.525
11
133.575
21
-176.525
0
LINE
8
0
10
134.05
20
-166.525
11
134.05
21
-176.525
0
LINE
8
0
10
134.05
20
-176.525
11
133.575
21
-176.525
0
LINE
8
0
10
133.525
20
-97.475
11
143.05
21
-97.475
0
LINE
8
0
10
134.05
20
-166.525
11
143.05
21
-166.525
0
LINE
8
0
10
143.05
20
-166.525
11
143.05
21
-97.475
0
LINE
8
0
10
133.525
20
-97.475
11
133.525
21
-69.475
0
LINE
8
0
10
174.3875
20
-185.525
11
195.4375
21
-185.525
0
LINE
8
0
10
195.4375
20
-185.525
11
195.4375
21
-176.525
0
LINE
8
0
10
174.3875
20
-176.525
11
174.3875
21
-185.525
0
LINE
8
0
10
164.8625
20
-176.525
11
164.8625
21
-100.525
0
LINE
8
0
10
195.9125
20
-166.525
11
195.9125
21
-176.525
0
LINE
8
0
10
195.9125
20
-176.525
11
195.4375
21
-176.525
0
LINE
8
0
10
174.3875
20
-176.525
11
164.8625
21
-176.525
0
LINE
8
0
10
155.3375
20
-69.475
11
233.3875
21
-69.475
0
LINE
8
0
10
155.3375
20
-100.525
11
155.3375
21
-69.475
0
LINE
8
0
10
155.3375
20
-100.525
11
164.8625
21
-100.525
0
LINE
8
0
10
195.9125
20
-166.525
11
211.8625
21
-166.525
0
LINE
8
0
10
233.3875
20
-78.475
11
250.3375
21
-78.475
0
LINE
8
0
10
212.3375
20
-185.525
11
290.3875
21
-185.525
0
LINE
8
0
10
212.3375
20
-176.525
11
212.3375
21
-185.525
0
LINE
8
0
10
212.3375
20
-176.525
11
211.8625
21
-176.525
0
LINE
8
0
10
211.8625
20
-176.525
11
211.8625
21
-166.525
0
LINE
8
0
10
233.3875
20
-78.475
11
233.3875
21
-69.475
0
LINE
8
0
10
300.4375
20
-157.525
11
300.4375
21
-176.525
0
LINE
8
0
10
300.4375
20
-176.525
11
290.3875
21
-176.525
0
LINE
8
0
10
250.3375
20
-69.475
11
328.3875
21
-69.475
0
LINE
8
0
10
250.3375
20
-69.475
11
250.3375
21
-78.475
0
LINE
8
0
10
290.3875
20
-185.525
11
290.3875
21
-176.525
0
LINE
8
0
10
309.4375
20
-155.4053446
11
309.4375
21
-138.525
0
LINE
8
0
10
307.3178447
20
-157.525
11
300.4375
21
-157.525
0
LINE
8
0
10
309.9125
20
-128.525
11
309.9125
21
-138.525
0
LINE
8
0
10
309.9125
20
-138.525
11
309.4375
21
-138.525
0
LINE
8
0
10
309.9125
20
-128.525
11
318.9125
21
-128.525
0
LINE
8
0
10
318.9125
20
-128.525
11
318.9125
21
-119.525
0
LINE
8
0
10
328.4375
20
-119.525
11
328.4375
21
-78.475
0
LINE
8
0
10
328.3875
20
-78.475
11
328.4375
21
-78.475
0
LINE
8
0
10
328.4375
20
-119.525
11
318.9125
21
-119.525
0
LINE
8
0
10
328.3875
20
-78.475
11
328.3875
21
-69.475
0
LINE
8
0
10
333.5025
20
-187.9795977
11
361.8221265
21
-159.6599712
0
LINE
8
0
10
305.1828735
20
-159.6599712
11
333.5025
21
-187.9795977
0
LINE
8
0
10
309.4375
20
-155.4053446
11
333.5025
21
-131.3403447
0
LINE
8
0
10
307.3178447
20
-157.525
11
305.1828735
21
-159.6599712
0
LINE
8
0
10
333.5025
20
-131.3403447
11
361.8221265
21
-159.6599712
0
LINE
8
0
10
374.5518164
20
-165.7888192
11
402.8714429
21
-137.4691927
0
LINE
8
0
10
346.2321899
20
-137.4691927
11
374.5518164
21
-165.7888192
0
LINE
8
0
10
346.2321899
20
-137.4691927
11
374.1763826
21
-109.525
0
LINE
8
0
10
374.9272502
20
-109.525
11
402.8714429
21
-137.4691927
0
LINE
8
0
10
345.4375
20
-109.525
11
374.1763826
21
-109.525
0
LINE
8
0
10
345.4375
20
-109.525
11
345.4375
21
-69.475
0
LINE
8
0
10
374.9272502
20
-109.525
11
404.4875
21
-109.525
0
LINE
8
0
10
345.4375
20
-69.475
11
404.4875
21
-69.475
0
LINE
8
0
10
404.4875
20
-109.525
11
404.4875
21
-69.475
0
ENDSEC
0
EOF