0
SECTION
2
HEADER
9
$INSUNITS
70
4
0
ENDSEC
0
SECTION
2
TABLES
0
TABLE
2
LTYPE
0
LTYPE
72
65
70
64
2
CONTINUOUS
3
______
73
0
40
0
0
ENDTAB
0
TABLE
2
LAYER
0
ENDTAB
0
ENDSEC
0
SECTION
2
ENTITIES
0
LINE
8
0
10
20.873126
20
-142.7450605
11
20.9015686
21
-145.1918566
0
LINE
8
0
10
20.8024771
20
-136.6674325
11
20.873126
21
-142.7450605
0
LINE
8
0
10
25.47098
20
-85.5377514
11
25.4994226
21
-87.9845481
0
LINE
8
0
10
25.4003311
20
-79.460124
11
25.47098
21
-85.5377514
0
LINE
8
0
10
35.3182956
20
-154.0748819
11
35.3354404
21
-155.5497823
0
LINE
8
0
10
54.5812985
20
-172.0189775
11
54.595502
21
-169.5824807
0
LINE
8
0
10
115.4017803
20
-96.7702897
11
115.4618492
21
-95.2965134
0
LINE
8
0
10
115.4618492
20
-95.2965134
11
116.1775862
21
-77.7360936
0
LINE
8
0
10
116.0340941
20
-81.2566346
11
116.1775862
21
-77.7360936
0
LINE
8
0
10
177.9553915
20
-97.9260048
11
178.0239992
21
-99.3994082
0
LINE
8
0
10
177.8867837
20
-96.4526013
11
177.9553915
21
-97.9260048
0
LINE
8
0
10
247.9654409
20
-115.4886477
11
247.9803378
21
-112.9332023
0
LINE
8
0
10
286.0647935
20
-115.7107466
11
286.0796903
21
-113.1553138
0
LINE
8
0
10
286.3482464
20
-67.0865729
11
355.4970717
21
-67.4896734
0
LINE
8
0
10
305.2169211
20
-98.2470948
11
286.1672446
21
-98.1360453
0
LINE
8
0
10
286.1672446
20
-98.1360453
11
286.2868923
21
-77.611394
0
LINE
8
0
10
286.2868923
20
-77.611394
11
286.3482464
21
-67.0865729
0
LINE
8
0
10
305.0531159
20
-126.3466173
11
336.1025883
21
-126.5276192
0
LINE
8
0
10
336.1025883
20
-126.5276192
11
336.1553441
21
-117.4777729
0
LINE
8
0
10
305.0531159
20
-126.3466173
11
305.1144699
21
-115.8217961
0
LINE
8
0
10
305.1144699
20
-115.8217961
11
305.2169211
21
-98.2470948
0
LINE
8
0
10
341.5760466
20
-107.5092028
11
341.6870961
21
-88.4595263
0
LINE
8
0
10
341.5760466
20
-107.5092028
11
341.5177529
21
-117.5090328
0
LINE
8
0
10
341.5177529
20
-117.5090328
11
336.1553441
21
-117.4777729
0
LINE
8
0
10
341.6870961
20
-88.4595263
11
355.3743635
21
-88.5393158
0
LINE
8
0
10
355.3743635
20
-88.5393158
11
355.4970717
21
-67.4896734
0
LINE
8
0
10
338.3437912
20
-197.9461029
11
365.3491883
21
-168.3029161
0
LINE
8
0
10
308.7006044
20
-170.9407058
11
338.3437912
21
-197.9461029
0
LINE
8
0
10
308.7006044
20
-170.9407058
11
335.7060015
21
-141.297519
0
LINE
8
0
10
335.7060015
20
-141.297519
11
365.3491883
21
-168.3029161
0
LINE
8
0
10
367.2095975
20
-166.2607889
11
394.2149947
21
-136.6176021
0
LINE
8
0
10
337.5664108
20
-139.2553917
11
367.2095975
21
-166.2607889
0
LINE
8
0
10
337.5664108
20
-139.2553917
11
364.5718079
21
-109.6122049
0
LINE
8
0
10
364.5718079
20
-109.6122049
11
394.2149947
21
-136.6176021
0
LINE
8
0
10
362.8495402
20
-97.1080369
11
362.8540774
21
-96.3297191
0
ENDSEC
0
EOF