<svg width="418.075mm" height="116.978mm" viewBox="0 0 418.075 116.978" xmlns="http://www.w3.org/2000/svg"><g id="svgGroup" stroke-linecap="round" fill-rule="evenodd" font-size="9pt" stroke="#000" stroke-width="0.25mm" fill="none" style="stroke:#000;stroke-width:0.25mm;fill:none"><path d="M 85.8 95.25 L 142.8 95.25 L 142.8 113.25 L 85.8 113.25 L 85.8 95.25 Z M 162 95.25 L 219 95.25 L 219 113.25 L 162 113.25 L 162 95.25 Z M 0 57.15 L 38.1 57.15 L 38.1 75.15 L 0 75.15 L 0 57.15 Z M 0 38.1 L 38.1 38.1 L 38.1 56.1 L 0 56.1 L 0 38.1 Z M 0.05 76.2 L 38.05 76.2 L 38.05 94.2 L 0.05 94.2 L 0.05 76.2 Z M 266.5 76.25 L 304.5 76.25 L 304.5 94.25 L 266.5 94.25 L 266.5 76.25 Z M 295.025 57.25 L 333.025 57.25 L 333.025 75.25 L 295.025 75.25 L 295.025 57.25 Z M 314.025 19.25 L 352.025 19.25 L 352.025 37.25 L 314.025 37.25 L 314.025 19.25 Z M 339.697 104.25 L 352.425 91.522 L 365.153 104.25 L 352.425 116.978 L 339.697 104.25 Z M 326.262 90.815 L 338.99 78.087 L 351.718 90.815 L 338.99 103.543 L 326.262 90.815 Z M 353.132 90.815 L 365.86 78.087 L 378.588 90.815 L 365.86 103.543 L 353.132 90.815 Z M 339.697 77.38 L 352.425 64.652 L 365.153 77.38 L 352.425 90.108 L 339.697 77.38 Z M 378.726 65.221 L 391.454 52.493 L 404.182 65.221 L 391.454 77.949 L 378.726 65.221 Z M 365.291 51.786 L 378.019 39.058 L 390.747 51.786 L 378.019 64.514 L 365.291 51.786 Z M 392.161 51.786 L 404.889 39.058 L 417.617 51.786 L 404.889 64.514 L 392.161 51.786 Z M 378.726 38.351 L 391.454 25.623 L 404.182 38.351 L 391.454 51.079 L 378.726 38.351 Z M 67.2 95.25 L 85.2 95.25 L 85.2 113.25 L 67.2 113.25 L 67.2 95.25 Z M 67.2 19.05 L 85.2 19.05 L 85.2 37.05 L 67.2 37.05 L 67.2 19.05 Z M 67.2 0 L 85.2 0 L 85.2 18 L 67.2 18 L 67.2 0 Z M 10.05 95.25 L 28.05 95.25 L 28.05 113.25 L 10.05 113.25 L 10.05 95.25 Z M 10.05 19.05 L 28.05 19.05 L 28.05 37.05 L 10.05 37.05 L 10.05 19.05 Z M 10.05 0 L 28.05 0 L 28.05 18 L 10.05 18 L 10.05 0 Z M 29.1 95.25 L 47.1 95.25 L 47.1 113.25 L 29.1 113.25 L 29.1 95.25 Z M 38.625 76.2 L 56.625 76.2 L 56.625 94.2 L 38.625 94.2 L 38.625 76.2 Z M 38.625 57.15 L 56.625 57.15 L 56.625 75.15 L 38.625 75.15 L 38.625 57.15 Z M 38.625 38.1 L 56.625 38.1 L 56.625 56.1 L 38.625 56.1 L 38.625 38.1 Z M 29.1 19.05 L 47.1 19.05 L 47.1 37.05 L 29.1 37.05 L 29.1 19.05 Z M 48.15 95.25 L 66.15 95.25 L 66.15 113.25 L 48.15 113.25 L 48.15 95.25 Z M 57.675 76.2 L 75.675 76.2 L 75.675 94.2 L 57.675 94.2 L 57.675 76.2 Z M 57.675 57.15 L 75.675 57.15 L 75.675 75.15 L 57.675 75.15 L 57.675 57.15 Z M 57.675 38.1 L 75.675 38.1 L 75.675 56.1 L 57.675 56.1 L 57.675 38.1 Z M 48.15 19.05 L 66.15 19.05 L 66.15 37.05 L 48.15 37.05 L 48.15 19.05 Z M 48.15 0 L 66.15 0 L 66.15 18 L 48.15 18 L 48.15 0 Z M 76.725 76.2 L 94.725 76.2 L 94.725 94.2 L 76.725 94.2 L 76.725 76.2 Z M 76.725 57.15 L 94.725 57.15 L 94.725 75.15 L 76.725 75.15 L 76.725 57.15 Z M 76.725 38.1 L 94.725 38.1 L 94.725 56.1 L 76.725 56.1 L 76.725 38.1 Z M 95.775 76.2 L 113.775 76.2 L 113.775 94.2 L 95.775 94.2 L 95.775 76.2 Z M 95.775 57.15 L 113.775 57.15 L 113.775 75.15 L 95.775 75.15 L 95.775 57.15 Z M 95.775 38.1 L 113.775 38.1 L 113.775 56.1 L 95.775 56.1 L 95.775 38.1 Z M 86.25 19.05 L 104.25 19.05 L 104.25 37.05 L 86.25 37.05 L 86.25 19.05 Z M 86.25 0 L 104.25 0 L 104.25 18 L 86.25 18 L 86.25 0 Z M 114.825 76.2 L 132.825 76.2 L 132.825 94.2 L 114.825 94.2 L 114.825 76.2 Z M 114.825 57.15 L 132.825 57.15 L 132.825 75.15 L 114.825 75.15 L 114.825 57.15 Z M 114.825 38.1 L 132.825 38.1 L 132.825 56.1 L 114.825 56.1 L 114.825 38.1 Z M 105.3 19.05 L 123.3 19.05 L 123.3 37.05 L 105.3 37.05 L 105.3 19.05 Z M 105.3 0 L 123.3 0 L 123.3 18 L 105.3 18 L 105.3 0 Z M 171.975 76.25 L 189.975 76.25 L 189.975 94.25 L 171.975 94.25 L 171.975 76.25 Z M 181.5 57.25 L 199.5 57.25 L 199.5 75.25 L 181.5 75.25 L 181.5 57.25 Z M 181.5 38.25 L 199.5 38.25 L 199.5 56.25 L 181.5 56.25 L 181.5 38.25 Z M 181.5 19.25 L 199.5 19.25 L 199.5 37.25 L 181.5 37.25 L 181.5 19.25 Z M 181.5 0.25 L 199.5 0.25 L 199.5 18.25 L 181.5 18.25 L 181.5 0.25 Z M 190.975 76.25 L 208.975 76.25 L 208.975 94.25 L 190.975 94.25 L 190.975 76.25 Z M 200.5 57.25 L 218.5 57.25 L 218.5 75.25 L 200.5 75.25 L 200.5 57.25 Z M 200.5 38.25 L 218.5 38.25 L 218.5 56.25 L 200.5 56.25 L 200.5 38.25 Z M 200.5 19.25 L 218.5 19.25 L 218.5 37.25 L 200.5 37.25 L 200.5 19.25 Z M 200.5 0.25 L 218.5 0.25 L 218.5 18.25 L 200.5 18.25 L 200.5 0.25 Z M 209.975 76.25 L 227.975 76.25 L 227.975 94.25 L 209.975 94.25 L 209.975 76.25 Z M 219.5 57.25 L 237.5 57.25 L 237.5 75.25 L 219.5 75.25 L 219.5 57.25 Z M 219.5 38.25 L 237.5 38.25 L 237.5 56.25 L 219.5 56.25 L 219.5 38.25 Z M 219.5 19.25 L 237.5 19.25 L 237.5 37.25 L 219.5 37.25 L 219.5 19.25 Z M 219.5 0.25 L 237.5 0.25 L 237.5 18.25 L 219.5 18.25 L 219.5 0.25 Z M 219.45 95.25 L 237.45 95.25 L 237.45 113.25 L 219.45 113.25 L 219.45 95.25 Z M 228.975 76.25 L 246.975 76.25 L 246.975 94.25 L 228.975 94.25 L 228.975 76.25 Z M 238.5 57.25 L 256.5 57.25 L 256.5 75.25 L 238.5 75.25 L 238.5 57.25 Z M 238.5 38.25 L 256.5 38.25 L 256.5 56.25 L 238.5 56.25 L 238.5 38.25 Z M 238.5 19.25 L 256.5 19.25 L 256.5 37.25 L 238.5 37.25 L 238.5 19.25 Z M 238.5 0.25 L 256.5 0.25 L 256.5 18.25 L 238.5 18.25 L 238.5 0.25 Z M 238.45 95.25 L 256.45 95.25 L 256.45 113.25 L 238.45 113.25 L 238.45 95.25 Z M 247.975 76.25 L 265.975 76.25 L 265.975 94.25 L 247.975 94.25 L 247.975 76.25 Z M 257.5 57.25 L 275.5 57.25 L 275.5 75.25 L 257.5 75.25 L 257.5 57.25 Z M 257.5 38.25 L 275.5 38.25 L 275.5 56.25 L 257.5 56.25 L 257.5 38.25 Z M 257.5 19.25 L 275.5 19.25 L 275.5 37.25 L 257.5 37.25 L 257.5 19.25 Z M 257.45 95.25 L 275.45 95.25 L 275.45 113.25 L 257.45 113.25 L 257.45 95.25 Z M 276.5 57.25 L 294.5 57.25 L 294.5 75.25 L 276.5 75.25 L 276.5 57.25 Z M 276.5 38.25 L 294.5 38.25 L 294.5 56.25 L 276.5 56.25 L 276.5 38.25 Z M 276.5 19.25 L 294.5 19.25 L 294.5 37.25 L 276.5 37.25 L 276.5 19.25 Z M 276.5 0.25 L 294.5 0.25 L 294.5 18.25 L 276.5 18.25 L 276.5 0.25 Z M 276.45 95.25 L 294.45 95.25 L 294.45 113.25 L 276.45 113.25 L 276.45 95.25 Z M 295.5 38.25 L 313.5 38.25 L 313.5 56.25 L 295.5 56.25 L 295.5 38.25 Z M 295.5 19.25 L 313.5 19.25 L 313.5 37.25 L 295.5 37.25 L 295.5 19.25 Z M 295.5 0.25 L 313.5 0.25 L 313.5 18.25 L 295.5 18.25 L 295.5 0.25 Z M 314.5 38.25 L 332.5 38.25 L 332.5 56.25 L 314.5 56.25 L 314.5 38.25 Z M 314.5 0.25 L 332.5 0.25 L 332.5 18.25 L 314.5 18.25 L 314.5 0.25 Z M 333.5 0.25 L 351.5 0.25 L 351.5 18.25 L 333.5 18.25 L 333.5 0.25 Z M 362.075 0.25 L 380.075 0.25 L 380.075 18.25 L 362.075 18.25 L 362.075 0.25 Z M 381.075 0.25 L 399.075 0.25 L 399.075 18.25 L 381.075 18.25 L 381.075 0.25 Z M 400.075 0.25 L 418.075 0.25 L 418.075 18.25 L 400.075 18.25 L 400.075 0.25 Z" vector-effect="non-scaling-stroke"/></g></svg>