<svg width="352.025mm" height="113.25mm" viewBox="0 0 352.025 113.25" xmlns="http://www.w3.org/2000/svg"><g id="svgGroup" stroke-linecap="round" fill-rule="evenodd" font-size="9pt" stroke="#000" stroke-width="0.25mm" fill="none" style="stroke:#000;stroke-width:0.25mm;fill:none"><path d="M 85.8 95.25 L 142.8 95.25 L 142.8 113.25 L 85.8 113.25 L 85.8 95.25 Z M 171.525 95.25 L 228.525 95.25 L 228.525 113.25 L 171.525 113.25 L 171.525 95.25 Z M 0 57.15 L 38.1 57.15 L 38.1 75.15 L 0 75.15 L 0 57.15 Z M 0 38.1 L 38.1 38.1 L 38.1 56.1 L 0 56.1 L 0 38.1 Z M 0.05 76.2 L 38.05 76.2 L 38.05 94.2 L 0.05 94.2 L 0.05 76.2 Z M 276.025 76.25 L 314.025 76.25 L 314.025 94.25 L 276.025 94.25 L 276.025 76.25 Z M 295.025 57.25 L 333.025 57.25 L 333.025 75.25 L 295.025 75.25 L 295.025 57.25 Z M 314.025 19.25 L 352.025 19.25 L 352.025 37.25 L 314.025 37.25 L 314.025 19.25 Z M 67.2 95.25 L 85.2 95.25 L 85.2 113.25 L 67.2 113.25 L 67.2 95.25 Z M 67.2 19.05 L 85.2 19.05 L 85.2 37.05 L 67.2 37.05 L 67.2 19.05 Z M 67.2 0 L 85.2 0 L 85.2 18 L 67.2 18 L 67.2 0 Z M 10.05 95.25 L 28.05 95.25 L 28.05 113.25 L 10.05 113.25 L 10.05 95.25 Z M 10.05 19.05 L 28.05 19.05 L 28.05 37.05 L 10.05 37.05 L 10.05 19.05 Z M 10.05 0 L 28.05 0 L 28.05 18 L 10.05 18 L 10.05 0 Z M 29.1 95.25 L 47.1 95.25 L 47.1 113.25 L 29.1 113.25 L 29.1 95.25 Z M 38.625 76.2 L 56.625 76.2 L 56.625 94.2 L 38.625 94.2 L 38.625 76.2 Z M 38.625 57.15 L 56.625 57.15 L 56.625 75.15 L 38.625 75.15 L 38.625 57.15 Z M 38.625 38.1 L 56.625 38.1 L 56.625 56.1 L 38.625 56.1 L 38.625 38.1 Z M 29.1 19.05 L 47.1 19.05 L 47.1 37.05 L 29.1 37.05 L 29.1 19.05 Z M 48.15 95.25 L 66.15 95.25 L 66.15 113.25 L 48.15 113.25 L 48.15 95.25 Z M 57.675 76.2 L 75.675 76.2 L 75.675 94.2 L 57.675 94.2 L 57.675 76.2 Z M 57.675 57.15 L 75.675 57.15 L 75.675 75.15 L 57.675 75.15 L 57.675 57.15 Z M 57.675 38.1 L 75.675 38.1 L 75.675 56.1 L 57.675 56.1 L 57.675 38.1 Z M 48.15 19.05 L 66.15 19.05 L 66.15 37.05 L 48.15 37.05 L 48.15 19.05 Z M 48.15 0 L 66.15 0 L 66.15 18 L 48.15 18 L 48.15 0 Z M 76.725 76.2 L 94.725 76.2 L 94.725 94.2 L 76.725 94.2 L 76.725 76.2 Z M 76.725 57.15 L 94.725 57.15 L 94.725 75.15 L 76.725 75.15 L 76.725 57.15 Z M 76.725 38.1 L 94.725 38.1 L 94.725 56.1 L 76.725 56.1 L 76.725 38.1 Z M 95.775 76.2 L 113.775 76.2 L 113.775 94.2 L 95.775 94.2 L 95.775 76.2 Z M 95.775 57.15 L 113.775 57.15 L 113.775 75.15 L 95.775 75.15 L 95.775 57.15 Z M 95.775 38.1 L 113.775 38.1 L 113.775 56.1 L 95.775 56.1 L 95.775 38.1 Z M 86.25 19.05 L 104.25 19.05 L 104.25 37.05 L 86.25 37.05 L 86.25 19.05 Z M 86.25 0 L 104.25 0 L 104.25 18 L 86.25 18 L 86.25 0 Z M 114.825 76.2 L 132.825 76.2 L 132.825 94.2 L 114.825 94.2 L 114.825 76.2 Z M 114.825 57.15 L 132.825 57.15 L 132.825 75.15 L 114.825 75.15 L 114.825 57.15 Z M 114.825 38.1 L 132.825 38.1 L 132.825 56.1 L 114.825 56.1 L 114.825 38.1 Z M 105.3 19.05 L 123.3 19.05 L 123.3 37.05 L 105.3 37.05 L 105.3 19.05 Z M 105.3 0 L 123.3 0 L 123.3 18 L 105.3 18 L 105.3 0 Z M 181.5 76.25 L 199.5 76.25 L 199.5 94.25 L 181.5 94.25 L 181.5 76.25 Z M 181.5 57.25 L 199.5 57.25 L 199.5 75.25 L 181.5 75.25 L 181.5 57.25 Z M 181.5 38.25 L 199.5 38.25 L 199.5 56.25 L 181.5 56.25 L 181.5 38.25 Z M 181.5 19.25 L 199.5 19.25 L 199.5 37.25 L 181.5 37.25 L 181.5 19.25 Z M 181.5 0.25 L 199.5 0.25 L 199.5 18.25 L 181.5 18.25 L 181.5 0.25 Z M 200.5 76.25 L 218.5 76.25 L 218.5 94.25 L 200.5 94.25 L 200.5 76.25 Z M 200.5 57.25 L 218.5 57.25 L 218.5 75.25 L 200.5 75.25 L 200.5 57.25 Z M 200.5 38.25 L 218.5 38.25 L 218.5 56.25 L 200.5 56.25 L 200.5 38.25 Z M 200.5 19.25 L 218.5 19.25 L 218.5 37.25 L 200.5 37.25 L 200.5 19.25 Z M 200.5 0.25 L 218.5 0.25 L 218.5 18.25 L 200.5 18.25 L 200.5 0.25 Z M 219.5 76.25 L 237.5 76.25 L 237.5 94.25 L 219.5 94.25 L 219.5 76.25 Z M 219.5 57.25 L 237.5 57.25 L 237.5 75.25 L 219.5 75.25 L 219.5 57.25 Z M 219.5 38.25 L 237.5 38.25 L 237.5 56.25 L 219.5 56.25 L 219.5 38.25 Z M 219.5 19.25 L 237.5 19.25 L 237.5 37.25 L 219.5 37.25 L 219.5 19.25 Z M 219.5 0.25 L 237.5 0.25 L 237.5 18.25 L 219.5 18.25 L 219.5 0.25 Z M 228.975 95.25 L 246.975 95.25 L 246.975 113.25 L 228.975 113.25 L 228.975 95.25 Z M 238.5 76.25 L 256.5 76.25 L 256.5 94.25 L 238.5 94.25 L 238.5 76.25 Z M 238.5 57.25 L 256.5 57.25 L 256.5 75.25 L 238.5 75.25 L 238.5 57.25 Z M 238.5 38.25 L 256.5 38.25 L 256.5 56.25 L 238.5 56.25 L 238.5 38.25 Z M 238.5 19.25 L 256.5 19.25 L 256.5 37.25 L 238.5 37.25 L 238.5 19.25 Z M 238.5 0.25 L 256.5 0.25 L 256.5 18.25 L 238.5 18.25 L 238.5 0.25 Z M 247.975 95.25 L 265.975 95.25 L 265.975 113.25 L 247.975 113.25 L 247.975 95.25 Z M 257.5 76.25 L 275.5 76.25 L 275.5 94.25 L 257.5 94.25 L 257.5 76.25 Z M 257.5 57.25 L 275.5 57.25 L 275.5 75.25 L 257.5 75.25 L 257.5 57.25 Z M 257.5 38.25 L 275.5 38.25 L 275.5 56.25 L 257.5 56.25 L 257.5 38.25 Z M 257.5 19.25 L 275.5 19.25 L 275.5 37.25 L 257.5 37.25 L 257.5 19.25 Z M 266.975 95.25 L 284.975 95.25 L 284.975 113.25 L 266.975 113.25 L 266.975 95.25 Z M 276.5 57.25 L 294.5 57.25 L 294.5 75.25 L 276.5 75.25 L 276.5 57.25 Z M 276.5 38.25 L 294.5 38.25 L 294.5 56.25 L 276.5 56.25 L 276.5 38.25 Z M 276.5 19.25 L 294.5 19.25 L 294.5 37.25 L 276.5 37.25 L 276.5 19.25 Z M 276.5 0.25 L 294.5 0.25 L 294.5 18.25 L 276.5 18.25 L 276.5 0.25 Z M 285.975 95.25 L 303.975 95.25 L 303.975 113.25 L 285.975 113.25 L 285.975 95.25 Z M 295.5 38.25 L 313.5 38.25 L 313.5 56.25 L 295.5 56.25 L 295.5 38.25 Z M 295.5 19.25 L 313.5 19.25 L 313.5 37.25 L 295.5 37.25 L 295.5 19.25 Z M 295.5 0.25 L 313.5 0.25 L 313.5 18.25 L 295.5 18.25 L 295.5 0.25 Z M 314.5 38.25 L 332.5 38.25 L 332.5 56.25 L 314.5 56.25 L 314.5 38.25 Z M 314.5 0.25 L 332.5 0.25 L 332.5 18.25 L 314.5 18.25 L 314.5 0.25 Z M 333.5 0.25 L 351.5 0.25 L 351.5 18.25 L 333.5 18.25 L 333.5 0.25 Z" vector-effect="non-scaling-stroke"/></g></svg>