<svg width="332.45mm" height="113.25mm" viewBox="0 0 332.45 113.25" xmlns="http://www.w3.org/2000/svg"><g id="svgGroup" stroke-linecap="round" fill-rule="evenodd" font-size="9pt" stroke="#000" stroke-width="0.25mm" fill="none" style="stroke:#000;stroke-width:0.25mm;fill:none"><path d="M 85.725 95.25 L 142.875 95.25 L 142.875 113.25 L 85.725 113.25 L 85.725 95.25 Z M 0 76.2 L 38.1 76.2 L 38.1 94.2 L 0 94.2 L 0 76.2 Z M 0 57.15 L 38.1 57.15 L 38.1 75.15 L 0 75.15 L 0 57.15 Z M 0 38.1 L 38.1 38.1 L 38.1 56.1 L 0 56.1 L 0 38.1 Z M 67.2 95.25 L 85.2 95.25 L 85.2 113.25 L 67.2 113.25 L 67.2 95.25 Z M 67.2 76.2 L 85.2 76.2 L 85.2 94.2 L 67.2 94.2 L 67.2 76.2 Z M 67.2 57.15 L 85.2 57.15 L 85.2 75.15 L 67.2 75.15 L 67.2 57.15 Z M 67.2 38.1 L 85.2 38.1 L 85.2 56.1 L 67.2 56.1 L 67.2 38.1 Z M 67.2 19.05 L 85.2 19.05 L 85.2 37.05 L 67.2 37.05 L 67.2 19.05 Z M 67.2 0 L 85.2 0 L 85.2 18 L 67.2 18 L 67.2 0 Z M 10.05 95.25 L 28.05 95.25 L 28.05 113.25 L 10.05 113.25 L 10.05 95.25 Z M 10.05 19.05 L 28.05 19.05 L 28.05 37.05 L 10.05 37.05 L 10.05 19.05 Z M 10.05 0 L 28.05 0 L 28.05 18 L 10.05 18 L 10.05 0 Z M 29.1 95.25 L 47.1 95.25 L 47.1 113.25 L 29.1 113.25 L 29.1 95.25 Z M 38.625 76.2 L 56.625 76.2 L 56.625 94.2 L 38.625 94.2 L 38.625 76.2 Z M 38.625 57.15 L 56.625 57.15 L 56.625 75.15 L 38.625 75.15 L 38.625 57.15 Z M 38.625 38.1 L 56.625 38.1 L 56.625 56.1 L 38.625 56.1 L 38.625 38.1 Z M 29.1 19.05 L 47.1 19.05 L 47.1 37.05 L 29.1 37.05 L 29.1 19.05 Z M 48.15 95.25 L 66.15 95.25 L 66.15 113.25 L 48.15 113.25 L 48.15 95.25 Z M 48.15 76.2 L 66.15 76.2 L 66.15 94.2 L 48.15 94.2 L 48.15 76.2 Z M 48.15 57.15 L 66.15 57.15 L 66.15 75.15 L 48.15 75.15 L 48.15 57.15 Z M 48.15 38.1 L 66.15 38.1 L 66.15 56.1 L 48.15 56.1 L 48.15 38.1 Z M 48.15 19.05 L 66.15 19.05 L 66.15 37.05 L 48.15 37.05 L 48.15 19.05 Z M 48.15 0 L 66.15 0 L 66.15 18 L 48.15 18 L 48.15 0 Z M 86.25 76.2 L 104.25 76.2 L 104.25 94.2 L 86.25 94.2 L 86.25 76.2 Z M 86.25 57.15 L 104.25 57.15 L 104.25 75.15 L 86.25 75.15 L 86.25 57.15 Z M 86.25 38.1 L 104.25 38.1 L 104.25 56.1 L 86.25 56.1 L 86.25 38.1 Z M 86.25 19.05 L 104.25 19.05 L 104.25 37.05 L 86.25 37.05 L 86.25 19.05 Z M 86.25 0 L 104.25 0 L 104.25 18 L 86.25 18 L 86.25 0 Z M 105.3 76.2 L 123.3 76.2 L 123.3 94.2 L 105.3 94.2 L 105.3 76.2 Z M 105.3 57.15 L 123.3 57.15 L 123.3 75.15 L 105.3 75.15 L 105.3 57.15 Z M 105.3 38.1 L 123.3 38.1 L 123.3 56.1 L 105.3 56.1 L 105.3 38.1 Z M 105.3 19.05 L 123.3 19.05 L 123.3 37.05 L 105.3 37.05 L 105.3 19.05 Z M 105.3 0 L 123.3 0 L 123.3 18 L 105.3 18 L 105.3 0 Z M 162.45 95.25 L 180.45 95.25 L 180.45 113.25 L 162.45 113.25 L 162.45 95.25 Z M 162.45 76.25 L 180.45 76.25 L 180.45 94.25 L 162.45 94.25 L 162.45 76.25 Z M 162.45 57.25 L 180.45 57.25 L 180.45 75.25 L 162.45 75.25 L 162.45 57.25 Z M 162.45 38.25 L 180.45 38.25 L 180.45 56.25 L 162.45 56.25 L 162.45 38.25 Z M 162.45 19.25 L 180.45 19.25 L 180.45 37.25 L 162.45 37.25 L 162.45 19.25 Z M 162.45 0.25 L 180.45 0.25 L 180.45 18.25 L 162.45 18.25 L 162.45 0.25 Z M 181.45 95.25 L 199.45 95.25 L 199.45 113.25 L 181.45 113.25 L 181.45 95.25 Z M 181.45 76.25 L 199.45 76.25 L 199.45 94.25 L 181.45 94.25 L 181.45 76.25 Z M 181.45 57.25 L 199.45 57.25 L 199.45 75.25 L 181.45 75.25 L 181.45 57.25 Z M 181.45 38.25 L 199.45 38.25 L 199.45 56.25 L 181.45 56.25 L 181.45 38.25 Z M 181.45 19.25 L 199.45 19.25 L 199.45 37.25 L 181.45 37.25 L 181.45 19.25 Z M 181.45 0.25 L 199.45 0.25 L 199.45 18.25 L 181.45 18.25 L 181.45 0.25 Z M 200.45 95.25 L 218.45 95.25 L 218.45 113.25 L 200.45 113.25 L 200.45 95.25 Z M 200.45 76.25 L 218.45 76.25 L 218.45 94.25 L 200.45 94.25 L 200.45 76.25 Z M 200.45 57.25 L 218.45 57.25 L 218.45 75.25 L 200.45 75.25 L 200.45 57.25 Z M 200.45 38.25 L 218.45 38.25 L 218.45 56.25 L 200.45 56.25 L 200.45 38.25 Z M 200.45 19.25 L 218.45 19.25 L 218.45 37.25 L 200.45 37.25 L 200.45 19.25 Z M 200.45 0.25 L 218.45 0.25 L 218.45 18.25 L 200.45 18.25 L 200.45 0.25 Z M 219.45 95.25 L 237.45 95.25 L 237.45 113.25 L 219.45 113.25 L 219.45 95.25 Z M 219.45 76.25 L 237.45 76.25 L 237.45 94.25 L 219.45 94.25 L 219.45 76.25 Z M 219.45 57.25 L 237.45 57.25 L 237.45 75.25 L 219.45 75.25 L 219.45 57.25 Z M 219.45 38.25 L 237.45 38.25 L 237.45 56.25 L 219.45 56.25 L 219.45 38.25 Z M 219.45 19.25 L 237.45 19.25 L 237.45 37.25 L 219.45 37.25 L 219.45 19.25 Z M 219.45 0.25 L 237.45 0.25 L 237.45 18.25 L 219.45 18.25 L 219.45 0.25 Z M 238.45 95.25 L 256.45 95.25 L 256.45 113.25 L 238.45 113.25 L 238.45 95.25 Z M 238.45 76.25 L 256.45 76.25 L 256.45 94.25 L 238.45 94.25 L 238.45 76.25 Z M 238.45 57.25 L 256.45 57.25 L 256.45 75.25 L 238.45 75.25 L 238.45 57.25 Z M 238.45 38.25 L 256.45 38.25 L 256.45 56.25 L 238.45 56.25 L 238.45 38.25 Z M 238.45 19.25 L 256.45 19.25 L 256.45 37.25 L 238.45 37.25 L 238.45 19.25 Z M 276.45 95.25 L 294.45 95.25 L 294.45 113.25 L 276.45 113.25 L 276.45 95.25 Z M 276.45 76.25 L 294.45 76.25 L 294.45 94.25 L 276.45 94.25 L 276.45 76.25 Z M 276.45 57.25 L 294.45 57.25 L 294.45 75.25 L 276.45 75.25 L 276.45 57.25 Z M 276.45 38.25 L 294.45 38.25 L 294.45 56.25 L 276.45 56.25 L 276.45 38.25 Z M 276.45 19.25 L 294.45 19.25 L 294.45 37.25 L 276.45 37.25 L 276.45 19.25 Z M 276.45 0.25 L 294.45 0.25 L 294.45 18.25 L 276.45 18.25 L 276.45 0.25 Z M 295.45 95.25 L 313.45 95.25 L 313.45 113.25 L 295.45 113.25 L 295.45 95.25 Z M 295.45 76.25 L 313.45 76.25 L 313.45 94.25 L 295.45 94.25 L 295.45 76.25 Z M 295.45 57.25 L 313.45 57.25 L 313.45 75.25 L 295.45 75.25 L 295.45 57.25 Z M 295.45 38.25 L 313.45 38.25 L 313.45 56.25 L 295.45 56.25 L 295.45 38.25 Z M 295.45 19.25 L 313.45 19.25 L 313.45 37.25 L 295.45 37.25 L 295.45 19.25 Z M 295.45 0.25 L 313.45 0.25 L 313.45 18.25 L 295.45 18.25 L 295.45 0.25 Z M 314.45 95.25 L 332.45 95.25 L 332.45 113.25 L 314.45 113.25 L 314.45 95.25 Z M 314.45 76.25 L 332.45 76.25 L 332.45 94.25 L 314.45 94.25 L 314.45 76.25 Z M 314.45 57.25 L 332.45 57.25 L 332.45 75.25 L 314.45 75.25 L 314.45 57.25 Z M 314.45 38.25 L 332.45 38.25 L 332.45 56.25 L 314.45 56.25 L 314.45 38.25 Z M 314.45 19.25 L 332.45 19.25 L 332.45 37.25 L 314.45 37.25 L 314.45 19.25 Z M 314.45 0.25 L 332.45 0.25 L 332.45 18.25 L 314.45 18.25 L 314.45 0.25 Z M 257.45 95.25 L 275.45 95.25 L 275.45 113.25 L 257.45 113.25 L 257.45 95.25 Z M 257.45 76.25 L 275.45 76.25 L 275.45 94.25 L 257.45 94.25 L 257.45 76.25 Z M 257.45 57.25 L 275.45 57.25 L 275.45 75.25 L 257.45 75.25 L 257.45 57.25 Z M 257.45 38.25 L 275.45 38.25 L 275.45 56.25 L 257.45 56.25 L 257.45 38.25 Z M 257.45 19.25 L 275.45 19.25 L 275.45 37.25 L 257.45 37.25 L 257.45 19.25 Z M 257.45 0.25 L 275.45 0.25 L 275.45 18.25 L 257.45 18.25 L 257.45 0.25 Z" vector-effect="non-scaling-stroke"/></g></svg>