<svg width="113mm" height="113mm" viewBox="0 0 113 113" xmlns="http://www.w3.org/2000/svg"><g id="svgGroup" stroke-linecap="round" fill-rule="evenodd" font-size="9pt" stroke="#000" stroke-width="0.25mm" fill="none" style="stroke:#000;stroke-width:0.25mm;fill:none"><path d="M 0 95 L 18 95 L 18 113 L 0 113 L 0 95 Z M 0 76 L 18 76 L 18 94 L 0 94 L 0 76 Z M 0 57 L 18 57 L 18 75 L 0 75 L 0 57 Z M 0 38 L 18 38 L 18 56 L 0 56 L 0 38 Z M 0 19 L 18 19 L 18 37 L 0 37 L 0 19 Z M 0 0 L 18 0 L 18 18 L 0 18 L 0 0 Z M 19 95 L 37 95 L 37 113 L 19 113 L 19 95 Z M 19 76 L 37 76 L 37 94 L 19 94 L 19 76 Z M 19 57 L 37 57 L 37 75 L 19 75 L 19 57 Z M 19 38 L 37 38 L 37 56 L 19 56 L 19 38 Z M 19 19 L 37 19 L 37 37 L 19 37 L 19 19 Z M 38 95 L 56 95 L 56 113 L 38 113 L 38 95 Z M 38 76 L 56 76 L 56 94 L 38 94 L 38 76 Z M 38 57 L 56 57 L 56 75 L 38 75 L 38 57 Z M 38 38 L 56 38 L 56 56 L 38 56 L 38 38 Z M 38 19 L 56 19 L 56 37 L 38 37 L 38 19 Z M 38 0 L 56 0 L 56 18 L 38 18 L 38 0 Z M 57 95 L 75 95 L 75 113 L 57 113 L 57 95 Z M 57 76 L 75 76 L 75 94 L 57 94 L 57 76 Z M 57 57 L 75 57 L 75 75 L 57 75 L 57 57 Z M 57 38 L 75 38 L 75 56 L 57 56 L 57 38 Z M 57 19 L 75 19 L 75 37 L 57 37 L 57 19 Z M 57 0 L 75 0 L 75 18 L 57 18 L 57 0 Z M 76 95 L 94 95 L 94 113 L 76 113 L 76 95 Z M 76 76 L 94 76 L 94 94 L 76 94 L 76 76 Z M 76 57 L 94 57 L 94 75 L 76 75 L 76 57 Z M 76 38 L 94 38 L 94 56 L 76 56 L 76 38 Z M 76 19 L 94 19 L 94 37 L 76 37 L 76 19 Z M 76 0 L 94 0 L 94 18 L 76 18 L 76 0 Z M 95 95 L 113 95 L 113 113 L 95 113 L 95 95 Z M 95 76 L 113 76 L 113 94 L 95 94 L 95 76 Z M 95 57 L 113 57 L 113 75 L 95 75 L 95 57 Z M 95 38 L 113 38 L 113 56 L 95 56 L 95 38 Z M 95 19 L 113 19 L 113 37 L 95 37 L 95 19 Z M 95 0 L 113 0 L 113 18 L 95 18 L 95 0 Z" vector-effect="non-scaling-stroke"/></g></svg>