0
SECTION
2
HEADER
9
$INSUNITS
70
4
0
ENDSEC
0
SECTION
2
TABLES
0
TABLE
2
LTYPE
0
LTYPE
72
65
70
64
2
CONTINUOUS
3
______
73
0
40
0
0
ENDTAB
0
TABLE
2
LAYER
0
ENDTAB
0
ENDSEC
0
SECTION
2
ENTITIES
0
LINE
8
0
10
-9
20
9
11
9
21
9
0
LINE
8
0
10
9
20
9
11
9
21
-9
0
LINE
8
0
10
9
20
-9
11
-9
21
-9
0
LINE
8
0
10
-9
20
-9
11
-9
21
9
0
LINE
8
0
10
-19
20
28.05
11
19
21
28.05
0
LINE
8
0
10
19
20
28.05
11
19
21
10.05
0
LINE
8
0
10
19
20
10.05
11
-19
21
10.05
0
LINE
8
0
10
-19
20
10.05
11
-19
21
28.05
0
LINE
8
0
10
-19.05
20
47.1
11
19.05
21
47.1
0
LINE
8
0
10
19.05
20
47.1
11
19.05
21
29.1
0
LINE
8
0
10
19.05
20
29.1
11
-19.05
21
29.1
0
LINE
8
0
10
-19.05
20
29.1
11
-19.05
21
47.1
0
LINE
8
0
10
-19.05
20
66.15
11
19.05
21
66.15
0
LINE
8
0
10
19.05
20
66.15
11
19.05
21
48.15
0
LINE
8
0
10
19.05
20
48.15
11
-19.05
21
48.15
0
LINE
8
0
10
-19.05
20
48.15
11
-19.05
21
66.15
0
LINE
8
0
10
-9
20
85.2
11
9
21
85.2
0
LINE
8
0
10
9
20
85.2
11
9
21
67.2
0
LINE
8
0
10
9
20
67.2
11
-9
21
67.2
0
LINE
8
0
10
-9
20
67.2
11
-9
21
85.2
0
LINE
8
0
10
-9
20
104.25
11
9
21
104.25
0
LINE
8
0
10
9
20
104.25
11
9
21
86.25
0
LINE
8
0
10
9
20
86.25
11
-9
21
86.25
0
LINE
8
0
10
-9
20
86.25
11
-9
21
104.25
0
LINE
8
0
10
10.05
20
9
11
28.05
21
9
0
LINE
8
0
10
28.05
20
9
11
28.05
21
-9
0
LINE
8
0
10
28.05
20
-9
11
10.05
21
-9
0
LINE
8
0
10
10.05
20
-9
11
10.05
21
9
0
LINE
8
0
10
19.575
20
28.05
11
37.575
21
28.05
0
LINE
8
0
10
37.575
20
28.05
11
37.575
21
10.05
0
LINE
8
0
10
37.575
20
10.05
11
19.575
21
10.05
0
LINE
8
0
10
19.575
20
10.05
11
19.575
21
28.05
0
LINE
8
0
10
19.575
20
47.1
11
37.575
21
47.1
0
LINE
8
0
10
37.575
20
47.1
11
37.575
21
29.1
0
LINE
8
0
10
37.575
20
29.1
11
19.575
21
29.1
0
LINE
8
0
10
19.575
20
29.1
11
19.575
21
47.1
0
LINE
8
0
10
19.575
20
66.15
11
37.575
21
66.15
0
LINE
8
0
10
37.575
20
66.15
11
37.575
21
48.15
0
LINE
8
0
10
37.575
20
48.15
11
19.575
21
48.15
0
LINE
8
0
10
19.575
20
48.15
11
19.575
21
66.15
0
LINE
8
0
10
10.05
20
85.2
11
28.05
21
85.2
0
LINE
8
0
10
28.05
20
85.2
11
28.05
21
67.2
0
LINE
8
0
10
28.05
20
67.2
11
10.05
21
67.2
0
LINE
8
0
10
10.05
20
67.2
11
10.05
21
85.2
0
LINE
8
0
10
29.1
20
9
11
47.1
21
9
0
LINE
8
0
10
47.1
20
9
11
47.1
21
-9
0
LINE
8
0
10
47.1
20
-9
11
29.1
21
-9
0
LINE
8
0
10
29.1
20
-9
11
29.1
21
9
0
LINE
8
0
10
38.625
20
28.05
11
56.625
21
28.05
0
LINE
8
0
10
56.625
20
28.05
11
56.625
21
10.05
0
LINE
8
0
10
56.625
20
10.05
11
38.625
21
10.05
0
LINE
8
0
10
38.625
20
10.05
11
38.625
21
28.05
0
LINE
8
0
10
38.625
20
47.1
11
56.625
21
47.1
0
LINE
8
0
10
56.625
20
47.1
11
56.625
21
29.1
0
LINE
8
0
10
56.625
20
29.1
11
38.625
21
29.1
0
LINE
8
0
10
38.625
20
29.1
11
38.625
21
47.1
0
LINE
8
0
10
38.625
20
66.15
11
56.625
21
66.15
0
LINE
8
0
10
56.625
20
66.15
11
56.625
21
48.15
0
LINE
8
0
10
56.625
20
48.15
11
38.625
21
48.15
0
LINE
8
0
10
38.625
20
48.15
11
38.625
21
66.15
0
LINE
8
0
10
29.1
20
85.2
11
47.1
21
85.2
0
LINE
8
0
10
47.1
20
85.2
11
47.1
21
67.2
0
LINE
8
0
10
47.1
20
67.2
11
29.1
21
67.2
0
LINE
8
0
10
29.1
20
67.2
11
29.1
21
85.2
0
LINE
8
0
10
29.1
20
104.25
11
47.1
21
104.25
0
LINE
8
0
10
47.1
20
104.25
11
47.1
21
86.25
0
LINE
8
0
10
47.1
20
86.25
11
29.1
21
86.25
0
LINE
8
0
10
29.1
20
86.25
11
29.1
21
104.25
0
LINE
8
0
10
48.15
20
9
11
66.15
21
9
0
LINE
8
0
10
66.15
20
9
11
66.15
21
-9
0
LINE
8
0
10
66.15
20
-9
11
48.15
21
-9
0
LINE
8
0
10
48.15
20
-9
11
48.15
21
9
0
LINE
8
0
10
57.675
20
28.05
11
75.675
21
28.05
0
LINE
8
0
10
75.675
20
28.05
11
75.675
21
10.05
0
LINE
8
0
10
75.675
20
10.05
11
57.675
21
10.05
0
LINE
8
0
10
57.675
20
10.05
11
57.675
21
28.05
0
LINE
8
0
10
57.675
20
47.1
11
75.675
21
47.1
0
LINE
8
0
10
75.675
20
47.1
11
75.675
21
29.1
0
LINE
8
0
10
75.675
20
29.1
11
57.675
21
29.1
0
LINE
8
0
10
57.675
20
29.1
11
57.675
21
47.1
0
LINE
8
0
10
57.675
20
66.15
11
75.675
21
66.15
0
LINE
8
0
10
75.675
20
66.15
11
75.675
21
48.15
0
LINE
8
0
10
75.675
20
48.15
11
57.675
21
48.15
0
LINE
8
0
10
57.675
20
48.15
11
57.675
21
66.15
0
LINE
8
0
10
48.15
20
85.2
11
66.15
21
85.2
0
LINE
8
0
10
66.15
20
85.2
11
66.15
21
67.2
0
LINE
8
0
10
66.15
20
67.2
11
48.15
21
67.2
0
LINE
8
0
10
48.15
20
67.2
11
48.15
21
85.2
0
LINE
8
0
10
48.15
20
104.25
11
66.15
21
104.25
0
LINE
8
0
10
66.15
20
104.25
11
66.15
21
86.25
0
LINE
8
0
10
66.15
20
86.25
11
48.15
21
86.25
0
LINE
8
0
10
48.15
20
86.25
11
48.15
21
104.25
0
LINE
8
0
10
66.75
20
9
11
123.75
21
9
0
LINE
8
0
10
123.75
20
9
11
123.75
21
-9
0
LINE
8
0
10
123.75
20
-9
11
66.75
21
-9
0
LINE
8
0
10
66.75
20
-9
11
66.75
21
9
0
LINE
8
0
10
76.725
20
28.05
11
94.725
21
28.05
0
LINE
8
0
10
94.725
20
28.05
11
94.725
21
10.05
0
LINE
8
0
10
94.725
20
10.05
11
76.725
21
10.05
0
LINE
8
0
10
76.725
20
10.05
11
76.725
21
28.05
0
LINE
8
0
10
76.725
20
47.1
11
94.725
21
47.1
0
LINE
8
0
10
94.725
20
47.1
11
94.725
21
29.1
0
LINE
8
0
10
94.725
20
29.1
11
76.725
21
29.1
0
LINE
8
0
10
76.725
20
29.1
11
76.725
21
47.1
0
LINE
8
0
10
76.725
20
66.15
11
94.725
21
66.15
0
LINE
8
0
10
94.725
20
66.15
11
94.725
21
48.15
0
LINE
8
0
10
94.725
20
48.15
11
76.725
21
48.15
0
LINE
8
0
10
76.725
20
48.15
11
76.725
21
66.15
0
LINE
8
0
10
67.2
20
85.2
11
85.2
21
85.2
0
LINE
8
0
10
85.2
20
85.2
11
85.2
21
67.2
0
LINE
8
0
10
85.2
20
67.2
11
67.2
21
67.2
0
LINE
8
0
10
67.2
20
67.2
11
67.2
21
85.2
0
LINE
8
0
10
67.2
20
104.25
11
85.2
21
104.25
0
LINE
8
0
10
85.2
20
104.25
11
85.2
21
86.25
0
LINE
8
0
10
85.2
20
86.25
11
67.2
21
86.25
0
LINE
8
0
10
67.2
20
86.25
11
67.2
21
104.25
0
LINE
8
0
10
95.775
20
28.05
11
113.775
21
28.05
0
LINE
8
0
10
113.775
20
28.05
11
113.775
21
10.05
0
LINE
8
0
10
113.775
20
10.05
11
95.775
21
10.05
0
LINE
8
0
10
95.775
20
10.05
11
95.775
21
28.05
0
LINE
8
0
10
95.775
20
47.1
11
113.775
21
47.1
0
LINE
8
0
10
113.775
20
47.1
11
113.775
21
29.1
0
LINE
8
0
10
113.775
20
29.1
11
95.775
21
29.1
0
LINE
8
0
10
95.775
20
29.1
11
95.775
21
47.1
0
LINE
8
0
10
95.775
20
66.15
11
113.775
21
66.15
0
LINE
8
0
10
113.775
20
66.15
11
113.775
21
48.15
0
LINE
8
0
10
113.775
20
48.15
11
95.775
21
48.15
0
LINE
8
0
10
95.775
20
48.15
11
95.775
21
66.15
0
LINE
8
0
10
86.25
20
85.2
11
104.25
21
85.2
0
LINE
8
0
10
104.25
20
85.2
11
104.25
21
67.2
0
LINE
8
0
10
104.25
20
67.2
11
86.25
21
67.2
0
LINE
8
0
10
86.25
20
67.2
11
86.25
21
85.2
0
LINE
8
0
10
86.25
20
104.25
11
104.25
21
104.25
0
LINE
8
0
10
104.25
20
104.25
11
104.25
21
86.25
0
LINE
8
0
10
104.25
20
86.25
11
86.25
21
86.25
0
LINE
8
0
10
86.25
20
86.25
11
86.25
21
104.25
0
LINE
8
0
10
142.95
20
9
11
199.95
21
9
0
LINE
8
0
10
199.95
20
9
11
199.95
21
-9
0
LINE
8
0
10
199.95
20
-9
11
142.95
21
-9
0
LINE
8
0
10
142.95
20
-9
11
142.95
21
9
0
LINE
8
0
10
152.925
20
28
11
170.925
21
28
0
LINE
8
0
10
170.925
20
28
11
170.925
21
10
0
LINE
8
0
10
170.925
20
10
11
152.925
21
10
0
LINE
8
0
10
152.925
20
10
11
152.925
21
28
0
LINE
8
0
10
162.45
20
47
11
180.45
21
47
0
LINE
8
0
10
180.45
20
47
11
180.45
21
29
0
LINE
8
0
10
180.45
20
29
11
162.45
21
29
0
LINE
8
0
10
162.45
20
29
11
162.45
21
47
0
LINE
8
0
10
162.45
20
66
11
180.45
21
66
0
LINE
8
0
10
180.45
20
66
11
180.45
21
48
0
LINE
8
0
10
180.45
20
48
11
162.45
21
48
0
LINE
8
0
10
162.45
20
48
11
162.45
21
66
0
LINE
8
0
10
162.45
20
85
11
180.45
21
85
0
LINE
8
0
10
180.45
20
85
11
180.45
21
67
0
LINE
8
0
10
180.45
20
67
11
162.45
21
67
0
LINE
8
0
10
162.45
20
67
11
162.45
21
85
0
LINE
8
0
10
162.45
20
104
11
180.45
21
104
0
LINE
8
0
10
180.45
20
104
11
180.45
21
86
0
LINE
8
0
10
180.45
20
86
11
162.45
21
86
0
LINE
8
0
10
162.45
20
86
11
162.45
21
104
0
LINE
8
0
10
171.925
20
28
11
189.925
21
28
0
LINE
8
0
10
189.925
20
28
11
189.925
21
10
0
LINE
8
0
10
189.925
20
10
11
171.925
21
10
0
LINE
8
0
10
171.925
20
10
11
171.925
21
28
0
LINE
8
0
10
181.45
20
47
11
199.45
21
47
0
LINE
8
0
10
199.45
20
47
11
199.45
21
29
0
LINE
8
0
10
199.45
20
29
11
181.45
21
29
0
LINE
8
0
10
181.45
20
29
11
181.45
21
47
0
LINE
8
0
10
181.45
20
66
11
199.45
21
66
0
LINE
8
0
10
199.45
20
66
11
199.45
21
48
0
LINE
8
0
10
199.45
20
48
11
181.45
21
48
0
LINE
8
0
10
181.45
20
48
11
181.45
21
66
0
LINE
8
0
10
181.45
20
85
11
199.45
21
85
0
LINE
8
0
10
199.45
20
85
11
199.45
21
67
0
LINE
8
0
10
199.45
20
67
11
181.45
21
67
0
LINE
8
0
10
181.45
20
67
11
181.45
21
85
0
LINE
8
0
10
181.45
20
104
11
199.45
21
104
0
LINE
8
0
10
199.45
20
104
11
199.45
21
86
0
LINE
8
0
10
199.45
20
86
11
181.45
21
86
0
LINE
8
0
10
181.45
20
86
11
181.45
21
104
0
LINE
8
0
10
190.925
20
28
11
208.925
21
28
0
LINE
8
0
10
208.925
20
28
11
208.925
21
10
0
LINE
8
0
10
208.925
20
10
11
190.925
21
10
0
LINE
8
0
10
190.925
20
10
11
190.925
21
28
0
LINE
8
0
10
200.45
20
47
11
218.45
21
47
0
LINE
8
0
10
218.45
20
47
11
218.45
21
29
0
LINE
8
0
10
218.45
20
29
11
200.45
21
29
0
LINE
8
0
10
200.45
20
29
11
200.45
21
47
0
LINE
8
0
10
200.45
20
66
11
218.45
21
66
0
LINE
8
0
10
218.45
20
66
11
218.45
21
48
0
LINE
8
0
10
218.45
20
48
11
200.45
21
48
0
LINE
8
0
10
200.45
20
48
11
200.45
21
66
0
LINE
8
0
10
200.45
20
85
11
218.45
21
85
0
LINE
8
0
10
218.45
20
85
11
218.45
21
67
0
LINE
8
0
10
218.45
20
67
11
200.45
21
67
0
LINE
8
0
10
200.45
20
67
11
200.45
21
85
0
LINE
8
0
10
200.45
20
104
11
218.45
21
104
0
LINE
8
0
10
218.45
20
104
11
218.45
21
86
0
LINE
8
0
10
218.45
20
86
11
200.45
21
86
0
LINE
8
0
10
200.45
20
86
11
200.45
21
104
0
LINE
8
0
10
200.4
20
9
11
218.4
21
9
0
LINE
8
0
10
218.4
20
9
11
218.4
21
-9
0
LINE
8
0
10
218.4
20
-9
11
200.4
21
-9
0
LINE
8
0
10
200.4
20
-9
11
200.4
21
9
0
LINE
8
0
10
209.925
20
28
11
227.925
21
28
0
LINE
8
0
10
227.925
20
28
11
227.925
21
10
0
LINE
8
0
10
227.925
20
10
11
209.925
21
10
0
LINE
8
0
10
209.925
20
10
11
209.925
21
28
0
LINE
8
0
10
219.45
20
47
11
237.45
21
47
0
LINE
8
0
10
237.45
20
47
11
237.45
21
29
0
LINE
8
0
10
237.45
20
29
11
219.45
21
29
0
LINE
8
0
10
219.45
20
29
11
219.45
21
47
0
LINE
8
0
10
219.45
20
66
11
237.45
21
66
0
LINE
8
0
10
237.45
20
66
11
237.45
21
48
0
LINE
8
0
10
237.45
20
48
11
219.45
21
48
0
LINE
8
0
10
219.45
20
48
11
219.45
21
66
0
LINE
8
0
10
219.45
20
85
11
237.45
21
85
0
LINE
8
0
10
237.45
20
85
11
237.45
21
67
0
LINE
8
0
10
237.45
20
67
11
219.45
21
67
0
LINE
8
0
10
219.45
20
67
11
219.45
21
85
0
LINE
8
0
10
219.45
20
104
11
237.45
21
104
0
LINE
8
0
10
237.45
20
104
11
237.45
21
86
0
LINE
8
0
10
237.45
20
86
11
219.45
21
86
0
LINE
8
0
10
219.45
20
86
11
219.45
21
104
0
LINE
8
0
10
219.4
20
9
11
237.4
21
9
0
LINE
8
0
10
237.4
20
9
11
237.4
21
-9
0
LINE
8
0
10
237.4
20
-9
11
219.4
21
-9
0
LINE
8
0
10
219.4
20
-9
11
219.4
21
9
0
LINE
8
0
10
228.925
20
28
11
246.925
21
28
0
LINE
8
0
10
246.925
20
28
11
246.925
21
10
0
LINE
8
0
10
246.925
20
10
11
228.925
21
10
0
LINE
8
0
10
228.925
20
10
11
228.925
21
28
0
LINE
8
0
10
238.45
20
47
11
256.45
21
47
0
LINE
8
0
10
256.45
20
47
11
256.45
21
29
0
LINE
8
0
10
256.45
20
29
11
238.45
21
29
0
LINE
8
0
10
238.45
20
29
11
238.45
21
47
0
LINE
8
0
10
238.45
20
66
11
256.45
21
66
0
LINE
8
0
10
256.45
20
66
11
256.45
21
48
0
LINE
8
0
10
256.45
20
48
11
238.45
21
48
0
LINE
8
0
10
238.45
20
48
11
238.45
21
66
0
LINE
8
0
10
238.45
20
85
11
256.45
21
85
0
LINE
8
0
10
256.45
20
85
11
256.45
21
67
0
LINE
8
0
10
256.45
20
67
11
238.45
21
67
0
LINE
8
0
10
238.45
20
67
11
238.45
21
85
0
LINE
8
0
10
238.4
20
9
11
256.4
21
9
0
LINE
8
0
10
256.4
20
9
11
256.4
21
-9
0
LINE
8
0
10
256.4
20
-9
11
238.4
21
-9
0
LINE
8
0
10
238.4
20
-9
11
238.4
21
9
0
LINE
8
0
10
247.45
20
28
11
285.45
21
28
0
LINE
8
0
10
285.45
20
28
11
285.45
21
10
0
LINE
8
0
10
285.45
20
10
11
247.45
21
10
0
LINE
8
0
10
247.45
20
10
11
247.45
21
28
0
LINE
8
0
10
257.45
20
47
11
275.45
21
47
0
LINE
8
0
10
275.45
20
47
11
275.45
21
29
0
LINE
8
0
10
275.45
20
29
11
257.45
21
29
0
LINE
8
0
10
257.45
20
29
11
257.45
21
47
0
LINE
8
0
10
257.45
20
66
11
275.45
21
66
0
LINE
8
0
10
275.45
20
66
11
275.45
21
48
0
LINE
8
0
10
275.45
20
48
11
257.45
21
48
0
LINE
8
0
10
257.45
20
48
11
257.45
21
66
0
LINE
8
0
10
257.45
20
85
11
275.45
21
85
0
LINE
8
0
10
275.45
20
85
11
275.45
21
67
0
LINE
8
0
10
275.45
20
67
11
257.45
21
67
0
LINE
8
0
10
257.45
20
67
11
257.45
21
85
0
LINE
8
0
10
257.45
20
104
11
275.45
21
104
0
LINE
8
0
10
275.45
20
104
11
275.45
21
86
0
LINE
8
0
10
275.45
20
86
11
257.45
21
86
0
LINE
8
0
10
257.45
20
86
11
257.45
21
104
0
LINE
8
0
10
257.4
20
9
11
275.4
21
9
0
LINE
8
0
10
275.4
20
9
11
275.4
21
-9
0
LINE
8
0
10
275.4
20
-9
11
257.4
21
-9
0
LINE
8
0
10
257.4
20
-9
11
257.4
21
9
0
LINE
8
0
10
275.975
20
47
11
313.975
21
47
0
LINE
8
0
10
313.975
20
47
11
313.975
21
29
0
LINE
8
0
10
313.975
20
29
11
275.975
21
29
0
LINE
8
0
10
275.975
20
29
11
275.975
21
47
0
LINE
8
0
10
276.45
20
66
11
294.45
21
66
0
LINE
8
0
10
294.45
20
66
11
294.45
21
48
0
LINE
8
0
10
294.45
20
48
11
276.45
21
48
0
LINE
8
0
10
276.45
20
48
11
276.45
21
66
0
LINE
8
0
10
276.45
20
85
11
294.45
21
85
0
LINE
8
0
10
294.45
20
85
11
294.45
21
67
0
LINE
8
0
10
294.45
20
67
11
276.45
21
67
0
LINE
8
0
10
276.45
20
67
11
276.45
21
85
0
LINE
8
0
10
276.45
20
104
11
294.45
21
104
0
LINE
8
0
10
294.45
20
104
11
294.45
21
86
0
LINE
8
0
10
294.45
20
86
11
276.45
21
86
0
LINE
8
0
10
276.45
20
86
11
276.45
21
104
0
LINE
8
0
10
295.45
20
66
11
313.45
21
66
0
LINE
8
0
10
313.45
20
66
11
313.45
21
48
0
LINE
8
0
10
313.45
20
48
11
295.45
21
48
0
LINE
8
0
10
295.45
20
48
11
295.45
21
66
0
LINE
8
0
10
294.975
20
85
11
332.975
21
85
0
LINE
8
0
10
332.975
20
85
11
332.975
21
67
0
LINE
8
0
10
332.975
20
67
11
294.975
21
67
0
LINE
8
0
10
294.975
20
67
11
294.975
21
85
0
LINE
8
0
10
295.45
20
104
11
313.45
21
104
0
LINE
8
0
10
313.45
20
104
11
313.45
21
86
0
LINE
8
0
10
313.45
20
86
11
295.45
21
86
0
LINE
8
0
10
295.45
20
86
11
295.45
21
104
0
LINE
8
0
10
314.45
20
104
11
332.45
21
104
0
LINE
8
0
10
332.45
20
104
11
332.45
21
86
0
LINE
8
0
10
332.45
20
86
11
314.45
21
86
0
LINE
8
0
10
314.45
20
86
11
314.45
21
104
0
LINE
8
0
10
320.6470779
20
0
11
333.375
21
12.7279221
0
LINE
8
0
10
333.375
20
12.7279221
11
346.1029221
21
0
0
LINE
8
0
10
346.1029221
20
0
11
333.375
21
-12.7279221
0
LINE
8
0
10
333.375
20
-12.7279221
11
320.6470779
21
0
0
LINE
8
0
10
307.2120491
20
13.4350288
11
319.9399712
21
26.1629509
0
LINE
8
0
10
319.9399712
20
26.1629509
11
332.6678933
21
13.4350288
0
LINE
8
0
10
332.6678933
20
13.4350288
11
319.9399712
21
0.7071067
0
LINE
8
0
10
319.9399712
20
0.7071067
11
307.2120491
21
13.4350288
0
LINE
8
0
10
334.0821067
20
13.4350288
11
346.8100288
21
26.1629509
0
LINE
8
0
10
346.8100288
20
26.1629509
11
359.5379509
21
13.4350288
0
LINE
8
0
10
359.5379509
20
13.4350288
11
346.8100288
21
0.7071067
0
LINE
8
0
10
346.8100288
20
0.7071067
11
334.0821067
21
13.4350288
0
LINE
8
0
10
320.6470779
20
26.8700576
11
333.375
21
39.5979797
0
LINE
8
0
10
333.375
20
39.5979797
11
346.1029221
21
26.8700576
0
LINE
8
0
10
346.1029221
20
26.8700576
11
333.375
21
14.1421355
0
LINE
8
0
10
333.375
20
14.1421355
11
320.6470779
21
26.8700576
0
LINE
8
0
10
359.6758366
20
39.0287587
11
372.4037587
21
51.7566808
0
LINE
8
0
10
372.4037587
20
51.7566808
11
385.1316808
21
39.0287587
0
LINE
8
0
10
385.1316808
20
39.0287587
11
372.4037587
21
26.3008366
0
LINE
8
0
10
372.4037587
20
26.3008366
11
359.6758366
21
39.0287587
0
LINE
8
0
10
346.2408078
20
52.4637875
11
358.9687299
21
65.1917096
0
LINE
8
0
10
358.9687299
20
65.1917096
11
371.696652
21
52.4637875
0
LINE
8
0
10
371.696652
20
52.4637875
11
358.9687299
21
39.7358654
0
LINE
8
0
10
358.9687299
20
39.7358654
11
346.2408078
21
52.4637875
0
LINE
8
0
10
373.1108654
20
52.4637875
11
385.8387875
21
65.1917096
0
LINE
8
0
10
385.8387875
20
65.1917096
11
398.5667096
21
52.4637875
0
LINE
8
0
10
398.5667096
20
52.4637875
11
385.8387875
21
39.7358654
0
LINE
8
0
10
385.8387875
20
39.7358654
11
373.1108654
21
52.4637875
0
LINE
8
0
10
359.6758366
20
65.8988163
11
372.4037587
21
78.6267384
0
LINE
8
0
10
372.4037587
20
78.6267384
11
385.1316808
21
65.8988163
0
LINE
8
0
10
385.1316808
20
65.8988163
11
372.4037587
21
53.1708942
0
LINE
8
0
10
372.4037587
20
53.1708942
11
359.6758366
21
65.8988163
0
LINE
8
0
10
343.025
20
104
11
361.025
21
104
0
LINE
8
0
10
361.025
20
104
11
361.025
21
86
0
LINE
8
0
10
361.025
20
86
11
343.025
21
86
0
LINE
8
0
10
343.025
20
86
11
343.025
21
104
0
LINE
8
0
10
362.025
20
104
11
380.025
21
104
0
LINE
8
0
10
380.025
20
104
11
380.025
21
86
0
LINE
8
0
10
380.025
20
86
11
362.025
21
86
0
LINE
8
0
10
362.025
20
86
11
362.025
21
104
0
LINE
8
0
10
381.025
20
104
11
399.025
21
104
0
LINE
8
0
10
399.025
20
104
11
399.025
21
86
0
LINE
8
0
10
399.025
20
86
11
381.025
21
86
0
LINE
8
0
10
381.025
20
86
11
381.025
21
104
0
ENDSEC
0
EOF