0
SECTION
2
HEADER
9
$INSUNITS
70
4
0
ENDSEC
0
SECTION
2
TABLES
0
TABLE
2
LTYPE
0
LTYPE
72
65
70
64
2
CONTINUOUS
3
______
73
0
40
0
0
ENDTAB
0
TABLE
2
LAYER
0
ENDTAB
0
ENDSEC
0
SECTION
2
ENTITIES
0
LINE
8
0
10
-9
20
9
11
9
21
9
0
LINE
8
0
10
9
20
9
11
9
21
-9
0
LINE
8
0
10
9
20
-9
11
-9
21
-9
0
LINE
8
0
10
-9
20
-9
11
-9
21
9
0
LINE
8
0
10
-9
20
28
11
9
21
28
0
LINE
8
0
10
9
20
28
11
9
21
10
0
LINE
8
0
10
9
20
10
11
-9
21
10
0
LINE
8
0
10
-9
20
10
11
-9
21
28
0
LINE
8
0
10
-9
20
47
11
9
21
47
0
LINE
8
0
10
9
20
47
11
9
21
29
0
LINE
8
0
10
9
20
29
11
-9
21
29
0
LINE
8
0
10
-9
20
29
11
-9
21
47
0
LINE
8
0
10
-9
20
66
11
9
21
66
0
LINE
8
0
10
9
20
66
11
9
21
48
0
LINE
8
0
10
9
20
48
11
-9
21
48
0
LINE
8
0
10
-9
20
48
11
-9
21
66
0
LINE
8
0
10
-9
20
85
11
9
21
85
0
LINE
8
0
10
9
20
85
11
9
21
67
0
LINE
8
0
10
9
20
67
11
-9
21
67
0
LINE
8
0
10
-9
20
67
11
-9
21
85
0
LINE
8
0
10
-9
20
104
11
9
21
104
0
LINE
8
0
10
9
20
104
11
9
21
86
0
LINE
8
0
10
9
20
86
11
-9
21
86
0
LINE
8
0
10
-9
20
86
11
-9
21
104
0
LINE
8
0
10
10
20
9
11
28
21
9
0
LINE
8
0
10
28
20
9
11
28
21
-9
0
LINE
8
0
10
28
20
-9
11
10
21
-9
0
LINE
8
0
10
10
20
-9
11
10
21
9
0
LINE
8
0
10
10
20
28
11
28
21
28
0
LINE
8
0
10
28
20
28
11
28
21
10
0
LINE
8
0
10
28
20
10
11
10
21
10
0
LINE
8
0
10
10
20
10
11
10
21
28
0
LINE
8
0
10
10
20
47
11
28
21
47
0
LINE
8
0
10
28
20
47
11
28
21
29
0
LINE
8
0
10
28
20
29
11
10
21
29
0
LINE
8
0
10
10
20
29
11
10
21
47
0
LINE
8
0
10
10
20
66
11
28
21
66
0
LINE
8
0
10
28
20
66
11
28
21
48
0
LINE
8
0
10
28
20
48
11
10
21
48
0
LINE
8
0
10
10
20
48
11
10
21
66
0
LINE
8
0
10
10
20
85
11
28
21
85
0
LINE
8
0
10
28
20
85
11
28
21
67
0
LINE
8
0
10
28
20
67
11
10
21
67
0
LINE
8
0
10
10
20
67
11
10
21
85
0
LINE
8
0
10
29
20
9
11
47
21
9
0
LINE
8
0
10
47
20
9
11
47
21
-9
0
LINE
8
0
10
47
20
-9
11
29
21
-9
0
LINE
8
0
10
29
20
-9
11
29
21
9
0
LINE
8
0
10
29
20
28
11
47
21
28
0
LINE
8
0
10
47
20
28
11
47
21
10
0
LINE
8
0
10
47
20
10
11
29
21
10
0
LINE
8
0
10
29
20
10
11
29
21
28
0
LINE
8
0
10
29
20
47
11
47
21
47
0
LINE
8
0
10
47
20
47
11
47
21
29
0
LINE
8
0
10
47
20
29
11
29
21
29
0
LINE
8
0
10
29
20
29
11
29
21
47
0
LINE
8
0
10
29
20
66
11
47
21
66
0
LINE
8
0
10
47
20
66
11
47
21
48
0
LINE
8
0
10
47
20
48
11
29
21
48
0
LINE
8
0
10
29
20
48
11
29
21
66
0
LINE
8
0
10
29
20
85
11
47
21
85
0
LINE
8
0
10
47
20
85
11
47
21
67
0
LINE
8
0
10
47
20
67
11
29
21
67
0
LINE
8
0
10
29
20
67
11
29
21
85
0
LINE
8
0
10
29
20
104
11
47
21
104
0
LINE
8
0
10
47
20
104
11
47
21
86
0
LINE
8
0
10
47
20
86
11
29
21
86
0
LINE
8
0
10
29
20
86
11
29
21
104
0
LINE
8
0
10
48
20
9
11
66
21
9
0
LINE
8
0
10
66
20
9
11
66
21
-9
0
LINE
8
0
10
66
20
-9
11
48
21
-9
0
LINE
8
0
10
48
20
-9
11
48
21
9
0
LINE
8
0
10
48
20
28
11
66
21
28
0
LINE
8
0
10
66
20
28
11
66
21
10
0
LINE
8
0
10
66
20
10
11
48
21
10
0
LINE
8
0
10
48
20
10
11
48
21
28
0
LINE
8
0
10
48
20
47
11
66
21
47
0
LINE
8
0
10
66
20
47
11
66
21
29
0
LINE
8
0
10
66
20
29
11
48
21
29
0
LINE
8
0
10
48
20
29
11
48
21
47
0
LINE
8
0
10
48
20
66
11
66
21
66
0
LINE
8
0
10
66
20
66
11
66
21
48
0
LINE
8
0
10
66
20
48
11
48
21
48
0
LINE
8
0
10
48
20
48
11
48
21
66
0
LINE
8
0
10
48
20
85
11
66
21
85
0
LINE
8
0
10
66
20
85
11
66
21
67
0
LINE
8
0
10
66
20
67
11
48
21
67
0
LINE
8
0
10
48
20
67
11
48
21
85
0
LINE
8
0
10
48
20
104
11
66
21
104
0
LINE
8
0
10
66
20
104
11
66
21
86
0
LINE
8
0
10
66
20
86
11
48
21
86
0
LINE
8
0
10
48
20
86
11
48
21
104
0
LINE
8
0
10
67
20
9
11
85
21
9
0
LINE
8
0
10
85
20
9
11
85
21
-9
0
LINE
8
0
10
85
20
-9
11
67
21
-9
0
LINE
8
0
10
67
20
-9
11
67
21
9
0
LINE
8
0
10
67
20
28
11
85
21
28
0
LINE
8
0
10
85
20
28
11
85
21
10
0
LINE
8
0
10
85
20
10
11
67
21
10
0
LINE
8
0
10
67
20
10
11
67
21
28
0
LINE
8
0
10
67
20
47
11
85
21
47
0
LINE
8
0
10
85
20
47
11
85
21
29
0
LINE
8
0
10
85
20
29
11
67
21
29
0
LINE
8
0
10
67
20
29
11
67
21
47
0
LINE
8
0
10
67
20
66
11
85
21
66
0
LINE
8
0
10
85
20
66
11
85
21
48
0
LINE
8
0
10
85
20
48
11
67
21
48
0
LINE
8
0
10
67
20
48
11
67
21
66
0
LINE
8
0
10
67
20
85
11
85
21
85
0
LINE
8
0
10
85
20
85
11
85
21
67
0
LINE
8
0
10
85
20
67
11
67
21
67
0
LINE
8
0
10
67
20
67
11
67
21
85
0
LINE
8
0
10
67
20
104
11
85
21
104
0
LINE
8
0
10
85
20
104
11
85
21
86
0
LINE
8
0
10
85
20
86
11
67
21
86
0
LINE
8
0
10
67
20
86
11
67
21
104
0
LINE
8
0
10
86
20
9
11
104
21
9
0
LINE
8
0
10
104
20
9
11
104
21
-9
0
LINE
8
0
10
104
20
-9
11
86
21
-9
0
LINE
8
0
10
86
20
-9
11
86
21
9
0
LINE
8
0
10
86
20
28
11
104
21
28
0
LINE
8
0
10
104
20
28
11
104
21
10
0
LINE
8
0
10
104
20
10
11
86
21
10
0
LINE
8
0
10
86
20
10
11
86
21
28
0
LINE
8
0
10
86
20
47
11
104
21
47
0
LINE
8
0
10
104
20
47
11
104
21
29
0
LINE
8
0
10
104
20
29
11
86
21
29
0
LINE
8
0
10
86
20
29
11
86
21
47
0
LINE
8
0
10
86
20
66
11
104
21
66
0
LINE
8
0
10
104
20
66
11
104
21
48
0
LINE
8
0
10
104
20
48
11
86
21
48
0
LINE
8
0
10
86
20
48
11
86
21
66
0
LINE
8
0
10
86
20
85
11
104
21
85
0
LINE
8
0
10
104
20
85
11
104
21
67
0
LINE
8
0
10
104
20
67
11
86
21
67
0
LINE
8
0
10
86
20
67
11
86
21
85
0
LINE
8
0
10
86
20
104
11
104
21
104
0
LINE
8
0
10
104
20
104
11
104
21
86
0
LINE
8
0
10
104
20
86
11
86
21
86
0
LINE
8
0
10
86
20
86
11
86
21
104
0
ENDSEC
0
EOF