0
SECTION
2
HEADER
9
$INSUNITS
70
4
0
ENDSEC
0
SECTION
2
TABLES
0
TABLE
2
LTYPE
0
LTYPE
72
65
70
64
2
CONTINUOUS
3
______
73
0
40
0
0
ENDTAB
0
TABLE
2
LAYER
0
ENDTAB
0
ENDSEC
0
SECTION
2
ENTITIES
0
LINE
8
0
10
-9
20
9
11
9
21
9
0
LINE
8
0
10
9
20
9
11
9
21
-9
0
LINE
8
0
10
9
20
-9
11
-9
21
-9
0
LINE
8
0
10
-9
20
-9
11
-9
21
9
0
LINE
8
0
10
-19.05
20
28.05
11
19.05
21
28.05
0
LINE
8
0
10
19.05
20
28.05
11
19.05
21
10.05
0
LINE
8
0
10
19.05
20
10.05
11
-19.05
21
10.05
0
LINE
8
0
10
-19.05
20
10.05
11
-19.05
21
28.05
0
LINE
8
0
10
-19.05
20
47.1
11
19.05
21
47.1
0
LINE
8
0
10
19.05
20
47.1
11
19.05
21
29.1
0
LINE
8
0
10
19.05
20
29.1
11
-19.05
21
29.1
0
LINE
8
0
10
-19.05
20
29.1
11
-19.05
21
47.1
0
LINE
8
0
10
-19.05
20
66.15
11
19.05
21
66.15
0
LINE
8
0
10
19.05
20
66.15
11
19.05
21
48.15
0
LINE
8
0
10
19.05
20
48.15
11
-19.05
21
48.15
0
LINE
8
0
10
-19.05
20
48.15
11
-19.05
21
66.15
0
LINE
8
0
10
-9
20
85.2
11
9
21
85.2
0
LINE
8
0
10
9
20
85.2
11
9
21
67.2
0
LINE
8
0
10
9
20
67.2
11
-9
21
67.2
0
LINE
8
0
10
-9
20
67.2
11
-9
21
85.2
0
LINE
8
0
10
-9
20
104.25
11
9
21
104.25
0
LINE
8
0
10
9
20
104.25
11
9
21
86.25
0
LINE
8
0
10
9
20
86.25
11
-9
21
86.25
0
LINE
8
0
10
-9
20
86.25
11
-9
21
104.25
0
LINE
8
0
10
10.05
20
9
11
28.05
21
9
0
LINE
8
0
10
28.05
20
9
11
28.05
21
-9
0
LINE
8
0
10
28.05
20
-9
11
10.05
21
-9
0
LINE
8
0
10
10.05
20
-9
11
10.05
21
9
0
LINE
8
0
10
19.575
20
28.05
11
37.575
21
28.05
0
LINE
8
0
10
37.575
20
28.05
11
37.575
21
10.05
0
LINE
8
0
10
37.575
20
10.05
11
19.575
21
10.05
0
LINE
8
0
10
19.575
20
10.05
11
19.575
21
28.05
0
LINE
8
0
10
19.575
20
47.1
11
37.575
21
47.1
0
LINE
8
0
10
37.575
20
47.1
11
37.575
21
29.1
0
LINE
8
0
10
37.575
20
29.1
11
19.575
21
29.1
0
LINE
8
0
10
19.575
20
29.1
11
19.575
21
47.1
0
LINE
8
0
10
19.575
20
66.15
11
37.575
21
66.15
0
LINE
8
0
10
37.575
20
66.15
11
37.575
21
48.15
0
LINE
8
0
10
37.575
20
48.15
11
19.575
21
48.15
0
LINE
8
0
10
19.575
20
48.15
11
19.575
21
66.15
0
LINE
8
0
10
10.05
20
85.2
11
28.05
21
85.2
0
LINE
8
0
10
28.05
20
85.2
11
28.05
21
67.2
0
LINE
8
0
10
28.05
20
67.2
11
10.05
21
67.2
0
LINE
8
0
10
10.05
20
67.2
11
10.05
21
85.2
0
LINE
8
0
10
29.1
20
9
11
47.1
21
9
0
LINE
8
0
10
47.1
20
9
11
47.1
21
-9
0
LINE
8
0
10
47.1
20
-9
11
29.1
21
-9
0
LINE
8
0
10
29.1
20
-9
11
29.1
21
9
0
LINE
8
0
10
29.1
20
28.05
11
47.1
21
28.05
0
LINE
8
0
10
47.1
20
28.05
11
47.1
21
10.05
0
LINE
8
0
10
47.1
20
10.05
11
29.1
21
10.05
0
LINE
8
0
10
29.1
20
10.05
11
29.1
21
28.05
0
LINE
8
0
10
29.1
20
47.1
11
47.1
21
47.1
0
LINE
8
0
10
47.1
20
47.1
11
47.1
21
29.1
0
LINE
8
0
10
47.1
20
29.1
11
29.1
21
29.1
0
LINE
8
0
10
29.1
20
29.1
11
29.1
21
47.1
0
LINE
8
0
10
29.1
20
66.15
11
47.1
21
66.15
0
LINE
8
0
10
47.1
20
66.15
11
47.1
21
48.15
0
LINE
8
0
10
47.1
20
48.15
11
29.1
21
48.15
0
LINE
8
0
10
29.1
20
48.15
11
29.1
21
66.15
0
LINE
8
0
10
29.1
20
85.2
11
47.1
21
85.2
0
LINE
8
0
10
47.1
20
85.2
11
47.1
21
67.2
0
LINE
8
0
10
47.1
20
67.2
11
29.1
21
67.2
0
LINE
8
0
10
29.1
20
67.2
11
29.1
21
85.2
0
LINE
8
0
10
29.1
20
104.25
11
47.1
21
104.25
0
LINE
8
0
10
47.1
20
104.25
11
47.1
21
86.25
0
LINE
8
0
10
47.1
20
86.25
11
29.1
21
86.25
0
LINE
8
0
10
29.1
20
86.25
11
29.1
21
104.25
0
LINE
8
0
10
48.15
20
9
11
66.15
21
9
0
LINE
8
0
10
66.15
20
9
11
66.15
21
-9
0
LINE
8
0
10
66.15
20
-9
11
48.15
21
-9
0
LINE
8
0
10
48.15
20
-9
11
48.15
21
9
0
LINE
8
0
10
48.15
20
28.05
11
66.15
21
28.05
0
LINE
8
0
10
66.15
20
28.05
11
66.15
21
10.05
0
LINE
8
0
10
66.15
20
10.05
11
48.15
21
10.05
0
LINE
8
0
10
48.15
20
10.05
11
48.15
21
28.05
0
LINE
8
0
10
48.15
20
47.1
11
66.15
21
47.1
0
LINE
8
0
10
66.15
20
47.1
11
66.15
21
29.1
0
LINE
8
0
10
66.15
20
29.1
11
48.15
21
29.1
0
LINE
8
0
10
48.15
20
29.1
11
48.15
21
47.1
0
LINE
8
0
10
48.15
20
66.15
11
66.15
21
66.15
0
LINE
8
0
10
66.15
20
66.15
11
66.15
21
48.15
0
LINE
8
0
10
66.15
20
48.15
11
48.15
21
48.15
0
LINE
8
0
10
48.15
20
48.15
11
48.15
21
66.15
0
LINE
8
0
10
48.15
20
85.2
11
66.15
21
85.2
0
LINE
8
0
10
66.15
20
85.2
11
66.15
21
67.2
0
LINE
8
0
10
66.15
20
67.2
11
48.15
21
67.2
0
LINE
8
0
10
48.15
20
67.2
11
48.15
21
85.2
0
LINE
8
0
10
48.15
20
104.25
11
66.15
21
104.25
0
LINE
8
0
10
66.15
20
104.25
11
66.15
21
86.25
0
LINE
8
0
10
66.15
20
86.25
11
48.15
21
86.25
0
LINE
8
0
10
48.15
20
86.25
11
48.15
21
104.25
0
LINE
8
0
10
66.675
20
9
11
123.825
21
9
0
LINE
8
0
10
123.825
20
9
11
123.825
21
-9
0
LINE
8
0
10
123.825
20
-9
11
66.675
21
-9
0
LINE
8
0
10
66.675
20
-9
11
66.675
21
9
0
LINE
8
0
10
67.2
20
28.05
11
85.2
21
28.05
0
LINE
8
0
10
85.2
20
28.05
11
85.2
21
10.05
0
LINE
8
0
10
85.2
20
10.05
11
67.2
21
10.05
0
LINE
8
0
10
67.2
20
10.05
11
67.2
21
28.05
0
LINE
8
0
10
67.2
20
47.1
11
85.2
21
47.1
0
LINE
8
0
10
85.2
20
47.1
11
85.2
21
29.1
0
LINE
8
0
10
85.2
20
29.1
11
67.2
21
29.1
0
LINE
8
0
10
67.2
20
29.1
11
67.2
21
47.1
0
LINE
8
0
10
67.2
20
66.15
11
85.2
21
66.15
0
LINE
8
0
10
85.2
20
66.15
11
85.2
21
48.15
0
LINE
8
0
10
85.2
20
48.15
11
67.2
21
48.15
0
LINE
8
0
10
67.2
20
48.15
11
67.2
21
66.15
0
LINE
8
0
10
67.2
20
85.2
11
85.2
21
85.2
0
LINE
8
0
10
85.2
20
85.2
11
85.2
21
67.2
0
LINE
8
0
10
85.2
20
67.2
11
67.2
21
67.2
0
LINE
8
0
10
67.2
20
67.2
11
67.2
21
85.2
0
LINE
8
0
10
67.2
20
104.25
11
85.2
21
104.25
0
LINE
8
0
10
85.2
20
104.25
11
85.2
21
86.25
0
LINE
8
0
10
85.2
20
86.25
11
67.2
21
86.25
0
LINE
8
0
10
67.2
20
86.25
11
67.2
21
104.25
0
LINE
8
0
10
86.25
20
28.05
11
104.25
21
28.05
0
LINE
8
0
10
104.25
20
28.05
11
104.25
21
10.05
0
LINE
8
0
10
104.25
20
10.05
11
86.25
21
10.05
0
LINE
8
0
10
86.25
20
10.05
11
86.25
21
28.05
0
LINE
8
0
10
86.25
20
47.1
11
104.25
21
47.1
0
LINE
8
0
10
104.25
20
47.1
11
104.25
21
29.1
0
LINE
8
0
10
104.25
20
29.1
11
86.25
21
29.1
0
LINE
8
0
10
86.25
20
29.1
11
86.25
21
47.1
0
LINE
8
0
10
86.25
20
66.15
11
104.25
21
66.15
0
LINE
8
0
10
104.25
20
66.15
11
104.25
21
48.15
0
LINE
8
0
10
104.25
20
48.15
11
86.25
21
48.15
0
LINE
8
0
10
86.25
20
48.15
11
86.25
21
66.15
0
LINE
8
0
10
86.25
20
85.2
11
104.25
21
85.2
0
LINE
8
0
10
104.25
20
85.2
11
104.25
21
67.2
0
LINE
8
0
10
104.25
20
67.2
11
86.25
21
67.2
0
LINE
8
0
10
86.25
20
67.2
11
86.25
21
85.2
0
LINE
8
0
10
86.25
20
104.25
11
104.25
21
104.25
0
LINE
8
0
10
104.25
20
104.25
11
104.25
21
86.25
0
LINE
8
0
10
104.25
20
86.25
11
86.25
21
86.25
0
LINE
8
0
10
86.25
20
86.25
11
86.25
21
104.25
0
LINE
8
0
10
143.4
20
9
11
161.4
21
9
0
LINE
8
0
10
161.4
20
9
11
161.4
21
-9
0
LINE
8
0
10
161.4
20
-9
11
143.4
21
-9
0
LINE
8
0
10
143.4
20
-9
11
143.4
21
9
0
LINE
8
0
10
143.4
20
28
11
161.4
21
28
0
LINE
8
0
10
161.4
20
28
11
161.4
21
10
0
LINE
8
0
10
161.4
20
10
11
143.4
21
10
0
LINE
8
0
10
143.4
20
10
11
143.4
21
28
0
LINE
8
0
10
143.4
20
47
11
161.4
21
47
0
LINE
8
0
10
161.4
20
47
11
161.4
21
29
0
LINE
8
0
10
161.4
20
29
11
143.4
21
29
0
LINE
8
0
10
143.4
20
29
11
143.4
21
47
0
LINE
8
0
10
143.4
20
66
11
161.4
21
66
0
LINE
8
0
10
161.4
20
66
11
161.4
21
48
0
LINE
8
0
10
161.4
20
48
11
143.4
21
48
0
LINE
8
0
10
143.4
20
48
11
143.4
21
66
0
LINE
8
0
10
143.4
20
85
11
161.4
21
85
0
LINE
8
0
10
161.4
20
85
11
161.4
21
67
0
LINE
8
0
10
161.4
20
67
11
143.4
21
67
0
LINE
8
0
10
143.4
20
67
11
143.4
21
85
0
LINE
8
0
10
143.4
20
104
11
161.4
21
104
0
LINE
8
0
10
161.4
20
104
11
161.4
21
86
0
LINE
8
0
10
161.4
20
86
11
143.4
21
86
0
LINE
8
0
10
143.4
20
86
11
143.4
21
104
0
LINE
8
0
10
162.4
20
9
11
180.4
21
9
0
LINE
8
0
10
180.4
20
9
11
180.4
21
-9
0
LINE
8
0
10
180.4
20
-9
11
162.4
21
-9
0
LINE
8
0
10
162.4
20
-9
11
162.4
21
9
0
LINE
8
0
10
162.4
20
28
11
180.4
21
28
0
LINE
8
0
10
180.4
20
28
11
180.4
21
10
0
LINE
8
0
10
180.4
20
10
11
162.4
21
10
0
LINE
8
0
10
162.4
20
10
11
162.4
21
28
0
LINE
8
0
10
162.4
20
47
11
180.4
21
47
0
LINE
8
0
10
180.4
20
47
11
180.4
21
29
0
LINE
8
0
10
180.4
20
29
11
162.4
21
29
0
LINE
8
0
10
162.4
20
29
11
162.4
21
47
0
LINE
8
0
10
162.4
20
66
11
180.4
21
66
0
LINE
8
0
10
180.4
20
66
11
180.4
21
48
0
LINE
8
0
10
180.4
20
48
11
162.4
21
48
0
LINE
8
0
10
162.4
20
48
11
162.4
21
66
0
LINE
8
0
10
162.4
20
85
11
180.4
21
85
0
LINE
8
0
10
180.4
20
85
11
180.4
21
67
0
LINE
8
0
10
180.4
20
67
11
162.4
21
67
0
LINE
8
0
10
162.4
20
67
11
162.4
21
85
0
LINE
8
0
10
162.4
20
104
11
180.4
21
104
0
LINE
8
0
10
180.4
20
104
11
180.4
21
86
0
LINE
8
0
10
180.4
20
86
11
162.4
21
86
0
LINE
8
0
10
162.4
20
86
11
162.4
21
104
0
LINE
8
0
10
181.4
20
9
11
199.4
21
9
0
LINE
8
0
10
199.4
20
9
11
199.4
21
-9
0
LINE
8
0
10
199.4
20
-9
11
181.4
21
-9
0
LINE
8
0
10
181.4
20
-9
11
181.4
21
9
0
LINE
8
0
10
181.4
20
28
11
199.4
21
28
0
LINE
8
0
10
199.4
20
28
11
199.4
21
10
0
LINE
8
0
10
199.4
20
10
11
181.4
21
10
0
LINE
8
0
10
181.4
20
10
11
181.4
21
28
0
LINE
8
0
10
181.4
20
47
11
199.4
21
47
0
LINE
8
0
10
199.4
20
47
11
199.4
21
29
0
LINE
8
0
10
199.4
20
29
11
181.4
21
29
0
LINE
8
0
10
181.4
20
29
11
181.4
21
47
0
LINE
8
0
10
181.4
20
66
11
199.4
21
66
0
LINE
8
0
10
199.4
20
66
11
199.4
21
48
0
LINE
8
0
10
199.4
20
48
11
181.4
21
48
0
LINE
8
0
10
181.4
20
48
11
181.4
21
66
0
LINE
8
0
10
181.4
20
85
11
199.4
21
85
0
LINE
8
0
10
199.4
20
85
11
199.4
21
67
0
LINE
8
0
10
199.4
20
67
11
181.4
21
67
0
LINE
8
0
10
181.4
20
67
11
181.4
21
85
0
LINE
8
0
10
181.4
20
104
11
199.4
21
104
0
LINE
8
0
10
199.4
20
104
11
199.4
21
86
0
LINE
8
0
10
199.4
20
86
11
181.4
21
86
0
LINE
8
0
10
181.4
20
86
11
181.4
21
104
0
LINE
8
0
10
200.4
20
9
11
218.4
21
9
0
LINE
8
0
10
218.4
20
9
11
218.4
21
-9
0
LINE
8
0
10
218.4
20
-9
11
200.4
21
-9
0
LINE
8
0
10
200.4
20
-9
11
200.4
21
9
0
LINE
8
0
10
200.4
20
28
11
218.4
21
28
0
LINE
8
0
10
218.4
20
28
11
218.4
21
10
0
LINE
8
0
10
218.4
20
10
11
200.4
21
10
0
LINE
8
0
10
200.4
20
10
11
200.4
21
28
0
LINE
8
0
10
200.4
20
47
11
218.4
21
47
0
LINE
8
0
10
218.4
20
47
11
218.4
21
29
0
LINE
8
0
10
218.4
20
29
11
200.4
21
29
0
LINE
8
0
10
200.4
20
29
11
200.4
21
47
0
LINE
8
0
10
200.4
20
66
11
218.4
21
66
0
LINE
8
0
10
218.4
20
66
11
218.4
21
48
0
LINE
8
0
10
218.4
20
48
11
200.4
21
48
0
LINE
8
0
10
200.4
20
48
11
200.4
21
66
0
LINE
8
0
10
200.4
20
85
11
218.4
21
85
0
LINE
8
0
10
218.4
20
85
11
218.4
21
67
0
LINE
8
0
10
218.4
20
67
11
200.4
21
67
0
LINE
8
0
10
200.4
20
67
11
200.4
21
85
0
LINE
8
0
10
200.4
20
104
11
218.4
21
104
0
LINE
8
0
10
218.4
20
104
11
218.4
21
86
0
LINE
8
0
10
218.4
20
86
11
200.4
21
86
0
LINE
8
0
10
200.4
20
86
11
200.4
21
104
0
LINE
8
0
10
219.4
20
9
11
237.4
21
9
0
LINE
8
0
10
237.4
20
9
11
237.4
21
-9
0
LINE
8
0
10
237.4
20
-9
11
219.4
21
-9
0
LINE
8
0
10
219.4
20
-9
11
219.4
21
9
0
LINE
8
0
10
219.4
20
28
11
237.4
21
28
0
LINE
8
0
10
237.4
20
28
11
237.4
21
10
0
LINE
8
0
10
237.4
20
10
11
219.4
21
10
0
LINE
8
0
10
219.4
20
10
11
219.4
21
28
0
LINE
8
0
10
219.4
20
47
11
237.4
21
47
0
LINE
8
0
10
237.4
20
47
11
237.4
21
29
0
LINE
8
0
10
237.4
20
29
11
219.4
21
29
0
LINE
8
0
10
219.4
20
29
11
219.4
21
47
0
LINE
8
0
10
219.4
20
66
11
237.4
21
66
0
LINE
8
0
10
237.4
20
66
11
237.4
21
48
0
LINE
8
0
10
237.4
20
48
11
219.4
21
48
0
LINE
8
0
10
219.4
20
48
11
219.4
21
66
0
LINE
8
0
10
219.4
20
85
11
237.4
21
85
0
LINE
8
0
10
237.4
20
85
11
237.4
21
67
0
LINE
8
0
10
237.4
20
67
11
219.4
21
67
0
LINE
8
0
10
219.4
20
67
11
219.4
21
85
0
LINE
8
0
10
238.4
20
9
11
256.4
21
9
0
LINE
8
0
10
256.4
20
9
11
256.4
21
-9
0
LINE
8
0
10
256.4
20
-9
11
238.4
21
-9
0
LINE
8
0
10
238.4
20
-9
11
238.4
21
9
0
LINE
8
0
10
238.4
20
28
11
256.4
21
28
0
LINE
8
0
10
256.4
20
28
11
256.4
21
10
0
LINE
8
0
10
256.4
20
10
11
238.4
21
10
0
LINE
8
0
10
238.4
20
10
11
238.4
21
28
0
LINE
8
0
10
238.4
20
47
11
256.4
21
47
0
LINE
8
0
10
256.4
20
47
11
256.4
21
29
0
LINE
8
0
10
256.4
20
29
11
238.4
21
29
0
LINE
8
0
10
238.4
20
29
11
238.4
21
47
0
LINE
8
0
10
238.4
20
66
11
256.4
21
66
0
LINE
8
0
10
256.4
20
66
11
256.4
21
48
0
LINE
8
0
10
256.4
20
48
11
238.4
21
48
0
LINE
8
0
10
238.4
20
48
11
238.4
21
66
0
LINE
8
0
10
238.4
20
85
11
256.4
21
85
0
LINE
8
0
10
256.4
20
85
11
256.4
21
67
0
LINE
8
0
10
256.4
20
67
11
238.4
21
67
0
LINE
8
0
10
238.4
20
67
11
238.4
21
85
0
LINE
8
0
10
238.4
20
104
11
256.4
21
104
0
LINE
8
0
10
256.4
20
104
11
256.4
21
86
0
LINE
8
0
10
256.4
20
86
11
238.4
21
86
0
LINE
8
0
10
238.4
20
86
11
238.4
21
104
0
LINE
8
0
10
257.4
20
9
11
275.4
21
9
0
LINE
8
0
10
275.4
20
9
11
275.4
21
-9
0
LINE
8
0
10
275.4
20
-9
11
257.4
21
-9
0
LINE
8
0
10
257.4
20
-9
11
257.4
21
9
0
LINE
8
0
10
257.4
20
28
11
275.4
21
28
0
LINE
8
0
10
275.4
20
28
11
275.4
21
10
0
LINE
8
0
10
275.4
20
10
11
257.4
21
10
0
LINE
8
0
10
257.4
20
10
11
257.4
21
28
0
LINE
8
0
10
257.4
20
47
11
275.4
21
47
0
LINE
8
0
10
275.4
20
47
11
275.4
21
29
0
LINE
8
0
10
275.4
20
29
11
257.4
21
29
0
LINE
8
0
10
257.4
20
29
11
257.4
21
47
0
LINE
8
0
10
257.4
20
66
11
275.4
21
66
0
LINE
8
0
10
275.4
20
66
11
275.4
21
48
0
LINE
8
0
10
275.4
20
48
11
257.4
21
48
0
LINE
8
0
10
257.4
20
48
11
257.4
21
66
0
LINE
8
0
10
257.4
20
85
11
275.4
21
85
0
LINE
8
0
10
275.4
20
85
11
275.4
21
67
0
LINE
8
0
10
275.4
20
67
11
257.4
21
67
0
LINE
8
0
10
257.4
20
67
11
257.4
21
85
0
LINE
8
0
10
257.4
20
104
11
275.4
21
104
0
LINE
8
0
10
275.4
20
104
11
275.4
21
86
0
LINE
8
0
10
275.4
20
86
11
257.4
21
86
0
LINE
8
0
10
257.4
20
86
11
257.4
21
104
0
LINE
8
0
10
276.4
20
9
11
294.4
21
9
0
LINE
8
0
10
294.4
20
9
11
294.4
21
-9
0
LINE
8
0
10
294.4
20
-9
11
276.4
21
-9
0
LINE
8
0
10
276.4
20
-9
11
276.4
21
9
0
LINE
8
0
10
276.4
20
28
11
294.4
21
28
0
LINE
8
0
10
294.4
20
28
11
294.4
21
10
0
LINE
8
0
10
294.4
20
10
11
276.4
21
10
0
LINE
8
0
10
276.4
20
10
11
276.4
21
28
0
LINE
8
0
10
276.4
20
47
11
294.4
21
47
0
LINE
8
0
10
294.4
20
47
11
294.4
21
29
0
LINE
8
0
10
294.4
20
29
11
276.4
21
29
0
LINE
8
0
10
276.4
20
29
11
276.4
21
47
0
LINE
8
0
10
276.4
20
66
11
294.4
21
66
0
LINE
8
0
10
294.4
20
66
11
294.4
21
48
0
LINE
8
0
10
294.4
20
48
11
276.4
21
48
0
LINE
8
0
10
276.4
20
48
11
276.4
21
66
0
LINE
8
0
10
276.4
20
85
11
294.4
21
85
0
LINE
8
0
10
294.4
20
85
11
294.4
21
67
0
LINE
8
0
10
294.4
20
67
11
276.4
21
67
0
LINE
8
0
10
276.4
20
67
11
276.4
21
85
0
LINE
8
0
10
276.4
20
104
11
294.4
21
104
0
LINE
8
0
10
294.4
20
104
11
294.4
21
86
0
LINE
8
0
10
294.4
20
86
11
276.4
21
86
0
LINE
8
0
10
276.4
20
86
11
276.4
21
104
0
LINE
8
0
10
295.4
20
9
11
313.4
21
9
0
LINE
8
0
10
313.4
20
9
11
313.4
21
-9
0
LINE
8
0
10
313.4
20
-9
11
295.4
21
-9
0
LINE
8
0
10
295.4
20
-9
11
295.4
21
9
0
LINE
8
0
10
295.4
20
28
11
313.4
21
28
0
LINE
8
0
10
313.4
20
28
11
313.4
21
10
0
LINE
8
0
10
313.4
20
10
11
295.4
21
10
0
LINE
8
0
10
295.4
20
10
11
295.4
21
28
0
LINE
8
0
10
295.4
20
47
11
313.4
21
47
0
LINE
8
0
10
313.4
20
47
11
313.4
21
29
0
LINE
8
0
10
313.4
20
29
11
295.4
21
29
0
LINE
8
0
10
295.4
20
29
11
295.4
21
47
0
LINE
8
0
10
295.4
20
66
11
313.4
21
66
0
LINE
8
0
10
313.4
20
66
11
313.4
21
48
0
LINE
8
0
10
313.4
20
48
11
295.4
21
48
0
LINE
8
0
10
295.4
20
48
11
295.4
21
66
0
LINE
8
0
10
295.4
20
85
11
313.4
21
85
0
LINE
8
0
10
313.4
20
85
11
313.4
21
67
0
LINE
8
0
10
313.4
20
67
11
295.4
21
67
0
LINE
8
0
10
295.4
20
67
11
295.4
21
85
0
LINE
8
0
10
295.4
20
104
11
313.4
21
104
0
LINE
8
0
10
313.4
20
104
11
313.4
21
86
0
LINE
8
0
10
313.4
20
86
11
295.4
21
86
0
LINE
8
0
10
295.4
20
86
11
295.4
21
104
0
ENDSEC
0
EOF