0
SECTION
2
HEADER
9
$INSUNITS
70
4
0
ENDSEC
0
SECTION
2
TABLES
0
TABLE
2
LTYPE
0
LTYPE
72
65
70
64
2
CONTINUOUS
3
______
73
0
40
0
0
ENDTAB
0
TABLE
2
LAYER
0
ENDTAB
0
ENDSEC
0
SECTION
2
ENTITIES
0
LINE
8
0
10
-9
20
9
11
9
21
9
0
LINE
8
0
10
9
20
9
11
9
21
-9
0
LINE
8
0
10
9
20
-9
11
-9
21
-9
0
LINE
8
0
10
-9
20
-9
11
-9
21
9
0
LINE
8
0
10
-19
20
28.05
11
19
21
28.05
0
LINE
8
0
10
19
20
28.05
11
19
21
10.05
0
LINE
8
0
10
19
20
10.05
11
-19
21
10.05
0
LINE
8
0
10
-19
20
10.05
11
-19
21
28.05
0
LINE
8
0
10
-19.05
20
47.1
11
19.05
21
47.1
0
LINE
8
0
10
19.05
20
47.1
11
19.05
21
29.1
0
LINE
8
0
10
19.05
20
29.1
11
-19.05
21
29.1
0
LINE
8
0
10
-19.05
20
29.1
11
-19.05
21
47.1
0
LINE
8
0
10
-19.05
20
66.15
11
19.05
21
66.15
0
LINE
8
0
10
19.05
20
66.15
11
19.05
21
48.15
0
LINE
8
0
10
19.05
20
48.15
11
-19.05
21
48.15
0
LINE
8
0
10
-19.05
20
48.15
11
-19.05
21
66.15
0
LINE
8
0
10
-9
20
85.2
11
9
21
85.2
0
LINE
8
0
10
9
20
85.2
11
9
21
67.2
0
LINE
8
0
10
9
20
67.2
11
-9
21
67.2
0
LINE
8
0
10
-9
20
67.2
11
-9
21
85.2
0
LINE
8
0
10
-9
20
104.25
11
9
21
104.25
0
LINE
8
0
10
9
20
104.25
11
9
21
86.25
0
LINE
8
0
10
9
20
86.25
11
-9
21
86.25
0
LINE
8
0
10
-9
20
86.25
11
-9
21
104.25
0
LINE
8
0
10
10.05
20
9
11
28.05
21
9
0
LINE
8
0
10
28.05
20
9
11
28.05
21
-9
0
LINE
8
0
10
28.05
20
-9
11
10.05
21
-9
0
LINE
8
0
10
10.05
20
-9
11
10.05
21
9
0
LINE
8
0
10
19.575
20
28.05
11
37.575
21
28.05
0
LINE
8
0
10
37.575
20
28.05
11
37.575
21
10.05
0
LINE
8
0
10
37.575
20
10.05
11
19.575
21
10.05
0
LINE
8
0
10
19.575
20
10.05
11
19.575
21
28.05
0
LINE
8
0
10
19.575
20
47.1
11
37.575
21
47.1
0
LINE
8
0
10
37.575
20
47.1
11
37.575
21
29.1
0
LINE
8
0
10
37.575
20
29.1
11
19.575
21
29.1
0
LINE
8
0
10
19.575
20
29.1
11
19.575
21
47.1
0
LINE
8
0
10
19.575
20
66.15
11
37.575
21
66.15
0
LINE
8
0
10
37.575
20
66.15
11
37.575
21
48.15
0
LINE
8
0
10
37.575
20
48.15
11
19.575
21
48.15
0
LINE
8
0
10
19.575
20
48.15
11
19.575
21
66.15
0
LINE
8
0
10
10.05
20
85.2
11
28.05
21
85.2
0
LINE
8
0
10
28.05
20
85.2
11
28.05
21
67.2
0
LINE
8
0
10
28.05
20
67.2
11
10.05
21
67.2
0
LINE
8
0
10
10.05
20
67.2
11
10.05
21
85.2
0
LINE
8
0
10
29.1
20
9
11
47.1
21
9
0
LINE
8
0
10
47.1
20
9
11
47.1
21
-9
0
LINE
8
0
10
47.1
20
-9
11
29.1
21
-9
0
LINE
8
0
10
29.1
20
-9
11
29.1
21
9
0
LINE
8
0
10
38.625
20
28.05
11
56.625
21
28.05
0
LINE
8
0
10
56.625
20
28.05
11
56.625
21
10.05
0
LINE
8
0
10
56.625
20
10.05
11
38.625
21
10.05
0
LINE
8
0
10
38.625
20
10.05
11
38.625
21
28.05
0
LINE
8
0
10
38.625
20
47.1
11
56.625
21
47.1
0
LINE
8
0
10
56.625
20
47.1
11
56.625
21
29.1
0
LINE
8
0
10
56.625
20
29.1
11
38.625
21
29.1
0
LINE
8
0
10
38.625
20
29.1
11
38.625
21
47.1
0
LINE
8
0
10
38.625
20
66.15
11
56.625
21
66.15
0
LINE
8
0
10
56.625
20
66.15
11
56.625
21
48.15
0
LINE
8
0
10
56.625
20
48.15
11
38.625
21
48.15
0
LINE
8
0
10
38.625
20
48.15
11
38.625
21
66.15
0
LINE
8
0
10
29.1
20
85.2
11
47.1
21
85.2
0
LINE
8
0
10
47.1
20
85.2
11
47.1
21
67.2
0
LINE
8
0
10
47.1
20
67.2
11
29.1
21
67.2
0
LINE
8
0
10
29.1
20
67.2
11
29.1
21
85.2
0
LINE
8
0
10
29.1
20
104.25
11
47.1
21
104.25
0
LINE
8
0
10
47.1
20
104.25
11
47.1
21
86.25
0
LINE
8
0
10
47.1
20
86.25
11
29.1
21
86.25
0
LINE
8
0
10
29.1
20
86.25
11
29.1
21
104.25
0
LINE
8
0
10
48.15
20
9
11
66.15
21
9
0
LINE
8
0
10
66.15
20
9
11
66.15
21
-9
0
LINE
8
0
10
66.15
20
-9
11
48.15
21
-9
0
LINE
8
0
10
48.15
20
-9
11
48.15
21
9
0
LINE
8
0
10
57.675
20
28.05
11
75.675
21
28.05
0
LINE
8
0
10
75.675
20
28.05
11
75.675
21
10.05
0
LINE
8
0
10
75.675
20
10.05
11
57.675
21
10.05
0
LINE
8
0
10
57.675
20
10.05
11
57.675
21
28.05
0
LINE
8
0
10
57.675
20
47.1
11
75.675
21
47.1
0
LINE
8
0
10
75.675
20
47.1
11
75.675
21
29.1
0
LINE
8
0
10
75.675
20
29.1
11
57.675
21
29.1
0
LINE
8
0
10
57.675
20
29.1
11
57.675
21
47.1
0
LINE
8
0
10
57.675
20
66.15
11
75.675
21
66.15
0
LINE
8
0
10
75.675
20
66.15
11
75.675
21
48.15
0
LINE
8
0
10
75.675
20
48.15
11
57.675
21
48.15
0
LINE
8
0
10
57.675
20
48.15
11
57.675
21
66.15
0
LINE
8
0
10
48.15
20
85.2
11
66.15
21
85.2
0
LINE
8
0
10
66.15
20
85.2
11
66.15
21
67.2
0
LINE
8
0
10
66.15
20
67.2
11
48.15
21
67.2
0
LINE
8
0
10
48.15
20
67.2
11
48.15
21
85.2
0
LINE
8
0
10
48.15
20
104.25
11
66.15
21
104.25
0
LINE
8
0
10
66.15
20
104.25
11
66.15
21
86.25
0
LINE
8
0
10
66.15
20
86.25
11
48.15
21
86.25
0
LINE
8
0
10
48.15
20
86.25
11
48.15
21
104.25
0
LINE
8
0
10
66.75
20
9
11
123.75
21
9
0
LINE
8
0
10
123.75
20
9
11
123.75
21
-9
0
LINE
8
0
10
123.75
20
-9
11
66.75
21
-9
0
LINE
8
0
10
66.75
20
-9
11
66.75
21
9
0
LINE
8
0
10
76.725
20
28.05
11
94.725
21
28.05
0
LINE
8
0
10
94.725
20
28.05
11
94.725
21
10.05
0
LINE
8
0
10
94.725
20
10.05
11
76.725
21
10.05
0
LINE
8
0
10
76.725
20
10.05
11
76.725
21
28.05
0
LINE
8
0
10
76.725
20
47.1
11
94.725
21
47.1
0
LINE
8
0
10
94.725
20
47.1
11
94.725
21
29.1
0
LINE
8
0
10
94.725
20
29.1
11
76.725
21
29.1
0
LINE
8
0
10
76.725
20
29.1
11
76.725
21
47.1
0
LINE
8
0
10
76.725
20
66.15
11
94.725
21
66.15
0
LINE
8
0
10
94.725
20
66.15
11
94.725
21
48.15
0
LINE
8
0
10
94.725
20
48.15
11
76.725
21
48.15
0
LINE
8
0
10
76.725
20
48.15
11
76.725
21
66.15
0
LINE
8
0
10
67.2
20
85.2
11
85.2
21
85.2
0
LINE
8
0
10
85.2
20
85.2
11
85.2
21
67.2
0
LINE
8
0
10
85.2
20
67.2
11
67.2
21
67.2
0
LINE
8
0
10
67.2
20
67.2
11
67.2
21
85.2
0
LINE
8
0
10
67.2
20
104.25
11
85.2
21
104.25
0
LINE
8
0
10
85.2
20
104.25
11
85.2
21
86.25
0
LINE
8
0
10
85.2
20
86.25
11
67.2
21
86.25
0
LINE
8
0
10
67.2
20
86.25
11
67.2
21
104.25
0
LINE
8
0
10
95.775
20
28.05
11
113.775
21
28.05
0
LINE
8
0
10
113.775
20
28.05
11
113.775
21
10.05
0
LINE
8
0
10
113.775
20
10.05
11
95.775
21
10.05
0
LINE
8
0
10
95.775
20
10.05
11
95.775
21
28.05
0
LINE
8
0
10
95.775
20
47.1
11
113.775
21
47.1
0
LINE
8
0
10
113.775
20
47.1
11
113.775
21
29.1
0
LINE
8
0
10
113.775
20
29.1
11
95.775
21
29.1
0
LINE
8
0
10
95.775
20
29.1
11
95.775
21
47.1
0
LINE
8
0
10
95.775
20
66.15
11
113.775
21
66.15
0
LINE
8
0
10
113.775
20
66.15
11
113.775
21
48.15
0
LINE
8
0
10
113.775
20
48.15
11
95.775
21
48.15
0
LINE
8
0
10
95.775
20
48.15
11
95.775
21
66.15
0
LINE
8
0
10
86.25
20
85.2
11
104.25
21
85.2
0
LINE
8
0
10
104.25
20
85.2
11
104.25
21
67.2
0
LINE
8
0
10
104.25
20
67.2
11
86.25
21
67.2
0
LINE
8
0
10
86.25
20
67.2
11
86.25
21
85.2
0
LINE
8
0
10
86.25
20
104.25
11
104.25
21
104.25
0
LINE
8
0
10
104.25
20
104.25
11
104.25
21
86.25
0
LINE
8
0
10
104.25
20
86.25
11
86.25
21
86.25
0
LINE
8
0
10
86.25
20
86.25
11
86.25
21
104.25
0
LINE
8
0
10
152.475
20
9
11
209.475
21
9
0
LINE
8
0
10
209.475
20
9
11
209.475
21
-9
0
LINE
8
0
10
209.475
20
-9
11
152.475
21
-9
0
LINE
8
0
10
152.475
20
-9
11
152.475
21
9
0
LINE
8
0
10
162.45
20
28
11
180.45
21
28
0
LINE
8
0
10
180.45
20
28
11
180.45
21
10
0
LINE
8
0
10
180.45
20
10
11
162.45
21
10
0
LINE
8
0
10
162.45
20
10
11
162.45
21
28
0
LINE
8
0
10
162.45
20
47
11
180.45
21
47
0
LINE
8
0
10
180.45
20
47
11
180.45
21
29
0
LINE
8
0
10
180.45
20
29
11
162.45
21
29
0
LINE
8
0
10
162.45
20
29
11
162.45
21
47
0
LINE
8
0
10
162.45
20
66
11
180.45
21
66
0
LINE
8
0
10
180.45
20
66
11
180.45
21
48
0
LINE
8
0
10
180.45
20
48
11
162.45
21
48
0
LINE
8
0
10
162.45
20
48
11
162.45
21
66
0
LINE
8
0
10
162.45
20
85
11
180.45
21
85
0
LINE
8
0
10
180.45
20
85
11
180.45
21
67
0
LINE
8
0
10
180.45
20
67
11
162.45
21
67
0
LINE
8
0
10
162.45
20
67
11
162.45
21
85
0
LINE
8
0
10
162.45
20
104
11
180.45
21
104
0
LINE
8
0
10
180.45
20
104
11
180.45
21
86
0
LINE
8
0
10
180.45
20
86
11
162.45
21
86
0
LINE
8
0
10
162.45
20
86
11
162.45
21
104
0
LINE
8
0
10
181.45
20
28
11
199.45
21
28
0
LINE
8
0
10
199.45
20
28
11
199.45
21
10
0
LINE
8
0
10
199.45
20
10
11
181.45
21
10
0
LINE
8
0
10
181.45
20
10
11
181.45
21
28
0
LINE
8
0
10
181.45
20
47
11
199.45
21
47
0
LINE
8
0
10
199.45
20
47
11
199.45
21
29
0
LINE
8
0
10
199.45
20
29
11
181.45
21
29
0
LINE
8
0
10
181.45
20
29
11
181.45
21
47
0
LINE
8
0
10
181.45
20
66
11
199.45
21
66
0
LINE
8
0
10
199.45
20
66
11
199.45
21
48
0
LINE
8
0
10
199.45
20
48
11
181.45
21
48
0
LINE
8
0
10
181.45
20
48
11
181.45
21
66
0
LINE
8
0
10
181.45
20
85
11
199.45
21
85
0
LINE
8
0
10
199.45
20
85
11
199.45
21
67
0
LINE
8
0
10
199.45
20
67
11
181.45
21
67
0
LINE
8
0
10
181.45
20
67
11
181.45
21
85
0
LINE
8
0
10
181.45
20
104
11
199.45
21
104
0
LINE
8
0
10
199.45
20
104
11
199.45
21
86
0
LINE
8
0
10
199.45
20
86
11
181.45
21
86
0
LINE
8
0
10
181.45
20
86
11
181.45
21
104
0
LINE
8
0
10
200.45
20
28
11
218.45
21
28
0
LINE
8
0
10
218.45
20
28
11
218.45
21
10
0
LINE
8
0
10
218.45
20
10
11
200.45
21
10
0
LINE
8
0
10
200.45
20
10
11
200.45
21
28
0
LINE
8
0
10
200.45
20
47
11
218.45
21
47
0
LINE
8
0
10
218.45
20
47
11
218.45
21
29
0
LINE
8
0
10
218.45
20
29
11
200.45
21
29
0
LINE
8
0
10
200.45
20
29
11
200.45
21
47
0
LINE
8
0
10
200.45
20
66
11
218.45
21
66
0
LINE
8
0
10
218.45
20
66
11
218.45
21
48
0
LINE
8
0
10
218.45
20
48
11
200.45
21
48
0
LINE
8
0
10
200.45
20
48
11
200.45
21
66
0
LINE
8
0
10
200.45
20
85
11
218.45
21
85
0
LINE
8
0
10
218.45
20
85
11
218.45
21
67
0
LINE
8
0
10
218.45
20
67
11
200.45
21
67
0
LINE
8
0
10
200.45
20
67
11
200.45
21
85
0
LINE
8
0
10
200.45
20
104
11
218.45
21
104
0
LINE
8
0
10
218.45
20
104
11
218.45
21
86
0
LINE
8
0
10
218.45
20
86
11
200.45
21
86
0
LINE
8
0
10
200.45
20
86
11
200.45
21
104
0
LINE
8
0
10
209.925
20
9
11
227.925
21
9
0
LINE
8
0
10
227.925
20
9
11
227.925
21
-9
0
LINE
8
0
10
227.925
20
-9
11
209.925
21
-9
0
LINE
8
0
10
209.925
20
-9
11
209.925
21
9
0
LINE
8
0
10
219.45
20
28
11
237.45
21
28
0
LINE
8
0
10
237.45
20
28
11
237.45
21
10
0
LINE
8
0
10
237.45
20
10
11
219.45
21
10
0
LINE
8
0
10
219.45
20
10
11
219.45
21
28
0
LINE
8
0
10
219.45
20
47
11
237.45
21
47
0
LINE
8
0
10
237.45
20
47
11
237.45
21
29
0
LINE
8
0
10
237.45
20
29
11
219.45
21
29
0
LINE
8
0
10
219.45
20
29
11
219.45
21
47
0
LINE
8
0
10
219.45
20
66
11
237.45
21
66
0
LINE
8
0
10
237.45
20
66
11
237.45
21
48
0
LINE
8
0
10
237.45
20
48
11
219.45
21
48
0
LINE
8
0
10
219.45
20
48
11
219.45
21
66
0
LINE
8
0
10
219.45
20
85
11
237.45
21
85
0
LINE
8
0
10
237.45
20
85
11
237.45
21
67
0
LINE
8
0
10
237.45
20
67
11
219.45
21
67
0
LINE
8
0
10
219.45
20
67
11
219.45
21
85
0
LINE
8
0
10
219.45
20
104
11
237.45
21
104
0
LINE
8
0
10
237.45
20
104
11
237.45
21
86
0
LINE
8
0
10
237.45
20
86
11
219.45
21
86
0
LINE
8
0
10
219.45
20
86
11
219.45
21
104
0
LINE
8
0
10
228.925
20
9
11
246.925
21
9
0
LINE
8
0
10
246.925
20
9
11
246.925
21
-9
0
LINE
8
0
10
246.925
20
-9
11
228.925
21
-9
0
LINE
8
0
10
228.925
20
-9
11
228.925
21
9
0
LINE
8
0
10
238.45
20
28
11
256.45
21
28
0
LINE
8
0
10
256.45
20
28
11
256.45
21
10
0
LINE
8
0
10
256.45
20
10
11
238.45
21
10
0
LINE
8
0
10
238.45
20
10
11
238.45
21
28
0
LINE
8
0
10
238.45
20
47
11
256.45
21
47
0
LINE
8
0
10
256.45
20
47
11
256.45
21
29
0
LINE
8
0
10
256.45
20
29
11
238.45
21
29
0
LINE
8
0
10
238.45
20
29
11
238.45
21
47
0
LINE
8
0
10
238.45
20
66
11
256.45
21
66
0
LINE
8
0
10
256.45
20
66
11
256.45
21
48
0
LINE
8
0
10
256.45
20
48
11
238.45
21
48
0
LINE
8
0
10
238.45
20
48
11
238.45
21
66
0
LINE
8
0
10
238.45
20
85
11
256.45
21
85
0
LINE
8
0
10
256.45
20
85
11
256.45
21
67
0
LINE
8
0
10
256.45
20
67
11
238.45
21
67
0
LINE
8
0
10
238.45
20
67
11
238.45
21
85
0
LINE
8
0
10
247.925
20
9
11
265.925
21
9
0
LINE
8
0
10
265.925
20
9
11
265.925
21
-9
0
LINE
8
0
10
265.925
20
-9
11
247.925
21
-9
0
LINE
8
0
10
247.925
20
-9
11
247.925
21
9
0
LINE
8
0
10
256.975
20
28
11
294.975
21
28
0
LINE
8
0
10
294.975
20
28
11
294.975
21
10
0
LINE
8
0
10
294.975
20
10
11
256.975
21
10
0
LINE
8
0
10
256.975
20
10
11
256.975
21
28
0
LINE
8
0
10
257.45
20
47
11
275.45
21
47
0
LINE
8
0
10
275.45
20
47
11
275.45
21
29
0
LINE
8
0
10
275.45
20
29
11
257.45
21
29
0
LINE
8
0
10
257.45
20
29
11
257.45
21
47
0
LINE
8
0
10
257.45
20
66
11
275.45
21
66
0
LINE
8
0
10
275.45
20
66
11
275.45
21
48
0
LINE
8
0
10
275.45
20
48
11
257.45
21
48
0
LINE
8
0
10
257.45
20
48
11
257.45
21
66
0
LINE
8
0
10
257.45
20
85
11
275.45
21
85
0
LINE
8
0
10
275.45
20
85
11
275.45
21
67
0
LINE
8
0
10
275.45
20
67
11
257.45
21
67
0
LINE
8
0
10
257.45
20
67
11
257.45
21
85
0
LINE
8
0
10
257.45
20
104
11
275.45
21
104
0
LINE
8
0
10
275.45
20
104
11
275.45
21
86
0
LINE
8
0
10
275.45
20
86
11
257.45
21
86
0
LINE
8
0
10
257.45
20
86
11
257.45
21
104
0
LINE
8
0
10
266.925
20
9
11
284.925
21
9
0
LINE
8
0
10
284.925
20
9
11
284.925
21
-9
0
LINE
8
0
10
284.925
20
-9
11
266.925
21
-9
0
LINE
8
0
10
266.925
20
-9
11
266.925
21
9
0
LINE
8
0
10
275.975
20
47
11
313.975
21
47
0
LINE
8
0
10
313.975
20
47
11
313.975
21
29
0
LINE
8
0
10
313.975
20
29
11
275.975
21
29
0
LINE
8
0
10
275.975
20
29
11
275.975
21
47
0
LINE
8
0
10
276.45
20
66
11
294.45
21
66
0
LINE
8
0
10
294.45
20
66
11
294.45
21
48
0
LINE
8
0
10
294.45
20
48
11
276.45
21
48
0
LINE
8
0
10
276.45
20
48
11
276.45
21
66
0
LINE
8
0
10
276.45
20
85
11
294.45
21
85
0
LINE
8
0
10
294.45
20
85
11
294.45
21
67
0
LINE
8
0
10
294.45
20
67
11
276.45
21
67
0
LINE
8
0
10
276.45
20
67
11
276.45
21
85
0
LINE
8
0
10
276.45
20
104
11
294.45
21
104
0
LINE
8
0
10
294.45
20
104
11
294.45
21
86
0
LINE
8
0
10
294.45
20
86
11
276.45
21
86
0
LINE
8
0
10
276.45
20
86
11
276.45
21
104
0
LINE
8
0
10
295.45
20
66
11
313.45
21
66
0
LINE
8
0
10
313.45
20
66
11
313.45
21
48
0
LINE
8
0
10
313.45
20
48
11
295.45
21
48
0
LINE
8
0
10
295.45
20
48
11
295.45
21
66
0
LINE
8
0
10
294.975
20
85
11
332.975
21
85
0
LINE
8
0
10
332.975
20
85
11
332.975
21
67
0
LINE
8
0
10
332.975
20
67
11
294.975
21
67
0
LINE
8
0
10
294.975
20
67
11
294.975
21
85
0
LINE
8
0
10
295.45
20
104
11
313.45
21
104
0
LINE
8
0
10
313.45
20
104
11
313.45
21
86
0
LINE
8
0
10
313.45
20
86
11
295.45
21
86
0
LINE
8
0
10
295.45
20
86
11
295.45
21
104
0
LINE
8
0
10
314.45
20
104
11
332.45
21
104
0
LINE
8
0
10
332.45
20
104
11
332.45
21
86
0
LINE
8
0
10
332.45
20
86
11
314.45
21
86
0
LINE
8
0
10
314.45
20
86
11
314.45
21
104
0
ENDSEC
0
EOF