solid csg.js
facet normal 0 0 -1
outer loop
vertex 403.43956039999995 -67.5 0
vertex 403.75468678860295 -67.52497798660924 0
vertex 404.0619359407266 -67.59929974481608 0
endloop
endfacet
facet normal 0 0 -1
outer loop
vertex 403.43956039999995 -67.5 0
vertex 404.0619359407266 -67.59929974481608 0
vertex 404.3536371297105 -67.72110360997999 0
endloop
endfacet
facet normal 0 0 -1
outer loop
vertex 403.43956039999995 -67.5 0
vertex 404.3536371297105 -67.72110360997999 0
vertex 404.6225032394238 -67.88734674599289 0
endloop
endfacet
facet normal 0 0 -1
outer loop
vertex 403.43956039999995 -67.5 0
vertex 404.6225032394238 -67.88734674599289 0
vertex 404.8618176069266 -68.09387615970924 0
endloop
endfacet
facet normal 0 0 -1
outer loop
vertex 403.43956039999995 -67.5 0
vertex 404.8618176069266 -68.09387615970924 0
vertex 405.06560181439477 -68.33553244870355 0
endloop
endfacet
facet normal 0 0 -1
outer loop
vertex 403.43956039999995 -67.5 0
vertex 405.06560181439477 -68.33553244870355 0
vertex 405.22876503860925 -68.60627869057488 0
endloop
endfacet
facet normal 0 0 -1
outer loop
vertex 403.43956039999995 -67.5 0
vertex 405.22876503860925 -68.60627869057488 0
vertex 405.34723122706123 -68.89935125397307 0
endloop
endfacet
facet normal 0 0 -1
outer loop
vertex 403.43956039999995 -67.5 0
vertex 405.34723122706123 -68.89935125397307 0
vertex 405.41804092361775 -69.20742876385897 0
endloop
endfacet
facet normal 0 0 -1
outer loop
vertex 403.43956039999995 -67.5 0
vertex 405.41804092361775 -69.20742876385897 0
vertex 405.4394252 -69.52281500000053 0
endloop
endfacet
facet normal 0 0 -1
outer loop
vertex 403.43956039999995 -67.5 0
vertex 405.4394252 -69.52281500000053 0
vertex 404.6738101 -136.6541481999997 0
endloop
endfacet
facet normal 0 0 -1
outer loop
vertex 403.43956039999995 -67.5 0
vertex 404.6738101 -136.6541481999997 0
vertex 404.64637889005655 -136.9622179859031 0
endloop
endfacet
facet normal 0 0 -1
outer loop
vertex 403.43956039999995 -67.5 0
vertex 404.64637889005655 -136.9622179859031 0
vertex 404.57177739808236 -137.26237381941795 0
endloop
endfacet
facet normal 0 0 -1
outer loop
vertex 403.43956039999995 -67.5 0
vertex 404.57177739808236 -137.26237381941795 0
vertex 404.4517896483736 -137.5474384558022 0
endloop
endfacet
facet normal 0 0 -1
outer loop
vertex 403.43956039999995 -67.5 0
vertex 404.4517896483736 -137.5474384558022 0
vertex 404.2892851151769 -137.81059465217294 0
endloop
endfacet
facet normal 0 0 -1
outer loop
vertex 403.43956039999995 -67.5 0
vertex 404.2892851151769 -137.81059465217294 0
vertex 404.08815004999946 -138.04554910000056 0
endloop
endfacet
facet normal 0 0 -1
outer loop
vertex 403.43956039999995 -67.5 0
vertex 404.08815004999946 -138.04554910000056 0
vertex 373.7581890000005 -168.3755183999995 0
endloop
endfacet
facet normal 0 0 -1
outer loop
vertex 403.43956039999995 -67.5 0
vertex 373.7581890000005 -168.3755183999995 0
vertex 373.61518871190333 -168.50532940914718 0
endloop
endfacet
facet normal 0 0 -1
outer loop
vertex 403.43956039999995 -67.5 0
vertex 373.61518871190333 -168.50532940914718 0
vertex 373.46033403971734 -168.6207414808602 0
endloop
endfacet
facet normal 0 0 -1
outer loop
vertex 403.43956039999995 -67.5 0
vertex 373.46033403971734 -168.6207414808602 0
vertex 373.2950695 -168.72067920000006 0
endloop
endfacet
facet normal 0 0 -1
outer loop
vertex 403.43956039999995 -67.5 0
vertex 373.2950695 -168.72067920000006 0
vertex 338.55640445681905 -187.49999915 0
endloop
endfacet
facet normal 0 0 -1
outer loop
vertex 403.43956039999995 -67.5 0
vertex 338.55640445681905 -187.49999915 0
vertex 291.2830773000002 -187.49999915 0
endloop
endfacet
facet normal 0 0 -1
outer loop
vertex 403.43956039999995 -67.5 0
vertex 291.2830773000002 -187.49999915 0
vertex 16.49999999999983 -187.49999915 0
endloop
endfacet
facet normal 0 0 -1
outer loop
vertex 403.43956039999995 -67.5 0
vertex 16.49999999999983 -187.49999915 0
vertex 16.152703644666275 -187.46961550602444 0
endloop
endfacet
facet normal 0 0 -1
outer loop
vertex 403.43956039999995 -67.5 0
vertex 16.152703644666275 -187.46961550602444 0
vertex 15.815959713348462 -187.37938524157175 0
endloop
endfacet
facet normal 0 0 -1
outer loop
vertex 403.43956039999995 -67.5 0
vertex 15.815959713348462 -187.37938524157175 0
vertex 15.500000000000114 -187.23205080756895 0
endloop
endfacet
facet normal 0 0 -1
outer loop
vertex 403.43956039999995 -67.5 0
vertex 15.500000000000114 -187.23205080756895 0
vertex 15.214424780626928 -187.03208888623794 0
endloop
endfacet
facet normal 0 0 -1
outer loop
vertex 403.43956039999995 -67.5 0
vertex 15.214424780626928 -187.03208888623794 0
vertex 14.967911113762028 -186.78557521937304 0
endloop
endfacet
facet normal 0 0 -1
outer loop
vertex 403.43956039999995 -67.5 0
vertex 14.967911113762028 -186.78557521937304 0
vertex 14.767949192431104 -186.49999999999997 0
endloop
endfacet
facet normal 0 0 -1
outer loop
vertex 403.43956039999995 -67.5 0
vertex 14.767949192431104 -186.49999999999997 0
vertex 14.62061475842819 -186.18404028665134 0
endloop
endfacet
facet normal 0 0 -1
outer loop
vertex 403.43956039999995 -67.5 0
vertex 14.62061475842819 -186.18404028665134 0
vertex 14.530384493975589 -185.84729635533387 0
endloop
endfacet
facet normal 0 0 -1
outer loop
vertex 403.43956039999995 -67.5 0
vertex 14.530384493975589 -185.84729635533387 0
vertex 14.5 -185.49999999999997 0
endloop
endfacet
facet normal 0 0 -1
outer loop
vertex 403.43956039999995 -67.5 0
vertex 14.5 -185.49999999999997 0
vertex 14.5 -69.49999999999996 0
endloop
endfacet
facet normal 0 0 -1
outer loop
vertex 403.43956039999995 -67.5 0
vertex 14.5 -69.49999999999996 0
vertex 14.530384493975589 -69.15270364466615 0
endloop
endfacet
facet normal 0 0 -1
outer loop
vertex 403.43956039999995 -67.5 0
vertex 14.530384493975589 -69.15270364466615 0
vertex 14.62061475842819 -68.81595971334865 0
endloop
endfacet
facet normal 0 0 -1
outer loop
vertex 403.43956039999995 -67.5 0
vertex 14.62061475842819 -68.81595971334865 0
vertex 14.767949192431104 -68.50000000000004 0
endloop
endfacet
facet normal 0 0 -1
outer loop
vertex 403.43956039999995 -67.5 0
vertex 14.767949192431104 -68.50000000000004 0
vertex 14.967911113762028 -68.21442478062696 0
endloop
endfacet
facet normal 0 0 -1
outer loop
vertex 403.43956039999995 -67.5 0
vertex 14.967911113762028 -68.21442478062696 0
vertex 15.214424780626985 -67.96791111376199 0
endloop
endfacet
facet normal 0 0 -1
outer loop
vertex 403.43956039999995 -67.5 0
vertex 15.214424780626985 -67.96791111376199 0
vertex 15.499999999999972 -67.76794919243113 0
endloop
endfacet
facet normal 0 0 -1
outer loop
vertex 403.43956039999995 -67.5 0
vertex 15.499999999999972 -67.76794919243113 0
vertex 15.815959713348633 -67.6206147584282 0
endloop
endfacet
facet normal 0 0 -1
outer loop
vertex 403.43956039999995 -67.5 0
vertex 15.815959713348633 -67.6206147584282 0
vertex 16.152703644666218 -67.53038449397557 0
endloop
endfacet
facet normal 0 0 -1
outer loop
vertex 403.43956039999995 -67.5 0
vertex 16.152703644666218 -67.53038449397557 0
vertex 16.5 -67.5 0
endloop
endfacet
facet normal 0 0 -1
outer loop
vertex 338.55640445681905 -187.49999915 0
vertex 338.55348908155435 -187.50157516783298 0
vertex 291.36243982262096 -187.50157516783298 0
endloop
endfacet
facet normal 0 0 -1
outer loop
vertex 338.55640445681905 -187.49999915 0
vertex 291.36243982262096 -187.50157516783298 0
vertex 291.2830773000002 -187.49999915 0
endloop
endfacet
facet normal 0 0 -1
outer loop
vertex 338.55348908155435 -187.50157516783298 0
vertex 338.5447520594196 -187.5062983 0
vertex 291.44167460000006 -187.5062983 0
endloop
endfacet
facet normal 0 0 -1
outer loop
vertex 338.55348908155435 -187.50157516783298 0
vertex 291.44167460000006 -187.5062983 0
vertex 291.36243982262096 -187.50157516783298 0
endloop
endfacet
facet normal 0 0 -1
outer loop
vertex 338.5447520594196 -187.5062983 0
vertex 333.02270650000094 -190.49145199999958 0
vertex 332.76087065956625 -190.60955375622603 0
endloop
endfacet
facet normal 0 0 -1
outer loop
vertex 338.5447520594196 -187.5062983 0
vertex 332.76087065956625 -190.60955375622603 0
vertex 332.48481613726807 -190.68892569401407 0
endloop
endfacet
facet normal 0 0 -1
outer loop
vertex 338.5447520594196 -187.5062983 0
vertex 332.48481613726807 -190.68892569401407 0
vertex 332.20023872197055 -190.7279346480143 0
endloop
endfacet
facet normal 0 0 -1
outer loop
vertex 338.5447520594196 -187.5062983 0
vertex 332.20023872197055 -190.7279346480143 0
vertex 331.9130082500002 -190.72577600000002 0
endloop
endfacet
facet normal 0 0 -1
outer loop
vertex 338.5447520594196 -187.5062983 0
vertex 331.9130082500002 -190.72577600000002 0
vertex 291.44167460000006 -187.5062983 0
endloop
endfacet
facet normal 0 0 1
outer loop
vertex 332.484816137268 -190.68892569401407 1
vertex 332.7608706595664 -190.60955375622598 1
vertex 333.02270650000054 -190.49145199999978 1
endloop
endfacet
facet normal 0 0 1
outer loop
vertex 332.484816137268 -190.68892569401407 1
vertex 333.02270650000054 -190.49145199999978 1
vertex 338.54475179079407 -187.50629830000022 1
endloop
endfacet
facet normal 0 0 1
outer loop
vertex 332.484816137268 -190.68892569401407 1
vertex 338.54475179079407 -187.50629830000022 1
vertex 291.44167460000295 -187.50629830000022 1
endloop
endfacet
facet normal 0 0 1
outer loop
vertex 332.484816137268 -190.68892569401407 1
vertex 291.44167460000295 -187.50629830000022 1
vertex 331.9130082499998 -190.725776 1
endloop
endfacet
facet normal 0 0 1
outer loop
vertex 332.484816137268 -190.68892569401407 1
vertex 331.9130082499998 -190.725776 1
vertex 332.2002387219706 -190.72793464801427 1
endloop
endfacet
facet normal 0 0 1
outer loop
vertex 338.54475179079407 -187.50629830000022 1
vertex 338.5534888115184 -187.50157516783295 1
vertex 291.3624471735594 -187.50157516783295 1
endloop
endfacet
facet normal 0 0 1
outer loop
vertex 338.54475179079407 -187.50629830000022 1
vertex 291.3624471735594 -187.50157516783295 1
vertex 291.36243982261954 -187.50157516783295 1
endloop
endfacet
facet normal 0 0 1
outer loop
vertex 338.54475179079407 -187.50629830000022 1
vertex 291.36243982261954 -187.50157516783295 1
vertex 291.3624471735594 -187.50157516783295 1
endloop
endfacet
facet normal 0 0 1
outer loop
vertex 338.54475179079407 -187.50629830000022 1
vertex 291.3624471735594 -187.50157516783295 1
vertex 291.44167460000295 -187.50629830000022 1
endloop
endfacet
facet normal 0 0 1
outer loop
vertex 338.5534888115184 -187.50157516783295 1
vertex 338.5564044568191 -187.4999990037671 1
vertex 291.2830773000006 -187.4999990037671 1
endloop
endfacet
facet normal 0 0 1
outer loop
vertex 338.5534888115184 -187.50157516783295 1
vertex 291.2830773000006 -187.4999990037671 1
vertex 291.3624471735594 -187.50157516783295 1
endloop
endfacet
facet normal 0 0 1
outer loop
vertex 291.2830773000006 -187.4999990037671 1
vertex 338.5564044568191 -187.4999990037671 1
vertex 373.29506949999984 -168.72067920000012 1
endloop
endfacet
facet normal 0 0 1
outer loop
vertex 291.2830773000006 -187.4999990037671 1
vertex 373.29506949999984 -168.72067920000012 1
vertex 373.4603340397176 -168.62074148086 1
endloop
endfacet
facet normal 0 0 1
outer loop
vertex 291.2830773000006 -187.4999990037671 1
vertex 373.4603340397176 -168.62074148086 1
vertex 373.61518871190316 -168.50532940914732 1
endloop
endfacet
facet normal 0 0 1
outer loop
vertex 291.2830773000006 -187.4999990037671 1
vertex 373.61518871190316 -168.50532940914732 1
vertex 373.75818900000013 -168.37551839999983 1
endloop
endfacet
facet normal 0 0 1
outer loop
vertex 291.2830773000006 -187.4999990037671 1
vertex 373.75818900000013 -168.37551839999983 1
vertex 404.08815005 -138.0455491 1
endloop
endfacet
facet normal 0 0 1
outer loop
vertex 291.2830773000006 -187.4999990037671 1
vertex 404.08815005 -138.0455491 1
vertex 404.2892851151767 -137.81059465217317 1
endloop
endfacet
facet normal 0 0 1
outer loop
vertex 291.2830773000006 -187.4999990037671 1
vertex 404.2892851151767 -137.81059465217317 1
vertex 404.45178964837356 -137.54743845580228 1
endloop
endfacet
facet normal 0 0 1
outer loop
vertex 291.2830773000006 -187.4999990037671 1
vertex 404.45178964837356 -137.54743845580228 1
vertex 404.5717773980825 -137.26237381941763 1
endloop
endfacet
facet normal 0 0 1
outer loop
vertex 291.2830773000006 -187.4999990037671 1
vertex 404.5717773980825 -137.26237381941763 1
vertex 404.6463788900565 -136.96221798590344 1
endloop
endfacet
facet normal 0 0 1
outer loop
vertex 291.2830773000006 -187.4999990037671 1
vertex 404.6463788900565 -136.96221798590344 1
vertex 404.6738101000001 -136.65414819999876 1
endloop
endfacet
facet normal 0 0 1
outer loop
vertex 291.2830773000006 -187.4999990037671 1
vertex 404.6738101000001 -136.65414819999876 1
vertex 405.43942519999996 -69.52281499999975 1
endloop
endfacet
facet normal 0 0 1
outer loop
vertex 291.2830773000006 -187.4999990037671 1
vertex 405.43942519999996 -69.52281499999975 1
vertex 405.41804092361775 -69.20742876385889 1
endloop
endfacet
facet normal 0 0 1
outer loop
vertex 291.2830773000006 -187.4999990037671 1
vertex 405.41804092361775 -69.20742876385889 1
vertex 405.34723122706134 -68.89935125397346 1
endloop
endfacet
facet normal 0 0 1
outer loop
vertex 291.2830773000006 -187.4999990037671 1
vertex 405.34723122706134 -68.89935125397346 1
vertex 405.2287650386091 -68.60627869057457 1
endloop
endfacet
facet normal 0 0 1
outer loop
vertex 291.2830773000006 -187.4999990037671 1
vertex 405.2287650386091 -68.60627869057457 1
vertex 405.0656018143947 -68.33553244870343 1
endloop
endfacet
facet normal 0 0 1
outer loop
vertex 291.2830773000006 -187.4999990037671 1
vertex 405.0656018143947 -68.33553244870343 1
vertex 404.8618176069268 -68.0938761597095 1
endloop
endfacet
facet normal 0 0 1
outer loop
vertex 291.2830773000006 -187.4999990037671 1
vertex 404.8618176069268 -68.0938761597095 1
vertex 404.62250323942357 -67.88734674599273 1
endloop
endfacet
facet normal 0 0 1
outer loop
vertex 291.2830773000006 -187.4999990037671 1
vertex 404.62250323942357 -67.88734674599273 1
vertex 404.35363712971065 -67.72110360998008 1
endloop
endfacet
facet normal 0 0 1
outer loop
vertex 291.2830773000006 -187.4999990037671 1
vertex 404.35363712971065 -67.72110360998008 1
vertex 404.06193594072647 -67.59929974481604 1
endloop
endfacet
facet normal 0 0 1
outer loop
vertex 291.2830773000006 -187.4999990037671 1
vertex 404.06193594072647 -67.59929974481604 1
vertex 403.754686788603 -67.52497798660924 1
endloop
endfacet
facet normal 0 0 1
outer loop
vertex 291.2830773000006 -187.4999990037671 1
vertex 403.754686788603 -67.52497798660924 1
vertex 403.4395604 -67.5 1
endloop
endfacet
facet normal 0 0 1
outer loop
vertex 291.2830773000006 -187.4999990037671 1
vertex 403.4395604 -67.5 1
vertex 16.499999999999858 -67.5 1
endloop
endfacet
facet normal 0 0 1
outer loop
vertex 291.2830773000006 -187.4999990037671 1
vertex 16.499999999999858 -67.5 1
vertex 16.152703644666275 -67.53038449397556 1
endloop
endfacet
facet normal 0 0 1
outer loop
vertex 291.2830773000006 -187.4999990037671 1
vertex 16.152703644666275 -67.53038449397556 1
vertex 15.815959713348633 -67.62061475842819 1
endloop
endfacet
facet normal 0 0 1
outer loop
vertex 291.2830773000006 -187.4999990037671 1
vertex 15.815959713348633 -67.62061475842819 1
vertex 15.5 -67.76794919243112 1
endloop
endfacet
facet normal 0 0 1
outer loop
vertex 291.2830773000006 -187.4999990037671 1
vertex 15.5 -67.76794919243112 1
vertex 15.214424780626956 -67.967911113762 1
endloop
endfacet
facet normal 0 0 1
outer loop
vertex 291.2830773000006 -187.4999990037671 1
vertex 15.214424780626956 -67.967911113762 1
vertex 14.967911113762057 -68.2144247806269 1
endloop
endfacet
facet normal 0 0 1
outer loop
vertex 291.2830773000006 -187.4999990037671 1
vertex 14.967911113762057 -68.2144247806269 1
vertex 14.767949192431132 -68.5 1
endloop
endfacet
facet normal 0 0 1
outer loop
vertex 291.2830773000006 -187.4999990037671 1
vertex 14.767949192431132 -68.5 1
vertex 14.62061475842819 -68.81595971334865 1
endloop
endfacet
facet normal 0 0 1
outer loop
vertex 291.2830773000006 -187.4999990037671 1
vertex 14.62061475842819 -68.81595971334865 1
vertex 14.530384493975589 -69.15270364466616 1
endloop
endfacet
facet normal 0 0 1
outer loop
vertex 291.2830773000006 -187.4999990037671 1
vertex 14.530384493975589 -69.15270364466616 1
vertex 14.5 -69.49999999999997 1
endloop
endfacet
facet normal 0 0 1
outer loop
vertex 291.2830773000006 -187.4999990037671 1
vertex 14.5 -69.49999999999997 1
vertex 14.5 -185.49999999999983 1
endloop
endfacet
facet normal 0 0 1
outer loop
vertex 291.2830773000006 -187.4999990037671 1
vertex 14.5 -185.49999999999983 1
vertex 14.530384493975617 -185.84729635533392 1
endloop
endfacet
facet normal 0 0 1
outer loop
vertex 291.2830773000006 -187.4999990037671 1
vertex 14.530384493975617 -185.84729635533392 1
vertex 14.62061475842819 -186.18404028665134 1
endloop
endfacet
facet normal 0 0 1
outer loop
vertex 291.2830773000006 -187.4999990037671 1
vertex 14.62061475842819 -186.18404028665134 1
vertex 14.767949192431132 -186.50000000000003 1
endloop
endfacet
facet normal 0 0 1
outer loop
vertex 291.2830773000006 -187.4999990037671 1
vertex 14.767949192431132 -186.50000000000003 1
vertex 14.967911113762028 -186.78557521937304 1
endloop
endfacet
facet normal 0 0 1
outer loop
vertex 291.2830773000006 -187.4999990037671 1
vertex 14.967911113762028 -186.78557521937304 1
vertex 15.214424780626814 -187.03208888623783 1
endloop
endfacet
facet normal 0 0 1
outer loop
vertex 291.2830773000006 -187.4999990037671 1
vertex 15.214424780626814 -187.03208888623783 1
vertex 15.500000000000256 -187.232050807569 1
endloop
endfacet
facet normal 0 0 1
outer loop
vertex 291.2830773000006 -187.4999990037671 1
vertex 15.500000000000256 -187.232050807569 1
vertex 15.815959713348633 -187.3793852415718 1
endloop
endfacet
facet normal 0 0 1
outer loop
vertex 291.2830773000006 -187.4999990037671 1
vertex 15.815959713348633 -187.3793852415718 1
vertex 16.152703644666246 -187.46961550602444 1
endloop
endfacet
facet normal 0 0 1
outer loop
vertex 291.2830773000006 -187.4999990037671 1
vertex 16.152703644666246 -187.46961550602444 1
vertex 16.499999999999915 -187.4999990037671 1
endloop
endfacet
facet normal -0.9961946980917458 -0.08715574274765615 0
outer loop
vertex 14.530384493975617 -185.84729635533392 1
vertex 14.5 -185.49999999999983 1
vertex 14.5 -185.49999999999997 0
endloop
endfacet
facet normal -0.9961946980917458 -0.08715574274765615 0
outer loop
vertex 14.530384493975617 -185.84729635533392 1
vertex 14.5 -185.49999999999997 0
vertex 14.530384493975589 -185.84729635533387 0
endloop
endfacet
facet normal -0.9659258262890724 -0.2588190451025057 0
outer loop
vertex 14.62061475842819 -186.18404028665134 1
vertex 14.530384493975617 -185.84729635533392 1
vertex 14.530384493975589 -185.84729635533387 0
endloop
endfacet
facet normal -0.9659258262890724 -0.2588190451025057 0
outer loop
vertex 14.62061475842819 -186.18404028665134 1
vertex 14.530384493975589 -185.84729635533387 0
vertex 14.62061475842819 -186.18404028665134 0
endloop
endfacet
facet normal -0.9063077870366288 -0.42261826174074496 0
outer loop
vertex 14.767949192431132 -186.50000000000003 1
vertex 14.62061475842819 -186.18404028665134 1
vertex 14.62061475842819 -186.18404028665134 0
endloop
endfacet
facet normal -0.9063077870366288 -0.42261826174074496 0
outer loop
vertex 14.767949192431132 -186.50000000000003 1
vertex 14.62061475842819 -186.18404028665134 0
vertex 14.767949192431104 -186.49999999999997 0
endloop
endfacet
facet normal -0.8191520442889821 -0.5735764363510599 0
outer loop
vertex 14.967911113762028 -186.78557521937304 1
vertex 14.767949192431132 -186.50000000000003 1
vertex 14.767949192431104 -186.49999999999997 0
endloop
endfacet
facet normal -0.8191520442889821 -0.5735764363510599 0
outer loop
vertex 14.967911113762028 -186.78557521937304 1
vertex 14.767949192431104 -186.49999999999997 0
vertex 14.967911113762028 -186.78557521937304 0
endloop
endfacet
facet normal -0.7071067811865476 -0.7071067811865476 0
outer loop
vertex 15.214424780626814 -187.03208888623783 1
vertex 14.967911113762028 -186.78557521937304 1
vertex 14.967911113762028 -186.78557521937304 0
endloop
endfacet
facet normal -0.7071067811865476 -0.7071067811865476 0
outer loop
vertex 15.214424780626814 -187.03208888623783 1
vertex 14.967911113762028 -186.78557521937304 0
vertex 15.214424780626928 -187.03208888623794 0
endloop
endfacet
facet normal -0.5735764363510178 -0.8191520442890114 0
outer loop
vertex 15.500000000000256 -187.232050807569 1
vertex 15.214424780626814 -187.03208888623783 1
vertex 15.214424780626928 -187.03208888623794 0
endloop
endfacet
facet normal -0.5735764363510178 -0.8191520442890114 0
outer loop
vertex 15.500000000000256 -187.232050807569 1
vertex 15.214424780626928 -187.03208888623794 0
vertex 15.500000000000114 -187.23205080756895 0
endloop
endfacet
facet normal -0.42261826174069467 -0.9063077870366523 0
outer loop
vertex 15.815959713348633 -187.3793852415718 1
vertex 15.500000000000256 -187.232050807569 1
vertex 15.500000000000114 -187.23205080756895 0
endloop
endfacet
facet normal -0.42261826174069467 -0.9063077870366523 0
outer loop
vertex 15.815959713348633 -187.3793852415718 1
vertex 15.500000000000114 -187.23205080756895 0
vertex 15.815959713348462 -187.37938524157175 0
endloop
endfacet
facet normal -0.25881904510254033 -0.965925826289063 0
outer loop
vertex 16.152703644666246 -187.46961550602444 1
vertex 15.815959713348633 -187.3793852415718 1
vertex 15.815959713348462 -187.37938524157175 0
endloop
endfacet
facet normal -0.25881904510254033 -0.965925826289063 0
outer loop
vertex 16.152703644666246 -187.46961550602444 1
vertex 15.815959713348462 -187.37938524157175 0
vertex 16.152703644666275 -187.46961550602444 0
endloop
endfacet
facet normal -0.08715574274771135 -0.9961946980917409 0
outer loop
vertex 16.499999999999915 -187.4999990037671 1
vertex 16.152703644666246 -187.46961550602444 1
vertex 16.152703644666275 -187.46961550602444 0
endloop
endfacet
facet normal -0.08715574274771135 -0.9961946980917409 0
outer loop
vertex 16.499999999999915 -187.4999990037671 1
vertex 16.152703644666275 -187.46961550602444 0
vertex 16.49999999999983 -187.49999915 0
endloop
endfacet
facet normal 3.0933620109863114e-9 -1 0
outer loop
vertex 291.2830773000006 -187.4999990037671 1
vertex 16.499999999999915 -187.4999990037671 1
vertex 16.49999999999983 -187.49999915 0
endloop
endfacet
facet normal 3.0933620109863114e-9 -1 0
outer loop
vertex 291.2830773000006 -187.4999990037671 1
vertex 16.49999999999983 -187.49999915 0
vertex 291.2830773000002 -187.49999915 0
endloop
endfacet
facet normal -0.019854549915010004 -0.9998028789954911 0
outer loop
vertex 291.3624471735594 -187.50157516783295 1
vertex 291.2830773000006 -187.4999990037671 1
vertex 291.2830773000002 -187.49999915 0
endloop
endfacet
facet normal -0.019854549915010004 -0.9998028789954911 0
outer loop
vertex 291.3624471735594 -187.50157516783295 1
vertex 291.2830773000002 -187.49999915 0
vertex 291.36243982262096 -187.50157516783298 0
endloop
endfacet
facet normal -0.05950370950182561 -0.9982280844353772 0
outer loop
vertex 291.44167460000295 -187.50629830000022 1
vertex 291.3624471735594 -187.50157516783295 1
vertex 291.36243982262096 -187.50157516783298 0
endloop
endfacet
facet normal -0.05950370950182561 -0.9982280844353772 0
outer loop
vertex 291.44167460000295 -187.50629830000022 1
vertex 291.36243982262096 -187.50157516783298 0
vertex 291.44167460000006 -187.5062983 0
endloop
endfacet
facet normal -0.07929907065943098 -0.9968508701869858 0
outer loop
vertex 331.9130082499998 -190.725776 1
vertex 291.44167460000295 -187.50629830000022 1
vertex 291.44167460000006 -187.5062983 0
endloop
endfacet
facet normal -0.07929907065943098 -0.9968508701869858 0
outer loop
vertex 331.9130082499998 -190.725776 1
vertex 291.44167460000006 -187.5062983 0
vertex 331.9130082500002 -190.72577600000002 0
endloop
endfacet
facet normal -0.007515174280456449 -0.9999717606790377 0
outer loop
vertex 332.2002387219706 -190.72793464801427 1
vertex 331.9130082499998 -190.725776 1
vertex 331.9130082500002 -190.72577600000002 0
endloop
endfacet
facet normal -0.007515174280456449 -0.9999717606790377 0
outer loop
vertex 332.2002387219706 -190.72793464801427 1
vertex 331.9130082500002 -190.72577600000002 0
vertex 332.20023872197055 -190.7279346480143 0
endloop
endfacet
facet normal 0.13580680401437903 -0.9907353390201645 0
outer loop
vertex 332.484816137268 -190.68892569401407 1
vertex 332.2002387219706 -190.72793464801427 1
vertex 332.20023872197055 -190.7279346480143 0
endloop
endfacet
facet normal 0.13580680401437903 -0.9907353390201645 0
outer loop
vertex 332.484816137268 -190.68892569401407 1
vertex 332.20023872197055 -190.7279346480143 0
vertex 332.48481613726807 -190.68892569401407 0
endloop
endfacet
facet normal 0.27632756313761453 -0.9610635139523442 0
outer loop
vertex 332.7608706595664 -190.60955375622598 1
vertex 332.484816137268 -190.68892569401407 1
vertex 332.48481613726807 -190.68892569401407 0
endloop
endfacet
facet normal 0.27632756313761453 -0.9610635139523442 0
outer loop
vertex 332.7608706595664 -190.60955375622598 1
vertex 332.48481613726807 -190.68892569401407 0
vertex 332.76087065956625 -190.60955375622603 0
endloop
endfacet
facet normal 0.411162506534824 -0.9115620621877596 0
outer loop
vertex 333.02270650000054 -190.49145199999978 1
vertex 332.7608706595664 -190.60955375622598 1
vertex 332.76087065956625 -190.60955375622603 0
endloop
endfacet
facet normal 0.411162506534824 -0.9115620621877596 0
outer loop
vertex 333.02270650000054 -190.49145199999978 1
vertex 332.76087065956625 -190.60955375622603 0
vertex 333.02270650000094 -190.49145199999958 0
endloop
endfacet
facet normal 0 0 -1
outer loop
vertex 373.29506949999984 -168.72067920000012 1
vertex 338.5564044568191 -187.4999990037671 1
vertex 338.5534888115184 -187.50157516783295 1
endloop
endfacet
facet normal 0 0 -1
outer loop
vertex 373.29506949999984 -168.72067920000012 1
vertex 338.5534888115184 -187.50157516783295 1
vertex 338.54475179079407 -187.50629830000022 1
endloop
endfacet
facet normal 0 0 -1
outer loop
vertex 373.29506949999984 -168.72067920000012 1
vertex 338.54475179079407 -187.50629830000022 1
vertex 333.02270650000054 -190.49145199999978 1
endloop
endfacet
facet normal 0 0 -1
outer loop
vertex 373.29506949999984 -168.72067920000012 1
vertex 333.02270650000054 -190.49145199999978 1
vertex 333.02270650000094 -190.49145199999958 0
endloop
endfacet
facet normal 0 0 -1
outer loop
vertex 373.29506949999984 -168.72067920000012 1
vertex 333.02270650000094 -190.49145199999958 0
vertex 338.5447520594196 -187.5062983 0
endloop
endfacet
facet normal 0 0 -1
outer loop
vertex 373.29506949999984 -168.72067920000012 1
vertex 338.5447520594196 -187.5062983 0
vertex 338.55348908155435 -187.50157516783298 0
endloop
endfacet
facet normal 0 0 -1
outer loop
vertex 373.29506949999984 -168.72067920000012 1
vertex 338.55348908155435 -187.50157516783298 0
vertex 338.55640445681905 -187.49999915 0
endloop
endfacet
facet normal 0 0 -1
outer loop
vertex 373.29506949999984 -168.72067920000012 1
vertex 338.55640445681905 -187.49999915 0
vertex 373.2950695 -168.72067920000006 0
endloop
endfacet
facet normal 0.5174584790928491 -0.8557083162006289 0
outer loop
vertex 373.4603340397176 -168.62074148086 1
vertex 373.29506949999984 -168.72067920000012 1
vertex 373.2950695 -168.72067920000006 0
endloop
endfacet
facet normal 0.5174584790928491 -0.8557083162006289 0
outer loop
vertex 373.4603340397176 -168.62074148086 1
vertex 373.2950695 -168.72067920000006 0
vertex 373.46033403971734 -168.6207414808602 0
endloop
endfacet
facet normal 0.5975817300166596 -0.8018080044189483 0
outer loop
vertex 373.61518871190316 -168.50532940914732 1
vertex 373.4603340397176 -168.62074148086 1
vertex 373.46033403971734 -168.6207414808602 0
endloop
endfacet
facet normal 0.5975817300166596 -0.8018080044189483 0
outer loop
vertex 373.61518871190316 -168.50532940914732 1
vertex 373.46033403971734 -168.6207414808602 0
vertex 373.61518871190333 -168.50532940914718 0
endloop
endfacet
facet normal 0.6721361032279033 -0.7404276188376616 0
outer loop
vertex 373.75818900000013 -168.37551839999983 1
vertex 373.61518871190316 -168.50532940914732 1
vertex 373.61518871190333 -168.50532940914718 0
endloop
endfacet
facet normal 0.6721361032279033 -0.7404276188376616 0
outer loop
vertex 373.75818900000013 -168.37551839999983 1
vertex 373.61518871190333 -168.50532940914718 0
vertex 373.7581890000005 -168.3755183999995 0
endloop
endfacet
facet normal 0.7071068773559424 -0.7071066850171397 0
outer loop
vertex 404.08815005 -138.0455491 1
vertex 373.75818900000013 -168.37551839999983 1
vertex 373.7581890000005 -168.3755183999995 0
endloop
endfacet
facet normal 0.7071068773559424 -0.7071066850171397 0
outer loop
vertex 404.08815005 -138.0455491 1
vertex 373.7581890000005 -168.3755183999995 0
vertex 404.08815004999946 -138.04554910000056 0
endloop
endfacet
facet normal 0.7596629816057451 -0.6503169645471888 0
outer loop
vertex 404.2892851151767 -137.81059465217317 1
vertex 404.08815005 -138.0455491 1
vertex 404.08815004999946 -138.04554910000056 0
endloop
endfacet
facet normal 0.7596629816057451 -0.6503169645471888 0
outer loop
vertex 404.2892851151767 -137.81059465217317 1
vertex 404.08815004999946 -138.04554910000056 0
vertex 404.2892851151769 -137.81059465217294 0
endloop
endfacet
facet normal 0.8508458665561158 -0.5254153703160696 0
outer loop
vertex 404.45178964837356 -137.54743845580228 1
vertex 404.2892851151767 -137.81059465217317 1
vertex 404.2892851151769 -137.81059465217294 0
endloop
endfacet
facet normal 0.8508458665561158 -0.5254153703160696 0
outer loop
vertex 404.45178964837356 -137.54743845580228 1
vertex 404.2892851151769 -137.81059465217294 0
vertex 404.4517896483736 -137.5474384558022 0
endloop
endfacet
facet normal 0.9216810051020928 -0.38794861107367845 0
outer loop
vertex 404.5717773980825 -137.26237381941763 1
vertex 404.45178964837356 -137.54743845580228 1
vertex 404.4517896483736 -137.5474384558022 0
endloop
endfacet
facet normal 0.9216810051020928 -0.38794861107367845 0
outer loop
vertex 404.5717773980825 -137.26237381941763 1
vertex 404.4517896483736 -137.5474384558022 0
vertex 404.57177739808236 -137.26237381941795 0
endloop
endfacet
facet normal 0.9704743942608332 -0.24120416680494827 0
outer loop
vertex 404.6463788900565 -136.96221798590344 1
vertex 404.5717773980825 -137.26237381941763 1
vertex 404.57177739808236 -137.26237381941795 0
endloop
endfacet
facet normal 0.9704743942608332 -0.24120416680494827 0
outer loop
vertex 404.6463788900565 -136.96221798590344 1
vertex 404.57177739808236 -137.26237381941795 0
vertex 404.64637889005655 -136.9622179859031 0
endloop
endfacet
facet normal 0.9960591620719077 -0.08869129411959867 0
outer loop
vertex 404.6738101000001 -136.65414819999876 1
vertex 404.6463788900565 -136.96221798590344 1
vertex 404.64637889005655 -136.9622179859031 0
endloop
endfacet
facet normal 0.9960591620719077 -0.08869129411959867 0
outer loop
vertex 404.6738101000001 -136.65414819999876 1
vertex 404.64637889005655 -136.9622179859031 0
vertex 404.6738101 -136.6541481999997 0
endloop
endfacet
facet normal 0.9999349723473459 -0.01140399389305457 0
outer loop
vertex 405.43942519999996 -69.52281499999975 1
vertex 404.6738101000001 -136.65414819999876 1
vertex 404.6738101 -136.6541481999997 0
endloop
endfacet
facet normal 0.9999349723473459 -0.01140399389305457 0
outer loop
vertex 405.43942519999996 -69.52281499999975 1
vertex 404.6738101 -136.6541481999997 0
vertex 405.4394252 -69.52281500000053 0
endloop
endfacet
facet normal 0.9977092412383117 0.06764813336428689 0
outer loop
vertex 405.41804092361775 -69.20742876385889 1
vertex 405.43942519999996 -69.52281499999975 1
vertex 405.4394252 -69.52281500000053 0
endloop
endfacet
facet normal 0.9977092412383117 0.06764813336428689 0
outer loop
vertex 405.41804092361775 -69.20742876385889 1
vertex 405.4394252 -69.52281500000053 0
vertex 405.41804092361775 -69.20742876385897 0
endloop
endfacet
facet normal 0.9745884360435272 0.2240030810730774 0
outer loop
vertex 405.34723122706134 -68.89935125397346 1
vertex 405.41804092361775 -69.20742876385889 1
vertex 405.41804092361775 -69.20742876385897 0
endloop
endfacet
facet normal 0.9745884360435272 0.2240030810730774 0
outer loop
vertex 405.34723122706134 -68.89935125397346 1
vertex 405.41804092361775 -69.20742876385897 0
vertex 405.34723122706123 -68.89935125397307 0
endloop
endfacet
facet normal 0.927121007036287 0.37476210895983236 0
outer loop
vertex 405.2287650386091 -68.60627869057457 1
vertex 405.34723122706134 -68.89935125397346 1
vertex 405.34723122706123 -68.89935125397307 0
endloop
endfacet
facet normal 0.927121007036287 0.37476210895983236 0
outer loop
vertex 405.2287650386091 -68.60627869057457 1
vertex 405.34723122706123 -68.89935125397307 0
vertex 405.22876503860925 -68.60627869057488 0
endloop
endfacet
facet normal 0.8564927590083148 0.51615903921788 0
outer loop
vertex 405.0656018143947 -68.33553244870343 1
vertex 405.2287650386091 -68.60627869057457 1
vertex 405.22876503860925 -68.60627869057488 0
endloop
endfacet
facet normal 0.8564927590083148 0.51615903921788 0
outer loop
vertex 405.0656018143947 -68.33553244870343 1
vertex 405.22876503860925 -68.60627869057488 0
vertex 405.06560181439477 -68.33553244870355 0
endloop
endfacet
facet normal 0.7644680873922328 0.6446615727332144 0
outer loop
vertex 404.8618176069268 -68.0938761597095 1
vertex 405.0656018143947 -68.33553244870343 1
vertex 405.06560181439477 -68.33553244870355 0
endloop
endfacet
facet normal 0.7644680873922328 0.6446615727332144 0
outer loop
vertex 404.8618176069268 -68.0938761597095 1
vertex 405.06560181439477 -68.33553244870355 0
vertex 404.8618176069266 -68.09387615970924 0
endloop
endfacet
facet normal 0.6533459011208322 0.7570595310070456 0
outer loop
vertex 404.62250323942357 -67.88734674599273 1
vertex 404.8618176069268 -68.0938761597095 1
vertex 404.8618176069266 -68.09387615970924 0
endloop
endfacet
facet normal 0.6533459011208322 0.7570595310070456 0
outer loop
vertex 404.62250323942357 -67.88734674599273 1
vertex 404.8618176069266 -68.09387615970924 0
vertex 404.6225032394238 -67.88734674599289 0
endloop
endfacet
facet normal 0.5259021925680797 0.8505450510420283 0
outer loop
vertex 404.35363712971065 -67.72110360998008 1
vertex 404.62250323942357 -67.88734674599273 1
vertex 404.6225032394238 -67.88734674599289 0
endloop
endfacet
facet normal 0.5259021925680797 0.8505450510420283 0
outer loop
vertex 404.35363712971065 -67.72110360998008 1
vertex 404.6225032394238 -67.88734674599289 0
vertex 404.3536371297105 -67.72110360997999 0
endloop
endfacet
facet normal 0.38532068925898944 0.922782729806414 0
outer loop
vertex 404.06193594072647 -67.59929974481604 1
vertex 404.35363712971065 -67.72110360998008 1
vertex 404.3536371297105 -67.72110360997999 0
endloop
endfacet
facet normal 0.38532068925898944 0.922782729806414 0
outer loop
vertex 404.06193594072647 -67.59929974481604 1
vertex 404.3536371297105 -67.72110360997999 0
vertex 404.0619359407266 -67.59929974481608 0
endloop
endfacet
facet normal 0.2351133197672654 0.9719679659680229 0
outer loop
vertex 403.754686788603 -67.52497798660924 1
vertex 404.06193594072647 -67.59929974481604 1
vertex 404.0619359407266 -67.59929974481608 0
endloop
endfacet
facet normal 0.2351133197672654 0.9719679659680229 0
outer loop
vertex 403.754686788603 -67.52497798660924 1
vertex 404.0619359407266 -67.59929974481608 0
vertex 403.75468678860295 -67.52497798660924 0
endloop
endfacet
facet normal 0.07901556611696492 0.9968733822864444 0
outer loop
vertex 403.4395604 -67.5 1
vertex 403.754686788603 -67.52497798660924 1
vertex 403.75468678860295 -67.52497798660924 0
endloop
endfacet
facet normal 0.07901556611696492 0.9968733822864444 0
outer loop
vertex 403.4395604 -67.5 1
vertex 403.75468678860295 -67.52497798660924 0
vertex 403.43956039999995 -67.5 0
endloop
endfacet
facet normal 0 1 0
outer loop
vertex 403.4395604 -67.5 1
vertex 403.43956039999995 -67.5 0
vertex 16.5 -67.5 0
endloop
endfacet
facet normal 0 1 0
outer loop
vertex 403.4395604 -67.5 1
vertex 16.5 -67.5 0
vertex 16.499999999999858 -67.5 1
endloop
endfacet
facet normal -0.08715574274766881 0.9961946980917447 0
outer loop
vertex 16.152703644666275 -67.53038449397556 1
vertex 16.499999999999858 -67.5 1
vertex 16.5 -67.5 0
endloop
endfacet
facet normal -0.08715574274766881 0.9961946980917447 0
outer loop
vertex 16.152703644666275 -67.53038449397556 1
vertex 16.5 -67.5 0
vertex 16.152703644666218 -67.53038449397557 0
endloop
endfacet
facet normal -0.25881904510254045 0.9659258262890632 0
outer loop
vertex 15.815959713348633 -67.62061475842819 1
vertex 16.152703644666275 -67.53038449397556 1
vertex 16.152703644666218 -67.53038449397557 0
endloop
endfacet
facet normal -0.25881904510254045 0.9659258262890632 0
outer loop
vertex 15.815959713348633 -67.62061475842819 1
vertex 16.152703644666218 -67.53038449397557 0
vertex 15.815959713348633 -67.6206147584282 0
endloop
endfacet
facet normal -0.42261826174068745 0.9063077870366557 0
outer loop
vertex 15.5 -67.76794919243112 1
vertex 15.815959713348633 -67.62061475842819 1
vertex 15.815959713348633 -67.6206147584282 0
endloop
endfacet
facet normal -0.42261826174068745 0.9063077870366557 0
outer loop
vertex 15.5 -67.76794919243112 1
vertex 15.815959713348633 -67.6206147584282 0
vertex 15.499999999999972 -67.76794919243113 0
endloop
endfacet
facet normal -0.5735764363510599 0.8191520442889821 0
outer loop
vertex 15.214424780626956 -67.967911113762 1
vertex 15.5 -67.76794919243112 1
vertex 15.499999999999972 -67.76794919243113 0
endloop
endfacet
facet normal -0.5735764363510599 0.8191520442889821 0
outer loop
vertex 15.214424780626956 -67.967911113762 1
vertex 15.499999999999972 -67.76794919243113 0
vertex 15.214424780626985 -67.96791111376199 0
endloop
endfacet
facet normal -0.7071067811865547 0.7071067811865405 0
outer loop
vertex 14.967911113762057 -68.2144247806269 1
vertex 15.214424780626956 -67.967911113762 1
vertex 15.214424780626985 -67.96791111376199 0
endloop
endfacet
facet normal -0.7071067811865547 0.7071067811865405 0
outer loop
vertex 14.967911113762057 -68.2144247806269 1
vertex 15.214424780626985 -67.96791111376199 0
vertex 14.967911113762028 -68.21442478062696 0
endloop
endfacet
facet normal -0.819152044288981 0.5735764363510616 0
outer loop
vertex 14.767949192431132 -68.5 1
vertex 14.967911113762057 -68.2144247806269 1
vertex 14.967911113762028 -68.21442478062696 0
endloop
endfacet
facet normal -0.819152044288981 0.5735764363510616 0
outer loop
vertex 14.767949192431132 -68.5 1
vertex 14.967911113762028 -68.21442478062696 0
vertex 14.767949192431104 -68.50000000000004 0
endloop
endfacet
facet normal -0.9063077870366388 0.4226182617407234 0
outer loop
vertex 14.62061475842819 -68.81595971334865 1
vertex 14.767949192431132 -68.5 1
vertex 14.767949192431104 -68.50000000000004 0
endloop
endfacet
facet normal -0.9063077870366388 0.4226182617407234 0
outer loop
vertex 14.62061475842819 -68.81595971334865 1
vertex 14.767949192431104 -68.50000000000004 0
vertex 14.62061475842819 -68.81595971334865 0
endloop
endfacet
facet normal -0.965925826289063 0.25881904510254106 0
outer loop
vertex 14.530384493975589 -69.15270364466616 1
vertex 14.62061475842819 -68.81595971334865 1
vertex 14.62061475842819 -68.81595971334865 0
endloop
endfacet
facet normal -0.965925826289063 0.25881904510254106 0
outer loop
vertex 14.530384493975589 -69.15270364466616 1
vertex 14.62061475842819 -68.81595971334865 0
vertex 14.530384493975589 -69.15270364466615 0
endloop
endfacet
facet normal -0.9961946980917459 0.08715574274765459 0
outer loop
vertex 14.5 -69.49999999999997 1
vertex 14.530384493975589 -69.15270364466616 1
vertex 14.530384493975589 -69.15270364466615 0
endloop
endfacet
facet normal -0.9961946980917459 0.08715574274765459 0
outer loop
vertex 14.5 -69.49999999999997 1
vertex 14.530384493975589 -69.15270364466615 0
vertex 14.5 -69.49999999999996 0
endloop
endfacet
facet normal -1 0 0
outer loop
vertex 14.5 -69.49999999999997 1
vertex 14.5 -69.49999999999996 0
vertex 14.5 -185.49999999999997 0
endloop
endfacet
facet normal -1 0 0
outer loop
vertex 14.5 -69.49999999999997 1
vertex 14.5 -185.49999999999997 0
vertex 14.5 -185.49999999999983 1
endloop
endfacet
endsolid csg.js
