solid csg.js
facet normal 0 0 -1
outer loop
vertex 390.35617449999995 -65.475 0
vertex 390.85956777487434 -65.51753081277904 0
vertex 391.34868836697746 -65.64393253829392 0
endloop
endfacet
facet normal 0 0 -1
outer loop
vertex 390.35617449999995 -65.475 0
vertex 391.34868836697746 -65.64393253829392 0
vertex 391.80966385162634 -65.85061575576697 0
endloop
endfacet
facet normal 0 0 -1
outer loop
vertex 390.35617449999995 -65.475 0
vertex 391.80966385162634 -65.85061575576697 0
vertex 392.22942217542635 -66.13171947227218 0
endloop
endfacet
facet normal 0 0 -1
outer loop
vertex 390.35617449999995 -65.475 0
vertex 392.22942217542635 -66.13171947227218 0
vertex 392.5960600953533 -66.47927232509225 0
endloop
endfacet
facet normal 0 0 -1
outer loop
vertex 390.35617449999995 -65.475 0
vertex 392.5960600953533 -66.47927232509225 0
vertex 392.8991807234491 -66.88341862862057 0
endloop
endfacet
facet normal 0 0 -1
outer loop
vertex 390.35617449999995 -65.475 0
vertex 392.8991807234491 -66.88341862862057 0
vertex 393.13018835523894 -67.33269785570158 0
endloop
endfacet
facet normal 0 0 -1
outer loop
vertex 390.35617449999995 -65.475 0
vertex 393.13018835523894 -67.33269785570158 0
vertex 393.2825322213275 -67.81436962807214 0
endloop
endfacet
facet normal 0 0 -1
outer loop
vertex 390.35617449999995 -65.475 0
vertex 393.2825322213275 -67.81436962807214 0
vertex 393.35189225000005 -68.31477499999959 0
endloop
endfacet
facet normal 0 0 -1
outer loop
vertex 390.35617449999995 -65.475 0
vertex 393.35189225000005 -68.31477499999959 0
vertex 396.9793531 -136.1334801000007 0
endloop
endfacet
facet normal 0 0 -1
outer loop
vertex 390.35617449999995 -65.475 0
vertex 396.9793531 -136.1334801000007 0
vertex 396.972454247033 -136.55250190361136 0
endloop
endfacet
facet normal 0 0 -1
outer loop
vertex 390.35617449999995 -65.475 0
vertex 396.972454247033 -136.55250190361136 0
vertex 396.90722925613085 -136.96646864860259 0
endloop
endfacet
facet normal 0 0 -1
outer loop
vertex 390.35617449999995 -65.475 0
vertex 396.90722925613085 -136.96646864860259 0
vertex 396.78495435432404 -137.36730728669122 0
endloop
endfacet
facet normal 0 0 -1
outer loop
vertex 390.35617449999995 -65.475 0
vertex 396.78495435432404 -137.36730728669122 0
vertex 396.6080155701006 -137.74719599675603 0
endloop
endfacet
facet normal 0 0 -1
outer loop
vertex 390.35617449999995 -65.475 0
vertex 396.6080155701006 -137.74719599675603 0
vertex 396.3798656233045 -138.0987217670396 0
endloop
endfacet
facet normal 0 0 -1
outer loop
vertex 390.35617449999995 -65.475 0
vertex 396.3798656233045 -138.0987217670396 0
vertex 396.10495655 -138.41502505000005 0
endloop
endfacet
facet normal 0 0 -1
outer loop
vertex 390.35617449999995 -65.475 0
vertex 396.10495655 -138.41502505000005 0
vertex 363.383875799999 -171.13611410000098 0
endloop
endfacet
facet normal 0 0 -1
outer loop
vertex 390.35617449999995 -65.475 0
vertex 363.383875799999 -171.13611410000098 0
vertex 363.16937671785587 -171.3308323637201 0
endloop
endfacet
facet normal 0 0 -1
outer loop
vertex 390.35617449999995 -65.475 0
vertex 363.16937671785587 -171.3308323637201 0
vertex 362.93709470957646 -171.5039504712899 0
endloop
endfacet
facet normal 0 0 -1
outer loop
vertex 390.35617449999995 -65.475 0
vertex 362.93709470957646 -171.5039504712899 0
vertex 362.6891978999989 -171.65385705000065 0
endloop
endfacet
facet normal 0 0 -1
outer loop
vertex 390.35617449999995 -65.475 0
vertex 362.6891978999989 -171.65385705000065 0
vertex 329.63051861353944 -189.52499715000002 0
endloop
endfacet
facet normal 0 0 -1
outer loop
vertex 390.35617449999995 -65.475 0
vertex 329.63051861353944 -189.52499715000002 0
vertex 288.4410517 -189.52499715000002 0
endloop
endfacet
facet normal 0 0 -1
outer loop
vertex 390.35617449999995 -65.475 0
vertex 288.4410517 -189.52499715000002 0
vertex 15.475000000000307 -189.525 0
endloop
endfacet
facet normal 0 0 -1
outer loop
vertex 390.35617449999995 -65.475 0
vertex 15.475000000000307 -189.525 0
vertex 14.95405546699908 -189.4794232590366 0
endloop
endfacet
facet normal 0 0 -1
outer loop
vertex 390.35617449999995 -65.475 0
vertex 14.95405546699908 -189.4794232590366 0
vertex 14.448939570023242 -189.3440778623578 0
endloop
endfacet
facet normal 0 0 -1
outer loop
vertex 390.35617449999995 -65.475 0
vertex 14.448939570023242 -189.3440778623578 0
vertex 13.974999999999994 -189.1230762113533 0
endloop
endfacet
facet normal 0 0 -1
outer loop
vertex 390.35617449999995 -65.475 0
vertex 13.974999999999994 -189.1230762113533 0
vertex 13.546637170940329 -188.8231333293569 0
endloop
endfacet
facet normal 0 0 -1
outer loop
vertex 390.35617449999995 -65.475 0
vertex 13.546637170940329 -188.8231333293569 0
vertex 13.17686667064305 -188.4533628290596 0
endloop
endfacet
facet normal 0 0 -1
outer loop
vertex 390.35617449999995 -65.475 0
vertex 13.17686667064305 -188.4533628290596 0
vertex 12.876923788646678 -188.025 0
endloop
endfacet
facet normal 0 0 -1
outer loop
vertex 390.35617449999995 -65.475 0
vertex 12.876923788646678 -188.025 0
vertex 12.655922137642278 -187.55106042997704 0
endloop
endfacet
facet normal 0 0 -1
outer loop
vertex 390.35617449999995 -65.475 0
vertex 12.655922137642278 -187.55106042997704 0
vertex 12.520576740963378 -187.04594453300078 0
endloop
endfacet
facet normal 0 0 -1
outer loop
vertex 390.35617449999995 -65.475 0
vertex 12.520576740963378 -187.04594453300078 0
vertex 12.474999999999994 -186.525 0
endloop
endfacet
facet normal 0 0 -1
outer loop
vertex 390.35617449999995 -65.475 0
vertex 12.474999999999994 -186.525 0
vertex 12.474999999999994 -68.47500000000001 0
endloop
endfacet
facet normal 0 0 -1
outer loop
vertex 390.35617449999995 -65.475 0
vertex 12.474999999999994 -68.47500000000001 0
vertex 12.520576740963378 -67.95405546699916 0
endloop
endfacet
facet normal 0 0 -1
outer loop
vertex 390.35617449999995 -65.475 0
vertex 12.520576740963378 -67.95405546699916 0
vertex 12.65592213764225 -67.44893957002301 0
endloop
endfacet
facet normal 0 0 -1
outer loop
vertex 390.35617449999995 -65.475 0
vertex 12.65592213764225 -67.44893957002301 0
vertex 12.876923788646678 -66.97500000000002 0
endloop
endfacet
facet normal 0 0 -1
outer loop
vertex 390.35617449999995 -65.475 0
vertex 12.876923788646678 -66.97500000000002 0
vertex 13.176866670643108 -66.54663717094031 0
endloop
endfacet
facet normal 0 0 -1
outer loop
vertex 390.35617449999995 -65.475 0
vertex 13.176866670643108 -66.54663717094031 0
vertex 13.546637170940357 -66.1768666706431 0
endloop
endfacet
facet normal 0 0 -1
outer loop
vertex 390.35617449999995 -65.475 0
vertex 13.546637170940357 -66.1768666706431 0
vertex 13.975000000000051 -65.87692378864665 0
endloop
endfacet
facet normal 0 0 -1
outer loop
vertex 390.35617449999995 -65.475 0
vertex 13.975000000000051 -65.87692378864665 0
vertex 14.448939570022901 -65.65592213764229 0
endloop
endfacet
facet normal 0 0 -1
outer loop
vertex 390.35617449999995 -65.475 0
vertex 14.448939570022901 -65.65592213764229 0
vertex 14.95405546699925 -65.52057674096336 0
endloop
endfacet
facet normal 0 0 -1
outer loop
vertex 390.35617449999995 -65.475 0
vertex 14.95405546699925 -65.52057674096336 0
vertex 15.474999999999966 -65.475 0
endloop
endfacet
facet normal 0 0 -1
outer loop
vertex 329.63051861353944 -189.52499715000002 0
vertex 329.620109860703 -189.5306239993715 0
vertex 288.6246559748721 -189.5306239993715 0
endloop
endfacet
facet normal 0 0 -1
outer loop
vertex 329.63051861353944 -189.52499715000002 0
vertex 288.6246559748721 -189.5306239993715 0
vertex 288.4410517 -189.52499715000002 0
endloop
endfacet
facet normal 0 0 -1
outer loop
vertex 329.620109860703 -189.5306239993715 0
vertex 329.5889395551049 -189.54747430000012 0
vertex 288.807573400001 -189.54747430000012 0
endloop
endfacet
facet normal 0 0 -1
outer loop
vertex 329.620109860703 -189.5306239993715 0
vertex 288.807573400001 -189.54747430000012 0
vertex 288.6246559748721 -189.5306239993715 0
endloop
endfacet
facet normal 0 0 -1
outer loop
vertex 329.5889395551049 -189.54747430000012 0
vertex 322.8675582000007 -193.18097489999968 0
vertex 322.5312767549918 -193.33674082096218 0
endloop
endfacet
facet normal 0 0 -1
outer loop
vertex 329.5889395551049 -189.54747430000012 0
vertex 322.5312767549918 -193.33674082096218 0
vertex 322.1783542139936 -193.44985704884988 0
endloop
endfacet
facet normal 0 0 -1
outer loop
vertex 329.5889395551049 -189.54747430000012 0
vertex 322.1783542139936 -193.44985704884988 0
vertex 321.8141774514684 -193.5185948593565 0
endloop
endfacet
facet normal 0 0 -1
outer loop
vertex 329.5889395551049 -189.54747430000012 0
vertex 321.8141774514684 -193.5185948593565 0
vertex 321.44430419330786 -193.54190524016582 0
endloop
endfacet
facet normal 0 0 -1
outer loop
vertex 329.5889395551049 -189.54747430000012 0
vertex 321.44430419330786 -193.54190524016582 0
vertex 321.07437909999936 -193.51943244999993 0
endloop
endfacet
facet normal 0 0 -1
outer loop
vertex 329.5889395551049 -189.54747430000012 0
vertex 321.07437909999936 -193.51943244999993 0
vertex 288.807573400001 -189.54747430000012 0
endloop
endfacet
facet normal 0 0 1
outer loop
vertex 321.8141774514686 -193.51859485935648 1
vertex 322.17835421399354 -193.44985704884988 1
vertex 322.5312767549922 -193.33674082096204 1
endloop
endfacet
facet normal 0 0 1
outer loop
vertex 321.8141774514686 -193.51859485935648 1
vertex 322.5312767549922 -193.33674082096204 1
vertex 322.86755819999996 -193.18097490000002 1
endloop
endfacet
facet normal 0 0 1
outer loop
vertex 321.8141774514686 -193.51859485935648 1
vertex 322.86755819999996 -193.18097490000002 1
vertex 327.4207135007946 -190.71959180558272 1
endloop
endfacet
facet normal 0 0 1
outer loop
vertex 321.8141774514686 -193.51859485935648 1
vertex 327.4207135007946 -190.71959180558272 1
vertex 289.1744818230577 -189.54747430000006 1
endloop
endfacet
facet normal 0 0 1
outer loop
vertex 321.8141774514686 -193.51859485935648 1
vertex 289.1744818230577 -189.54747430000006 1
vertex 288.8075734000004 -189.54747430000006 1
endloop
endfacet
facet normal 0 0 1
outer loop
vertex 321.8141774514686 -193.51859485935648 1
vertex 288.8075734000004 -189.54747430000006 1
vertex 321.07437909999965 -193.51943244999995 1
endloop
endfacet
facet normal 0 0 1
outer loop
vertex 321.8141774514686 -193.51859485935648 1
vertex 321.07437909999965 -193.51943244999995 1
vertex 321.44430419330774 -193.54190524016582 1
endloop
endfacet
facet normal 0 0 1
outer loop
vertex 289.1744818230577 -189.54747430000006 1
vertex 288.62465597487176 -189.53062399937147 1
vertex 288.8075734000004 -189.54747430000006 1
endloop
endfacet
facet normal 0 0 1
outer loop
vertex 329.6305186135395 -189.5249967199466 1
vertex 288.4410517000009 -189.5249967199466 1
vertex 288.62465597487176 -189.53062399937147 1
endloop
endfacet
facet normal 0 0 1
outer loop
vertex 329.6305186135395 -189.5249967199466 1
vertex 288.62465597487176 -189.53062399937147 1
vertex 289.1744818230577 -189.54747430000006 1
endloop
endfacet
facet normal 0 0 1
outer loop
vertex 329.6305186135395 -189.5249967199466 1
vertex 289.1744818230577 -189.54747430000006 1
vertex 327.4207135007946 -190.71959180558272 1
endloop
endfacet
facet normal 0 0 1
outer loop
vertex 288.4410517000009 -189.5249967199466 1
vertex 329.6305186135395 -189.5249967199466 1
vertex 362.68919789999904 -171.65385705000057 1
endloop
endfacet
facet normal 0 0 1
outer loop
vertex 288.4410517000009 -189.5249967199466 1
vertex 362.68919789999904 -171.65385705000057 1
vertex 362.93709470957623 -171.50395047129007 1
endloop
endfacet
facet normal 0 0 1
outer loop
vertex 288.4410517000009 -189.5249967199466 1
vertex 362.93709470957623 -171.50395047129007 1
vertex 363.1693767178561 -171.33083236371994 1
endloop
endfacet
facet normal 0 0 1
outer loop
vertex 288.4410517000009 -189.5249967199466 1
vertex 363.1693767178561 -171.33083236371994 1
vertex 363.3838757999994 -171.13611410000067 1
endloop
endfacet
facet normal 0 0 1
outer loop
vertex 288.4410517000009 -189.5249967199466 1
vertex 363.3838757999994 -171.13611410000067 1
vertex 396.1049565499994 -138.41502505000068 1
endloop
endfacet
facet normal 0 0 1
outer loop
vertex 288.4410517000009 -189.5249967199466 1
vertex 396.1049565499994 -138.41502505000068 1
vertex 396.37986562330474 -138.09872176703922 1
endloop
endfacet
facet normal 0 0 1
outer loop
vertex 288.4410517000009 -189.5249967199466 1
vertex 396.37986562330474 -138.09872176703922 1
vertex 396.60801557010086 -137.74719599675555 1
endloop
endfacet
facet normal 0 0 1
outer loop
vertex 288.4410517000009 -189.5249967199466 1
vertex 396.60801557010086 -137.74719599675555 1
vertex 396.7849543543239 -137.3673072866917 1
endloop
endfacet
facet normal 0 0 1
outer loop
vertex 288.4410517000009 -189.5249967199466 1
vertex 396.7849543543239 -137.3673072866917 1
vertex 396.90722925613085 -136.96646864860247 1
endloop
endfacet
facet normal 0 0 1
outer loop
vertex 288.4410517000009 -189.5249967199466 1
vertex 396.90722925613085 -136.96646864860247 1
vertex 396.97245424703306 -136.55250190361105 1
endloop
endfacet
facet normal 0 0 1
outer loop
vertex 288.4410517000009 -189.5249967199466 1
vertex 396.97245424703306 -136.55250190361105 1
vertex 396.9793531000001 -136.1334801000009 1
endloop
endfacet
facet normal 0 0 1
outer loop
vertex 288.4410517000009 -189.5249967199466 1
vertex 396.9793531000001 -136.1334801000009 1
vertex 393.35189225000005 -68.31477499999957 1
endloop
endfacet
facet normal 0 0 1
outer loop
vertex 288.4410517000009 -189.5249967199466 1
vertex 393.35189225000005 -68.31477499999957 1
vertex 393.2825322213275 -67.81436962807203 1
endloop
endfacet
facet normal 0 0 1
outer loop
vertex 288.4410517000009 -189.5249967199466 1
vertex 393.2825322213275 -67.81436962807203 1
vertex 393.13018835523906 -67.33269785570171 1
endloop
endfacet
facet normal 0 0 1
outer loop
vertex 288.4410517000009 -189.5249967199466 1
vertex 393.13018835523906 -67.33269785570171 1
vertex 392.8991807234493 -66.88341862862096 1
endloop
endfacet
facet normal 0 0 1
outer loop
vertex 288.4410517000009 -189.5249967199466 1
vertex 392.8991807234493 -66.88341862862096 1
vertex 392.59606009535327 -66.47927232509221 1
endloop
endfacet
facet normal 0 0 1
outer loop
vertex 288.4410517000009 -189.5249967199466 1
vertex 392.59606009535327 -66.47927232509221 1
vertex 392.22942217542635 -66.13171947227218 1
endloop
endfacet
facet normal 0 0 1
outer loop
vertex 288.4410517000009 -189.5249967199466 1
vertex 392.22942217542635 -66.13171947227218 1
vertex 391.80966385162634 -65.85061575576697 1
endloop
endfacet
facet normal 0 0 1
outer loop
vertex 288.4410517000009 -189.5249967199466 1
vertex 391.80966385162634 -65.85061575576697 1
vertex 391.3486883669775 -65.64393253829394 1
endloop
endfacet
facet normal 0 0 1
outer loop
vertex 288.4410517000009 -189.5249967199466 1
vertex 391.3486883669775 -65.64393253829394 1
vertex 390.8595677748744 -65.51753081277904 1
endloop
endfacet
facet normal 0 0 1
outer loop
vertex 288.4410517000009 -189.5249967199466 1
vertex 390.8595677748744 -65.51753081277904 1
vertex 390.3561745 -65.475 1
endloop
endfacet
facet normal 0 0 1
outer loop
vertex 288.4410517000009 -189.5249967199466 1
vertex 390.3561745 -65.475 1
vertex 15.474999999999909 -65.475 1
endloop
endfacet
facet normal 0 0 1
outer loop
vertex 288.4410517000009 -189.5249967199466 1
vertex 15.474999999999909 -65.475 1
vertex 14.954055466999307 -65.52057674096335 1
endloop
endfacet
facet normal 0 0 1
outer loop
vertex 288.4410517000009 -189.5249967199466 1
vertex 14.954055466999307 -65.52057674096335 1
vertex 14.448939570022901 -65.65592213764229 1
endloop
endfacet
facet normal 0 0 1
outer loop
vertex 288.4410517000009 -189.5249967199466 1
vertex 14.448939570022901 -65.65592213764229 1
vertex 13.975000000000023 -65.87692378864665 1
endloop
endfacet
facet normal 0 0 1
outer loop
vertex 288.4410517000009 -189.5249967199466 1
vertex 13.975000000000023 -65.87692378864665 1
vertex 13.546637170940329 -66.1768666706431 1
endloop
endfacet
facet normal 0 0 1
outer loop
vertex 288.4410517000009 -189.5249967199466 1
vertex 13.546637170940329 -66.1768666706431 1
vertex 13.176866670643136 -66.54663717094029 1
endloop
endfacet
facet normal 0 0 1
outer loop
vertex 288.4410517000009 -189.5249967199466 1
vertex 13.176866670643136 -66.54663717094029 1
vertex 12.876923788646678 -66.97500000000002 1
endloop
endfacet
facet normal 0 0 1
outer loop
vertex 288.4410517000009 -189.5249967199466 1
vertex 12.876923788646678 -66.97500000000002 1
vertex 12.655922137642278 -67.448939570023 1
endloop
endfacet
facet normal 0 0 1
outer loop
vertex 288.4410517000009 -189.5249967199466 1
vertex 12.655922137642278 -67.448939570023 1
vertex 12.520576740963378 -67.95405546699915 1
endloop
endfacet
facet normal 0 0 1
outer loop
vertex 288.4410517000009 -189.5249967199466 1
vertex 12.520576740963378 -67.95405546699915 1
vertex 12.474999999999994 -68.47500000000002 1
endloop
endfacet
facet normal 0 0 1
outer loop
vertex 288.4410517000009 -189.5249967199466 1
vertex 12.474999999999994 -68.47500000000002 1
vertex 12.474999999999994 -186.52499999999975 1
endloop
endfacet
facet normal 0 0 1
outer loop
vertex 288.4410517000009 -189.5249967199466 1
vertex 12.474999999999994 -186.52499999999975 1
vertex 12.520576740963406 -187.0459445330009 1
endloop
endfacet
facet normal 0 0 1
outer loop
vertex 288.4410517000009 -189.5249967199466 1
vertex 12.520576740963406 -187.0459445330009 1
vertex 12.655922137642307 -187.55106042997704 1
endloop
endfacet
facet normal 0 0 1
outer loop
vertex 288.4410517000009 -189.5249967199466 1
vertex 12.655922137642307 -187.55106042997704 1
vertex 12.876923788646707 -188.02500000000003 1
endloop
endfacet
facet normal 0 0 1
outer loop
vertex 288.4410517000009 -189.5249967199466 1
vertex 12.876923788646707 -188.02500000000003 1
vertex 13.176866670643022 -188.45336282905956 1
endloop
endfacet
facet normal 0 0 1
outer loop
vertex 288.4410517000009 -189.5249967199466 1
vertex 13.176866670643022 -188.45336282905956 1
vertex 13.546637170940414 -188.82313332935698 1
endloop
endfacet
facet normal 0 0 1
outer loop
vertex 288.4410517000009 -189.5249967199466 1
vertex 13.546637170940414 -188.82313332935698 1
vertex 13.974999999999909 -189.12307621135326 1
endloop
endfacet
facet normal 0 0 1
outer loop
vertex 288.4410517000009 -189.5249967199466 1
vertex 13.974999999999909 -189.12307621135326 1
vertex 14.448939570023128 -189.34407786235778 1
endloop
endfacet
facet normal 0 0 1
outer loop
vertex 288.4410517000009 -189.5249967199466 1
vertex 14.448939570023128 -189.34407786235778 1
vertex 14.954055466999051 -189.4794232590366 1
endloop
endfacet
facet normal 0 0 1
outer loop
vertex 288.4410517000009 -189.5249967199466 1
vertex 14.954055466999051 -189.4794232590366 1
vertex 15.475000000000449 -189.52500000000003 1
endloop
endfacet
facet normal -0.996194698091746 -0.0871557427476537 0
outer loop
vertex 12.520576740963406 -187.0459445330009 1
vertex 12.474999999999994 -186.52499999999975 1
vertex 12.474999999999994 -186.525 0
endloop
endfacet
facet normal -0.996194698091746 -0.0871557427476537 0
outer loop
vertex 12.520576740963406 -187.0459445330009 1
vertex 12.474999999999994 -186.525 0
vertex 12.520576740963378 -187.04594453300078 0
endloop
endfacet
facet normal -0.9659258262890629 -0.2588190451025413 0
outer loop
vertex 12.655922137642307 -187.55106042997704 1
vertex 12.520576740963406 -187.0459445330009 1
vertex 12.520576740963378 -187.04594453300078 0
endloop
endfacet
facet normal -0.9659258262890629 -0.2588190451025413 0
outer loop
vertex 12.655922137642307 -187.55106042997704 1
vertex 12.520576740963378 -187.04594453300078 0
vertex 12.655922137642278 -187.55106042997704 0
endloop
endfacet
facet normal -0.9063077870366288 -0.42261826174074496 0
outer loop
vertex 12.876923788646707 -188.02500000000003 1
vertex 12.655922137642307 -187.55106042997704 1
vertex 12.655922137642278 -187.55106042997704 0
endloop
endfacet
facet normal -0.9063077870366288 -0.42261826174074496 0
outer loop
vertex 12.876923788646707 -188.02500000000003 1
vertex 12.655922137642278 -187.55106042997704 0
vertex 12.876923788646678 -188.025 0
endloop
endfacet
facet normal -0.8191520442889617 -0.5735764363510889 0
outer loop
vertex 13.176866670643022 -188.45336282905956 1
vertex 12.876923788646707 -188.02500000000003 1
vertex 12.876923788646678 -188.025 0
endloop
endfacet
facet normal -0.8191520442889617 -0.5735764363510889 0
outer loop
vertex 13.176866670643022 -188.45336282905956 1
vertex 12.876923788646678 -188.025 0
vertex 13.17686667064305 -188.4533628290596 0
endloop
endfacet
facet normal -0.7071067811865831 -0.707106781186512 0
outer loop
vertex 13.546637170940414 -188.82313332935698 1
vertex 13.176866670643022 -188.45336282905956 1
vertex 13.17686667064305 -188.4533628290596 0
endloop
endfacet
facet normal -0.7071067811865831 -0.707106781186512 0
outer loop
vertex 13.546637170940414 -188.82313332935698 1
vertex 13.17686667064305 -188.4533628290596 0
vertex 13.546637170940329 -188.8231333293569 0
endloop
endfacet
facet normal -0.5735764363510504 -0.8191520442889888 0
outer loop
vertex 13.974999999999909 -189.12307621135326 1
vertex 13.546637170940414 -188.82313332935698 1
vertex 13.546637170940329 -188.8231333293569 0
endloop
endfacet
facet normal -0.5735764363510504 -0.8191520442889888 0
outer loop
vertex 13.974999999999909 -189.12307621135326 1
vertex 13.546637170940329 -188.8231333293569 0
vertex 13.974999999999994 -189.1230762113533 0
endloop
endfacet
facet normal -0.42261826174069467 -0.9063077870366523 0
outer loop
vertex 14.448939570023128 -189.34407786235778 1
vertex 13.974999999999909 -189.12307621135326 1
vertex 13.974999999999994 -189.1230762113533 0
endloop
endfacet
facet normal -0.42261826174069467 -0.9063077870366523 0
outer loop
vertex 14.448939570023128 -189.34407786235778 1
vertex 13.974999999999994 -189.1230762113533 0
vertex 14.448939570023242 -189.3440778623578 0
endloop
endfacet
facet normal -0.25881904510251214 -0.9659258262890708 0
outer loop
vertex 14.954055466999051 -189.4794232590366 1
vertex 14.448939570023128 -189.34407786235778 1
vertex 14.448939570023242 -189.3440778623578 0
endloop
endfacet
facet normal -0.25881904510251214 -0.9659258262890708 0
outer loop
vertex 14.954055466999051 -189.4794232590366 1
vertex 14.448939570023242 -189.3440778623578 0
vertex 14.95405546699908 -189.4794232590366 0
endloop
endfacet
facet normal -0.08715574274768315 -0.9961946980917434 0
outer loop
vertex 15.475000000000449 -189.52500000000003 1
vertex 14.954055466999051 -189.4794232590366 1
vertex 14.95405546699908 -189.4794232590366 0
endloop
endfacet
facet normal -0.08715574274768315 -0.9961946980917434 0
outer loop
vertex 15.475000000000449 -189.52500000000003 1
vertex 14.95405546699908 -189.4794232590366 0
vertex 15.475000000000307 -189.525 0
endloop
endfacet
facet normal 1.0440885489515495e-8 -1 0
outer loop
vertex 288.4410517000009 -189.5249967199466 1
vertex 15.475000000000449 -189.52500000000003 1
vertex 15.475000000000307 -189.525 0
endloop
endfacet
facet normal 1.0440885489515495e-8 -1 0
outer loop
vertex 288.4410517000009 -189.5249967199466 1
vertex 15.475000000000307 -189.525 0
vertex 288.4410517 -189.52499715000002 0
endloop
endfacet
facet normal -0.030632232417985968 -0.9995307230581212 0
outer loop
vertex 288.62465597487176 -189.53062399937147 1
vertex 288.4410517000009 -189.5249967199466 1
vertex 288.4410517 -189.52499715000002 0
endloop
endfacet
facet normal -0.030632232417985968 -0.9995307230581212 0
outer loop
vertex 288.62465597487176 -189.53062399937147 1
vertex 288.4410517 -189.52499715000002 0
vertex 288.6246559748721 -189.5306239993715 0
endloop
endfacet
facet normal -0.09173131694510062 -0.9957837945515671 0
outer loop
vertex 288.8075734000004 -189.54747430000006 1
vertex 288.62465597487176 -189.53062399937147 1
vertex 288.6246559748721 -189.5306239993715 0
endloop
endfacet
facet normal -0.09173131694510062 -0.9957837945515671 0
outer loop
vertex 288.8075734000004 -189.54747430000006 1
vertex 288.6246559748721 -189.5306239993715 0
vertex 288.807573400001 -189.54747430000012 0
endloop
endfacet
facet normal -0.12217516891297447 -0.9925085531626849 0
outer loop
vertex 321.07437909999965 -193.51943244999995 1
vertex 288.8075734000004 -189.54747430000006 1
vertex 288.807573400001 -189.54747430000012 0
endloop
endfacet
facet normal -0.12217516891297447 -0.9925085531626849 0
outer loop
vertex 321.07437909999965 -193.51943244999995 1
vertex 288.807573400001 -189.54747430000012 0
vertex 321.07437909999936 -193.51943244999993 0
endloop
endfacet
facet normal -0.060637780371877184 -0.9981598366952922 0
outer loop
vertex 321.44430419330774 -193.54190524016582 1
vertex 321.07437909999965 -193.51943244999995 1
vertex 321.07437909999936 -193.51943244999993 0
endloop
endfacet
facet normal -0.060637780371877184 -0.9981598366952922 0
outer loop
vertex 321.44430419330774 -193.54190524016582 1
vertex 321.07437909999936 -193.51943244999993 0
vertex 321.44430419330786 -193.54190524016582 0
endloop
endfacet
facet normal 0.06289783073094665 -0.9980199711876216 0
outer loop
vertex 321.8141774514686 -193.51859485935648 1
vertex 321.44430419330774 -193.54190524016582 1
vertex 321.44430419330786 -193.54190524016582 0
endloop
endfacet
facet normal 0.06289783073094665 -0.9980199711876216 0
outer loop
vertex 321.8141774514686 -193.51859485935648 1
vertex 321.44430419330786 -193.54190524016582 0
vertex 321.8141774514684 -193.5185948593565 0
endloop
endfacet
facet normal 0.1854735538392444 -0.9826492562589364 0
outer loop
vertex 322.17835421399354 -193.44985704884988 1
vertex 321.8141774514686 -193.51859485935648 1
vertex 321.8141774514684 -193.5185948593565 0
endloop
endfacet
facet normal 0.1854735538392444 -0.9826492562589364 0
outer loop
vertex 322.17835421399354 -193.44985704884988 1
vertex 321.8141774514684 -193.5185948593565 0
vertex 322.1783542139936 -193.44985704884988 0
endloop
endfacet
facet normal 0.3052187526576522 -0.9522822654161458 0
outer loop
vertex 322.5312767549922 -193.33674082096204 1
vertex 322.17835421399354 -193.44985704884988 1
vertex 322.1783542139936 -193.44985704884988 0
endloop
endfacet
facet normal 0.3052187526576522 -0.9522822654161458 0
outer loop
vertex 322.5312767549922 -193.33674082096204 1
vertex 322.1783542139936 -193.44985704884988 0
vertex 322.5312767549918 -193.33674082096218 0
endloop
endfacet
facet normal 0.4203014709065073 -0.9073845235366461 0
outer loop
vertex 322.86755819999996 -193.18097490000002 1
vertex 322.5312767549922 -193.33674082096204 1
vertex 322.5312767549918 -193.33674082096218 0
endloop
endfacet
facet normal 0.4203014709065073 -0.9073845235366461 0
outer loop
vertex 322.86755819999996 -193.18097490000002 1
vertex 322.5312767549918 -193.33674082096218 0
vertex 322.8675582000007 -193.18097489999968 0
endloop
endfacet
facet normal 0 0 -1
outer loop
vertex 362.68919789999904 -171.65385705000057 1
vertex 329.6305186135395 -189.5249967199466 1
vertex 327.4207135007946 -190.71959180558272 1
endloop
endfacet
facet normal 0 0 -1
outer loop
vertex 362.68919789999904 -171.65385705000057 1
vertex 327.4207135007946 -190.71959180558272 1
vertex 322.86755819999996 -193.18097490000002 1
endloop
endfacet
facet normal 0 0 -1
outer loop
vertex 362.68919789999904 -171.65385705000057 1
vertex 322.86755819999996 -193.18097490000002 1
vertex 322.8675582000007 -193.18097489999968 0
endloop
endfacet
facet normal 0 0 -1
outer loop
vertex 362.68919789999904 -171.65385705000057 1
vertex 322.8675582000007 -193.18097489999968 0
vertex 329.5889395551049 -189.54747430000012 0
endloop
endfacet
facet normal 0 0 -1
outer loop
vertex 362.68919789999904 -171.65385705000057 1
vertex 329.5889395551049 -189.54747430000012 0
vertex 329.620109860703 -189.5306239993715 0
endloop
endfacet
facet normal 0 0 -1
outer loop
vertex 362.68919789999904 -171.65385705000057 1
vertex 329.620109860703 -189.5306239993715 0
vertex 329.63051861353944 -189.52499715000002 0
endloop
endfacet
facet normal 0 0 -1
outer loop
vertex 362.68919789999904 -171.65385705000057 1
vertex 329.63051861353944 -189.52499715000002 0
vertex 362.6891978999989 -171.65385705000065 0
endloop
endfacet
facet normal 0.517458479092795 -0.8557083162006617 0
outer loop
vertex 362.93709470957623 -171.50395047129007 1
vertex 362.68919789999904 -171.65385705000057 1
vertex 362.6891978999989 -171.65385705000065 0
endloop
endfacet
facet normal 0.517458479092795 -0.8557083162006617 0
outer loop
vertex 362.93709470957623 -171.50395047129007 1
vertex 362.6891978999989 -171.65385705000065 0
vertex 362.93709470957646 -171.5039504712899 0
endloop
endfacet
facet normal 0.5975817300166094 -0.8018080044189857 0
outer loop
vertex 363.1693767178561 -171.33083236371994 1
vertex 362.93709470957623 -171.50395047129007 1
vertex 362.93709470957646 -171.5039504712899 0
endloop
endfacet
facet normal 0.5975817300166094 -0.8018080044189857 0
outer loop
vertex 363.1693767178561 -171.33083236371994 1
vertex 362.93709470957646 -171.5039504712899 0
vertex 363.16937671785587 -171.3308323637201 0
endloop
endfacet
facet normal 0.6721417341021824 -0.7404225072741315 0
outer loop
vertex 363.3838757999994 -171.13611410000067 1
vertex 363.1693767178561 -171.33083236371994 1
vertex 363.16937671785587 -171.3308323637201 0
endloop
endfacet
facet normal 0.6721417341021824 -0.7404225072741315 0
outer loop
vertex 363.3838757999994 -171.13611410000067 1
vertex 363.16937671785587 -171.3308323637201 0
vertex 363.383875799999 -171.13611410000098 0
endloop
endfacet
facet normal 0.7071068708685744 -0.7071066915045094 0
outer loop
vertex 396.1049565499994 -138.41502505000068 1
vertex 363.3838757999994 -171.13611410000067 1
vertex 363.383875799999 -171.13611410000098 0
endloop
endfacet
facet normal 0.7071068708685744 -0.7071066915045094 0
outer loop
vertex 396.1049565499994 -138.41502505000068 1
vertex 363.383875799999 -171.13611410000098 0
vertex 396.10495655 -138.41502505000005 0
endloop
endfacet
facet normal 0.7547676781727161 -0.6559921889670389 0
outer loop
vertex 396.37986562330474 -138.09872176703922 1
vertex 396.1049565499994 -138.41502505000068 1
vertex 396.10495655 -138.41502505000005 0
endloop
endfacet
facet normal 0.7547676781727161 -0.6559921889670389 0
outer loop
vertex 396.37986562330474 -138.09872176703922 1
vertex 396.10495655 -138.41502505000005 0
vertex 396.3798656233045 -138.0987217670396 0
endloop
endfacet
facet normal 0.8388161101955468 -0.544414854018893 0
outer loop
vertex 396.60801557010086 -137.74719599675555 1
vertex 396.37986562330474 -138.09872176703922 1
vertex 396.3798656233045 -138.0987217670396 0
endloop
endfacet
facet normal 0.8388161101955468 -0.544414854018893 0
outer loop
vertex 396.60801557010086 -137.74719599675555 1
vertex 396.3798656233045 -138.0987217670396 0
vertex 396.6080155701006 -137.74719599675603 0
endloop
endfacet
facet normal 0.9064961861149073 -0.4222140032721882 0
outer loop
vertex 396.7849543543239 -137.3673072866917 1
vertex 396.60801557010086 -137.74719599675555 1
vertex 396.6080155701006 -137.74719599675603 0
endloop
endfacet
facet normal 0.9064961861149073 -0.4222140032721882 0
outer loop
vertex 396.7849543543239 -137.3673072866917 1
vertex 396.6080155701006 -137.74719599675603 0
vertex 396.78495435432404 -137.36730728669122 0
endloop
endfacet
facet normal 0.9564872212533758 -0.2917742202097294 0
outer loop
vertex 396.90722925613085 -136.96646864860247 1
vertex 396.7849543543239 -137.3673072866917 1
vertex 396.78495435432404 -137.36730728669122 0
endloop
endfacet
facet normal 0.9564872212533758 -0.2917742202097294 0
outer loop
vertex 396.90722925613085 -136.96646864860247 1
vertex 396.78495435432404 -137.36730728669122 0
vertex 396.90722925613085 -136.96646864860259 0
endloop
endfacet
facet normal 0.9878137085182561 -0.15564085987750723 0
outer loop
vertex 396.97245424703306 -136.55250190361105 1
vertex 396.90722925613085 -136.96646864860247 1
vertex 396.90722925613085 -136.96646864860259 0
endloop
endfacet
facet normal 0.9878137085182561 -0.15564085987750723 0
outer loop
vertex 396.97245424703306 -136.55250190361105 1
vertex 396.90722925613085 -136.96646864860259 0
vertex 396.972454247033 -136.55250190361136 0
endloop
endfacet
facet normal 0.9998644928358094 -0.016461955114436936 0
outer loop
vertex 396.9793531000001 -136.1334801000009 1
vertex 396.97245424703306 -136.55250190361105 1
vertex 396.972454247033 -136.55250190361136 0
endloop
endfacet
facet normal 0.9998644928358094 -0.016461955114436936 0
outer loop
vertex 396.9793531000001 -136.1334801000009 1
vertex 396.972454247033 -136.55250190361136 0
vertex 396.9793531 -136.1334801000007 0
endloop
endfacet
facet normal 0.9985725995072798 0.053411267662113425 0
outer loop
vertex 393.35189225000005 -68.31477499999957 1
vertex 396.9793531000001 -136.1334801000009 1
vertex 396.9793531 -136.1334801000007 0
endloop
endfacet
facet normal 0.9985725995072798 0.053411267662113425 0
outer loop
vertex 393.35189225000005 -68.31477499999957 1
vertex 396.9793531 -136.1334801000007 0
vertex 393.35189225000005 -68.31477499999959 0
endloop
endfacet
facet normal 0.9905301899853642 0.13729509360337036 0
outer loop
vertex 393.2825322213275 -67.81436962807203 1
vertex 393.35189225000005 -68.31477499999957 1
vertex 393.35189225000005 -68.31477499999959 0
endloop
endfacet
facet normal 0.9905301899853642 0.13729509360337036 0
outer loop
vertex 393.2825322213275 -67.81436962807203 1
vertex 393.35189225000005 -68.31477499999959 0
vertex 393.2825322213275 -67.81436962807214 0
endloop
endfacet
facet normal 0.9534478623942932 0.30155791101503665 0
outer loop
vertex 393.13018835523906 -67.33269785570171 1
vertex 393.2825322213275 -67.81436962807203 1
vertex 393.2825322213275 -67.81436962807214 0
endloop
endfacet
facet normal 0.9534478623942932 0.30155791101503665 0
outer loop
vertex 393.13018835523906 -67.33269785570171 1
vertex 393.2825322213275 -67.81436962807214 0
vertex 393.13018835523894 -67.33269785570158 0
endloop
endfacet
facet normal 0.8893282588925854 0.457269338503122 0
outer loop
vertex 392.8991807234493 -66.88341862862096 1
vertex 393.13018835523906 -67.33269785570171 1
vertex 393.13018835523894 -67.33269785570158 0
endloop
endfacet
facet normal 0.8893282588925854 0.457269338503122 0
outer loop
vertex 392.8991807234493 -66.88341862862096 1
vertex 393.13018835523894 -67.33269785570158 0
vertex 392.8991807234491 -66.88341862862057 0
endloop
endfacet
facet normal 0.7999896429422314 0.6000138091620568 0
outer loop
vertex 392.59606009535327 -66.47927232509221 1
vertex 392.8991807234493 -66.88341862862096 1
vertex 392.8991807234491 -66.88341862862057 0
endloop
endfacet
facet normal 0.7999896429422314 0.6000138091620568 0
outer loop
vertex 392.59606009535327 -66.47927232509221 1
vertex 392.8991807234491 -66.88341862862057 0
vertex 392.5960600953533 -66.47927232509225 0
endloop
endfacet
facet normal 0.687965422928021 0.7257434649071732 0
outer loop
vertex 392.22942217542635 -66.13171947227218 1
vertex 392.59606009535327 -66.47927232509221 1
vertex 392.5960600953533 -66.47927232509225 0
endloop
endfacet
facet normal 0.687965422928021 0.7257434649071732 0
outer loop
vertex 392.22942217542635 -66.13171947227218 1
vertex 392.5960600953533 -66.47927232509225 0
vertex 392.22942217542635 -66.13171947227218 0
endloop
endfacet
facet normal 0.556432311352687 0.8308929430935773 0
outer loop
vertex 391.80966385162634 -65.85061575576697 1
vertex 392.22942217542635 -66.13171947227218 1
vertex 392.22942217542635 -66.13171947227218 0
endloop
endfacet
facet normal 0.556432311352687 0.8308929430935773 0
outer loop
vertex 391.80966385162634 -65.85061575576697 1
vertex 392.22942217542635 -66.13171947227218 0
vertex 391.80966385162634 -65.85061575576697 0
endloop
endfacet
facet normal 0.4091202416181552 0.9124804808313998 0
outer loop
vertex 391.3486883669775 -65.64393253829394 1
vertex 391.80966385162634 -65.85061575576697 1
vertex 391.80966385162634 -65.85061575576697 0
endloop
endfacet
facet normal 0.4091202416181552 0.9124804808313998 0
outer loop
vertex 391.3486883669775 -65.64393253829394 1
vertex 391.80966385162634 -65.85061575576697 0
vertex 391.34868836697746 -65.64393253829392 0
endloop
endfacet
facet normal 0.2502065969160014 0.9681924699457818 0
outer loop
vertex 390.8595677748744 -65.51753081277904 1
vertex 391.3486883669775 -65.64393253829394 1
vertex 391.34868836697746 -65.64393253829392 0
endloop
endfacet
facet normal 0.2502065969160014 0.9681924699457818 0
outer loop
vertex 390.8595677748744 -65.51753081277904 1
vertex 391.34868836697746 -65.64393253829392 0
vertex 390.85956777487434 -65.51753081277904 0
endloop
endfacet
facet normal 0.08418829711661147 0.9964498635800023 0
outer loop
vertex 390.3561745 -65.475 1
vertex 390.8595677748744 -65.51753081277904 1
vertex 390.85956777487434 -65.51753081277904 0
endloop
endfacet
facet normal 0.08418829711661147 0.9964498635800023 0
outer loop
vertex 390.3561745 -65.475 1
vertex 390.85956777487434 -65.51753081277904 0
vertex 390.35617449999995 -65.475 0
endloop
endfacet
facet normal 0 1 0
outer loop
vertex 390.3561745 -65.475 1
vertex 390.35617449999995 -65.475 0
vertex 15.474999999999966 -65.475 0
endloop
endfacet
facet normal 0 1 0
outer loop
vertex 390.3561745 -65.475 1
vertex 15.474999999999966 -65.475 0
vertex 15.474999999999909 -65.475 1
endloop
endfacet
facet normal -0.08715574274764037 0.9961946980917471 0
outer loop
vertex 14.954055466999307 -65.52057674096335 1
vertex 15.474999999999909 -65.475 1
vertex 15.474999999999966 -65.475 0
endloop
endfacet
facet normal -0.08715574274764037 0.9961946980917471 0
outer loop
vertex 14.954055466999307 -65.52057674096335 1
vertex 15.474999999999966 -65.475 0
vertex 14.95405546699925 -65.52057674096336 0
endloop
endfacet
facet normal -0.2588190451025271 0.9659258262890666 0
outer loop
vertex 14.448939570022901 -65.65592213764229 1
vertex 14.954055466999307 -65.52057674096335 1
vertex 14.95405546699925 -65.52057674096336 0
endloop
endfacet
facet normal -0.2588190451025271 0.9659258262890666 0
outer loop
vertex 14.448939570022901 -65.65592213764229 1
vertex 14.95405546699925 -65.52057674096336 0
vertex 14.448939570022901 -65.65592213764229 0
endloop
endfacet
facet normal -0.42261826174070904 0.9063077870366456 0
outer loop
vertex 13.975000000000023 -65.87692378864665 1
vertex 14.448939570022901 -65.65592213764229 1
vertex 14.448939570022901 -65.65592213764229 0
endloop
endfacet
facet normal -0.42261826174070904 0.9063077870366456 0
outer loop
vertex 13.975000000000023 -65.87692378864665 1
vertex 14.448939570022901 -65.65592213764229 0
vertex 13.975000000000051 -65.87692378864665 0
endloop
endfacet
facet normal -0.5735764363510599 0.8191520442889821 0
outer loop
vertex 13.546637170940329 -66.1768666706431 1
vertex 13.975000000000023 -65.87692378864665 1
vertex 13.975000000000051 -65.87692378864665 0
endloop
endfacet
facet normal -0.5735764363510599 0.8191520442889821 0
outer loop
vertex 13.546637170940329 -66.1768666706431 1
vertex 13.975000000000051 -65.87692378864665 0
vertex 13.546637170940357 -66.1768666706431 0
endloop
endfacet
facet normal -0.7071067811865333 0.7071067811865617 0
outer loop
vertex 13.176866670643136 -66.54663717094029 1
vertex 13.546637170940329 -66.1768666706431 1
vertex 13.546637170940357 -66.1768666706431 0
endloop
endfacet
facet normal -0.7071067811865333 0.7071067811865617 0
outer loop
vertex 13.176866670643136 -66.54663717094029 1
vertex 13.546637170940357 -66.1768666706431 0
vertex 13.176866670643108 -66.54663717094031 0
endloop
endfacet
facet normal -0.8191520442890013 0.5735764363510325 0
outer loop
vertex 12.876923788646678 -66.97500000000002 1
vertex 13.176866670643136 -66.54663717094029 1
vertex 13.176866670643108 -66.54663717094031 0
endloop
endfacet
facet normal -0.8191520442890013 0.5735764363510325 0
outer loop
vertex 12.876923788646678 -66.97500000000002 1
vertex 13.176866670643108 -66.54663717094031 0
vertex 12.876923788646678 -66.97500000000002 0
endloop
endfacet
facet normal -0.9063077870366522 0.4226182617406946 0
outer loop
vertex 12.655922137642278 -67.448939570023 1
vertex 12.876923788646678 -66.97500000000002 1
vertex 12.876923788646678 -66.97500000000002 0
endloop
endfacet
facet normal -0.9063077870366522 0.4226182617406946 0
outer loop
vertex 12.655922137642278 -67.448939570023 1
vertex 12.876923788646678 -66.97500000000002 0
vertex 12.65592213764225 -67.44893957002301 0
endloop
endfacet
facet normal -0.9659258262890713 0.2588190451025092 0
outer loop
vertex 12.520576740963378 -67.95405546699915 1
vertex 12.655922137642278 -67.448939570023 1
vertex 12.65592213764225 -67.44893957002301 0
endloop
endfacet
facet normal -0.9659258262890713 0.2588190451025092 0
outer loop
vertex 12.520576740963378 -67.95405546699915 1
vertex 12.65592213764225 -67.44893957002301 0
vertex 12.520576740963378 -67.95405546699916 0
endloop
endfacet
facet normal -0.9961946980917459 0.08715574274765459 0
outer loop
vertex 12.474999999999994 -68.47500000000002 1
vertex 12.520576740963378 -67.95405546699915 1
vertex 12.520576740963378 -67.95405546699916 0
endloop
endfacet
facet normal -0.9961946980917459 0.08715574274765459 0
outer loop
vertex 12.474999999999994 -68.47500000000002 1
vertex 12.520576740963378 -67.95405546699916 0
vertex 12.474999999999994 -68.47500000000001 0
endloop
endfacet
facet normal -1 0 0
outer loop
vertex 12.474999999999994 -68.47500000000002 1
vertex 12.474999999999994 -68.47500000000001 0
vertex 12.474999999999994 -186.525 0
endloop
endfacet
facet normal -1 0 0
outer loop
vertex 12.474999999999994 -68.47500000000002 1
vertex 12.474999999999994 -186.525 0
vertex 12.474999999999994 -186.52499999999975 1
endloop
endfacet
endsolid csg.js
