solid csg.js
facet normal 0 0 -1
outer loop
vertex 405.488633 -65.475 0
vertex 405.8358053398779 -65.50535783984793 0
vertex 406.1724379866791 -65.59552456456902 0
endloop
endfacet
facet normal 0 0 -1
outer loop
vertex 405.488633 -65.475 0
vertex 406.1724379866791 -65.59552456456902 0
vertex 406.4883082989353 -65.7427574514323 0
endloop
endfacet
facet normal 0 0 -1
outer loop
vertex 405.488633 -65.475 0
vertex 406.4883082989353 -65.7427574514323 0
vertex 406.7738255397487 -65.94258608385913 0
endloop
endfacet
facet normal 0 0 -1
outer loop
vertex 405.488633 -65.475 0
vertex 406.7738255397487 -65.94258608385913 0
vertex 407.0203205793195 -66.18894308620774 0
endloop
endfacet
facet normal 0 0 -1
outer loop
vertex 405.488633 -65.475 0
vertex 407.0203205793195 -66.18894308620774 0
vertex 407.22030911481966 -66.47434834685981 0
endloop
endfacet
facet normal 0 0 -1
outer loop
vertex 405.488633 -65.475 0
vertex 407.22030911481966 -66.47434834685981 0
vertex 407.3677189154873 -66.7901361360571 0
endloop
endfacet
facet normal 0 0 -1
outer loop
vertex 405.488633 -65.475 0
vertex 407.3677189154873 -66.7901361360571 0
vertex 407.4580741931283 -67.12671822254028 0
endloop
endfacet
facet normal 0 0 -1
outer loop
vertex 405.488633 -65.475 0
vertex 407.4580741931283 -67.12671822254028 0
vertex 407.4886315 -67.4738750000008 0
endloop
endfacet
facet normal 0 0 -1
outer loop
vertex 405.488633 -65.475 0
vertex 407.4886315 -67.4738750000008 0
vertex 407.5278274 -136.64010160000055 0
endloop
endfacet
facet normal 0 0 -1
outer loop
vertex 405.488633 -65.475 0
vertex 407.5278274 -136.64010160000055 0
vertex 407.51083690018675 -136.90135355922328 0
endloop
endfacet
facet normal 0 0 -1
outer loop
vertex 405.488633 -65.475 0
vertex 407.51083690018675 -136.90135355922328 0
vertex 407.45987169866055 -137.1581443131477 0
endloop
endfacet
facet normal 0 0 -1
outer loop
vertex 405.488633 -65.475 0
vertex 407.45987169866055 -137.1581443131477 0
vertex 407.3758013706834 -137.40607802005493 0
endloop
endfacet
facet normal 0 0 -1
outer loop
vertex 405.488633 -65.475 0
vertex 407.3758013706834 -137.40607802005493 0
vertex 407.26006643911023 -137.640906401392 0
endloop
endfacet
facet normal 0 0 -1
outer loop
vertex 405.488633 -65.475 0
vertex 407.26006643911023 -137.640906401392 0
vertex 407.1146499914136 -137.8586057348919 0
endloop
endfacet
facet normal 0 0 -1
outer loop
vertex 405.488633 -65.475 0
vertex 407.1146499914136 -137.8586057348919 0
vertex 406.9420436999998 -138.05544580000029 0
endloop
endfacet
facet normal 0 0 -1
outer loop
vertex 405.488633 -65.475 0
vertex 406.9420436999998 -138.05544580000029 0
vertex 373.7581890000002 -171.2393008999998 0
endloop
endfacet
facet normal 0 0 -1
outer loop
vertex 405.488633 -65.475 0
vertex 373.7581890000002 -171.2393008999998 0
vertex 373.61518871190344 -171.3691156591471 0
endloop
endfacet
facet normal 0 0 -1
outer loop
vertex 405.488633 -65.475 0
vertex 373.61518871190344 -171.3691156591471 0
vertex 373.460334039718 -171.4845277308597 0
endloop
endfacet
facet normal 0 0 -1
outer loop
vertex 405.488633 -65.475 0
vertex 373.460334039718 -171.4845277308597 0
vertex 373.29506949999967 -171.58446545000018 0
endloop
endfacet
facet normal 0 0 -1
outer loop
vertex 405.488633 -65.475 0
vertex 373.29506949999967 -171.58446545000018 0
vertex 340.1080164408305 -189.52499889999999 0
endloop
endfacet
facet normal 0 0 -1
outer loop
vertex 405.488633 -65.475 0
vertex 340.1080164408305 -189.52499889999999 0
vertex 293.28268444999924 -189.52499889999999 0
endloop
endfacet
facet normal 0 0 -1
outer loop
vertex 405.488633 -65.475 0
vertex 293.28268444999924 -189.52499889999999 0
vertex 14.47499999999971 -189.52499889999999 0
endloop
endfacet
facet normal 0 0 -1
outer loop
vertex 405.488633 -65.475 0
vertex 14.47499999999971 -189.52499889999999 0
vertex 14.127703644666212 -189.49461550602445 0
endloop
endfacet
facet normal 0 0 -1
outer loop
vertex 405.488633 -65.475 0
vertex 14.127703644666212 -189.49461550602445 0
vertex 13.790959713348741 -189.40438524157184 0
endloop
endfacet
facet normal 0 0 -1
outer loop
vertex 405.488633 -65.475 0
vertex 13.790959713348741 -189.40438524157184 0
vertex 13.474999999999795 -189.2570508075688 0
endloop
endfacet
facet normal 0 0 -1
outer loop
vertex 405.488633 -65.475 0
vertex 13.474999999999795 -189.2570508075688 0
vertex 13.189424780627121 -189.05708888623815 0
endloop
endfacet
facet normal 0 0 -1
outer loop
vertex 405.488633 -65.475 0
vertex 13.189424780627121 -189.05708888623815 0
vertex 12.942911113761994 -188.81057521937302 0
endloop
endfacet
facet normal 0 0 -1
outer loop
vertex 405.488633 -65.475 0
vertex 12.942911113761994 -188.81057521937302 0
vertex 12.742949192431155 -188.52500000000003 0
endloop
endfacet
facet normal 0 0 -1
outer loop
vertex 405.488633 -65.475 0
vertex 12.742949192431155 -188.52500000000003 0
vertex 12.595614758428184 -188.20904028665132 0
endloop
endfacet
facet normal 0 0 -1
outer loop
vertex 405.488633 -65.475 0
vertex 12.595614758428184 -188.20904028665132 0
vertex 12.505384493975583 -187.87229635533384 0
endloop
endfacet
facet normal 0 0 -1
outer loop
vertex 405.488633 -65.475 0
vertex 12.505384493975583 -187.87229635533384 0
vertex 12.474999999999994 -187.525 0
endloop
endfacet
facet normal 0 0 -1
outer loop
vertex 405.488633 -65.475 0
vertex 12.474999999999994 -187.525 0
vertex 12.474999999999994 -67.47499999999998 0
endloop
endfacet
facet normal 0 0 -1
outer loop
vertex 405.488633 -65.475 0
vertex 12.474999999999994 -67.47499999999998 0
vertex 12.505384493975583 -67.12770364466613 0
endloop
endfacet
facet normal 0 0 -1
outer loop
vertex 405.488633 -65.475 0
vertex 12.505384493975583 -67.12770364466613 0
vertex 12.595614758428184 -66.79095971334867 0
endloop
endfacet
facet normal 0 0 -1
outer loop
vertex 405.488633 -65.475 0
vertex 12.595614758428184 -66.79095971334867 0
vertex 12.742949192431126 -66.47499999999998 0
endloop
endfacet
facet normal 0 0 -1
outer loop
vertex 405.488633 -65.475 0
vertex 12.742949192431126 -66.47499999999998 0
vertex 12.942911113762023 -66.18942478062694 0
endloop
endfacet
facet normal 0 0 -1
outer loop
vertex 405.488633 -65.475 0
vertex 12.942911113762023 -66.18942478062694 0
vertex 13.18942478062695 -65.94291111376201 0
endloop
endfacet
facet normal 0 0 -1
outer loop
vertex 405.488633 -65.475 0
vertex 13.18942478062695 -65.94291111376201 0
vertex 13.475000000000051 -65.74294919243108 0
endloop
endfacet
facet normal 0 0 -1
outer loop
vertex 405.488633 -65.475 0
vertex 13.475000000000051 -65.74294919243108 0
vertex 13.790959713348656 -65.59561475842817 0
endloop
endfacet
facet normal 0 0 -1
outer loop
vertex 405.488633 -65.475 0
vertex 13.790959713348656 -65.59561475842817 0
vertex 14.127703644666127 -65.50538449397558 0
endloop
endfacet
facet normal 0 0 -1
outer loop
vertex 405.488633 -65.475 0
vertex 14.127703644666127 -65.50538449397558 0
vertex 14.474999999999909 -65.475 0
endloop
endfacet
facet normal 0 0 -1
outer loop
vertex 340.1080164408305 -189.52499889999999 0
vertex 340.1029428142559 -189.5277416428342 0
vertex 293.38735795109346 -189.5277416428342 0
endloop
endfacet
facet normal 0 0 -1
outer loop
vertex 340.1080164408305 -189.52499889999999 0
vertex 293.38735795109346 -189.5277416428342 0
vertex 293.28268444999924 -189.52499889999999 0
endloop
endfacet
facet normal 0 0 -1
outer loop
vertex 340.1029428142559 -189.5277416428342 0
vertex 340.087744264535 -189.53595780000006 0
vertex 293.4917489000005 -189.53595780000006 0
endloop
endfacet
facet normal 0 0 -1
outer loop
vertex 340.1029428142559 -189.5277416428342 0
vertex 293.4917489000005 -189.53595780000006 0
vertex 293.38735795109346 -189.5277416428342 0
endloop
endfacet
facet normal 0 0 -1
outer loop
vertex 340.087744264535 -189.53595780000006 0
vertex 333.0470438999994 -193.34207800000027 0
vertex 332.82946882307607 -193.44333115859072 0
endloop
endfacet
facet normal 0 0 -1
outer loop
vertex 340.087744264535 -189.53595780000006 0
vertex 332.82946882307607 -193.44333115859072 0
vertex 332.60132949275254 -193.51779381295435 0
endloop
endfacet
facet normal 0 0 -1
outer loop
vertex 340.087744264535 -189.53595780000006 0
vertex 332.60132949275254 -193.51779381295435 0
vertex 332.3659137228501 -193.5643948453078 0
endloop
endfacet
facet normal 0 0 -1
outer loop
vertex 340.087744264535 -189.53595780000006 0
vertex 332.3659137228501 -193.5643948453078 0
vertex 332.1266110438042 -193.5824632911803 0
endloop
endfacet
facet normal 0 0 -1
outer loop
vertex 340.087744264535 -189.53595780000006 0
vertex 332.1266110438042 -193.5824632911803 0
vertex 331.8868669499998 -193.57173899999998 0
endloop
endfacet
facet normal 0 0 -1
outer loop
vertex 340.087744264535 -189.53595780000006 0
vertex 331.8868669499998 -193.57173899999998 0
vertex 293.4917489000005 -189.53595780000006 0
endloop
endfacet
facet normal 0 0 1
outer loop
vertex 332.36591372285034 -193.56439484530773 1
vertex 332.60132949275317 -193.51779381295424 1
vertex 332.8294688230753 -193.44333115859106 1
endloop
endfacet
facet normal 0 0 1
outer loop
vertex 332.36591372285034 -193.56439484530773 1
vertex 332.8294688230753 -193.44333115859106 1
vertex 333.04704390000006 -193.34207799999993 1
endloop
endfacet
facet normal 0 0 1
outer loop
vertex 332.36591372285034 -193.56439484530773 1
vertex 333.04704390000006 -193.34207799999993 1
vertex 340.08774392599037 -189.53595779999998 1
endloop
endfacet
facet normal 0 0 1
outer loop
vertex 332.36591372285034 -193.56439484530773 1
vertex 340.08774392599037 -189.53595779999998 1
vertex 293.49174890000006 -189.53595779999998 1
endloop
endfacet
facet normal 0 0 1
outer loop
vertex 332.36591372285034 -193.56439484530773 1
vertex 293.49174890000006 -189.53595779999998 1
vertex 331.8868669500005 -193.57173900000004 1
endloop
endfacet
facet normal 0 0 1
outer loop
vertex 332.36591372285034 -193.56439484530773 1
vertex 331.8868669500005 -193.57173900000004 1
vertex 332.1266110438038 -193.5824632911803 1
endloop
endfacet
facet normal 0 0 1
outer loop
vertex 340.08774392599037 -189.53595779999998 1
vertex 340.10294247331166 -189.52774164283426 1
vertex 293.38735795109415 -189.52774164283426 1
endloop
endfacet
facet normal 0 0 1
outer loop
vertex 340.08774392599037 -189.53595779999998 1
vertex 293.38735795109415 -189.52774164283426 1
vertex 293.49174890000006 -189.53595779999998 1
endloop
endfacet
facet normal 0 0 1
outer loop
vertex 340.10294247331166 -189.52774164283426 1
vertex 340.10801644083034 -189.52499871525666 1
vertex 293.2826844499988 -189.52499871525666 1
endloop
endfacet
facet normal 0 0 1
outer loop
vertex 340.10294247331166 -189.52774164283426 1
vertex 293.2826844499988 -189.52499871525666 1
vertex 293.38735795109415 -189.52774164283426 1
endloop
endfacet
facet normal 0 0 1
outer loop
vertex 293.2826844499988 -189.52499871525666 1
vertex 340.10801644083034 -189.52499871525666 1
vertex 373.2950694999993 -171.58446545000038 1
endloop
endfacet
facet normal 0 0 1
outer loop
vertex 293.2826844499988 -189.52499871525666 1
vertex 373.2950694999993 -171.58446545000038 1
vertex 373.4603340397182 -171.48452773085955 1
endloop
endfacet
facet normal 0 0 1
outer loop
vertex 293.2826844499988 -189.52499871525666 1
vertex 373.4603340397182 -171.48452773085955 1
vertex 373.61518871190344 -171.36911565914707 1
endloop
endfacet
facet normal 0 0 1
outer loop
vertex 293.2826844499988 -189.52499871525666 1
vertex 373.61518871190344 -171.36911565914707 1
vertex 373.75818900000127 -171.2393008999988 1
endloop
endfacet
facet normal 0 0 1
outer loop
vertex 293.2826844499988 -189.52499871525666 1
vertex 373.75818900000127 -171.2393008999988 1
vertex 406.94204369999994 -138.05544580000011 1
endloop
endfacet
facet normal 0 0 1
outer loop
vertex 293.2826844499988 -189.52499871525666 1
vertex 406.94204369999994 -138.05544580000011 1
vertex 407.1146499914135 -137.85860573489208 1
endloop
endfacet
facet normal 0 0 1
outer loop
vertex 293.2826844499988 -189.52499871525666 1
vertex 407.1146499914135 -137.85860573489208 1
vertex 407.2600664391101 -137.64090640139213 1
endloop
endfacet
facet normal 0 0 1
outer loop
vertex 293.2826844499988 -189.52499871525666 1
vertex 407.2600664391101 -137.64090640139213 1
vertex 407.3758013706835 -137.40607802005468 1
endloop
endfacet
facet normal 0 0 1
outer loop
vertex 293.2826844499988 -189.52499871525666 1
vertex 407.3758013706835 -137.40607802005468 1
vertex 407.4598716986605 -137.15814431314786 1
endloop
endfacet
facet normal 0 0 1
outer loop
vertex 293.2826844499988 -189.52499871525666 1
vertex 407.4598716986605 -137.15814431314786 1
vertex 407.5108369001867 -136.90135355922328 1
endloop
endfacet
facet normal 0 0 1
outer loop
vertex 293.2826844499988 -189.52499871525666 1
vertex 407.5108369001867 -136.90135355922328 1
vertex 407.5278274 -136.64010159999987 1
endloop
endfacet
facet normal 0 0 1
outer loop
vertex 293.2826844499988 -189.52499871525666 1
vertex 407.5278274 -136.64010159999987 1
vertex 407.48863150000005 -67.4738750000014 1
endloop
endfacet
facet normal 0 0 1
outer loop
vertex 293.2826844499988 -189.52499871525666 1
vertex 407.48863150000005 -67.4738750000014 1
vertex 407.4580741931283 -67.12671822254012 1
endloop
endfacet
facet normal 0 0 1
outer loop
vertex 293.2826844499988 -189.52499871525666 1
vertex 407.4580741931283 -67.12671822254012 1
vertex 407.3677189154874 -66.79013613605744 1
endloop
endfacet
facet normal 0 0 1
outer loop
vertex 293.2826844499988 -189.52499871525666 1
vertex 407.3677189154874 -66.79013613605744 1
vertex 407.22030911481954 -66.47434834685959 1
endloop
endfacet
facet normal 0 0 1
outer loop
vertex 293.2826844499988 -189.52499871525666 1
vertex 407.22030911481954 -66.47434834685959 1
vertex 407.0203205793196 -66.18894308620781 1
endloop
endfacet
facet normal 0 0 1
outer loop
vertex 293.2826844499988 -189.52499871525666 1
vertex 407.0203205793196 -66.18894308620781 1
vertex 406.77382553974877 -65.94258608385914 1
endloop
endfacet
facet normal 0 0 1
outer loop
vertex 293.2826844499988 -189.52499871525666 1
vertex 406.77382553974877 -65.94258608385914 1
vertex 406.4883082989354 -65.74275745143237 1
endloop
endfacet
facet normal 0 0 1
outer loop
vertex 293.2826844499988 -189.52499871525666 1
vertex 406.4883082989354 -65.74275745143237 1
vertex 406.17243798667903 -65.595524564569 1
endloop
endfacet
facet normal 0 0 1
outer loop
vertex 293.2826844499988 -189.52499871525666 1
vertex 406.17243798667903 -65.595524564569 1
vertex 405.8358053398779 -65.50535783984793 1
endloop
endfacet
facet normal 0 0 1
outer loop
vertex 293.2826844499988 -189.52499871525666 1
vertex 405.8358053398779 -65.50535783984793 1
vertex 405.488633 -65.475 1
endloop
endfacet
facet normal 0 0 1
outer loop
vertex 293.2826844499988 -189.52499871525666 1
vertex 405.488633 -65.475 1
vertex 14.475000000000023 -65.475 1
endloop
endfacet
facet normal 0 0 1
outer loop
vertex 293.2826844499988 -189.52499871525666 1
vertex 14.475000000000023 -65.475 1
vertex 14.127703644666155 -65.50538449397558 1
endloop
endfacet
facet normal 0 0 1
outer loop
vertex 293.2826844499988 -189.52499871525666 1
vertex 14.127703644666155 -65.50538449397558 1
vertex 13.790959713348599 -65.5956147584282 1
endloop
endfacet
facet normal 0 0 1
outer loop
vertex 293.2826844499988 -189.52499871525666 1
vertex 13.790959713348599 -65.5956147584282 1
vertex 13.475000000000023 -65.74294919243108 1
endloop
endfacet
facet normal 0 0 1
outer loop
vertex 293.2826844499988 -189.52499871525666 1
vertex 13.475000000000023 -65.74294919243108 1
vertex 13.18942478062695 -65.94291111376201 1
endloop
endfacet
facet normal 0 0 1
outer loop
vertex 293.2826844499988 -189.52499871525666 1
vertex 13.18942478062695 -65.94291111376201 1
vertex 12.942911113762023 -66.18942478062695 1
endloop
endfacet
facet normal 0 0 1
outer loop
vertex 293.2826844499988 -189.52499871525666 1
vertex 12.942911113762023 -66.18942478062695 1
vertex 12.742949192431155 -66.47499999999997 1
endloop
endfacet
facet normal 0 0 1
outer loop
vertex 293.2826844499988 -189.52499871525666 1
vertex 12.742949192431155 -66.47499999999997 1
vertex 12.595614758428184 -66.79095971334866 1
endloop
endfacet
facet normal 0 0 1
outer loop
vertex 293.2826844499988 -189.52499871525666 1
vertex 12.595614758428184 -66.79095971334866 1
vertex 12.505384493975583 -67.12770364466616 1
endloop
endfacet
facet normal 0 0 1
outer loop
vertex 293.2826844499988 -189.52499871525666 1
vertex 12.505384493975583 -67.12770364466616 1
vertex 12.474999999999994 -67.47499999999998 1
endloop
endfacet
facet normal 0 0 1
outer loop
vertex 293.2826844499988 -189.52499871525666 1
vertex 12.474999999999994 -67.47499999999998 1
vertex 12.474999999999994 -187.52500000000032 1
endloop
endfacet
facet normal 0 0 1
outer loop
vertex 293.2826844499988 -189.52499871525666 1
vertex 12.474999999999994 -187.52500000000032 1
vertex 12.505384493975555 -187.87229635533373 1
endloop
endfacet
facet normal 0 0 1
outer loop
vertex 293.2826844499988 -189.52499871525666 1
vertex 12.505384493975555 -187.87229635533373 1
vertex 12.595614758428155 -188.2090402866513 1
endloop
endfacet
facet normal 0 0 1
outer loop
vertex 293.2826844499988 -189.52499871525666 1
vertex 12.595614758428155 -188.2090402866513 1
vertex 12.742949192431155 -188.52500000000003 1
endloop
endfacet
facet normal 0 0 1
outer loop
vertex 293.2826844499988 -189.52499871525666 1
vertex 12.742949192431155 -188.52500000000003 1
vertex 12.942911113761994 -188.810575219373 1
endloop
endfacet
facet normal 0 0 1
outer loop
vertex 293.2826844499988 -189.52499871525666 1
vertex 12.942911113761994 -188.810575219373 1
vertex 13.189424780627036 -189.05708888623803 1
endloop
endfacet
facet normal 0 0 1
outer loop
vertex 293.2826844499988 -189.52499871525666 1
vertex 13.189424780627036 -189.05708888623803 1
vertex 13.47499999999988 -189.2570508075688 1
endloop
endfacet
facet normal 0 0 1
outer loop
vertex 293.2826844499988 -189.52499871525666 1
vertex 13.47499999999988 -189.2570508075688 1
vertex 13.790959713348911 -189.4043852415719 1
endloop
endfacet
facet normal 0 0 1
outer loop
vertex 293.2826844499988 -189.52499871525666 1
vertex 13.790959713348911 -189.4043852415719 1
vertex 14.127703644666155 -189.49461550602445 1
endloop
endfacet
facet normal 0 0 1
outer loop
vertex 293.2826844499988 -189.52499871525666 1
vertex 14.127703644666155 -189.49461550602445 1
vertex 14.474999999999483 -189.52499871525666 1
endloop
endfacet
facet normal -0.9961946980917458 -0.08715574274765638 0
outer loop
vertex 12.505384493975555 -187.87229635533373 1
vertex 12.474999999999994 -187.52500000000032 1
vertex 12.474999999999994 -187.525 0
endloop
endfacet
facet normal -0.9961946980917458 -0.08715574274765638 0
outer loop
vertex 12.505384493975555 -187.87229635533373 1
vertex 12.474999999999994 -187.525 0
vertex 12.505384493975583 -187.87229635533384 0
endloop
endfacet
facet normal -0.9659258262890704 -0.25881904510251297 0
outer loop
vertex 12.595614758428155 -188.2090402866513 1
vertex 12.505384493975555 -187.87229635533373 1
vertex 12.505384493975583 -187.87229635533384 0
endloop
endfacet
facet normal -0.9659258262890704 -0.25881904510251297 0
outer loop
vertex 12.595614758428155 -188.2090402866513 1
vertex 12.505384493975583 -187.87229635533384 0
vertex 12.595614758428184 -188.20904028665132 0
endloop
endfacet
facet normal -0.9063077870366557 -0.42261826174068745 0
outer loop
vertex 12.742949192431155 -188.52500000000003 1
vertex 12.595614758428155 -188.2090402866513 1
vertex 12.595614758428184 -188.20904028665132 0
endloop
endfacet
facet normal -0.9063077870366557 -0.42261826174068745 0
outer loop
vertex 12.742949192431155 -188.52500000000003 1
vertex 12.595614758428184 -188.20904028665132 0
vertex 12.742949192431155 -188.52500000000003 0
endloop
endfacet
facet normal -0.8191520442889821 -0.5735764363510599 0
outer loop
vertex 12.942911113761994 -188.810575219373 1
vertex 12.742949192431155 -188.52500000000003 1
vertex 12.742949192431155 -188.52500000000003 0
endloop
endfacet
facet normal -0.8191520442889821 -0.5735764363510599 0
outer loop
vertex 12.942911113761994 -188.810575219373 1
vertex 12.742949192431155 -188.52500000000003 0
vertex 12.942911113761994 -188.81057521937302 0
endloop
endfacet
facet normal -0.7071067811865193 -0.7071067811865761 0
outer loop
vertex 13.189424780627036 -189.05708888623803 1
vertex 12.942911113761994 -188.810575219373 1
vertex 12.942911113761994 -188.81057521937302 0
endloop
endfacet
facet normal -0.7071067811865193 -0.7071067811865761 0
outer loop
vertex 13.189424780627036 -189.05708888623803 1
vertex 12.942911113761994 -188.81057521937302 0
vertex 13.189424780627121 -189.05708888623815 0
endloop
endfacet
facet normal -0.5735764363510178 -0.8191520442890114 0
outer loop
vertex 13.47499999999988 -189.2570508075688 1
vertex 13.189424780627036 -189.05708888623803 1
vertex 13.189424780627121 -189.05708888623815 0
endloop
endfacet
facet normal -0.5735764363510178 -0.8191520442890114 0
outer loop
vertex 13.47499999999988 -189.2570508075688 1
vertex 13.189424780627121 -189.05708888623815 0
vertex 13.474999999999795 -189.2570508075688 0
endloop
endfacet
facet normal -0.42261826174069467 -0.9063077870366524 0
outer loop
vertex 13.790959713348911 -189.4043852415719 1
vertex 13.47499999999988 -189.2570508075688 1
vertex 13.474999999999795 -189.2570508075688 0
endloop
endfacet
facet normal -0.42261826174069467 -0.9063077870366524 0
outer loop
vertex 13.790959713348911 -189.4043852415719 1
vertex 13.474999999999795 -189.2570508075688 0
vertex 13.790959713348741 -189.40438524157184 0
endloop
endfacet
facet normal -0.25881904510251386 -0.9659258262890702 0
outer loop
vertex 14.127703644666155 -189.49461550602445 1
vertex 13.790959713348911 -189.4043852415719 1
vertex 13.790959713348741 -189.40438524157184 0
endloop
endfacet
facet normal -0.25881904510251386 -0.9659258262890702 0
outer loop
vertex 14.127703644666155 -189.49461550602445 1
vertex 13.790959713348741 -189.40438524157184 0
vertex 14.127703644666212 -189.49461550602445 0
endloop
endfacet
facet normal -0.08715574274771135 -0.9961946980917409 0
outer loop
vertex 14.474999999999483 -189.52499871525666 1
vertex 14.127703644666155 -189.49461550602445 1
vertex 14.127703644666212 -189.49461550602445 0
endloop
endfacet
facet normal -0.08715574274771135 -0.9961946980917409 0
outer loop
vertex 14.474999999999483 -189.52499871525666 1
vertex 14.127703644666212 -189.49461550602445 0
vertex 14.47499999999971 -189.52499889999999 0
endloop
endfacet
facet normal 3.945359594581532e-9 -1 0
outer loop
vertex 293.2826844499988 -189.52499871525666 1
vertex 14.474999999999483 -189.52499871525666 1
vertex 14.47499999999971 -189.52499889999999 0
endloop
endfacet
facet normal 3.945359594581532e-9 -1 0
outer loop
vertex 293.2826844499988 -189.52499871525666 1
vertex 14.47499999999971 -189.52499889999999 0
vertex 293.28268444999924 -189.52499889999999 0
endloop
endfacet
facet normal -0.026193847745162216 -0.9996568823052755 0
outer loop
vertex 293.38735795109415 -189.52774164283426 1
vertex 293.2826844499988 -189.52499871525666 1
vertex 293.28268444999924 -189.52499889999999 0
endloop
endfacet
facet normal -0.026193847745162216 -0.9996568823052755 0
outer loop
vertex 293.38735795109415 -189.52774164283426 1
vertex 293.28268444999924 -189.52499889999999 0
vertex 293.38735795109346 -189.5277416428342 0
endloop
endfacet
facet normal -0.07846299949085271 -0.9969170264926257 0
outer loop
vertex 293.49174890000006 -189.53595779999998 1
vertex 293.38735795109415 -189.52774164283426 1
vertex 293.38735795109346 -189.5277416428342 0
endloop
endfacet
facet normal -0.07846299949085271 -0.9969170264926257 0
outer loop
vertex 293.49174890000006 -189.53595779999998 1
vertex 293.38735795109346 -189.5277416428342 0
vertex 293.4917489000005 -189.53595780000006 0
endloop
endfacet
facet normal -0.10453593587757849 -0.9945211099369379 0
outer loop
vertex 331.8868669500005 -193.57173900000004 1
vertex 293.49174890000006 -189.53595779999998 1
vertex 293.4917489000005 -189.53595780000006 0
endloop
endfacet
facet normal -0.10453593587757849 -0.9945211099369379 0
outer loop
vertex 331.8868669500005 -193.57173900000004 1
vertex 293.4917489000005 -189.53595780000006 0
vertex 331.8868669499998 -193.57173899999998 0
endloop
endfacet
facet normal -0.04468755652658277 -0.999001012157487 0
outer loop
vertex 332.1266110438038 -193.5824632911803 1
vertex 331.8868669500005 -193.57173900000004 1
vertex 331.8868669499998 -193.57173899999998 0
endloop
endfacet
facet normal -0.04468755652658277 -0.999001012157487 0
outer loop
vertex 332.1266110438038 -193.5824632911803 1
vertex 331.8868669499998 -193.57173899999998 0
vertex 332.1266110438042 -193.5824632911803 0
endloop
endfacet
facet normal 0.07529026233100916 -0.9971616601124051 0
outer loop
vertex 332.36591372285034 -193.56439484530773 1
vertex 332.1266110438038 -193.5824632911803 1
vertex 332.1266110438042 -193.5824632911803 0
endloop
endfacet
facet normal 0.07529026233100916 -0.9971616601124051 0
outer loop
vertex 332.36591372285034 -193.56439484530773 1
vertex 332.1266110438042 -193.5824632911803 0
vertex 332.3659137228501 -193.5643948453078 0
endloop
endfacet
facet normal 0.19418404745658743 -0.9809651144222091 0
outer loop
vertex 332.60132949275317 -193.51779381295424 1
vertex 332.36591372285034 -193.56439484530773 1
vertex 332.3659137228501 -193.5643948453078 0
endloop
endfacet
facet normal 0.19418404745658743 -0.9809651144222091 0
outer loop
vertex 332.60132949275317 -193.51779381295424 1
vertex 332.3659137228501 -193.5643948453078 0
vertex 332.60132949275254 -193.51779381295435 0
endloop
endfacet
facet normal 0.3102819589705612 -0.950644573927286 0
outer loop
vertex 332.8294688230753 -193.44333115859106 1
vertex 332.60132949275317 -193.51779381295424 1
vertex 332.60132949275254 -193.51779381295435 0
endloop
endfacet
facet normal 0.3102819589705612 -0.950644573927286 0
outer loop
vertex 332.8294688230753 -193.44333115859106 1
vertex 332.60132949275254 -193.51779381295435 0
vertex 332.82946882307607 -193.44333115859072 0
endloop
endfacet
facet normal 0.4219206989363863 -0.9066327392108843 0
outer loop
vertex 333.04704390000006 -193.34207799999993 1
vertex 332.8294688230753 -193.44333115859106 1
vertex 332.82946882307607 -193.44333115859072 0
endloop
endfacet
facet normal 0.4219206989363863 -0.9066327392108843 0
outer loop
vertex 333.04704390000006 -193.34207799999993 1
vertex 332.82946882307607 -193.44333115859072 0
vertex 333.0470438999994 -193.34207800000027 0
endloop
endfacet
facet normal 0 0 -1
outer loop
vertex 373.2950694999993 -171.58446545000038 1
vertex 340.10801644083034 -189.52499871525666 1
vertex 340.10294247331166 -189.52774164283426 1
endloop
endfacet
facet normal 0 0 -1
outer loop
vertex 373.2950694999993 -171.58446545000038 1
vertex 340.10294247331166 -189.52774164283426 1
vertex 340.08774392599037 -189.53595779999998 1
endloop
endfacet
facet normal 0 0 -1
outer loop
vertex 373.2950694999993 -171.58446545000038 1
vertex 340.08774392599037 -189.53595779999998 1
vertex 333.04704390000006 -193.34207799999993 1
endloop
endfacet
facet normal 0 0 -1
outer loop
vertex 373.2950694999993 -171.58446545000038 1
vertex 333.04704390000006 -193.34207799999993 1
vertex 333.0470438999994 -193.34207800000027 0
endloop
endfacet
facet normal 0 0 -1
outer loop
vertex 373.2950694999993 -171.58446545000038 1
vertex 333.0470438999994 -193.34207800000027 0
vertex 340.087744264535 -189.53595780000006 0
endloop
endfacet
facet normal 0 0 -1
outer loop
vertex 373.2950694999993 -171.58446545000038 1
vertex 340.087744264535 -189.53595780000006 0
vertex 340.1029428142559 -189.5277416428342 0
endloop
endfacet
facet normal 0 0 -1
outer loop
vertex 373.2950694999993 -171.58446545000038 1
vertex 340.1029428142559 -189.5277416428342 0
vertex 340.1080164408305 -189.52499889999999 0
endloop
endfacet
facet normal 0 0 -1
outer loop
vertex 373.2950694999993 -171.58446545000038 1
vertex 340.1080164408305 -189.52499889999999 0
vertex 373.29506949999967 -171.58446545000018 0
endloop
endfacet
facet normal 0.5174584790928491 -0.8557083162006288 0
outer loop
vertex 373.4603340397182 -171.48452773085955 1
vertex 373.2950694999993 -171.58446545000038 1
vertex 373.29506949999967 -171.58446545000018 0
endloop
endfacet
facet normal 0.5174584790928491 -0.8557083162006288 0
outer loop
vertex 373.4603340397182 -171.48452773085955 1
vertex 373.29506949999967 -171.58446545000018 0
vertex 373.460334039718 -171.4845277308597 0
endloop
endfacet
facet normal 0.5975817300166596 -0.8018080044189483 0
outer loop
vertex 373.61518871190344 -171.36911565914707 1
vertex 373.4603340397182 -171.48452773085955 1
vertex 373.460334039718 -171.4845277308597 0
endloop
endfacet
facet normal 0.5975817300166596 -0.8018080044189483 0
outer loop
vertex 373.61518871190344 -171.36911565914707 1
vertex 373.460334039718 -171.4845277308597 0
vertex 373.61518871190344 -171.3691156591471 0
endloop
endfacet
facet normal 0.6721467479342843 -0.7404179557799538 0
outer loop
vertex 373.75818900000127 -171.2393008999988 1
vertex 373.61518871190344 -171.36911565914707 1
vertex 373.61518871190344 -171.3691156591471 0
endloop
endfacet
facet normal 0.6721467479342843 -0.7404179557799538 0
outer loop
vertex 373.75818900000127 -171.2393008999988 1
vertex 373.61518871190344 -171.3691156591471 0
vertex 373.7581890000002 -171.2393008999998 0
endloop
endfacet
facet normal 0.7071067854482976 -0.7071067769247975 0
outer loop
vertex 406.94204369999994 -138.05544580000011 1
vertex 373.75818900000127 -171.2393008999988 1
vertex 373.7581890000002 -171.2393008999998 0
endloop
endfacet
facet normal 0.7071067854482976 -0.7071067769247975 0
outer loop
vertex 406.94204369999994 -138.05544580000011 1
vertex 373.7581890000002 -171.2393008999998 0
vertex 406.9420436999998 -138.05544580000029 0
endloop
endfacet
facet normal 0.7518735351213818 -0.6593073541104152 0
outer loop
vertex 407.1146499914135 -137.85860573489208 1
vertex 406.94204369999994 -138.05544580000011 1
vertex 406.9420436999998 -138.05544580000029 0
endloop
endfacet
facet normal 0.7518735351213818 -0.6593073541104152 0
outer loop
vertex 407.1146499914135 -137.85860573489208 1
vertex 406.9420436999998 -138.05544580000029 0
vertex 407.1146499914136 -137.8586057348919 0
endloop
endfacet
facet normal 0.8315500575690279 -0.5554498192968887 0
outer loop
vertex 407.2600664391101 -137.64090640139213 1
vertex 407.1146499914135 -137.85860573489208 1
vertex 407.1146499914136 -137.8586057348919 0
endloop
endfacet
facet normal 0.8315500575690279 -0.5554498192968887 0
outer loop
vertex 407.2600664391101 -137.64090640139213 1
vertex 407.1146499914136 -137.8586057348919 0
vertex 407.26006643911023 -137.640906401392 0
endloop
endfacet
facet normal 0.8969781895030507 -0.4420747985984149 0
outer loop
vertex 407.3758013706835 -137.40607802005468 1
vertex 407.2600664391101 -137.64090640139213 1
vertex 407.26006643911023 -137.640906401392 0
endloop
endfacet
facet normal 0.8969781895030507 -0.4420747985984149 0
outer loop
vertex 407.3758013706835 -137.40607802005468 1
vertex 407.26006643911023 -137.640906401392 0
vertex 407.3758013706834 -137.40607802005493 0
endloop
endfacet
facet normal 0.9470368371715144 -0.3211249430364676 0
outer loop
vertex 407.4598716986605 -137.15814431314786 1
vertex 407.3758013706835 -137.40607802005468 1
vertex 407.3758013706834 -137.40607802005493 0
endloop
endfacet
facet normal 0.9470368371715144 -0.3211249430364676 0
outer loop
vertex 407.4598716986605 -137.15814431314786 1
vertex 407.3758013706834 -137.40607802005493 0
vertex 407.45987169866055 -137.1581443131477 0
endloop
endfacet
facet normal 0.9808682588735553 -0.19467269642751697 0
outer loop
vertex 407.5108369001867 -136.90135355922328 1
vertex 407.4598716986605 -137.15814431314786 1
vertex 407.45987169866055 -137.1581443131477 0
endloop
endfacet
facet normal 0.9808682588735553 -0.19467269642751697 0
outer loop
vertex 407.5108369001867 -136.90135355922328 1
vertex 407.45987169866055 -137.1581443131477 0
vertex 407.51083690018675 -136.90135355922328 0
endloop
endfacet
facet normal 0.9978919145262852 -0.06489781909328941 0
outer loop
vertex 407.5278274 -136.64010159999987 1
vertex 407.5108369001867 -136.90135355922328 1
vertex 407.51083690018675 -136.90135355922328 0
endloop
endfacet
facet normal 0.9978919145262852 -0.06489781909328941 0
outer loop
vertex 407.5278274 -136.64010159999987 1
vertex 407.51083690018675 -136.90135355922328 0
vertex 407.5278274 -136.64010160000055 0
endloop
endfacet
facet normal 0.9999998394305147 0.0005666912253445844 0
outer loop
vertex 407.48863150000005 -67.4738750000014 1
vertex 407.5278274 -136.64010159999987 1
vertex 407.5278274 -136.64010160000055 0
endloop
endfacet
facet normal 0.9999998394305147 0.0005666912253445844 0
outer loop
vertex 407.48863150000005 -67.4738750000014 1
vertex 407.5278274 -136.64010160000055 0
vertex 407.4886315 -67.4738750000008 0
endloop
endfacet
facet normal 0.9961484622941976 0.08768261554553163 0
outer loop
vertex 407.4580741931283 -67.12671822254012 1
vertex 407.48863150000005 -67.4738750000014 1
vertex 407.4886315 -67.4738750000008 0
endloop
endfacet
facet normal 0.9961484622941976 0.08768261554553163 0
outer loop
vertex 407.4580741931283 -67.12671822254012 1
vertex 407.4886315 -67.4738750000008 0
vertex 407.4580741931283 -67.12671822254028 0
endloop
endfacet
facet normal 0.9658049321119325 0.25926980755241297 0
outer loop
vertex 407.3677189154874 -66.79013613605744 1
vertex 407.4580741931283 -67.12671822254012 1
vertex 407.4580741931283 -67.12671822254028 0
endloop
endfacet
facet normal 0.9658049321119325 0.25926980755241297 0
outer loop
vertex 407.3677189154874 -66.79013613605744 1
vertex 407.4580741931283 -67.12671822254028 0
vertex 407.3677189154873 -66.7901361360571 0
endloop
endfacet
facet normal 0.9061367688761197 0.4229848178017098 0
outer loop
vertex 407.22030911481954 -66.47434834685959 1
vertex 407.3677189154874 -66.79013613605744 1
vertex 407.3677189154873 -66.7901361360571 0
endloop
endfacet
facet normal 0.9061367688761197 0.4229848178017098 0
outer loop
vertex 407.22030911481954 -66.47434834685959 1
vertex 407.3677189154873 -66.7901361360571 0
vertex 407.22030911481966 -66.47434834685981 0
endloop
endfacet
facet normal 0.8189556707195148 0.5738567847436761 0
outer loop
vertex 407.0203205793196 -66.18894308620781 1
vertex 407.22030911481954 -66.47434834685959 1
vertex 407.22030911481966 -66.47434834685981 0
endloop
endfacet
facet normal 0.8189556707195148 0.5738567847436761 0
outer loop
vertex 407.0203205793196 -66.18894308620781 1
vertex 407.22030911481966 -66.47434834685981 0
vertex 407.0203205793195 -66.18894308620774 0
endloop
endfacet
facet normal 0.7069087081087401 0.7073047987961286 0
outer loop
vertex 406.77382553974877 -65.94258608385914 1
vertex 407.0203205793196 -66.18894308620781 1
vertex 407.0203205793195 -66.18894308620774 0
endloop
endfacet
facet normal 0.7069087081087401 0.7073047987961286 0
outer loop
vertex 406.77382553974877 -65.94258608385914 1
vertex 407.0203205793195 -66.18894308620774 0
vertex 406.7738255397487 -65.94258608385913 0
endloop
endfacet
facet normal 0.573397951124797 0.8192769920154507 0
outer loop
vertex 406.4883082989354 -65.74275745143237 1
vertex 406.77382553974877 -65.94258608385914 1
vertex 406.7738255397487 -65.94258608385913 0
endloop
endfacet
facet normal 0.573397951124797 0.8192769920154507 0
outer loop
vertex 406.4883082989354 -65.74275745143237 1
vertex 406.7738255397487 -65.94258608385913 0
vertex 406.4883082989353 -65.7427574514323 0
endloop
endfacet
facet normal 0.42247717276761465 0.9063735645363247 0
outer loop
vertex 406.17243798667903 -65.595524564569 1
vertex 406.4883082989354 -65.74275745143237 1
vertex 406.4883082989353 -65.7427574514323 0
endloop
endfacet
facet normal 0.42247717276761465 0.9063735645363247 0
outer loop
vertex 406.17243798667903 -65.595524564569 1
vertex 406.4883082989353 -65.7427574514323 0
vertex 406.1724379866791 -65.59552456456902 0
endloop
endfacet
facet normal 0.2587287646760431 0.9659500123345973 0
outer loop
vertex 405.8358053398779 -65.50535783984793 1
vertex 406.17243798667903 -65.595524564569 1
vertex 406.1724379866791 -65.59552456456902 0
endloop
endfacet
facet normal 0.2587287646760431 0.9659500123345973 0
outer loop
vertex 405.8358053398779 -65.50535783984793 1
vertex 406.1724379866791 -65.59552456456902 0
vertex 405.8358053398779 -65.50535783984793 0
endloop
endfacet
facet normal 0.08711073760582623 0.9961986345070791 0
outer loop
vertex 405.488633 -65.475 1
vertex 405.8358053398779 -65.50535783984793 1
vertex 405.8358053398779 -65.50535783984793 0
endloop
endfacet
facet normal 0.08711073760582623 0.9961986345070791 0
outer loop
vertex 405.488633 -65.475 1
vertex 405.8358053398779 -65.50535783984793 0
vertex 405.488633 -65.475 0
endloop
endfacet
facet normal 0 1 0
outer loop
vertex 405.488633 -65.475 1
vertex 405.488633 -65.475 0
vertex 14.474999999999909 -65.475 0
endloop
endfacet
facet normal 0 1 0
outer loop
vertex 405.488633 -65.475 1
vertex 14.474999999999909 -65.475 0
vertex 14.475000000000023 -65.475 1
endloop
endfacet
facet normal -0.08715574274766881 0.9961946980917447 0
outer loop
vertex 14.127703644666155 -65.50538449397558 1
vertex 14.475000000000023 -65.475 1
vertex 14.474999999999909 -65.475 0
endloop
endfacet
facet normal -0.08715574274766881 0.9961946980917447 0
outer loop
vertex 14.127703644666155 -65.50538449397558 1
vertex 14.474999999999909 -65.475 0
vertex 14.127703644666127 -65.50538449397558 0
endloop
endfacet
facet normal -0.2588190451025271 0.9659258262890666 0
outer loop
vertex 13.790959713348599 -65.5956147584282 1
vertex 14.127703644666155 -65.50538449397558 1
vertex 14.127703644666127 -65.50538449397558 0
endloop
endfacet
facet normal -0.2588190451025271 0.9659258262890666 0
outer loop
vertex 13.790959713348599 -65.5956147584282 1
vertex 14.127703644666127 -65.50538449397558 0
vertex 13.790959713348656 -65.59561475842817 0
endloop
endfacet
facet normal -0.42261826174066586 0.9063077870366657 0
outer loop
vertex 13.475000000000023 -65.74294919243108 1
vertex 13.790959713348599 -65.5956147584282 1
vertex 13.790959713348656 -65.59561475842817 0
endloop
endfacet
facet normal -0.42261826174066586 0.9063077870366657 0
outer loop
vertex 13.475000000000023 -65.74294919243108 1
vertex 13.790959713348656 -65.59561475842817 0
vertex 13.475000000000051 -65.74294919243108 0
endloop
endfacet
facet normal -0.5735764363510599 0.8191520442889821 0
outer loop
vertex 13.18942478062695 -65.94291111376201 1
vertex 13.475000000000023 -65.74294919243108 1
vertex 13.475000000000051 -65.74294919243108 0
endloop
endfacet
facet normal -0.5735764363510599 0.8191520442889821 0
outer loop
vertex 13.18942478062695 -65.94291111376201 1
vertex 13.475000000000051 -65.74294919243108 0
vertex 13.18942478062695 -65.94291111376201 0
endloop
endfacet
facet normal -0.7071067811865617 0.7071067811865333 0
outer loop
vertex 12.942911113762023 -66.18942478062695 1
vertex 13.18942478062695 -65.94291111376201 1
vertex 13.18942478062695 -65.94291111376201 0
endloop
endfacet
facet normal -0.7071067811865617 0.7071067811865333 0
outer loop
vertex 12.942911113762023 -66.18942478062695 1
vertex 13.18942478062695 -65.94291111376201 0
vertex 12.942911113762023 -66.18942478062694 0
endloop
endfacet
facet normal -0.8191520442889821 0.5735764363510599 0
outer loop
vertex 12.742949192431155 -66.47499999999997 1
vertex 12.942911113762023 -66.18942478062695 1
vertex 12.942911113762023 -66.18942478062694 0
endloop
endfacet
facet normal -0.8191520442889821 0.5735764363510599 0
outer loop
vertex 12.742949192431155 -66.47499999999997 1
vertex 12.942911113762023 -66.18942478062694 0
vertex 12.742949192431126 -66.47499999999998 0
endloop
endfacet
facet normal -0.9063077870366388 0.4226182617407234 0
outer loop
vertex 12.595614758428184 -66.79095971334866 1
vertex 12.742949192431155 -66.47499999999997 1
vertex 12.742949192431126 -66.47499999999998 0
endloop
endfacet
facet normal -0.9063077870366388 0.4226182617407234 0
outer loop
vertex 12.595614758428184 -66.79095971334866 1
vertex 12.742949192431126 -66.47499999999998 0
vertex 12.595614758428184 -66.79095971334867 0
endloop
endfacet
facet normal -0.965925826289063 0.25881904510254106 0
outer loop
vertex 12.505384493975583 -67.12770364466616 1
vertex 12.595614758428184 -66.79095971334866 1
vertex 12.595614758428184 -66.79095971334867 0
endloop
endfacet
facet normal -0.965925826289063 0.25881904510254106 0
outer loop
vertex 12.505384493975583 -67.12770364466616 1
vertex 12.595614758428184 -66.79095971334867 0
vertex 12.505384493975583 -67.12770364466613 0
endloop
endfacet
facet normal -0.9961946980917459 0.08715574274765459 0
outer loop
vertex 12.474999999999994 -67.47499999999998 1
vertex 12.505384493975583 -67.12770364466616 1
vertex 12.505384493975583 -67.12770364466613 0
endloop
endfacet
facet normal -0.9961946980917459 0.08715574274765459 0
outer loop
vertex 12.474999999999994 -67.47499999999998 1
vertex 12.505384493975583 -67.12770364466613 0
vertex 12.474999999999994 -67.47499999999998 0
endloop
endfacet
facet normal -1 0 0
outer loop
vertex 12.474999999999994 -67.47499999999998 1
vertex 12.474999999999994 -67.47499999999998 0
vertex 12.474999999999994 -187.525 0
endloop
endfacet
facet normal -1 0 0
outer loop
vertex 12.474999999999994 -67.47499999999998 1
vertex 12.474999999999994 -187.525 0
vertex 12.474999999999994 -187.52500000000032 1
endloop
endfacet
endsolid csg.js
