solid csg.js
facet normal 0 0 -1
outer loop
vertex 443.4945823999999 -66.8553492 0
vertex 443.97703455941985 -66.89828864429624 0
vertex 444.44628977785806 -67.01830758242299 0
endloop
endfacet
facet normal 0 0 -1
outer loop
vertex 443.4945823999999 -66.8553492 0
vertex 444.44628977785806 -67.01830758242299 0
vertex 444.8901146749677 -67.21227785397537 0
endloop
endfacet
facet normal 0 0 -1
outer loop
vertex 443.4945823999999 -66.8553492 0
vertex 444.8901146749677 -67.21227785397537 0
vertex 445.29693996825483 -67.47514319266078 0
endloop
endfacet
facet normal 0 0 -1
outer loop
vertex 443.4945823999999 -66.8553492 0
vertex 445.29693996825483 -67.47514319266078 0
vertex 445.6561608521437 -67.80005142911982 0
endloop
endfacet
facet normal 0 0 -1
outer loop
vertex 443.4945823999999 -66.8553492 0
vertex 445.6561608521437 -67.80005142911982 0
vertex 445.9584134358052 -68.17853310794997 0
endloop
endfacet
facet normal 0 0 -1
outer loop
vertex 443.4945823999999 -66.8553492 0
vertex 445.9584134358052 -68.17853310794997 0
vertex 446.1958188337886 -68.60072226289041 0
endloop
endfacet
facet normal 0 0 -1
outer loop
vertex 443.4945823999999 -66.8553492 0
vertex 446.1958188337886 -68.60072226289041 0
vertex 446.36218854668107 -69.05561359515832 0
endloop
endfacet
facet normal 0 0 -1
outer loop
vertex 443.4945823999999 -66.8553492 0
vertex 446.36218854668107 -69.05561359515832 0
vertex 446.4531857781034 -69.53134935102896 0
endloop
endfacet
facet normal 0 0 -1
outer loop
vertex 443.4945823999999 -66.8553492 0
vertex 446.4531857781034 -69.53134935102896 0
vertex 446.4664384829465 -70.01552842054225 0
endloop
endfacet
facet normal 0 0 -1
outer loop
vertex 443.4945823999999 -66.8553492 0
vertex 446.4664384829465 -70.01552842054225 0
vertex 446.40160119999996 -70.49552960000022 0
endloop
endfacet
facet normal 0 0 -1
outer loop
vertex 443.4945823999999 -66.8553492 0
vertex 446.40160119999996 -70.49552960000022 0
vertex 432.8478817999998 -132.53811610000076 0
endloop
endfacet
facet normal 0 0 -1
outer loop
vertex 443.4945823999999 -66.8553492 0
vertex 432.8478817999998 -132.53811610000076 0
vertex 432.7406669725331 -132.91121214060317 0
endloop
endfacet
facet normal 0 0 -1
outer loop
vertex 443.4945823999999 -66.8553492 0
vertex 432.7406669725331 -132.91121214060317 0
vertex 432.5861730203063 -133.267343263052 0
endloop
endfacet
facet normal 0 0 -1
outer loop
vertex 443.4945823999999 -66.8553492 0
vertex 432.5861730203063 -133.267343263052 0
vertex 432.38698592022746 -133.60054328828244 0
endloop
endfacet
facet normal 0 0 -1
outer loop
vertex 443.4945823999999 -66.8553492 0
vertex 432.38698592022746 -133.60054328828244 0
vertex 432.1464409000006 -133.9052330499993 0
endloop
endfacet
facet normal 0 0 -1
outer loop
vertex 443.4945823999999 -66.8553492 0
vertex 432.1464409000006 -133.9052330499993 0
vertex 400.91906979999993 -168.58673920000004 0
endloop
endfacet
facet normal 0 0 -1
outer loop
vertex 443.4945823999999 -66.8553492 0
vertex 400.91906979999993 -168.58673920000004 0
vertex 400.6973892348954 -168.80845163323772 0
endloop
endfacet
facet normal 0 0 -1
outer loop
vertex 443.4945823999999 -66.8553492 0
vertex 400.6973892348954 -168.80845163323772 0
vertex 400.4537852081218 -169.00581780136574 0
endloop
endfacet
facet normal 0 0 -1
outer loop
vertex 443.4945823999999 -66.8553492 0
vertex 400.4537852081218 -169.00581780136574 0
vertex 400.19091341755495 -169.17668250780142 0
endloop
endfacet
facet normal 0 0 -1
outer loop
vertex 443.4945823999999 -66.8553492 0
vertex 400.19091341755495 -169.17668250780142 0
vertex 399.9116448999985 -169.3191796000007 0
endloop
endfacet
facet normal 0 0 -1
outer loop
vertex 443.4945823999999 -66.8553492 0
vertex 399.9116448999985 -169.3191796000007 0
vertex 373.2664661209319 -181.2032873 0
endloop
endfacet
facet normal 0 0 -1
outer loop
vertex 443.4945823999999 -66.8553492 0
vertex 373.2664661209319 -181.2032873 0
vertex 313.4057739499997 -181.2032873 0
endloop
endfacet
facet normal 0 0 -1
outer loop
vertex 443.4945823999999 -66.8553492 0
vertex 313.4057739499997 -181.2032873 0
vertex 28.23394094782825 -181.2032873 0
endloop
endfacet
facet normal 0 0 -1
outer loop
vertex 443.4945823999999 -66.8553492 0
vertex 28.23394094782825 -181.2032873 0
vertex 20.228588099999996 -66.721457 0
endloop
endfacet
facet normal 0 0 -1
outer loop
vertex 443.4945823999999 -66.8553492 0
vertex 20.228588099999996 -66.721457 0
vertex 20.234815014530824 -66.22748740930544 0
endloop
endfacet
facet normal 0 0 -1
outer loop
vertex 443.4945823999999 -66.8553492 0
vertex 20.234815014530824 -66.22748740930544 0
vertex 20.322027601152797 -65.74123621075088 0
endloop
endfacet
facet normal 0 0 -1
outer loop
vertex 443.4945823999999 -66.8553492 0
vertex 20.322027601152797 -65.74123621075088 0
vertex 20.48785693143438 -65.27589021412115 0
endloop
endfacet
facet normal 0 0 -1
outer loop
vertex 443.4945823999999 -66.8553492 0
vertex 20.48785693143438 -65.27589021412115 0
vertex 20.727806335552174 -64.84406785848812 0
endloop
endfacet
facet normal 0 0 -1
outer loop
vertex 443.4945823999999 -66.8553492 0
vertex 20.727806335552174 -64.84406785848812 0
vertex 21.035369285120623 -64.45747854744371 0
endloop
endfacet
facet normal 0 0 -1
outer loop
vertex 443.4945823999999 -66.8553492 0
vertex 21.035369285120623 -64.45747854744371 0
vertex 21.40220582585181 -64.12660513396756 0
endloop
endfacet
facet normal 0 0 -1
outer loop
vertex 443.4945823999999 -66.8553492 0
vertex 21.40220582585181 -64.12660513396756 0
vertex 21.81836872585353 -63.860419664748996 0
endloop
endfacet
facet normal 0 0 -1
outer loop
vertex 443.4945823999999 -66.8553492 0
vertex 21.81836872585353 -63.860419664748996 0
vertex 22.272573207270938 -63.66614009191284 0
endloop
endfacet
facet normal 0 0 -1
outer loop
vertex 443.4945823999999 -66.8553492 0
vertex 22.272573207270938 -63.66614009191284 0
vertex 22.752502947160337 -63.5490345492145 0
endloop
endfacet
facet normal 0 0 -1
outer loop
vertex 443.4945823999999 -66.8553492 0
vertex 22.752502947160337 -63.5490345492145 0
vertex 23.24514404999985 -63.5122785 0
endloop
endfacet
facet normal 0 0 -1
outer loop
vertex 373.2664661209319 -181.2032873 0
vertex 373.2527580158203 -181.20940129904125 0
vertex 313.6744062445907 -181.20940129904125 0
endloop
endfacet
facet normal 0 0 -1
outer loop
vertex 373.2664661209319 -181.2032873 0
vertex 313.6744062445907 -181.20940129904125 0
vertex 313.4057739499997 -181.2032873 0
endloop
endfacet
facet normal 0 0 -1
outer loop
vertex 373.2527580158203 -181.20940129904125 0
vertex 373.18521901670283 -181.2395246 0
vertex 313.9414178999998 -181.2395246 0
endloop
endfacet
facet normal 0 0 -1
outer loop
vertex 373.2527580158203 -181.20940129904125 0
vertex 313.9414178999998 -181.2395246 0
vertex 313.6744062445907 -181.20940129904125 0
endloop
endfacet
facet normal 0 0 -1
outer loop
vertex 313.4057739499997 -181.2032873 0
vertex 31.5324483 -187.4206286 0
vertex 31.026363774555307 -187.38892658176923 0
endloop
endfacet
facet normal 0 0 -1
outer loop
vertex 313.4057739499997 -181.2032873 0
vertex 31.026363774555307 -187.38892658176923 0
vertex 30.53285189785325 -187.2724429506988 0
endloop
endfacet
facet normal 0 0 -1
outer loop
vertex 313.4057739499997 -181.2032873 0
vertex 30.53285189785325 -187.2724429506988 0
vertex 30.066007737947814 -187.07450624587776 0
endloop
endfacet
facet normal 0 0 -1
outer loop
vertex 313.4057739499997 -181.2032873 0
vertex 30.066007737947814 -187.07450624587776 0
vertex 29.63916863871725 -186.80077135200858 0
endloop
endfacet
facet normal 0 0 -1
outer loop
vertex 313.4057739499997 -181.2032873 0
vertex 29.63916863871725 -186.80077135200858 0
vertex 29.264529033200233 -186.45905864412182 0
endloop
endfacet
facet normal 0 0 -1
outer loop
vertex 313.4057739499997 -181.2032873 0
vertex 29.264529033200233 -186.45905864412182 0
vertex 28.95279205892814 -186.05913056605635 0
endloop
endfacet
facet normal 0 0 -1
outer loop
vertex 313.4057739499997 -181.2032873 0
vertex 28.95279205892814 -186.05913056605635 0
vertex 28.712863778314755 -185.61241272567477 0
endloop
endfacet
facet normal 0 0 -1
outer loop
vertex 313.4057739499997 -181.2032873 0
vertex 28.712863778314755 -185.61241272567477 0
vertex 28.551598739964305 -185.1316674748826 0
endloop
endfacet
facet normal 0 0 -1
outer loop
vertex 313.4057739499997 -181.2032873 0
vertex 28.551598739964305 -185.1316674748826 0
vertex 28.47360415 -184.63062929999995 0
endloop
endfacet
facet normal 0 0 -1
outer loop
vertex 313.4057739499997 -181.2032873 0
vertex 28.47360415 -184.63062929999995 0
vertex 28.23394094782825 -181.2032873 0
endloop
endfacet
facet normal 0 0 -1
outer loop
vertex 373.18521901670283 -181.2395246 0
vertex 358.46819820000064 -187.8035135999998 0
vertex 358.06188706294057 -187.95065208382584 0
endloop
endfacet
facet normal 0 0 -1
outer loop
vertex 373.18521901670283 -181.2395246 0
vertex 358.06188706294057 -187.95065208382584 0
vertex 357.63865563935747 -188.03789217541174 0
endloop
endfacet
facet normal 0 0 -1
outer loop
vertex 373.18521901670283 -181.2395246 0
vertex 357.63865563935747 -188.03789217541174 0
vertex 357.20728120748083 -188.0634219817487 0
endloop
endfacet
facet normal 0 0 -1
outer loop
vertex 373.18521901670283 -181.2395246 0
vertex 357.20728120748083 -188.0634219817487 0
vertex 356.7767140999997 -188.0267118 0
endloop
endfacet
facet normal 0 0 -1
outer loop
vertex 373.18521901670283 -181.2395246 0
vertex 356.7767140999997 -188.0267118 0
vertex 313.9414178999998 -181.2395246 0
endloop
endfacet
facet normal 0 0 1
outer loop
vertex 357.6386556393574 -188.03789217541174 1
vertex 358.0618870629404 -187.95065208382587 1
vertex 358.4681982000002 -187.80351359999995 1
endloop
endfacet
facet normal 0 0 1
outer loop
vertex 357.6386556393574 -188.03789217541174 1
vertex 358.4681982000002 -187.80351359999995 1
vertex 373.185219016703 -181.2395245999999 1
endloop
endfacet
facet normal 0 0 1
outer loop
vertex 357.6386556393574 -188.03789217541174 1
vertex 373.185219016703 -181.2395245999999 1
vertex 313.94141789999907 -181.2395245999999 1
endloop
endfacet
facet normal 0 0 1
outer loop
vertex 357.6386556393574 -188.03789217541174 1
vertex 313.94141789999907 -181.2395245999999 1
vertex 356.77671409999965 -188.0267118 1
endloop
endfacet
facet normal 0 0 1
outer loop
vertex 357.6386556393574 -188.03789217541174 1
vertex 356.77671409999965 -188.0267118 1
vertex 357.2072812074808 -188.0634219817487 1
endloop
endfacet
facet normal 0 0 1
outer loop
vertex 373.185219016703 -181.2395245999999 1
vertex 373.25275801582023 -181.20940129904125 1
vertex 313.67440624459124 -181.20940129904125 1
endloop
endfacet
facet normal 0 0 1
outer loop
vertex 373.185219016703 -181.2395245999999 1
vertex 313.67440624459124 -181.20940129904125 1
vertex 313.94141789999907 -181.2395245999999 1
endloop
endfacet
facet normal 0 0 1
outer loop
vertex 313.4057739500003 -181.2032873 1
vertex 28.23394094782826 -181.2032873 1
vertex 28.473604149999943 -184.630629299999 1
endloop
endfacet
facet normal 0 0 1
outer loop
vertex 313.4057739500003 -181.2032873 1
vertex 28.473604149999943 -184.630629299999 1
vertex 28.551598739964447 -185.13166747488302 1
endloop
endfacet
facet normal 0 0 1
outer loop
vertex 313.4057739500003 -181.2032873 1
vertex 28.551598739964447 -185.13166747488302 1
vertex 28.712863778314755 -185.6124127256748 1
endloop
endfacet
facet normal 0 0 1
outer loop
vertex 313.4057739500003 -181.2032873 1
vertex 28.712863778314755 -185.6124127256748 1
vertex 28.952792058928082 -186.0591305660563 1
endloop
endfacet
facet normal 0 0 1
outer loop
vertex 313.4057739500003 -181.2032873 1
vertex 28.952792058928082 -186.0591305660563 1
vertex 29.26452903320012 -186.45905864412165 1
endloop
endfacet
facet normal 0 0 1
outer loop
vertex 313.4057739500003 -181.2032873 1
vertex 29.26452903320012 -186.45905864412165 1
vertex 29.639168638717393 -186.80077135200867 1
endloop
endfacet
facet normal 0 0 1
outer loop
vertex 313.4057739500003 -181.2032873 1
vertex 29.639168638717393 -186.80077135200867 1
vertex 30.06600773794787 -187.07450624587776 1
endloop
endfacet
facet normal 0 0 1
outer loop
vertex 313.4057739500003 -181.2032873 1
vertex 30.06600773794787 -187.07450624587776 1
vertex 30.53285189785339 -187.27244295069883 1
endloop
endfacet
facet normal 0 0 1
outer loop
vertex 313.4057739500003 -181.2032873 1
vertex 30.53285189785339 -187.27244295069883 1
vertex 31.026363774555335 -187.38892658176923 1
endloop
endfacet
facet normal 0 0 1
outer loop
vertex 313.4057739500003 -181.2032873 1
vertex 31.026363774555335 -187.38892658176923 1
vertex 31.532448299999885 -187.4206286 1
endloop
endfacet
facet normal 0 0 1
outer loop
vertex 373.25275801582023 -181.20940129904125 1
vertex 373.2664661209318 -181.2032873 1
vertex 313.4057739500003 -181.2032873 1
endloop
endfacet
facet normal 0 0 1
outer loop
vertex 373.25275801582023 -181.20940129904125 1
vertex 313.4057739500003 -181.2032873 1
vertex 313.67440624459124 -181.20940129904125 1
endloop
endfacet
facet normal 0 0 1
outer loop
vertex 313.4057739500003 -181.2032873 1
vertex 373.2664661209318 -181.2032873 1
vertex 399.9116448999984 -169.31917960000075 1
endloop
endfacet
facet normal 0 0 1
outer loop
vertex 313.4057739500003 -181.2032873 1
vertex 399.9116448999984 -169.31917960000075 1
vertex 400.190913417555 -169.1766825078014 1
endloop
endfacet
facet normal 0 0 1
outer loop
vertex 313.4057739500003 -181.2032873 1
vertex 400.190913417555 -169.1766825078014 1
vertex 400.45378520812153 -169.00581780136594 1
endloop
endfacet
facet normal 0 0 1
outer loop
vertex 313.4057739500003 -181.2032873 1
vertex 400.45378520812153 -169.00581780136594 1
vertex 400.6973892348957 -168.8084516332375 1
endloop
endfacet
facet normal 0 0 1
outer loop
vertex 313.4057739500003 -181.2032873 1
vertex 400.6973892348957 -168.8084516332375 1
vertex 400.919069799999 -168.586739200001 1
endloop
endfacet
facet normal 0 0 1
outer loop
vertex 313.4057739500003 -181.2032873 1
vertex 400.919069799999 -168.586739200001 1
vertex 432.14644090000087 -133.90523304999894 1
endloop
endfacet
facet normal 0 0 1
outer loop
vertex 313.4057739500003 -181.2032873 1
vertex 432.14644090000087 -133.90523304999894 1
vertex 432.3869859202276 -133.60054328828224 1
endloop
endfacet
facet normal 0 0 1
outer loop
vertex 313.4057739500003 -181.2032873 1
vertex 432.3869859202276 -133.60054328828224 1
vertex 432.5861730203064 -133.26734326305197 1
endloop
endfacet
facet normal 0 0 1
outer loop
vertex 313.4057739500003 -181.2032873 1
vertex 432.5861730203064 -133.26734326305197 1
vertex 432.740666972533 -132.91121214060354 1
endloop
endfacet
facet normal 0 0 1
outer loop
vertex 313.4057739500003 -181.2032873 1
vertex 432.740666972533 -132.91121214060354 1
vertex 432.8478817999998 -132.5381161000007 1
endloop
endfacet
facet normal 0 0 1
outer loop
vertex 313.4057739500003 -181.2032873 1
vertex 432.8478817999998 -132.5381161000007 1
vertex 446.4016012000001 -70.49552959999977 1
endloop
endfacet
facet normal 0 0 1
outer loop
vertex 313.4057739500003 -181.2032873 1
vertex 446.4016012000001 -70.49552959999977 1
vertex 446.4664384829465 -70.01552842054282 1
endloop
endfacet
facet normal 0 0 1
outer loop
vertex 313.4057739500003 -181.2032873 1
vertex 446.4664384829465 -70.01552842054282 1
vertex 446.4531857781034 -69.53134935102916 1
endloop
endfacet
facet normal 0 0 1
outer loop
vertex 313.4057739500003 -181.2032873 1
vertex 446.4531857781034 -69.53134935102916 1
vertex 446.362188546681 -69.05561359515819 1
endloop
endfacet
facet normal 0 0 1
outer loop
vertex 313.4057739500003 -181.2032873 1
vertex 446.362188546681 -69.05561359515819 1
vertex 446.1958188337885 -68.6007222628902 1
endloop
endfacet
facet normal 0 0 1
outer loop
vertex 313.4057739500003 -181.2032873 1
vertex 446.1958188337885 -68.6007222628902 1
vertex 445.9584134358052 -68.17853310794997 1
endloop
endfacet
facet normal 0 0 1
outer loop
vertex 313.4057739500003 -181.2032873 1
vertex 445.9584134358052 -68.17853310794997 1
vertex 445.65616085214384 -67.80005142911996 1
endloop
endfacet
facet normal 0 0 1
outer loop
vertex 313.4057739500003 -181.2032873 1
vertex 445.65616085214384 -67.80005142911996 1
vertex 445.29693996825466 -67.47514319266068 1
endloop
endfacet
facet normal 0 0 1
outer loop
vertex 313.4057739500003 -181.2032873 1
vertex 445.29693996825466 -67.47514319266068 1
vertex 444.8901146749676 -67.21227785397532 1
endloop
endfacet
facet normal 0 0 1
outer loop
vertex 313.4057739500003 -181.2032873 1
vertex 444.8901146749676 -67.21227785397532 1
vertex 444.446289777858 -67.01830758242298 1
endloop
endfacet
facet normal 0 0 1
outer loop
vertex 313.4057739500003 -181.2032873 1
vertex 444.446289777858 -67.01830758242298 1
vertex 443.97703455941985 -66.89828864429624 1
endloop
endfacet
facet normal 0 0 1
outer loop
vertex 313.4057739500003 -181.2032873 1
vertex 443.97703455941985 -66.89828864429624 1
vertex 443.49458239999996 -66.8553492 1
endloop
endfacet
facet normal 0 0 1
outer loop
vertex 313.4057739500003 -181.2032873 1
vertex 443.49458239999996 -66.8553492 1
vertex 23.24514405000002 -63.512278499999994 1
endloop
endfacet
facet normal 0 0 1
outer loop
vertex 313.4057739500003 -181.2032873 1
vertex 23.24514405000002 -63.512278499999994 1
vertex 22.75250294716028 -63.549034549214504 1
endloop
endfacet
facet normal 0 0 1
outer loop
vertex 313.4057739500003 -181.2032873 1
vertex 22.75250294716028 -63.549034549214504 1
vertex 22.272573207270966 -63.66614009191283 1
endloop
endfacet
facet normal 0 0 1
outer loop
vertex 313.4057739500003 -181.2032873 1
vertex 22.272573207270966 -63.66614009191283 1
vertex 21.818368725853503 -63.860419664749 1
endloop
endfacet
facet normal 0 0 1
outer loop
vertex 313.4057739500003 -181.2032873 1
vertex 21.818368725853503 -63.860419664749 1
vertex 21.40220582585181 -64.12660513396756 1
endloop
endfacet
facet normal 0 0 1
outer loop
vertex 313.4057739500003 -181.2032873 1
vertex 21.40220582585181 -64.12660513396756 1
vertex 21.035369285120623 -64.45747854744371 1
endloop
endfacet
facet normal 0 0 1
outer loop
vertex 313.4057739500003 -181.2032873 1
vertex 21.035369285120623 -64.45747854744371 1
vertex 20.727806335552174 -64.84406785848813 1
endloop
endfacet
facet normal 0 0 1
outer loop
vertex 313.4057739500003 -181.2032873 1
vertex 20.727806335552174 -64.84406785848813 1
vertex 20.48785693143438 -65.2758902141211 1
endloop
endfacet
facet normal 0 0 1
outer loop
vertex 313.4057739500003 -181.2032873 1
vertex 20.48785693143438 -65.2758902141211 1
vertex 20.32202760115277 -65.74123621075091 1
endloop
endfacet
facet normal 0 0 1
outer loop
vertex 313.4057739500003 -181.2032873 1
vertex 20.32202760115277 -65.74123621075091 1
vertex 20.234815014530824 -66.22748740930541 1
endloop
endfacet
facet normal 0 0 1
outer loop
vertex 313.4057739500003 -181.2032873 1
vertex 20.234815014530824 -66.22748740930541 1
vertex 20.228588099999996 -66.72145699999999 1
endloop
endfacet
facet normal 0 0 1
outer loop
vertex 313.4057739500003 -181.2032873 1
vertex 20.228588099999996 -66.72145699999999 1
vertex 28.23394094782826 -181.2032873 1
endloop
endfacet
facet normal -0.9880998940425264 -0.1538135214899784 0
outer loop
vertex 28.551598739964447 -185.13166747488302 1
vertex 28.473604149999943 -184.630629299999 1
vertex 28.47360415 -184.63062929999995 0
endloop
endfacet
facet normal -0.9880998940425264 -0.1538135214899784 0
outer loop
vertex 28.551598739964447 -185.13166747488302 1
vertex 28.47360415 -184.63062929999995 0
vertex 28.551598739964305 -185.1316674748826 0
endloop
endfacet
facet normal -0.9480801168104461 -0.3180315897968169 0
outer loop
vertex 28.712863778314755 -185.6124127256748 1
vertex 28.551598739964447 -185.13166747488302 1
vertex 28.551598739964305 -185.1316674748826 0
endloop
endfacet
facet normal -0.9480801168104461 -0.3180315897968169 0
outer loop
vertex 28.712863778314755 -185.6124127256748 1
vertex 28.551598739964305 -185.1316674748826 0
vertex 28.712863778314755 -185.61241272567477 0
endloop
endfacet
facet normal -0.8809744903199458 -0.4731637638339517 0
outer loop
vertex 28.952792058928082 -186.0591305660563 1
vertex 28.712863778314755 -185.6124127256748 1
vertex 28.712863778314755 -185.61241272567477 0
endloop
endfacet
facet normal -0.8809744903199458 -0.4731637638339517 0
outer loop
vertex 28.952792058928082 -186.0591305660563 1
vertex 28.712863778314755 -185.61241272567477 0
vertex 28.95279205892814 -186.05913056605635 0
endloop
endfacet
facet normal -0.7887001657182101 -0.6147780482386046 0
outer loop
vertex 29.26452903320012 -186.45905864412165 1
vertex 28.952792058928082 -186.0591305660563 1
vertex 28.95279205892814 -186.05913056605635 0
endloop
endfacet
facet normal -0.7887001657182101 -0.6147780482386046 0
outer loop
vertex 29.26452903320012 -186.45905864412165 1
vertex 28.95279205892814 -186.05913056605635 0
vertex 29.264529033200233 -186.45905864412182 0
endloop
endfacet
facet normal -0.6738933426282341 -0.738828642353114 0
outer loop
vertex 29.639168638717393 -186.80077135200867 1
vertex 29.26452903320012 -186.45905864412165 1
vertex 29.264529033200233 -186.45905864412182 0
endloop
endfacet
facet normal -0.6738933426282341 -0.738828642353114 0
outer loop
vertex 29.639168638717393 -186.80077135200867 1
vertex 29.264529033200233 -186.45905864412182 0
vertex 29.63916863871725 -186.80077135200858 0
endloop
endfacet
facet normal -0.5398339551495634 -0.8417715253366433 0
outer loop
vertex 30.06600773794787 -187.07450624587776 1
vertex 29.639168638717393 -186.80077135200867 1
vertex 29.63916863871725 -186.80077135200858 0
endloop
endfacet
facet normal -0.5398339551495634 -0.8417715253366433 0
outer loop
vertex 30.06600773794787 -187.07450624587776 1
vertex 29.63916863871725 -186.80077135200858 0
vertex 30.066007737947814 -187.07450624587776 0
endloop
endfacet
facet normal -0.39035196690693413 -0.9206657058519601 0
outer loop
vertex 30.53285189785339 -187.27244295069883 1
vertex 30.06600773794787 -187.07450624587776 1
vertex 30.066007737947814 -187.07450624587776 0
endloop
endfacet
facet normal -0.39035196690693413 -0.9206657058519601 0
outer loop
vertex 30.53285189785339 -187.27244295069883 1
vertex 30.066007737947814 -187.07450624587776 0
vertex 30.53285189785325 -187.2724429506988 0
endloop
endfacet
facet normal -0.22971795222059696 -0.9732572437067066 0
outer loop
vertex 31.026363774555335 -187.38892658176923 1
vertex 30.53285189785339 -187.27244295069883 1
vertex 30.53285189785325 -187.2724429506988 0
endloop
endfacet
facet normal -0.22971795222059696 -0.9732572437067066 0
outer loop
vertex 31.026363774555335 -187.38892658176923 1
vertex 30.53285189785325 -187.2724429506988 0
vertex 31.026363774555307 -187.38892658176923 0
endloop
endfacet
facet normal -0.0625192036515046 -0.998043761152176 0
outer loop
vertex 31.532448299999885 -187.4206286 1
vertex 31.026363774555335 -187.38892658176923 1
vertex 31.026363774555307 -187.38892658176923 0
endloop
endfacet
facet normal -0.0625192036515046 -0.998043761152176 0
outer loop
vertex 31.532448299999885 -187.4206286 1
vertex 31.026363774555307 -187.38892658176923 0
vertex 31.5324483 -187.4206286 0
endloop
endfacet
facet normal 0.022051853981650993 -0.9997568283017486 0
outer loop
vertex 313.4057739500003 -181.2032873 1
vertex 31.532448299999885 -187.4206286 1
vertex 31.5324483 -187.4206286 0
endloop
endfacet
facet normal 0.022051853981650993 -0.9997568283017486 0
outer loop
vertex 313.4057739500003 -181.2032873 1
vertex 31.5324483 -187.4206286 0
vertex 313.4057739499997 -181.2032873 0
endloop
endfacet
facet normal -0.022753839493617534 -0.9997410978789953 0
outer loop
vertex 313.67440624459124 -181.20940129904125 1
vertex 313.4057739500003 -181.2032873 1
vertex 313.4057739499997 -181.2032873 0
endloop
endfacet
facet normal -0.022753839493617534 -0.9997410978789953 0
outer loop
vertex 313.67440624459124 -181.20940129904125 1
vertex 313.4057739499997 -181.2032873 0
vertex 313.6744062445907 -181.20940129904125 0
endloop
endfacet
facet normal -0.1121052702666248 -0.9936963360999411 0
outer loop
vertex 313.94141789999907 -181.2395245999999 1
vertex 313.67440624459124 -181.20940129904125 1
vertex 313.6744062445907 -181.20940129904125 0
endloop
endfacet
facet normal -0.1121052702666248 -0.9936963360999411 0
outer loop
vertex 313.94141789999907 -181.2395245999999 1
vertex 313.6744062445907 -181.20940129904125 0
vertex 313.9414178999998 -181.2395246 0
endloop
endfacet
facet normal -0.15649615910183448 -0.9876785672405641 0
outer loop
vertex 356.77671409999965 -188.0267118 1
vertex 313.94141789999907 -181.2395245999999 1
vertex 313.9414178999998 -181.2395246 0
endloop
endfacet
facet normal -0.15649615910183448 -0.9876785672405641 0
outer loop
vertex 356.77671409999965 -188.0267118 1
vertex 313.9414178999998 -181.2395246 0
vertex 356.7767140999997 -188.0267118 0
endloop
endfacet
facet normal -0.08495185975269237 -0.9963850568553099 0
outer loop
vertex 357.2072812074808 -188.0634219817487 1
vertex 356.77671409999965 -188.0267118 1
vertex 356.7767140999997 -188.0267118 0
endloop
endfacet
facet normal -0.08495185975269237 -0.9963850568553099 0
outer loop
vertex 357.2072812074808 -188.0634219817487 1
vertex 356.7767140999997 -188.0267118 0
vertex 357.20728120748083 -188.0634219817487 0
endloop
endfacet
facet normal 0.05907910078730086 -0.998253304452414 0
outer loop
vertex 357.6386556393574 -188.03789217541174 1
vertex 357.2072812074808 -188.0634219817487 1
vertex 357.20728120748083 -188.0634219817487 0
endloop
endfacet
facet normal 0.05907910078730086 -0.998253304452414 0
outer loop
vertex 357.6386556393574 -188.03789217541174 1
vertex 357.20728120748083 -188.0634219817487 0
vertex 357.63865563935747 -188.03789217541174 0
endloop
endfacet
facet normal 0.20188426404314389 -0.9794093852581556 0
outer loop
vertex 358.0618870629404 -187.95065208382587 1
vertex 357.6386556393574 -188.03789217541174 1
vertex 357.63865563935747 -188.03789217541174 0
endloop
endfacet
facet normal 0.20188426404314389 -0.9794093852581556 0
outer loop
vertex 358.0618870629404 -187.95065208382587 1
vertex 357.63865563935747 -188.03789217541174 0
vertex 358.06188706294057 -187.95065208382584 0
endloop
endfacet
facet normal 0.34049393020637597 -0.9402467141620945 0
outer loop
vertex 358.4681982000002 -187.80351359999995 1
vertex 358.0618870629404 -187.95065208382587 1
vertex 358.06188706294057 -187.95065208382584 0
endloop
endfacet
facet normal 0.34049393020637597 -0.9402467141620945 0
outer loop
vertex 358.4681982000002 -187.80351359999995 1
vertex 358.06188706294057 -187.95065208382584 0
vertex 358.46819820000064 -187.8035135999998 0
endloop
endfacet
facet normal 0 0 1
outer loop
vertex 399.9116448999984 -169.31917960000075 1
vertex 373.2664661209318 -181.2032873 1
vertex 373.25275801582023 -181.20940129904125 1
endloop
endfacet
facet normal 0 0 1
outer loop
vertex 399.9116448999984 -169.31917960000075 1
vertex 373.25275801582023 -181.20940129904125 1
vertex 373.185219016703 -181.2395245999999 1
endloop
endfacet
facet normal 0 0 1
outer loop
vertex 399.9116448999984 -169.31917960000075 1
vertex 373.185219016703 -181.2395245999999 1
vertex 358.4681982000002 -187.80351359999995 1
endloop
endfacet
facet normal 0 0 1
outer loop
vertex 399.9116448999984 -169.31917960000075 1
vertex 358.4681982000002 -187.80351359999995 1
vertex 358.46819820000064 -187.8035135999998 0
endloop
endfacet
facet normal 0 0 1
outer loop
vertex 399.9116448999984 -169.31917960000075 1
vertex 358.46819820000064 -187.8035135999998 0
vertex 373.18521901670283 -181.2395246 0
endloop
endfacet
facet normal 0 0 1
outer loop
vertex 399.9116448999984 -169.31917960000075 1
vertex 373.18521901670283 -181.2395246 0
vertex 373.2527580158203 -181.20940129904125 0
endloop
endfacet
facet normal 0 0 1
outer loop
vertex 399.9116448999984 -169.31917960000075 1
vertex 373.2527580158203 -181.20940129904125 0
vertex 373.2664661209319 -181.2032873 0
endloop
endfacet
facet normal 0 0 1
outer loop
vertex 399.9116448999984 -169.31917960000075 1
vertex 373.2664661209319 -181.2032873 0
vertex 399.9116448999985 -169.3191796000007 0
endloop
endfacet
facet normal 0.4545036329627134 -0.8907448835798583 0
outer loop
vertex 400.190913417555 -169.1766825078014 1
vertex 399.9116448999984 -169.31917960000075 1
vertex 399.9116448999985 -169.3191796000007 0
endloop
endfacet
facet normal 0.4545036329627134 -0.8907448835798583 0
outer loop
vertex 400.190913417555 -169.1766825078014 1
vertex 399.9116448999985 -169.3191796000007 0
vertex 400.19091341755495 -169.17668250780142 0
endloop
endfacet
facet normal 0.5449839615842607 -0.8384464691415457 0
outer loop
vertex 400.45378520812153 -169.00581780136594 1
vertex 400.190913417555 -169.1766825078014 1
vertex 400.19091341755495 -169.17668250780142 0
endloop
endfacet
facet normal 0.5449839615842607 -0.8384464691415457 0
outer loop
vertex 400.45378520812153 -169.00581780136594 1
vertex 400.19091341755495 -169.17668250780142 0
vertex 400.4537852081218 -169.00581780136574 0
endloop
endfacet
facet normal 0.6295120767333596 -0.7769906983013715 0
outer loop
vertex 400.6973892348957 -168.8084516332375 1
vertex 400.45378520812153 -169.00581780136594 1
vertex 400.4537852081218 -169.00581780136574 0
endloop
endfacet
facet normal 0.6295120767333596 -0.7769906983013715 0
outer loop
vertex 400.6973892348957 -168.8084516332375 1
vertex 400.4537852081218 -169.00581780136574 0
vertex 400.6973892348954 -168.80845163323772 0
endloop
endfacet
facet normal 0.7071576014820621 -0.7070559572382776 0
outer loop
vertex 400.919069799999 -168.586739200001 1
vertex 400.6973892348957 -168.8084516332375 1
vertex 400.6973892348954 -168.80845163323772 0
endloop
endfacet
facet normal 0.7071576014820621 -0.7070559572382776 0
outer loop
vertex 400.919069799999 -168.586739200001 1
vertex 400.6973892348954 -168.80845163323772 0
vertex 400.91906979999993 -168.58673920000004 0
endloop
endfacet
facet normal 0.743144796706315 -0.6691306383123775 0
outer loop
vertex 432.14644090000087 -133.90523304999894 1
vertex 400.919069799999 -168.586739200001 1
vertex 400.91906979999993 -168.58673920000004 0
endloop
endfacet
facet normal 0.743144796706315 -0.6691306383123775 0
outer loop
vertex 432.14644090000087 -133.90523304999894 1
vertex 400.91906979999993 -168.58673920000004 0
vertex 432.1464409000006 -133.9052330499993 0
endloop
endfacet
facet normal 0.7848821748176518 -0.6196450368182683 0
outer loop
vertex 432.3869859202276 -133.60054328828224 1
vertex 432.14644090000087 -133.90523304999894 1
vertex 432.1464409000006 -133.9052330499993 0
endloop
endfacet
facet normal 0.7848821748176518 -0.6196450368182683 0
outer loop
vertex 432.3869859202276 -133.60054328828224 1
vertex 432.1464409000006 -133.9052330499993 0
vertex 432.38698592022746 -133.60054328828244 0
endloop
endfacet
facet normal 0.8583247398212249 -0.5131068514557438 0
outer loop
vertex 432.5861730203064 -133.26734326305197 1
vertex 432.3869859202276 -133.60054328828224 1
vertex 432.38698592022746 -133.60054328828244 0
endloop
endfacet
facet normal 0.8583247398212249 -0.5131068514557438 0
outer loop
vertex 432.5861730203064 -133.26734326305197 1
vertex 432.38698592022746 -133.60054328828244 0
vertex 432.5861730203063 -133.267343263052 0
endloop
endfacet
facet normal 0.9173953477549158 -0.39797710476563475 0
outer loop
vertex 432.740666972533 -132.91121214060354 1
vertex 432.5861730203064 -133.26734326305197 1
vertex 432.5861730203063 -133.267343263052 0
endloop
endfacet
facet normal 0.9173953477549158 -0.39797710476563475 0
outer loop
vertex 432.740666972533 -132.91121214060354 1
vertex 432.5861730203063 -133.267343263052 0
vertex 432.7406669725331 -132.91121214060317 0
endloop
endfacet
facet normal 0.9611036941085699 -0.27618777882241746 0
outer loop
vertex 432.8478817999998 -132.5381161000007 1
vertex 432.740666972533 -132.91121214060354 1
vertex 432.7406669725331 -132.91121214060317 0
endloop
endfacet
facet normal 0.9611036941085699 -0.27618777882241746 0
outer loop
vertex 432.8478817999998 -132.5381161000007 1
vertex 432.7406669725331 -132.91121214060317 0
vertex 432.8478817999998 -132.53811610000076 0
endloop
endfacet
facet normal 0.9769594672289975 -0.21342492682822542 0
outer loop
vertex 446.4016012000001 -70.49552959999977 1
vertex 432.8478817999998 -132.5381161000007 1
vertex 432.8478817999998 -132.53811610000076 0
endloop
endfacet
facet normal 0.9769594672289975 -0.21342492682822542 0
outer loop
vertex 446.4016012000001 -70.49552959999977 1
vertex 432.8478817999998 -132.53811610000076 0
vertex 446.40160119999996 -70.49552960000022 0
endloop
endfacet
facet normal 0.9910000297522128 -0.13386164884354887 0
outer loop
vertex 446.4664384829465 -70.01552842054282 1
vertex 446.4016012000001 -70.49552959999977 1
vertex 446.40160119999996 -70.49552960000022 0
endloop
endfacet
facet normal 0.9910000297522128 -0.13386164884354887 0
outer loop
vertex 446.4664384829465 -70.01552842054282 1
vertex 446.40160119999996 -70.49552960000022 0
vertex 446.4664384829465 -70.01552842054225 0
endloop
endfacet
facet normal 0.999625610994182 0.02736124712998846 0
outer loop
vertex 446.4531857781034 -69.53134935102916 1
vertex 446.4664384829465 -70.01552842054282 1
vertex 446.4664384829465 -70.01552842054225 0
endloop
endfacet
facet normal 0.999625610994182 0.02736124712998846 0
outer loop
vertex 446.4531857781034 -69.53134935102916 1
vertex 446.4664384829465 -70.01552842054225 0
vertex 446.4531857781034 -69.53134935102896 0
endloop
endfacet
facet normal 0.9821937286799425 0.18787091137744427 0
outer loop
vertex 446.362188546681 -69.05561359515819 1
vertex 446.4531857781034 -69.53134935102916 1
vertex 446.4531857781034 -69.53134935102896 0
endloop
endfacet
facet normal 0.9821937286799425 0.18787091137744427 0
outer loop
vertex 446.362188546681 -69.05561359515819 1
vertex 446.4531857781034 -69.53134935102896 0
vertex 446.36218854668107 -69.05561359515832 0
endloop
endfacet
facet normal 0.9391587835702725 0.3434833027132559 0
outer loop
vertex 446.1958188337885 -68.6007222628902 1
vertex 446.362188546681 -69.05561359515819 1
vertex 446.36218854668107 -69.05561359515832 0
endloop
endfacet
facet normal 0.9391587835702725 0.3434833027132559 0
outer loop
vertex 446.1958188337885 -68.6007222628902 1
vertex 446.36218854668107 -69.05561359515832 0
vertex 446.1958188337886 -68.60072226289041 0
endloop
endfacet
facet normal 0.8716425771692129 0.490142038256068 0
outer loop
vertex 445.9584134358052 -68.17853310794997 1
vertex 446.1958188337885 -68.6007222628902 1
vertex 446.1958188337886 -68.60072226289041 0
endloop
endfacet
facet normal 0.8716425771692129 0.490142038256068 0
outer loop
vertex 445.9584134358052 -68.17853310794997 1
vertex 446.1958188337886 -68.60072226289041 0
vertex 445.9584134358052 -68.17853310794997 0
endloop
endfacet
facet normal 0.781405069474123 0.6240241320655324 0
outer loop
vertex 445.65616085214384 -67.80005142911996 1
vertex 445.9584134358052 -68.17853310794997 1
vertex 445.9584134358052 -68.17853310794997 0
endloop
endfacet
facet normal 0.781405069474123 0.6240241320655324 0
outer loop
vertex 445.65616085214384 -67.80005142911996 1
vertex 445.9584134358052 -68.17853310794997 0
vertex 445.6561608521437 -67.80005142911982 0
endloop
endfacet
facet normal 0.67079850170637 0.7416396497683286 0
outer loop
vertex 445.29693996825466 -67.47514319266068 1
vertex 445.65616085214384 -67.80005142911996 1
vertex 445.6561608521437 -67.80005142911982 0
endloop
endfacet
facet normal 0.67079850170637 0.7416396497683286 0
outer loop
vertex 445.29693996825466 -67.47514319266068 1
vertex 445.6561608521437 -67.80005142911982 0
vertex 445.29693996825483 -67.47514319266078 0
endloop
endfacet
facet normal 0.5427060799153978 0.8399226814551813 0
outer loop
vertex 444.8901146749676 -67.21227785397532 1
vertex 445.29693996825466 -67.47514319266068 1
vertex 445.29693996825483 -67.47514319266078 0
endloop
endfacet
facet normal 0.5427060799153978 0.8399226814551813 0
outer loop
vertex 444.8901146749676 -67.21227785397532 1
vertex 445.29693996825483 -67.47514319266078 0
vertex 444.8901146749677 -67.21227785397537 0
endloop
endfacet
facet normal 0.4004668178038592 0.9163112614379738 0
outer loop
vertex 444.446289777858 -67.01830758242298 1
vertex 444.8901146749676 -67.21227785397532 1
vertex 444.8901146749677 -67.21227785397537 0
endloop
endfacet
facet normal 0.4004668178038592 0.9163112614379738 0
outer loop
vertex 444.446289777858 -67.01830758242298 1
vertex 444.8901146749677 -67.21227785397537 0
vertex 444.44628977785806 -67.01830758242299 0
endloop
endfacet
facet normal 0.24778849791334767 0.9688141515800885 0
outer loop
vertex 443.97703455941985 -66.89828864429624 1
vertex 444.446289777858 -67.01830758242298 1
vertex 444.44628977785806 -67.01830758242299 0
endloop
endfacet
facet normal 0.24778849791334767 0.9688141515800885 0
outer loop
vertex 443.97703455941985 -66.89828864429624 1
vertex 444.44628977785806 -67.01830758242299 0
vertex 443.97703455941985 -66.89828864429624 0
endloop
endfacet
facet normal 0.08865205814237243 0.9960626549505416 0
outer loop
vertex 443.49458239999996 -66.8553492 1
vertex 443.97703455941985 -66.89828864429624 1
vertex 443.97703455941985 -66.89828864429624 0
endloop
endfacet
facet normal 0.08865205814237243 0.9960626549505416 0
outer loop
vertex 443.49458239999996 -66.8553492 1
vertex 443.97703455941985 -66.89828864429624 0
vertex 443.4945823999999 -66.8553492 0
endloop
endfacet
facet normal 0.007954715991687067 0.9999683607462247 0
outer loop
vertex 23.24514405000002 -63.512278499999994 1
vertex 443.49458239999996 -66.8553492 1
vertex 443.4945823999999 -66.8553492 0
endloop
endfacet
facet normal 0.007954715991687067 0.9999683607462247 0
outer loop
vertex 23.24514405000002 -63.512278499999994 1
vertex 443.4945823999999 -66.8553492 0
vertex 23.24514404999985 -63.5122785 0
endloop
endfacet
facet normal -0.07440339335811073 0.9972282261632983 0
outer loop
vertex 22.75250294716028 -63.549034549214504 1
vertex 23.24514405000002 -63.512278499999994 1
vertex 23.24514404999985 -63.5122785 0
endloop
endfacet
facet normal -0.07440339335811073 0.9972282261632983 0
outer loop
vertex 22.75250294716028 -63.549034549214504 1
vertex 23.24514404999985 -63.5122785 0
vertex 22.752502947160337 -63.5490345492145 0
endloop
endfacet
facet normal -0.2370507697100522 0.9714972632899549 0
outer loop
vertex 22.272573207270966 -63.66614009191283 1
vertex 22.75250294716028 -63.549034549214504 1
vertex 22.752502947160337 -63.5490345492145 0
endloop
endfacet
facet normal -0.2370507697100522 0.9714972632899549 0
outer loop
vertex 22.272573207270966 -63.66614009191283 1
vertex 22.752502947160337 -63.5490345492145 0
vertex 22.272573207270938 -63.66614009191284 0
endloop
endfacet
facet normal -0.3932702177759216 0.9194229363086823 0
outer loop
vertex 21.818368725853503 -63.860419664749 1
vertex 22.272573207270966 -63.66614009191283 1
vertex 22.272573207270938 -63.66614009191284 0
endloop
endfacet
facet normal -0.3932702177759216 0.9194229363086823 0
outer loop
vertex 21.818368725853503 -63.860419664749 1
vertex 22.272573207270938 -63.66614009191284 0
vertex 21.81836872585353 -63.860419664748996 0
endloop
endfacet
facet normal -0.5388256517151799 0.8424173057658013 0
outer loop
vertex 21.40220582585181 -64.12660513396756 1
vertex 21.818368725853503 -63.860419664749 1
vertex 21.81836872585353 -63.860419664748996 0
endloop
endfacet
facet normal -0.5388256517151799 0.8424173057658013 0
outer loop
vertex 21.40220582585181 -64.12660513396756 1
vertex 21.81836872585353 -63.860419664748996 0
vertex 21.40220582585181 -64.12660513396756 0
endloop
endfacet
facet normal -0.6697701537761964 0.7425684757048405 0
outer loop
vertex 21.035369285120623 -64.45747854744371 1
vertex 21.40220582585181 -64.12660513396756 1
vertex 21.40220582585181 -64.12660513396756 0
endloop
endfacet
facet normal -0.6697701537761964 0.7425684757048405 0
outer loop
vertex 21.035369285120623 -64.45747854744371 1
vertex 21.40220582585181 -64.12660513396756 0
vertex 21.035369285120623 -64.45747854744371 0
endloop
endfacet
facet normal -0.7825529999105815 0.6225839721121557 0
outer loop
vertex 20.727806335552174 -64.84406785848813 1
vertex 21.035369285120623 -64.45747854744371 1
vertex 21.035369285120623 -64.45747854744371 0
endloop
endfacet
facet normal -0.7825529999105815 0.6225839721121557 0
outer loop
vertex 20.727806335552174 -64.84406785848813 1
vertex 21.035369285120623 -64.45747854744371 0
vertex 20.727806335552174 -64.84406785848812 0
endloop
endfacet
facet normal -0.8741159420993957 0.4857173249614287 0
outer loop
vertex 20.48785693143438 -65.2758902141211 1
vertex 20.727806335552174 -64.84406785848813 1
vertex 20.727806335552174 -64.84406785848812 0
endloop
endfacet
facet normal -0.8741159420993957 0.4857173249614287 0
outer loop
vertex 20.48785693143438 -65.2758902141211 1
vertex 20.727806335552174 -64.84406785848812 0
vertex 20.48785693143438 -65.27589021412115 0
endloop
endfacet
facet normal -0.9419761365755883 0.33567984467663325 0
outer loop
vertex 20.32202760115277 -65.74123621075091 1
vertex 20.48785693143438 -65.2758902141211 1
vertex 20.48785693143438 -65.27589021412115 0
endloop
endfacet
facet normal -0.9419761365755883 0.33567984467663325 0
outer loop
vertex 20.32202760115277 -65.74123621075091 1
vertex 20.48785693143438 -65.27589021412115 0
vertex 20.322027601152797 -65.74123621075088 0
endloop
endfacet
facet normal -0.9842934692399369 0.17653998530533957 0
outer loop
vertex 20.234815014530824 -66.22748740930541 1
vertex 20.32202760115277 -65.74123621075091 1
vertex 20.322027601152797 -65.74123621075088 0
endloop
endfacet
facet normal -0.9842934692399369 0.17653998530533957 0
outer loop
vertex 20.234815014530824 -66.22748740930541 1
vertex 20.322027601152797 -65.74123621075088 0
vertex 20.234815014530824 -66.22748740930544 0
endloop
endfacet
facet normal -0.9999205555377382 0.012604864660175963 0
outer loop
vertex 20.228588099999996 -66.72145699999999 1
vertex 20.234815014530824 -66.22748740930541 1
vertex 20.234815014530824 -66.22748740930544 0
endloop
endfacet
facet normal -0.9999205555377382 0.012604864660175963 0
outer loop
vertex 20.228588099999996 -66.72145699999999 1
vertex 20.234815014530824 -66.22748740930544 0
vertex 20.228588099999996 -66.721457 0
endloop
endfacet
facet normal 0 0 -1
outer loop
vertex 28.473604149999943 -184.630629299999 1
vertex 28.23394094782826 -181.2032873 1
vertex 20.228588099999996 -66.72145699999999 1
endloop
endfacet
facet normal 0 0 -1
outer loop
vertex 28.473604149999943 -184.630629299999 1
vertex 20.228588099999996 -66.72145699999999 1
vertex 20.228588099999996 -66.721457 0
endloop
endfacet
facet normal 0 0 -1
outer loop
vertex 28.473604149999943 -184.630629299999 1
vertex 20.228588099999996 -66.721457 0
vertex 28.23394094782825 -181.2032873 0
endloop
endfacet
facet normal 0 0 -1
outer loop
vertex 28.473604149999943 -184.630629299999 1
vertex 28.23394094782825 -181.2032873 0
vertex 28.47360415 -184.63062929999995 0
endloop
endfacet
endsolid csg.js
