solid csg.js
facet normal 0 0 -1
outer loop
vertex 435.9709184999999 -66.6255334 0
vertex 436.4534982806409 -66.66829836569299 0
vertex 436.92290168806977 -66.78817964847428 0
endloop
endfacet
facet normal 0 0 -1
outer loop
vertex 435.9709184999999 -66.6255334 0
vertex 436.92290168806977 -66.78817964847428 0
vertex 437.3668878966069 -66.98205416329318 0
endloop
endfacet
facet normal 0 0 -1
outer loop
vertex 435.9709184999999 -66.6255334 0
vertex 437.3668878966069 -66.98205416329318 0
vertex 437.7738781859298 -67.24486585493534 0
endloop
endfacet
facet normal 0 0 -1
outer loop
vertex 435.9709184999999 -66.6255334 0
vertex 437.7738781859298 -67.24486585493534 0
vertex 438.13325865262686 -67.56976085493338 0
endloop
endfacet
facet normal 0 0 -1
outer loop
vertex 435.9709184999999 -66.6255334 0
vertex 438.13325865262686 -67.56976085493338 0
vertex 438.435657010278 -67.94826622366311 0
endloop
endfacet
facet normal 0 0 -1
outer loop
vertex 435.9709184999999 -66.6255334 0
vertex 438.435657010278 -67.94826622366311 0
vertex 438.67318700939666 -68.37051091621208 0
endloop
endfacet
facet normal 0 0 -1
outer loop
vertex 435.9709184999999 -66.6255334 0
vertex 438.67318700939666 -68.37051091621208 0
vertex 438.83965410300164 -68.82548320944974 0
endloop
endfacet
facet normal 0 0 -1
outer loop
vertex 435.9709184999999 -66.6255334 0
vertex 438.83965410300164 -68.82548320944974 0
vertex 438.9307169942631 -69.30131787685256 0
endloop
endfacet
facet normal 0 0 -1
outer loop
vertex 435.9709184999999 -66.6255334 0
vertex 438.9307169942631 -69.30131787685256 0
vertex 438.9440008532216 -69.78560562185356 0
endloop
endfacet
facet normal 0 0 -1
outer loop
vertex 435.9709184999999 -66.6255334 0
vertex 438.9440008532216 -69.78560562185356 0
vertex 438.87915925 -70.26571670000004 0
endloop
endfacet
facet normal 0 0 -1
outer loop
vertex 435.9709184999999 -66.6255334 0
vertex 438.87915925 -70.26571670000004 0
vertex 425.3257730999997 -132.30680200000126 0
endloop
endfacet
facet normal 0 0 -1
outer loop
vertex 435.9709184999999 -66.6255334 0
vertex 425.3257730999997 -132.30680200000126 0
vertex 425.21855762253347 -132.6799000906022 0
endloop
endfacet
facet normal 0 0 -1
outer loop
vertex 435.9709184999999 -66.6255334 0
vertex 425.21855762253347 -132.6799000906022 0
vertex 425.0640636703063 -133.0360312130518 0
endloop
endfacet
facet normal 0 0 -1
outer loop
vertex 435.9709184999999 -66.6255334 0
vertex 425.0640636703063 -133.0360312130518 0
vertex 424.86487657022724 -133.36923123828262 0
endloop
endfacet
facet normal 0 0 -1
outer loop
vertex 435.9709184999999 -66.6255334 0
vertex 424.86487657022724 -133.36923123828262 0
vertex 424.62433154999957 -133.67392100000055 0
endloop
endfacet
facet normal 0 0 -1
outer loop
vertex 435.9709184999999 -66.6255334 0
vertex 424.62433154999957 -133.67392100000055 0
vertex 393.39696110000017 -168.35542499999983 0
endloop
endfacet
facet normal 0 0 -1
outer loop
vertex 435.9709184999999 -66.6255334 0
vertex 393.39696110000017 -168.35542499999983 0
vertex 393.175285330602 -168.57714081784343 0
endloop
endfacet
facet normal 0 0 -1
outer loop
vertex 435.9709184999999 -66.6255334 0
vertex 393.175285330602 -168.57714081784343 0
vertex 392.9316763683544 -168.77450745254555 0
endloop
endfacet
facet normal 0 0 -1
outer loop
vertex 435.9709184999999 -66.6255334 0
vertex 392.9316763683544 -168.77450745254555 0
vertex 392.66879938510806 -168.94537174565798 0
endloop
endfacet
facet normal 0 0 -1
outer loop
vertex 435.9709184999999 -66.6255334 0
vertex 392.66879938510806 -168.94537174565798 0
vertex 392.3895255499989 -169.08786750000053 0
endloop
endfacet
facet normal 0 0 -1
outer loop
vertex 435.9709184999999 -66.6255334 0
vertex 392.3895255499989 -169.08786750000053 0
vertex 365.74337682138133 -180.97240955 0
endloop
endfacet
facet normal 0 0 -1
outer loop
vertex 435.9709184999999 -66.6255334 0
vertex 365.74337682138133 -180.97240955 0
vertex 305.88150820000004 -180.97240955 0
endloop
endfacet
facet normal 0 0 -1
outer loop
vertex 435.9709184999999 -66.6255334 0
vertex 305.88150820000004 -180.97240955 0
vertex 28.21779025190494 -180.97240955 0
endloop
endfacet
facet normal 0 0 -1
outer loop
vertex 435.9709184999999 -66.6255334 0
vertex 28.21779025190494 -180.97240955 0
vertex 20.228495399999986 -66.72013149999998 0
endloop
endfacet
facet normal 0 0 -1
outer loop
vertex 435.9709184999999 -66.6255334 0
vertex 20.228495399999986 -66.72013149999998 0
vertex 20.234713554413474 -66.22628214254293 0
endloop
endfacet
facet normal 0 0 -1
outer loop
vertex 435.9709184999999 -66.6255334 0
vertex 20.234713554413474 -66.22628214254293 0
vertex 20.321876132654836 -65.74014653278861 0
endloop
endfacet
facet normal 0 0 -1
outer loop
vertex 435.9709184999999 -66.6255334 0
vertex 20.321876132654836 -65.74014653278861 0
vertex 20.487618085320378 -65.27489955403055 0
endloop
endfacet
facet normal 0 0 -1
outer loop
vertex 435.9709184999999 -66.6255334 0
vertex 20.487618085320378 -65.27489955403055 0
vertex 20.727447342407686 -64.84315069929924 0
endloop
endfacet
facet normal 0 0 -1
outer loop
vertex 435.9709184999999 -66.6255334 0
vertex 20.727447342407686 -64.84315069929924 0
vertex 21.034863860963753 -64.45660156886964 0
endloop
endfacet
facet normal 0 0 -1
outer loop
vertex 435.9709184999999 -66.6255334 0
vertex 21.034863860963753 -64.45660156886964 0
vertex 21.40153579440971 -64.12572872419996 0
endloop
endfacet
facet normal 0 0 -1
outer loop
vertex 435.9709184999999 -66.6255334 0
vertex 21.40153579440971 -64.12572872419996 0
vertex 21.817525308863196 -63.85949974384358 0
endloop
endfacet
facet normal 0 0 -1
outer loop
vertex 435.9709184999999 -66.6255334 0
vertex 21.817525308863196 -63.85949974384358 0
vertex 22.271557926202547 -63.66513017701537 0
endloop
endfacet
facet normal 0 0 -1
outer loop
vertex 435.9709184999999 -66.6255334 0
vertex 22.271557926202547 -63.66513017701537 0
vertex 22.751328093924627 -63.547887982047556 0
endloop
endfacet
facet normal 0 0 -1
outer loop
vertex 435.9709184999999 -66.6255334 0
vertex 22.751328093924627 -63.547887982047556 0
vertex 23.24383269999987 -63.510950749999985 0
endloop
endfacet
facet normal 0 0 -1
outer loop
vertex 365.74337682138133 -180.97240955 0
vertex 365.7302143041667 -180.97828021036878 0
vertex 306.1522947428275 -180.97828021036878 0
endloop
endfacet
facet normal 0 0 -1
outer loop
vertex 365.74337682138133 -180.97240955 0
vertex 306.1522947428275 -180.97828021036878 0
vertex 305.88150820000004 -180.97240955 0
endloop
endfacet
facet normal 0 0 -1
outer loop
vertex 365.7302143041667 -180.97828021036878 0
vertex 365.662348892814 -181.00854909999993 0
vertex 306.4214463999993 -181.00854909999993 0
endloop
endfacet
facet normal 0 0 -1
outer loop
vertex 365.7302143041667 -180.97828021036878 0
vertex 306.4214463999993 -181.00854909999993 0
vertex 306.1522947428275 -180.97828021036878 0
endloop
endfacet
facet normal 0 0 -1
outer loop
vertex 305.88150820000004 -180.97240955 0
vertex 31.536453799999833 -187.4164412 0
vertex 31.029853974113678 -187.38539409861048 0
endloop
endfacet
facet normal 0 0 -1
outer loop
vertex 305.88150820000004 -180.97240955 0
vertex 31.029853974113678 -187.38539409861048 0
vertex 30.535739884984963 -187.26939146637653 0
endloop
endfacet
facet normal 0 0 -1
outer loop
vertex 305.88150820000004 -180.97240955 0
vertex 30.535739884984963 -187.26939146637653 0
vertex 30.068252569256117 -187.07175302529285 0
endloop
endfacet
facet normal 0 0 -1
outer loop
vertex 305.88150820000004 -180.97240955 0
vertex 30.068252569256117 -187.07175302529285 0
vertex 29.640772830336402 -186.79813574408834 0
endloop
endfacet
facet normal 0 0 -1
outer loop
vertex 305.88150820000004 -180.97240955 0
vertex 29.640772830336402 -186.79813574408834 0
vertex 29.26553634212445 -186.4563713198496 0
endloop
endfacet
facet normal 0 0 -1
outer loop
vertex 305.88150820000004 -180.97240955 0
vertex 29.26553634212445 -186.4563713198496 0
vertex 28.953283429568984 -186.056242012798 0
endloop
endfacet
facet normal 0 0 -1
outer loop
vertex 305.88150820000004 -180.97240955 0
vertex 28.953283429568984 -186.056242012798 0
vertex 28.71295165032342 -185.60920065045505 0
endloop
endfacet
facet normal 0 0 -1
outer loop
vertex 305.88150820000004 -180.97240955 0
vertex 28.71295165032342 -185.60920065045505 0
vertex 28.551419976677494 -185.12804281546727 0
endloop
endfacet
facet normal 0 0 -1
outer loop
vertex 305.88150820000004 -180.97240955 0
vertex 28.551419976677494 -185.12804281546727 0
vertex 28.4733119 -184.62654059999997 0
endloop
endfacet
facet normal 0 0 -1
outer loop
vertex 305.88150820000004 -180.97240955 0
vertex 28.4733119 -184.62654059999997 0
vertex 28.21779025190494 -180.97240955 0
endloop
endfacet
facet normal 0 0 -1
outer loop
vertex 365.662348892814 -181.00854909999993 0
vertex 350.946089400001 -187.57219949999956 0
vertex 350.53977766294025 -187.7193400338258 0
endloop
endfacet
facet normal 0 0 -1
outer loop
vertex 365.662348892814 -181.00854909999993 0
vertex 350.53977766294025 -187.7193400338258 0
vertex 350.11654623935686 -187.80658012541178 0
endloop
endfacet
facet normal 0 0 -1
outer loop
vertex 365.662348892814 -181.00854909999993 0
vertex 350.11654623935686 -187.80658012541178 0
vertex 349.68517180748097 -187.83210993174868 0
endloop
endfacet
facet normal 0 0 -1
outer loop
vertex 365.662348892814 -181.00854909999993 0
vertex 349.68517180748097 -187.83210993174868 0
vertex 349.2546046999997 -187.79539974999994 0
endloop
endfacet
facet normal 0 0 -1
outer loop
vertex 365.662348892814 -181.00854909999993 0
vertex 349.2546046999997 -187.79539974999994 0
vertex 306.4214463999993 -181.00854909999993 0
endloop
endfacet
facet normal 0 0 1
outer loop
vertex 350.1165462393572 -187.80658012541176 1
vertex 350.5397776629405 -187.7193400338258 1
vertex 350.9460894 -187.5721995 1
endloop
endfacet
facet normal 0 0 1
outer loop
vertex 350.1165462393572 -187.80658012541176 1
vertex 350.9460894 -187.5721995 1
vertex 365.66234889281395 -181.00854909999995 1
endloop
endfacet
facet normal 0 0 1
outer loop
vertex 350.1165462393572 -187.80658012541176 1
vertex 365.66234889281395 -181.00854909999995 1
vertex 306.4214463999995 -181.00854909999995 1
endloop
endfacet
facet normal 0 0 1
outer loop
vertex 350.1165462393572 -187.80658012541176 1
vertex 306.4214463999995 -181.00854909999995 1
vertex 349.2546046999995 -187.79539974999994 1
endloop
endfacet
facet normal 0 0 1
outer loop
vertex 350.1165462393572 -187.80658012541176 1
vertex 349.2546046999995 -187.79539974999994 1
vertex 349.6851718074808 -187.83210993174868 1
endloop
endfacet
facet normal 0 0 1
outer loop
vertex 365.66234889281395 -181.00854909999995 1
vertex 365.73021430416674 -180.97828021036875 1
vertex 306.15229474282717 -180.97828021036875 1
endloop
endfacet
facet normal 0 0 1
outer loop
vertex 365.66234889281395 -181.00854909999995 1
vertex 306.15229474282717 -180.97828021036875 1
vertex 306.4214463999995 -181.00854909999995 1
endloop
endfacet
facet normal 0 0 1
outer loop
vertex 305.88150820000084 -180.97240955 1
vertex 28.21779025190493 -180.97240955 1
vertex 28.47331189999997 -184.62654059999971 1
endloop
endfacet
facet normal 0 0 1
outer loop
vertex 305.88150820000084 -180.97240955 1
vertex 28.47331189999997 -184.62654059999971 1
vertex 28.55141997667755 -185.12804281546738 1
endloop
endfacet
facet normal 0 0 1
outer loop
vertex 305.88150820000084 -180.97240955 1
vertex 28.55141997667755 -185.12804281546738 1
vertex 28.71295165032342 -185.60920065045505 1
endloop
endfacet
facet normal 0 0 1
outer loop
vertex 305.88150820000084 -180.97240955 1
vertex 28.71295165032342 -185.60920065045505 1
vertex 28.953283429568984 -186.056242012798 1
endloop
endfacet
facet normal 0 0 1
outer loop
vertex 305.88150820000084 -180.97240955 1
vertex 28.953283429568984 -186.056242012798 1
vertex 29.265536342124335 -186.4563713198495 1
endloop
endfacet
facet normal 0 0 1
outer loop
vertex 305.88150820000084 -180.97240955 1
vertex 29.265536342124335 -186.4563713198495 1
vertex 29.640772830336488 -186.79813574408837 1
endloop
endfacet
facet normal 0 0 1
outer loop
vertex 305.88150820000084 -180.97240955 1
vertex 29.640772830336488 -186.79813574408837 1
vertex 30.068252569256174 -187.07175302529288 1
endloop
endfacet
facet normal 0 0 1
outer loop
vertex 305.88150820000084 -180.97240955 1
vertex 30.068252569256174 -187.07175302529288 1
vertex 30.53573988498482 -187.26939146637648 1
endloop
endfacet
facet normal 0 0 1
outer loop
vertex 305.88150820000084 -180.97240955 1
vertex 30.53573988498482 -187.26939146637648 1
vertex 31.02985397411379 -187.38539409861048 1
endloop
endfacet
facet normal 0 0 1
outer loop
vertex 305.88150820000084 -180.97240955 1
vertex 31.02985397411379 -187.38539409861048 1
vertex 31.53645379999972 -187.4164412 1
endloop
endfacet
facet normal 0 0 1
outer loop
vertex 365.73021430416674 -180.97828021036875 1
vertex 365.74337682138133 -180.97240955 1
vertex 305.88150820000084 -180.97240955 1
endloop
endfacet
facet normal 0 0 1
outer loop
vertex 365.73021430416674 -180.97828021036875 1
vertex 305.88150820000084 -180.97240955 1
vertex 306.15229474282717 -180.97828021036875 1
endloop
endfacet
facet normal 0 0 1
outer loop
vertex 305.88150820000084 -180.97240955 1
vertex 365.74337682138133 -180.97240955 1
vertex 392.3895255499996 -169.0878675000002 1
endloop
endfacet
facet normal 0 0 1
outer loop
vertex 305.88150820000084 -180.97240955 1
vertex 392.3895255499996 -169.0878675000002 1
vertex 392.6687993851084 -168.9453717456578 1
endloop
endfacet
facet normal 0 0 1
outer loop
vertex 305.88150820000084 -180.97240955 1
vertex 392.6687993851084 -168.9453717456578 1
vertex 392.93167636835415 -168.77450745254575 1
endloop
endfacet
facet normal 0 0 1
outer loop
vertex 305.88150820000084 -180.97240955 1
vertex 392.93167636835415 -168.77450745254575 1
vertex 393.1752853306021 -168.57714081784334 1
endloop
endfacet
facet normal 0 0 1
outer loop
vertex 305.88150820000084 -180.97240955 1
vertex 393.1752853306021 -168.57714081784334 1
vertex 393.39696110000017 -168.35542499999988 1
endloop
endfacet
facet normal 0 0 1
outer loop
vertex 305.88150820000084 -180.97240955 1
vertex 393.39696110000017 -168.35542499999988 1
vertex 424.6243315499996 -133.67392100000046 1
endloop
endfacet
facet normal 0 0 1
outer loop
vertex 305.88150820000084 -180.97240955 1
vertex 424.6243315499996 -133.67392100000046 1
vertex 424.86487657022735 -133.36923123828245 1
endloop
endfacet
facet normal 0 0 1
outer loop
vertex 305.88150820000084 -180.97240955 1
vertex 424.86487657022735 -133.36923123828245 1
vertex 425.0640636703061 -133.03603121305224 1
endloop
endfacet
facet normal 0 0 1
outer loop
vertex 305.88150820000084 -180.97240955 1
vertex 425.0640636703061 -133.03603121305224 1
vertex 425.2185576225334 -132.67990009060225 1
endloop
endfacet
facet normal 0 0 1
outer loop
vertex 305.88150820000084 -180.97240955 1
vertex 425.2185576225334 -132.67990009060225 1
vertex 425.3257730999998 -132.30680200000074 1
endloop
endfacet
facet normal 0 0 1
outer loop
vertex 305.88150820000084 -180.97240955 1
vertex 425.3257730999998 -132.30680200000074 1
vertex 438.8791592500001 -70.26571669999949 1
endloop
endfacet
facet normal 0 0 1
outer loop
vertex 305.88150820000084 -180.97240955 1
vertex 438.8791592500001 -70.26571669999949 1
vertex 438.9440008532216 -69.78560562185388 1
endloop
endfacet
facet normal 0 0 1
outer loop
vertex 305.88150820000084 -180.97240955 1
vertex 438.9440008532216 -69.78560562185388 1
vertex 438.9307169942631 -69.30131787685218 1
endloop
endfacet
facet normal 0 0 1
outer loop
vertex 305.88150820000084 -180.97240955 1
vertex 438.9307169942631 -69.30131787685218 1
vertex 438.83965410300175 -68.82548320944997 1
endloop
endfacet
facet normal 0 0 1
outer loop
vertex 305.88150820000084 -180.97240955 1
vertex 438.83965410300175 -68.82548320944997 1
vertex 438.67318700939666 -68.37051091621211 1
endloop
endfacet
facet normal 0 0 1
outer loop
vertex 305.88150820000084 -180.97240955 1
vertex 438.67318700939666 -68.37051091621211 1
vertex 438.435657010278 -67.94826622366315 1
endloop
endfacet
facet normal 0 0 1
outer loop
vertex 305.88150820000084 -180.97240955 1
vertex 438.435657010278 -67.94826622366315 1
vertex 438.1332586526268 -67.56976085493336 1
endloop
endfacet
facet normal 0 0 1
outer loop
vertex 305.88150820000084 -180.97240955 1
vertex 438.1332586526268 -67.56976085493336 1
vertex 437.7738781859296 -67.2448658549352 1
endloop
endfacet
facet normal 0 0 1
outer loop
vertex 305.88150820000084 -180.97240955 1
vertex 437.7738781859296 -67.2448658549352 1
vertex 437.3668878966069 -66.98205416329316 1
endloop
endfacet
facet normal 0 0 1
outer loop
vertex 305.88150820000084 -180.97240955 1
vertex 437.3668878966069 -66.98205416329316 1
vertex 436.9229016880699 -66.7881796484743 1
endloop
endfacet
facet normal 0 0 1
outer loop
vertex 305.88150820000084 -180.97240955 1
vertex 436.9229016880699 -66.7881796484743 1
vertex 436.45349828064093 -66.66829836569299 1
endloop
endfacet
facet normal 0 0 1
outer loop
vertex 305.88150820000084 -180.97240955 1
vertex 436.45349828064093 -66.66829836569299 1
vertex 435.9709184999999 -66.6255334 1
endloop
endfacet
facet normal 0 0 1
outer loop
vertex 305.88150820000084 -180.97240955 1
vertex 435.9709184999999 -66.6255334 1
vertex 23.243832699999984 -63.510950749999985 1
endloop
endfacet
facet normal 0 0 1
outer loop
vertex 305.88150820000084 -180.97240955 1
vertex 23.243832699999984 -63.510950749999985 1
vertex 22.75132809392457 -63.54788798204756 1
endloop
endfacet
facet normal 0 0 1
outer loop
vertex 305.88150820000084 -180.97240955 1
vertex 22.75132809392457 -63.54788798204756 1
vertex 22.271557926202576 -63.66513017701535 1
endloop
endfacet
facet normal 0 0 1
outer loop
vertex 305.88150820000084 -180.97240955 1
vertex 22.271557926202576 -63.66513017701535 1
vertex 21.81752530886328 -63.859499743843536 1
endloop
endfacet
facet normal 0 0 1
outer loop
vertex 305.88150820000084 -180.97240955 1
vertex 21.81752530886328 -63.859499743843536 1
vertex 21.401535794409654 -64.1257287242 1
endloop
endfacet
facet normal 0 0 1
outer loop
vertex 305.88150820000084 -180.97240955 1
vertex 21.401535794409654 -64.1257287242 1
vertex 21.034863860963753 -64.45660156886963 1
endloop
endfacet
facet normal 0 0 1
outer loop
vertex 305.88150820000084 -180.97240955 1
vertex 21.034863860963753 -64.45660156886963 1
vertex 20.727447342407714 -64.8431506992992 1
endloop
endfacet
facet normal 0 0 1
outer loop
vertex 305.88150820000084 -180.97240955 1
vertex 20.727447342407714 -64.8431506992992 1
vertex 20.487618085320378 -65.2748995540306 1
endloop
endfacet
facet normal 0 0 1
outer loop
vertex 305.88150820000084 -180.97240955 1
vertex 20.487618085320378 -65.2748995540306 1
vertex 20.321876132654836 -65.74014653278861 1
endloop
endfacet
facet normal 0 0 1
outer loop
vertex 305.88150820000084 -180.97240955 1
vertex 20.321876132654836 -65.74014653278861 1
vertex 20.234713554413474 -66.22628214254296 1
endloop
endfacet
facet normal 0 0 1
outer loop
vertex 305.88150820000084 -180.97240955 1
vertex 20.234713554413474 -66.22628214254296 1
vertex 20.228495399999986 -66.72013150000002 1
endloop
endfacet
facet normal 0 0 1
outer loop
vertex 305.88150820000084 -180.97240955 1
vertex 20.228495399999986 -66.72013150000002 1
vertex 28.21779025190493 -180.97240955 1
endloop
endfacet
facet normal -0.9880875383093637 -0.1538928739017566 0
outer loop
vertex 28.55141997667755 -185.12804281546738 1
vertex 28.47331189999997 -184.62654059999971 1
vertex 28.4733119 -184.62654059999997 0
endloop
endfacet
facet normal -0.9880875383093637 -0.1538928739017566 0
outer loop
vertex 28.55141997667755 -185.12804281546738 1
vertex 28.4733119 -184.62654059999997 0
vertex 28.551419976677494 -185.12804281546727 0
endloop
endfacet
facet normal -0.948003909151702 -0.31825868131614515 0
outer loop
vertex 28.71295165032342 -185.60920065045505 1
vertex 28.55141997667755 -185.12804281546738 1
vertex 28.551419976677494 -185.12804281546727 0
endloop
endfacet
facet normal -0.948003909151702 -0.31825868131614515 0
outer loop
vertex 28.71295165032342 -185.60920065045505 1
vertex 28.551419976677494 -185.12804281546727 0
vertex 28.71295165032342 -185.60920065045505 0
endloop
endfacet
facet normal -0.8807857385602978 -0.47351502906327125 0
outer loop
vertex 28.953283429568984 -186.056242012798 1
vertex 28.71295165032342 -185.60920065045505 1
vertex 28.71295165032342 -185.60920065045505 0
endloop
endfacet
facet normal -0.8807857385602978 -0.47351502906327125 0
outer loop
vertex 28.953283429568984 -186.056242012798 1
vertex 28.71295165032342 -185.60920065045505 0
vertex 28.953283429568984 -186.056242012798 0
endloop
endfacet
facet normal -0.7883569998620519 -0.6152180432728747 0
outer loop
vertex 29.265536342124335 -186.4563713198495 1
vertex 28.953283429568984 -186.056242012798 1
vertex 28.953283429568984 -186.056242012798 0
endloop
endfacet
facet normal -0.7883569998620519 -0.6152180432728747 0
outer loop
vertex 29.265536342124335 -186.4563713198495 1
vertex 28.953283429568984 -186.056242012798 0
vertex 29.26553634212445 -186.4563713198496 0
endloop
endfacet
facet normal -0.6733632638354261 -0.7393117846463038 0
outer loop
vertex 29.640772830336488 -186.79813574408837 1
vertex 29.265536342124335 -186.4563713198495 1
vertex 29.26553634212445 -186.4563713198496 0
endloop
endfacet
facet normal -0.6733632638354261 -0.7393117846463038 0
outer loop
vertex 29.640772830336488 -186.79813574408837 1
vertex 29.26553634212445 -186.4563713198496 0
vertex 29.640772830336402 -186.79813574408834 0
endloop
endfacet
facet normal -0.5390959750246793 -0.8422443408608871 0
outer loop
vertex 30.068252569256174 -187.07175302529288 1
vertex 29.640772830336488 -186.79813574408837 1
vertex 29.640772830336402 -186.79813574408834 0
endloop
endfacet
facet normal -0.5390959750246793 -0.8422443408608871 0
outer loop
vertex 30.068252569256174 -187.07175302529288 1
vertex 29.640772830336402 -186.79813574408834 0
vertex 30.068252569256117 -187.07175302529285 0
endloop
endfacet
facet normal -0.389398241328879 -0.9210694923022781 0
outer loop
vertex 30.53573988498482 -187.26939146637648 1
vertex 30.068252569256174 -187.07175302529288 1
vertex 30.068252569256117 -187.07175302529285 0
endloop
endfacet
facet normal -0.389398241328879 -0.9210694923022781 0
outer loop
vertex 30.53573988498482 -187.26939146637648 1
vertex 30.068252569256117 -187.07175302529285 0
vertex 30.535739884984963 -187.26939146637653 0
endloop
endfacet
facet normal -0.2285548334311337 -0.9735310411667759 0
outer loop
vertex 31.02985397411379 -187.38539409861048 1
vertex 30.53573988498482 -187.26939146637648 1
vertex 30.535739884984963 -187.26939146637653 0
endloop
endfacet
facet normal -0.2285548334311337 -0.9735310411667759 0
outer loop
vertex 31.02985397411379 -187.38539409861048 1
vertex 30.535739884984963 -187.26939146637653 0
vertex 31.029853974113678 -187.38539409861048 0
endloop
endfacet
facet normal -0.06117049176413051 -0.9981273320259968 0
outer loop
vertex 31.53645379999972 -187.4164412 1
vertex 31.02985397411379 -187.38539409861048 1
vertex 31.029853974113678 -187.38539409861048 0
endloop
endfacet
facet normal -0.06117049176413051 -0.9981273320259968 0
outer loop
vertex 31.53645379999972 -187.4164412 1
vertex 31.029853974113678 -187.38539409861048 0
vertex 31.536453799999833 -187.4164412 0
endloop
endfacet
facet normal 0.02348230675863761 -0.9997242526163369 0
outer loop
vertex 305.88150820000084 -180.97240955 1
vertex 31.53645379999972 -187.4164412 1
vertex 31.536453799999833 -187.4164412 0
endloop
endfacet
facet normal 0.02348230675863761 -0.9997242526163369 0
outer loop
vertex 305.88150820000084 -180.97240955 1
vertex 31.536453799999833 -187.4164412 0
vertex 305.88150820000004 -180.97240955 0
endloop
endfacet
facet normal -0.02167493671919374 -0.9997650709632834 0
outer loop
vertex 306.15229474282717 -180.97828021036875 1
vertex 305.88150820000084 -180.97240955 1
vertex 305.88150820000004 -180.97240955 0
endloop
endfacet
facet normal -0.02167493671919374 -0.9997650709632834 0
outer loop
vertex 306.15229474282717 -180.97828021036875 1
vertex 305.88150820000004 -180.97240955 0
vertex 306.1522947428275 -180.97828021036878 0
endloop
endfacet
facet normal -0.11175586403419394 -0.9937356926537212 0
outer loop
vertex 306.4214463999995 -181.00854909999995 1
vertex 306.15229474282717 -180.97828021036875 1
vertex 306.1522947428275 -180.97828021036878 0
endloop
endfacet
facet normal -0.11175586403419394 -0.9937356926537212 0
outer loop
vertex 306.4214463999995 -181.00854909999995 1
vertex 306.1522947428275 -180.97828021036878 0
vertex 306.4214463999993 -181.00854909999993 0
endloop
endfacet
facet normal -0.1564962085208775 -0.9876785594101909 0
outer loop
vertex 349.2546046999995 -187.79539974999994 1
vertex 306.4214463999995 -181.00854909999995 1
vertex 306.4214463999993 -181.00854909999993 0
endloop
endfacet
facet normal -0.1564962085208775 -0.9876785594101909 0
outer loop
vertex 349.2546046999995 -187.79539974999994 1
vertex 306.4214463999993 -181.00854909999993 0
vertex 349.2546046999997 -187.79539974999994 0
endloop
endfacet
facet normal -0.08495185975269237 -0.9963850568553099 0
outer loop
vertex 349.6851718074808 -187.83210993174868 1
vertex 349.2546046999995 -187.79539974999994 1
vertex 349.2546046999997 -187.79539974999994 0
endloop
endfacet
facet normal -0.08495185975269237 -0.9963850568553099 0
outer loop
vertex 349.6851718074808 -187.83210993174868 1
vertex 349.2546046999997 -187.79539974999994 0
vertex 349.68517180748097 -187.83210993174868 0
endloop
endfacet
facet normal 0.05907910078724401 -0.9982533044524174 0
outer loop
vertex 350.1165462393572 -187.80658012541176 1
vertex 349.6851718074808 -187.83210993174868 1
vertex 349.68517180748097 -187.83210993174868 0
endloop
endfacet
facet normal 0.05907910078724401 -0.9982533044524174 0
outer loop
vertex 350.1165462393572 -187.80658012541176 1
vertex 349.68517180748097 -187.83210993174868 0
vertex 350.11654623935686 -187.80658012541178 0
endloop
endfacet
facet normal 0.20188426404320123 -0.9794093852581438 0
outer loop
vertex 350.5397776629405 -187.7193400338258 1
vertex 350.1165462393572 -187.80658012541176 1
vertex 350.11654623935686 -187.80658012541178 0
endloop
endfacet
facet normal 0.20188426404320123 -0.9794093852581438 0
outer loop
vertex 350.5397776629405 -187.7193400338258 1
vertex 350.11654623935686 -187.80658012541178 0
vertex 350.53977766294025 -187.7193400338258 0
endloop
endfacet
facet normal 0.34049767960306393 -0.940245356375095 0
outer loop
vertex 350.9460894 -187.5721995 1
vertex 350.5397776629405 -187.7193400338258 1
vertex 350.53977766294025 -187.7193400338258 0
endloop
endfacet
facet normal 0.34049767960306393 -0.940245356375095 0
outer loop
vertex 350.9460894 -187.5721995 1
vertex 350.53977766294025 -187.7193400338258 0
vertex 350.946089400001 -187.57219949999956 0
endloop
endfacet
facet normal 0 0 1
outer loop
vertex 392.3895255499996 -169.0878675000002 1
vertex 365.74337682138133 -180.97240955 1
vertex 365.73021430416674 -180.97828021036875 1
endloop
endfacet
facet normal 0 0 1
outer loop
vertex 392.3895255499996 -169.0878675000002 1
vertex 365.73021430416674 -180.97828021036875 1
vertex 365.66234889281395 -181.00854909999995 1
endloop
endfacet
facet normal 0 0 1
outer loop
vertex 392.3895255499996 -169.0878675000002 1
vertex 365.66234889281395 -181.00854909999995 1
vertex 350.9460894 -187.5721995 1
endloop
endfacet
facet normal 0 0 1
outer loop
vertex 392.3895255499996 -169.0878675000002 1
vertex 350.9460894 -187.5721995 1
vertex 350.946089400001 -187.57219949999956 0
endloop
endfacet
facet normal 0 0 1
outer loop
vertex 392.3895255499996 -169.0878675000002 1
vertex 350.946089400001 -187.57219949999956 0
vertex 365.662348892814 -181.00854909999993 0
endloop
endfacet
facet normal 0 0 1
outer loop
vertex 392.3895255499996 -169.0878675000002 1
vertex 365.662348892814 -181.00854909999993 0
vertex 365.7302143041667 -180.97828021036878 0
endloop
endfacet
facet normal 0 0 1
outer loop
vertex 392.3895255499996 -169.0878675000002 1
vertex 365.7302143041667 -180.97828021036878 0
vertex 365.74337682138133 -180.97240955 0
endloop
endfacet
facet normal 0 0 1
outer loop
vertex 392.3895255499996 -169.0878675000002 1
vertex 365.74337682138133 -180.97240955 0
vertex 392.3895255499989 -169.08786750000053 0
endloop
endfacet
facet normal 0.45449338089895125 -0.8907501146331898 0
outer loop
vertex 392.6687993851084 -168.9453717456578 1
vertex 392.3895255499996 -169.0878675000002 1
vertex 392.3895255499989 -169.08786750000053 0
endloop
endfacet
facet normal 0.45449338089895125 -0.8907501146331898 0
outer loop
vertex 392.6687993851084 -168.9453717456578 1
vertex 392.3895255499989 -169.08786750000053 0
vertex 392.66879938510806 -168.94537174565798 0
endloop
endfacet
facet normal 0.5449754668842969 -0.8384519905720557 0
outer loop
vertex 392.93167636835415 -168.77450745254575 1
vertex 392.6687993851084 -168.9453717456578 1
vertex 392.66879938510806 -168.94537174565798 0
endloop
endfacet
facet normal 0.5449754668842969 -0.8384519905720557 0
outer loop
vertex 392.93167636835415 -168.77450745254575 1
vertex 392.66879938510806 -168.94537174565798 0
vertex 392.9316763683544 -168.77450745254555 0
endloop
endfacet
facet normal 0.6295052754156837 -0.7769962086289894 0
outer loop
vertex 393.1752853306021 -168.57714081784334 1
vertex 392.93167636835415 -168.77450745254575 1
vertex 392.9316763683544 -168.77450745254555 0
endloop
endfacet
facet normal 0.6295052754156837 -0.7769962086289894 0
outer loop
vertex 393.1752853306021 -168.57714081784334 1
vertex 392.9316763683544 -168.77450745254555 0
vertex 393.175285330602 -168.57714081784343 0
endloop
endfacet
facet normal 0.707170646287038 -0.707042910317311 0
outer loop
vertex 393.39696110000017 -168.35542499999988 1
vertex 393.1752853306021 -168.57714081784334 1
vertex 393.175285330602 -168.57714081784343 0
endloop
endfacet
facet normal 0.707170646287038 -0.707042910317311 0
outer loop
vertex 393.39696110000017 -168.35542499999988 1
vertex 393.175285330602 -168.57714081784343 0
vertex 393.39696110000017 -168.35542499999983 0
endloop
endfacet
facet normal 0.7431447830052074 -0.6691306535289976 0
outer loop
vertex 424.6243315499996 -133.67392100000046 1
vertex 393.39696110000017 -168.35542499999988 1
vertex 393.39696110000017 -168.35542499999983 0
endloop
endfacet
facet normal 0.7431447830052074 -0.6691306535289976 0
outer loop
vertex 424.6243315499996 -133.67392100000046 1
vertex 393.39696110000017 -168.35542499999983 0
vertex 424.62433154999957 -133.67392100000055 0
endloop
endfacet
facet normal 0.7848821748176518 -0.6196450368182683 0
outer loop
vertex 424.86487657022735 -133.36923123828245 1
vertex 424.6243315499996 -133.67392100000046 1
vertex 424.62433154999957 -133.67392100000055 0
endloop
endfacet
facet normal 0.7848821748176518 -0.6196450368182683 0
outer loop
vertex 424.86487657022735 -133.36923123828245 1
vertex 424.62433154999957 -133.67392100000055 0
vertex 424.86487657022724 -133.36923123828262 0
endloop
endfacet
facet normal 0.8583247398212249 -0.5131068514557438 0
outer loop
vertex 425.0640636703061 -133.03603121305224 1
vertex 424.86487657022735 -133.36923123828245 1
vertex 424.86487657022724 -133.36923123828262 0
endloop
endfacet
facet normal 0.8583247398212249 -0.5131068514557438 0
outer loop
vertex 425.0640636703061 -133.03603121305224 1
vertex 424.86487657022724 -133.36923123828262 0
vertex 425.0640636703063 -133.0360312130518 0
endloop
endfacet
facet normal 0.9173953477548951 -0.3979771047656826 0
outer loop
vertex 425.2185576225334 -132.67990009060225 1
vertex 425.0640636703061 -133.03603121305224 1
vertex 425.0640636703063 -133.0360312130518 0
endloop
endfacet
facet normal 0.9173953477548951 -0.3979771047656826 0
outer loop
vertex 425.2185576225334 -132.67990009060225 1
vertex 425.0640636703063 -133.0360312130518 0
vertex 425.21855762253347 -132.6799000906022 0
endloop
endfacet
facet normal 0.9611036524649389 -0.276187923737722 0
outer loop
vertex 425.3257730999998 -132.30680200000074 1
vertex 425.2185576225334 -132.67990009060225 1
vertex 425.21855762253347 -132.6799000906022 0
endloop
endfacet
facet normal 0.9611036524649389 -0.276187923737722 0
outer loop
vertex 425.3257730999998 -132.30680200000074 1
vertex 425.21855762253347 -132.6799000906022 0
vertex 425.3257730999997 -132.30680200000126 0
endloop
endfacet
facet normal 0.9769594846320231 -0.21342484716530044 0
outer loop
vertex 438.8791592500001 -70.26571669999949 1
vertex 425.3257730999998 -132.30680200000074 1
vertex 425.3257730999997 -132.30680200000126 0
endloop
endfacet
facet normal 0.9769594846320231 -0.21342484716530044 0
outer loop
vertex 438.8791592500001 -70.26571669999949 1
vertex 425.3257730999997 -132.30680200000126 0
vertex 438.87915925 -70.26571670000004 0
endloop
endfacet
facet normal 0.991002911340068 -0.13384031423868234 0
outer loop
vertex 438.9440008532216 -69.78560562185388 1
vertex 438.8791592500001 -70.26571669999949 1
vertex 438.87915925 -70.26571670000004 0
endloop
endfacet
facet normal 0.991002911340068 -0.13384031423868234 0
outer loop
vertex 438.9440008532216 -69.78560562185388 1
vertex 438.87915925 -70.26571670000004 0
vertex 438.9440008532216 -69.78560562185356 0
endloop
endfacet
facet normal 0.9996240184156586 0.027419369185508902 0
outer loop
vertex 438.9307169942631 -69.30131787685218 1
vertex 438.9440008532216 -69.78560562185388 1
vertex 438.9440008532216 -69.78560562185356 0
endloop
endfacet
facet normal 0.9996240184156586 0.027419369185508902 0
outer loop
vertex 438.9307169942631 -69.30131787685218 1
vertex 438.9440008532216 -69.78560562185356 0
vertex 438.9307169942631 -69.30131787685256 0
endloop
endfacet
facet normal 0.9821759217331371 0.1879639826340748 0
outer loop
vertex 438.83965410300175 -68.82548320944997 1
vertex 438.9307169942631 -69.30131787685218 1
vertex 438.9307169942631 -69.30131787685256 0
endloop
endfacet
facet normal 0.9821759217331371 0.1879639826340748 0
outer loop
vertex 438.83965410300175 -68.82548320944997 1
vertex 438.9307169942631 -69.30131787685256 0
vertex 438.83965410300164 -68.82548320944974 0
endloop
endfacet
facet normal 0.9391136503626357 0.3436066816908036 0
outer loop
vertex 438.67318700939666 -68.37051091621211 1
vertex 438.83965410300175 -68.82548320944997 1
vertex 438.83965410300164 -68.82548320944974 0
endloop
endfacet
facet normal 0.9391136503626357 0.3436066816908036 0
outer loop
vertex 438.67318700939666 -68.37051091621211 1
vertex 438.83965410300164 -68.82548320944974 0
vertex 438.67318700939666 -68.37051091621208 0
endloop
endfacet
facet normal 0.87156022566611 0.4902884590084082 0
outer loop
vertex 438.435657010278 -67.94826622366315 1
vertex 438.67318700939666 -68.37051091621211 1
vertex 438.67318700939666 -68.37051091621208 0
endloop
endfacet
facet normal 0.87156022566611 0.4902884590084082 0
outer loop
vertex 438.435657010278 -67.94826622366315 1
vertex 438.67318700939666 -68.37051091621208 0
vertex 438.435657010278 -67.94826622366311 0
endloop
endfacet
facet normal 0.7812773740133402 0.6241839991980084 0
outer loop
vertex 438.1332586526268 -67.56976085493336 1
vertex 438.435657010278 -67.94826622366315 1
vertex 438.435657010278 -67.94826622366311 0
endloop
endfacet
facet normal 0.7812773740133402 0.6241839991980084 0
outer loop
vertex 438.1332586526268 -67.56976085493336 1
vertex 438.435657010278 -67.94826622366311 0
vertex 438.13325865262686 -67.56976085493338 0
endloop
endfacet
facet normal 0.6706195827037532 0.7418014392640687 0
outer loop
vertex 437.7738781859296 -67.2448658549352 1
vertex 438.1332586526268 -67.56976085493336 1
vertex 438.13325865262686 -67.56976085493338 0
endloop
endfacet
facet normal 0.6706195827037532 0.7418014392640687 0
outer loop
vertex 437.7738781859296 -67.2448658549352 1
vertex 438.13325865262686 -67.56976085493338 0
vertex 437.7738781859298 -67.24486585493534 0
endloop
endfacet
facet normal 0.5424726972709948 0.8400734329304385 0
outer loop
vertex 437.3668878966069 -66.98205416329316 1
vertex 437.7738781859296 -67.2448658549352 1
vertex 437.7738781859298 -67.24486585493534 0
endloop
endfacet
facet normal 0.5424726972709948 0.8400734329304385 0
outer loop
vertex 437.3668878966069 -66.98205416329316 1
vertex 437.7738781859298 -67.24486585493534 0
vertex 437.3668878966069 -66.98205416329318 0
endloop
endfacet
facet normal 0.40017866149200637 0.9164371439910466 0
outer loop
vertex 436.9229016880699 -66.7881796484743 1
vertex 437.3668878966069 -66.98205416329316 1
vertex 437.3668878966069 -66.98205416329318 0
endloop
endfacet
facet normal 0.40017866149200637 0.9164371439910466 0
outer loop
vertex 436.9229016880699 -66.7881796484743 1
vertex 437.3668878966069 -66.98205416329318 0
vertex 436.92290168806977 -66.78817964847428 0
endloop
endfacet
facet normal 0.24744836280416388 0.9689010825391511 0
outer loop
vertex 436.45349828064093 -66.66829836569299 1
vertex 436.9229016880699 -66.7881796484743 1
vertex 436.92290168806977 -66.78817964847428 0
endloop
endfacet
facet normal 0.24744836280416388 0.9689010825391511 0
outer loop
vertex 436.45349828064093 -66.66829836569299 1
vertex 436.92290168806977 -66.78817964847428 0
vertex 436.4534982806409 -66.66829836569299 0
endloop
endfacet
facet normal 0.0882714784171128 0.9960964542141777 0
outer loop
vertex 435.9709184999999 -66.6255334 1
vertex 436.45349828064093 -66.66829836569299 1
vertex 436.4534982806409 -66.66829836569299 0
endloop
endfacet
facet normal 0.0882714784171128 0.9960964542141777 0
outer loop
vertex 435.9709184999999 -66.6255334 1
vertex 436.4534982806409 -66.66829836569299 0
vertex 435.9709184999999 -66.6255334 0
endloop
endfacet
facet normal 0.007546134182305764 0.9999715275241103 0
outer loop
vertex 23.243832699999984 -63.510950749999985 1
vertex 435.9709184999999 -66.6255334 1
vertex 435.9709184999999 -66.6255334 0
endloop
endfacet
facet normal 0.007546134182305764 0.9999715275241103 0
outer loop
vertex 23.243832699999984 -63.510950749999985 1
vertex 435.9709184999999 -66.6255334 0
vertex 23.24383269999987 -63.510950749999985 0
endloop
endfacet
facet normal -0.07478871318987498 0.9971994025165691 0
outer loop
vertex 22.75132809392457 -63.54788798204756 1
vertex 23.243832699999984 -63.510950749999985 1
vertex 23.24383269999987 -63.510950749999985 0
endloop
endfacet
facet normal -0.07478871318987498 0.9971994025165691 0
outer loop
vertex 22.75132809392457 -63.54788798204756 1
vertex 23.24383269999987 -63.510950749999985 0
vertex 22.751328093924627 -63.547887982047556 0
endloop
endfacet
facet normal -0.23738630122315368 0.9714153303255977 0
outer loop
vertex 22.271557926202576 -63.66513017701535 1
vertex 22.75132809392457 -63.54788798204756 1
vertex 22.751328093924627 -63.547887982047556 0
endloop
endfacet
facet normal -0.23738630122315368 0.9714153303255977 0
outer loop
vertex 22.271557926202576 -63.66513017701535 1
vertex 22.751328093924627 -63.547887982047556 0
vertex 22.271557926202547 -63.66513017701537 0
endloop
endfacet
facet normal -0.39355005723286607 0.9193031885357561 0
outer loop
vertex 21.81752530886328 -63.859499743843536 1
vertex 22.271557926202576 -63.66513017701535 1
vertex 22.271557926202547 -63.66513017701537 0
endloop
endfacet
facet normal -0.39355005723286607 0.9193031885357561 0
outer loop
vertex 21.81752530886328 -63.859499743843536 1
vertex 22.271557926202547 -63.66513017701537 0
vertex 21.817525308863196 -63.85949974384358 0
endloop
endfacet
facet normal -0.5390475071076046 0.8422753617915444 0
outer loop
vertex 21.401535794409654 -64.1257287242 1
vertex 21.81752530886328 -63.859499743843536 1
vertex 21.817525308863196 -63.85949974384358 0
endloop
endfacet
facet normal -0.5390475071076046 0.8422753617915444 0
outer loop
vertex 21.401535794409654 -64.1257287242 1
vertex 21.817525308863196 -63.85949974384358 0
vertex 21.40153579440971 -64.12572872419996 0
endloop
endfacet
facet normal -0.6699352634339866 0.7424195194144851 0
outer loop
vertex 21.034863860963753 -64.45660156886963 1
vertex 21.401535794409654 -64.1257287242 1
vertex 21.40153579440971 -64.12572872419996 0
endloop
endfacet
facet normal -0.6699352634339866 0.7424195194144851 0
outer loop
vertex 21.034863860963753 -64.45660156886963 1
vertex 21.40153579440971 -64.12572872419996 0
vertex 21.034863860963753 -64.45660156886964 0
endloop
endfacet
facet normal -0.7826659023134808 0.6224420337315154 0
outer loop
vertex 20.727447342407714 -64.8431506992992 1
vertex 21.034863860963753 -64.45660156886963 1
vertex 21.034863860963753 -64.45660156886964 0
endloop
endfacet
facet normal -0.7826659023134808 0.6224420337315154 0
outer loop
vertex 20.727447342407714 -64.8431506992992 1
vertex 21.034863860963753 -64.45660156886964 0
vertex 20.727447342407686 -64.84315069929924 0
endloop
endfacet
facet normal -0.8741841084615923 0.48559462982328283 0
outer loop
vertex 20.487618085320378 -65.2748995540306 1
vertex 20.727447342407714 -64.8431506992992 1
vertex 20.727447342407686 -64.84315069929924 0
endloop
endfacet
facet normal -0.8741841084615923 0.48559462982328283 0
outer loop
vertex 20.487618085320378 -65.2748995540306 1
vertex 20.727447342407686 -64.84315069929924 0
vertex 20.487618085320378 -65.27489955403055 0
endloop
endfacet
facet normal -0.9420094827886396 0.335586254689133 0
outer loop
vertex 20.321876132654836 -65.74014653278861 1
vertex 20.487618085320378 -65.2748995540306 1
vertex 20.487618085320378 -65.27489955403055 0
endloop
endfacet
facet normal -0.9420094827886396 0.335586254689133 0
outer loop
vertex 20.321876132654836 -65.74014653278861 1
vertex 20.487618085320378 -65.27489955403055 0
vertex 20.321876132654836 -65.74014653278861 0
endloop
endfacet
facet normal -0.9843037681453783 0.17648255442056995 0
outer loop
vertex 20.234713554413474 -66.22628214254296 1
vertex 20.321876132654836 -65.74014653278861 1
vertex 20.321876132654836 -65.74014653278861 0
endloop
endfacet
facet normal -0.9843037681453783 0.17648255442056995 0
outer loop
vertex 20.234713554413474 -66.22628214254296 1
vertex 20.321876132654836 -65.74014653278861 0
vertex 20.234713554413474 -66.22628214254293 0
endloop
endfacet
facet normal -0.9999207403066297 0.012590198753059667 0
outer loop
vertex 20.228495399999986 -66.72013150000002 1
vertex 20.234713554413474 -66.22628214254296 1
vertex 20.234713554413474 -66.22628214254293 0
endloop
endfacet
facet normal -0.9999207403066297 0.012590198753059667 0
outer loop
vertex 20.228495399999986 -66.72013150000002 1
vertex 20.234713554413474 -66.22628214254293 0
vertex 20.228495399999986 -66.72013149999998 0
endloop
endfacet
facet normal 0 0 -1
outer loop
vertex 28.47331189999997 -184.62654059999971 1
vertex 28.21779025190493 -180.97240955 1
vertex 20.228495399999986 -66.72013150000002 1
endloop
endfacet
facet normal 0 0 -1
outer loop
vertex 28.47331189999997 -184.62654059999971 1
vertex 20.228495399999986 -66.72013150000002 1
vertex 20.228495399999986 -66.72013149999998 0
endloop
endfacet
facet normal 0 0 -1
outer loop
vertex 28.47331189999997 -184.62654059999971 1
vertex 20.228495399999986 -66.72013149999998 0
vertex 28.21779025190494 -180.97240955 0
endloop
endfacet
facet normal 0 0 -1
outer loop
vertex 28.47331189999997 -184.62654059999971 1
vertex 28.21779025190494 -180.97240955 0
vertex 28.4733119 -184.62654059999997 0
endloop
endfacet
endsolid csg.js
