solid csg.js
facet normal 0 0 -1
outer loop
vertex 411.9084469 -65.225 0
vertex 412.4051747453326 -65.26640391131295 0
vertex 412.8881884920869 -65.38948693555822 0
endloop
endfacet
facet normal 0 0 -1
outer loop
vertex 411.9084469 -65.225 0
vertex 412.8881884920869 -65.38948693555822 0
vertex 413.34415573564803 -65.59084627408065 0
endloop
endfacet
facet normal 0 0 -1
outer loop
vertex 411.9084469 -65.225 0
vertex 413.34415573564803 -65.59084627408065 0
vertex 413.760489160288 -65.86492325220665 0
endloop
endfacet
facet normal 0 0 -1
outer loop
vertex 411.9084469 -65.225 0
vertex 413.760489160288 -65.86492325220665 0
vertex 414.12569557140046 -66.20415177060269 0
endloop
endfacet
facet normal 0 0 -1
outer loop
vertex 411.9084469 -65.225 0
vertex 414.12569557140046 -66.20415177060269 0
vertex 414.42969317370876 -66.59916717308955 0
endloop
endfacet
facet normal 0 0 -1
outer loop
vertex 411.9084469 -65.225 0
vertex 414.42969317370876 -66.59916717308955 0
vertex 414.66408988674004 -67.03906476495754 0
endloop
endfacet
facet normal 0 0 -1
outer loop
vertex 411.9084469 -65.225 0
vertex 414.66408988674004 -67.03906476495754 0
vertex 414.82241501446424 -67.51170084519414 0
endloop
endfacet
facet normal 0 0 -1
outer loop
vertex 411.9084469 -65.225 0
vertex 414.82241501446424 -67.51170084519414 0
vertex 414.9002978736839 -68.00402794240865 0
endloop
endfacet
facet normal 0 0 -1
outer loop
vertex 411.9084469 -65.225 0
vertex 414.9002978736839 -68.00402794240865 0
vertex 414.89558845 -68.5024549999996 0
endloop
endfacet
facet normal 0 0 -1
outer loop
vertex 411.9084469 -65.225 0
vertex 414.89558845 -68.5024549999996 0
vertex 408.5966509 -136.32028800000003 0
endloop
endfacet
facet normal 0 0 -1
outer loop
vertex 411.9084469 -65.225 0
vertex 408.5966509 -136.32028800000003 0
vertex 408.5297046801174 -136.73019192798975 0
endloop
endfacet
facet normal 0 0 -1
outer loop
vertex 411.9084469 -65.225 0
vertex 408.5297046801174 -136.73019192798975 0
vertex 408.4067864190781 -137.12692527248785 0
endloop
endfacet
facet normal 0 0 -1
outer loop
vertex 411.9084469 -65.225 0
vertex 408.4067864190781 -137.12692527248785 0
vertex 408.2302516855171 -137.50287970241376 0
endloop
endfacet
facet normal 0 0 -1
outer loop
vertex 411.9084469 -65.225 0
vertex 408.2302516855171 -137.50287970241376 0
vertex 408.0034841843336 -137.85084916363385 0
endloop
endfacet
facet normal 0 0 -1
outer loop
vertex 411.9084469 -65.225 0
vertex 408.0034841843336 -137.85084916363385 0
vertex 407.7308304500004 -138.1641639999996 0
endloop
endfacet
facet normal 0 0 -1
outer loop
vertex 411.9084469 -65.225 0
vertex 407.7308304500004 -138.1641639999996 0
vertex 374.7938997000001 -171.10109019999985 0
endloop
endfacet
facet normal 0 0 -1
outer loop
vertex 411.9084469 -65.225 0
vertex 374.7938997000001 -171.10109019999985 0
vertex 374.5796387073189 -171.29561409067492 0
endloop
endfacet
facet normal 0 0 -1
outer loop
vertex 411.9084469 -65.225 0
vertex 374.5796387073189 -171.29561409067492 0
vertex 374.3476324304339 -171.46858392181178 0
endloop
endfacet
facet normal 0 0 -1
outer loop
vertex 411.9084469 -65.225 0
vertex 374.3476324304339 -171.46858392181178 0
vertex 374.10003985000014 -171.61839509999993 0
endloop
endfacet
facet normal 0 0 -1
outer loop
vertex 411.9084469 -65.225 0
vertex 374.10003985000014 -171.61839509999993 0
vertex 340.99996165440746 -189.52499740000002 0
endloop
endfacet
facet normal 0 0 -1
outer loop
vertex 411.9084469 -65.225 0
vertex 340.99996165440746 -189.52499740000002 0
vertex 291.2286023500003 -189.52499740000002 0
endloop
endfacet
facet normal 0 0 -1
outer loop
vertex 411.9084469 -65.225 0
vertex 291.2286023500003 -189.52499740000002 0
vertex 15.47500000000025 -189.525 0
endloop
endfacet
facet normal 0 0 -1
outer loop
vertex 411.9084469 -65.225 0
vertex 15.47500000000025 -189.525 0
vertex 14.954055466999051 -189.4794232590366 0
endloop
endfacet
facet normal 0 0 -1
outer loop
vertex 411.9084469 -65.225 0
vertex 14.954055466999051 -189.4794232590366 0
vertex 14.448939570023214 -189.3440778623578 0
endloop
endfacet
facet normal 0 0 -1
outer loop
vertex 411.9084469 -65.225 0
vertex 14.448939570023214 -189.3440778623578 0
vertex 13.974999999999966 -189.1230762113533 0
endloop
endfacet
facet normal 0 0 -1
outer loop
vertex 411.9084469 -65.225 0
vertex 13.974999999999966 -189.1230762113533 0
vertex 13.5466371709403 -188.8231333293569 0
endloop
endfacet
facet normal 0 0 -1
outer loop
vertex 411.9084469 -65.225 0
vertex 13.5466371709403 -188.8231333293569 0
vertex 13.176866670643165 -188.45336282905973 0
endloop
endfacet
facet normal 0 0 -1
outer loop
vertex 411.9084469 -65.225 0
vertex 13.176866670643165 -188.45336282905973 0
vertex 12.876923788646678 -188.02499999999998 0
endloop
endfacet
facet normal 0 0 -1
outer loop
vertex 411.9084469 -65.225 0
vertex 12.876923788646678 -188.02499999999998 0
vertex 12.655922137642278 -187.55106042997704 0
endloop
endfacet
facet normal 0 0 -1
outer loop
vertex 411.9084469 -65.225 0
vertex 12.655922137642278 -187.55106042997704 0
vertex 12.520576740963378 -187.04594453300078 0
endloop
endfacet
facet normal 0 0 -1
outer loop
vertex 411.9084469 -65.225 0
vertex 12.520576740963378 -187.04594453300078 0
vertex 12.474999999999994 -186.525 0
endloop
endfacet
facet normal 0 0 -1
outer loop
vertex 411.9084469 -65.225 0
vertex 12.474999999999994 -186.525 0
vertex 12.474999999999994 -68.225 0
endloop
endfacet
facet normal 0 0 -1
outer loop
vertex 411.9084469 -65.225 0
vertex 12.474999999999994 -68.225 0
vertex 12.520576740963378 -67.7040554669992 0
endloop
endfacet
facet normal 0 0 -1
outer loop
vertex 411.9084469 -65.225 0
vertex 12.520576740963378 -67.7040554669992 0
vertex 12.655922137642278 -67.19893957002296 0
endloop
endfacet
facet normal 0 0 -1
outer loop
vertex 411.9084469 -65.225 0
vertex 12.655922137642278 -67.19893957002296 0
vertex 12.87692378864665 -66.72500000000007 0
endloop
endfacet
facet normal 0 0 -1
outer loop
vertex 411.9084469 -65.225 0
vertex 12.87692378864665 -66.72500000000007 0
vertex 13.176866670643108 -66.29663717094033 0
endloop
endfacet
facet normal 0 0 -1
outer loop
vertex 411.9084469 -65.225 0
vertex 13.176866670643108 -66.29663717094033 0
vertex 13.546637170940329 -65.92686667064311 0
endloop
endfacet
facet normal 0 0 -1
outer loop
vertex 411.9084469 -65.225 0
vertex 13.546637170940329 -65.92686667064311 0
vertex 13.974999999999966 -65.6269237886467 0
endloop
endfacet
facet normal 0 0 -1
outer loop
vertex 411.9084469 -65.225 0
vertex 13.974999999999966 -65.6269237886467 0
vertex 14.448939570023015 -65.40592213764226 0
endloop
endfacet
facet normal 0 0 -1
outer loop
vertex 411.9084469 -65.225 0
vertex 14.448939570023015 -65.40592213764226 0
vertex 14.954055466999279 -65.27057674096335 0
endloop
endfacet
facet normal 0 0 -1
outer loop
vertex 411.9084469 -65.225 0
vertex 14.954055466999279 -65.27057674096335 0
vertex 15.474999999999909 -65.225 0
endloop
endfacet
facet normal 0 0 -1
outer loop
vertex 340.99996165440746 -189.52499740000002 0
vertex 340.99336524342783 -189.5285659491899 0
vertex 291.3748262161028 -189.5285659491899 0
endloop
endfacet
facet normal 0 0 -1
outer loop
vertex 340.99996165440746 -189.52499740000002 0
vertex 291.3748262161028 -189.5285659491899 0
vertex 291.2286023500003 -189.52499740000002 0
endloop
endfacet
facet normal 0 0 -1
outer loop
vertex 340.99336524342783 -189.5285659491899 0
vertex 340.9736070590537 -189.5392547999998 0
vertex 291.5207046999978 -189.5392547999998 0
endloop
endfacet
facet normal 0 0 -1
outer loop
vertex 340.99336524342783 -189.5285659491899 0
vertex 291.5207046999978 -189.5392547999998 0
vertex 291.3748262161028 -189.5285659491899 0
endloop
endfacet
facet normal 0 0 -1
outer loop
vertex 340.9736070590537 -189.5392547999998 0
vertex 334.20671859999976 -193.2000305000001 0
vertex 333.8842509603295 -193.3504874244976 0
endloop
endfacet
facet normal 0 0 -1
outer loop
vertex 340.9736070590537 -189.5392547999998 0
vertex 333.8842509603295 -193.3504874244976 0
vertex 333.54623617308783 -193.46170430745175 0
endloop
endfacet
facet normal 0 0 -1
outer loop
vertex 340.9736070590537 -189.5392547999998 0
vertex 333.54623617308783 -193.46170430745175 0
vertex 333.1974305506222 -193.5321161614553 0
endloop
endfacet
facet normal 0 0 -1
outer loop
vertex 340.9736070590537 -189.5392547999998 0
vertex 333.1974305506222 -193.5321161614553 0
vertex 332.8427415241673 -193.56073234498936 0
endloop
endfacet
facet normal 0 0 -1
outer loop
vertex 340.9736070590537 -189.5392547999998 0
vertex 332.8427415241673 -193.56073234498936 0
vertex 332.48715930000003 -193.54715025000002 0
endloop
endfacet
facet normal 0 0 -1
outer loop
vertex 340.9736070590537 -189.5392547999998 0
vertex 332.48715930000003 -193.54715025000002 0
vertex 291.5207046999978 -189.5392547999998 0
endloop
endfacet
facet normal 0 0 1
outer loop
vertex 333.19743055062224 -193.53211616145526 1
vertex 333.54623617308823 -193.46170430745167 1
vertex 333.88425096032915 -193.35048742449774 1
endloop
endfacet
facet normal 0 0 1
outer loop
vertex 333.19743055062224 -193.53211616145526 1
vertex 333.88425096032915 -193.35048742449774 1
vertex 334.2067186000008 -193.20003049999963 1
endloop
endfacet
facet normal 0 0 1
outer loop
vertex 333.19743055062224 -193.53211616145526 1
vertex 334.2067186000008 -193.20003049999963 1
vertex 338.85160577353696 -190.6872223829418 1
endloop
endfacet
facet normal 0 0 1
outer loop
vertex 333.19743055062224 -193.53211616145526 1
vertex 338.85160577353696 -190.6872223829418 1
vertex 291.81280955512324 -189.53925479999995 1
endloop
endfacet
facet normal 0 0 1
outer loop
vertex 333.19743055062224 -193.53211616145526 1
vertex 291.81280955512324 -189.53925479999995 1
vertex 291.5207046999994 -189.53925479999995 1
endloop
endfacet
facet normal 0 0 1
outer loop
vertex 333.19743055062224 -193.53211616145526 1
vertex 291.5207046999994 -189.53925479999995 1
vertex 332.4871593 -193.54715025000002 1
endloop
endfacet
facet normal 0 0 1
outer loop
vertex 333.19743055062224 -193.53211616145526 1
vertex 332.4871593 -193.54715025000002 1
vertex 332.8427415241671 -193.56073234498936 1
endloop
endfacet
facet normal 0 0 1
outer loop
vertex 291.81280955512324 -189.53925479999995 1
vertex 291.3748262161024 -189.52856594918987 1
vertex 291.5207046999994 -189.53925479999995 1
endloop
endfacet
facet normal 0 0 1
outer loop
vertex 340.9999616544074 -189.52499693072045 1
vertex 291.2286023500005 -189.52499693072045 1
vertex 291.3748262161024 -189.52856594918987 1
endloop
endfacet
facet normal 0 0 1
outer loop
vertex 340.9999616544074 -189.52499693072045 1
vertex 291.3748262161024 -189.52856594918987 1
vertex 291.81280955512324 -189.53925479999995 1
endloop
endfacet
facet normal 0 0 1
outer loop
vertex 340.9999616544074 -189.52499693072045 1
vertex 291.81280955512324 -189.53925479999995 1
vertex 338.85160577353696 -190.6872223829418 1
endloop
endfacet
facet normal 0 0 1
outer loop
vertex 291.2286023500005 -189.52499693072045 1
vertex 340.9999616544074 -189.52499693072045 1
vertex 374.10003985000054 -171.61839509999973 1
endloop
endfacet
facet normal 0 0 1
outer loop
vertex 291.2286023500005 -189.52499693072045 1
vertex 374.10003985000054 -171.61839509999973 1
vertex 374.34763243043403 -171.46858392181178 1
endloop
endfacet
facet normal 0 0 1
outer loop
vertex 291.2286023500005 -189.52499693072045 1
vertex 374.34763243043403 -171.46858392181178 1
vertex 374.5796387073184 -171.2956140906754 1
endloop
endfacet
facet normal 0 0 1
outer loop
vertex 291.2286023500005 -189.52499693072045 1
vertex 374.5796387073184 -171.2956140906754 1
vertex 374.7938997000001 -171.10109019999987 1
endloop
endfacet
facet normal 0 0 1
outer loop
vertex 291.2286023500005 -189.52499693072045 1
vertex 374.7938997000001 -171.10109019999987 1
vertex 407.73083045000004 -138.16416399999994 1
endloop
endfacet
facet normal 0 0 1
outer loop
vertex 291.2286023500005 -189.52499693072045 1
vertex 407.73083045000004 -138.16416399999994 1
vertex 408.00348418433396 -137.85084916363343 1
endloop
endfacet
facet normal 0 0 1
outer loop
vertex 291.2286023500005 -189.52499693072045 1
vertex 408.00348418433396 -137.85084916363343 1
vertex 408.2302516855172 -137.50287970241374 1
endloop
endfacet
facet normal 0 0 1
outer loop
vertex 291.2286023500005 -189.52499693072045 1
vertex 408.2302516855172 -137.50287970241374 1
vertex 408.4067864190779 -137.12692527248845 1
endloop
endfacet
facet normal 0 0 1
outer loop
vertex 291.2286023500005 -189.52499693072045 1
vertex 408.4067864190779 -137.12692527248845 1
vertex 408.5297046801174 -136.73019192798972 1
endloop
endfacet
facet normal 0 0 1
outer loop
vertex 291.2286023500005 -189.52499693072045 1
vertex 408.5297046801174 -136.73019192798972 1
vertex 408.59665089999993 -136.32028800000026 1
endloop
endfacet
facet normal 0 0 1
outer loop
vertex 291.2286023500005 -189.52499693072045 1
vertex 408.59665089999993 -136.32028800000026 1
vertex 414.89558845000005 -68.50245499999887 1
endloop
endfacet
facet normal 0 0 1
outer loop
vertex 291.2286023500005 -189.52499693072045 1
vertex 414.89558845000005 -68.50245499999887 1
vertex 414.90029787368394 -68.00402794240888 1
endloop
endfacet
facet normal 0 0 1
outer loop
vertex 291.2286023500005 -189.52499693072045 1
vertex 414.90029787368394 -68.00402794240888 1
vertex 414.8224150144643 -67.51170084519434 1
endloop
endfacet
facet normal 0 0 1
outer loop
vertex 291.2286023500005 -189.52499693072045 1
vertex 414.8224150144643 -67.51170084519434 1
vertex 414.6640898867399 -67.03906476495716 1
endloop
endfacet
facet normal 0 0 1
outer loop
vertex 291.2286023500005 -189.52499693072045 1
vertex 414.6640898867399 -67.03906476495716 1
vertex 414.4296931737088 -66.59916717308964 1
endloop
endfacet
facet normal 0 0 1
outer loop
vertex 291.2286023500005 -189.52499693072045 1
vertex 414.4296931737088 -66.59916717308964 1
vertex 414.1256955714006 -66.20415177060288 1
endloop
endfacet
facet normal 0 0 1
outer loop
vertex 291.2286023500005 -189.52499693072045 1
vertex 414.1256955714006 -66.20415177060288 1
vertex 413.7604891602878 -65.86492325220652 1
endloop
endfacet
facet normal 0 0 1
outer loop
vertex 291.2286023500005 -189.52499693072045 1
vertex 413.7604891602878 -65.86492325220652 1
vertex 413.34415573564814 -65.5908462740807 1
endloop
endfacet
facet normal 0 0 1
outer loop
vertex 291.2286023500005 -189.52499693072045 1
vertex 413.34415573564814 -65.5908462740807 1
vertex 412.8881884920869 -65.38948693555821 1
endloop
endfacet
facet normal 0 0 1
outer loop
vertex 291.2286023500005 -189.52499693072045 1
vertex 412.8881884920869 -65.38948693555821 1
vertex 412.40517474533266 -65.26640391131295 1
endloop
endfacet
facet normal 0 0 1
outer loop
vertex 291.2286023500005 -189.52499693072045 1
vertex 412.40517474533266 -65.26640391131295 1
vertex 411.90844690000006 -65.225 1
endloop
endfacet
facet normal 0 0 1
outer loop
vertex 291.2286023500005 -189.52499693072045 1
vertex 411.90844690000006 -65.225 1
vertex 15.474999999999909 -65.225 1
endloop
endfacet
facet normal 0 0 1
outer loop
vertex 291.2286023500005 -189.52499693072045 1
vertex 15.474999999999909 -65.225 1
vertex 14.954055466999222 -65.27057674096335 1
endloop
endfacet
facet normal 0 0 1
outer loop
vertex 291.2286023500005 -189.52499693072045 1
vertex 14.954055466999222 -65.27057674096335 1
vertex 14.448939570023072 -65.40592213764224 1
endloop
endfacet
facet normal 0 0 1
outer loop
vertex 291.2286023500005 -189.52499693072045 1
vertex 14.448939570023072 -65.40592213764224 1
vertex 13.974999999999937 -65.62692378864672 1
endloop
endfacet
facet normal 0 0 1
outer loop
vertex 291.2286023500005 -189.52499693072045 1
vertex 13.974999999999937 -65.62692378864672 1
vertex 13.546637170940357 -65.92686667064308 1
endloop
endfacet
facet normal 0 0 1
outer loop
vertex 291.2286023500005 -189.52499693072045 1
vertex 13.546637170940357 -65.92686667064308 1
vertex 13.17686667064308 -66.29663717094034 1
endloop
endfacet
facet normal 0 0 1
outer loop
vertex 291.2286023500005 -189.52499693072045 1
vertex 13.17686667064308 -66.29663717094034 1
vertex 12.876923788646678 -66.72499999999998 1
endloop
endfacet
facet normal 0 0 1
outer loop
vertex 291.2286023500005 -189.52499693072045 1
vertex 12.876923788646678 -66.72499999999998 1
vertex 12.655922137642278 -67.19893957002296 1
endloop
endfacet
facet normal 0 0 1
outer loop
vertex 291.2286023500005 -189.52499693072045 1
vertex 12.655922137642278 -67.19893957002296 1
vertex 12.520576740963378 -67.70405546699921 1
endloop
endfacet
facet normal 0 0 1
outer loop
vertex 291.2286023500005 -189.52499693072045 1
vertex 12.520576740963378 -67.70405546699921 1
vertex 12.474999999999994 -68.225 1
endloop
endfacet
facet normal 0 0 1
outer loop
vertex 291.2286023500005 -189.52499693072045 1
vertex 12.474999999999994 -68.225 1
vertex 12.474999999999994 -186.52500000000026 1
endloop
endfacet
facet normal 0 0 1
outer loop
vertex 291.2286023500005 -189.52499693072045 1
vertex 12.474999999999994 -186.52500000000026 1
vertex 12.52057674096335 -187.04594453300064 1
endloop
endfacet
facet normal 0 0 1
outer loop
vertex 291.2286023500005 -189.52499693072045 1
vertex 12.52057674096335 -187.04594453300064 1
vertex 12.655922137642278 -187.55106042997704 1
endloop
endfacet
facet normal 0 0 1
outer loop
vertex 291.2286023500005 -189.52499693072045 1
vertex 12.655922137642278 -187.55106042997704 1
vertex 12.876923788646707 -188.02500000000003 1
endloop
endfacet
facet normal 0 0 1
outer loop
vertex 291.2286023500005 -189.52499693072045 1
vertex 12.876923788646707 -188.02500000000003 1
vertex 13.176866670643022 -188.45336282905956 1
endloop
endfacet
facet normal 0 0 1
outer loop
vertex 291.2286023500005 -189.52499693072045 1
vertex 13.176866670643022 -188.45336282905956 1
vertex 13.546637170940329 -188.8231333293569 1
endloop
endfacet
facet normal 0 0 1
outer loop
vertex 291.2286023500005 -189.52499693072045 1
vertex 13.546637170940329 -188.8231333293569 1
vertex 13.974999999999994 -189.1230762113533 1
endloop
endfacet
facet normal 0 0 1
outer loop
vertex 291.2286023500005 -189.52499693072045 1
vertex 13.974999999999994 -189.1230762113533 1
vertex 14.44893957002327 -189.34407786235784 1
endloop
endfacet
facet normal 0 0 1
outer loop
vertex 291.2286023500005 -189.52499693072045 1
vertex 14.44893957002327 -189.34407786235784 1
vertex 14.954055466999023 -189.4794232590366 1
endloop
endfacet
facet normal 0 0 1
outer loop
vertex 291.2286023500005 -189.52499693072045 1
vertex 14.954055466999023 -189.4794232590366 1
vertex 15.475000000000051 -189.525 1
endloop
endfacet
facet normal -0.9961946980917458 -0.08715574274765636 0
outer loop
vertex 12.52057674096335 -187.04594453300064 1
vertex 12.474999999999994 -186.52500000000026 1
vertex 12.474999999999994 -186.525 0
endloop
endfacet
facet normal -0.9961946980917458 -0.08715574274765636 0
outer loop
vertex 12.52057674096335 -187.04594453300064 1
vertex 12.474999999999994 -186.525 0
vertex 12.520576740963378 -187.04594453300078 0
endloop
endfacet
facet normal -0.9659258262890629 -0.2588190451025413 0
outer loop
vertex 12.655922137642278 -187.55106042997704 1
vertex 12.52057674096335 -187.04594453300064 1
vertex 12.520576740963378 -187.04594453300078 0
endloop
endfacet
facet normal -0.9659258262890629 -0.2588190451025413 0
outer loop
vertex 12.655922137642278 -187.55106042997704 1
vertex 12.520576740963378 -187.04594453300078 0
vertex 12.655922137642278 -187.55106042997704 0
endloop
endfacet
facet normal -0.9063077870366557 -0.42261826174068745 0
outer loop
vertex 12.876923788646707 -188.02500000000003 1
vertex 12.655922137642278 -187.55106042997704 1
vertex 12.655922137642278 -187.55106042997704 0
endloop
endfacet
facet normal -0.9063077870366557 -0.42261826174068745 0
outer loop
vertex 12.876923788646707 -188.02500000000003 1
vertex 12.655922137642278 -187.55106042997704 0
vertex 12.876923788646678 -188.02499999999998 0
endloop
endfacet
facet normal -0.8191520442889708 -0.5735764363510761 0
outer loop
vertex 13.176866670643022 -188.45336282905956 1
vertex 12.876923788646707 -188.02500000000003 1
vertex 12.876923788646678 -188.02499999999998 0
endloop
endfacet
facet normal -0.8191520442889708 -0.5735764363510761 0
outer loop
vertex 13.176866670643022 -188.45336282905956 1
vertex 12.876923788646678 -188.02499999999998 0
vertex 13.176866670643165 -188.45336282905973 0
endloop
endfacet
facet normal -0.7071067811865902 -0.7071067811865049 0
outer loop
vertex 13.546637170940329 -188.8231333293569 1
vertex 13.176866670643022 -188.45336282905956 1
vertex 13.176866670643165 -188.45336282905973 0
endloop
endfacet
facet normal -0.7071067811865902 -0.7071067811865049 0
outer loop
vertex 13.546637170940329 -188.8231333293569 1
vertex 13.176866670643165 -188.45336282905973 0
vertex 13.5466371709403 -188.8231333293569 0
endloop
endfacet
facet normal -0.5735764363510504 -0.8191520442889888 0
outer loop
vertex 13.974999999999994 -189.1230762113533 1
vertex 13.546637170940329 -188.8231333293569 1
vertex 13.5466371709403 -188.8231333293569 0
endloop
endfacet
facet normal -0.5735764363510504 -0.8191520442889888 0
outer loop
vertex 13.974999999999994 -189.1230762113533 1
vertex 13.5466371709403 -188.8231333293569 0
vertex 13.974999999999966 -189.1230762113533 0
endloop
endfacet
facet normal -0.42261826174069467 -0.9063077870366523 0
outer loop
vertex 14.44893957002327 -189.34407786235784 1
vertex 13.974999999999994 -189.1230762113533 1
vertex 13.974999999999966 -189.1230762113533 0
endloop
endfacet
facet normal -0.42261826174069467 -0.9063077870366523 0
outer loop
vertex 14.44893957002327 -189.34407786235784 1
vertex 13.974999999999966 -189.1230762113533 0
vertex 14.448939570023214 -189.3440778623578 0
endloop
endfacet
facet normal -0.2588190451025404 -0.9659258262890631 0
outer loop
vertex 14.954055466999023 -189.4794232590366 1
vertex 14.44893957002327 -189.34407786235784 1
vertex 14.448939570023214 -189.3440778623578 0
endloop
endfacet
facet normal -0.2588190451025404 -0.9659258262890631 0
outer loop
vertex 14.954055466999023 -189.4794232590366 1
vertex 14.448939570023214 -189.3440778623578 0
vertex 14.954055466999051 -189.4794232590366 0
endloop
endfacet
facet normal -0.08715574274768315 -0.9961946980917434 0
outer loop
vertex 15.475000000000051 -189.525 1
vertex 14.954055466999023 -189.4794232590366 1
vertex 14.954055466999051 -189.4794232590366 0
endloop
endfacet
facet normal -0.08715574274768315 -0.9961946980917434 0
outer loop
vertex 15.475000000000051 -189.525 1
vertex 14.954055466999051 -189.4794232590366 0
vertex 15.47500000000025 -189.525 0
endloop
endfacet
facet normal 9.428674729861086e-9 -1 0
outer loop
vertex 291.2286023500005 -189.52499693072045 1
vertex 15.475000000000051 -189.525 1
vertex 15.47500000000025 -189.525 0
endloop
endfacet
facet normal 9.428674729861086e-9 -1 0
outer loop
vertex 291.2286023500005 -189.52499693072045 1
vertex 15.47500000000025 -189.525 0
vertex 291.2286023500003 -189.52499740000002 0
endloop
endfacet
facet normal -0.024397432954430087 -0.9997023383313826 0
outer loop
vertex 291.3748262161024 -189.52856594918987 1
vertex 291.2286023500005 -189.52499693072045 1
vertex 291.2286023500003 -189.52499740000002 0
endloop
endfacet
facet normal -0.024397432954430087 -0.9997023383313826 0
outer loop
vertex 291.3748262161024 -189.52856594918987 1
vertex 291.2286023500003 -189.52499740000002 0
vertex 291.3748262161028 -189.5285659491899 0
endloop
endfacet
facet normal -0.07307638688928364 -0.9973263466284283 0
outer loop
vertex 291.5207046999994 -189.53925479999995 1
vertex 291.3748262161024 -189.52856594918987 1
vertex 291.3748262161028 -189.5285659491899 0
endloop
endfacet
facet normal -0.07307638688928364 -0.9973263466284283 0
outer loop
vertex 291.5207046999994 -189.53925479999995 1
vertex 291.3748262161028 -189.5285659491899 0
vertex 291.5207046999978 -189.5392547999998 0
endloop
endfacet
facet normal -0.09736872472339557 -0.995248376761168 0
outer loop
vertex 332.4871593 -193.54715025000002 1
vertex 291.5207046999994 -189.53925479999995 1
vertex 291.5207046999978 -189.5392547999998 0
endloop
endfacet
facet normal -0.09736872472339557 -0.995248376761168 0
outer loop
vertex 332.4871593 -193.54715025000002 1
vertex 291.5207046999978 -189.5392547999998 0
vertex 332.48715930000003 -193.54715025000002 0
endloop
endfacet
facet normal -0.03816894321349194 -0.9992713003854186 0
outer loop
vertex 332.8427415241671 -193.56073234498936 1
vertex 332.4871593 -193.54715025000002 1
vertex 332.48715930000003 -193.54715025000002 0
endloop
endfacet
facet normal -0.03816894321349194 -0.9992713003854186 0
outer loop
vertex 332.8427415241671 -193.56073234498936 1
vertex 332.48715930000003 -193.54715025000002 0
vertex 332.8427415241673 -193.56073234498936 0
endloop
endfacet
facet normal 0.08041833643164874 -0.9967612006722404 0
outer loop
vertex 333.19743055062224 -193.53211616145526 1
vertex 332.8427415241671 -193.56073234498936 1
vertex 332.8427415241673 -193.56073234498936 0
endloop
endfacet
facet normal 0.08041833643164874 -0.9967612006722404 0
outer loop
vertex 333.19743055062224 -193.53211616145526 1
vertex 332.8427415241673 -193.56073234498936 0
vertex 333.1974305506222 -193.5321161614553 0
endloop
endfacet
facet normal 0.19787419092017497 -0.9802274249212202 0
outer loop
vertex 333.54623617308823 -193.46170430745167 1
vertex 333.19743055062224 -193.53211616145526 1
vertex 333.1974305506222 -193.5321161614553 0
endloop
endfacet
facet normal 0.19787419092017497 -0.9802274249212202 0
outer loop
vertex 333.54623617308823 -193.46170430745167 1
vertex 333.1974305506222 -193.5321161614553 0
vertex 333.54623617308783 -193.46170430745175 0
endloop
endfacet
facet normal 0.3125461052353537 -0.9499025908492992 0
outer loop
vertex 333.88425096032915 -193.35048742449774 1
vertex 333.54623617308823 -193.46170430745167 1
vertex 333.54623617308783 -193.46170430745175 0
endloop
endfacet
facet normal 0.3125461052353537 -0.9499025908492992 0
outer loop
vertex 333.88425096032915 -193.35048742449774 1
vertex 333.54623617308783 -193.46170430745175 0
vertex 333.8842509603295 -193.3504874244976 0
endloop
endfacet
facet normal 0.42282090908657466 -0.9062132634425534 0
outer loop
vertex 334.2067186000008 -193.20003049999963 1
vertex 333.88425096032915 -193.35048742449774 1
vertex 333.8842509603295 -193.3504874244976 0
endloop
endfacet
facet normal 0.42282090908657466 -0.9062132634425534 0
outer loop
vertex 334.2067186000008 -193.20003049999963 1
vertex 333.8842509603295 -193.3504874244976 0
vertex 334.20671859999976 -193.2000305000001 0
endloop
endfacet
facet normal 0 0 1
outer loop
vertex 374.10003985000054 -171.61839509999973 1
vertex 340.9999616544074 -189.52499693072045 1
vertex 338.85160577353696 -190.6872223829418 1
endloop
endfacet
facet normal 0 0 1
outer loop
vertex 374.10003985000054 -171.61839509999973 1
vertex 338.85160577353696 -190.6872223829418 1
vertex 334.2067186000008 -193.20003049999963 1
endloop
endfacet
facet normal 0 0 1
outer loop
vertex 374.10003985000054 -171.61839509999973 1
vertex 334.2067186000008 -193.20003049999963 1
vertex 334.20671859999976 -193.2000305000001 0
endloop
endfacet
facet normal 0 0 1
outer loop
vertex 374.10003985000054 -171.61839509999973 1
vertex 334.20671859999976 -193.2000305000001 0
vertex 340.9736070590537 -189.5392547999998 0
endloop
endfacet
facet normal 0 0 1
outer loop
vertex 374.10003985000054 -171.61839509999973 1
vertex 340.9736070590537 -189.5392547999998 0
vertex 340.99336524342783 -189.5285659491899 0
endloop
endfacet
facet normal 0 0 1
outer loop
vertex 374.10003985000054 -171.61839509999973 1
vertex 340.99336524342783 -189.5285659491899 0
vertex 340.99996165440746 -189.52499740000002 0
endloop
endfacet
facet normal 0 0 1
outer loop
vertex 374.10003985000054 -171.61839509999973 1
vertex 340.99996165440746 -189.52499740000002 0
vertex 374.10003985000014 -171.61839509999993 0
endloop
endfacet
facet normal 0.5176825719008727 -0.8555727641469765 0
outer loop
vertex 374.34763243043403 -171.46858392181178 1
vertex 374.10003985000054 -171.61839509999973 1
vertex 374.10003985000014 -171.61839509999993 0
endloop
endfacet
facet normal 0.5176825719008727 -0.8555727641469765 0
outer loop
vertex 374.34763243043403 -171.46858392181178 1
vertex 374.10003985000014 -171.61839509999993 0
vertex 374.3476324304339 -171.46858392181178 0
endloop
endfacet
facet normal 0.5977088500758813 -0.8017132470783851 0
outer loop
vertex 374.5796387073184 -171.2956140906754 1
vertex 374.34763243043403 -171.46858392181178 1
vertex 374.3476324304339 -171.46858392181178 0
endloop
endfacet
facet normal 0.5977088500758813 -0.8017132470783851 0
outer loop
vertex 374.5796387073184 -171.2956140906754 1
vertex 374.3476324304339 -171.46858392181178 0
vertex 374.5796387073189 -171.29561409067492 0
endloop
endfacet
facet normal 0.6721829556415668 -0.740385085036812 0
outer loop
vertex 374.7938997000001 -171.10109019999987 1
vertex 374.5796387073184 -171.2956140906754 1
vertex 374.5796387073189 -171.29561409067492 0
endloop
endfacet
facet normal 0.6721829556415668 -0.740385085036812 0
outer loop
vertex 374.7938997000001 -171.10109019999987 1
vertex 374.5796387073189 -171.29561409067492 0
vertex 374.7938997000001 -171.10109019999985 0
endloop
endfacet
facet normal 0.7071067323456856 -0.707106830027406 0
outer loop
vertex 407.73083045000004 -138.16416399999994 1
vertex 374.7938997000001 -171.10109019999987 1
vertex 374.7938997000001 -171.10109019999985 0
endloop
endfacet
facet normal 0.7071067323456856 -0.707106830027406 0
outer loop
vertex 407.73083045000004 -138.16416399999994 1
vertex 374.7938997000001 -171.10109019999985 0
vertex 407.7308304500004 -138.1641639999996 0
endloop
endfacet
facet normal 0.7543598211590496 -0.6564611642899271 0
outer loop
vertex 408.00348418433396 -137.85084916363343 1
vertex 407.73083045000004 -138.16416399999994 1
vertex 407.7308304500004 -138.1641639999996 0
endloop
endfacet
facet normal 0.7543598211590496 -0.6564611642899271 0
outer loop
vertex 408.00348418433396 -137.85084916363343 1
vertex 407.7308304500004 -138.1641639999996 0
vertex 408.0034841843336 -137.85084916363385 0
endloop
endfacet
facet normal 0.8377968422370146 -0.5459820978179476 0
outer loop
vertex 408.2302516855172 -137.50287970241374 1
vertex 408.00348418433396 -137.85084916363343 1
vertex 408.0034841843336 -137.85084916363385 0
endloop
endfacet
facet normal 0.8377968422370146 -0.5459820978179476 0
outer loop
vertex 408.2302516855172 -137.50287970241374 1
vertex 408.0034841843336 -137.85084916363385 0
vertex 408.2302516855171 -137.50287970241376 0
endloop
endfacet
facet normal 0.9051755091178292 -0.4250379955877814 0
outer loop
vertex 408.4067864190779 -137.12692527248845 1
vertex 408.2302516855172 -137.50287970241374 1
vertex 408.2302516855171 -137.50287970241376 0
endloop
endfacet
facet normal 0.9051755091178292 -0.4250379955877814 0
outer loop
vertex 408.4067864190779 -137.12692527248845 1
vertex 408.2302516855171 -137.50287970241376 0
vertex 408.4067864190781 -137.12692527248785 0
endloop
endfacet
facet normal 0.9552043505955986 -0.2959470368211867 0
outer loop
vertex 408.5297046801174 -136.73019192798972 1
vertex 408.4067864190779 -137.12692527248845 1
vertex 408.4067864190781 -137.12692527248785 0
endloop
endfacet
facet normal 0.9552043505955986 -0.2959470368211867 0
outer loop
vertex 408.5297046801174 -136.73019192798972 1
vertex 408.4067864190781 -137.12692527248785 0
vertex 408.5297046801174 -136.73019192798975 0
endloop
endfacet
facet normal 0.986924023259122 -0.16118614181755236 0
outer loop
vertex 408.59665089999993 -136.32028800000026 1
vertex 408.5297046801174 -136.73019192798972 1
vertex 408.5297046801174 -136.73019192798975 0
endloop
endfacet
facet normal 0.986924023259122 -0.16118614181755236 0
outer loop
vertex 408.59665089999993 -136.32028800000026 1
vertex 408.5297046801174 -136.73019192798975 0
vertex 408.5966509 -136.32028800000003 0
endloop
endfacet
facet normal 0.9957143378415645 -0.0924822005400758 0
outer loop
vertex 414.89558845000005 -68.50245499999887 1
vertex 408.59665089999993 -136.32028800000026 1
vertex 408.5966509 -136.32028800000003 0
endloop
endfacet
facet normal 0.9957143378415645 -0.0924822005400758 0
outer loop
vertex 414.89558845000005 -68.50245499999887 1
vertex 408.5966509 -136.32028800000003 0
vertex 414.89558845 -68.5024549999996 0
endloop
endfacet
facet normal 0.9999553652370141 -0.009448149750596714 0
outer loop
vertex 414.90029787368394 -68.00402794240888 1
vertex 414.89558845000005 -68.50245499999887 1
vertex 414.89558845 -68.5024549999996 0
endloop
endfacet
facet normal 0.9999553652370141 -0.009448149750596714 0
outer loop
vertex 414.90029787368394 -68.00402794240888 1
vertex 414.89558845 -68.5024549999996 0
vertex 414.9002978736839 -68.00402794240865 0
endloop
endfacet
facet normal 0.9877174900756955 0.1562503113551088 0
outer loop
vertex 414.8224150144643 -67.51170084519434 1
vertex 414.90029787368394 -68.00402794240888 1
vertex 414.9002978736839 -68.00402794240865 0
endloop
endfacet
facet normal 0.9877174900756955 0.1562503113551088 0
outer loop
vertex 414.8224150144643 -67.51170084519434 1
vertex 414.9002978736839 -68.00402794240865 0
vertex 414.82241501446424 -67.51170084519414 0
endloop
endfacet
facet normal 0.9482129371575203 0.3176353661151549 0
outer loop
vertex 414.6640898867399 -67.03906476495716 1
vertex 414.8224150144643 -67.51170084519434 1
vertex 414.82241501446424 -67.51170084519414 0
endloop
endfacet
facet normal 0.9482129371575203 0.3176353661151549 0
outer loop
vertex 414.6640898867399 -67.03906476495716 1
vertex 414.82241501446424 -67.51170084519414 0
vertex 414.66408988674004 -67.03906476495754 0
endloop
endfacet
facet normal 0.8825322591202603 0.4702518597646264 0
outer loop
vertex 414.4296931737088 -66.59916717308964 1
vertex 414.6640898867399 -67.03906476495716 1
vertex 414.66408988674004 -67.03906476495754 0
endloop
endfacet
facet normal 0.8825322591202603 0.4702518597646264 0
outer loop
vertex 414.4296931737088 -66.59916717308964 1
vertex 414.66408988674004 -67.03906476495754 0
vertex 414.42969317370876 -66.59916717308955 0
endloop
endfacet
facet normal 0.7924886200529625 0.6098867002046784 0
outer loop
vertex 414.1256955714006 -66.20415177060288 1
vertex 414.4296931737088 -66.59916717308964 1
vertex 414.42969317370876 -66.59916717308955 0
endloop
endfacet
facet normal 0.7924886200529625 0.6098867002046784 0
outer loop
vertex 414.1256955714006 -66.20415177060288 1
vertex 414.42969317370876 -66.59916717308955 0
vertex 414.12569557140046 -66.20415177060269 0
endloop
endfacet
facet normal 0.6805677417486772 0.7326851635532862 0
outer loop
vertex 413.7604891602878 -65.86492325220652 1
vertex 414.1256955714006 -66.20415177060288 1
vertex 414.12569557140046 -66.20415177060269 0
endloop
endfacet
facet normal 0.6805677417486772 0.7326851635532862 0
outer loop
vertex 413.7604891602878 -65.86492325220652 1
vertex 414.12569557140046 -66.20415177060269 0
vertex 413.760489160288 -65.86492325220665 0
endloop
endfacet
facet normal 0.5498592835011512 0.8352573066711841 0
outer loop
vertex 413.34415573564814 -65.5908462740807 1
vertex 413.7604891602878 -65.86492325220652 1
vertex 413.760489160288 -65.86492325220665 0
endloop
endfacet
facet normal 0.5498592835011512 0.8352573066711841 0
outer loop
vertex 413.34415573564814 -65.5908462740807 1
vertex 413.760489160288 -65.86492325220665 0
vertex 413.34415573564803 -65.59084627408065 0
endloop
endfacet
facet normal 0.4039715497569049 0.9147715490694955 0
outer loop
vertex 412.8881884920869 -65.38948693555821 1
vertex 413.34415573564814 -65.5908462740807 1
vertex 413.34415573564803 -65.59084627408065 0
endloop
endfacet
facet normal 0.4039715497569049 0.9147715490694955 0
outer loop
vertex 412.8881884920869 -65.38948693555821 1
vertex 413.34415573564803 -65.59084627408065 0
vertex 412.8881884920869 -65.38948693555822 0
endloop
endfacet
facet normal 0.2469318801799147 0.9690328408009774 0
outer loop
vertex 412.40517474533266 -65.26640391131295 1
vertex 412.8881884920869 -65.38948693555821 1
vertex 412.8881884920869 -65.38948693555822 0
endloop
endfacet
facet normal 0.2469318801799147 0.9690328408009774 0
outer loop
vertex 412.40517474533266 -65.26640391131295 1
vertex 412.8881884920869 -65.38948693555822 0
vertex 412.4051747453326 -65.26640391131295 0
endloop
endfacet
facet normal 0.08306525263412824 0.996544110315659 0
outer loop
vertex 411.90844690000006 -65.225 1
vertex 412.40517474533266 -65.26640391131295 1
vertex 412.4051747453326 -65.26640391131295 0
endloop
endfacet
facet normal 0.08306525263412824 0.996544110315659 0
outer loop
vertex 411.90844690000006 -65.225 1
vertex 412.4051747453326 -65.26640391131295 0
vertex 411.9084469 -65.225 0
endloop
endfacet
facet normal 0 1 0
outer loop
vertex 411.90844690000006 -65.225 1
vertex 411.9084469 -65.225 0
vertex 15.474999999999909 -65.225 0
endloop
endfacet
facet normal 0 1 0
outer loop
vertex 411.90844690000006 -65.225 1
vertex 15.474999999999909 -65.225 0
vertex 15.474999999999909 -65.225 1
endloop
endfacet
facet normal -0.08715574274764037 0.9961946980917471 0
outer loop
vertex 14.954055466999222 -65.27057674096335 1
vertex 15.474999999999909 -65.225 1
vertex 15.474999999999909 -65.225 0
endloop
endfacet
facet normal -0.08715574274764037 0.9961946980917471 0
outer loop
vertex 14.954055466999222 -65.27057674096335 1
vertex 15.474999999999909 -65.225 0
vertex 14.954055466999279 -65.27057674096335 0
endloop
endfacet
facet normal -0.2588190451025271 0.9659258262890666 0
outer loop
vertex 14.448939570023072 -65.40592213764224 1
vertex 14.954055466999222 -65.27057674096335 1
vertex 14.954055466999279 -65.27057674096335 0
endloop
endfacet
facet normal -0.2588190451025271 0.9659258262890666 0
outer loop
vertex 14.448939570023072 -65.40592213764224 1
vertex 14.954055466999279 -65.27057674096335 0
vertex 14.448939570023015 -65.40592213764226 0
endloop
endfacet
facet normal -0.42261826174070183 0.9063077870366489 0
outer loop
vertex 13.974999999999937 -65.62692378864672 1
vertex 14.448939570023072 -65.40592213764224 1
vertex 14.448939570023015 -65.40592213764226 0
endloop
endfacet
facet normal -0.42261826174070183 0.9063077870366489 0
outer loop
vertex 13.974999999999937 -65.62692378864672 1
vertex 14.448939570023015 -65.40592213764226 0
vertex 13.974999999999966 -65.6269237886467 0
endloop
endfacet
facet normal -0.5735764363510599 0.8191520442889821 0
outer loop
vertex 13.546637170940357 -65.92686667064308 1
vertex 13.974999999999937 -65.62692378864672 1
vertex 13.974999999999966 -65.6269237886467 0
endloop
endfacet
facet normal -0.5735764363510599 0.8191520442889821 0
outer loop
vertex 13.546637170940357 -65.92686667064308 1
vertex 13.974999999999966 -65.6269237886467 0
vertex 13.546637170940329 -65.92686667064311 0
endloop
endfacet
facet normal -0.7071067811865476 0.7071067811865476 0
outer loop
vertex 13.17686667064308 -66.29663717094034 1
vertex 13.546637170940357 -65.92686667064308 1
vertex 13.546637170940329 -65.92686667064311 0
endloop
endfacet
facet normal -0.7071067811865476 0.7071067811865476 0
outer loop
vertex 13.17686667064308 -66.29663717094034 1
vertex 13.546637170940329 -65.92686667064311 0
vertex 13.176866670643108 -66.29663717094033 0
endloop
endfacet
facet normal -0.8191520442890013 0.5735764363510325 0
outer loop
vertex 12.876923788646678 -66.72499999999998 1
vertex 13.17686667064308 -66.29663717094034 1
vertex 13.176866670643108 -66.29663717094033 0
endloop
endfacet
facet normal -0.8191520442890013 0.5735764363510325 0
outer loop
vertex 12.876923788646678 -66.72499999999998 1
vertex 13.176866670643108 -66.29663717094033 0
vertex 12.87692378864665 -66.72500000000007 0
endloop
endfacet
facet normal -0.9063077870366522 0.4226182617406946 0
outer loop
vertex 12.655922137642278 -67.19893957002296 1
vertex 12.876923788646678 -66.72499999999998 1
vertex 12.87692378864665 -66.72500000000007 0
endloop
endfacet
facet normal -0.9063077870366522 0.4226182617406946 0
outer loop
vertex 12.655922137642278 -67.19893957002296 1
vertex 12.87692378864665 -66.72500000000007 0
vertex 12.655922137642278 -67.19893957002296 0
endloop
endfacet
facet normal -0.9659258262890713 0.2588190451025092 0
outer loop
vertex 12.520576740963378 -67.70405546699921 1
vertex 12.655922137642278 -67.19893957002296 1
vertex 12.655922137642278 -67.19893957002296 0
endloop
endfacet
facet normal -0.9659258262890713 0.2588190451025092 0
outer loop
vertex 12.520576740963378 -67.70405546699921 1
vertex 12.655922137642278 -67.19893957002296 0
vertex 12.520576740963378 -67.7040554669992 0
endloop
endfacet
facet normal -0.9961946980917459 0.08715574274765459 0
outer loop
vertex 12.474999999999994 -68.225 1
vertex 12.520576740963378 -67.70405546699921 1
vertex 12.520576740963378 -67.7040554669992 0
endloop
endfacet
facet normal -0.9961946980917459 0.08715574274765459 0
outer loop
vertex 12.474999999999994 -68.225 1
vertex 12.520576740963378 -67.7040554669992 0
vertex 12.474999999999994 -68.225 0
endloop
endfacet
facet normal -1 0 0
outer loop
vertex 12.474999999999994 -68.225 1
vertex 12.474999999999994 -68.225 0
vertex 12.474999999999994 -186.525 0
endloop
endfacet
facet normal -1 0 0
outer loop
vertex 12.474999999999994 -68.225 1
vertex 12.474999999999994 -186.525 0
vertex 12.474999999999994 -186.52500000000026 1
endloop
endfacet
endsolid csg.js
